<svg width="42" height="40" viewBox="0 0 42 40" fill="none" xmlns="http://www.w3.org/2000/svg">
<g clip-path="url(#clip0)">
<g filter="url(#filter0_d)">
<rect width="42" height="40" rx="8" fill="#C7F0BD"/>
</g>
<path d="M13.5949 20.724L12.5389 17.838C12.4869 17.71 12.4329 17.558 12.3769 17.382C12.3209 17.206 12.2649 17.016 12.2089 16.812C12.1569 17.016 12.1029 17.208 12.0469 17.388C11.9909 17.564 11.9369 17.718 11.8849 17.85L10.8349 20.724H13.5949ZM16.4449 24H15.1969C15.0569 24 14.9429 23.966 14.8549 23.898C14.7669 23.826 14.7009 23.738 14.6569 23.634L14.0089 21.864H10.4149L9.76692 23.634C9.73492 23.726 9.67292 23.81 9.58092 23.886C9.48892 23.962 9.37492 24 9.23892 24H7.97892L11.3929 15.324H13.0369L16.4449 24ZM21.927 20.724L20.871 17.838C20.819 17.71 20.765 17.558 20.709 17.382C20.653 17.206 20.597 17.016 20.541 16.812C20.489 17.016 20.435 17.208 20.379 17.388C20.323 17.564 20.269 17.718 20.217 17.85L19.167 20.724H21.927ZM24.777 24H23.529C23.389 24 23.275 23.966 23.187 23.898C23.099 23.826 23.033 23.738 22.989 23.634L22.341 21.864H18.747L18.099 23.634C18.067 23.726 18.005 23.81 17.913 23.886C17.821 23.962 17.707 24 17.571 24H16.311L19.725 15.324H21.369L24.777 24ZM32.989 15.324V24H31.369V20.208H27.295V24H25.675V15.324H27.295V19.056H31.369V15.324H32.989Z" fill="black"/>
</g>
<defs>
<filter id="filter0_d" x="-4" y="-2" width="50" height="48" filterUnits="userSpaceOnUse" color-interpolation-filters="sRGB">
<feFlood flood-opacity="0" result="BackgroundImageFix"/>
<feColorMatrix in="SourceAlpha" type="matrix" values="0 0 0 0 0 0 0 0 0 0 0 0 0 0 0 0 0 0 127 0" result="hardAlpha"/>
<feOffset dy="2"/>
<feGaussianBlur stdDeviation="2"/>
<feColorMatrix type="matrix" values="0 0 0 0 0.889974 0 0 0 0 0.889974 0 0 0 0 0.889974 0 0 0 0.5 0"/>
<feBlend mode="normal" in2="BackgroundImageFix" result="effect1_dropShadow"/>
<feBlend mode="normal" in="SourceGraphic" in2="effect1_dropShadow" result="shape"/>
</filter>
<clipPath id="clip0">
<rect width="42" height="40" fill="white"/>
</clipPath>
</defs>
</svg>
