<svg width="42" height="40" viewBox="0 0 42 40" fill="none" xmlns="http://www.w3.org/2000/svg">
<g clip-path="url(#clip0)">
<g filter="url(#filter0_d)">
<rect width="42" height="40" rx="8" fill="#FFC6FF"/>
</g>
<path d="M9.21211 20.724L8.15611 17.838C8.10411 17.71 8.05011 17.558 7.99411 17.382C7.93811 17.206 7.88211 17.016 7.82611 16.812C7.77411 17.016 7.72011 17.208 7.66411 17.388C7.60811 17.564 7.55411 17.718 7.50211 17.85L6.45211 20.724H9.21211ZM12.0621 24H10.8141C10.6741 24 10.5601 23.966 10.4721 23.898C10.3841 23.826 10.3181 23.738 10.2741 23.634L9.62611 21.864H6.03211L5.38411 23.634C5.35211 23.726 5.29011 23.81 5.19811 23.886C5.10611 23.962 4.99211 24 4.85611 24H3.59611L7.01011 15.324H8.65411L12.0621 24ZM19.8543 19.65V23.16C19.4143 23.484 18.9443 23.722 18.4443 23.874C17.9483 24.022 17.4163 24.096 16.8483 24.096C16.1403 24.096 15.4983 23.986 14.9223 23.766C14.3503 23.546 13.8603 23.24 13.4523 22.848C13.0483 22.456 12.7363 21.988 12.5163 21.444C12.2963 20.9 12.1863 20.306 12.1863 19.662C12.1863 19.01 12.2923 18.412 12.5043 17.868C12.7163 17.324 13.0163 16.856 13.4043 16.464C13.7963 16.072 14.2703 15.768 14.8263 15.552C15.3823 15.336 16.0063 15.228 16.6983 15.228C17.0503 15.228 17.3783 15.256 17.6823 15.312C17.9903 15.368 18.2743 15.446 18.5343 15.546C18.7983 15.642 19.0383 15.76 19.2543 15.9C19.4703 16.04 19.6683 16.194 19.8483 16.362L19.3863 17.094C19.3143 17.21 19.2203 17.282 19.1043 17.31C18.9883 17.334 18.8623 17.304 18.7263 17.22C18.5943 17.144 18.4623 17.068 18.3303 16.992C18.1983 16.916 18.0503 16.85 17.8863 16.794C17.7263 16.738 17.5443 16.692 17.3403 16.656C17.1403 16.62 16.9083 16.602 16.6443 16.602C16.2163 16.602 15.8283 16.674 15.4803 16.818C15.1363 16.962 14.8423 17.168 14.5983 17.436C14.3543 17.704 14.1663 18.026 14.0343 18.402C13.9023 18.778 13.8363 19.198 13.8363 19.662C13.8363 20.158 13.9063 20.602 14.0463 20.994C14.1903 21.382 14.3903 21.712 14.6463 21.984C14.9063 22.252 15.2183 22.458 15.5823 22.602C15.9463 22.742 16.3523 22.812 16.8003 22.812C17.1203 22.812 17.4063 22.778 17.6583 22.71C17.9103 22.642 18.1563 22.55 18.3963 22.434V20.862H17.3043C17.2003 20.862 17.1183 20.834 17.0583 20.778C17.0023 20.718 16.9743 20.646 16.9743 20.562V19.65H19.8543ZM23.0294 16.608V19.014H26.0654V20.256H23.0294V22.71H26.8814V24H21.4094V15.324H26.8814V16.608H23.0294ZM31.1317 19.686C31.4277 19.686 31.6857 19.65 31.9057 19.578C32.1257 19.502 32.3077 19.396 32.4517 19.26C32.5997 19.12 32.7097 18.952 32.7817 18.756C32.8537 18.556 32.8897 18.334 32.8897 18.09C32.8897 17.858 32.8537 17.648 32.7817 17.46C32.7097 17.272 32.6017 17.112 32.4577 16.98C32.3137 16.848 32.1317 16.748 31.9117 16.68C31.6917 16.608 31.4317 16.572 31.1317 16.572H29.9257V19.686H31.1317ZM31.1317 15.324C31.7117 15.324 32.2137 15.392 32.6377 15.528C33.0617 15.664 33.4117 15.854 33.6877 16.098C33.9637 16.342 34.1677 16.634 34.2997 16.974C34.4357 17.314 34.5037 17.686 34.5037 18.09C34.5037 18.51 34.4337 18.896 34.2937 19.248C34.1537 19.596 33.9437 19.896 33.6637 20.148C33.3837 20.4 33.0317 20.596 32.6077 20.736C32.1877 20.876 31.6957 20.946 31.1317 20.946H29.9257V24H28.3117V15.324H31.1317ZM37.3614 24H35.7414V15.324H37.3614V24Z" fill="black"/>
</g>
<defs>
<filter id="filter0_d" x="-4" y="-2" width="50" height="48" filterUnits="userSpaceOnUse" color-interpolation-filters="sRGB">
<feFlood flood-opacity="0" result="BackgroundImageFix"/>
<feColorMatrix in="SourceAlpha" type="matrix" values="0 0 0 0 0 0 0 0 0 0 0 0 0 0 0 0 0 0 127 0" result="hardAlpha"/>
<feOffset dy="2"/>
<feGaussianBlur stdDeviation="2"/>
<feColorMatrix type="matrix" values="0 0 0 0 0.889974 0 0 0 0 0.889974 0 0 0 0 0.889974 0 0 0 0.5 0"/>
<feBlend mode="normal" in2="BackgroundImageFix" result="effect1_dropShadow"/>
<feBlend mode="normal" in="SourceGraphic" in2="effect1_dropShadow" result="shape"/>
</filter>
<clipPath id="clip0">
<rect width="42" height="40" fill="white"/>
</clipPath>
</defs>
</svg>
