<svg width="42" height="40" viewBox="0 0 42 40" fill="none" xmlns="http://www.w3.org/2000/svg">
<g clip-path="url(#clip0)">
<g filter="url(#filter0_d)">
<rect width="42" height="40" rx="8" fill="#F1A378"/>
</g>
<path d="M16.7121 20.724L15.6561 17.838C15.6041 17.71 15.5501 17.558 15.4941 17.382C15.4381 17.206 15.3821 17.016 15.3261 16.812C15.2741 17.016 15.2201 17.208 15.1641 17.388C15.1081 17.564 15.0541 17.718 15.0021 17.85L13.9521 20.724H16.7121ZM19.5621 24H18.3141C18.1741 24 18.0601 23.966 17.9721 23.898C17.8841 23.826 17.8181 23.738 17.7741 23.634L17.1261 21.864H13.5321L12.8841 23.634C12.8521 23.726 12.7901 23.81 12.6981 23.886C12.6061 23.962 12.4921 24 12.3561 24H11.0961L14.5101 15.324H16.1541L19.5621 24ZM29.8681 15.324V24H28.4461V18.396C28.4461 18.172 28.4581 17.93 28.4821 17.67L25.8601 22.596C25.7361 22.832 25.5461 22.95 25.2901 22.95H25.0621C24.8061 22.95 24.6161 22.832 24.4921 22.596L21.8401 17.652C21.8521 17.784 21.8621 17.914 21.8701 18.042C21.8781 18.17 21.8821 18.288 21.8821 18.396V24H20.4601V15.324H21.6781C21.7501 15.324 21.8121 15.326 21.8641 15.33C21.9161 15.334 21.9621 15.344 22.0021 15.36C22.0461 15.376 22.0841 15.402 22.1161 15.438C22.1521 15.474 22.1861 15.522 22.2181 15.582L24.8161 20.4C24.8841 20.528 24.9461 20.66 25.0021 20.796C25.0621 20.932 25.1201 21.072 25.1761 21.216C25.2321 21.068 25.2901 20.926 25.3501 20.79C25.4101 20.65 25.4741 20.516 25.5421 20.388L28.1041 15.582C28.1361 15.522 28.1701 15.474 28.2061 15.438C28.2421 15.402 28.2801 15.376 28.3201 15.36C28.3641 15.344 28.4121 15.334 28.4641 15.33C28.5161 15.326 28.5781 15.324 28.6501 15.324H29.8681Z" fill="black"/>
</g>
<defs>
<filter id="filter0_d" x="-4" y="-2" width="50" height="48" filterUnits="userSpaceOnUse" color-interpolation-filters="sRGB">
<feFlood flood-opacity="0" result="BackgroundImageFix"/>
<feColorMatrix in="SourceAlpha" type="matrix" values="0 0 0 0 0 0 0 0 0 0 0 0 0 0 0 0 0 0 127 0" result="hardAlpha"/>
<feOffset dy="2"/>
<feGaussianBlur stdDeviation="2"/>
<feColorMatrix type="matrix" values="0 0 0 0 0.889974 0 0 0 0 0.889974 0 0 0 0 0.889974 0 0 0 0.5 0"/>
<feBlend mode="normal" in2="BackgroundImageFix" result="effect1_dropShadow"/>
<feBlend mode="normal" in="SourceGraphic" in2="effect1_dropShadow" result="shape"/>
</filter>
<clipPath id="clip0">
<rect width="42" height="40" fill="white"/>
</clipPath>
</defs>
</svg>
