<svg width="50" height="50" viewBox="0 0 50 50" fill="none" xmlns="http://www.w3.org/2000/svg">
<path d="M5.96377 16.5947C5.78223 16.413 5.53027 16.3086 5.27344 16.3086C5.0166 16.3086 4.76475 16.4131 4.58301 16.5947C4.40127 16.7764 4.29688 17.0283 4.29688 17.2852C4.29688 17.542 4.40127 17.7939 4.58301 17.9755C4.76465 18.1572 5.0166 18.2617 5.27344 18.2617C5.53027 18.2617 5.78223 18.1572 5.96377 17.9755C6.14551 17.7939 6.25 17.542 6.25 17.2852C6.25 17.0283 6.14551 16.7764 5.96377 16.5947Z" fill="#1B2B67"/>
<path d="M42.7734 0H23.0144C22.4751 0 22.0378 0.437305 22.0378 0.976562C22.0378 1.51582 22.4751 1.95312 23.0144 1.95312H42.7734C43.3119 1.95312 43.75 2.39121 43.75 2.92969V47.0703C43.75 47.6088 43.3119 48.0469 42.7734 48.0469H7.22656C6.68809 48.0469 6.25 47.6088 6.25 47.0703V20.931C6.25 20.3917 5.8127 19.9544 5.27344 19.9544C4.73418 19.9544 4.29688 20.3917 4.29688 20.931V47.0703C4.29688 48.6857 5.61113 50 7.22656 50H42.7734C44.3889 50 45.7031 48.6857 45.7031 47.0703V2.92969C45.7031 1.31426 44.3889 0 42.7734 0Z" fill="#1B2B67"/>
<path d="M24.9999 3.90625C24.3355 3.90625 23.6677 3.95703 23.0152 4.05703C22.482 4.13887 22.1161 4.63721 22.1979 5.17031C22.2796 5.70342 22.7782 6.06885 23.3111 5.9876C23.8661 5.90244 24.4343 5.85938 24.9999 5.85938C31.0848 5.85938 36.0352 10.8098 36.0352 16.8946C36.0352 19.5968 35.0584 22.0746 33.4401 23.9952C32.7239 22.7638 31.7458 21.7016 30.5586 20.8776C29.8657 20.3968 29.1213 20.013 28.342 19.7289C29.2315 18.8595 29.7851 17.6479 29.7851 16.3088V15.3566C29.7851 12.718 27.6385 10.5714 24.9999 10.5714C22.3613 10.5714 20.2148 12.718 20.2148 15.3566V16.3088C20.2148 17.6479 20.7683 18.8595 21.6578 19.7289C20.8786 20.013 20.1342 20.3968 19.4412 20.8776C18.2484 21.7056 17.2663 22.7737 16.5493 24.0126C15.3162 22.5473 14.4543 20.7449 14.1171 18.7343C14.0279 18.2025 13.5239 17.8438 12.9925 17.9327C12.4606 18.0219 12.1017 18.5254 12.1908 19.0573C12.693 22.0515 14.2474 24.7921 16.5678 26.7742C18.9146 28.779 21.9092 29.8831 24.9998 29.8831C32.1616 29.8831 37.9882 24.0565 37.9882 16.8947C37.9882 9.73291 32.1617 3.90625 24.9999 3.90625ZM22.1679 15.3565C22.1679 13.7949 23.4384 12.5244 24.9999 12.5244C26.5614 12.5244 27.8319 13.7949 27.8319 15.3565V16.3087C27.8319 17.8702 26.5614 19.1407 24.9999 19.1407C23.4384 19.1407 22.1679 17.8702 22.1679 16.3087V15.3565ZM24.9999 27.9299C22.356 27.9299 19.9116 27.0066 17.9986 25.4414C19.3099 22.7801 21.9906 21.0938 24.9999 21.0938C28.0029 21.0938 30.6786 22.7731 31.9929 25.4248C30.0879 26.9894 27.6517 27.9299 24.9999 27.9299Z" fill="#1B2B67"/>
<path d="M34.019 38.8672H20.1519C19.6126 38.8672 19.1753 39.3045 19.1753 39.8438C19.1753 40.383 19.6126 40.8203 20.1519 40.8203H34.019C34.5584 40.8203 34.9956 40.383 34.9956 39.8438C34.9956 39.3045 34.5583 38.8672 34.019 38.8672Z" fill="#1B2B67"/>
<path d="M16.6709 33.6846C16.4893 33.5028 16.2373 33.3984 15.9805 33.3984C15.7236 33.3984 15.4717 33.5029 15.29 33.6846C15.1084 33.8662 15.0039 34.1182 15.0039 34.375C15.0039 34.6327 15.1085 34.8838 15.29 35.0653C15.4717 35.2471 15.7236 35.3516 15.9805 35.3516C16.2373 35.3516 16.4893 35.2471 16.6709 35.0653C16.8535 34.8838 16.957 34.6318 16.957 34.375C16.957 34.1182 16.8535 33.8662 16.6709 33.6846Z" fill="#1B2B67"/>
<path d="M16.6709 39.1533C16.4893 38.9716 16.2383 38.8672 15.9805 38.8672C15.7236 38.8672 15.4717 38.9717 15.29 39.1533C15.1084 39.335 15.0039 39.5869 15.0039 39.8438C15.0039 40.1015 15.1085 40.3525 15.29 40.5341C15.4717 40.7158 15.7236 40.8203 15.9805 40.8203C16.2373 40.8203 16.4893 40.7158 16.6709 40.5341C16.8535 40.3525 16.957 40.1016 16.957 39.8438C16.957 39.5869 16.8535 39.335 16.6709 39.1533Z" fill="#1B2B67"/>
<path d="M34.019 33.3984H20.1519C19.6126 33.3984 19.1753 33.8357 19.1753 34.375C19.1753 34.9143 19.6126 35.3516 20.1519 35.3516H34.019C34.5584 35.3516 34.9956 34.9143 34.9956 34.375C34.9956 33.8357 34.5583 33.3984 34.019 33.3984Z" fill="#1B2B67"/>
<path d="M15.7837 5.62773C15.4021 5.24648 14.784 5.24648 14.4025 5.62773L11.2222 8.80801L10.1354 7.72119C9.75388 7.33994 9.13572 7.33994 8.75427 7.72119C8.37292 8.10264 8.37292 8.721 8.75427 9.10234L10.5316 10.8797C10.7223 11.0703 10.9721 11.1657 11.2221 11.1657C11.4721 11.1657 11.7219 11.0703 11.9128 10.8798L15.7837 7.00889C16.165 6.62744 16.165 6.00908 15.7837 5.62773Z" fill="#1B2B67"/>
<path d="M12.3047 0C7.88916 0 4.29688 3.59229 4.29688 8.00781C4.29688 12.4233 7.88916 16.0156 12.3047 16.0156C16.7202 16.0156 20.3125 12.4233 20.3125 8.00781C20.3125 3.59229 16.7202 0 12.3047 0ZM12.3047 14.0625C8.96611 14.0625 6.25 11.3464 6.25 8.00781C6.25 4.66924 8.96611 1.95312 12.3047 1.95312C15.6433 1.95312 18.3594 4.66924 18.3594 8.00781C18.3594 11.3464 15.6433 14.0625 12.3047 14.0625Z" fill="#1B2B67"/>
</svg>
