<svg width="42" height="40" viewBox="0 0 42 40" fill="none" xmlns="http://www.w3.org/2000/svg">
<g clip-path="url(#clip0)">
<g filter="url(#filter0_d)">
<rect width="42" height="40" rx="8" fill="#F8CF8D"/>
</g>
<path d="M15.798 20.724L14.742 17.838C14.69 17.71 14.636 17.558 14.58 17.382C14.524 17.206 14.468 17.016 14.412 16.812C14.36 17.016 14.306 17.208 14.25 17.388C14.194 17.564 14.14 17.718 14.088 17.85L13.038 20.724H15.798ZM18.648 24H17.4C17.26 24 17.146 23.966 17.058 23.898C16.97 23.826 16.904 23.738 16.86 23.634L16.212 21.864H12.618L11.97 23.634C11.938 23.726 11.876 23.81 11.784 23.886C11.692 23.962 11.578 24 11.442 24H10.182L13.596 15.324H15.24L18.648 24ZM24.1661 16.902C24.1181 16.986 24.0661 17.048 24.0101 17.088C23.9581 17.124 23.8921 17.142 23.8121 17.142C23.7281 17.142 23.6361 17.112 23.5361 17.052C23.4401 16.988 23.3241 16.918 23.1881 16.842C23.0521 16.766 22.8921 16.698 22.7081 16.638C22.5281 16.574 22.3141 16.542 22.0661 16.542C21.8421 16.542 21.6461 16.57 21.4781 16.626C21.3101 16.678 21.1681 16.752 21.0521 16.848C20.9401 16.944 20.8561 17.06 20.8001 17.196C20.7441 17.328 20.7161 17.474 20.7161 17.634C20.7161 17.838 20.7721 18.008 20.8841 18.144C21.0001 18.28 21.1521 18.396 21.3401 18.492C21.5281 18.588 21.7421 18.674 21.9821 18.75C22.2221 18.826 22.4681 18.908 22.7201 18.996C22.9721 19.08 23.2181 19.18 23.4581 19.296C23.6981 19.408 23.9121 19.552 24.1001 19.728C24.2881 19.9 24.4381 20.112 24.5501 20.364C24.6661 20.616 24.7241 20.922 24.7241 21.282C24.7241 21.674 24.6561 22.042 24.5201 22.386C24.3881 22.726 24.1921 23.024 23.9321 23.28C23.6761 23.532 23.3621 23.732 22.9901 23.88C22.6181 24.024 22.1921 24.096 21.7121 24.096C21.4361 24.096 21.1641 24.068 20.8961 24.012C20.6281 23.96 20.3701 23.884 20.1221 23.784C19.8781 23.684 19.6481 23.564 19.4321 23.424C19.2161 23.284 19.0241 23.128 18.8561 22.956L19.3301 22.182C19.3701 22.126 19.4221 22.08 19.4861 22.044C19.5501 22.004 19.6181 21.984 19.6901 21.984C19.7901 21.984 19.8981 22.026 20.0141 22.11C20.1301 22.19 20.2681 22.28 20.4281 22.38C20.5881 22.48 20.7741 22.572 20.9861 22.656C21.2021 22.736 21.4601 22.776 21.7601 22.776C22.2201 22.776 22.5761 22.668 22.8281 22.452C23.0801 22.232 23.2061 21.918 23.2061 21.51C23.2061 21.282 23.1481 21.096 23.0321 20.952C22.9201 20.808 22.7701 20.688 22.5821 20.592C22.3941 20.492 22.1801 20.408 21.9401 20.34C21.7001 20.272 21.4561 20.198 21.2081 20.118C20.9601 20.038 20.7161 19.942 20.4761 19.83C20.2361 19.718 20.0221 19.572 19.8341 19.392C19.6461 19.212 19.4941 18.988 19.3781 18.72C19.2661 18.448 19.2101 18.114 19.2101 17.718C19.2101 17.402 19.2721 17.094 19.3961 16.794C19.5241 16.494 19.7081 16.228 19.9481 15.996C20.1881 15.764 20.4841 15.578 20.8361 15.438C21.1881 15.298 21.5921 15.228 22.0481 15.228C22.5601 15.228 23.0321 15.308 23.4641 15.468C23.8961 15.628 24.2641 15.852 24.5681 16.14L24.1661 16.902ZM30.752 16.902C30.704 16.986 30.652 17.048 30.596 17.088C30.544 17.124 30.478 17.142 30.398 17.142C30.314 17.142 30.222 17.112 30.122 17.052C30.026 16.988 29.91 16.918 29.774 16.842C29.638 16.766 29.478 16.698 29.294 16.638C29.114 16.574 28.9 16.542 28.652 16.542C28.428 16.542 28.232 16.57 28.064 16.626C27.896 16.678 27.754 16.752 27.638 16.848C27.526 16.944 27.442 17.06 27.386 17.196C27.33 17.328 27.302 17.474 27.302 17.634C27.302 17.838 27.358 18.008 27.47 18.144C27.586 18.28 27.738 18.396 27.926 18.492C28.114 18.588 28.328 18.674 28.568 18.75C28.808 18.826 29.054 18.908 29.306 18.996C29.558 19.08 29.804 19.18 30.044 19.296C30.284 19.408 30.498 19.552 30.686 19.728C30.874 19.9 31.024 20.112 31.136 20.364C31.252 20.616 31.31 20.922 31.31 21.282C31.31 21.674 31.242 22.042 31.106 22.386C30.974 22.726 30.778 23.024 30.518 23.28C30.262 23.532 29.948 23.732 29.576 23.88C29.204 24.024 28.778 24.096 28.298 24.096C28.022 24.096 27.75 24.068 27.482 24.012C27.214 23.96 26.956 23.884 26.708 23.784C26.464 23.684 26.234 23.564 26.018 23.424C25.802 23.284 25.61 23.128 25.442 22.956L25.916 22.182C25.956 22.126 26.008 22.08 26.072 22.044C26.136 22.004 26.204 21.984 26.276 21.984C26.376 21.984 26.484 22.026 26.6 22.11C26.716 22.19 26.854 22.28 27.014 22.38C27.174 22.48 27.36 22.572 27.572 22.656C27.788 22.736 28.046 22.776 28.346 22.776C28.806 22.776 29.162 22.668 29.414 22.452C29.666 22.232 29.792 21.918 29.792 21.51C29.792 21.282 29.734 21.096 29.618 20.952C29.506 20.808 29.356 20.688 29.168 20.592C28.98 20.492 28.766 20.408 28.526 20.34C28.286 20.272 28.042 20.198 27.794 20.118C27.546 20.038 27.302 19.942 27.062 19.83C26.822 19.718 26.608 19.572 26.42 19.392C26.232 19.212 26.08 18.988 25.964 18.72C25.852 18.448 25.796 18.114 25.796 17.718C25.796 17.402 25.858 17.094 25.982 16.794C26.11 16.494 26.294 16.228 26.534 15.996C26.774 15.764 27.07 15.578 27.422 15.438C27.774 15.298 28.178 15.228 28.634 15.228C29.146 15.228 29.618 15.308 30.05 15.468C30.482 15.628 30.85 15.852 31.154 16.14L30.752 16.902Z" fill="black"/>
</g>
<defs>
<filter id="filter0_d" x="-4" y="-2" width="50" height="48" filterUnits="userSpaceOnUse" color-interpolation-filters="sRGB">
<feFlood flood-opacity="0" result="BackgroundImageFix"/>
<feColorMatrix in="SourceAlpha" type="matrix" values="0 0 0 0 0 0 0 0 0 0 0 0 0 0 0 0 0 0 127 0" result="hardAlpha"/>
<feOffset dy="2"/>
<feGaussianBlur stdDeviation="2"/>
<feColorMatrix type="matrix" values="0 0 0 0 0.889974 0 0 0 0 0.889974 0 0 0 0 0.889974 0 0 0 0.5 0"/>
<feBlend mode="normal" in2="BackgroundImageFix" result="effect1_dropShadow"/>
<feBlend mode="normal" in="SourceGraphic" in2="effect1_dropShadow" result="shape"/>
</filter>
<clipPath id="clip0">
<rect width="42" height="40" fill="white"/>
</clipPath>
</defs>
</svg>
