<?xml version="1.0" encoding="UTF-8"?>
<svg width="813px" height="479px" viewBox="0 0 813 479" version="1.1" xmlns="http://www.w3.org/2000/svg" xmlns:xlink="http://www.w3.org/1999/xlink">
    <!-- Generator: Sketch 49.1 (51147) - http://www.bohemiancoding.com/sketch -->
    <title>illustration</title>
    <desc>Created with Sketch.</desc>
    <defs>
        <path d="M66.6384842,-2.84217094e-14 L0.198868399,185.494215 L284.23446,185.494215 C290.133657,185.494215 295.554276,188.740302 298.339243,193.940734 L494.319016,559.89815 L1309.80637,559.89815 L1309.80637,-2.84217094e-14 L66.6384842,-2.84217094e-14 Z" id="path-1"></path>
        <filter x="-0.5%" y="-0.9%" width="101.1%" height="102.5%" filterUnits="objectBoundingBox" id="filter-3">
            <feOffset dx="0" dy="2" in="SourceAlpha" result="shadowOffsetOuter1"></feOffset>
            <feGaussianBlur stdDeviation="2" in="shadowOffsetOuter1" result="shadowBlurOuter1"></feGaussianBlur>
            <feColorMatrix values="0 0 0 0 0.889973958   0 0 0 0 0.889973958   0 0 0 0 0.889973958  0 0 0 0.5 0" type="matrix" in="shadowBlurOuter1"></feColorMatrix>
        </filter>
    </defs>
    <g id="Parcours-entier" stroke="none" stroke-width="1" fill="none" fill-rule="evenodd">
        <g id="Desktop" transform="translate(-211.000000, 0.000000)">
            <g id="illustration" transform="translate(148.000000, -87.000000)">
                <g id="Group-4" transform="translate(66.193626, 0.000000)">
                    <mask id="mask-2" fill="white">
                        <use xlink:href="#path-1"></use>
                    </mask>
                    <g id="Mask">
                        <use fill="black" fill-opacity="1" filter="url(#filter-3)" xlink:href="#path-1"></use>
                        <use fill="#FFFFFF" fill-rule="evenodd" xlink:href="#path-1"></use>
                    </g>
                    <g mask="url(#mask-2)">
                        <g transform="translate(-66.193626, 0.000000)">
                            <rect id="Rectangle" fill="#A8F2E3" fill-rule="nonzero" x="0" y="0" width="1443.02105" height="559.795041"></rect>
                            <g id="calculator" stroke-width="1" fill="none" fill-rule="evenodd" transform="translate(604.844257, 304.740496) rotate(15.000000) translate(-604.844257, -304.740496) translate(521.274805, 204.540496)">
                                <path d="M18.116965,199.935369 L154.087876,199.935369 C161.267578,199.935369 167.087876,194.115071 167.087876,186.935369 L167.087876,18.69136 C167.087876,11.5116583 161.267578,5.69136 154.087876,5.69136 L18.116965,5.69136 C10.9372632,5.69136 5.11696499,11.5116583 5.11696499,18.69136 L5.11696499,186.935369 C5.11696499,194.115071 10.9372632,199.935369 18.116965,199.935369 Z" id="Shape" fill="#15BDB1" fill-rule="nonzero"></path>
                                <path d="M13,194.310809 L148.970911,194.310809 C156.150613,194.310809 161.970911,188.490511 161.970911,181.310809 L161.970911,13.0668 C161.970911,5.88709825 156.150613,0.0668 148.970911,0.0668 L13,0.0668 C5.82029825,0.0668 -8.79259876e-16,5.88709825 0,13.0668 L0,181.310809 C8.79259876e-16,188.490511 5.82029825,194.310809 13,194.310809 Z" id="Shape" fill="#666666" fill-rule="nonzero"></path>
                                <g id="Group" transform="translate(14.791054, 63.088889)" fill="#FFFFFF" fill-rule="nonzero">
                                    <path d="M4.52680195,0.440137778 L21.2044544,0.440137778 C23.4630483,0.440137778 25.3104509,2.29272444 25.3104509,4.56095556 L25.3104509,21.2988089 C25.3104509,23.5655556 23.4645274,25.4196267 21.2044544,25.4196267 L4.52680195,25.4196267 C2.26820807,25.4196267 0.420805475,23.5655556 0.420805475,21.2988089 L0.420805475,4.56095556 C0.420805475,2.29420889 2.26820807,0.440137778 4.52680195,0.440137778 Z" id="Shape"></path>
                                    <path d="M36.8541287,0.440137778 L53.5332603,0.440137778 C55.7918541,0.440137778 57.6377776,2.29272444 57.6377776,4.56095556 L57.6377776,21.2988089 C57.6377776,23.5655556 55.7918541,25.4196267 53.5332603,25.4196267 L36.8541287,25.4196267 C34.5977535,25.4196267 32.7481322,23.5655556 32.7481322,21.2988089 L32.7481322,4.56095556 C32.7488718,2.29420889 34.5962744,0.440137778 36.8541287,0.440137778 Z" id="Shape"></path>
                                </g>
                                <path d="M83.9732486,63.5290267 L100.65238,63.5290267 C102.908755,63.5290267 104.758377,65.3816133 104.758377,67.6498444 L104.758377,84.3876978 C104.758377,86.6544444 102.909495,88.5085156 100.65238,88.5085156 L83.9732486,88.5085156 C81.7168733,88.5085156 79.8709498,86.6544444 79.8709498,84.3876978 L79.8709498,67.6498444 C79.8709498,65.3830978 81.7168733,63.5290267 83.9732486,63.5290267 Z" id="Shape" fill="#FBB429" fill-rule="nonzero"></path>
                                <path d="M116.302794,63.5290267 L132.980446,63.5290267 C135.23904,63.5290267 137.086443,65.3816133 137.086443,67.6498444 L137.086443,84.3876978 C137.086443,86.6544444 135.23904,88.5085156 132.980446,88.5085156 L116.302794,88.5085156 C114.0442,88.5085156 112.196797,86.6544444 112.196797,84.3876978 L112.196797,67.6498444 C112.197537,65.3830978 114.042721,63.5290267 116.302794,63.5290267 Z" id="Shape" fill="#FF5B61" fill-rule="nonzero"></path>
                                <g id="Group" transform="translate(14.791054, 95.004444)" fill="#FFFFFF" fill-rule="nonzero">
                                    <path d="M4.52680195,0.256066667 L21.2044544,0.256066667 C23.4630483,0.256066667 25.3104509,2.11162222 25.3104509,4.37688444 L25.3104509,21.1147378 C25.3104509,23.3814844 23.4645274,25.2355556 21.2044544,25.2355556 L4.52680195,25.2355556 C2.26820807,25.2355556 0.420805475,23.3829689 0.420805475,21.1147378 L0.420805475,4.37688444 C0.420805475,2.11162222 2.26820807,0.256066667 4.52680195,0.256066667 Z" id="Shape"></path>
                                    <path d="M36.8541287,0.256066667 L53.5332603,0.256066667 C55.7918541,0.256066667 57.6377776,2.11162222 57.6377776,4.37688444 L57.6377776,21.1147378 C57.6377776,23.3814844 55.7918541,25.2355556 53.5332603,25.2355556 L36.8541287,25.2355556 C34.5977535,25.2355556 32.7481322,23.3829689 32.7481322,21.1147378 L32.7481322,4.37688444 C32.7488718,2.11162222 34.5962744,0.256066667 36.8541287,0.256066667 Z" id="Shape"></path>
                                    <path d="M69.182195,0.256066667 L85.8613266,0.256066667 C88.1177018,0.256066667 89.967323,2.11162222 89.967323,4.37688444 L89.967323,21.1147378 C89.967323,23.3814844 88.1184413,25.2355556 85.8613266,25.2355556 L69.182195,25.2355556 C66.9258197,25.2355556 65.0798963,23.3829689 65.0798963,21.1147378 L65.0798963,4.37688444 C65.0798963,2.11162222 66.9258197,0.256066667 69.182195,0.256066667 Z" id="Shape"></path>
                                    <path d="M101.51174,0.256066667 L118.189393,0.256066667 C120.447987,0.256066667 122.295389,2.11162222 122.295389,4.37688444 L122.295389,21.1147378 C122.295389,23.3814844 120.447987,25.2355556 118.189393,25.2355556 L101.51174,25.2355556 C99.2531465,25.2355556 97.4057439,23.3829689 97.4057439,21.1147378 L97.4057439,4.37688444 C97.4064834,2.11162222 99.2516674,0.256066667 101.51174,0.256066667 Z" id="Shape"></path>
                                    <path d="M4.52680195,31.9882933 L21.2044544,31.9882933 C23.4630483,31.9882933 25.3104509,33.8423644 25.3104509,36.1076267 L25.3104509,52.8469644 C25.3104509,55.1114844 23.4645274,56.9640711 21.2044544,56.9640711 L4.52680195,56.9640711 C2.26820807,56.9640711 0.420805475,55.11 0.420805475,52.8469644 L0.420805475,36.1076267 C0.420805475,33.8423644 2.26820807,31.9882933 4.52680195,31.9882933 Z" id="Shape"></path>
                                    <path d="M36.8541287,31.9882933 L53.5332603,31.9882933 C55.7918541,31.9882933 57.6377776,33.8423644 57.6377776,36.1076267 L57.6377776,52.8469644 C57.6377776,55.1114844 55.7918541,56.9640711 53.5332603,56.9640711 L36.8541287,56.9640711 C34.5977535,56.9640711 32.7481322,55.11 32.7481322,52.8469644 L32.7481322,36.1076267 C32.7488718,33.8423644 34.5962744,31.9882933 36.8541287,31.9882933 Z" id="Shape"></path>
                                    <path d="M69.182195,31.9882933 L85.8613266,31.9882933 C88.1177018,31.9882933 89.967323,33.8423644 89.967323,36.1076267 L89.967323,52.8469644 C89.967323,55.1114844 88.1184413,56.9640711 85.8613266,56.9640711 L69.182195,56.9640711 C66.9258197,56.9640711 65.0798963,55.11 65.0798963,52.8469644 L65.0798963,36.1076267 C65.0798963,33.8423644 66.9258197,31.9882933 69.182195,31.9882933 Z" id="Shape"></path>
                                    <path d="M101.51174,31.9882933 L118.189393,31.9882933 C120.447987,31.9882933 122.295389,33.8423644 122.295389,36.1076267 L122.295389,52.8469644 C122.295389,55.1114844 120.447987,56.9640711 118.189393,56.9640711 L101.51174,56.9640711 C99.2531465,56.9640711 97.4057439,55.11 97.4057439,52.8469644 L97.4057439,36.1076267 C97.4064834,33.8423644 99.2516674,31.9882933 101.51174,31.9882933 Z" id="Shape"></path>
                                    <path d="M4.52680195,63.7182933 L21.2044544,63.7182933 C23.4630483,63.7182933 25.3104509,65.57088 25.3104509,67.8376267 L25.3104509,84.57548 C25.3104509,86.8422267 23.4645274,88.6962978 21.2044544,88.6962978 L4.52680195,88.6962978 C2.26820807,88.6962978 0.420805475,86.8422267 0.420805475,84.57548 L0.420805475,67.8376267 C0.420805475,65.5701378 2.26820807,63.7182933 4.52680195,63.7182933 Z" id="Shape"></path>
                                    <path d="M36.8541287,63.7182933 L53.5332603,63.7182933 C55.7918541,63.7182933 57.6377776,65.57088 57.6377776,67.8376267 L57.6377776,84.57548 C57.6377776,86.8422267 55.7918541,88.6962978 53.5332603,88.6962978 L36.8541287,88.6962978 C34.5977535,88.6962978 32.7481322,86.8422267 32.7481322,84.57548 L32.7481322,67.8376267 C32.7488718,65.5701378 34.5962744,63.7182933 36.8541287,63.7182933 Z" id="Shape"></path>
                                    <path d="M69.182195,63.7182933 L85.8613266,63.7182933 C88.1177018,63.7182933 89.967323,65.57088 89.967323,67.8376267 L89.967323,84.57548 C89.967323,86.8422267 88.1184413,88.6962978 85.8613266,88.6962978 L69.182195,88.6962978 C66.9258197,88.6962978 65.0798963,86.8422267 65.0798963,84.57548 L65.0798963,67.8376267 C65.0798963,65.5701378 66.9258197,63.7182933 69.182195,63.7182933 Z" id="Shape"></path>
                                    <path d="M101.51174,63.7182933 L118.189393,63.7182933 C120.447987,63.7182933 122.295389,65.57088 122.295389,67.8376267 L122.295389,84.57548 C122.295389,86.8422267 120.447987,88.6962978 118.189393,88.6962978 L101.51174,88.6962978 C99.2531465,88.6962978 97.4057439,86.8422267 97.4057439,84.57548 L97.4057439,67.8376267 C97.4064834,65.5701378 99.2516674,63.7182933 101.51174,63.7182933 Z" id="Shape"></path>
                                </g>
                                <polygon id="Shape" fill="#C8CACC" fill-rule="nonzero" points="11.0030648 10.2812622 150.965628 10.2812622 150.965628 41.3365822 11.0030648 41.3365822"></polygon>
                                <path d="M136.569496,16.2004844 C138.323715,16.2004844 139.923367,16.9241511 141.084465,18.0872133 L141.087423,18.0886978 L141.088902,18.0916667 C142.25,19.2569556 142.968845,20.8623822 142.968845,22.6229333 L142.968845,27.3197156 C142.968845,29.0869467 142.247781,30.6960844 141.088902,31.8576622 C139.931502,33.0214667 138.329631,33.7443911 136.568756,33.7443911 C134.810839,33.7443911 133.209708,33.0207244 132.052308,31.8576622 L132.047131,31.8524667 C130.887512,30.6886622 130.168667,29.0832356 130.168667,27.3197156 L130.168667,22.6229333 C130.168667,20.8557022 130.889731,19.2487911 132.047131,18.0864711 C133.20675,16.9226667 134.807881,16.1997422 136.570235,16.1997422 L136.569496,16.1997422 L136.569496,16.2004844 Z M139.467063,19.71268 C138.725292,18.9682311 137.699532,18.5050844 136.569496,18.5050844 C135.442417,18.5050844 134.415179,18.9697156 133.670449,19.7163911 C132.92498,20.4623244 132.463499,21.4932711 132.463499,22.6244178 L132.463499,27.3212 C132.463499,28.4538311 132.92498,29.4862622 133.666751,30.2321956 C134.41222,30.9766444 135.43724,31.4412756 136.567277,31.4412756 C137.694355,31.4412756 138.721594,30.9766444 139.464844,30.2321956 C140.210313,29.4840356 140.671794,28.4530889 140.671794,27.3226844 L140.671794,22.6259022 C140.671794,21.4932711 140.211793,20.4623244 139.468542,19.7178756 L139.465584,19.7149067 L139.467063,19.71268 Z" id="Shape" fill="#FFFFFF" fill-rule="nonzero"></path>
                            </g>
                            <g id="Paper" stroke-width="1" fill="none" fill-rule="evenodd" transform="translate(723.165364, 182.181818)">
                                <polygon id="Shape" fill="#666666" fill-rule="nonzero" points="186.015726 0.688678372 0.730413147 75.677507 107.370848 339.01138 292.656161 264.023327"></polygon>
                                <polygon id="Path" fill="#FFFFFF" fill-rule="nonzero" points="183.828305 7.36048176 6.66270266 79.063094 108.629861 330.856954 285.795463 259.155083"></polygon>
                                <path d="M108.468948,288.726739 L179.308641,259.54353 L180.300817,261.959464 L109.461123,291.144156 L108.468948,288.726739 Z M97.882777,259.653985 L98.8749525,262.071402 L196.521179,221.844134 L195.529004,219.4282 L97.882777,259.653985 Z M103.175121,274.191104 L104.167296,276.607038 L201.813523,236.381253 L200.821348,233.963836 L103.175121,274.191104 Z" id="Shape" fill="#D0D1D4" fill-rule="nonzero"></path>
                                <path d="M32.0907201,118.225097 L102.930414,89.041888 L103.922589,91.4578221 L33.0828956,120.642514 L32.0907201,118.225097 Z M21.5045495,89.1523434 L22.4967249,91.5697602 L120.142952,51.3424923 L119.150777,48.9265582 L21.5045495,89.1523434 Z M26.7968933,103.689462 L27.7890687,106.105396 L125.435296,65.8796106 L124.44312,63.4621938 L26.7968933,103.689462 Z" id="Shape-Copy-2" fill="#D0D1D4" fill-rule="nonzero"></path>
                                <g id="Group" transform="translate(120.128863, 123.057707)" fill="#15BDB1" fill-rule="nonzero">
                                    <polygon id="Shape" points="15.7227918 108.943136 11.7125641 98.9925121 1.81157291 102.98225 0.13421805 98.8190452 10.0352093 94.8293068 6.04426148 84.9313158 10.2591532 83.2329712 14.250101 93.1309621 24.1510922 89.1412237 25.828447 93.304429 15.9252312 97.2941675 19.9376835 107.243309 15.7227918 108.941654 15.7227918 108.943136"></polygon>
                                    <polygon id="Shape" points="58.3277536 5.34782107 58.3277536 0.243150168 78.457495 0.243150168 78.457495 5.34782107"></polygon>
                                </g>
                                <path d="M197.287928,185.693338 C198.240802,185.693338 198.99791,185.472428 199.550355,185.039502 C200.110956,184.599904 200.51806,184.031318 200.804293,183.330037 C201.078661,182.628757 201.253663,181.840743 201.324109,180.974891 C201.386398,180.106815 201.427183,179.232809 201.427183,178.358061 C201.427183,177.506294 201.386398,176.671578 201.307796,175.83612 C201.229193,175.007333 201.057898,174.258609 200.781305,173.596618 C200.504712,172.936109 200.096125,172.398658 199.551838,171.990196 C199.015707,171.588405 198.274913,171.38232 197.338352,171.38232 C196.414398,171.38232 195.673604,171.58025 195.122642,171.980558 C194.570198,172.382349 194.145298,172.912387 193.853874,173.574378 C193.560967,174.236369 193.365201,174.991766 193.278442,175.83612 C193.183525,176.687886 193.136067,177.553738 193.136067,178.443312 C193.136067,179.309905 193.175368,180.169085 193.253971,181.027524 C193.3259,181.894117 193.507576,182.666564 193.798259,183.35969 C194.083008,184.052816 194.501235,184.613248 195.052196,185.046173 C195.612798,185.479099 196.353592,185.691856 197.292377,185.691856 L197.287928,185.693338 Z M189.736123,178.420331 C189.736123,176.883593 189.894812,175.488444 190.200325,174.244524 C190.508063,172.99912 190.981904,171.943493 191.611468,171.067263 C192.242516,170.20067 193.032252,169.530524 193.983643,169.056826 C194.946898,168.592765 196.065135,168.357028 197.358374,168.357028 C198.618985,168.357028 199.714234,168.586093 200.653019,169.035328 C201.58513,169.491235 202.358552,170.153226 202.971061,171.011664 C203.585795,171.871586 204.049996,172.925731 204.357734,174.172617 C204.665471,175.424692 204.817486,176.83689 204.817486,178.420331 C204.817486,181.761422 204.217584,184.29819 203.00443,186.040272 C201.797951,187.779389 199.891461,188.647465 197.288669,188.647465 C194.67253,188.647465 192.764557,187.779389 191.549921,186.040272 C190.344925,184.297449 189.736123,181.759198 189.736123,178.420331 Z M176.461884,168.080519 C177.416983,168.080519 178.17335,167.861832 178.724311,167.418528 C179.275272,166.985602 179.693499,166.410344 179.970092,165.717218 C180.24446,165.015937 180.426136,164.219769 180.496582,163.322782 C180.576668,162.431725 180.61597,161.533256 180.61597,160.627373 C180.61597,159.808224 180.575185,158.996488 180.496582,158.175856 C180.426136,157.363379 180.246685,156.622808 179.970092,155.968972 C179.693499,155.315135 179.283429,154.787321 178.732468,154.375152 C178.18818,153.966689 177.445903,153.762087 176.508601,153.762087 C175.577973,153.762087 174.846077,153.968172 174.286958,154.369963 C173.734514,154.762117 173.309614,155.28993 173.016707,155.94525 C172.7238,156.599086 172.536191,157.347811 172.441275,158.192906 C172.346358,159.028364 172.2989,159.877907 172.2989,160.736346 C172.2989,161.627402 172.338201,162.517717 172.416804,163.392465 C172.49689,164.268695 172.677083,165.056709 172.961092,165.749094 C173.245842,166.440738 173.662585,167.001169 174.221703,167.434095 C174.772665,167.860349 175.523099,168.079777 176.459659,168.079777 L176.461884,168.079777 L176.461884,168.080519 Z M168.910079,160.807512 C168.910079,159.270773 169.060611,157.875625 169.367607,156.637635 C169.675345,155.401868 170.15586,154.344758 170.795064,153.478165 C171.432786,152.603418 172.229195,151.941426 173.183553,151.469211 C174.134943,150.995513 175.256888,150.766448 176.548644,150.766448 C177.802581,150.766448 178.88819,150.988841 179.818818,151.443265 C180.749446,151.902878 181.520644,152.555974 182.145017,153.422567 C182.759751,154.278781 183.215796,155.336633 183.525016,156.582036 C183.832012,157.825957 183.989218,159.236673 183.989218,160.805288 C183.989218,164.146379 183.382641,166.683147 182.176162,168.425229 C180.971166,170.159156 179.063193,171.033904 176.461884,171.033904 C173.860575,171.033904 171.952602,170.159156 170.731292,168.425229 C169.516656,166.683147 168.910079,164.146379 168.910079,160.805288 L168.910079,160.807512 Z M171.424629,188.57704 L200.543272,149.680426 L202.466075,150.996254 L173.576567,189.806876 L171.424629,188.57704 Z" id="Shape" fill="#D0D1D4" fill-rule="nonzero"></path>
                                <polygon id="Shape" fill="#D0D1D4" fill-rule="nonzero" points="224.82265 215.502956 226.928612 208.090582 219.515475 205.985258 220.324491 203.13788 227.737628 205.244688 229.843591 197.832314 232.690349 198.641085 230.584386 206.053458 237.997523 208.158783 237.188507 211.00616 229.77537 208.899353 227.667924 216.311727 224.821167 215.502956"></polygon>
                            </g>
                            <g id="Group-2" stroke-width="1" fill="none" fill-rule="evenodd" transform="translate(575.884546, 463.735537)"></g>
                            <g id="hand" stroke-width="1" fill="none" fill-rule="evenodd" transform="translate(595.328924, 412.807438) rotate(-1.000000) translate(-595.328924, -412.807438) translate(533.686109, 304.740496)">
                                <polygon id="Shape" fill="#3A556A" fill-rule="nonzero" points="41.5903325 159.139675 122.747569 159.139675 122.747569 215.647219 41.5903325 215.647219"></polygon>
                                <path d="M111.948169,54.9638177 C105.979873,54.9638177 101.141613,59.7857915 101.141613,65.7339975 L101.141613,63.8671664 C101.141613,57.9189603 96.3033528,53.0969865 90.3350567,53.0969865 C84.3667606,53.0969865 79.5285006,57.9189603 79.5285006,63.8671664 L79.5285006,62.0362358 C79.5285006,56.0880297 74.6902406,51.266056 68.7219445,51.266056 C62.7536483,51.266056 57.9153884,56.0880297 57.9153884,62.0362358 L57.9153884,10.7701798 C57.9153884,4.82197375 53.0771284,0 47.1088323,0 C41.1405361,0 36.3022762,4.82197375 36.3022762,10.7701798 L36.3022762,94.6339801 L25.2435671,77.2580899 C21.1055484,70.9232505 12.5982746,69.1310836 6.24203927,73.2551731 C-0.114196118,77.3792627 -1.91241607,85.8578998 2.22560258,92.1927393 L36.5184073,144.607614 L47.8652912,163.563131 L118.360059,162.557914 L122.754725,137.7506 L122.754725,65.6980969 C122.734877,59.7639157 117.902426,54.9637847 111.948169,54.9638177 Z" fill="#FCD462" fill-rule="nonzero"></path>
                            </g>
                            <g id="clip" stroke-width="1" fill="none" fill-rule="evenodd" transform="translate(422.811786, 284.866116)">
                                <path d="M38.7472625,4.7077096 C34.2845849,0.392840672 27.1502749,0.393779095 22.6887196,4.70984238 L3.97658781,23.200785 C0.593061144,26.6231284 0.657723868,32.1078695 4.12102137,35.4513854 C7.52733971,38.7399608 12.9674691,38.7399608 16.3737874,35.4513854 L33.3179247,18.7076157 C35.5206875,16.5309009 35.5206875,13.0016627 33.3179247,10.8249479 C31.1151618,8.64823307 27.5436902,8.64823307 25.3409273,10.8249479 L9.13346162,26.8406719 C8.5681592,27.4190817 8.58438963,28.3407837 9.16972109,28.8994013 C9.74072143,29.4443691 10.6459132,29.4443691 11.2169136,28.8994013 L27.4242929,12.8836773 C28.4990409,11.8662561 30.2049627,11.9025134 31.2344727,12.9645523 C32.2329032,13.9945142 32.2329032,15.6189244 31.2344727,16.6488863 L14.2904218,33.3925706 C12.0014131,35.622349 8.3165012,35.5962437 6.06003977,33.3343031 C3.82637,31.0952258 3.82637,27.4985917 6.06003977,25.2595144 L24.7721716,6.76857181 C28.1052803,3.47368337 33.5101862,3.47274494 36.8445036,6.76635372 C40.178821,10.0599625 40.1797706,15.4010396 36.8467482,18.6959281 L18.13453,37.1868707 C17.5164787,37.7099136 17.4444778,38.6290562 17.9737797,39.239799 C18.5030817,39.8505417 19.4332234,39.9216913 20.0512748,39.3986484 C20.1089446,39.3498504 20.1626431,39.2967869 20.2120251,39.239799 L38.9242433,20.7488564 C43.3579996,16.2709578 43.2788331,9.08903595 38.7472625,4.7077096 Z" id="Shape" fill-opacity="0.3" fill="#666666" fill-rule="nonzero"></path>
                                <path d="M37.2666156,3.2355333 C32.803938,-1.07933564 25.669628,-1.07839721 21.2080727,3.23766608 L2.49594091,21.7286087 C-0.887585753,25.1509521 -0.822923029,30.6356932 2.64037447,33.979209 C6.04669281,37.2677845 11.4868222,37.2677845 14.8931405,33.979209 L31.8372778,17.2354394 C34.0400407,15.0587246 34.0400407,11.5294863 31.8372778,9.35277156 C29.6345149,7.17605676 26.0630433,7.17605676 23.8602804,9.35277156 L7.65281472,25.3684956 C7.0875123,25.9469054 7.10374273,26.8686074 7.6890742,27.427225 C8.26007454,27.9721928 9.16526634,27.9721928 9.73626668,27.427225 L25.943646,11.411501 C27.018394,10.3940798 28.7243158,10.4303371 29.7538258,11.492376 C30.7522563,12.5223379 30.7522563,14.1467481 29.7538258,15.17671 L12.8097749,31.9203943 C10.5207662,34.1501727 6.8358543,34.1240674 4.57939287,31.8621268 C2.3457231,29.6230495 2.3457231,26.0264154 4.57939287,23.7873381 L23.2915247,5.2963955 C26.6246334,2.00150706 32.0295393,2.00056863 35.3638567,5.29417741 C38.6981741,8.58778619 38.6991237,13.9288633 35.3661013,17.2237518 L16.6538832,35.7146944 C16.0358318,36.2377373 15.9638309,37.1568799 16.4931328,37.7676227 C17.0224348,38.3783654 17.9525765,38.4495149 18.5706279,37.9264721 C18.6282977,37.8776741 18.6819962,37.8246105 18.7313782,37.7676227 L37.4435964,19.27668 C41.8773527,14.7987814 41.7981862,7.61685964 37.2666156,3.2355333 Z" id="Shape-Copy" fill="#EAEBEC" fill-rule="nonzero"></path>
                            </g>
                            <g id="clip" stroke-width="1" fill="none" fill-rule="evenodd" transform="translate(713.650030, 453.798347) rotate(86.000000) translate(-713.650030, -453.798347) translate(692.550812, 433.923967)">
                                <path d="M38.7472625,4.7077096 C34.2845849,0.392840672 27.1502749,0.393779095 22.6887196,4.70984238 L3.97658781,23.200785 C0.593061144,26.6231284 0.657723868,32.1078695 4.12102137,35.4513854 C7.52733971,38.7399608 12.9674691,38.7399608 16.3737874,35.4513854 L33.3179247,18.7076157 C35.5206875,16.5309009 35.5206875,13.0016627 33.3179247,10.8249479 C31.1151618,8.64823307 27.5436902,8.64823307 25.3409273,10.8249479 L9.13346162,26.8406719 C8.5681592,27.4190817 8.58438963,28.3407837 9.16972109,28.8994013 C9.74072143,29.4443691 10.6459132,29.4443691 11.2169136,28.8994013 L27.4242929,12.8836773 C28.4990409,11.8662561 30.2049627,11.9025134 31.2344727,12.9645523 C32.2329032,13.9945142 32.2329032,15.6189244 31.2344727,16.6488863 L14.2904218,33.3925706 C12.0014131,35.622349 8.3165012,35.5962437 6.06003977,33.3343031 C3.82637,31.0952258 3.82637,27.4985917 6.06003977,25.2595144 L24.7721716,6.76857181 C28.1052803,3.47368337 33.5101862,3.47274494 36.8445036,6.76635372 C40.178821,10.0599625 40.1797706,15.4010396 36.8467482,18.6959281 L18.13453,37.1868707 C17.5164787,37.7099136 17.4444778,38.6290562 17.9737797,39.239799 C18.5030817,39.8505417 19.4332234,39.9216913 20.0512748,39.3986484 C20.1089446,39.3498504 20.1626431,39.2967869 20.2120251,39.239799 L38.9242433,20.7488564 C43.3579996,16.2709578 43.2788331,9.08903595 38.7472625,4.7077096 Z" id="Shape" fill-opacity="0.3" fill="#666666" fill-rule="nonzero"></path>
                                <path d="M37.2666156,3.2355333 C32.803938,-1.07933564 25.669628,-1.07839721 21.2080727,3.23766608 L2.49594091,21.7286087 C-0.887585753,25.1509521 -0.822923029,30.6356932 2.64037447,33.979209 C6.04669281,37.2677845 11.4868222,37.2677845 14.8931405,33.979209 L31.8372778,17.2354394 C34.0400407,15.0587246 34.0400407,11.5294863 31.8372778,9.35277156 C29.6345149,7.17605676 26.0630433,7.17605676 23.8602804,9.35277156 L7.65281472,25.3684956 C7.0875123,25.9469054 7.10374273,26.8686074 7.6890742,27.427225 C8.26007454,27.9721928 9.16526634,27.9721928 9.73626668,27.427225 L25.943646,11.411501 C27.018394,10.3940798 28.7243158,10.4303371 29.7538258,11.492376 C30.7522563,12.5223379 30.7522563,14.1467481 29.7538258,15.17671 L12.8097749,31.9203943 C10.5207662,34.1501727 6.8358543,34.1240674 4.57939287,31.8621268 C2.3457231,29.6230495 2.3457231,26.0264154 4.57939287,23.7873381 L23.2915247,5.2963955 C26.6246334,2.00150706 32.0295393,2.00056863 35.3638567,5.29417741 C38.6981741,8.58778619 38.6991237,13.9288633 35.3661013,17.2237518 L16.6538832,35.7146944 C16.0358318,36.2377373 15.9638309,37.1568799 16.4931328,37.7676227 C17.0224348,38.3783654 17.9525765,38.4495149 18.5706279,37.9264721 C18.6282977,37.8776741 18.6819962,37.8246105 18.7313782,37.7676227 L37.4435964,19.27668 C41.8773527,14.7987814 41.7981862,7.61685964 37.2666156,3.2355333 Z" id="Shape-Copy" fill="#EDEDEE" fill-rule="nonzero"></path>
                            </g>
                            <g id="clip-copy-2" stroke-width="1" fill="none" fill-rule="evenodd" transform="translate(879.134095, 211.165289) rotate(86.000000) translate(-879.134095, -211.165289) translate(858.034877, 191.290909)">
                                <path d="M38.7472625,4.7077096 C34.2845849,0.392840672 27.1502749,0.393779095 22.6887196,4.70984238 L3.97658781,23.200785 C0.593061144,26.6231284 0.657723868,32.1078695 4.12102137,35.4513854 C7.52733971,38.7399608 12.9674691,38.7399608 16.3737874,35.4513854 L33.3179247,18.7076157 C35.5206875,16.5309009 35.5206875,13.0016627 33.3179247,10.8249479 C31.1151618,8.64823307 27.5436902,8.64823307 25.3409273,10.8249479 L9.13346162,26.8406719 C8.5681592,27.4190817 8.58438963,28.3407837 9.16972109,28.8994013 C9.74072143,29.4443691 10.6459132,29.4443691 11.2169136,28.8994013 L27.4242929,12.8836773 C28.4990409,11.8662561 30.2049627,11.9025134 31.2344727,12.9645523 C32.2329032,13.9945142 32.2329032,15.6189244 31.2344727,16.6488863 L14.2904218,33.3925706 C12.0014131,35.622349 8.3165012,35.5962437 6.06003977,33.3343031 C3.82637,31.0952258 3.82637,27.4985917 6.06003977,25.2595144 L24.7721716,6.76857181 C28.1052803,3.47368337 33.5101862,3.47274494 36.8445036,6.76635372 C40.178821,10.0599625 40.1797706,15.4010396 36.8467482,18.6959281 L18.13453,37.1868707 C17.5164787,37.7099136 17.4444778,38.6290562 17.9737797,39.239799 C18.5030817,39.8505417 19.4332234,39.9216913 20.0512748,39.3986484 C20.1089446,39.3498504 20.1626431,39.2967869 20.2120251,39.239799 L38.9242433,20.7488564 C43.3579996,16.2709578 43.2788331,9.08903595 38.7472625,4.7077096 Z" id="Shape" fill-opacity="0.3" fill="#666666" fill-rule="nonzero"></path>
                                <path d="M37.2666156,3.2355333 C32.803938,-1.07933564 25.669628,-1.07839721 21.2080727,3.23766608 L2.49594091,21.7286087 C-0.887585753,25.1509521 -0.822923029,30.6356932 2.64037447,33.979209 C6.04669281,37.2677845 11.4868222,37.2677845 14.8931405,33.979209 L31.8372778,17.2354394 C34.0400407,15.0587246 34.0400407,11.5294863 31.8372778,9.35277156 C29.6345149,7.17605676 26.0630433,7.17605676 23.8602804,9.35277156 L7.65281472,25.3684956 C7.0875123,25.9469054 7.10374273,26.8686074 7.6890742,27.427225 C8.26007454,27.9721928 9.16526634,27.9721928 9.73626668,27.427225 L25.943646,11.411501 C27.018394,10.3940798 28.7243158,10.4303371 29.7538258,11.492376 C30.7522563,12.5223379 30.7522563,14.1467481 29.7538258,15.17671 L12.8097749,31.9203943 C10.5207662,34.1501727 6.8358543,34.1240674 4.57939287,31.8621268 C2.3457231,29.6230495 2.3457231,26.0264154 4.57939287,23.7873381 L23.2915247,5.2963955 C26.6246334,2.00150706 32.0295393,2.00056863 35.3638567,5.29417741 C38.6981741,8.58778619 38.6991237,13.9288633 35.3661013,17.2237518 L16.6538832,35.7146944 C16.0358318,36.2377373 15.9638309,37.1568799 16.4931328,37.7676227 C17.0224348,38.3783654 17.9525765,38.4495149 18.5706279,37.9264721 C18.6282977,37.8776741 18.6819962,37.8246105 18.7313782,37.7676227 L37.4435964,19.27668 C41.8773527,14.7987814 41.7981862,7.61685964 37.2666156,3.2355333 Z" id="Shape-Copy" fill="#EDEDEE" fill-rule="nonzero"></path>
                            </g>
                            <g id="clip-copy" stroke-width="1" fill="none" fill-rule="evenodd" transform="translate(604.857818, 92.297811) rotate(57.000000) translate(-604.857818, -92.297811) translate(583.758600, 72.423431)">
                                <path d="M38.7472625,4.7077096 C34.2845849,0.392840672 27.1502749,0.393779095 22.6887196,4.70984238 L3.97658781,23.200785 C0.593061144,26.6231284 0.657723868,32.1078695 4.12102137,35.4513854 C7.52733971,38.7399608 12.9674691,38.7399608 16.3737874,35.4513854 L33.3179247,18.7076157 C35.5206875,16.5309009 35.5206875,13.0016627 33.3179247,10.8249479 C31.1151618,8.64823307 27.5436902,8.64823307 25.3409273,10.8249479 L9.13346162,26.8406719 C8.5681592,27.4190817 8.58438963,28.3407837 9.16972109,28.8994013 C9.74072143,29.4443691 10.6459132,29.4443691 11.2169136,28.8994013 L27.4242929,12.8836773 C28.4990409,11.8662561 30.2049627,11.9025134 31.2344727,12.9645523 C32.2329032,13.9945142 32.2329032,15.6189244 31.2344727,16.6488863 L14.2904218,33.3925706 C12.0014131,35.622349 8.3165012,35.5962437 6.06003977,33.3343031 C3.82637,31.0952258 3.82637,27.4985917 6.06003977,25.2595144 L24.7721716,6.76857181 C28.1052803,3.47368337 33.5101862,3.47274494 36.8445036,6.76635372 C40.178821,10.0599625 40.1797706,15.4010396 36.8467482,18.6959281 L18.13453,37.1868707 C17.5164787,37.7099136 17.4444778,38.6290562 17.9737797,39.239799 C18.5030817,39.8505417 19.4332234,39.9216913 20.0512748,39.3986484 C20.1089446,39.3498504 20.1626431,39.2967869 20.2120251,39.239799 L38.9242433,20.7488564 C43.3579996,16.2709578 43.2788331,9.08903595 38.7472625,4.7077096 Z" id="Shape" fill-opacity="0.3" fill="#666666" fill-rule="nonzero"></path>
                                <path d="M37.2666156,3.2355333 C32.803938,-1.07933564 25.669628,-1.07839721 21.2080727,3.23766608 L2.49594091,21.7286087 C-0.887585753,25.1509521 -0.822923029,30.6356932 2.64037447,33.979209 C6.04669281,37.2677845 11.4868222,37.2677845 14.8931405,33.979209 L31.8372778,17.2354394 C34.0400407,15.0587246 34.0400407,11.5294863 31.8372778,9.35277156 C29.6345149,7.17605676 26.0630433,7.17605676 23.8602804,9.35277156 L7.65281472,25.3684956 C7.0875123,25.9469054 7.10374273,26.8686074 7.6890742,27.427225 C8.26007454,27.9721928 9.16526634,27.9721928 9.73626668,27.427225 L25.943646,11.411501 C27.018394,10.3940798 28.7243158,10.4303371 29.7538258,11.492376 C30.7522563,12.5223379 30.7522563,14.1467481 29.7538258,15.17671 L12.8097749,31.9203943 C10.5207662,34.1501727 6.8358543,34.1240674 4.57939287,31.8621268 C2.3457231,29.6230495 2.3457231,26.0264154 4.57939287,23.7873381 L23.2915247,5.2963955 C26.6246334,2.00150706 32.0295393,2.00056863 35.3638567,5.29417741 C38.6981741,8.58778619 38.6991237,13.9288633 35.3661013,17.2237518 L16.6538832,35.7146944 C16.0358318,36.2377373 15.9638309,37.1568799 16.4931328,37.7676227 C17.0224348,38.3783654 17.9525765,38.4495149 18.5706279,37.9264721 C18.6282977,37.8776741 18.6819962,37.8246105 18.7313782,37.7676227 L37.4435964,19.27668 C41.8773527,14.7987814 41.7981862,7.61685964 37.2666156,3.2355333 Z" id="Shape-Copy" fill="#EDEDEE" fill-rule="nonzero"></path>
                            </g>
                            <g id="Group-3" stroke-width="1" fill="none" fill-rule="evenodd" transform="translate(443.497294, 74.528926)">
                                <ellipse id="Oval" fill="#15BDB1" fill-rule="nonzero" cx="46.7465792" cy="46.7007865" rx="45.2625609" ry="45.2182218"></ellipse>
                                <path d="M86.8150757,40.0292455 L108.710525,40.0292455 C112.190416,40.0292455 115.011425,42.8502544 115.011425,46.3301453 L115.011425,46.3301453 C115.011425,49.8100361 112.190416,52.6310451 108.710525,52.6310451 L86.8150757,52.6310451 L86.8150757,40.0292455 Z" id="Rectangle-2" fill="#15BDB1" fill-rule="nonzero"></path>
                                <path d="M86.0730666,37.8053986 L107.968516,37.8053986 C111.448407,37.8053986 114.269416,40.6264075 114.269416,44.1062983 L114.269416,44.1062983 C114.269416,47.5861892 111.448407,50.4071981 107.968516,50.4071981 L86.0730666,50.4071981 L86.0730666,37.8053986 Z" id="Rectangle-2-Copy" fill="#FFFFFF" fill-rule="nonzero"></path>
                                <ellipse id="Path" fill="#FFFFFF" fill-rule="nonzero" cx="45.2625609" cy="45.2182218" rx="45.2625609" ry="45.2182218"></ellipse>
                                <ellipse id="Oval-Copy" fill="#49290C" fill-rule="nonzero" cx="44.8915563" cy="44.8475806" rx="38.2134735" ry="38.1760397"></ellipse>
                            </g>
                            <g id="clip-(1)" stroke-width="1" fill="none" fill-rule="evenodd" transform="translate(318.336238, 170.904061) rotate(-33.000000) translate(-318.336238, -170.904061) translate(278.206352, 137.366044)">
                                <path d="M77.0449679,36.5564206 C79.6290111,35.5590816 80.9181345,32.6483419 79.9243079,30.0551661 C79.1764315,28.1037207 77.3037639,26.8199453 75.2202371,26.8304784 L5.0382825,26.8304784 C2.26969839,26.8164867 0.0140065013,29.0573554 6.41040862e-05,31.8357244 C-0.0104318579,33.9264577 1.26882225,35.805901 3.21339503,36.5564206 L0.506533433,61.431572 C0.168782776,64.1891893 2.12259826,66.6995156 4.87050377,67.0384599 C5.07368679,67.0634563 5.27812306,67.0760331 5.48271599,67.0760331 L21.7481673,67.0760331 C22.6710286,67.0760331 23.4192184,66.325199 23.4192184,65.399076 C23.4192184,62.620707 25.663631,60.368362 28.4322151,60.368362 C31.2007993,60.368362 33.4452119,62.620707 33.4452119,65.399076 C33.4452119,66.325199 34.1934017,67.0760331 35.116263,67.0760331 L45.1422566,67.0760331 C46.0651179,67.0760331 46.8133077,66.325199 46.8133077,65.399076 C46.8133077,62.620707 49.0577203,60.368362 51.8263044,60.368362 C54.5948886,60.368362 56.8393012,62.620707 56.8393012,65.399076 C56.8393012,66.325199 57.587491,67.0760331 58.5103523,67.0760331 L74.7758036,67.0760331 C77.5443877,67.075247 79.7881737,64.8224304 79.7873904,62.0439042 C79.7873904,61.8448766 79.7754846,61.6460062 79.7519862,61.4482362 L77.0449679,36.5564206 Z" id="Shape" fill="#455A64" fill-rule="nonzero"></path>
                                <path d="M56.3308911,65.3990811 C56.317682,64.5738894 56.0963921,63.7656762 55.6876896,63.0514742 C55.6412249,62.9911058 55.5451876,62.9374975 55.5186141,62.8771291 L46.6935913,19.6398471 C50.2740122,18.6678219 52.834697,15.4824464 53.0455751,11.738349 C53.0455751,6.06372105 49.5613469,0 39.7848085,0 C30.0082701,0 26.5240418,6.06372105 26.5240418,11.738349 C26.7349199,15.4826036 29.2956047,18.6678219 32.8760257,19.6398471 L24.1206221,62.6321969 C24.0841031,62.7260509 23.9913291,62.7763579 23.9416011,62.8636091 C23.4730694,63.6251311 23.2196117,64.5020447 23.208889,65.3990811 C23.208889,66.3252013 22.4666976,67.0760331 21.5512349,67.0760331 L22.568951,67.0760331 C24.7255951,67.0478926 26.625829,65.6350523 27.2963809,63.5613041 L36.4331366,18.781327 C36.6165089,17.8739147 36.0381093,16.9880402 35.1411392,16.8025332 C35.129795,16.800175 35.1184508,16.7979741 35.1071066,16.7959304 C35.0640607,16.785869 29.8391947,15.7629079 29.8391947,11.738349 C29.8391947,6.40910995 33.4660803,3.35390384 39.7848085,3.35390384 C46.1035366,3.35390384 49.7304223,6.40926716 49.7304223,11.738349 C49.7304223,15.7159023 44.6648414,16.7690476 44.4460379,16.7992318 C43.5454937,16.9657164 42.9487569,17.8391715 43.1133257,18.7501995 C43.1153459,18.7616758 43.1175215,18.7731521 43.1198525,18.7846284 L52.3294909,63.8126818 C53.0604935,65.766951 54.9054049,67.0640851 56.9708291,67.0758758 L57.9653905,67.0760331 C57.0589411,67.0631419 56.3308911,66.3160832 56.3308911,65.3990811 Z" id="Shape" fill="#CFD8DC" fill-rule="nonzero"></path>
                            </g>
                            <g id="clip-(1)-copy" stroke-width="1" fill="none" fill-rule="evenodd" transform="translate(464.596512, 228.141322) rotate(21.000000) translate(-464.596512, -228.141322) translate(424.466627, 194.603306)">
                                <path d="M77.0449679,36.5564206 C79.6290111,35.5590816 80.9181345,32.6483419 79.9243079,30.0551661 C79.1764315,28.1037207 77.3037639,26.8199453 75.2202371,26.8304784 L5.0382825,26.8304784 C2.26969839,26.8164867 0.0140065013,29.0573554 6.41040862e-05,31.8357244 C-0.0104318579,33.9264577 1.26882225,35.805901 3.21339503,36.5564206 L0.506533433,61.431572 C0.168782776,64.1891893 2.12259826,66.6995156 4.87050377,67.0384599 C5.07368679,67.0634563 5.27812306,67.0760331 5.48271599,67.0760331 L21.7481673,67.0760331 C22.6710286,67.0760331 23.4192184,66.325199 23.4192184,65.399076 C23.4192184,62.620707 25.663631,60.368362 28.4322151,60.368362 C31.2007993,60.368362 33.4452119,62.620707 33.4452119,65.399076 C33.4452119,66.325199 34.1934017,67.0760331 35.116263,67.0760331 L45.1422566,67.0760331 C46.0651179,67.0760331 46.8133077,66.325199 46.8133077,65.399076 C46.8133077,62.620707 49.0577203,60.368362 51.8263044,60.368362 C54.5948886,60.368362 56.8393012,62.620707 56.8393012,65.399076 C56.8393012,66.325199 57.587491,67.0760331 58.5103523,67.0760331 L74.7758036,67.0760331 C77.5443877,67.075247 79.7881737,64.8224304 79.7873904,62.0439042 C79.7873904,61.8448766 79.7754846,61.6460062 79.7519862,61.4482362 L77.0449679,36.5564206 Z" id="Shape" fill="#7536AD" fill-rule="nonzero"></path>
                                <path d="M56.3308911,65.3990811 C56.317682,64.5738894 56.0963921,63.7656762 55.6876896,63.0514742 C55.6412249,62.9911058 55.5451876,62.9374975 55.5186141,62.8771291 L46.6935913,19.6398471 C50.2740122,18.6678219 52.834697,15.4824464 53.0455751,11.738349 C53.0455751,6.06372105 49.5613469,0 39.7848085,0 C30.0082701,0 26.5240418,6.06372105 26.5240418,11.738349 C26.7349199,15.4826036 29.2956047,18.6678219 32.8760257,19.6398471 L24.1206221,62.6321969 C24.0841031,62.7260509 23.9913291,62.7763579 23.9416011,62.8636091 C23.4730694,63.6251311 23.2196117,64.5020447 23.208889,65.3990811 C23.208889,66.3252013 22.4666976,67.0760331 21.5512349,67.0760331 L22.568951,67.0760331 C24.7255951,67.0478926 26.625829,65.6350523 27.2963809,63.5613041 L36.4331366,18.781327 C36.6165089,17.8739147 36.0381093,16.9880402 35.1411392,16.8025332 C35.129795,16.800175 35.1184508,16.7979741 35.1071066,16.7959304 C35.0640607,16.785869 29.8391947,15.7629079 29.8391947,11.738349 C29.8391947,6.40910995 33.4660803,3.35390384 39.7848085,3.35390384 C46.1035366,3.35390384 49.7304223,6.40926716 49.7304223,11.738349 C49.7304223,15.7159023 44.6648414,16.7690476 44.4460379,16.7992318 C43.5454937,16.9657164 42.9487569,17.8391715 43.1133257,18.7501995 C43.1153459,18.7616758 43.1175215,18.7731521 43.1198525,18.7846284 L52.3294909,63.8126818 C53.0604935,65.766951 54.9054049,67.0640851 56.9708291,67.0758758 L57.9653905,67.0760331 C57.0589411,67.0631419 56.3308911,66.3160832 56.3308911,65.3990811 Z" id="Shape" fill="#CFD8DC" fill-rule="nonzero"></path>
                            </g>
                        </g>
                    </g>
                </g>
                <g id="PEn" transform="translate(740.954901, 186.736364) rotate(-60.000000) translate(-740.954901, -186.736364) translate(732.266987, 78.669421)">
                    <path d="M5.77859562,0.247961819 L11.3985424,0.247961819 C14.2821742,0.247961819 16.6407538,2.55733757 16.6407538,5.38410231 L16.6407538,10.5180222 L0.536384219,10.5180222 L0.536384219,5.38410231 C0.536384219,2.55733757 2.89496384,0.247961819 5.77859562,0.247961819 Z" id="Shape" fill="#0E7886" fill-rule="nonzero"></path>
                    <polygon id="Shape" fill="#EC4B53" fill-rule="nonzero" points="0.536384219 178.269004 5.90324829 178.269004 5.90324829 15.6526824 0.536384219 15.6526824"></polygon>
                    <polygon id="Shape" fill="#FF5B61" fill-rule="nonzero" points="11.2716233 178.269004 5.90324829 178.269004 5.90324829 15.6526824 11.2716233 15.6526824"></polygon>
                    <polygon id="Shape" fill="#EC4B53" fill-rule="nonzero" points="11.2716233 178.269004 16.6399983 178.269004 16.6399983 15.6526824 11.2716233 15.6526824"></polygon>
                    <polygon id="Shape" fill="#FBB429" fill-rule="nonzero" points="8.59725692 212.90964 16.6407538 178.269004 0.536384219 178.269004"></polygon>
                    <polygon id="Shape" fill="#0E7886" fill-rule="nonzero" points="8.26711621 215.412945 8.93872969 215.412945 11.6168734 199.922363 5.61239206 199.922363"></polygon>
                    <polygon id="Shape" fill="#FFFFFF" fill-rule="nonzero" points="0.536384219 15.6526824 16.6399983 15.6526824 16.6399983 10.5165419 0.536384219 10.5165419"></polygon>
                </g>
            </g>
        </g>
    </g>
</svg>