<?xml version="1.0" encoding="UTF-8"?>
<svg width="301px" height="279px" viewBox="0 0 301 279" version="1.1" xmlns="http://www.w3.org/2000/svg" xmlns:xlink="http://www.w3.org/1999/xlink">
    <!-- Generator: Sketch 63.1 (92452) - https://sketch.com -->
    <title>holding-phone-colour</title>
    <desc>Created with Sketch.</desc>
    <defs>
        <path d="M43.4933917,9.07244708 L100.873501,9.23550977 C114.818016,9.27513727 126.112279,20.5698412 126.151363,34.5143576 L126.548504,176.210627 C126.587743,190.210991 115.270017,201.592338 101.269653,201.631577 C101.221957,201.631711 101.17426,201.63171 101.126564,201.631575 L43.7464542,201.468512 C29.8019394,201.428884 18.5076763,190.13418 18.4685931,176.189664 L18.071452,34.4933945 C18.0322122,20.4930311 29.3499392,9.11168399 43.3503026,9.07244428 C43.3979989,9.0723106 43.4456954,9.07231153 43.4933917,9.07244708 Z" id="path-1"></path>
    </defs>
    <g id="wireframes" stroke="none" stroke-width="1" fill="none" fill-rule="evenodd">
        <g id="HP_1440_nonconnecté" transform="translate(-275.000000, -458.000000)">
            <g id="holding-phone-colour" transform="translate(275.000000, 453.000000)">
                <path d="M212.314565,9.47154753 C247.478875,14.5160429 291.597515,33.6782092 299.60861,61.9049058 C307.623973,90.2050868 279.548863,127.500636 252.82245,157.339669 C226.104574,187.247864 200.761004,209.703866 169.711075,224.833029 C138.665415,239.897354 101.981686,247.742905 77.2911242,233.53446 C52.6688513,219.425434 40.1251071,183.301314 25.5156357,151.486844 C10.859216,119.603213 -5.89280714,91.9600698 2.04146318,72.5817726 C9.99280562,53.2769599 42.6304415,42.2326705 67.1801579,35.2862232 C91.7298744,28.3397758 108.119115,25.4133633 129.493416,19.4913764 C150.79516,13.4915824 177.077698,4.42705214 212.314565,9.47154753 Z" id="Path" fill="#BACBE4" fill-rule="nonzero"></path>
                <path d="M212.314565,9.47154753 C247.478875,14.5160429 291.597515,33.6782092 299.60861,61.9049058 C307.623973,90.2050868 279.548863,127.500636 252.82245,157.339669 C226.104574,187.247864 200.761004,209.703866 169.711075,224.833029 C138.665415,239.897354 101.981686,247.742905 77.2911242,233.53446 C52.6688513,219.425434 40.1251071,183.301314 25.5156357,151.486844 C10.859216,119.603213 -5.89280714,91.9600698 2.04146318,72.5817726 C9.99280562,53.2769599 42.6304415,42.2326705 67.1801579,35.2862232 C91.7298744,28.3397758 108.119115,25.4133633 129.493416,19.4913764 C150.79516,13.4915824 177.077698,4.42705214 212.314565,9.47154753 Z" id="Path" fill="#BACBE4" fill-rule="nonzero"></path>
                <path d="M100.201246,19 C94.7151756,19 93,28.0175752 93,31.6219839 C93,37.7385563 99.1713099,63 104.997924,63 C110.824537,63 117,38.0968126 117,35.2307616 C117,32.3647106 109.798754,19 100.201246,19 Z" id="Path" fill="#F9D0B4" fill-rule="nonzero"></path>
                <g id="page-de-resultat-mobile" transform="translate(77.853148, 0.905421)">
                    <mask id="mask-2" fill="white">
                        <use xlink:href="#path-1"></use>
                    </mask>
                    <use id="Mask" fill="#23333C" fill-rule="nonzero" transform="translate(72.309978, 105.352011) rotate(11.100000) translate(-72.309978, -105.352011) " xlink:href="#path-1"></use>
                </g>
                <path d="M191,16.2700331 L189.924017,21.8000575 C189.369589,24.6167252 186.661611,26.4511253 183.866789,25.9032578 L147.163333,18.6394259 C144.372128,18.0780908 142.554474,15.34841 143.095174,12.5300244 L144.192591,7 L191,16.2700331 Z" id="Path" fill="#0065DC" fill-rule="nonzero"></path>
                <line x1="87.5" y1="174.5" x2="187" y2="194" id="Path" stroke="#116FDE" stroke-width="3"></line>
                <circle id="Oval" fill="#0065DC" fill-rule="nonzero" cx="131.5" cy="191.5" r="4.5"></circle>
                <path d="M93.4707684,67 C85.9883073,67 81,72.6860809 81,78.7340034 C81,98.643902 92.4006125,115 97.3975501,115 C108.081849,115 112,109.309611 112,105.398277 C111.99137,102.533698 110.567372,67 93.4707684,67 Z" id="Path" fill="#F9D0B4" fill-rule="nonzero"></path>
                <path d="M89.8225155,119.86858 C91.9189402,122.042862 108,139.810485 108,152.135813 C108,160.481544 106.250862,167 91.5674185,167 C84.575101,167 65,138.356571 65,126.756004 C65,120.228764 68.8455629,105 79.6834433,105 C82.830198,105 89.8225155,110.80248 90.8686103,112.252001 C91.9459658,113.409202 93.08866,114.498996 94.290653,115.515622 C93.8501921,117.874389 91.4191864,130.283174 91.4191864,130.283174" id="Path" fill="#F9D0B4" fill-rule="nonzero"></path>
                <path d="M87.1621397,190.886406 C86.1090692,193.750173 85.3928107,221.400041 88.5605491,236.776001 C86.4288274,247.86281 78,284 78,284 L154.388114,284 L162.130527,252.528888 C162.130527,252.528888 209.267156,210.664163 213.84183,203.160313 C218.416505,195.656463 229.151855,151.842124 228.998371,147.730603 C228.874732,144.871168 177.615353,100.879197 176.208416,99.0898843 C174.80148,97.3005714 150.047928,122.48526 191.224264,151.469531 C190.870398,155.043824 190.891715,170.83137 190.891715,170.83137 C190.891715,170.83137 162.249903,180.835059 159.342235,182.992633 C156.434566,185.150206 150.870773,200.352868 149.8646,203.762527 C145.972077,202.991346 87.1621397,190.886406 87.1621397,190.886406 Z" id="Path" fill="#F9D0B4" fill-rule="nonzero"></path>
            </g>
        </g>
    </g>
</svg>