<?xml version="1.0" encoding="UTF-8"?>
<svg width="866px" height="533px" viewBox="0 0 866 533" version="1.1" xmlns="http://www.w3.org/2000/svg" xmlns:xlink="http://www.w3.org/1999/xlink">
    <!-- Generator: Sketch 49.1 (51147) - http://www.bohemiancoding.com/sketch -->
    <title>illustration</title>
    <desc>Created with Sketch.</desc>
    <defs>
        <path d="M0,224 L425.520994,224 C431.418232,224 436.837382,227.243951 439.623199,232.441704 L677.421892,676.124513 L0,676.124513 L0,224 Z" id="path-1"></path>
        <filter x="-1.1%" y="-1.2%" width="102.2%" height="103.3%" filterUnits="objectBoundingBox" id="filter-2">
            <feMorphology radius="0.5" operator="dilate" in="SourceAlpha" result="shadowSpreadOuter1"></feMorphology>
            <feOffset dx="0" dy="2" in="shadowSpreadOuter1" result="shadowOffsetOuter1"></feOffset>
            <feGaussianBlur stdDeviation="2" in="shadowOffsetOuter1" result="shadowBlurOuter1"></feGaussianBlur>
            <feComposite in="shadowBlurOuter1" in2="SourceAlpha" operator="out" result="shadowBlurOuter1"></feComposite>
            <feColorMatrix values="0 0 0 0 0.889973958   0 0 0 0 0.889973958   0 0 0 0 0.889973958  0 0 0 0.5 0" type="matrix" in="shadowBlurOuter1"></feColorMatrix>
        </filter>
    </defs>
    <g id="Parcours-entier" stroke="none" stroke-width="1" fill="none" fill-rule="evenodd">
        <g id="Desktop" transform="translate(-158.000000, 0.000000)">
            <g id="illustration" transform="translate(162.000000, -150.000000)">
                <g id="Group-4" stroke-width="1" fill-rule="evenodd">
                    <polygon id="Rectangle" fill="#A8F2E3" fill-rule="nonzero" points="243.710938 0 1200 0 1200 676 0.9921875 676"></polygon>
                    <g id="calculator" transform="translate(650.000000, 368.000000) rotate(15.000000) translate(-650.000000, -368.000000) translate(549.000000, 247.000000)" fill-rule="nonzero">
                        <path d="M19.1842389,241.438919 L188.938327,241.438919 C196.118029,241.438919 201.938327,235.61862 201.938327,228.438919 L201.938327,19.8728 C201.938327,12.6930983 196.118029,6.8728 188.938327,6.8728 L19.1842389,6.8728 C12.0045372,6.8728 6.18423894,12.6930983 6.18423894,19.8728 L6.18423894,228.438919 C6.18423894,235.61862 12.0045372,241.438919 19.1842389,241.438919 Z" id="Shape" fill="#15BDB1"></path>
                        <path d="M13,234.646785 L182.754088,234.646785 C189.93379,234.646785 195.754088,228.826487 195.754088,221.646785 L195.754088,13.0806667 C195.754088,5.90096492 189.93379,0.0806666667 182.754088,0.0806666667 L13,0.0806666667 C5.82029825,0.0806666667 -8.79259876e-16,5.90096492 0,13.0806667 L0,221.646785 C-1.50628805e-14,228.826487 5.82029825,234.646785 13,234.646785 Z" id="Shape" fill="#666666"></path>
                        <g id="Group" transform="translate(17.876106, 76.185185)" fill="#FFFFFF">
                            <path d="M5.4709823,0.531503704 L25.6271858,0.531503704 C28.3568673,0.531503704 30.5895929,2.76865926 30.5895929,5.50774074 L30.5895929,25.7201185 C30.5895929,28.4574074 28.3586549,30.6963556 25.6271858,30.6963556 L5.4709823,30.6963556 C2.74130088,30.6963556 0.508575221,28.4574074 0.508575221,25.7201185 L0.508575221,5.50774074 C0.508575221,2.77045185 2.74130088,0.531503704 5.4709823,0.531503704 Z" id="Shape"></path>
                            <path d="M44.541,0.531503704 L64.6989912,0.531503704 C67.4286726,0.531503704 69.6596106,2.76865926 69.6596106,5.50774074 L69.6596106,25.7201185 C69.6596106,28.4574074 67.4286726,30.6963556 64.6989912,30.6963556 L44.541,30.6963556 C41.814,30.6963556 39.5785929,28.4574074 39.5785929,25.7201185 L39.5785929,5.50774074 C39.5794867,2.77045185 41.8122124,0.531503704 44.541,0.531503704 Z" id="Shape"></path>
                        </g>
                        <path d="M101.488018,76.7166889 L121.646009,76.7166889 C124.373009,76.7166889 126.608416,78.9538444 126.608416,81.6929259 L126.608416,101.905304 C126.608416,104.642593 124.373903,106.881541 121.646009,106.881541 L101.488018,106.881541 C98.7610177,106.881541 96.5300796,104.642593 96.5300796,101.905304 L96.5300796,81.6929259 C96.5300796,78.955637 98.7610177,76.7166889 101.488018,76.7166889 Z" id="Shape" fill="#FBB429"></path>
                        <path d="M140.560717,76.7166889 L160.71692,76.7166889 C163.446602,76.7166889 165.679327,78.9538444 165.679327,81.6929259 L165.679327,101.905304 C165.679327,104.642593 163.446602,106.881541 160.71692,106.881541 L140.560717,106.881541 C137.831035,106.881541 135.59831,104.642593 135.59831,101.905304 L135.59831,81.6929259 C135.599204,78.955637 137.829248,76.7166889 140.560717,76.7166889 Z" id="Shape" fill="#FF5B61"></path>
                        <g id="Group" transform="translate(17.876106, 114.725926)" fill="#FFFFFF">
                            <path d="M5.4709823,0.309222222 L25.6271858,0.309222222 C28.3568673,0.309222222 30.5895929,2.54996296 30.5895929,5.28545926 L30.5895929,25.497837 C30.5895929,28.2351259 28.3586549,30.4740741 25.6271858,30.4740741 L5.4709823,30.4740741 C2.74130088,30.4740741 0.508575221,28.2369185 0.508575221,25.497837 L0.508575221,5.28545926 C0.508575221,2.54996296 2.74130088,0.309222222 5.4709823,0.309222222 Z" id="Shape"></path>
                            <path d="M44.541,0.309222222 L64.6989912,0.309222222 C67.4286726,0.309222222 69.6596106,2.54996296 69.6596106,5.28545926 L69.6596106,25.497837 C69.6596106,28.2351259 67.4286726,30.4740741 64.6989912,30.4740741 L44.541,30.4740741 C41.814,30.4740741 39.5785929,28.2369185 39.5785929,25.497837 L39.5785929,5.28545926 C39.5794867,2.54996296 41.8122124,0.309222222 44.541,0.309222222 Z" id="Shape"></path>
                            <path d="M83.6119115,0.309222222 L103.769903,0.309222222 C106.496903,0.309222222 108.73231,2.54996296 108.73231,5.28545926 L108.73231,25.497837 C108.73231,28.2351259 106.497796,30.4740741 103.769903,30.4740741 L83.6119115,30.4740741 C80.8849115,30.4740741 78.6539735,28.2369185 78.6539735,25.497837 L78.6539735,5.28545926 C78.6539735,2.54996296 80.8849115,0.309222222 83.6119115,0.309222222 Z" id="Shape"></path>
                            <path d="M122.684611,0.309222222 L142.840814,0.309222222 C145.570496,0.309222222 147.803221,2.54996296 147.803221,5.28545926 L147.803221,25.497837 C147.803221,28.2351259 145.570496,30.4740741 142.840814,30.4740741 L122.684611,30.4740741 C119.954929,30.4740741 117.722204,28.2369185 117.722204,25.497837 L117.722204,5.28545926 C117.723097,2.54996296 119.953142,0.309222222 122.684611,0.309222222 Z" id="Shape"></path>
                            <path d="M5.4709823,38.6285778 L25.6271858,38.6285778 C28.3568673,38.6285778 30.5895929,40.8675259 30.5895929,43.6030222 L30.5895929,63.8171926 C30.5895929,66.5517926 28.3586549,68.7889481 25.6271858,68.7889481 L5.4709823,68.7889481 C2.74130088,68.7889481 0.508575221,66.55 0.508575221,63.8171926 L0.508575221,43.6030222 C0.508575221,40.8675259 2.74130088,38.6285778 5.4709823,38.6285778 Z" id="Shape"></path>
                            <path d="M44.541,38.6285778 L64.6989912,38.6285778 C67.4286726,38.6285778 69.6596106,40.8675259 69.6596106,43.6030222 L69.6596106,63.8171926 C69.6596106,66.5517926 67.4286726,68.7889481 64.6989912,68.7889481 L44.541,68.7889481 C41.814,68.7889481 39.5785929,66.55 39.5785929,63.8171926 L39.5785929,43.6030222 C39.5794867,40.8675259 41.8122124,38.6285778 44.541,38.6285778 Z" id="Shape"></path>
                            <path d="M83.6119115,38.6285778 L103.769903,38.6285778 C106.496903,38.6285778 108.73231,40.8675259 108.73231,43.6030222 L108.73231,63.8171926 C108.73231,66.5517926 106.497796,68.7889481 103.769903,68.7889481 L83.6119115,68.7889481 C80.8849115,68.7889481 78.6539735,66.55 78.6539735,63.8171926 L78.6539735,43.6030222 C78.6539735,40.8675259 80.8849115,38.6285778 83.6119115,38.6285778 Z" id="Shape"></path>
                            <path d="M122.684611,38.6285778 L142.840814,38.6285778 C145.570496,38.6285778 147.803221,40.8675259 147.803221,43.6030222 L147.803221,63.8171926 C147.803221,66.5517926 145.570496,68.7889481 142.840814,68.7889481 L122.684611,68.7889481 C119.954929,68.7889481 117.722204,66.55 117.722204,63.8171926 L117.722204,43.6030222 C117.723097,40.8675259 119.953142,38.6285778 122.684611,38.6285778 Z" id="Shape"></path>
                            <path d="M5.4709823,76.9452444 L25.6271858,76.9452444 C28.3568673,76.9452444 30.5895929,79.1824 30.5895929,81.9196889 L30.5895929,102.132067 C30.5895929,104.869356 28.3586549,107.108304 25.6271858,107.108304 L5.4709823,107.108304 C2.74130088,107.108304 0.508575221,104.869356 0.508575221,102.132067 L0.508575221,81.9196889 C0.508575221,79.1815037 2.74130088,76.9452444 5.4709823,76.9452444 Z" id="Shape"></path>
                            <path d="M44.541,76.9452444 L64.6989912,76.9452444 C67.4286726,76.9452444 69.6596106,79.1824 69.6596106,81.9196889 L69.6596106,102.132067 C69.6596106,104.869356 67.4286726,107.108304 64.6989912,107.108304 L44.541,107.108304 C41.814,107.108304 39.5785929,104.869356 39.5785929,102.132067 L39.5785929,81.9196889 C39.5794867,79.1815037 41.8122124,76.9452444 44.541,76.9452444 Z" id="Shape"></path>
                            <path d="M83.6119115,76.9452444 L103.769903,76.9452444 C106.496903,76.9452444 108.73231,79.1824 108.73231,81.9196889 L108.73231,102.132067 C108.73231,104.869356 106.497796,107.108304 103.769903,107.108304 L83.6119115,107.108304 C80.8849115,107.108304 78.6539735,104.869356 78.6539735,102.132067 L78.6539735,81.9196889 C78.6539735,79.1815037 80.8849115,76.9452444 83.6119115,76.9452444 Z" id="Shape"></path>
                            <path d="M122.684611,76.9452444 L142.840814,76.9452444 C145.570496,76.9452444 147.803221,79.1824 147.803221,81.9196889 L147.803221,102.132067 C147.803221,104.869356 145.570496,107.108304 142.840814,107.108304 L122.684611,107.108304 C119.954929,107.108304 117.722204,104.869356 117.722204,102.132067 L117.722204,81.9196889 C117.723097,79.1815037 119.953142,76.9452444 122.684611,76.9452444 Z" id="Shape"></path>
                        </g>
                        <polygon id="Shape" fill="#C8CACC" points="13.2980354 12.4154963 182.453372 12.4154963 182.453372 49.9174296 13.2980354 49.9174296"></polygon>
                        <path d="M165.054558,19.5634593 C167.174664,19.5634593 169.107965,20.4373481 170.511239,21.8418444 L170.514814,21.843637 L170.516602,21.8472222 C171.919876,23.2544074 172.788655,25.1930963 172.788655,27.3191111 L172.788655,32.9908741 C172.788655,35.1249556 171.917195,37.0681259 170.516602,38.4708296 C169.117796,39.8762222 167.181814,40.7492148 165.053664,40.7492148 C162.929088,40.7492148 160.994,39.8753259 159.595195,38.4708296 L159.588938,38.4645556 C158.187451,37.059163 157.318673,35.1204741 157.318673,32.9908741 L157.318673,27.3191111 C157.318673,25.1850296 158.190133,23.2445481 159.588938,21.8409481 C160.990425,20.4355556 162.925513,19.562563 165.055451,19.562563 L165.054558,19.562563 L165.054558,19.5634593 Z M168.556487,23.8047333 C167.66,22.9057481 166.420292,22.3464593 165.054558,22.3464593 C163.692398,22.3464593 162.450903,22.9075407 161.550841,23.8092148 C160.649885,24.7099926 160.09215,25.9549481 160.09215,27.3209037 L160.09215,32.9926667 C160.09215,34.3604148 160.649885,35.607163 161.546372,36.5079407 C162.447327,37.4069259 163.686142,37.9680074 165.051876,37.9680074 C166.414035,37.9680074 167.655531,37.4069259 168.553805,36.5079407 C169.454761,35.6044741 170.012496,34.3595185 170.012496,32.9944593 L170.012496,27.3226963 C170.012496,25.9549481 169.456549,24.7099926 168.558274,23.8110074 L168.554699,23.8074222 L168.556487,23.8047333 Z" id="Shape" fill="#FFFFFF"></path>
                    </g>
                    <g id="PEn" transform="translate(814.500000, 225.500000) rotate(-60.000000) translate(-814.500000, -225.500000) translate(804.000000, 95.000000)" fill-rule="nonzero">
                        <path d="M6.98386957,0.299434932 L13.776,0.299434932 C17.261087,0.299434932 20.1116087,3.08820205 20.1116087,6.50176027 L20.1116087,12.7014041 L0.64826087,12.7014041 L0.64826087,6.50176027 C0.64826087,3.08820205 3.49878261,0.299434932 6.98386957,0.299434932 Z" id="Shape" fill="#0E7886"></path>
                        <polygon id="Shape" fill="#EC4B53" points="0.64826087 215.274945 7.13452174 215.274945 7.13452174 18.9019418 0.64826087 18.9019418"></polygon>
                        <polygon id="Shape" fill="#FF5B61" points="13.6226087 215.274945 7.13452174 215.274945 7.13452174 18.9019418 13.6226087 18.9019418"></polygon>
                        <polygon id="Shape" fill="#EC4B53" points="13.6226087 215.274945 20.1106957 215.274945 20.1106957 18.9019418 13.6226087 18.9019418"></polygon>
                        <polygon id="Shape" fill="#FBB429" points="10.3904348 257.106452 20.1116087 215.274945 0.64826087 215.274945"></polygon>
                        <polygon id="Shape" fill="#0E7886" points="9.99143478 260.129404 10.8031304 260.129404 14.0398696 241.423212 6.783 241.423212"></polygon>
                        <polygon id="Shape" fill="#FFFFFF" points="0.64826087 18.9019418 20.1106957 18.9019418 20.1106957 12.6996164 0.64826087 12.6996164"></polygon>
                    </g>
                    <g id="Paper" transform="translate(793.000000, 220.000000)" fill-rule="nonzero">
                        <polygon id="Shape" fill="#666666" points="224.814064 0.831637555 0.882759494 91.3870095 129.765785 409.385 353.69709 318.830564"></polygon>
                        <polygon id="Path" fill="#FFFFFF" points="222.1704 8.88840611 8.05237975 95.475393 131.287397 399.537838 345.405418 312.951747"></polygon>
                        <path d="M131.092922,348.662031 L216.708046,313.42083 L217.907165,316.338275 L132.292041,351.581266 L131.092922,348.662031 Z M118.298734,313.554214 L119.497853,316.47345 L237.510699,267.895611 L236.31158,264.978166 L118.298734,313.554214 Z M124.694932,331.109017 L125.894051,334.026463 L243.906896,285.450415 L242.707777,282.531179 L124.694932,331.109017 Z" id="Shape" fill="#D0D1D4"></path>
                        <path d="M38.7840608,142.766834 L124.399185,107.525633 L125.598304,110.443079 L39.9831797,145.68607 L38.7840608,142.766834 Z M25.9898734,107.659017 L27.1889924,110.578253 L145.201838,62.0004148 L144.002719,59.0829694 L25.9898734,107.659017 Z M32.3860709,125.213821 L33.5851899,128.131266 L151.598035,79.5552183 L150.398916,76.6359825 L32.3860709,125.213821 Z" id="Shape-Copy-2" fill="#D0D1D4"></path>
                        <g id="Group" transform="translate(145.184810, 148.602620)" fill="#15BDB1">
                            <polygon id="Shape" points="19.0021823 131.558079 14.155519 119.541856 2.18942278 124.359803 0.162212658 119.33238 12.1283089 114.514432 7.30494684 102.561769 12.398962 100.510873 17.2223241 112.463537 29.1884203 107.64559 31.2156304 112.673013 19.2468456 117.490961 24.0961975 129.505393 19.0021823 131.556288 19.0021823 131.558079"></polygon>
                            <polygon id="Shape" points="70.4934987 6.4579476 70.4934987 0.293624454 94.8218127 0.293624454 94.8218127 6.4579476"></polygon>
                        </g>
                        <path d="M238.437372,224.240459 C239.588992,224.240459 240.504015,223.97369 241.171686,223.450895 C241.849215,222.920044 242.34123,222.233428 242.687165,221.386572 C243.018759,220.539716 243.230263,219.588122 243.315403,218.542533 C243.390684,217.494258 243.439975,216.438821 243.439975,215.382489 C243.439975,214.353908 243.390684,213.345917 243.295686,212.337031 C243.200689,211.336201 242.993666,210.432052 242.659382,209.632642 C242.325099,208.835022 241.831291,208.186004 241.173478,207.692751 C240.525524,207.207555 239.630218,206.95869 238.498314,206.95869 C237.381646,206.95869 236.486339,207.197707 235.820461,207.681114 C235.15279,208.16631 234.639266,208.806376 234.287058,209.605786 C233.933058,210.405197 233.696461,211.317402 233.591605,212.337031 C233.476891,213.365611 233.419534,214.411201 233.419534,215.485437 C233.419534,216.531921 233.467033,217.569454 233.56203,218.606092 C233.648962,219.652576 233.868532,220.585371 234.219843,221.42238 C234.563985,222.259389 235.069443,222.936157 235.735322,223.458952 C236.412851,223.981747 237.308157,224.238668 238.442749,224.238668 L238.437372,224.240459 Z M229.310446,215.457686 C229.310446,213.601943 229.502233,211.917183 229.871468,210.415044 C230.243392,208.911114 230.816066,207.636354 231.576942,206.578231 C232.33961,205.531747 233.294066,204.722489 234.443894,204.150459 C235.608061,203.590066 236.959534,203.305393 238.522511,203.305393 C240.046056,203.305393 241.369747,203.582009 242.504339,204.124498 C243.630866,204.675044 244.565605,205.474454 245.305868,206.511092 C246.04882,207.54952 246.609843,208.822489 246.981767,210.32821 C247.353691,211.840197 247.537413,213.545546 247.537413,215.457686 C247.537413,219.492336 246.812385,222.555699 245.346197,224.65941 C243.888076,226.759541 241.583939,227.807817 238.438268,227.807817 C235.276466,227.807817 232.970537,226.759541 231.502557,224.65941 C230.046228,222.554803 229.310446,219.489651 229.310446,215.457686 Z M213.267524,202.971485 C214.421833,202.971485 215.335959,202.707402 216.001838,202.172074 C216.667716,201.649279 217.173175,200.954607 217.507458,200.117598 C217.839053,199.270742 218.058623,198.309301 218.143762,197.226114 C218.240552,196.150087 218.288051,195.065109 218.288051,193.971179 C218.288051,192.981987 218.238759,192.001747 218.143762,191.010764 C218.058623,190.029629 217.841742,189.135328 217.507458,188.345764 C217.173175,187.556201 216.677575,186.918821 216.011696,186.421092 C215.353884,185.927838 214.456785,185.680764 213.323985,185.680764 C212.199251,185.680764 211.314699,185.929629 210.638962,186.414825 C209.971291,186.888384 209.457767,187.525764 209.103767,188.317118 C208.749767,189.106681 208.523028,190.01083 208.408314,191.031354 C208.2936,192.04024 208.236243,193.066135 208.236243,194.102773 C208.236243,195.178799 208.283742,196.25393 208.378739,197.310262 C208.475529,198.368384 208.693306,199.319978 209.036552,200.156092 C209.380694,200.99131 209.884359,201.668079 210.560096,202.190873 C211.225975,202.705611 212.132932,202.97059 213.264835,202.97059 L213.267524,202.97059 L213.267524,202.971485 Z M204.140597,194.188712 C204.140597,192.332969 204.322527,190.64821 204.693554,189.153231 C205.065478,187.660939 205.646218,186.384389 206.418744,185.337904 C207.189478,184.281572 208.152,183.482162 209.305413,182.911921 C210.455241,182.339891 211.811195,182.063275 213.37238,182.063275 C214.887858,182.063275 216.199899,182.331834 217.324633,182.88059 C218.449367,183.435611 219.381418,184.224279 220.13602,185.270764 C220.878972,186.304716 221.430137,187.582162 221.803853,189.086092 C222.174881,190.588231 222.364876,192.29179 222.364876,194.186026 C222.364876,198.220677 221.631782,201.284039 220.173661,203.387751 C218.717332,205.481616 216.411403,206.537948 213.267524,206.537948 C210.123646,206.537948 207.817716,205.481616 206.341671,203.387751 C204.873691,201.284039 204.140597,198.220677 204.140597,194.186026 L204.140597,194.188712 Z M207.17962,227.722773 L242.371701,180.751812 L244.695554,182.340786 L209.7804,229.207904 L207.17962,227.722773 Z" id="Shape" fill="#D0D1D4"></path>
                        <polygon id="Shape" fill="#D0D1D4" points="271.715165 260.2381 274.26038 251.287031 265.301043 248.744672 266.2788 245.306223 275.238137 247.850371 277.783352 238.899301 281.223873 239.875961 278.678658 248.827031 287.637995 251.369389 286.660238 254.807838 277.700901 252.26369 275.153894 261.21476 271.713372 260.2381"></polygon>
                    </g>
                    <g id="Group-2" transform="translate(615.000000, 560.000000)"></g>
                    <g id="hand" transform="translate(638.500000, 498.500000) rotate(-1.000000) translate(-638.500000, -498.500000) translate(564.000000, 368.000000)" fill-rule="nonzero">
                        <polygon id="Shape" fill="#3A556A" points="50.2650602 192.174658 148.349714 192.174658 148.349714 260.41231 50.2650602 260.41231"></polygon>
                        <path d="M135.297823,66.3734725 C128.084686,66.3734725 122.237283,72.1964148 122.237283,79.3793783 L122.237283,77.1250213 C122.237283,69.9420578 116.389881,64.1191155 109.176744,64.1191155 C101.963607,64.1191155 96.1162038,69.9420578 96.1162038,77.1250213 L96.1162038,74.9140173 C96.1162038,67.7310539 90.268801,61.9081115 83.055664,61.9081115 C75.842527,61.9081115 69.9951242,67.7310539 69.9951242,74.9140173 L69.9951242,13.0059058 C69.9951242,5.82294236 64.1477213,0 56.9345843,0 C49.7214474,0 43.8740445,5.82294236 43.8740445,13.0059058 L43.8740445,114.278559 L30.5087588,93.2956974 C25.5076505,85.6458414 15.2259671,83.4816478 7.54397623,88.4618358 C-0.138014639,93.4420238 -2.31129937,103.680697 2.68980893,111.330553 L44.1352553,174.625962 L57.8488221,197.516356 L143.047077,196.302471 L148.358363,166.345535 L148.358363,79.3360252 C148.334376,72.169998 142.493993,66.3734327 135.297823,66.3734725 Z" fill="#FCD462"></path>
                    </g>
                    <g id="clip" transform="translate(341.000000, 259.000000)" fill-rule="nonzero">
                        <path d="M46.8289953,5.6849587 C41.4355121,0.474388436 32.8131593,0.475521661 27.4210325,5.68753422 L4.80600693,28.016916 C0.716759217,32.149686 0.794909006,38.7729762 4.9805658,42.8105552 C9.09735896,46.781789 15.6721664,46.781789 19.7889596,42.8105552 L40.2672302,22.5910329 C42.9294356,19.9624652 42.9294356,15.7006106 40.2672302,13.0720428 C37.6050247,10.4434751 33.2886314,10.4434751 30.626426,13.0720428 L11.0384787,32.4123882 C10.355268,33.1108671 10.3748837,34.2239005 11.082301,34.8984786 C11.7723981,35.5565735 12.8663908,35.5565735 13.5564878,34.8984786 L33.1443308,15.5581333 C34.443245,14.3295109 36.5049804,14.3732946 37.749221,15.6557967 C38.9558997,16.899563 38.9558997,18.8611762 37.749221,20.1049425 L17.2710548,40.3243617 C14.5046149,43.0170082 10.0511203,42.985484 7.32401608,40.2539987 C4.62445735,37.550123 4.62445735,33.2068822 7.32401608,30.5030065 L29.9390417,8.17362464 C33.9673555,4.19476734 40.4995928,4.19363411 44.5293673,8.17094611 C48.5591419,12.1482581 48.5602896,18.5980618 44.5320801,22.5769191 L21.9169502,44.906301 C21.1699885,45.5379196 21.0829699,46.6478623 21.7226713,47.385386 C22.3623727,48.1229097 23.4865193,48.2088288 24.2334811,47.5772101 C24.3031794,47.5182824 24.3680782,47.4542037 24.42776,47.385386 L47.0428899,25.0560042 C52.4014196,19.6485618 52.3057409,10.9757819 46.8289953,5.6849587 Z" id="Shape" fill-opacity="0.3" fill="#666666"></path>
                        <path d="M45.0395216,3.90718093 C39.6460385,-1.30338934 31.0236856,-1.30225612 25.6315589,3.90975644 L3.01653324,26.2391383 C-1.07271447,30.3719082 -0.994564678,36.9951984 3.19109212,41.0327774 C7.30788528,45.0040112 13.8826928,45.0040112 17.9994859,41.0327774 L38.4777565,20.8132552 C41.1399619,18.1846874 41.1399619,13.9228328 38.4777565,11.2942651 C35.8155511,8.66569729 31.4991577,8.66569729 28.8369523,11.2942651 L9.249005,30.6346104 C8.5657943,31.3330893 8.58541,32.4461227 9.29282732,33.1207008 C9.98292439,33.7787957 11.0769171,33.7787957 11.7670142,33.1207008 L31.3548571,13.7803555 C32.6537713,12.5517331 34.7155067,12.5955168 35.9597473,13.8780189 C37.166426,15.1217853 37.166426,17.0833984 35.9597473,18.3271647 L15.4815811,38.5465839 C12.7151412,41.2392304 8.26164659,41.2077062 5.5345424,38.4762209 C2.83498366,35.7723452 2.83498366,31.4291044 5.5345424,28.7252287 L28.149568,6.39584687 C32.1778818,2.41698956 38.7101191,2.41585633 42.7398937,6.39316833 C46.7696682,10.3704803 46.770816,16.8202841 42.7426065,20.7991414 L20.1274765,43.1285232 C19.3805148,43.7601418 19.2934962,44.8700845 19.9331976,45.6076082 C20.572899,46.3451319 21.6970456,46.431051 22.4440074,45.7994324 C22.5137057,45.7405046 22.5786045,45.6764259 22.6382863,45.6076082 L45.2534162,23.2782264 C50.6119459,17.870784 50.5162672,9.19800415 45.0395216,3.90718093 Z" id="Shape-Copy" fill="#EAEBEC"></path>
                    </g>
                    <g id="clip" transform="translate(781.500000, 548.000000) rotate(86.000000) translate(-781.500000, -548.000000) translate(756.000000, 524.000000)" fill-rule="nonzero">
                        <path d="M46.8289953,5.6849587 C41.4355121,0.474388436 32.8131593,0.475521661 27.4210325,5.68753422 L4.80600693,28.016916 C0.716759217,32.149686 0.794909006,38.7729762 4.9805658,42.8105552 C9.09735896,46.781789 15.6721664,46.781789 19.7889596,42.8105552 L40.2672302,22.5910329 C42.9294356,19.9624652 42.9294356,15.7006106 40.2672302,13.0720428 C37.6050247,10.4434751 33.2886314,10.4434751 30.626426,13.0720428 L11.0384787,32.4123882 C10.355268,33.1108671 10.3748837,34.2239005 11.082301,34.8984786 C11.7723981,35.5565735 12.8663908,35.5565735 13.5564878,34.8984786 L33.1443308,15.5581333 C34.443245,14.3295109 36.5049804,14.3732946 37.749221,15.6557967 C38.9558997,16.899563 38.9558997,18.8611762 37.749221,20.1049425 L17.2710548,40.3243617 C14.5046149,43.0170082 10.0511203,42.985484 7.32401608,40.2539987 C4.62445735,37.550123 4.62445735,33.2068822 7.32401608,30.5030065 L29.9390417,8.17362464 C33.9673555,4.19476734 40.4995928,4.19363411 44.5293673,8.17094611 C48.5591419,12.1482581 48.5602896,18.5980618 44.5320801,22.5769191 L21.9169502,44.906301 C21.1699885,45.5379196 21.0829699,46.6478623 21.7226713,47.385386 C22.3623727,48.1229097 23.4865193,48.2088288 24.2334811,47.5772101 C24.3031794,47.5182824 24.3680782,47.4542037 24.42776,47.385386 L47.0428899,25.0560042 C52.4014196,19.6485618 52.3057409,10.9757819 46.8289953,5.6849587 Z" id="Shape" fill-opacity="0.3" fill="#666666"></path>
                        <path d="M45.0395216,3.90718093 C39.6460385,-1.30338934 31.0236856,-1.30225612 25.6315589,3.90975644 L3.01653324,26.2391383 C-1.07271447,30.3719082 -0.994564678,36.9951984 3.19109212,41.0327774 C7.30788528,45.0040112 13.8826928,45.0040112 17.9994859,41.0327774 L38.4777565,20.8132552 C41.1399619,18.1846874 41.1399619,13.9228328 38.4777565,11.2942651 C35.8155511,8.66569729 31.4991577,8.66569729 28.8369523,11.2942651 L9.249005,30.6346104 C8.5657943,31.3330893 8.58541,32.4461227 9.29282732,33.1207008 C9.98292439,33.7787957 11.0769171,33.7787957 11.7670142,33.1207008 L31.3548571,13.7803555 C32.6537713,12.5517331 34.7155067,12.5955168 35.9597473,13.8780189 C37.166426,15.1217853 37.166426,17.0833984 35.9597473,18.3271647 L15.4815811,38.5465839 C12.7151412,41.2392304 8.26164659,41.2077062 5.5345424,38.4762209 C2.83498366,35.7723452 2.83498366,31.4291044 5.5345424,28.7252287 L28.149568,6.39584687 C32.1778818,2.41698956 38.7101191,2.41585633 42.7398937,6.39316833 C46.7696682,10.3704803 46.770816,16.8202841 42.7426065,20.7991414 L20.1274765,43.1285232 C19.3805148,43.7601418 19.2934962,44.8700845 19.9331976,45.6076082 C20.572899,46.3451319 21.6970456,46.431051 22.4440074,45.7994324 C22.5137057,45.7405046 22.5786045,45.6764259 22.6382863,45.6076082 L45.2534162,23.2782264 C50.6119459,17.870784 50.5162672,9.19800415 45.0395216,3.90718093 Z" id="Shape-Copy" fill="#EDEDEE"></path>
                    </g>
                    <g id="clip-copy-2" transform="translate(981.500000, 255.000000) rotate(86.000000) translate(-981.500000, -255.000000) translate(956.000000, 231.000000)" fill-rule="nonzero">
                        <path d="M46.8289953,5.6849587 C41.4355121,0.474388436 32.8131593,0.475521661 27.4210325,5.68753422 L4.80600693,28.016916 C0.716759217,32.149686 0.794909006,38.7729762 4.9805658,42.8105552 C9.09735896,46.781789 15.6721664,46.781789 19.7889596,42.8105552 L40.2672302,22.5910329 C42.9294356,19.9624652 42.9294356,15.7006106 40.2672302,13.0720428 C37.6050247,10.4434751 33.2886314,10.4434751 30.626426,13.0720428 L11.0384787,32.4123882 C10.355268,33.1108671 10.3748837,34.2239005 11.082301,34.8984786 C11.7723981,35.5565735 12.8663908,35.5565735 13.5564878,34.8984786 L33.1443308,15.5581333 C34.443245,14.3295109 36.5049804,14.3732946 37.749221,15.6557967 C38.9558997,16.899563 38.9558997,18.8611762 37.749221,20.1049425 L17.2710548,40.3243617 C14.5046149,43.0170082 10.0511203,42.985484 7.32401608,40.2539987 C4.62445735,37.550123 4.62445735,33.2068822 7.32401608,30.5030065 L29.9390417,8.17362464 C33.9673555,4.19476734 40.4995928,4.19363411 44.5293673,8.17094611 C48.5591419,12.1482581 48.5602896,18.5980618 44.5320801,22.5769191 L21.9169502,44.906301 C21.1699885,45.5379196 21.0829699,46.6478623 21.7226713,47.385386 C22.3623727,48.1229097 23.4865193,48.2088288 24.2334811,47.5772101 C24.3031794,47.5182824 24.3680782,47.4542037 24.42776,47.385386 L47.0428899,25.0560042 C52.4014196,19.6485618 52.3057409,10.9757819 46.8289953,5.6849587 Z" id="Shape" fill-opacity="0.3" fill="#666666"></path>
                        <path d="M45.0395216,3.90718093 C39.6460385,-1.30338934 31.0236856,-1.30225612 25.6315589,3.90975644 L3.01653324,26.2391383 C-1.07271447,30.3719082 -0.994564678,36.9951984 3.19109212,41.0327774 C7.30788528,45.0040112 13.8826928,45.0040112 17.9994859,41.0327774 L38.4777565,20.8132552 C41.1399619,18.1846874 41.1399619,13.9228328 38.4777565,11.2942651 C35.8155511,8.66569729 31.4991577,8.66569729 28.8369523,11.2942651 L9.249005,30.6346104 C8.5657943,31.3330893 8.58541,32.4461227 9.29282732,33.1207008 C9.98292439,33.7787957 11.0769171,33.7787957 11.7670142,33.1207008 L31.3548571,13.7803555 C32.6537713,12.5517331 34.7155067,12.5955168 35.9597473,13.8780189 C37.166426,15.1217853 37.166426,17.0833984 35.9597473,18.3271647 L15.4815811,38.5465839 C12.7151412,41.2392304 8.26164659,41.2077062 5.5345424,38.4762209 C2.83498366,35.7723452 2.83498366,31.4291044 5.5345424,28.7252287 L28.149568,6.39584687 C32.1778818,2.41698956 38.7101191,2.41585633 42.7398937,6.39316833 C46.7696682,10.3704803 46.770816,16.8202841 42.7426065,20.7991414 L20.1274765,43.1285232 C19.3805148,43.7601418 19.2934962,44.8700845 19.9331976,45.6076082 C20.572899,46.3451319 21.6970456,46.431051 22.4440074,45.7994324 C22.5137057,45.7405046 22.5786045,45.6764259 22.6382863,45.6076082 L45.2534162,23.2782264 C50.6119459,17.870784 50.5162672,9.19800415 45.0395216,3.90718093 Z" id="Shape-Copy" fill="#EDEDEE"></path>
                    </g>
                    <g id="clip-copy" transform="translate(420.500000, 342.000000) rotate(57.000000) translate(-420.500000, -342.000000) translate(395.000000, 318.000000)" fill-rule="nonzero">
                        <path d="M46.8289953,5.6849587 C41.4355121,0.474388436 32.8131593,0.475521661 27.4210325,5.68753422 L4.80600693,28.016916 C0.716759217,32.149686 0.794909006,38.7729762 4.9805658,42.8105552 C9.09735896,46.781789 15.6721664,46.781789 19.7889596,42.8105552 L40.2672302,22.5910329 C42.9294356,19.9624652 42.9294356,15.7006106 40.2672302,13.0720428 C37.6050247,10.4434751 33.2886314,10.4434751 30.626426,13.0720428 L11.0384787,32.4123882 C10.355268,33.1108671 10.3748837,34.2239005 11.082301,34.8984786 C11.7723981,35.5565735 12.8663908,35.5565735 13.5564878,34.8984786 L33.1443308,15.5581333 C34.443245,14.3295109 36.5049804,14.3732946 37.749221,15.6557967 C38.9558997,16.899563 38.9558997,18.8611762 37.749221,20.1049425 L17.2710548,40.3243617 C14.5046149,43.0170082 10.0511203,42.985484 7.32401608,40.2539987 C4.62445735,37.550123 4.62445735,33.2068822 7.32401608,30.5030065 L29.9390417,8.17362464 C33.9673555,4.19476734 40.4995928,4.19363411 44.5293673,8.17094611 C48.5591419,12.1482581 48.5602896,18.5980618 44.5320801,22.5769191 L21.9169502,44.906301 C21.1699885,45.5379196 21.0829699,46.6478623 21.7226713,47.385386 C22.3623727,48.1229097 23.4865193,48.2088288 24.2334811,47.5772101 C24.3031794,47.5182824 24.3680782,47.4542037 24.42776,47.385386 L47.0428899,25.0560042 C52.4014196,19.6485618 52.3057409,10.9757819 46.8289953,5.6849587 Z" id="Shape" fill-opacity="0.3" fill="#666666"></path>
                        <path d="M45.0395216,3.90718093 C39.6460385,-1.30338934 31.0236856,-1.30225612 25.6315589,3.90975644 L3.01653324,26.2391383 C-1.07271447,30.3719082 -0.994564678,36.9951984 3.19109212,41.0327774 C7.30788528,45.0040112 13.8826928,45.0040112 17.9994859,41.0327774 L38.4777565,20.8132552 C41.1399619,18.1846874 41.1399619,13.9228328 38.4777565,11.2942651 C35.8155511,8.66569729 31.4991577,8.66569729 28.8369523,11.2942651 L9.249005,30.6346104 C8.5657943,31.3330893 8.58541,32.4461227 9.29282732,33.1207008 C9.98292439,33.7787957 11.0769171,33.7787957 11.7670142,33.1207008 L31.3548571,13.7803555 C32.6537713,12.5517331 34.7155067,12.5955168 35.9597473,13.8780189 C37.166426,15.1217853 37.166426,17.0833984 35.9597473,18.3271647 L15.4815811,38.5465839 C12.7151412,41.2392304 8.26164659,41.2077062 5.5345424,38.4762209 C2.83498366,35.7723452 2.83498366,31.4291044 5.5345424,28.7252287 L28.149568,6.39584687 C32.1778818,2.41698956 38.7101191,2.41585633 42.7398937,6.39316833 C46.7696682,10.3704803 46.770816,16.8202841 42.7426065,20.7991414 L20.1274765,43.1285232 C19.3805148,43.7601418 19.2934962,44.8700845 19.9331976,45.6076082 C20.572899,46.3451319 21.6970456,46.431051 22.4440074,45.7994324 C22.5137057,45.7405046 22.5786045,45.6764259 22.6382863,45.6076082 L45.2534162,23.2782264 C50.6119459,17.870784 50.5162672,9.19800415 45.0395216,3.90718093 Z" id="Shape-Copy" fill="#EDEDEE"></path>
                    </g>
                    <g id="Group-3" transform="translate(455.000000, 90.000000)" fill-rule="nonzero">
                        <ellipse id="Oval" fill="#15BDB1" cx="56.4967742" cy="56.3951613" rx="54.7032258" ry="54.6048387"></ellipse>
                        <path d="M104.922581,48.3387097 L131.391129,48.3387097 C135.593392,48.3387097 139,51.7453172 139,55.9475806 L139,55.9475806 C139,60.149844 135.593392,63.5564516 131.391129,63.5564516 L104.922581,63.5564516 L104.922581,48.3387097 Z" id="Rectangle-2" fill="#15BDB1"></path>
                        <path d="M104.025806,45.6532258 L130.494355,45.6532258 C134.696618,45.6532258 138.103226,49.0598334 138.103226,53.2620968 L138.103226,53.2620968 C138.103226,57.4643602 134.696618,60.8709677 130.494355,60.8709677 L104.025806,60.8709677 L104.025806,45.6532258 Z" id="Rectangle-2-Copy" fill="#FFFFFF"></path>
                        <ellipse id="Path" fill="#FFFFFF" cx="54.7032258" cy="54.6048387" rx="54.7032258" ry="54.6048387"></ellipse>
                        <ellipse id="Oval-Copy" fill="#49290C" cx="54.2548387" cy="54.1572581" rx="46.183871" ry="46.1008065"></ellipse>
                    </g>
                    <g id="clip-(1)" transform="translate(303.733403, 206.381151) rotate(-33.000000) translate(-303.733403, -206.381151) translate(255.233403, 165.881151)" fill-rule="nonzero">
                        <path d="M93.1146669,44.144979 C96.2376784,42.9406075 97.7956815,39.4256424 96.5945669,36.2941626 C95.6907017,33.9376267 93.4274414,32.3873591 90.9093418,32.4000787 L6.0891452,32.4000787 C2.74310205,32.3831826 0.0169279155,35.0892216 7.74746332e-05,38.4443378 C-0.0126076887,40.9690756 1.53346759,43.2386629 3.88363076,44.144979 L0.612183938,74.1838344 C0.203986742,77.5138912 2.56532043,80.5453232 5.88637192,80.9546272 C6.13193396,80.9848125 6.37901065,81 6.62627667,81 L26.2843039,81 C27.3996516,81 28.3038955,80.0933042 28.3038955,78.9749321 C28.3038955,75.6198158 31.0164378,72.8999182 34.362481,72.8999182 C37.7085241,72.8999182 40.4210664,75.6198158 40.4210664,78.9749321 C40.4210664,80.0933042 41.3253103,81 42.440658,81 L54.557829,81 C55.6731767,81 56.5774206,80.0933042 56.5774206,78.9749321 C56.5774206,75.6198158 59.2899629,72.8999182 62.636006,72.8999182 C65.9820492,72.8999182 68.6945915,75.6198158 68.6945915,78.9749321 C68.6945915,80.0933042 69.5988354,81 70.7141831,81 L90.3722103,81 C93.7182535,80.9990508 96.4300385,78.2785836 96.4290918,74.9232775 C96.4290918,74.6829348 96.4147027,74.4427819 96.386303,74.2039579 L93.1146669,44.144979 Z" id="Shape" fill="#455A64"></path>
                        <path d="M68.0801394,78.9749383 C68.0641753,77.9784492 67.7967297,77.0024633 67.3027818,76.1400038 C67.2466257,76.0671039 67.1305574,76.0023672 67.0984413,75.9294672 L56.4327342,23.7167815 C60.7599436,22.5429785 63.8547246,18.6963674 64.1095868,14.1750522 C64.1095868,7.32245756 59.8986336,0 48.082948,0 C36.2672625,0 32.0563093,7.32245756 32.0563093,14.1750522 C32.3111714,18.6965573 35.4059525,22.5429785 39.7331618,23.7167815 L29.1515949,75.6336909 C29.1074589,75.7470275 28.9953346,75.8077775 28.9352344,75.9131407 C28.3689785,76.8327431 28.0626557,77.8916907 28.0496966,78.9749383 C28.0496966,80.093307 27.1527021,81 26.0462963,81 L27.276283,81 C29.8827505,80.966018 32.1793268,79.2598935 32.9897394,76.7556666 L44.0321993,22.6800456 C44.2538185,21.5842683 43.5547789,20.5144996 42.4707228,20.2904841 C42.4570124,20.2876365 42.4433021,20.2849787 42.4295917,20.2825107 C42.3775676,20.2703607 36.062922,19.0350484 36.062922,14.1750522 C36.062922,7.73954395 40.4462874,4.0501234 48.082948,4.0501234 C55.7196086,4.0501234 60.102974,7.7397338 60.102974,14.1750522 C60.102974,18.9782852 53.9808367,20.2500475 53.7163961,20.2864974 C52.6280204,20.4875418 51.9068188,21.5423129 52.1057127,22.6424565 C52.1081542,22.6563151 52.1107836,22.6701737 52.1136008,22.6840323 L63.2441449,77.0592265 C64.1276168,79.4191723 66.3573316,80.9855719 68.853553,80.9998102 L70.0555556,81 C68.9600429,80.9844328 68.0801394,80.082296 68.0801394,78.9749383 Z" id="Shape" fill="#CFD8DC"></path>
                    </g>
                    <g id="clip-(1)-copy" transform="translate(480.500000, 275.500000) rotate(21.000000) translate(-480.500000, -275.500000) translate(432.000000, 235.000000)" fill-rule="nonzero">
                        <path d="M93.1146669,44.144979 C96.2376784,42.9406075 97.7956815,39.4256424 96.5945669,36.2941626 C95.6907017,33.9376267 93.4274414,32.3873591 90.9093418,32.4000787 L6.0891452,32.4000787 C2.74310205,32.3831826 0.0169279155,35.0892216 7.74746332e-05,38.4443378 C-0.0126076887,40.9690756 1.53346759,43.2386629 3.88363076,44.144979 L0.612183938,74.1838344 C0.203986742,77.5138912 2.56532043,80.5453232 5.88637192,80.9546272 C6.13193396,80.9848125 6.37901065,81 6.62627667,81 L26.2843039,81 C27.3996516,81 28.3038955,80.0933042 28.3038955,78.9749321 C28.3038955,75.6198158 31.0164378,72.8999182 34.362481,72.8999182 C37.7085241,72.8999182 40.4210664,75.6198158 40.4210664,78.9749321 C40.4210664,80.0933042 41.3253103,81 42.440658,81 L54.557829,81 C55.6731767,81 56.5774206,80.0933042 56.5774206,78.9749321 C56.5774206,75.6198158 59.2899629,72.8999182 62.636006,72.8999182 C65.9820492,72.8999182 68.6945915,75.6198158 68.6945915,78.9749321 C68.6945915,80.0933042 69.5988354,81 70.7141831,81 L90.3722103,81 C93.7182535,80.9990508 96.4300385,78.2785836 96.4290918,74.9232775 C96.4290918,74.6829348 96.4147027,74.4427819 96.386303,74.2039579 L93.1146669,44.144979 Z" id="Shape" fill="#7536AD"></path>
                        <path d="M68.0801394,78.9749383 C68.0641753,77.9784492 67.7967297,77.0024633 67.3027818,76.1400038 C67.2466257,76.0671039 67.1305574,76.0023672 67.0984413,75.9294672 L56.4327342,23.7167815 C60.7599436,22.5429785 63.8547246,18.6963674 64.1095868,14.1750522 C64.1095868,7.32245756 59.8986336,0 48.082948,0 C36.2672625,0 32.0563093,7.32245756 32.0563093,14.1750522 C32.3111714,18.6965573 35.4059525,22.5429785 39.7331618,23.7167815 L29.1515949,75.6336909 C29.1074589,75.7470275 28.9953346,75.8077775 28.9352344,75.9131407 C28.3689785,76.8327431 28.0626557,77.8916907 28.0496966,78.9749383 C28.0496966,80.093307 27.1527021,81 26.0462963,81 L27.276283,81 C29.8827505,80.966018 32.1793268,79.2598935 32.9897394,76.7556666 L44.0321993,22.6800456 C44.2538185,21.5842683 43.5547789,20.5144996 42.4707228,20.2904841 C42.4570124,20.2876365 42.4433021,20.2849787 42.4295917,20.2825107 C42.3775676,20.2703607 36.062922,19.0350484 36.062922,14.1750522 C36.062922,7.73954395 40.4462874,4.0501234 48.082948,4.0501234 C55.7196086,4.0501234 60.102974,7.7397338 60.102974,14.1750522 C60.102974,18.9782852 53.9808367,20.2500475 53.7163961,20.2864974 C52.6280204,20.4875418 51.9068188,21.5423129 52.1057127,22.6424565 C52.1081542,22.6563151 52.1107836,22.6701737 52.1136008,22.6840323 L63.2441449,77.0592265 C64.1276168,79.4191723 66.3573316,80.9855719 68.853553,80.9998102 L70.0555556,81 C68.9600429,80.9844328 68.0801394,80.082296 68.0801394,78.9749383 Z" id="Shape" fill="#CFD8DC"></path>
                    </g>
                </g>
                <g id="Rectangle-Copy-3">
                    <use fill="black" fill-opacity="1" filter="url(#filter-2)" xlink:href="#path-1"></use>
                    <use stroke="#979797" stroke-width="1" fill="#FFFFFF" fill-rule="evenodd" xlink:href="#path-1"></use>
                </g>
            </g>
        </g>
    </g>
</svg>