<?xml version="1.0" encoding="UTF-8"?>
<svg width="23px" height="23px" viewBox="0 0 23 23" version="1.1" xmlns="http://www.w3.org/2000/svg" xmlns:xlink="http://www.w3.org/1999/xlink">
    <title>check-mark</title>
    <g id="Sprint-7" stroke="none" stroke-width="1" fill="none" fill-rule="evenodd">
        <g id="US.102_Confirmation" transform="translate(-419.000000, -1530.000000)" fill="#3853B9" fill-rule="nonzero">
            <g id="check-mark" transform="translate(419.000000, 1530.000000)">
                <path d="M16.5835418,7.85097503 C16.934494,8.20192717 16.934494,8.77082063 16.5835418,9.12159731 L10.5562897,15.149025 C10.2053375,15.4998016 9.63661956,15.4998016 9.28566741,15.149025 L6.41645815,12.2796402 C6.065506,11.9288635 6.065506,11.3599701 6.41645815,11.0091934 C6.76723479,10.6582413 7.33612825,10.6582413 7.68690493,11.0091934 L9.9208908,13.2431793 L15.3129196,7.85097503 C15.6638718,7.50019839 16.2327652,7.50019839 16.5835418,7.85097503 L16.5835418,7.85097503 Z M23,11.5 C23,17.8566208 17.8557434,23 11.5,23 C5.14337922,23 0,17.8557434 0,11.5 C0,5.14337922 5.14425659,0 11.5,0 C17.8566208,0 23,5.14425659 23,11.5 Z M21.203125,11.5 C21.203125,6.1365738 16.8627243,1.796875 11.5,1.796875 C6.1365738,1.796875 1.796875,6.13727571 1.796875,11.5 C1.796875,16.8634262 6.13727571,21.203125 11.5,21.203125 C16.8634262,21.203125 21.203125,16.8627243 21.203125,11.5 Z" id="Shape"></path>
            </g>
        </g>
    </g>
</svg>