<?xml version="1.0" encoding="UTF-8"?>
<svg width="909px" height="288px" viewBox="0 0 909 288" version="1.1" xmlns="http://www.w3.org/2000/svg" xmlns:xlink="http://www.w3.org/1999/xlink">
    <!-- Generator: Sketch 63.1 (92452) - https://sketch.com -->
    <title>Group 4</title>
    <desc>Created with Sketch.</desc>
    <g id="Sprint-0" stroke="none" stroke-width="1" fill="none" fill-rule="evenodd">
        <g id="US.53.page_provisoire" transform="translate(-260.000000, -275.000000)">
            <g id="Group-4" transform="translate(260.000000, 275.000000)">
                <text id="Une-question,-une-re" font-family="Lato-Regular, Lato" font-size="24" font-weight="normal" line-spacing="36" fill="#23333C">
                    <tspan x="0" y="87.5">Une question, une remarque, une suggestion d’amélioration ? </tspan>
                    <tspan x="0" y="123.5">Ecrivez-nous un message !</tspan>
                </text>
                <text id="estime@pole-emploi.f" font-family="Lato-Black, Lato" font-size="24" font-weight="700" line-spacing="36" fill="#3853B9">
                    <tspan x="0" y="177.5">estime@pole-emploi.fr</tspan>
                </text>
                <text id="Nous-contacter" font-family="Lato-Black, Lato" font-size="36" font-weight="700" line-spacing="47" fill="#1B2B67">
                    <tspan x="0" y="54.5">Nous contacter</tspan>
                </text>
                <g id="Group-2" transform="translate(676.000000, 0.000000)">
                    <path d="M201.96908,67.7893819 C221.537087,95.0372371 232.117962,122.202342 232.934674,147.950771 C233.850581,173.70251 225.025469,198.117012 213.37328,223.282882 C201.717785,248.366002 187.149242,274.19718 167.587848,277.613092 C148.026455,280.946254 123.468904,261.9469 96.6662237,251.199355 C69.7676544,240.531251 40.6437946,238.197706 22.4843671,222.117764 C4.34808518,205.951763 -2.72787529,176.036054 0.93575284,146.868404 C4.68204406,117.704063 19.3332501,89.2745408 41.8076909,62.6224843 C64.3681013,35.874438 94.9170728,10.8740675 124.384811,12.0391847 C153.935212,13.2076119 182.487043,40.5382168 201.96908,67.7893819 Z" id="Path" fill="#DEEEFF" fill-rule="nonzero" transform="translate(116.500000, 145.000000) scale(-1, 1) translate(-116.500000, -145.000000) "></path>
                    <path d="M107.532475,181.152666 C113.536238,197.972457 116,274.941176 116,288 L84.9314367,288 L72,258.7886 L94.4453978,177 L107.532475,181.152666 Z" id="Path" fill="#23333C" fill-rule="nonzero" transform="translate(94.000000, 232.500000) scale(-1, 1) translate(-94.000000, -232.500000) "></path>
                    <path d="M161,184.358329 C159.317991,195.49037 144.347453,279.167967 141.006431,288 L96.4726117,288 C94.5803515,281.691405 87.4318128,207.473415 96.4726117,180.142741 C105.513411,152.812068 161,184.358329 161,184.358329 Z" id="Path" fill="#23333C" fill-rule="nonzero" transform="translate(126.500000, 228.500000) scale(-1, 1) translate(-126.500000, -228.500000) "></path>
                    <path d="M32.7507877,140 C35.6222429,139.447029 74.6979895,122.021946 83.5485929,114.605633 C92.3991963,107.18932 81.8250544,101.461194 78.4911053,103.37057 C75.1571562,105.279945 40.4501472,119.88813 33.3230824,122.021946 C26.1960176,124.155763 32.7507877,140 32.7507877,140 Z" id="Path" fill="#F9D0B4" fill-rule="nonzero" transform="translate(58.500000, 121.500000) scale(-1, 1) translate(-58.500000, -121.500000) "></path>
                    <polygon id="Rectangle" fill="#DEDEDE" fill-rule="nonzero" transform="translate(36.853655, 87.389544) scale(-1, 1) rotate(-4.460000) translate(-36.853655, -87.389544) " points="22.6954771 60.0551209 51.0089937 60.0565902 51.0118325 114.723968 22.6983159 114.722498"></polygon>
                    <line x1="50" y1="72" x2="65" y2="102" id="Path" stroke="#000000" stroke-width="8" stroke-linecap="round" stroke-linejoin="round" transform="translate(57.500000, 87.000000) scale(-1, 1) translate(-57.500000, -87.000000) "></line>
                    <ellipse id="Oval" fill="#F9D0B4" fill-rule="nonzero" transform="translate(125.662679, 38.066418) scale(-1, 1) rotate(-6.240000) translate(-125.662679, -38.066418) " cx="125.662679" cy="38.0664182" rx="14.6408771" ry="21.2302597"></ellipse>
                    <path d="M111.509143,63 C160.342367,63 162.619051,181.673803 160.474349,183.813552 C158.329646,185.953302 108.671537,195.993665 81.615291,184.801129 C75.0129071,156.161404 79.503584,63 111.509143,63 Z" id="Path" fill="#3853B9" fill-rule="nonzero" transform="translate(120.000000, 126.500000) scale(-1, 1) translate(-120.000000, -126.500000) "></path>
                    <path d="M145,87.6694545 C145,84.885001 142.025943,79.0917541 137.660689,80.1210781 C134.656893,80.8270888 130.526259,86.8413765 128.738521,89.394892 C122.687969,93.5550767 84.4019542,125.170501 81.4576387,128.23208 C81.3353719,125.678565 78.8801234,120.568235 75.9325034,115.840602 L51,131.936987 C53.5808198,139.092769 69.6671586,158 75.9325034,158 C92.3790334,158 125.632285,113.38606 134.058777,101.420168 C137.997749,98.6852014 145.003303,93.2251651 145,87.6694545 Z" id="Path" fill="#F9D0B4" fill-rule="nonzero" transform="translate(98.000000, 119.000000) scale(-1, 1) translate(-98.000000, -119.000000) "></path>
                    <path d="M103,27.618033 C103,21.4467177 107.928463,17.8366463 109.530295,16.1499736 C112.766318,12.7305981 114.707932,3.61335931 121.545649,3.61335931 C123.487262,3.61335931 126.503236,4.76082283 128.399546,4.76082283 C130.771551,4.75095924 135.492908,0 140.253098,0 C148.226659,0 150,7.4568689 150,9.74850807 C150,18.1391295 139.715918,24.4715499 138.350317,25.227758 C137.771069,24.2644147 135.114294,20.660919 134.230859,20.115134 C133.17268,22.3574553 126.030777,26.0891776 120.63309,29.4329323 C117.610644,31.3070131 115.707863,45.8525105 115.753167,47 C110.711443,47.0164133 103,39.2439097 103,27.618033 Z" id="Path" fill="#23333C" fill-rule="nonzero" transform="translate(126.500000, 23.500000) scale(-1, 1) translate(-126.500000, -23.500000) "></path>
                    <circle id="Oval" fill="#F9D0B4" fill-rule="nonzero" transform="translate(139.000000, 42.000000) scale(-1, 1) translate(-139.000000, -42.000000) " cx="139" cy="42" r="4"></circle>
                    <path d="M135.993909,70.6960738 C136.318594,72.7665581 123.55524,72.2415071 123.405885,70.0356323 L122,49.2845588 L133.558774,48 C133.558774,48 135.688705,68.632194 135.993909,70.6960738 Z" id="Path" fill="#F9D0B4" fill-rule="nonzero" transform="translate(129.000000, 60.000000) scale(-1, 1) translate(-129.000000, -60.000000) "></path>
                    <path d="M121.60079,80.7372282 C106.894724,88.6568904 120.043325,129.788464 129.331541,134 C139.824464,134 161,118.979951 161,113.909656 C161,108.839361 140.67641,70.4716087 121.60079,80.7372282 Z" id="Path" fill="#3853B9" fill-rule="nonzero" transform="translate(138.000000, 106.500000) scale(-1, 1) translate(-138.000000, -106.500000) "></path>
                    <path d="M21,82.984556 C21,90.1949807 29.273896,94 30.4779206,94 C33,94 33,86.1084942 33,84.065251 C33,79.4088803 28.6165456,76 25.2861934,76 C21.9558413,76 21,78.8980695 21,82.984556 Z" id="Path" fill="#F9D0B4" fill-rule="nonzero" transform="translate(27.000000, 85.000000) scale(-1, 1) translate(-27.000000, -85.000000) "></path>
                </g>
            </g>
        </g>
    </g>
</svg>