<?xml version="1.0" encoding="UTF-8"?>
<svg width="251px" height="577px" viewBox="0 0 251 577" version="1.1" xmlns="http://www.w3.org/2000/svg" xmlns:xlink="http://www.w3.org/1999/xlink">
    <!-- Generator: Sketch 63.1 (92452) - https://sketch.com -->
    <title>Group</title>
    <desc>Created with Sketch.</desc>
    <g id="Sprint-0" stroke="none" stroke-width="1" fill="none" fill-rule="evenodd">
        <g id="Contact" transform="translate(-30.000000, -138.000000)">
            <g id="Group" transform="translate(30.000000, 128.000000)">
                <text id="Une-question,-une-re" font-family="Lato-Regular, Lato" font-size="21" font-weight="normal" line-spacing="36" fill="#23333C">
                    <tspan x="0" y="65">Une question, une </tspan>
                    <tspan x="0" y="101">remarque, une suggestion </tspan>
                    <tspan x="0" y="137">d’amélioration ? </tspan>
                    <tspan x="0" y="173">Ecrivez-nous un message !</tspan>
                </text>
                <text id="estime@pole-emploi.f" font-family="Lato-Black, Lato" font-size="24" font-weight="700" line-spacing="36" fill="#3853B9">
                    <tspan x="0" y="240">estime@pole-emploi.fr</tspan>
                </text>
                <text id="Nous-contacter" font-family="Lato-Black, Lato" font-size="36" font-weight="700" line-spacing="47" fill="#1B2B67">
                    <tspan x="0" y="36">Nous contacter</tspan>
                </text>
                <g id="support-notes-colour" transform="translate(126.500000, 443.000000) scale(-1, 1) translate(-126.500000, -443.000000) translate(10.000000, 299.000000)">
                    <path d="M201.96908,67.7893819 C221.537087,95.0372371 232.117962,122.202342 232.934674,147.950771 C233.850581,173.70251 225.025469,198.117012 213.37328,223.282882 C201.717785,248.366002 187.149242,274.19718 167.587848,277.613092 C148.026455,280.946254 123.468904,261.9469 96.6662237,251.199355 C69.7676544,240.531251 40.6437946,238.197706 22.4843671,222.117764 C4.34808518,205.951763 -2.72787529,176.036054 0.93575284,146.868404 C4.68204406,117.704063 19.3332501,89.2745408 41.8076909,62.6224843 C64.3681013,35.874438 94.9170728,10.8740675 124.384811,12.0391847 C153.935212,13.2076119 182.487043,40.5382168 201.96908,67.7893819 Z" id="Path" fill="#DEEEFF" fill-rule="nonzero"></path>
                    <path d="M152.532475,181.152666 C158.536238,197.972457 161,274.941176 161,288 L129.931437,288 L117,258.7886 L139.445398,177 L152.532475,181.152666 Z" id="Path" fill="#23333C" fill-rule="nonzero"></path>
                    <path d="M141,184.358329 C139.317991,195.49037 124.347453,279.167967 121.006431,288 L76.4726117,288 C74.5803515,281.691405 67.4318128,207.473415 76.4726117,180.142741 C85.5134106,152.812068 141,184.358329 141,184.358329 Z" id="Path" fill="#23333C" fill-rule="nonzero"></path>
                    <path d="M148.750788,140 C151.622243,139.447029 190.69799,122.021946 199.548593,114.605633 C208.399196,107.18932 197.825054,101.461194 194.491105,103.37057 C191.157156,105.279945 156.450147,119.88813 149.323082,122.021946 C142.196018,124.155763 148.750788,140 148.750788,140 Z" id="Path" fill="#F9D0B4" fill-rule="nonzero"></path>
                    <polygon id="Rectangle" fill="#DEDEDE" fill-rule="nonzero" transform="translate(196.146345, 87.389544) rotate(-4.460000) translate(-196.146345, -87.389544) " points="181.988167 60.0551209 210.301684 60.0565902 210.304523 114.723968 181.991006 114.722498"></polygon>
                    <line x1="168" y1="72" x2="183" y2="102" id="Path" stroke="#000000" stroke-width="8" stroke-linecap="round" stroke-linejoin="round"></line>
                    <ellipse id="Oval" fill="#F9D0B4" fill-rule="nonzero" transform="translate(107.337321, 38.066418) rotate(-6.240000) translate(-107.337321, -38.066418) " cx="107.337321" cy="38.0664182" rx="14.6408771" ry="21.2302597"></ellipse>
                    <path d="M104.509143,63 C153.342367,63 155.619051,181.673803 153.474349,183.813552 C151.329646,185.953302 101.671537,195.993665 74.615291,184.801129 C68.0129071,156.161404 72.503584,63 104.509143,63 Z" id="Path" fill="#3853B9" fill-rule="nonzero"></path>
                    <path d="M182,87.6694545 C182,84.885001 179.025943,79.0917541 174.660689,80.1210781 C171.656893,80.8270888 167.526259,86.8413765 165.738521,89.394892 C159.687969,93.5550767 121.401954,125.170501 118.457639,128.23208 C118.335372,125.678565 115.880123,120.568235 112.932503,115.840602 L88,131.936987 C90.5808198,139.092769 106.667159,158 112.932503,158 C129.379033,158 162.632285,113.38606 171.058777,101.420168 C174.997749,98.6852014 182.003303,93.2251651 182,87.6694545 Z" id="Path" fill="#F9D0B4" fill-rule="nonzero"></path>
                    <path d="M83,27.618033 C83,21.4467177 87.9284632,17.8366463 89.5302947,16.1499736 C92.7663178,12.7305981 94.7079317,3.61335931 101.545649,3.61335931 C103.487262,3.61335931 106.503236,4.76082283 108.399546,4.76082283 C110.771551,4.75095924 115.492908,0 120.253098,0 C128.226659,0 130,7.4568689 130,9.74850807 C130,18.1391295 119.715918,24.4715499 118.350317,25.227758 C117.771069,24.2644147 115.114294,20.660919 114.230859,20.115134 C113.17268,22.3574553 106.030777,26.0891776 100.63309,29.4329323 C97.6106445,31.3070131 95.7078628,45.8525105 95.7531672,47 C90.7114431,47.0164133 83,39.2439097 83,27.618033 Z" id="Path" fill="#23333C" fill-rule="nonzero"></path>
                    <circle id="Oval" fill="#F9D0B4" fill-rule="nonzero" cx="94" cy="42" r="4"></circle>
                    <path d="M110.993909,70.6960738 C111.318594,72.7665581 98.5552395,72.2415071 98.4058846,70.0356323 L97,49.2845588 L108.558774,48 C108.558774,48 110.688705,68.632194 110.993909,70.6960738 Z" id="Path" fill="#F9D0B4" fill-rule="nonzero"></path>
                    <path d="M78.6007898,80.7372282 C63.8947242,88.6568904 77.0433246,129.788464 86.3315411,134 C96.8244637,134 118,118.979951 118,113.909656 C118,108.839361 97.6764104,70.4716087 78.6007898,80.7372282 Z" id="Path" fill="#3853B9" fill-rule="nonzero"></path>
                    <path d="M200,82.984556 C200,90.1949807 208.273896,94 209.477921,94 C212,94 212,86.1084942 212,84.065251 C212,79.4088803 207.616546,76 204.286193,76 C200.955841,76 200,78.8980695 200,82.984556 Z" id="Path" fill="#F9D0B4" fill-rule="nonzero"></path>
                </g>
            </g>
        </g>
    </g>
</svg>