<?xml version="1.0" encoding="utf-8"?>
<!-- Generator: Adobe Illustrator 23.1.1, SVG Export Plug-In . SVG Version: 6.00 Build 0)  -->
<svg version="1.1" id="Calque_1" xmlns="http://www.w3.org/2000/svg" xmlns:xlink="http://www.w3.org/1999/xlink" x="0px" y="0px"
	 viewBox="0 0 250 577" style="enable-background:new 0 0 250 577;" xml:space="preserve">
<style type="text/css">
	.st0{enable-background:new    ;}
	.st1{fill:#23333C;}
	.st2{fill:#3853B9;}
	.st3{fill:#1B2B67;}
	.st4{fill:#DEEEFF;}
	.st5{fill:#F9D0B4;}
	.st6{fill:#DEDEDE;}
	.st7{fill:none;stroke:#000000;stroke-width:8;stroke-linecap:round;stroke-linejoin:round;}
</style>
<title>Group</title>
<desc>Created with Sketch.</desc>
<g id="Sprint-0">
	<g id="Contact" transform="translate(-30.000000, -172.000000)">
		<g id="Group" transform="translate(30.000000, 162.000000)">
			<g class="st0">
				<path class="st1" d="M8.99,69.38c0.62,0,1.18-0.1,1.67-0.31c0.49-0.21,0.9-0.5,1.24-0.88c0.34-0.38,0.6-0.83,0.78-1.35
					c0.18-0.52,0.27-1.1,0.27-1.73v-9.15h2.03v9.15c0,0.87-0.14,1.67-0.42,2.42c-0.28,0.74-0.67,1.38-1.19,1.93
					c-0.51,0.54-1.14,0.97-1.88,1.28s-1.57,0.46-2.5,0.46c-0.92,0-1.76-0.15-2.5-0.46s-1.37-0.73-1.89-1.28
					c-0.52-0.54-0.92-1.18-1.19-1.93C3.13,66.79,3,65.98,3,65.11v-9.15h2.03v9.14c0,0.63,0.09,1.21,0.27,1.73
					c0.18,0.52,0.44,0.98,0.78,1.35c0.34,0.38,0.76,0.67,1.25,0.89C7.8,69.28,8.36,69.38,8.99,69.38z"/>
				<path class="st1" d="M18.17,71V60.36h1.11c0.27,0,0.43,0.13,0.5,0.39l0.15,1.16c0.46-0.51,0.98-0.92,1.55-1.24
					c0.57-0.32,1.23-0.47,1.98-0.47c0.58,0,1.09,0.1,1.54,0.29c0.44,0.19,0.82,0.47,1.11,0.82c0.3,0.35,0.52,0.78,0.68,1.28
					c0.15,0.5,0.23,1.05,0.23,1.65V71h-1.87v-6.77c0-0.8-0.18-1.43-0.55-1.87c-0.37-0.44-0.93-0.67-1.69-0.67
					c-0.55,0-1.07,0.13-1.55,0.4s-0.92,0.63-1.33,1.08V71H18.17z"/>
				<path class="st1" d="M34.06,60.2c0.64,0,1.22,0.11,1.76,0.32c0.54,0.21,1,0.52,1.4,0.92c0.39,0.4,0.7,0.9,0.92,1.49
					s0.33,1.27,0.33,2.02c0,0.29-0.03,0.49-0.09,0.59s-0.18,0.15-0.36,0.15h-7.08c0.01,0.67,0.1,1.26,0.27,1.75
					c0.17,0.49,0.4,0.91,0.69,1.24s0.64,0.58,1.05,0.75c0.41,0.16,0.86,0.25,1.36,0.25c0.47,0,0.87-0.05,1.21-0.16
					s0.63-0.23,0.88-0.35c0.24-0.13,0.45-0.24,0.61-0.35s0.31-0.16,0.42-0.16c0.15,0,0.27,0.06,0.36,0.18l0.52,0.68
					c-0.23,0.28-0.51,0.52-0.83,0.73c-0.32,0.21-0.67,0.38-1.03,0.51c-0.37,0.13-0.75,0.23-1.14,0.3s-0.78,0.1-1.17,0.1
					c-0.74,0-1.41-0.12-2.03-0.37c-0.62-0.25-1.16-0.61-1.61-1.09c-0.45-0.48-0.8-1.07-1.06-1.78c-0.25-0.71-0.38-1.52-0.38-2.44
					c0-0.74,0.11-1.44,0.34-2.08c0.23-0.64,0.55-1.2,0.98-1.67c0.43-0.47,0.95-0.84,1.56-1.11C32.6,60.33,33.29,60.2,34.06,60.2z
					 M34.1,61.57c-0.9,0-1.61,0.26-2.13,0.78s-0.84,1.24-0.97,2.17h5.79c0-0.43-0.06-0.83-0.18-1.19s-0.29-0.67-0.52-0.93
					s-0.51-0.47-0.85-0.61S34.53,61.57,34.1,61.57z"/>
				<path class="st1" d="M53.5,60.36V74.6h-1.87v-5.18c-0.45,0.52-0.96,0.93-1.53,1.25c-0.57,0.31-1.22,0.47-1.96,0.47
					c-0.61,0-1.16-0.12-1.66-0.35c-0.5-0.23-0.92-0.58-1.27-1.03c-0.35-0.46-0.62-1.02-0.81-1.7c-0.19-0.68-0.28-1.46-0.28-2.34
					c0-0.78,0.1-1.51,0.31-2.19c0.21-0.68,0.51-1.26,0.91-1.76s0.88-0.89,1.44-1.17c0.57-0.28,1.21-0.42,1.93-0.42
					c0.69,0,1.27,0.12,1.75,0.37s0.91,0.59,1.29,1.04l0.13-0.83c0.07-0.26,0.24-0.39,0.5-0.39h1.12V60.36z M48.77,69.63
					c0.61,0,1.14-0.14,1.6-0.42s0.88-0.67,1.27-1.19v-5.14c-0.34-0.45-0.71-0.77-1.12-0.96s-0.87-0.29-1.37-0.29
					c-0.99,0-1.76,0.35-2.29,1.06c-0.53,0.71-0.8,1.71-0.8,3.02c0,0.69,0.06,1.29,0.18,1.78c0.12,0.49,0.29,0.9,0.52,1.22
					s0.51,0.55,0.85,0.7C47.95,69.56,48.34,69.63,48.77,69.63z"/>
				<path class="st1" d="M58.26,60.36v6.78c0,0.8,0.19,1.43,0.56,1.87c0.37,0.44,0.93,0.66,1.68,0.66c0.55,0,1.06-0.13,1.54-0.39
					c0.48-0.26,0.93-0.62,1.33-1.08v-7.84h1.87V71h-1.11c-0.27,0-0.43-0.13-0.5-0.39l-0.15-1.14c-0.46,0.51-0.98,0.92-1.55,1.23
					c-0.57,0.31-1.23,0.47-1.97,0.47c-0.58,0-1.09-0.1-1.54-0.29c-0.44-0.19-0.82-0.46-1.12-0.81s-0.53-0.77-0.68-1.27
					s-0.23-1.05-0.23-1.65v-6.78h1.87V60.36z"/>
				<path class="st1" d="M72.53,60.2c0.64,0,1.22,0.11,1.76,0.32s1,0.52,1.4,0.92c0.39,0.4,0.7,0.9,0.92,1.49s0.33,1.27,0.33,2.02
					c0,0.29-0.03,0.49-0.09,0.59s-0.18,0.15-0.36,0.15h-7.08c0.01,0.67,0.1,1.26,0.27,1.75c0.17,0.49,0.4,0.91,0.69,1.24
					s0.64,0.58,1.05,0.75c0.41,0.16,0.86,0.25,1.36,0.25c0.47,0,0.87-0.05,1.21-0.16s0.63-0.23,0.88-0.35
					c0.24-0.13,0.45-0.24,0.61-0.35s0.31-0.16,0.42-0.16c0.15,0,0.27,0.06,0.36,0.18l0.52,0.68c-0.23,0.28-0.51,0.52-0.83,0.73
					s-0.67,0.38-1.03,0.51c-0.37,0.13-0.75,0.23-1.14,0.3s-0.78,0.1-1.17,0.1c-0.74,0-1.41-0.12-2.03-0.37
					c-0.62-0.25-1.16-0.61-1.61-1.09c-0.45-0.48-0.8-1.07-1.06-1.78c-0.25-0.71-0.38-1.52-0.38-2.44c0-0.74,0.11-1.44,0.34-2.08
					c0.23-0.64,0.55-1.2,0.98-1.67c0.43-0.47,0.95-0.84,1.56-1.11C71.07,60.33,71.76,60.2,72.53,60.2z M72.57,61.57
					c-0.9,0-1.61,0.26-2.13,0.78s-0.84,1.24-0.97,2.17h5.79c0-0.43-0.06-0.83-0.18-1.19s-0.29-0.67-0.52-0.93s-0.51-0.47-0.85-0.61
					S73,61.57,72.57,61.57z"/>
				<path class="st1" d="M85.41,62.12c-0.08,0.15-0.21,0.23-0.39,0.23c-0.1,0-0.22-0.04-0.36-0.12s-0.3-0.16-0.49-0.26
					c-0.19-0.09-0.42-0.18-0.69-0.26c-0.27-0.08-0.58-0.12-0.95-0.12c-0.31,0-0.6,0.04-0.85,0.12c-0.25,0.08-0.47,0.19-0.65,0.33
					c-0.18,0.14-0.31,0.3-0.41,0.49c-0.09,0.19-0.14,0.39-0.14,0.6c0,0.27,0.08,0.5,0.24,0.68c0.16,0.18,0.37,0.34,0.62,0.47
					c0.26,0.13,0.55,0.25,0.88,0.35c0.33,0.1,0.67,0.21,1.01,0.33c0.35,0.12,0.68,0.24,1.01,0.38s0.62,0.32,0.88,0.53
					c0.26,0.21,0.47,0.47,0.62,0.77c0.16,0.3,0.24,0.67,0.24,1.1c0,0.49-0.09,0.94-0.26,1.36c-0.17,0.42-0.43,0.78-0.78,1.08
					c-0.34,0.3-0.76,0.54-1.26,0.72s-1.07,0.26-1.72,0.26c-0.74,0-1.41-0.12-2.02-0.36s-1.11-0.55-1.53-0.93l0.44-0.71
					c0.06-0.09,0.12-0.16,0.2-0.21c0.08-0.05,0.18-0.07,0.3-0.07s0.26,0.05,0.4,0.15s0.31,0.21,0.51,0.33
					c0.2,0.12,0.44,0.23,0.72,0.33s0.64,0.15,1.07,0.15c0.36,0,0.68-0.05,0.96-0.14c0.27-0.09,0.5-0.22,0.68-0.38
					c0.18-0.16,0.32-0.35,0.4-0.56c0.09-0.21,0.13-0.43,0.13-0.67c0-0.29-0.08-0.54-0.24-0.73c-0.16-0.19-0.37-0.36-0.62-0.49
					c-0.26-0.14-0.55-0.26-0.89-0.36c-0.34-0.1-0.67-0.21-1.02-0.32s-0.69-0.24-1.02-0.38s-0.63-0.32-0.89-0.54s-0.47-0.48-0.62-0.8
					c-0.16-0.32-0.24-0.71-0.24-1.16c0-0.41,0.08-0.8,0.25-1.17s0.41-0.7,0.73-0.99c0.32-0.28,0.72-0.51,1.19-0.68s1-0.25,1.61-0.25
					c0.7,0,1.33,0.11,1.88,0.33c0.56,0.22,1.04,0.52,1.44,0.91L85.41,62.12z"/>
				<path class="st1" d="M91.66,71.17c-0.84,0-1.49-0.23-1.94-0.7c-0.45-0.47-0.68-1.14-0.68-2.03v-6.51h-1.28
					c-0.11,0-0.21-0.03-0.28-0.1c-0.08-0.07-0.12-0.17-0.12-0.31v-0.75l1.74-0.22l0.43-3.29c0.01-0.1,0.06-0.19,0.14-0.26
					s0.17-0.1,0.29-0.1h0.95v3.66h3.04v1.35h-3.04v6.38c0,0.45,0.11,0.78,0.33,1s0.5,0.33,0.84,0.33c0.2,0,0.37-0.03,0.51-0.08
					c0.14-0.05,0.27-0.11,0.37-0.17c0.1-0.06,0.19-0.12,0.27-0.17c0.07-0.05,0.14-0.08,0.19-0.08c0.1,0,0.19,0.06,0.26,0.18
					l0.55,0.89c-0.32,0.3-0.71,0.54-1.17,0.71C92.61,71.08,92.14,71.17,91.66,71.17z"/>
				<path class="st1" d="M98.77,57.02c0,0.18-0.04,0.35-0.11,0.51s-0.17,0.3-0.29,0.42s-0.26,0.22-0.43,0.29
					c-0.16,0.07-0.33,0.11-0.51,0.11s-0.35-0.04-0.51-0.11s-0.3-0.17-0.42-0.29c-0.12-0.12-0.22-0.26-0.29-0.42s-0.1-0.33-0.1-0.51
					c0-0.18,0.03-0.36,0.1-0.52s0.17-0.31,0.29-0.43s0.26-0.22,0.42-0.29c0.16-0.07,0.33-0.1,0.51-0.1s0.35,0.04,0.51,0.1
					c0.16,0.07,0.3,0.17,0.43,0.29c0.12,0.12,0.22,0.27,0.29,0.43C98.73,56.67,98.77,56.84,98.77,57.02z M98.35,60.36V71h-1.87
					V60.36H98.35z"/>
				<path class="st1" d="M105.95,60.2c0.78,0,1.48,0.13,2.11,0.39s1.16,0.63,1.6,1.1c0.44,0.48,0.77,1.05,1.01,1.73
					c0.23,0.68,0.35,1.43,0.35,2.26c0,0.84-0.12,1.6-0.35,2.27c-0.23,0.67-0.57,1.25-1.01,1.72c-0.44,0.48-0.97,0.84-1.6,1.1
					s-1.33,0.38-2.11,0.38s-1.48-0.13-2.1-0.38c-0.63-0.25-1.16-0.62-1.6-1.1c-0.44-0.48-0.78-1.05-1.02-1.72
					c-0.24-0.67-0.36-1.43-0.36-2.27c0-0.83,0.12-1.59,0.36-2.26c0.24-0.68,0.58-1.25,1.02-1.73c0.44-0.48,0.97-0.84,1.6-1.1
					C104.47,60.33,105.17,60.2,105.95,60.2z M105.95,69.69c1.05,0,1.83-0.35,2.35-1.06c0.52-0.7,0.78-1.68,0.78-2.95
					c0-1.27-0.26-2.25-0.78-2.96s-1.3-1.06-2.35-1.06c-0.53,0-0.99,0.09-1.39,0.27c-0.39,0.18-0.72,0.44-0.98,0.79
					c-0.26,0.34-0.46,0.77-0.59,1.27s-0.19,1.07-0.19,1.7c0,0.63,0.06,1.19,0.19,1.69c0.13,0.5,0.33,0.92,0.59,1.25
					c0.26,0.34,0.59,0.6,0.98,0.78C104.96,69.6,105.42,69.69,105.95,69.69z"/>
				<path class="st1" d="M113.32,71V60.36h1.11c0.27,0,0.43,0.13,0.5,0.39l0.15,1.16c0.46-0.51,0.98-0.92,1.55-1.24
					c0.57-0.32,1.23-0.47,1.98-0.47c0.58,0,1.09,0.1,1.54,0.29c0.44,0.19,0.82,0.47,1.11,0.82c0.3,0.35,0.52,0.78,0.68,1.28
					c0.15,0.5,0.23,1.05,0.23,1.65V71h-1.86v-6.77c0-0.8-0.18-1.43-0.55-1.87s-0.93-0.67-1.69-0.67c-0.55,0-1.07,0.13-1.55,0.4
					s-0.92,0.63-1.33,1.08V71H113.32z"/>
				<path class="st1" d="M124.45,69.71c0-0.16,0.03-0.31,0.09-0.46c0.06-0.15,0.14-0.27,0.25-0.38s0.24-0.19,0.39-0.26
					c0.15-0.06,0.32-0.09,0.5-0.09c0.21,0,0.4,0.04,0.56,0.12c0.16,0.08,0.3,0.18,0.41,0.32s0.19,0.29,0.25,0.47
					s0.08,0.37,0.08,0.58c0,0.32-0.05,0.64-0.14,0.98c-0.09,0.34-0.22,0.67-0.39,1.01c-0.17,0.33-0.38,0.66-0.62,0.97
					c-0.25,0.32-0.53,0.61-0.85,0.87l-0.32-0.3c-0.09-0.08-0.14-0.18-0.14-0.29c0-0.09,0.05-0.19,0.15-0.28
					c0.07-0.08,0.16-0.18,0.27-0.31c0.11-0.13,0.22-0.28,0.33-0.45s0.22-0.35,0.31-0.56c0.09-0.2,0.16-0.42,0.2-0.65h-0.14
					c-0.18,0-0.35-0.03-0.49-0.09c-0.15-0.06-0.27-0.15-0.38-0.27s-0.19-0.25-0.25-0.41C124.48,70.07,124.45,69.9,124.45,69.71z"/>
				<path class="st1" d="M135.12,60.36v6.78c0,0.8,0.19,1.43,0.56,1.87c0.37,0.44,0.93,0.66,1.68,0.66c0.55,0,1.06-0.13,1.54-0.39
					c0.48-0.26,0.93-0.62,1.33-1.08v-7.84h1.87V71h-1.11c-0.27,0-0.43-0.13-0.5-0.39l-0.15-1.14c-0.46,0.51-0.98,0.92-1.55,1.23
					c-0.57,0.31-1.23,0.47-1.97,0.47c-0.58,0-1.09-0.1-1.54-0.29s-0.82-0.46-1.12-0.81c-0.3-0.35-0.53-0.77-0.68-1.27
					s-0.23-1.05-0.23-1.65v-6.78h1.87V60.36z"/>
				<path class="st1" d="M145.18,71V60.36h1.11c0.27,0,0.43,0.13,0.5,0.39l0.15,1.16c0.46-0.51,0.98-0.92,1.55-1.24
					s1.23-0.47,1.98-0.47c0.58,0,1.09,0.1,1.54,0.29c0.44,0.19,0.82,0.47,1.11,0.82c0.3,0.35,0.52,0.78,0.68,1.28
					c0.15,0.5,0.23,1.05,0.23,1.65V71h-1.87v-6.77c0-0.8-0.18-1.43-0.55-1.87c-0.37-0.44-0.93-0.67-1.69-0.67
					c-0.55,0-1.07,0.13-1.55,0.4s-0.92,0.63-1.33,1.08V71H145.18z"/>
				<path class="st1" d="M161.07,60.2c0.64,0,1.22,0.11,1.76,0.32s1,0.52,1.4,0.92c0.39,0.4,0.7,0.9,0.92,1.49s0.33,1.27,0.33,2.02
					c0,0.29-0.03,0.49-0.09,0.59s-0.18,0.15-0.36,0.15h-7.08c0.01,0.67,0.11,1.26,0.27,1.75c0.16,0.49,0.4,0.91,0.69,1.24
					c0.29,0.33,0.64,0.58,1.05,0.75c0.41,0.16,0.86,0.25,1.36,0.25c0.47,0,0.87-0.05,1.21-0.16s0.63-0.23,0.88-0.35
					c0.25-0.13,0.45-0.24,0.62-0.35c0.16-0.11,0.31-0.16,0.42-0.16c0.15,0,0.27,0.06,0.36,0.18l0.53,0.68
					c-0.23,0.28-0.51,0.52-0.83,0.73s-0.67,0.38-1.03,0.51c-0.37,0.13-0.75,0.23-1.14,0.3s-0.78,0.1-1.17,0.1
					c-0.74,0-1.41-0.12-2.03-0.37s-1.16-0.61-1.61-1.09c-0.45-0.48-0.8-1.07-1.06-1.78c-0.25-0.71-0.38-1.52-0.38-2.44
					c0-0.74,0.11-1.44,0.34-2.08c0.23-0.64,0.55-1.2,0.98-1.67s0.95-0.84,1.56-1.11S160.3,60.2,161.07,60.2z M161.11,61.57
					c-0.9,0-1.61,0.26-2.13,0.78s-0.84,1.24-0.97,2.17h5.79c0-0.43-0.06-0.83-0.18-1.19s-0.29-0.67-0.52-0.93s-0.51-0.47-0.84-0.61
					C161.91,61.64,161.53,61.57,161.11,61.57z"/>
			</g>
			<g class="st0">
				<path class="st1" d="M3,107V96.36h1.07c0.2,0,0.34,0.04,0.42,0.12s0.13,0.21,0.16,0.4l0.13,1.66c0.36-0.74,0.81-1.32,1.35-1.74
					s1.16-0.62,1.88-0.62c0.29,0,0.56,0.03,0.8,0.1c0.24,0.07,0.46,0.15,0.66,0.27l-0.24,1.4c-0.05,0.17-0.16,0.26-0.33,0.26
					c-0.1,0-0.25-0.03-0.45-0.1s-0.49-0.1-0.85-0.1c-0.65,0-1.2,0.19-1.63,0.57c-0.43,0.38-0.8,0.93-1.1,1.65V107H3z"/>
				<path class="st1" d="M15.68,96.2c0.64,0,1.22,0.11,1.76,0.32c0.54,0.21,1,0.52,1.4,0.92c0.39,0.4,0.7,0.9,0.92,1.49
					s0.33,1.27,0.33,2.02c0,0.29-0.03,0.49-0.09,0.59s-0.18,0.15-0.36,0.15h-7.08c0.01,0.67,0.1,1.26,0.27,1.75s0.4,0.91,0.69,1.24
					c0.29,0.33,0.64,0.58,1.05,0.75c0.41,0.16,0.86,0.25,1.36,0.25c0.47,0,0.87-0.05,1.21-0.16s0.63-0.23,0.88-0.35
					c0.24-0.13,0.45-0.24,0.61-0.35s0.31-0.16,0.42-0.16c0.15,0,0.27,0.06,0.36,0.18l0.52,0.68c-0.23,0.28-0.51,0.52-0.83,0.73
					c-0.32,0.21-0.67,0.38-1.03,0.51c-0.37,0.13-0.75,0.23-1.14,0.3c-0.39,0.07-0.78,0.1-1.17,0.1c-0.74,0-1.41-0.12-2.03-0.37
					s-1.16-0.61-1.61-1.09c-0.45-0.48-0.8-1.07-1.06-1.78c-0.25-0.71-0.38-1.52-0.38-2.44c0-0.74,0.11-1.44,0.34-2.08
					c0.23-0.64,0.55-1.2,0.98-1.67s0.95-0.84,1.56-1.11C14.21,96.33,14.91,96.2,15.68,96.2z M15.72,97.57
					c-0.9,0-1.61,0.26-2.13,0.78s-0.84,1.24-0.97,2.17h5.79c0-0.43-0.06-0.83-0.18-1.19s-0.29-0.67-0.52-0.93s-0.51-0.47-0.85-0.61
					S16.15,97.57,15.72,97.57z"/>
				<path class="st1" d="M22.47,107V96.36h1.11c0.27,0,0.43,0.13,0.5,0.39l0.14,1.09c0.39-0.48,0.83-0.88,1.32-1.19
					c0.49-0.31,1.05-0.46,1.7-0.46c0.72,0,1.3,0.2,1.75,0.6c0.44,0.4,0.76,0.94,0.96,1.62c0.15-0.38,0.34-0.72,0.58-1
					s0.51-0.51,0.81-0.69s0.62-0.32,0.96-0.4c0.34-0.08,0.68-0.13,1.03-0.13c0.56,0,1.06,0.09,1.5,0.27
					c0.44,0.18,0.81,0.44,1.11,0.78s0.54,0.77,0.7,1.27s0.24,1.07,0.24,1.72V107h-1.87v-6.77c0-0.83-0.18-1.46-0.55-1.9
					c-0.36-0.43-0.89-0.65-1.59-0.65c-0.31,0-0.6,0.05-0.88,0.16c-0.28,0.11-0.52,0.27-0.73,0.48c-0.21,0.21-0.38,0.47-0.5,0.79
					s-0.18,0.69-0.18,1.11V107h-1.87v-6.77c0-0.85-0.17-1.49-0.51-1.91c-0.34-0.42-0.84-0.63-1.5-0.63c-0.46,0-0.89,0.12-1.29,0.37
					s-0.76,0.59-1.09,1.01V107H22.47z"/>
				<path class="st1" d="M47.52,107h-0.83c-0.18,0-0.33-0.03-0.44-0.08c-0.11-0.06-0.19-0.17-0.22-0.36l-0.21-0.99
					c-0.28,0.25-0.55,0.48-0.82,0.68s-0.55,0.37-0.84,0.5c-0.29,0.14-0.61,0.24-0.94,0.31c-0.33,0.07-0.7,0.1-1.11,0.1
					s-0.8-0.06-1.16-0.17c-0.36-0.12-0.67-0.29-0.94-0.52s-0.48-0.53-0.64-0.88s-0.24-0.77-0.24-1.26c0-0.42,0.12-0.83,0.35-1.22
					s0.6-0.74,1.12-1.04s1.19-0.55,2.02-0.74c0.83-0.19,1.85-0.29,3.06-0.29v-0.83c0-0.83-0.18-1.46-0.53-1.89s-0.88-0.64-1.57-0.64
					c-0.46,0-0.84,0.06-1.15,0.17c-0.31,0.12-0.58,0.25-0.81,0.39s-0.42,0.27-0.59,0.39s-0.33,0.17-0.49,0.17
					c-0.13,0-0.24-0.03-0.33-0.1s-0.17-0.15-0.23-0.25l-0.34-0.6c0.59-0.57,1.22-0.99,1.9-1.27s1.43-0.42,2.26-0.42
					c0.59,0,1.12,0.1,1.59,0.29s0.85,0.47,1.17,0.82c0.31,0.35,0.55,0.77,0.71,1.27s0.24,1.04,0.24,1.64V107H47.52z M42.67,105.86
					c0.33,0,0.63-0.03,0.9-0.1s0.53-0.16,0.77-0.28c0.24-0.12,0.47-0.27,0.69-0.45c0.22-0.17,0.44-0.38,0.65-0.6v-2.19
					c-0.86,0-1.59,0.05-2.19,0.16s-1.09,0.25-1.47,0.43s-0.65,0.38-0.82,0.62c-0.17,0.24-0.26,0.51-0.26,0.8
					c0,0.28,0.05,0.52,0.14,0.73c0.09,0.21,0.21,0.37,0.37,0.5c0.15,0.13,0.34,0.23,0.55,0.29S42.43,105.86,42.67,105.86z"/>
				<path class="st1" d="M50.36,107V96.36h1.07c0.2,0,0.34,0.04,0.42,0.12c0.08,0.08,0.13,0.21,0.16,0.4l0.13,1.66
					c0.36-0.74,0.81-1.32,1.35-1.74c0.54-0.42,1.16-0.62,1.88-0.62c0.29,0,0.56,0.03,0.8,0.1s0.46,0.16,0.66,0.28l-0.24,1.4
					c-0.05,0.17-0.16,0.26-0.33,0.26c-0.1,0-0.25-0.03-0.45-0.1s-0.49-0.1-0.85-0.1c-0.65,0-1.2,0.19-1.63,0.57s-0.8,0.93-1.1,1.65
					V107H50.36z"/>
				<path class="st1" d="M67.42,96.36v14.24h-1.87v-5.18c-0.45,0.52-0.96,0.93-1.53,1.25c-0.57,0.31-1.22,0.47-1.96,0.47
					c-0.61,0-1.16-0.12-1.66-0.35c-0.5-0.23-0.92-0.58-1.27-1.03c-0.35-0.46-0.62-1.02-0.81-1.7c-0.19-0.68-0.28-1.46-0.28-2.34
					c0-0.78,0.1-1.51,0.31-2.19s0.51-1.26,0.91-1.76s0.88-0.89,1.44-1.17c0.57-0.28,1.21-0.42,1.93-0.42c0.69,0,1.27,0.12,1.75,0.37
					c0.48,0.25,0.91,0.59,1.29,1.04l0.13-0.83c0.07-0.26,0.24-0.39,0.5-0.39h1.12V96.36z M62.68,105.63c0.61,0,1.14-0.14,1.6-0.42
					s0.88-0.67,1.27-1.19v-5.14c-0.34-0.45-0.71-0.77-1.12-0.96c-0.41-0.19-0.87-0.29-1.37-0.29c-0.99,0-1.76,0.35-2.29,1.06
					c-0.53,0.71-0.8,1.71-0.8,3.02c0,0.69,0.06,1.29,0.18,1.78s0.29,0.9,0.52,1.22s0.51,0.55,0.85,0.7
					C61.87,105.56,62.25,105.63,62.68,105.63z"/>
				<path class="st1" d="M72.18,96.36v6.78c0,0.8,0.19,1.43,0.56,1.87c0.37,0.44,0.93,0.66,1.68,0.66c0.55,0,1.06-0.13,1.54-0.39
					s0.93-0.62,1.33-1.08v-7.84h1.87V107h-1.11c-0.27,0-0.43-0.13-0.5-0.39l-0.15-1.14c-0.46,0.51-0.98,0.92-1.55,1.23
					c-0.57,0.31-1.23,0.47-1.97,0.47c-0.58,0-1.09-0.1-1.54-0.29c-0.44-0.19-0.82-0.46-1.12-0.81s-0.53-0.77-0.68-1.27
					s-0.23-1.05-0.23-1.65v-6.78h1.87V96.36z"/>
				<path class="st1" d="M86.45,96.2c0.64,0,1.22,0.11,1.76,0.32s1,0.52,1.4,0.92c0.39,0.4,0.7,0.9,0.92,1.49s0.33,1.27,0.33,2.02
					c0,0.29-0.03,0.49-0.09,0.59s-0.18,0.15-0.36,0.15h-7.08c0.01,0.67,0.1,1.26,0.27,1.75s0.4,0.91,0.69,1.24
					c0.29,0.33,0.64,0.58,1.05,0.75c0.41,0.16,0.86,0.25,1.36,0.25c0.47,0,0.87-0.05,1.21-0.16s0.63-0.23,0.88-0.35
					c0.24-0.13,0.45-0.24,0.61-0.35s0.31-0.16,0.42-0.16c0.15,0,0.27,0.06,0.36,0.18l0.52,0.68c-0.23,0.28-0.51,0.52-0.83,0.73
					c-0.32,0.21-0.67,0.38-1.03,0.51c-0.37,0.13-0.75,0.23-1.14,0.3s-0.78,0.1-1.17,0.1c-0.74,0-1.41-0.12-2.03-0.37
					c-0.62-0.25-1.16-0.61-1.61-1.09c-0.45-0.48-0.8-1.07-1.06-1.78c-0.25-0.71-0.38-1.52-0.38-2.44c0-0.74,0.11-1.44,0.34-2.08
					c0.23-0.64,0.55-1.2,0.98-1.67s0.95-0.84,1.56-1.11C84.98,96.33,85.68,96.2,86.45,96.2z M86.49,97.57
					c-0.9,0-1.61,0.26-2.13,0.78s-0.84,1.24-0.97,2.17h5.79c0-0.43-0.06-0.83-0.18-1.19s-0.3-0.67-0.53-0.93s-0.51-0.47-0.85-0.61
					S86.91,97.57,86.49,97.57z"/>
				<path class="st1" d="M92.69,105.71c0-0.16,0.03-0.31,0.09-0.46s0.14-0.27,0.25-0.38s0.24-0.19,0.39-0.26
					c0.15-0.06,0.32-0.09,0.5-0.09c0.21,0,0.4,0.04,0.56,0.12s0.3,0.18,0.41,0.32s0.19,0.29,0.25,0.47s0.08,0.37,0.08,0.58
					c0,0.32-0.05,0.64-0.14,0.98c-0.09,0.34-0.22,0.67-0.39,1.01c-0.17,0.33-0.38,0.66-0.62,0.97c-0.25,0.32-0.53,0.61-0.85,0.87
					l-0.32-0.3c-0.09-0.08-0.14-0.18-0.14-0.29c0-0.09,0.05-0.19,0.15-0.28c0.07-0.08,0.16-0.18,0.27-0.31
					c0.11-0.13,0.22-0.28,0.33-0.45s0.22-0.35,0.31-0.56c0.09-0.2,0.16-0.42,0.2-0.65h-0.14c-0.18,0-0.35-0.03-0.49-0.09
					c-0.15-0.06-0.27-0.15-0.38-0.27s-0.19-0.25-0.25-0.41C92.72,106.07,92.69,105.9,92.69,105.71z"/>
				<path class="st1" d="M103.36,96.36v6.78c0,0.8,0.19,1.43,0.56,1.87c0.37,0.44,0.93,0.66,1.68,0.66c0.55,0,1.06-0.13,1.54-0.39
					s0.93-0.62,1.33-1.08v-7.84h1.87V107h-1.11c-0.27,0-0.43-0.13-0.5-0.39l-0.15-1.14c-0.46,0.51-0.98,0.92-1.55,1.23
					c-0.57,0.31-1.23,0.47-1.97,0.47c-0.58,0-1.09-0.1-1.54-0.29c-0.44-0.19-0.82-0.46-1.12-0.81s-0.53-0.77-0.68-1.27
					s-0.23-1.05-0.23-1.65v-6.78h1.87V96.36z"/>
				<path class="st1" d="M113.42,107V96.36h1.11c0.27,0,0.43,0.13,0.5,0.39l0.15,1.16c0.46-0.51,0.98-0.92,1.55-1.24
					s1.23-0.47,1.98-0.47c0.58,0,1.09,0.1,1.54,0.29c0.44,0.19,0.82,0.47,1.11,0.82c0.3,0.35,0.52,0.78,0.68,1.28
					c0.15,0.5,0.23,1.05,0.23,1.65V107h-1.87v-6.77c0-0.8-0.18-1.43-0.55-1.87s-0.93-0.67-1.69-0.67c-0.55,0-1.07,0.13-1.55,0.4
					c-0.48,0.27-0.92,0.63-1.33,1.08V107H113.42z"/>
				<path class="st1" d="M129.31,96.2c0.64,0,1.22,0.11,1.76,0.32s1,0.52,1.4,0.92c0.39,0.4,0.7,0.9,0.92,1.49s0.33,1.27,0.33,2.02
					c0,0.29-0.03,0.49-0.09,0.59s-0.18,0.15-0.36,0.15h-7.08c0.01,0.67,0.1,1.26,0.27,1.75s0.4,0.91,0.69,1.24
					c0.29,0.33,0.64,0.58,1.05,0.75c0.41,0.16,0.86,0.25,1.36,0.25c0.47,0,0.87-0.05,1.21-0.16c0.34-0.11,0.63-0.23,0.88-0.35
					s0.45-0.24,0.61-0.35s0.31-0.16,0.42-0.16c0.15,0,0.27,0.06,0.36,0.18l0.52,0.68c-0.23,0.28-0.51,0.52-0.83,0.73
					c-0.32,0.21-0.67,0.38-1.03,0.51s-0.75,0.23-1.14,0.3s-0.78,0.1-1.17,0.1c-0.74,0-1.41-0.12-2.03-0.37
					c-0.62-0.25-1.16-0.61-1.61-1.09c-0.45-0.48-0.8-1.07-1.06-1.78c-0.25-0.71-0.38-1.52-0.38-2.44c0-0.74,0.11-1.44,0.34-2.08
					c0.23-0.64,0.55-1.2,0.98-1.67s0.95-0.84,1.56-1.11C127.84,96.33,128.54,96.2,129.31,96.2z M129.35,97.57
					c-0.9,0-1.61,0.26-2.13,0.78s-0.84,1.24-0.97,2.17h5.79c0-0.43-0.06-0.83-0.18-1.19s-0.29-0.67-0.52-0.93
					c-0.23-0.26-0.51-0.47-0.85-0.61S129.77,97.57,129.35,97.57z"/>
				<path class="st1" d="M146.24,98.12c-0.08,0.15-0.21,0.23-0.39,0.23c-0.1,0-0.22-0.04-0.36-0.12s-0.3-0.16-0.49-0.26
					c-0.19-0.09-0.42-0.18-0.69-0.26s-0.58-0.12-0.95-0.12c-0.32,0-0.6,0.04-0.85,0.12s-0.47,0.19-0.64,0.33
					c-0.18,0.14-0.32,0.3-0.41,0.49c-0.09,0.19-0.14,0.39-0.14,0.6c0,0.27,0.08,0.5,0.24,0.68s0.37,0.34,0.62,0.47
					c0.26,0.13,0.55,0.25,0.88,0.35s0.67,0.21,1.01,0.33c0.35,0.12,0.68,0.24,1.01,0.38s0.62,0.32,0.88,0.53
					c0.26,0.21,0.47,0.47,0.62,0.77c0.16,0.3,0.24,0.67,0.24,1.1c0,0.49-0.09,0.94-0.26,1.36s-0.43,0.78-0.78,1.08
					c-0.34,0.3-0.76,0.54-1.26,0.72s-1.07,0.26-1.72,0.26c-0.74,0-1.41-0.12-2.02-0.36c-0.6-0.24-1.11-0.55-1.53-0.93l0.44-0.71
					c0.06-0.09,0.12-0.16,0.2-0.21c0.08-0.05,0.18-0.07,0.3-0.07c0.12,0,0.26,0.05,0.4,0.15s0.31,0.21,0.51,0.33
					s0.44,0.23,0.72,0.33s0.64,0.15,1.07,0.15c0.36,0,0.68-0.05,0.96-0.14c0.27-0.09,0.5-0.22,0.68-0.38s0.32-0.35,0.4-0.56
					s0.13-0.43,0.13-0.67c0-0.29-0.08-0.54-0.24-0.73s-0.37-0.36-0.62-0.49c-0.26-0.14-0.55-0.26-0.89-0.36s-0.67-0.21-1.02-0.32
					s-0.69-0.24-1.02-0.38s-0.63-0.32-0.89-0.54s-0.47-0.48-0.62-0.8c-0.16-0.32-0.24-0.71-0.24-1.16c0-0.41,0.08-0.8,0.25-1.17
					c0.17-0.37,0.41-0.7,0.73-0.99c0.32-0.28,0.72-0.51,1.19-0.68s1-0.25,1.61-0.25c0.7,0,1.33,0.11,1.88,0.33
					c0.56,0.22,1.04,0.52,1.44,0.91L146.24,98.12z"/>
				<path class="st1" d="M150.88,96.36v6.78c0,0.8,0.19,1.43,0.56,1.87s0.93,0.66,1.68,0.66c0.54,0,1.06-0.13,1.54-0.39
					s0.93-0.62,1.33-1.08v-7.84h1.87V107h-1.11c-0.27,0-0.43-0.13-0.5-0.39l-0.15-1.14c-0.46,0.51-0.98,0.92-1.55,1.23
					c-0.57,0.31-1.23,0.47-1.97,0.47c-0.58,0-1.09-0.1-1.54-0.29s-0.82-0.46-1.12-0.81c-0.3-0.35-0.53-0.77-0.68-1.27
					s-0.23-1.05-0.23-1.65v-6.78h1.87V96.36z"/>
				<path class="st1" d="M164.52,96.18c0.46,0,0.89,0.05,1.3,0.15c0.4,0.1,0.77,0.25,1.1,0.45h2.89v0.69c0,0.23-0.15,0.38-0.44,0.44
					l-1.21,0.17c0.24,0.46,0.36,0.96,0.36,1.52c0,0.52-0.1,0.99-0.3,1.41c-0.2,0.42-0.48,0.79-0.83,1.09
					c-0.35,0.3-0.77,0.53-1.26,0.69c-0.49,0.16-1.02,0.24-1.6,0.24c-0.5,0-0.97-0.06-1.41-0.18c-0.22,0.14-0.39,0.3-0.51,0.47
					s-0.17,0.33-0.17,0.49c0,0.26,0.1,0.46,0.3,0.59s0.47,0.23,0.81,0.29s0.72,0.09,1.14,0.09c0.43,0,0.86,0,1.31,0
					s0.88,0.04,1.31,0.12s0.81,0.21,1.14,0.38c0.34,0.18,0.61,0.42,0.81,0.73c0.2,0.31,0.3,0.72,0.3,1.21
					c0,0.46-0.11,0.91-0.34,1.34s-0.55,0.82-0.98,1.15c-0.43,0.34-0.95,0.61-1.56,0.81c-0.62,0.2-1.31,0.3-2.09,0.3
					s-1.46-0.08-2.04-0.23s-1.07-0.36-1.45-0.62c-0.38-0.26-0.67-0.56-0.87-0.9s-0.29-0.7-0.29-1.07c0-0.53,0.17-0.97,0.5-1.34
					c0.33-0.37,0.79-0.66,1.37-0.88c-0.3-0.14-0.54-0.33-0.72-0.56c-0.18-0.23-0.27-0.55-0.27-0.94c0-0.15,0.03-0.31,0.08-0.48
					c0.06-0.16,0.14-0.33,0.26-0.49c0.12-0.16,0.26-0.31,0.42-0.46s0.36-0.28,0.59-0.39c-0.53-0.29-0.94-0.68-1.23-1.17
					c-0.3-0.49-0.45-1.06-0.45-1.71c0-0.52,0.1-0.99,0.3-1.41c0.2-0.42,0.48-0.78,0.83-1.08s0.78-0.53,1.28-0.69
					C163.39,96.27,163.93,96.18,164.52,96.18z M167.84,107.54c0-0.27-0.07-0.49-0.22-0.65s-0.35-0.29-0.6-0.38s-0.54-0.15-0.87-0.2
					c-0.33-0.04-0.68-0.06-1.04-0.06s-0.74,0-1.11,0s-0.74-0.05-1.08-0.14c-0.4,0.19-0.72,0.42-0.97,0.69
					c-0.25,0.27-0.37,0.6-0.37,0.98c0,0.24,0.06,0.46,0.18,0.67s0.31,0.39,0.56,0.54s0.57,0.27,0.95,0.36s0.83,0.13,1.35,0.13
					c0.5,0,0.96-0.05,1.36-0.14s0.74-0.22,1.01-0.4c0.28-0.17,0.49-0.38,0.64-0.61C167.77,108.09,167.84,107.83,167.84,107.54z
					 M164.52,101.8c0.38,0,0.71-0.05,1-0.16c0.29-0.1,0.53-0.25,0.73-0.44s0.34-0.42,0.44-0.68s0.15-0.55,0.15-0.87
					c0-0.65-0.2-1.17-0.59-1.55c-0.39-0.38-0.97-0.58-1.73-0.58c-0.75,0-1.32,0.19-1.72,0.58c-0.4,0.38-0.59,0.9-0.59,1.55
					c0,0.32,0.05,0.6,0.15,0.87c0.1,0.26,0.25,0.49,0.45,0.68s0.44,0.34,0.72,0.44C163.82,101.75,164.15,101.8,164.52,101.8z"/>
				<path class="st1" d="M175.25,96.18c0.46,0,0.89,0.05,1.3,0.15c0.4,0.1,0.77,0.25,1.1,0.45h2.89v0.69c0,0.23-0.15,0.38-0.44,0.44
					l-1.21,0.17c0.24,0.46,0.36,0.96,0.36,1.52c0,0.52-0.1,0.99-0.3,1.41s-0.48,0.79-0.83,1.09c-0.35,0.3-0.77,0.53-1.26,0.69
					s-1.02,0.24-1.6,0.24c-0.5,0-0.97-0.06-1.41-0.18c-0.22,0.14-0.39,0.3-0.51,0.47s-0.17,0.33-0.17,0.49c0,0.26,0.1,0.46,0.3,0.59
					s0.47,0.23,0.81,0.29s0.72,0.09,1.14,0.09c0.43,0,0.86,0,1.31,0s0.88,0.04,1.31,0.12s0.81,0.21,1.14,0.38
					c0.34,0.18,0.61,0.42,0.81,0.73c0.2,0.31,0.3,0.72,0.3,1.21c0,0.46-0.11,0.91-0.34,1.34c-0.23,0.43-0.55,0.82-0.98,1.15
					c-0.43,0.34-0.95,0.61-1.56,0.81c-0.62,0.2-1.31,0.3-2.09,0.3s-1.46-0.08-2.04-0.23c-0.58-0.15-1.07-0.36-1.46-0.62
					c-0.38-0.26-0.67-0.56-0.87-0.9c-0.19-0.34-0.29-0.7-0.29-1.07c0-0.53,0.17-0.97,0.5-1.34c0.33-0.37,0.79-0.66,1.37-0.88
					c-0.3-0.14-0.54-0.33-0.72-0.56c-0.18-0.23-0.27-0.55-0.27-0.94c0-0.15,0.03-0.31,0.08-0.48c0.06-0.16,0.14-0.33,0.26-0.49
					c0.12-0.16,0.26-0.31,0.43-0.46s0.36-0.28,0.59-0.39c-0.53-0.29-0.94-0.68-1.23-1.17c-0.3-0.49-0.45-1.06-0.45-1.71
					c0-0.52,0.1-0.99,0.3-1.41c0.2-0.42,0.48-0.78,0.83-1.08c0.36-0.3,0.78-0.53,1.28-0.69S174.67,96.18,175.25,96.18z
					 M178.57,107.54c0-0.27-0.07-0.49-0.22-0.65s-0.35-0.29-0.6-0.38s-0.54-0.15-0.87-0.2s-0.68-0.06-1.04-0.06s-0.73,0-1.11,0
					s-0.74-0.05-1.08-0.14c-0.4,0.19-0.72,0.42-0.97,0.69c-0.25,0.27-0.37,0.6-0.37,0.98c0,0.24,0.06,0.46,0.18,0.67
					s0.31,0.39,0.56,0.54s0.57,0.27,0.95,0.36c0.38,0.09,0.83,0.13,1.35,0.13c0.5,0,0.96-0.05,1.35-0.14s0.74-0.22,1.01-0.4
					c0.28-0.17,0.49-0.38,0.63-0.61S178.57,107.83,178.57,107.54z M175.25,101.8c0.38,0,0.71-0.05,1-0.16
					c0.29-0.1,0.53-0.25,0.73-0.44s0.34-0.42,0.44-0.68s0.15-0.55,0.15-0.87c0-0.65-0.2-1.17-0.59-1.55s-0.97-0.58-1.73-0.58
					c-0.75,0-1.32,0.19-1.72,0.58s-0.59,0.9-0.59,1.55c0,0.32,0.05,0.6,0.15,0.87c0.1,0.26,0.25,0.49,0.45,0.68s0.44,0.34,0.72,0.44
					C174.55,101.75,174.88,101.8,175.25,101.8z"/>
				<path class="st1" d="M186.61,96.2c0.64,0,1.22,0.11,1.76,0.32s1,0.52,1.4,0.92c0.39,0.4,0.7,0.9,0.92,1.49s0.33,1.27,0.33,2.02
					c0,0.29-0.03,0.49-0.09,0.59s-0.18,0.15-0.36,0.15h-7.08c0.01,0.67,0.11,1.26,0.27,1.75s0.4,0.91,0.69,1.24
					c0.29,0.33,0.64,0.58,1.05,0.75c0.41,0.16,0.86,0.25,1.37,0.25c0.47,0,0.87-0.05,1.21-0.16s0.63-0.23,0.88-0.35
					c0.24-0.13,0.45-0.24,0.61-0.35s0.31-0.16,0.42-0.16c0.15,0,0.27,0.06,0.36,0.18l0.53,0.68c-0.23,0.28-0.51,0.52-0.83,0.73
					c-0.32,0.21-0.67,0.38-1.03,0.51c-0.37,0.13-0.75,0.23-1.14,0.3s-0.78,0.1-1.17,0.1c-0.74,0-1.41-0.12-2.03-0.37
					s-1.15-0.61-1.61-1.09c-0.45-0.48-0.8-1.07-1.06-1.78c-0.25-0.71-0.38-1.52-0.38-2.44c0-0.74,0.11-1.44,0.34-2.08
					s0.55-1.2,0.98-1.67s0.95-0.84,1.56-1.11C185.15,96.33,185.84,96.2,186.61,96.2z M186.66,97.57c-0.9,0-1.61,0.26-2.13,0.78
					s-0.84,1.24-0.97,2.17h5.79c0-0.43-0.06-0.83-0.18-1.19s-0.29-0.67-0.53-0.93c-0.23-0.26-0.51-0.47-0.84-0.61
					S187.08,97.57,186.66,97.57z"/>
				<path class="st1" d="M199.5,98.12c-0.08,0.15-0.21,0.23-0.39,0.23c-0.11,0-0.22-0.04-0.36-0.12s-0.29-0.16-0.49-0.26
					c-0.19-0.09-0.42-0.18-0.69-0.26s-0.58-0.12-0.95-0.12c-0.31,0-0.6,0.04-0.85,0.12s-0.47,0.19-0.65,0.33s-0.31,0.3-0.41,0.49
					s-0.14,0.39-0.14,0.6c0,0.27,0.08,0.5,0.24,0.68s0.37,0.34,0.62,0.47c0.26,0.13,0.55,0.25,0.88,0.35s0.67,0.21,1.01,0.33
					c0.35,0.12,0.68,0.24,1.01,0.38s0.62,0.32,0.88,0.53s0.47,0.47,0.62,0.77s0.24,0.67,0.24,1.1c0,0.49-0.09,0.94-0.26,1.36
					s-0.43,0.78-0.78,1.08c-0.34,0.3-0.76,0.54-1.26,0.72s-1.07,0.26-1.72,0.26c-0.74,0-1.41-0.12-2.02-0.36
					c-0.6-0.24-1.11-0.55-1.53-0.93l0.44-0.71c0.06-0.09,0.12-0.16,0.2-0.21c0.08-0.05,0.18-0.07,0.3-0.07
					c0.13,0,0.26,0.05,0.4,0.15s0.31,0.21,0.51,0.33s0.44,0.23,0.72,0.33s0.64,0.15,1.07,0.15c0.36,0,0.68-0.05,0.96-0.14
					c0.27-0.09,0.5-0.22,0.68-0.38c0.18-0.16,0.32-0.35,0.4-0.56c0.09-0.21,0.13-0.43,0.13-0.67c0-0.29-0.08-0.54-0.24-0.73
					s-0.37-0.36-0.62-0.49c-0.26-0.14-0.55-0.26-0.89-0.36s-0.67-0.21-1.02-0.32s-0.69-0.24-1.02-0.38s-0.63-0.32-0.89-0.54
					s-0.47-0.48-0.62-0.8c-0.16-0.32-0.24-0.71-0.24-1.16c0-0.41,0.08-0.8,0.25-1.17c0.17-0.37,0.41-0.7,0.74-0.99
					c0.32-0.28,0.72-0.51,1.19-0.68s1-0.25,1.61-0.25c0.7,0,1.33,0.11,1.88,0.33s1.04,0.52,1.44,0.91L199.5,98.12z"/>
				<path class="st1" d="M205.74,107.17c-0.84,0-1.49-0.23-1.94-0.7c-0.45-0.47-0.68-1.14-0.68-2.03v-6.51h-1.28
					c-0.11,0-0.21-0.03-0.28-0.1c-0.08-0.07-0.12-0.17-0.12-0.31v-0.75l1.74-0.22l0.43-3.29c0.01-0.1,0.06-0.19,0.14-0.26
					s0.17-0.1,0.29-0.1h0.95v3.66h3.04v1.35h-3.04v6.38c0,0.45,0.11,0.78,0.33,1s0.5,0.33,0.84,0.33c0.2,0,0.37-0.03,0.51-0.08
					s0.27-0.11,0.37-0.17c0.11-0.06,0.2-0.12,0.27-0.17c0.07-0.05,0.14-0.08,0.2-0.08c0.1,0,0.19,0.06,0.26,0.18l0.55,0.89
					c-0.32,0.3-0.71,0.54-1.17,0.71C206.7,107.08,206.23,107.17,205.74,107.17z"/>
				<path class="st1" d="M212.85,93.02c0,0.18-0.04,0.35-0.11,0.51s-0.17,0.3-0.29,0.42c-0.12,0.12-0.26,0.22-0.43,0.29
					c-0.16,0.07-0.33,0.11-0.51,0.11s-0.35-0.04-0.51-0.11c-0.16-0.07-0.3-0.17-0.42-0.29s-0.22-0.26-0.29-0.42
					c-0.07-0.16-0.1-0.33-0.1-0.51s0.03-0.36,0.1-0.52s0.17-0.31,0.29-0.43s0.26-0.22,0.42-0.29s0.33-0.1,0.51-0.1
					s0.35,0.04,0.51,0.1c0.16,0.07,0.3,0.17,0.43,0.29c0.12,0.12,0.22,0.27,0.29,0.43S212.85,92.84,212.85,93.02z M212.43,96.36V107
					h-1.87V96.36H212.43z"/>
				<path class="st1" d="M220.03,96.2c0.78,0,1.48,0.13,2.11,0.39s1.16,0.63,1.6,1.1c0.44,0.48,0.77,1.05,1.01,1.73
					s0.35,1.43,0.35,2.26c0,0.84-0.12,1.6-0.35,2.27s-0.57,1.25-1.01,1.72c-0.44,0.48-0.97,0.84-1.6,1.1s-1.33,0.38-2.11,0.38
					s-1.48-0.13-2.11-0.38s-1.16-0.62-1.6-1.1c-0.44-0.48-0.78-1.05-1.02-1.72s-0.36-1.43-0.36-2.27c0-0.83,0.12-1.59,0.36-2.26
					s0.58-1.25,1.02-1.73s0.97-0.84,1.6-1.1S219.26,96.2,220.03,96.2z M220.03,105.69c1.05,0,1.83-0.35,2.35-1.06
					c0.52-0.7,0.78-1.68,0.78-2.95s-0.26-2.25-0.78-2.96s-1.3-1.06-2.35-1.06c-0.53,0-0.99,0.09-1.39,0.27
					c-0.39,0.18-0.72,0.44-0.98,0.79c-0.26,0.34-0.46,0.77-0.59,1.27c-0.13,0.5-0.2,1.07-0.2,1.7s0.06,1.19,0.2,1.69
					c0.13,0.5,0.32,0.92,0.59,1.25c0.26,0.34,0.59,0.6,0.98,0.78C219.04,105.6,219.5,105.69,220.03,105.69z"/>
				<path class="st1" d="M227.41,107V96.36h1.11c0.27,0,0.43,0.13,0.5,0.39l0.15,1.16c0.46-0.51,0.98-0.92,1.55-1.24
					s1.23-0.47,1.98-0.47c0.58,0,1.09,0.1,1.54,0.29c0.44,0.19,0.82,0.47,1.11,0.82c0.3,0.35,0.52,0.78,0.68,1.28
					c0.15,0.5,0.23,1.05,0.23,1.65V107h-1.87v-6.77c0-0.8-0.18-1.43-0.55-1.87c-0.37-0.44-0.93-0.67-1.69-0.67
					c-0.55,0-1.07,0.13-1.55,0.4c-0.48,0.27-0.92,0.63-1.33,1.08V107H227.41z"/>
			</g>
			<g class="st0">
				<path class="st1" d="M11.26,143c-0.27,0-0.43-0.13-0.5-0.39l-0.17-1.29c-0.46,0.55-0.98,1-1.56,1.33s-1.25,0.5-2.01,0.5
					c-0.61,0-1.16-0.12-1.66-0.35c-0.5-0.23-0.92-0.58-1.27-1.03c-0.35-0.46-0.62-1.02-0.81-1.7C3.09,139.39,3,138.61,3,137.73
					c0-0.78,0.1-1.51,0.31-2.19s0.51-1.26,0.91-1.76c0.4-0.5,0.88-0.89,1.44-1.17c0.57-0.28,1.21-0.42,1.93-0.42
					c0.65,0,1.21,0.11,1.67,0.33s0.88,0.53,1.24,0.93v-5.9h1.87V143H11.26z M7.64,141.63c0.61,0,1.14-0.14,1.6-0.42
					s0.88-0.67,1.27-1.19v-5.14c-0.34-0.46-0.72-0.79-1.13-0.97c-0.41-0.19-0.86-0.28-1.36-0.28c-0.99,0-1.76,0.35-2.29,1.06
					s-0.8,1.71-0.8,3.02c0,0.69,0.06,1.29,0.18,1.78c0.12,0.49,0.29,0.9,0.52,1.22c0.23,0.32,0.51,0.55,0.85,0.7
					C6.82,141.56,7.2,141.63,7.64,141.63z"/>
				<path class="st1" d="M16.82,127.17c0.2,0.34,0.35,0.67,0.44,1.01c0.09,0.34,0.14,0.67,0.14,1.01c0,0.64-0.16,1.24-0.47,1.82
					c-0.31,0.58-0.74,1.11-1.3,1.59l-0.58-0.36c-0.06-0.04-0.09-0.07-0.11-0.12s-0.03-0.08-0.03-0.13c0-0.1,0.04-0.18,0.1-0.25
					c0.11-0.13,0.22-0.28,0.33-0.44c0.1-0.16,0.2-0.32,0.28-0.49s0.15-0.35,0.2-0.54s0.07-0.39,0.07-0.6c0-0.22-0.03-0.46-0.1-0.69
					c-0.07-0.24-0.18-0.49-0.34-0.76c-0.05-0.08-0.07-0.15-0.07-0.23c0-0.17,0.09-0.29,0.28-0.37L16.82,127.17z"/>
				<path class="st1" d="M27.1,143h-0.83c-0.18,0-0.33-0.03-0.44-0.08c-0.11-0.06-0.19-0.17-0.22-0.36l-0.21-0.99
					c-0.28,0.25-0.55,0.48-0.82,0.68s-0.55,0.37-0.84,0.5c-0.29,0.14-0.61,0.24-0.94,0.31c-0.33,0.07-0.7,0.1-1.11,0.1
					s-0.8-0.06-1.16-0.17c-0.36-0.12-0.67-0.29-0.94-0.52s-0.48-0.53-0.64-0.88s-0.24-0.77-0.24-1.26c0-0.42,0.12-0.83,0.35-1.22
					s0.6-0.74,1.12-1.04s1.19-0.55,2.02-0.74s1.85-0.29,3.06-0.29v-0.83c0-0.83-0.18-1.46-0.53-1.89c-0.35-0.43-0.88-0.64-1.57-0.64
					c-0.46,0-0.84,0.06-1.15,0.17c-0.31,0.12-0.58,0.25-0.81,0.39s-0.42,0.27-0.59,0.39s-0.33,0.17-0.49,0.17
					c-0.13,0-0.24-0.03-0.33-0.1s-0.17-0.15-0.23-0.25l-0.34-0.6c0.59-0.57,1.22-0.99,1.9-1.27s1.43-0.42,2.26-0.42
					c0.59,0,1.12,0.1,1.59,0.29s0.85,0.47,1.17,0.82c0.31,0.35,0.55,0.77,0.71,1.27s0.24,1.04,0.24,1.64L27.1,143L27.1,143z
					 M22.25,141.86c0.33,0,0.63-0.03,0.9-0.1s0.53-0.16,0.77-0.28s0.47-0.27,0.69-0.45c0.22-0.17,0.44-0.38,0.65-0.6v-2.19
					c-0.86,0-1.59,0.05-2.19,0.16s-1.09,0.25-1.47,0.43s-0.65,0.38-0.82,0.62c-0.17,0.24-0.26,0.51-0.26,0.8
					c0,0.28,0.05,0.52,0.14,0.73c0.09,0.21,0.21,0.37,0.37,0.5c0.15,0.13,0.34,0.23,0.55,0.29S22.01,141.86,22.25,141.86z"/>
				<path class="st1" d="M29.94,143v-10.64h1.11c0.27,0,0.43,0.13,0.5,0.39l0.14,1.09c0.39-0.48,0.83-0.88,1.32-1.19
					c0.49-0.31,1.05-0.46,1.7-0.46c0.72,0,1.3,0.2,1.75,0.6c0.44,0.4,0.76,0.94,0.96,1.62c0.15-0.38,0.34-0.72,0.58-1
					s0.51-0.51,0.81-0.69c0.3-0.18,0.62-0.32,0.96-0.4s0.68-0.13,1.03-0.13c0.56,0,1.06,0.09,1.5,0.27
					c0.44,0.18,0.81,0.44,1.11,0.78s0.54,0.77,0.7,1.27s0.24,1.07,0.24,1.72V143h-1.87v-6.77c0-0.83-0.18-1.46-0.55-1.9
					c-0.36-0.43-0.89-0.65-1.59-0.65c-0.31,0-0.6,0.05-0.88,0.16c-0.28,0.11-0.52,0.27-0.73,0.48s-0.38,0.47-0.5,0.79
					s-0.18,0.69-0.18,1.11V143h-1.87v-6.77c0-0.85-0.17-1.49-0.51-1.91s-0.84-0.63-1.5-0.63c-0.46,0-0.89,0.12-1.29,0.37
					c-0.4,0.25-0.76,0.59-1.09,1.01V143H29.94z"/>
				<path class="st1" d="M51.39,132.2c0.64,0,1.22,0.11,1.76,0.32c0.54,0.21,1,0.52,1.4,0.92c0.39,0.4,0.7,0.9,0.92,1.49
					s0.33,1.27,0.33,2.02c0,0.29-0.03,0.49-0.09,0.59s-0.18,0.15-0.36,0.15h-7.08c0.01,0.67,0.1,1.26,0.27,1.75s0.4,0.91,0.69,1.24
					c0.29,0.33,0.64,0.58,1.05,0.75c0.41,0.16,0.86,0.25,1.36,0.25c0.47,0,0.87-0.05,1.21-0.16s0.63-0.23,0.88-0.35
					c0.24-0.13,0.45-0.24,0.61-0.35s0.31-0.16,0.42-0.16c0.15,0,0.27,0.06,0.36,0.18l0.52,0.68c-0.23,0.28-0.51,0.52-0.83,0.73
					c-0.32,0.21-0.67,0.38-1.03,0.51c-0.37,0.13-0.75,0.23-1.14,0.3s-0.78,0.1-1.17,0.1c-0.74,0-1.41-0.12-2.03-0.37
					s-1.16-0.61-1.61-1.09s-0.8-1.07-1.06-1.78c-0.25-0.71-0.38-1.52-0.38-2.44c0-0.74,0.11-1.44,0.34-2.08s0.55-1.2,0.98-1.67
					s0.95-0.84,1.56-1.11C49.93,132.33,50.62,132.2,51.39,132.2z M51.43,133.57c-0.9,0-1.61,0.26-2.13,0.78s-0.84,1.24-0.97,2.17
					h5.79c0-0.43-0.06-0.83-0.18-1.19s-0.29-0.67-0.52-0.93s-0.51-0.47-0.85-0.61S51.86,133.57,51.43,133.57z M54.48,127.79
					l-2.45,2.71c-0.1,0.11-0.19,0.18-0.29,0.23c-0.09,0.04-0.22,0.07-0.36,0.07h-1.11l1.55-2.54c0.1-0.16,0.21-0.28,0.32-0.35
					c0.12-0.07,0.29-0.11,0.51-0.11h1.83V127.79z"/>
				<path class="st1" d="M60.26,127.53V143h-1.87v-15.47H60.26z"/>
				<path class="st1" d="M66.06,129.02c0,0.18-0.04,0.35-0.11,0.51s-0.17,0.3-0.29,0.42c-0.12,0.12-0.26,0.22-0.43,0.29
					c-0.16,0.07-0.33,0.11-0.51,0.11c-0.18,0-0.35-0.04-0.51-0.11c-0.16-0.07-0.3-0.17-0.42-0.29c-0.12-0.12-0.22-0.26-0.29-0.42
					c-0.07-0.16-0.1-0.33-0.1-0.51c0-0.18,0.03-0.36,0.1-0.52c0.07-0.16,0.17-0.31,0.29-0.43c0.12-0.12,0.26-0.22,0.42-0.29
					c0.16-0.07,0.33-0.1,0.51-0.1c0.18,0,0.35,0.04,0.51,0.1c0.16,0.07,0.3,0.17,0.43,0.29c0.12,0.12,0.22,0.27,0.29,0.43
					C66.02,128.67,66.06,128.84,66.06,129.02z M65.64,132.36V143h-1.87v-10.64H65.64z"/>
				<path class="st1" d="M73.24,132.2c0.78,0,1.48,0.13,2.11,0.39c0.63,0.26,1.16,0.63,1.6,1.1c0.44,0.48,0.77,1.05,1.01,1.73
					c0.23,0.68,0.35,1.43,0.35,2.26c0,0.84-0.12,1.6-0.35,2.27c-0.23,0.67-0.57,1.25-1.01,1.72c-0.44,0.48-0.97,0.84-1.6,1.1
					c-0.63,0.26-1.33,0.38-2.11,0.38s-1.48-0.13-2.1-0.38c-0.63-0.25-1.16-0.62-1.6-1.1c-0.44-0.48-0.78-1.05-1.02-1.72
					s-0.36-1.43-0.36-2.27c0-0.83,0.12-1.59,0.36-2.26c0.24-0.68,0.58-1.25,1.02-1.73c0.44-0.48,0.97-0.84,1.6-1.1
					C71.76,132.33,72.46,132.2,73.24,132.2z M73.24,141.69c1.05,0,1.83-0.35,2.35-1.06c0.52-0.7,0.78-1.68,0.78-2.95
					s-0.26-2.25-0.78-2.96s-1.3-1.06-2.35-1.06c-0.53,0-0.99,0.09-1.39,0.27c-0.39,0.18-0.72,0.44-0.98,0.79
					c-0.26,0.34-0.46,0.77-0.59,1.27s-0.19,1.07-0.19,1.7c0,0.63,0.06,1.19,0.19,1.69c0.13,0.5,0.33,0.92,0.59,1.25
					c0.26,0.34,0.59,0.6,0.98,0.78C72.25,141.6,72.71,141.69,73.24,141.69z"/>
				<path class="st1" d="M80.61,143v-10.64h1.07c0.2,0,0.34,0.04,0.42,0.12s0.13,0.21,0.16,0.4l0.13,1.66
					c0.36-0.74,0.81-1.32,1.35-1.74s1.16-0.62,1.88-0.62c0.29,0,0.56,0.03,0.8,0.1c0.24,0.07,0.46,0.16,0.66,0.28l-0.24,1.4
					c-0.05,0.17-0.16,0.26-0.33,0.26c-0.1,0-0.25-0.03-0.45-0.1s-0.49-0.1-0.85-0.1c-0.65,0-1.2,0.19-1.63,0.57s-0.8,0.93-1.1,1.65
					V143H80.61z"/>
				<path class="st1" d="M96.49,143h-0.83c-0.18,0-0.33-0.03-0.44-0.08c-0.11-0.06-0.19-0.17-0.22-0.36l-0.21-0.99
					c-0.28,0.25-0.55,0.48-0.82,0.68s-0.55,0.37-0.84,0.5c-0.29,0.14-0.61,0.24-0.94,0.31c-0.33,0.07-0.7,0.1-1.11,0.1
					s-0.8-0.06-1.16-0.17c-0.36-0.12-0.67-0.29-0.94-0.52s-0.48-0.53-0.64-0.88c-0.16-0.35-0.24-0.77-0.24-1.26
					c0-0.42,0.12-0.83,0.35-1.22s0.6-0.74,1.12-1.04s1.19-0.55,2.02-0.74c0.83-0.19,1.85-0.29,3.06-0.29v-0.83
					c0-0.83-0.18-1.46-0.53-1.89c-0.35-0.43-0.88-0.64-1.57-0.64c-0.46,0-0.84,0.06-1.15,0.17c-0.31,0.12-0.58,0.25-0.81,0.39
					s-0.42,0.27-0.59,0.39s-0.33,0.17-0.49,0.17c-0.13,0-0.24-0.03-0.33-0.1c-0.09-0.07-0.17-0.15-0.23-0.25l-0.34-0.6
					c0.59-0.57,1.22-0.99,1.9-1.27s1.43-0.42,2.26-0.42c0.59,0,1.12,0.1,1.59,0.29s0.85,0.47,1.17,0.82
					c0.31,0.35,0.55,0.77,0.71,1.27c0.16,0.5,0.24,1.04,0.24,1.64V143H96.49z M91.64,141.86c0.33,0,0.63-0.03,0.9-0.1
					s0.53-0.16,0.77-0.28s0.47-0.27,0.69-0.45c0.22-0.17,0.44-0.38,0.65-0.6v-2.19c-0.86,0-1.59,0.05-2.19,0.16
					c-0.6,0.11-1.09,0.25-1.47,0.43c-0.38,0.18-0.65,0.38-0.82,0.62c-0.17,0.24-0.26,0.51-0.26,0.8c0,0.28,0.05,0.52,0.14,0.73
					c0.09,0.21,0.21,0.37,0.37,0.5c0.15,0.13,0.34,0.23,0.55,0.29S91.39,141.86,91.64,141.86z"/>
				<path class="st1" d="M102.55,143.17c-0.84,0-1.49-0.23-1.94-0.7c-0.45-0.47-0.68-1.14-0.68-2.03v-6.51h-1.28
					c-0.11,0-0.21-0.03-0.28-0.1c-0.08-0.07-0.12-0.17-0.12-0.31v-0.75l1.74-0.22l0.43-3.29c0.01-0.1,0.06-0.19,0.14-0.26
					c0.08-0.07,0.17-0.1,0.29-0.1h0.95v3.66h3.04v1.35h-3.04v6.38c0,0.45,0.11,0.78,0.33,1s0.5,0.33,0.84,0.33
					c0.2,0,0.37-0.03,0.51-0.08s0.27-0.11,0.37-0.17c0.1-0.06,0.19-0.12,0.27-0.17c0.07-0.05,0.14-0.08,0.19-0.08
					c0.1,0,0.19,0.06,0.26,0.18l0.55,0.89c-0.32,0.3-0.71,0.54-1.17,0.71C103.5,143.08,103.03,143.17,102.55,143.17z"/>
				<path class="st1" d="M109.65,129.02c0,0.18-0.04,0.35-0.11,0.51s-0.17,0.3-0.29,0.42s-0.26,0.22-0.43,0.29
					c-0.16,0.07-0.33,0.11-0.51,0.11s-0.35-0.04-0.51-0.11c-0.16-0.07-0.3-0.17-0.42-0.29c-0.12-0.12-0.22-0.26-0.29-0.42
					c-0.07-0.16-0.1-0.33-0.1-0.51c0-0.18,0.03-0.36,0.1-0.52c0.07-0.16,0.17-0.31,0.29-0.43c0.12-0.12,0.26-0.22,0.42-0.29
					c0.16-0.07,0.33-0.1,0.51-0.1s0.35,0.04,0.51,0.1c0.16,0.07,0.3,0.17,0.43,0.29c0.12,0.12,0.22,0.27,0.29,0.43
					C109.62,128.67,109.65,128.84,109.65,129.02z M109.23,132.36V143h-1.87v-10.64H109.23z"/>
				<path class="st1" d="M116.84,132.2c0.78,0,1.48,0.13,2.11,0.39c0.63,0.26,1.16,0.63,1.6,1.1c0.44,0.48,0.77,1.05,1.01,1.73
					c0.23,0.68,0.35,1.43,0.35,2.26c0,0.84-0.12,1.6-0.35,2.27c-0.23,0.67-0.57,1.25-1.01,1.72c-0.44,0.48-0.97,0.84-1.6,1.1
					c-0.63,0.26-1.33,0.38-2.11,0.38s-1.48-0.13-2.1-0.38c-0.63-0.25-1.16-0.62-1.6-1.1c-0.44-0.48-0.78-1.05-1.02-1.72
					s-0.36-1.43-0.36-2.27c0-0.83,0.12-1.59,0.36-2.26c0.24-0.68,0.58-1.25,1.02-1.73c0.44-0.48,0.97-0.84,1.6-1.1
					C115.36,132.33,116.06,132.2,116.84,132.2z M116.84,141.69c1.05,0,1.83-0.35,2.35-1.06c0.52-0.7,0.78-1.68,0.78-2.95
					s-0.26-2.25-0.78-2.96s-1.3-1.06-2.35-1.06c-0.53,0-0.99,0.09-1.39,0.27c-0.39,0.18-0.72,0.44-0.98,0.79
					c-0.26,0.34-0.46,0.77-0.59,1.27s-0.19,1.07-0.19,1.7c0,0.63,0.06,1.19,0.19,1.69c0.13,0.5,0.33,0.92,0.59,1.25
					c0.26,0.34,0.59,0.6,0.98,0.78C115.84,141.6,116.3,141.69,116.84,141.69z"/>
				<path class="st1" d="M124.21,143v-10.64h1.11c0.27,0,0.43,0.13,0.5,0.39l0.15,1.16c0.46-0.51,0.98-0.92,1.55-1.24
					c0.57-0.32,1.23-0.47,1.98-0.47c0.58,0,1.09,0.1,1.54,0.29c0.44,0.19,0.82,0.47,1.11,0.82c0.3,0.35,0.52,0.78,0.68,1.28
					c0.15,0.5,0.23,1.05,0.23,1.65V143h-1.87v-6.77c0-0.8-0.18-1.43-0.55-1.87c-0.37-0.44-0.93-0.67-1.69-0.67
					c-0.55,0-1.07,0.13-1.55,0.4s-0.92,0.63-1.33,1.08V143H124.21z"/>
				<path class="st1" d="M138.76,129.3c0.22-0.2,0.46-0.4,0.72-0.58c0.26-0.18,0.55-0.34,0.86-0.48c0.31-0.14,0.65-0.25,1.01-0.33
					s0.75-0.12,1.17-0.12c0.55,0,1.07,0.08,1.54,0.24c0.47,0.16,0.88,0.39,1.22,0.68c0.34,0.29,0.61,0.65,0.81,1.07
					s0.29,0.89,0.29,1.42s-0.08,0.99-0.24,1.38s-0.36,0.72-0.6,1.01c-0.24,0.29-0.5,0.54-0.79,0.76s-0.55,0.42-0.8,0.6
					c-0.25,0.19-0.46,0.38-0.64,0.57s-0.28,0.4-0.31,0.63l-0.19,1.61h-1.28l-0.13-1.74v-0.12c0-0.29,0.08-0.55,0.24-0.78
					s0.36-0.44,0.6-0.64s0.5-0.4,0.78-0.6c0.28-0.2,0.54-0.42,0.78-0.66c0.24-0.24,0.44-0.52,0.6-0.82
					c0.16-0.31,0.24-0.67,0.24-1.09c0-0.3-0.06-0.57-0.18-0.82s-0.28-0.45-0.48-0.62s-0.44-0.3-0.72-0.39s-0.57-0.14-0.89-0.14
					c-0.43,0-0.79,0.05-1.1,0.16c-0.3,0.11-0.56,0.22-0.77,0.35c-0.21,0.13-0.38,0.24-0.51,0.35c-0.13,0.11-0.24,0.16-0.32,0.16
					c-0.17,0-0.31-0.08-0.41-0.24L138.76,129.3z M140.82,141.84c0-0.18,0.03-0.35,0.1-0.51c0.07-0.16,0.16-0.3,0.27-0.42
					c0.12-0.12,0.25-0.21,0.42-0.28c0.16-0.07,0.33-0.1,0.51-0.1s0.35,0.03,0.51,0.1s0.3,0.17,0.42,0.28
					c0.12,0.12,0.21,0.26,0.28,0.42c0.07,0.16,0.1,0.33,0.1,0.51c0,0.19-0.03,0.36-0.1,0.52s-0.16,0.29-0.28,0.41
					s-0.26,0.21-0.42,0.28s-0.33,0.1-0.51,0.1s-0.35-0.03-0.51-0.1c-0.16-0.07-0.3-0.16-0.42-0.28s-0.21-0.26-0.27-0.41
					C140.85,142.21,140.82,142.03,140.82,141.84z"/>
			</g>
			<g class="st0">
				<path class="st1" d="M12.27,163.95v1.66H5.04v5h5.85v1.6H5.04v5.13h7.22V179H3v-15.05H12.27z"/>
				<path class="st1" d="M22.16,170.25c-0.06,0.08-0.11,0.14-0.17,0.18s-0.14,0.06-0.24,0.06s-0.22-0.04-0.34-0.13
					c-0.12-0.09-0.28-0.18-0.47-0.29c-0.19-0.11-0.42-0.2-0.69-0.29s-0.6-0.13-0.99-0.13c-0.52,0-0.98,0.09-1.38,0.28
					s-0.73,0.45-1,0.8s-0.47,0.77-0.61,1.27s-0.2,1.05-0.2,1.67c0,0.64,0.07,1.22,0.22,1.72s0.35,0.92,0.62,1.26s0.59,0.6,0.97,0.78
					s0.81,0.27,1.29,0.27c0.46,0,0.83-0.05,1.12-0.16s0.54-0.23,0.73-0.36c0.2-0.13,0.36-0.25,0.48-0.36s0.25-0.16,0.38-0.16
					c0.16,0,0.28,0.06,0.36,0.18l0.52,0.68c-0.46,0.57-1.04,0.98-1.73,1.24c-0.69,0.26-1.42,0.39-2.19,0.39
					c-0.67,0-1.28-0.12-1.85-0.37s-1.07-0.6-1.49-1.07s-0.75-1.04-0.99-1.72c-0.24-0.68-0.36-1.45-0.36-2.32
					c0-0.79,0.11-1.52,0.33-2.19s0.54-1.25,0.97-1.74c0.42-0.49,0.95-0.87,1.57-1.14s1.34-0.41,2.14-0.41c0.74,0,1.4,0.12,1.97,0.36
					s1.08,0.58,1.52,1.02L22.16,170.25z"/>
				<path class="st1" d="M24.71,179v-10.64h1.07c0.2,0,0.34,0.04,0.42,0.12s0.13,0.21,0.16,0.4l0.13,1.66
					c0.36-0.74,0.81-1.32,1.35-1.74s1.16-0.62,1.88-0.62c0.29,0,0.56,0.03,0.8,0.1s0.46,0.16,0.66,0.28l-0.24,1.4
					c-0.05,0.17-0.16,0.26-0.33,0.26c-0.1,0-0.25-0.03-0.45-0.1s-0.49-0.1-0.85-0.1c-0.65,0-1.2,0.19-1.63,0.57s-0.8,0.93-1.1,1.65
					V179H24.71z"/>
				<path class="st1" d="M35.67,165.02c0,0.18-0.04,0.35-0.11,0.51c-0.07,0.16-0.17,0.3-0.29,0.42c-0.12,0.12-0.26,0.22-0.43,0.29
					c-0.16,0.07-0.33,0.11-0.51,0.11s-0.35-0.04-0.51-0.11s-0.3-0.17-0.42-0.29s-0.22-0.26-0.29-0.42s-0.1-0.33-0.1-0.51
					s0.03-0.36,0.1-0.52s0.17-0.31,0.29-0.43c0.12-0.12,0.26-0.22,0.42-0.29c0.16-0.07,0.33-0.1,0.51-0.1s0.35,0.04,0.51,0.1
					c0.16,0.07,0.3,0.17,0.43,0.29c0.12,0.12,0.22,0.27,0.29,0.43C35.64,164.67,35.67,164.84,35.67,165.02z M35.25,168.36V179h-1.87
					v-10.64H35.25z"/>
				<path class="st1" d="M37.21,168.36h1.53c0.15,0,0.27,0.04,0.37,0.12s0.17,0.17,0.21,0.27l2.7,6.85c0.1,0.25,0.17,0.5,0.23,0.76
					c0.06,0.25,0.11,0.5,0.16,0.75c0.06-0.25,0.12-0.49,0.18-0.75c0.06-0.25,0.14-0.5,0.24-0.76l2.73-6.85
					c0.04-0.11,0.11-0.21,0.2-0.28c0.09-0.07,0.21-0.11,0.35-0.11h1.46L43.23,179h-1.69L37.21,168.36z"/>
				<path class="st1" d="M53.24,168.2c0.64,0,1.22,0.11,1.76,0.32c0.54,0.21,1,0.52,1.4,0.92c0.39,0.4,0.7,0.9,0.92,1.49
					s0.33,1.27,0.33,2.02c0,0.29-0.03,0.49-0.09,0.59s-0.18,0.15-0.36,0.15h-7.08c0.01,0.67,0.1,1.26,0.27,1.75s0.4,0.91,0.69,1.24
					c0.29,0.33,0.64,0.58,1.05,0.75c0.41,0.16,0.86,0.25,1.36,0.25c0.47,0,0.87-0.05,1.21-0.16s0.63-0.23,0.88-0.35
					c0.24-0.13,0.45-0.24,0.61-0.35s0.31-0.16,0.42-0.16c0.15,0,0.27,0.06,0.36,0.18l0.52,0.68c-0.23,0.28-0.51,0.52-0.83,0.73
					c-0.32,0.21-0.67,0.38-1.03,0.51c-0.37,0.13-0.75,0.23-1.14,0.3s-0.78,0.1-1.17,0.1c-0.74,0-1.41-0.12-2.03-0.37
					s-1.16-0.61-1.61-1.09s-0.8-1.07-1.06-1.78c-0.25-0.71-0.38-1.52-0.38-2.44c0-0.74,0.11-1.44,0.34-2.08s0.55-1.2,0.98-1.67
					s0.95-0.84,1.56-1.11C51.78,168.33,52.47,168.2,53.24,168.2z M53.28,169.57c-0.9,0-1.61,0.26-2.13,0.78s-0.84,1.24-0.97,2.17
					h5.79c0-0.43-0.06-0.83-0.18-1.19s-0.29-0.67-0.52-0.93s-0.51-0.47-0.85-0.61S53.71,169.57,53.28,169.57z"/>
				<path class="st1" d="M67.46,169.16c0,0.13-0.02,0.26-0.07,0.38c-0.05,0.12-0.11,0.23-0.19,0.33l-5.75,7.66h5.81V179h-8.01v-0.78
					c0-0.09,0.02-0.2,0.07-0.32c0.05-0.12,0.11-0.24,0.19-0.35l5.79-7.72h-5.72v-1.47h7.9v0.8H67.46z"/>
				<path class="st1" d="M69.25,171.91h5.19v1.59h-5.19V171.91z"/>
				<path class="st1" d="M77.02,179v-10.64h1.11c0.27,0,0.43,0.13,0.5,0.39l0.15,1.16c0.46-0.51,0.98-0.92,1.55-1.24
					s1.23-0.47,1.98-0.47c0.58,0,1.09,0.1,1.54,0.29c0.44,0.19,0.82,0.47,1.11,0.82c0.3,0.35,0.52,0.78,0.68,1.28
					c0.15,0.5,0.23,1.05,0.23,1.65V179H84v-6.77c0-0.8-0.18-1.43-0.55-1.87s-0.93-0.67-1.69-0.67c-0.55,0-1.07,0.13-1.55,0.4
					c-0.48,0.27-0.92,0.63-1.33,1.08V179H77.02z"/>
				<path class="st1" d="M93,168.2c0.78,0,1.48,0.13,2.11,0.39s1.16,0.63,1.6,1.1c0.44,0.48,0.77,1.05,1.01,1.73
					c0.23,0.68,0.35,1.43,0.35,2.26c0,0.84-0.12,1.6-0.35,2.27c-0.23,0.67-0.57,1.25-1.01,1.72c-0.44,0.48-0.97,0.84-1.6,1.1
					c-0.63,0.26-1.33,0.38-2.11,0.38s-1.48-0.13-2.1-0.38c-0.63-0.25-1.16-0.62-1.6-1.1c-0.44-0.48-0.78-1.05-1.02-1.72
					s-0.36-1.43-0.36-2.27c0-0.83,0.12-1.59,0.36-2.26c0.24-0.68,0.58-1.25,1.02-1.73c0.44-0.48,0.97-0.84,1.6-1.1
					C91.52,168.33,92.23,168.2,93,168.2z M93,177.69c1.05,0,1.83-0.35,2.35-1.06c0.52-0.7,0.78-1.68,0.78-2.95s-0.26-2.25-0.78-2.96
					s-1.3-1.06-2.35-1.06c-0.53,0-0.99,0.09-1.39,0.27c-0.39,0.18-0.72,0.44-0.98,0.79c-0.26,0.34-0.46,0.77-0.59,1.27
					s-0.19,1.07-0.19,1.7c0,0.63,0.06,1.19,0.19,1.69c0.13,0.5,0.33,0.92,0.59,1.25c0.26,0.34,0.59,0.6,0.98,0.78
					C92.01,177.6,92.47,177.69,93,177.69z"/>
				<path class="st1" d="M101.99,168.36v6.78c0,0.8,0.19,1.43,0.56,1.87c0.37,0.44,0.93,0.66,1.68,0.66c0.55,0,1.06-0.13,1.54-0.39
					s0.93-0.62,1.33-1.08v-7.84h1.87V179h-1.11c-0.27,0-0.43-0.13-0.5-0.39l-0.15-1.14c-0.46,0.51-0.98,0.92-1.55,1.23
					s-1.23,0.47-1.97,0.47c-0.58,0-1.09-0.1-1.54-0.29c-0.44-0.19-0.82-0.46-1.12-0.81c-0.3-0.35-0.53-0.77-0.68-1.27
					s-0.23-1.05-0.23-1.65v-6.78h1.87V168.36z"/>
				<path class="st1" d="M118.14,170.12c-0.08,0.15-0.21,0.23-0.39,0.23c-0.1,0-0.22-0.04-0.36-0.12s-0.3-0.16-0.49-0.26
					c-0.19-0.09-0.42-0.18-0.69-0.26c-0.27-0.08-0.58-0.12-0.95-0.12c-0.31,0-0.6,0.04-0.85,0.12s-0.47,0.19-0.65,0.33
					s-0.31,0.3-0.41,0.49c-0.09,0.19-0.14,0.39-0.14,0.6c0,0.27,0.08,0.5,0.24,0.68c0.16,0.18,0.37,0.34,0.62,0.47
					c0.26,0.13,0.55,0.25,0.88,0.35c0.33,0.1,0.67,0.21,1.01,0.33c0.35,0.12,0.68,0.24,1.01,0.38s0.62,0.32,0.88,0.53
					c0.26,0.21,0.47,0.47,0.62,0.77c0.16,0.3,0.24,0.67,0.24,1.1c0,0.49-0.09,0.94-0.26,1.36c-0.17,0.42-0.43,0.78-0.78,1.08
					c-0.34,0.3-0.76,0.54-1.26,0.72s-1.07,0.26-1.72,0.26c-0.74,0-1.41-0.12-2.02-0.36s-1.11-0.55-1.53-0.93l0.44-0.71
					c0.06-0.09,0.12-0.16,0.2-0.21c0.08-0.05,0.18-0.07,0.3-0.07s0.26,0.05,0.4,0.15c0.14,0.1,0.31,0.21,0.51,0.33
					c0.2,0.12,0.44,0.23,0.72,0.33s0.64,0.15,1.07,0.15c0.36,0,0.68-0.05,0.96-0.14c0.27-0.09,0.5-0.22,0.68-0.38
					s0.32-0.35,0.4-0.56c0.09-0.21,0.13-0.43,0.13-0.67c0-0.29-0.08-0.54-0.24-0.73c-0.16-0.19-0.37-0.36-0.62-0.49
					c-0.26-0.14-0.55-0.26-0.89-0.36s-0.67-0.21-1.02-0.32s-0.69-0.24-1.02-0.38s-0.63-0.32-0.89-0.54s-0.47-0.48-0.62-0.8
					c-0.16-0.32-0.24-0.71-0.24-1.16c0-0.41,0.08-0.8,0.25-1.17s0.41-0.7,0.73-0.99c0.32-0.28,0.72-0.51,1.19-0.68s1-0.25,1.61-0.25
					c0.7,0,1.33,0.11,1.88,0.33c0.56,0.22,1.04,0.52,1.44,0.91L118.14,170.12z"/>
				<path class="st1" d="M126.83,168.36v6.78c0,0.8,0.19,1.43,0.56,1.87c0.37,0.44,0.93,0.66,1.68,0.66c0.55,0,1.06-0.13,1.54-0.39
					s0.93-0.62,1.33-1.08v-7.84h1.87V179h-1.11c-0.27,0-0.43-0.13-0.5-0.39l-0.15-1.14c-0.46,0.51-0.98,0.92-1.55,1.23
					s-1.23,0.47-1.97,0.47c-0.58,0-1.09-0.1-1.54-0.29s-0.82-0.46-1.12-0.81c-0.3-0.35-0.53-0.77-0.68-1.27s-0.23-1.05-0.23-1.65
					v-6.78h1.87V168.36z"/>
				<path class="st1" d="M136.89,179v-10.64H138c0.27,0,0.43,0.13,0.5,0.39l0.15,1.16c0.46-0.51,0.98-0.92,1.55-1.24
					s1.23-0.47,1.98-0.47c0.58,0,1.09,0.1,1.54,0.29s0.82,0.47,1.11,0.82c0.3,0.35,0.52,0.78,0.68,1.28s0.23,1.05,0.23,1.65V179
					h-1.87v-6.77c0-0.8-0.18-1.43-0.55-1.87s-0.93-0.67-1.69-0.67c-0.55,0-1.07,0.13-1.55,0.4c-0.48,0.27-0.92,0.63-1.33,1.08V179
					H136.89z"/>
				<path class="st1" d="M152.62,179v-10.64h1.11c0.27,0,0.43,0.13,0.5,0.39l0.14,1.09c0.39-0.48,0.83-0.88,1.32-1.19
					s1.05-0.46,1.7-0.46c0.72,0,1.3,0.2,1.75,0.6s0.76,0.94,0.96,1.62c0.15-0.38,0.34-0.72,0.58-1s0.51-0.51,0.81-0.69
					c0.3-0.18,0.62-0.32,0.96-0.4c0.34-0.08,0.68-0.13,1.04-0.13c0.56,0,1.06,0.09,1.5,0.27c0.44,0.18,0.81,0.44,1.11,0.78
					s0.54,0.77,0.7,1.27s0.24,1.07,0.24,1.72V179h-1.87v-6.77c0-0.83-0.18-1.46-0.55-1.9s-0.89-0.65-1.58-0.65
					c-0.31,0-0.6,0.05-0.88,0.16s-0.52,0.27-0.73,0.48c-0.21,0.21-0.38,0.47-0.5,0.79c-0.12,0.32-0.18,0.69-0.18,1.11V179h-1.87
					v-6.77c0-0.85-0.17-1.49-0.52-1.91c-0.34-0.42-0.84-0.63-1.5-0.63c-0.46,0-0.89,0.12-1.29,0.37s-0.76,0.59-1.09,1.01V179H152.62
					z"/>
				<path class="st1" d="M174.07,168.2c0.64,0,1.22,0.11,1.76,0.32s1,0.52,1.4,0.92c0.39,0.4,0.7,0.9,0.92,1.49s0.33,1.27,0.33,2.02
					c0,0.29-0.03,0.49-0.09,0.59s-0.18,0.15-0.36,0.15h-7.08c0.01,0.67,0.11,1.26,0.27,1.75s0.4,0.91,0.69,1.24
					c0.29,0.33,0.64,0.58,1.05,0.75c0.41,0.16,0.86,0.25,1.36,0.25c0.47,0,0.87-0.05,1.21-0.16s0.63-0.23,0.88-0.35
					c0.25-0.13,0.45-0.24,0.62-0.35c0.16-0.11,0.31-0.16,0.42-0.16c0.15,0,0.27,0.06,0.36,0.18l0.53,0.68
					c-0.23,0.28-0.51,0.52-0.83,0.73c-0.32,0.21-0.67,0.38-1.03,0.51c-0.37,0.13-0.75,0.23-1.14,0.3s-0.78,0.1-1.17,0.1
					c-0.74,0-1.41-0.12-2.03-0.37s-1.16-0.61-1.61-1.09s-0.8-1.07-1.06-1.78c-0.25-0.71-0.38-1.52-0.38-2.44
					c0-0.74,0.11-1.44,0.34-2.08s0.55-1.2,0.98-1.67s0.95-0.84,1.56-1.11S173.3,168.2,174.07,168.2z M174.11,169.57
					c-0.9,0-1.61,0.26-2.13,0.78s-0.84,1.24-0.97,2.17h5.79c0-0.43-0.06-0.83-0.18-1.19s-0.29-0.67-0.52-0.93s-0.51-0.47-0.84-0.61
					C174.92,169.64,174.54,169.57,174.11,169.57z"/>
				<path class="st1" d="M186.96,170.12c-0.08,0.15-0.21,0.23-0.39,0.23c-0.11,0-0.22-0.04-0.36-0.12s-0.29-0.16-0.49-0.26
					c-0.19-0.09-0.42-0.18-0.69-0.26s-0.58-0.12-0.95-0.12c-0.31,0-0.6,0.04-0.85,0.12s-0.47,0.19-0.65,0.33s-0.31,0.3-0.41,0.49
					s-0.14,0.39-0.14,0.6c0,0.27,0.08,0.5,0.24,0.68s0.37,0.34,0.62,0.47c0.26,0.13,0.55,0.25,0.88,0.35s0.67,0.21,1.01,0.33
					c0.35,0.12,0.68,0.24,1.01,0.38s0.62,0.32,0.88,0.53s0.47,0.47,0.62,0.77s0.24,0.67,0.24,1.1c0,0.49-0.09,0.94-0.26,1.36
					s-0.43,0.78-0.78,1.08c-0.34,0.3-0.76,0.54-1.26,0.72s-1.07,0.26-1.72,0.26c-0.74,0-1.41-0.12-2.02-0.36
					c-0.6-0.24-1.11-0.55-1.53-0.93l0.44-0.71c0.06-0.09,0.12-0.16,0.2-0.21s0.18-0.07,0.3-0.07c0.13,0,0.26,0.05,0.4,0.15
					c0.14,0.1,0.31,0.21,0.51,0.33s0.44,0.23,0.72,0.33s0.64,0.15,1.07,0.15c0.36,0,0.68-0.05,0.96-0.14
					c0.27-0.09,0.5-0.22,0.68-0.38s0.32-0.35,0.4-0.56c0.09-0.21,0.13-0.43,0.13-0.67c0-0.29-0.08-0.54-0.24-0.73
					s-0.37-0.36-0.62-0.49c-0.26-0.14-0.55-0.26-0.89-0.36s-0.67-0.21-1.02-0.32s-0.69-0.24-1.02-0.38s-0.63-0.32-0.89-0.54
					c-0.26-0.22-0.47-0.48-0.62-0.8c-0.16-0.32-0.24-0.71-0.24-1.16c0-0.41,0.08-0.8,0.25-1.17s0.41-0.7,0.74-0.99
					c0.32-0.28,0.72-0.51,1.19-0.68s1-0.25,1.61-0.25c0.7,0,1.33,0.11,1.88,0.33s1.04,0.52,1.44,0.91L186.96,170.12z"/>
				<path class="st1" d="M196.07,170.12c-0.08,0.15-0.21,0.23-0.39,0.23c-0.1,0-0.22-0.04-0.36-0.12s-0.3-0.16-0.49-0.26
					c-0.19-0.09-0.42-0.18-0.69-0.26s-0.58-0.12-0.95-0.12c-0.32,0-0.6,0.04-0.85,0.12s-0.47,0.19-0.65,0.33s-0.32,0.3-0.41,0.49
					s-0.14,0.39-0.14,0.6c0,0.27,0.08,0.5,0.24,0.68s0.37,0.34,0.62,0.47c0.26,0.13,0.55,0.25,0.88,0.35s0.67,0.21,1.01,0.33
					s0.68,0.24,1.01,0.38s0.62,0.32,0.88,0.53c0.26,0.21,0.47,0.47,0.62,0.77c0.16,0.3,0.24,0.67,0.24,1.1
					c0,0.49-0.09,0.94-0.26,1.36s-0.43,0.78-0.78,1.08s-0.76,0.54-1.26,0.72c-0.5,0.17-1.07,0.26-1.72,0.26
					c-0.74,0-1.41-0.12-2.02-0.36s-1.11-0.55-1.53-0.93l0.44-0.71c0.06-0.09,0.12-0.16,0.2-0.21s0.18-0.07,0.3-0.07
					s0.26,0.05,0.4,0.15c0.14,0.1,0.31,0.21,0.51,0.33s0.44,0.23,0.72,0.33s0.64,0.15,1.07,0.15c0.36,0,0.68-0.05,0.96-0.14
					c0.27-0.09,0.5-0.22,0.68-0.38s0.32-0.35,0.4-0.56c0.09-0.21,0.13-0.43,0.13-0.67c0-0.29-0.08-0.54-0.24-0.73
					s-0.37-0.36-0.62-0.49c-0.26-0.14-0.55-0.26-0.89-0.36c-0.33-0.1-0.67-0.21-1.02-0.32s-0.69-0.24-1.02-0.38
					s-0.63-0.32-0.89-0.54s-0.47-0.48-0.62-0.8c-0.16-0.32-0.24-0.71-0.24-1.16c0-0.41,0.08-0.8,0.25-1.17s0.41-0.7,0.73-0.99
					c0.32-0.28,0.72-0.51,1.19-0.68s1-0.25,1.61-0.25c0.7,0,1.33,0.11,1.88,0.33s1.04,0.52,1.44,0.91L196.07,170.12z"/>
				<path class="st1" d="M206.9,179h-0.83c-0.18,0-0.33-0.03-0.44-0.08c-0.11-0.06-0.19-0.17-0.22-0.36l-0.21-0.99
					c-0.28,0.25-0.55,0.48-0.82,0.68s-0.55,0.37-0.84,0.5c-0.29,0.14-0.61,0.24-0.94,0.31c-0.33,0.07-0.7,0.1-1.11,0.1
					s-0.8-0.06-1.16-0.17c-0.36-0.12-0.67-0.29-0.94-0.52c-0.27-0.23-0.48-0.53-0.63-0.88c-0.16-0.35-0.24-0.77-0.24-1.26
					c0-0.42,0.12-0.83,0.35-1.22s0.6-0.74,1.12-1.04s1.19-0.55,2.02-0.74s1.85-0.29,3.05-0.29v-0.83c0-0.83-0.18-1.46-0.53-1.89
					s-0.88-0.64-1.57-0.64c-0.46,0-0.84,0.06-1.15,0.17c-0.31,0.12-0.58,0.25-0.81,0.39s-0.42,0.27-0.59,0.39s-0.33,0.17-0.49,0.17
					c-0.13,0-0.24-0.03-0.33-0.1s-0.17-0.15-0.23-0.25l-0.34-0.6c0.59-0.57,1.22-0.99,1.9-1.27s1.43-0.42,2.26-0.42
					c0.59,0,1.12,0.1,1.58,0.29c0.46,0.2,0.85,0.47,1.17,0.82c0.31,0.35,0.55,0.77,0.71,1.27s0.24,1.04,0.24,1.64V179H206.9z
					 M202.05,177.86c0.33,0,0.63-0.03,0.9-0.1c0.27-0.07,0.53-0.16,0.77-0.28s0.47-0.27,0.69-0.45c0.22-0.17,0.44-0.38,0.64-0.6
					v-2.19c-0.86,0-1.59,0.05-2.19,0.16s-1.09,0.25-1.47,0.43s-0.65,0.38-0.82,0.62c-0.17,0.24-0.26,0.51-0.26,0.8
					c0,0.28,0.05,0.52,0.14,0.73c0.09,0.21,0.21,0.37,0.37,0.5c0.15,0.13,0.34,0.23,0.55,0.29S201.81,177.86,202.05,177.86z"/>
				<path class="st1" d="M213.32,168.18c0.46,0,0.89,0.05,1.3,0.15c0.4,0.1,0.77,0.25,1.1,0.45h2.89v0.69
					c0,0.23-0.15,0.38-0.44,0.44l-1.21,0.17c0.24,0.46,0.36,0.96,0.36,1.52c0,0.52-0.1,0.99-0.3,1.41s-0.48,0.79-0.83,1.09
					s-0.77,0.53-1.26,0.69c-0.49,0.16-1.02,0.24-1.6,0.24c-0.5,0-0.97-0.06-1.41-0.18c-0.22,0.14-0.39,0.3-0.51,0.47
					s-0.17,0.33-0.17,0.49c0,0.26,0.1,0.46,0.3,0.59s0.47,0.23,0.81,0.29s0.72,0.09,1.14,0.09c0.43,0,0.86,0,1.31,0
					s0.88,0.04,1.31,0.12s0.81,0.21,1.14,0.38c0.34,0.18,0.61,0.42,0.81,0.73s0.3,0.72,0.3,1.21c0,0.46-0.11,0.91-0.34,1.34
					s-0.55,0.82-0.98,1.15c-0.43,0.34-0.95,0.61-1.56,0.81c-0.62,0.2-1.31,0.3-2.09,0.3s-1.46-0.08-2.04-0.23s-1.07-0.36-1.45-0.62
					c-0.38-0.26-0.67-0.56-0.87-0.9s-0.29-0.7-0.29-1.07c0-0.53,0.17-0.97,0.5-1.34s0.79-0.66,1.37-0.88
					c-0.3-0.14-0.54-0.33-0.72-0.56c-0.18-0.23-0.27-0.55-0.27-0.94c0-0.15,0.03-0.31,0.08-0.48c0.06-0.16,0.14-0.33,0.26-0.49
					s0.26-0.31,0.42-0.46s0.36-0.28,0.59-0.39c-0.53-0.29-0.94-0.68-1.23-1.17c-0.3-0.49-0.45-1.06-0.45-1.71
					c0-0.52,0.1-0.99,0.3-1.41s0.48-0.78,0.83-1.08s0.78-0.53,1.28-0.69C212.19,168.27,212.73,168.18,213.32,168.18z M216.64,179.54
					c0-0.27-0.07-0.49-0.22-0.65c-0.15-0.16-0.35-0.29-0.6-0.38c-0.25-0.09-0.54-0.15-0.87-0.2c-0.33-0.04-0.68-0.06-1.04-0.06
					s-0.74,0-1.11,0s-0.74-0.05-1.08-0.14c-0.4,0.19-0.72,0.42-0.97,0.69s-0.37,0.6-0.37,0.98c0,0.24,0.06,0.46,0.18,0.67
					c0.12,0.21,0.31,0.39,0.56,0.54s0.57,0.27,0.95,0.36s0.83,0.13,1.35,0.13c0.5,0,0.96-0.05,1.36-0.14s0.74-0.22,1.01-0.4
					c0.28-0.17,0.49-0.38,0.64-0.61C216.56,180.09,216.64,179.83,216.64,179.54z M213.32,173.8c0.38,0,0.71-0.05,1-0.16
					c0.29-0.1,0.53-0.25,0.73-0.44s0.34-0.42,0.44-0.68s0.15-0.55,0.15-0.87c0-0.65-0.2-1.17-0.59-1.55s-0.97-0.58-1.73-0.58
					c-0.75,0-1.32,0.19-1.72,0.58c-0.4,0.38-0.59,0.9-0.59,1.55c0,0.32,0.05,0.6,0.15,0.87c0.1,0.26,0.25,0.49,0.45,0.68
					c0.2,0.19,0.44,0.34,0.72,0.44C212.62,173.75,212.95,173.8,213.32,173.8z"/>
				<path class="st1" d="M224.68,168.2c0.64,0,1.22,0.11,1.76,0.32s1,0.52,1.4,0.92c0.39,0.4,0.7,0.9,0.92,1.49s0.33,1.27,0.33,2.02
					c0,0.29-0.03,0.49-0.09,0.59c-0.06,0.1-0.18,0.15-0.36,0.15h-7.08c0.01,0.67,0.11,1.26,0.27,1.75s0.4,0.91,0.69,1.24
					c0.29,0.33,0.64,0.58,1.05,0.75c0.41,0.16,0.86,0.25,1.37,0.25c0.47,0,0.87-0.05,1.21-0.16s0.63-0.23,0.88-0.35
					c0.24-0.13,0.45-0.24,0.61-0.35s0.31-0.16,0.42-0.16c0.15,0,0.27,0.06,0.36,0.18l0.53,0.68c-0.23,0.28-0.51,0.52-0.83,0.73
					c-0.32,0.21-0.67,0.38-1.03,0.51c-0.37,0.13-0.75,0.23-1.14,0.3s-0.78,0.1-1.17,0.1c-0.74,0-1.41-0.12-2.03-0.37
					s-1.15-0.61-1.61-1.09c-0.45-0.48-0.8-1.07-1.06-1.78c-0.25-0.71-0.38-1.52-0.38-2.44c0-0.74,0.11-1.44,0.34-2.08
					s0.55-1.2,0.98-1.67s0.95-0.84,1.56-1.11C223.22,168.33,223.91,168.2,224.68,168.2z M224.72,169.57c-0.9,0-1.61,0.26-2.13,0.78
					s-0.84,1.24-0.97,2.17h5.79c0-0.43-0.06-0.83-0.18-1.19s-0.29-0.67-0.53-0.93c-0.23-0.26-0.51-0.47-0.84-0.61
					S225.15,169.57,224.72,169.57z"/>
				<path class="st1" d="M236.28,177.84c0-0.18,0.03-0.35,0.1-0.51c0.07-0.16,0.16-0.3,0.27-0.42c0.12-0.12,0.25-0.21,0.42-0.28
					c0.16-0.07,0.33-0.1,0.51-0.1s0.35,0.03,0.52,0.1c0.16,0.07,0.3,0.17,0.42,0.28c0.12,0.12,0.21,0.26,0.28,0.42
					c0.07,0.16,0.1,0.33,0.1,0.51c0,0.19-0.03,0.36-0.1,0.52s-0.16,0.29-0.28,0.41s-0.26,0.21-0.42,0.28
					c-0.16,0.07-0.33,0.1-0.52,0.1c-0.18,0-0.35-0.03-0.51-0.1c-0.16-0.07-0.3-0.16-0.42-0.28s-0.21-0.26-0.27-0.41
					C236.32,178.21,236.28,178.03,236.28,177.84z M238.51,163.95v6.01c0,0.31,0,0.62-0.02,0.92c-0.01,0.3-0.03,0.6-0.05,0.91
					c-0.02,0.3-0.05,0.62-0.08,0.93s-0.07,0.66-0.11,1.02h-1.27c-0.04-0.36-0.08-0.71-0.11-1.02c-0.03-0.32-0.06-0.63-0.08-0.93
					c-0.02-0.3-0.04-0.61-0.05-0.91c-0.01-0.3-0.02-0.61-0.02-0.92v-6.01H238.51z"/>
			</g>
			<g class="st0">
				<path class="st2" d="M8.93,233.5c0.78,0,1.49,0.12,2.14,0.37s1.21,0.61,1.69,1.09s0.84,1.06,1.1,1.75s0.4,1.48,0.4,2.37
					c0,0.22-0.01,0.41-0.03,0.56c-0.02,0.15-0.06,0.26-0.11,0.35c-0.05,0.08-0.12,0.14-0.21,0.18s-0.2,0.05-0.34,0.05h-7.6
					c0.09,1.26,0.43,2.19,1.02,2.78s1.38,0.89,2.35,0.89c0.48,0,0.89-0.06,1.24-0.17c0.35-0.11,0.65-0.24,0.91-0.37
					c0.26-0.14,0.49-0.26,0.68-0.37c0.2-0.11,0.39-0.17,0.57-0.17c0.12,0,0.22,0.02,0.31,0.07s0.16,0.12,0.23,0.2l0.86,1.08
					c-0.33,0.38-0.7,0.71-1.1,0.97c-0.41,0.26-0.83,0.47-1.28,0.62c-0.44,0.16-0.9,0.27-1.36,0.33s-0.91,0.1-1.34,0.1
					c-0.86,0-1.65-0.14-2.39-0.43c-0.74-0.28-1.38-0.7-1.92-1.26s-0.97-1.24-1.28-2.06C3.16,241.61,3,240.66,3,239.58
					c0-0.84,0.14-1.63,0.41-2.37s0.66-1.38,1.17-1.93c0.51-0.55,1.13-0.98,1.86-1.3C7.19,233.66,8.01,233.5,8.93,233.5z
					 M8.99,235.62c-0.86,0-1.54,0.24-2.03,0.73c-0.49,0.49-0.8,1.18-0.94,2.08h5.57c0-0.38-0.05-0.75-0.16-1.09
					c-0.1-0.34-0.26-0.64-0.48-0.89c-0.22-0.26-0.49-0.46-0.82-0.61C9.82,235.69,9.43,235.62,8.99,235.62z"/>
				<path class="st2" d="M23.98,236.09c-0.08,0.13-0.16,0.22-0.25,0.27s-0.2,0.08-0.34,0.08s-0.3-0.04-0.46-0.12
					s-0.35-0.17-0.57-0.27c-0.22-0.1-0.46-0.19-0.74-0.27c-0.28-0.08-0.6-0.12-0.98-0.12c-0.58,0-1.04,0.12-1.38,0.37
					s-0.5,0.57-0.5,0.97c0,0.26,0.09,0.49,0.26,0.67c0.17,0.18,0.4,0.34,0.68,0.47c0.28,0.14,0.61,0.26,0.97,0.37
					c0.36,0.11,0.73,0.23,1.1,0.35c0.37,0.12,0.74,0.27,1.1,0.44s0.68,0.37,0.97,0.62c0.29,0.25,0.51,0.55,0.68,0.91
					c0.17,0.35,0.26,0.78,0.26,1.27c0,0.59-0.11,1.14-0.32,1.64c-0.22,0.5-0.53,0.93-0.95,1.3c-0.42,0.37-0.93,0.65-1.54,0.85
					c-0.61,0.2-1.31,0.31-2.11,0.31c-0.42,0-0.84-0.04-1.24-0.11c-0.4-0.08-0.79-0.18-1.16-0.32c-0.37-0.14-0.72-0.3-1.03-0.48
					c-0.32-0.18-0.59-0.38-0.83-0.6l0.68-1.13c0.09-0.14,0.19-0.24,0.31-0.31c0.12-0.07,0.27-0.11,0.46-0.11s0.36,0.05,0.52,0.16
					s0.35,0.22,0.57,0.34c0.22,0.12,0.47,0.23,0.76,0.34c0.29,0.1,0.66,0.16,1.11,0.16c0.35,0,0.65-0.04,0.91-0.13
					c0.26-0.09,0.46-0.19,0.62-0.33s0.28-0.29,0.36-0.47c0.08-0.18,0.11-0.37,0.11-0.56c0-0.29-0.09-0.52-0.26-0.71
					c-0.17-0.18-0.4-0.34-0.68-0.48c-0.28-0.14-0.61-0.26-0.97-0.37s-0.74-0.23-1.12-0.35s-0.75-0.28-1.12-0.45
					c-0.36-0.17-0.69-0.39-0.97-0.65c-0.28-0.26-0.51-0.59-0.68-0.97c-0.17-0.38-0.26-0.85-0.26-1.39c0-0.5,0.1-0.98,0.3-1.44
					s0.49-0.85,0.88-1.19c0.39-0.34,0.87-0.61,1.45-0.82c0.58-0.21,1.25-0.31,2.01-0.31c0.85,0,1.62,0.14,2.32,0.42
					s1.28,0.65,1.74,1.1L23.98,236.09z"/>
				<path class="st2" d="M31.2,246.19c-1.06,0-1.88-0.3-2.46-0.91c-0.58-0.6-0.86-1.44-0.86-2.5v-6.88h-1.25
					c-0.16,0-0.3-0.05-0.41-0.16c-0.12-0.1-0.17-0.26-0.17-0.47v-1.18l1.98-0.32l0.62-3.36c0.03-0.16,0.11-0.28,0.22-0.37
					c0.12-0.09,0.26-0.13,0.44-0.13h1.54v3.88h3.24v2.11h-3.24v6.67c0,0.38,0.1,0.68,0.29,0.9c0.19,0.22,0.45,0.32,0.77,0.32
					c0.18,0,0.34-0.02,0.46-0.07s0.23-0.09,0.32-0.14s0.17-0.09,0.25-0.14c0.07-0.04,0.14-0.07,0.22-0.07
					c0.09,0,0.16,0.02,0.22,0.07c0.06,0.04,0.12,0.11,0.18,0.2l0.89,1.44c-0.43,0.36-0.93,0.63-1.49,0.82
					C32.38,246.1,31.8,246.19,31.2,246.19z"/>
				<path class="st2" d="M40.05,230.1c0,0.26-0.05,0.5-0.16,0.72c-0.1,0.22-0.24,0.42-0.41,0.59s-0.37,0.3-0.61,0.4
					c-0.23,0.1-0.48,0.15-0.74,0.15c-0.26,0-0.5-0.05-0.73-0.15c-0.23-0.1-0.43-0.23-0.59-0.4s-0.3-0.36-0.4-0.59
					c-0.1-0.22-0.15-0.46-0.15-0.72s0.05-0.51,0.15-0.74c0.1-0.23,0.23-0.43,0.4-0.6s0.37-0.3,0.59-0.4
					c0.23-0.1,0.47-0.15,0.73-0.15s0.51,0.05,0.74,0.15c0.23,0.1,0.43,0.23,0.61,0.4c0.17,0.17,0.31,0.37,0.41,0.6
					C40,229.59,40.05,229.84,40.05,230.1z M39.6,233.69V246h-2.96v-12.31H39.6z"/>
				<path class="st2" d="M42.95,246v-12.31h1.81c0.38,0,0.64,0.18,0.76,0.54l0.19,0.91c0.22-0.24,0.44-0.46,0.68-0.66
					s0.49-0.37,0.76-0.52c0.27-0.14,0.56-0.26,0.86-0.34c0.31-0.08,0.65-0.13,1.01-0.13c0.78,0,1.41,0.21,1.91,0.63
					s0.87,0.98,1.12,1.67c0.19-0.41,0.43-0.76,0.72-1.05s0.6-0.53,0.95-0.71c0.34-0.18,0.71-0.32,1.1-0.41s0.78-0.13,1.17-0.13
					c0.68,0,1.28,0.1,1.81,0.31c0.53,0.21,0.97,0.51,1.33,0.91c0.36,0.4,0.63,0.89,0.82,1.46c0.19,0.58,0.28,1.24,0.28,1.98V246
					h-2.96v-7.84c0-0.78-0.17-1.37-0.52-1.77c-0.34-0.4-0.85-0.59-1.51-0.59c-0.3,0-0.59,0.05-0.85,0.16
					c-0.26,0.1-0.49,0.25-0.68,0.45c-0.2,0.2-0.35,0.44-0.46,0.74s-0.17,0.64-0.17,1.02V246H50.1v-7.84c0-0.82-0.17-1.42-0.5-1.8
					s-0.82-0.56-1.47-0.56c-0.42,0-0.82,0.11-1.19,0.32s-0.72,0.5-1.04,0.87V246H42.95z"/>
				<path class="st2" d="M68.25,233.5c0.78,0,1.49,0.12,2.14,0.37s1.21,0.61,1.69,1.09s0.84,1.06,1.1,1.75s0.4,1.48,0.4,2.37
					c0,0.22-0.01,0.41-0.03,0.56s-0.06,0.26-0.11,0.35c-0.05,0.08-0.12,0.14-0.21,0.18s-0.2,0.05-0.34,0.05h-7.61
					c0.09,1.26,0.43,2.19,1.02,2.78s1.38,0.89,2.35,0.89c0.48,0,0.89-0.06,1.24-0.17s0.65-0.24,0.91-0.37
					c0.26-0.14,0.49-0.26,0.68-0.37c0.2-0.11,0.39-0.17,0.57-0.17c0.12,0,0.22,0.02,0.31,0.07s0.16,0.12,0.23,0.2l0.86,1.08
					c-0.33,0.38-0.7,0.71-1.1,0.97c-0.41,0.26-0.83,0.47-1.28,0.62c-0.44,0.16-0.9,0.27-1.36,0.33s-0.91,0.1-1.34,0.1
					c-0.86,0-1.65-0.14-2.39-0.43c-0.74-0.28-1.38-0.7-1.92-1.26c-0.54-0.56-0.97-1.24-1.28-2.06c-0.31-0.82-0.47-1.77-0.47-2.85
					c0-0.84,0.14-1.63,0.41-2.37s0.66-1.38,1.17-1.93c0.51-0.55,1.13-0.98,1.86-1.3C66.5,233.66,67.33,233.5,68.25,233.5z
					 M68.31,235.62c-0.86,0-1.54,0.24-2.03,0.73c-0.49,0.49-0.8,1.18-0.94,2.08h5.57c0-0.38-0.05-0.75-0.16-1.09
					c-0.1-0.34-0.26-0.64-0.48-0.89c-0.22-0.26-0.49-0.46-0.82-0.61C69.13,235.69,68.75,235.62,68.31,235.62z"/>
				<path class="st2" d="M88.39,243.79c-0.54,0-1.03-0.13-1.46-0.38c-0.43-0.26-0.73-0.67-0.89-1.24c-0.47,0.58-0.97,0.99-1.5,1.24
					s-1.1,0.37-1.7,0.37c-0.5,0-0.94-0.09-1.31-0.26c-0.37-0.18-0.68-0.42-0.94-0.73s-0.44-0.67-0.56-1.09s-0.19-0.88-0.19-1.37
					c0-0.46,0.06-0.92,0.17-1.39c0.12-0.47,0.29-0.92,0.52-1.36c0.23-0.44,0.52-0.84,0.87-1.22s0.76-0.71,1.23-1s1-0.51,1.58-0.67
					s1.23-0.25,1.94-0.25c0.62,0,1.14,0.05,1.58,0.14c0.44,0.1,0.86,0.23,1.27,0.41l-1.15,4.45c-0.13,0.51-0.19,0.94-0.19,1.28
					c0,0.24,0.03,0.44,0.09,0.6s0.14,0.29,0.24,0.38s0.22,0.16,0.37,0.2c0.14,0.04,0.3,0.05,0.47,0.05c0.34,0,0.65-0.11,0.95-0.32
					c0.3-0.21,0.56-0.51,0.79-0.89c0.22-0.38,0.4-0.84,0.53-1.37s0.2-1.1,0.2-1.73c0-1.04-0.16-1.96-0.49-2.75
					c-0.32-0.79-0.78-1.45-1.36-1.99c-0.58-0.53-1.27-0.93-2.08-1.2c-0.81-0.27-1.69-0.4-2.65-0.4c-1.05,0-2.02,0.2-2.92,0.59
					c-0.9,0.4-1.68,0.94-2.34,1.63c-0.66,0.69-1.18,1.5-1.55,2.44s-0.56,1.94-0.56,3.02c0,1.31,0.2,2.47,0.61,3.46
					c0.41,1,0.97,1.83,1.68,2.5s1.55,1.17,2.51,1.51s2.01,0.5,3.13,0.5c0.62,0,1.19-0.03,1.73-0.1s1.03-0.16,1.48-0.28
					c0.45-0.12,0.86-0.25,1.22-0.4c0.37-0.15,0.7-0.31,0.98-0.47c0.16-0.09,0.3-0.13,0.41-0.13c0.23,0,0.4,0.13,0.49,0.38l0.41,1.07
					c-0.83,0.54-1.8,0.99-2.92,1.33c-1.11,0.34-2.38,0.52-3.8,0.52c-1.45,0-2.79-0.23-4.02-0.68s-2.3-1.11-3.2-1.96
					c-0.9-0.85-1.6-1.89-2.11-3.11s-0.76-2.6-0.76-4.13c0-0.86,0.11-1.69,0.33-2.5s0.53-1.57,0.94-2.27
					c0.41-0.71,0.9-1.36,1.48-1.95s1.22-1.1,1.92-1.52s1.47-0.75,2.29-0.99s1.68-0.35,2.57-0.35c1.14,0,2.23,0.19,3.27,0.57
					s1.97,0.92,2.77,1.63s1.45,1.57,1.93,2.59c0.48,1.02,0.72,2.17,0.72,3.45c0,0.86-0.13,1.66-0.38,2.41s-0.6,1.4-1.06,1.95
					c-0.45,0.55-0.98,0.99-1.6,1.3C89.78,243.63,89.11,243.79,88.39,243.79z M83.43,241.87c0.21,0,0.42-0.03,0.63-0.1
					c0.21-0.06,0.41-0.18,0.61-0.34c0.19-0.16,0.37-0.38,0.53-0.65c0.16-0.27,0.29-0.61,0.4-1.02l0.88-3.38
					c-0.26-0.05-0.52-0.07-0.79-0.07c-0.5,0-0.96,0.11-1.39,0.32s-0.81,0.51-1.12,0.88s-0.57,0.79-0.75,1.27
					c-0.18,0.48-0.28,0.97-0.28,1.48s0.11,0.91,0.33,1.19C82.68,241.73,83,241.87,83.43,241.87z"/>
				<path class="st2" d="M95.73,250.02v-16.33h1.81c0.19,0,0.36,0.04,0.49,0.13c0.14,0.09,0.22,0.22,0.26,0.41l0.24,1.14
					c0.5-0.57,1.07-1.03,1.71-1.38s1.4-0.53,2.26-0.53c0.67,0,1.29,0.14,1.84,0.42c0.56,0.28,1.04,0.69,1.44,1.22
					s0.72,1.19,0.94,1.97s0.33,1.67,0.33,2.68c0,0.92-0.12,1.77-0.37,2.56c-0.25,0.78-0.6,1.46-1.06,2.04s-1.02,1.03-1.67,1.35
					s-1.38,0.49-2.19,0.49c-0.7,0-1.29-0.11-1.77-0.32c-0.48-0.21-0.92-0.51-1.3-0.88v5.04L95.73,250.02L95.73,250.02z
					 M101.49,235.8c-0.62,0-1.14,0.13-1.58,0.39s-0.84,0.63-1.22,1.1v5.52c0.34,0.42,0.7,0.71,1.1,0.87s0.82,0.25,1.28,0.25
					c0.45,0,0.85-0.08,1.22-0.25c0.36-0.17,0.67-0.42,0.92-0.77s0.45-0.78,0.58-1.3c0.14-0.52,0.2-1.14,0.2-1.85
					c0-0.72-0.06-1.33-0.17-1.83c-0.12-0.5-0.28-0.91-0.5-1.22s-0.48-0.54-0.79-0.68C102.23,235.87,101.88,235.8,101.49,235.8z"/>
				<path class="st2" d="M114.55,233.5c0.92,0,1.75,0.15,2.5,0.44s1.39,0.72,1.91,1.26c0.53,0.54,0.94,1.21,1.22,1.99
					s0.43,1.66,0.43,2.63c0,0.98-0.14,1.86-0.43,2.64s-0.7,1.45-1.22,2c-0.53,0.55-1.17,0.98-1.91,1.27s-1.58,0.44-2.5,0.44
					s-1.76-0.15-2.51-0.44s-1.39-0.72-1.93-1.27c-0.53-0.55-0.94-1.22-1.24-2s-0.44-1.66-0.44-2.64c0-0.97,0.15-1.84,0.44-2.63
					s0.7-1.45,1.24-1.99c0.53-0.54,1.17-0.96,1.93-1.26S113.63,233.5,114.55,233.5z M114.55,243.9c1.02,0,1.78-0.34,2.27-1.03
					s0.74-1.7,0.74-3.02c0-1.33-0.25-2.34-0.74-3.04s-1.25-1.04-2.27-1.04c-1.04,0-1.81,0.35-2.3,1.05c-0.5,0.7-0.74,1.71-0.74,3.03
					c0,1.32,0.25,2.33,0.74,3.02C112.75,243.55,113.51,243.9,114.55,243.9z"/>
				<path class="st2" d="M126.1,228.17V246h-2.96v-17.83H126.1z"/>
				<path class="st2" d="M134.53,233.5c0.78,0,1.49,0.12,2.14,0.37s1.21,0.61,1.69,1.09s0.84,1.06,1.1,1.75
					c0.26,0.69,0.4,1.48,0.4,2.37c0,0.22-0.01,0.41-0.03,0.56s-0.06,0.26-0.11,0.35c-0.05,0.08-0.12,0.14-0.21,0.18
					s-0.2,0.05-0.34,0.05h-7.61c0.09,1.26,0.43,2.19,1.02,2.78s1.38,0.89,2.35,0.89c0.48,0,0.89-0.06,1.24-0.17s0.65-0.24,0.91-0.37
					c0.26-0.14,0.49-0.26,0.68-0.37c0.2-0.11,0.39-0.17,0.57-0.17c0.12,0,0.22,0.02,0.31,0.07s0.16,0.12,0.23,0.2l0.86,1.08
					c-0.33,0.38-0.7,0.71-1.1,0.97s-0.83,0.47-1.28,0.62s-0.9,0.27-1.36,0.33s-0.91,0.1-1.34,0.1c-0.86,0-1.65-0.14-2.39-0.43
					c-0.74-0.28-1.38-0.7-1.92-1.26s-0.97-1.24-1.28-2.06c-0.31-0.82-0.47-1.77-0.47-2.85c0-0.84,0.14-1.63,0.41-2.37
					s0.66-1.38,1.17-1.93c0.51-0.55,1.13-0.98,1.86-1.3C132.79,233.66,133.61,233.5,134.53,233.5z M134.59,235.62
					c-0.86,0-1.54,0.24-2.03,0.73c-0.49,0.49-0.8,1.18-0.94,2.08h5.57c0-0.38-0.05-0.75-0.16-1.09c-0.1-0.34-0.26-0.64-0.48-0.89
					c-0.22-0.26-0.49-0.46-0.82-0.61C135.42,235.69,135.03,235.62,134.59,235.62z"/>
				<path class="st2" d="M141.89,237.52h6.22v2.47h-6.22V237.52z"/>
				<path class="st2" d="M155.98,233.5c0.78,0,1.49,0.12,2.14,0.37s1.21,0.61,1.69,1.09s0.84,1.06,1.1,1.75
					c0.26,0.69,0.4,1.48,0.4,2.37c0,0.22-0.01,0.41-0.03,0.56s-0.06,0.26-0.11,0.35c-0.05,0.08-0.12,0.14-0.21,0.18
					s-0.2,0.05-0.34,0.05h-7.61c0.09,1.26,0.43,2.19,1.02,2.78s1.38,0.89,2.35,0.89c0.48,0,0.89-0.06,1.24-0.17s0.65-0.24,0.91-0.37
					c0.26-0.14,0.49-0.26,0.68-0.37c0.2-0.11,0.39-0.17,0.57-0.17c0.12,0,0.22,0.02,0.31,0.07s0.16,0.12,0.23,0.2l0.86,1.08
					c-0.33,0.38-0.7,0.71-1.1,0.97s-0.83,0.47-1.28,0.62s-0.9,0.27-1.36,0.33s-0.91,0.1-1.34,0.1c-0.86,0-1.65-0.14-2.39-0.43
					c-0.74-0.28-1.38-0.7-1.92-1.26s-0.97-1.24-1.28-2.06c-0.31-0.82-0.47-1.77-0.47-2.85c0-0.84,0.14-1.63,0.41-2.37
					s0.66-1.38,1.17-1.93c0.51-0.55,1.13-0.98,1.86-1.3C154.23,233.66,155.06,233.5,155.98,233.5z M156.04,235.62
					c-0.86,0-1.54,0.24-2.03,0.73c-0.49,0.49-0.8,1.18-0.94,2.08h5.57c0-0.38-0.05-0.75-0.16-1.09c-0.1-0.34-0.26-0.64-0.48-0.89
					c-0.22-0.26-0.49-0.46-0.82-0.61C156.86,235.69,156.48,235.62,156.04,235.62z"/>
				<path class="st2" d="M163.72,246v-12.31h1.81c0.38,0,0.64,0.18,0.76,0.54l0.19,0.91c0.22-0.24,0.44-0.46,0.68-0.66
					c0.24-0.2,0.49-0.37,0.76-0.52c0.27-0.14,0.56-0.26,0.86-0.34c0.31-0.08,0.65-0.13,1.01-0.13c0.78,0,1.41,0.21,1.91,0.63
					s0.87,0.98,1.12,1.67c0.19-0.41,0.43-0.76,0.72-1.05c0.29-0.29,0.6-0.53,0.95-0.71c0.34-0.18,0.71-0.32,1.1-0.41
					s0.78-0.13,1.17-0.13c0.68,0,1.28,0.1,1.81,0.31c0.53,0.21,0.97,0.51,1.33,0.91c0.36,0.4,0.63,0.89,0.82,1.46
					c0.19,0.58,0.28,1.24,0.28,1.98V246h-2.96v-7.84c0-0.78-0.17-1.37-0.52-1.77c-0.34-0.4-0.85-0.59-1.51-0.59
					c-0.3,0-0.59,0.05-0.85,0.16c-0.26,0.1-0.49,0.25-0.68,0.45s-0.35,0.44-0.46,0.74s-0.17,0.64-0.17,1.02V246h-2.98v-7.84
					c0-0.82-0.17-1.42-0.5-1.8s-0.82-0.56-1.47-0.56c-0.42,0-0.82,0.11-1.19,0.32s-0.72,0.5-1.04,0.87V246H163.72z"/>
				<path class="st2" d="M183.93,250.02v-16.33h1.81c0.19,0,0.36,0.04,0.49,0.13c0.14,0.09,0.22,0.22,0.26,0.41l0.24,1.14
					c0.5-0.57,1.07-1.03,1.71-1.38s1.4-0.53,2.26-0.53c0.67,0,1.29,0.14,1.84,0.42c0.56,0.28,1.04,0.69,1.44,1.22
					c0.4,0.53,0.72,1.19,0.94,1.97s0.33,1.67,0.33,2.68c0,0.92-0.12,1.77-0.37,2.56c-0.25,0.78-0.6,1.46-1.06,2.04
					c-0.46,0.58-1.02,1.03-1.67,1.35s-1.38,0.49-2.19,0.49c-0.7,0-1.29-0.11-1.77-0.32c-0.48-0.21-0.92-0.51-1.3-0.88v5.04
					L183.93,250.02L183.93,250.02z M189.69,235.8c-0.62,0-1.14,0.13-1.58,0.39s-0.84,0.63-1.22,1.1v5.52
					c0.34,0.42,0.7,0.71,1.1,0.87c0.4,0.16,0.82,0.25,1.28,0.25c0.45,0,0.85-0.08,1.22-0.25c0.36-0.17,0.67-0.42,0.92-0.77
					s0.45-0.78,0.58-1.3c0.14-0.52,0.21-1.14,0.21-1.85c0-0.72-0.06-1.33-0.17-1.83c-0.12-0.5-0.28-0.91-0.5-1.22
					s-0.48-0.54-0.79-0.68C190.43,235.87,190.08,235.8,189.69,235.8z"/>
				<path class="st2" d="M200.65,228.17V246h-2.96v-17.83H200.65z"/>
				<path class="st2" d="M209.26,233.5c0.92,0,1.75,0.15,2.5,0.44s1.39,0.72,1.91,1.26s0.94,1.21,1.22,1.99
					c0.29,0.78,0.43,1.66,0.43,2.63c0,0.98-0.14,1.86-0.43,2.64s-0.7,1.45-1.22,2s-1.17,0.98-1.91,1.27s-1.58,0.44-2.5,0.44
					s-1.76-0.15-2.51-0.44s-1.39-0.72-1.93-1.27c-0.53-0.55-0.94-1.22-1.24-2s-0.44-1.66-0.44-2.64c0-0.97,0.15-1.84,0.44-2.63
					s0.7-1.45,1.24-1.99c0.53-0.54,1.17-0.96,1.93-1.26S208.34,233.5,209.26,233.5z M209.26,243.9c1.02,0,1.78-0.34,2.27-1.03
					s0.74-1.7,0.74-3.02c0-1.33-0.25-2.34-0.74-3.04s-1.25-1.04-2.27-1.04c-1.04,0-1.81,0.35-2.3,1.05c-0.5,0.7-0.74,1.71-0.74,3.03
					c0,1.32,0.25,2.33,0.74,3.02C207.45,243.55,208.22,243.9,209.26,243.9z"/>
				<path class="st2" d="M221.24,230.1c0,0.26-0.05,0.5-0.16,0.72c-0.1,0.22-0.24,0.42-0.41,0.59s-0.37,0.3-0.61,0.4
					c-0.23,0.1-0.48,0.15-0.74,0.15c-0.26,0-0.5-0.05-0.73-0.15c-0.23-0.1-0.43-0.23-0.59-0.4s-0.3-0.36-0.4-0.59
					c-0.1-0.22-0.15-0.46-0.15-0.72s0.05-0.51,0.15-0.74c0.1-0.23,0.23-0.43,0.4-0.6s0.37-0.3,0.59-0.4
					c0.23-0.1,0.47-0.15,0.73-0.15s0.51,0.05,0.74,0.15c0.23,0.1,0.43,0.23,0.61,0.4c0.17,0.17,0.31,0.37,0.41,0.6
					C221.19,229.59,221.24,229.84,221.24,230.1z M220.8,233.69V246h-2.96v-12.31H220.8z"/>
				<path class="st2" d="M223.44,244.37c0-0.25,0.05-0.48,0.14-0.71s0.22-0.42,0.38-0.58s0.36-0.29,0.58-0.38
					c0.22-0.1,0.46-0.14,0.72-0.14c0.25,0,0.48,0.05,0.71,0.14c0.22,0.1,0.42,0.22,0.58,0.38s0.29,0.35,0.38,0.58
					c0.1,0.22,0.14,0.46,0.14,0.71c0,0.26-0.05,0.49-0.14,0.71c-0.1,0.22-0.22,0.41-0.38,0.57s-0.35,0.29-0.58,0.38
					c-0.22,0.09-0.46,0.14-0.71,0.14c-0.26,0-0.5-0.05-0.72-0.14s-0.42-0.22-0.58-0.38s-0.29-0.35-0.38-0.57
					S223.44,244.62,223.44,244.37z"/>
				<path class="st2" d="M230.08,246v-10.08l-1.07-0.17c-0.23-0.04-0.42-0.12-0.56-0.24s-0.21-0.29-0.21-0.5v-1.21h1.84v-0.91
					c0-0.7,0.11-1.34,0.32-1.9s0.52-1.04,0.91-1.43c0.4-0.39,0.88-0.69,1.45-0.9s1.21-0.31,1.92-0.31c0.57,0,1.1,0.08,1.58,0.23
					l-0.06,1.49c-0.02,0.23-0.12,0.38-0.32,0.43c-0.2,0.06-0.43,0.08-0.7,0.08c-0.35,0-0.67,0.04-0.94,0.11s-0.51,0.21-0.7,0.4
					c-0.19,0.19-0.34,0.44-0.44,0.74c-0.1,0.31-0.15,0.69-0.15,1.15v0.82h3.2v2.11h-3.11V246H230.08z"/>
				<path class="st2" d="M237.96,246v-12.31h1.74c0.3,0,0.52,0.06,0.64,0.17s0.2,0.3,0.24,0.58l0.18,1.49
					c0.44-0.76,0.96-1.36,1.55-1.8s1.26-0.66,1.99-0.66c0.61,0,1.11,0.14,1.51,0.42l-0.38,2.22c-0.02,0.14-0.08,0.25-0.16,0.31
					s-0.19,0.09-0.32,0.09c-0.12,0-0.28-0.03-0.49-0.08s-0.48-0.08-0.83-0.08c-0.62,0-1.14,0.17-1.58,0.51s-0.81,0.84-1.12,1.49V246
					H237.96z"/>
			</g>
			<g class="st0">
				<path class="st3" d="M6.08,16c0.14,0.02,0.27,0.05,0.39,0.11c0.11,0.05,0.23,0.13,0.33,0.23c0.11,0.1,0.23,0.24,0.36,0.41
					l13.66,17.41c-0.05-0.42-0.08-0.83-0.1-1.23c-0.02-0.4-0.03-0.78-0.03-1.12V15.97h4.27V42h-2.5c-0.38,0-0.7-0.06-0.95-0.18
					s-0.5-0.34-0.74-0.65L7.16,23.84c0.04,0.38,0.06,0.76,0.08,1.14s0.03,0.72,0.03,1.03V42H3V15.97h2.54
					C5.75,15.97,5.93,15.98,6.08,16z"/>
				<path class="st3" d="M37.85,23.24c1.38,0,2.63,0.22,3.75,0.67c1.12,0.44,2.08,1.07,2.87,1.89s1.4,1.81,1.84,2.99
					c0.43,1.18,0.65,2.49,0.65,3.94c0,1.46-0.22,2.78-0.65,3.96c-0.43,1.18-1.04,2.18-1.84,3.01s-1.75,1.46-2.87,1.91
					c-1.12,0.44-2.37,0.67-3.75,0.67s-2.63-0.22-3.76-0.67c-1.13-0.44-2.09-1.08-2.89-1.91s-1.42-1.83-1.85-3.01
					c-0.44-1.18-0.66-2.5-0.66-3.96c0-1.45,0.22-2.77,0.66-3.94c0.44-1.17,1.06-2.17,1.85-2.99c0.8-0.82,1.76-1.45,2.89-1.89
					S36.47,23.24,37.85,23.24z M37.85,38.85c1.54,0,2.67-0.52,3.41-1.55c0.74-1.03,1.11-2.54,1.11-4.54c0-1.99-0.37-3.51-1.11-4.55
					c-0.74-1.04-1.88-1.57-3.41-1.57c-1.56,0-2.71,0.52-3.46,1.57c-0.74,1.05-1.12,2.57-1.12,4.54c0,1.98,0.37,3.49,1.12,4.53
					C35.13,38.33,36.29,38.85,37.85,38.85z"/>
				<path class="st3" d="M54.5,23.53v11.74c0,1.13,0.26,2,0.78,2.62s1.31,0.93,2.35,0.93c0.77,0,1.49-0.17,2.16-0.51
					s1.31-0.81,1.91-1.41V23.53h4.45V42h-2.72c-0.58,0-0.95-0.27-1.13-0.81l-0.31-1.48c-0.38,0.38-0.78,0.74-1.19,1.05
					c-0.41,0.32-0.84,0.59-1.31,0.81s-0.96,0.4-1.49,0.52c-0.53,0.13-1.11,0.19-1.72,0.19c-1.01,0-1.9-0.17-2.67-0.51
					s-1.43-0.83-1.95-1.45c-0.53-0.62-0.93-1.37-1.2-2.22c-0.27-0.86-0.4-1.8-0.4-2.83V23.53H54.5z"/>
				<path class="st3" d="M81.86,27.13c-0.12,0.19-0.25,0.33-0.38,0.41s-0.3,0.12-0.5,0.12c-0.22,0-0.45-0.06-0.69-0.18
					c-0.25-0.12-0.53-0.25-0.85-0.4s-0.69-0.29-1.11-0.41c-0.41-0.12-0.9-0.18-1.47-0.18c-0.88,0-1.57,0.19-2.07,0.56
					c-0.5,0.37-0.76,0.86-0.76,1.46c0,0.4,0.13,0.73,0.39,1s0.6,0.51,1.03,0.71s0.91,0.39,1.45,0.55s1.09,0.34,1.66,0.53
					c0.56,0.19,1.12,0.41,1.66,0.66c0.54,0.25,1.02,0.56,1.45,0.94s0.77,0.83,1.03,1.36c0.26,0.53,0.39,1.16,0.39,1.91
					c0,0.89-0.16,1.71-0.49,2.46c-0.32,0.75-0.8,1.4-1.42,1.94c-0.62,0.55-1.4,0.97-2.31,1.28c-0.92,0.31-1.97,0.46-3.16,0.46
					c-0.64,0-1.26-0.06-1.86-0.17c-0.61-0.11-1.19-0.27-1.75-0.48c-0.56-0.2-1.07-0.44-1.55-0.72c-0.47-0.28-0.89-0.58-1.25-0.9
					l1.03-1.69c0.13-0.2,0.29-0.36,0.47-0.47c0.18-0.11,0.41-0.16,0.68-0.16c0.28,0,0.54,0.08,0.78,0.23
					c0.25,0.16,0.53,0.32,0.85,0.5s0.71,0.35,1.14,0.5c0.44,0.16,0.99,0.23,1.67,0.23c0.53,0,0.98-0.06,1.36-0.19
					c0.38-0.13,0.69-0.29,0.94-0.5s0.43-0.44,0.54-0.71s0.17-0.55,0.17-0.84c0-0.43-0.13-0.79-0.39-1.06
					c-0.26-0.28-0.6-0.52-1.03-0.72s-0.91-0.39-1.46-0.55c-0.55-0.16-1.1-0.34-1.67-0.53c-0.57-0.19-1.13-0.42-1.67-0.67
					c-0.55-0.26-1.03-0.58-1.46-0.98c-0.43-0.4-0.77-0.88-1.03-1.46s-0.39-1.27-0.39-2.09c0-0.76,0.15-1.48,0.45-2.16
					c0.3-0.68,0.74-1.28,1.32-1.79s1.31-0.92,2.18-1.22c0.87-0.31,1.87-0.46,3.02-0.46c1.27,0,2.43,0.21,3.47,0.63
					s1.91,0.97,2.61,1.66L81.86,27.13z"/>
				<path class="st3" d="M106.55,27.44c-0.13,0.17-0.26,0.3-0.39,0.4s-0.31,0.14-0.55,0.14c-0.23,0-0.45-0.07-0.67-0.21
					s-0.47-0.29-0.77-0.47c-0.3-0.17-0.66-0.33-1.07-0.47c-0.41-0.14-0.93-0.21-1.54-0.21c-0.78,0-1.46,0.14-2.05,0.42
					c-0.59,0.28-1.08,0.69-1.47,1.21c-0.39,0.53-0.68,1.17-0.87,1.92s-0.29,1.6-0.29,2.55c0,0.98,0.1,1.86,0.31,2.63
					c0.21,0.77,0.51,1.41,0.91,1.93s0.88,0.92,1.44,1.19c0.56,0.27,1.2,0.4,1.91,0.4s1.28-0.09,1.72-0.26s0.81-0.37,1.11-0.58
					s0.56-0.4,0.78-0.58c0.22-0.17,0.47-0.26,0.75-0.26c0.36,0,0.63,0.14,0.81,0.41l1.28,1.62c-0.49,0.58-1.03,1.06-1.6,1.45
					s-1.17,0.7-1.79,0.94c-0.62,0.23-1.26,0.4-1.92,0.5c-0.66,0.1-1.31,0.14-1.96,0.14c-1.14,0-2.21-0.21-3.22-0.64
					s-1.89-1.05-2.64-1.86c-0.75-0.82-1.34-1.81-1.78-3c-0.44-1.18-0.66-2.53-0.66-4.04c0-1.36,0.2-2.61,0.59-3.77
					s0.96-2.16,1.72-3.01s1.69-1.51,2.81-1.99c1.12-0.48,2.4-0.72,3.85-0.72c1.38,0,2.59,0.22,3.63,0.67
					c1.04,0.44,1.97,1.08,2.8,1.91L106.55,27.44z"/>
				<path class="st3" d="M118.63,23.24c1.38,0,2.63,0.22,3.75,0.67c1.12,0.44,2.08,1.07,2.87,1.89s1.4,1.81,1.84,2.99
					s0.65,2.49,0.65,3.94c0,1.46-0.22,2.78-0.65,3.96c-0.43,1.18-1.04,2.18-1.84,3.01s-1.75,1.46-2.87,1.91
					c-1.12,0.44-2.37,0.67-3.75,0.67s-2.63-0.22-3.76-0.67c-1.13-0.44-2.09-1.08-2.89-1.91s-1.42-1.83-1.85-3.01
					c-0.44-1.18-0.66-2.5-0.66-3.96c0-1.45,0.22-2.77,0.66-3.94s1.06-2.17,1.85-2.99c0.8-0.82,1.76-1.45,2.89-1.89
					S117.25,23.24,118.63,23.24z M118.63,38.85c1.54,0,2.67-0.52,3.41-1.55c0.74-1.03,1.11-2.54,1.11-4.54
					c0-1.99-0.37-3.51-1.11-4.55c-0.74-1.04-1.88-1.57-3.41-1.57c-1.56,0-2.71,0.52-3.46,1.57c-0.74,1.05-1.12,2.57-1.12,4.54
					c0,1.98,0.37,3.49,1.12,4.53C115.92,38.33,117.07,38.85,118.63,38.85z"/>
				<path class="st3" d="M131.21,42V23.53h2.72c0.58,0,0.95,0.27,1.13,0.81l0.31,1.46c0.37-0.38,0.76-0.73,1.18-1.04
					c0.41-0.31,0.85-0.58,1.31-0.81c0.46-0.23,0.96-0.4,1.48-0.52c0.53-0.12,1.1-0.18,1.73-0.18c1.01,0,1.9,0.17,2.68,0.51
					s1.43,0.82,1.95,1.44s0.92,1.36,1.19,2.21c0.27,0.86,0.41,1.8,0.41,2.83V42h-4.45V30.25c0-1.13-0.26-2-0.78-2.62
					c-0.52-0.62-1.3-0.93-2.35-0.93c-0.77,0-1.49,0.17-2.16,0.52s-1.31,0.82-1.91,1.42V42H131.21z"/>
				<path class="st3" d="M157.74,42.29c-1.6,0-2.83-0.45-3.69-1.36s-1.3-2.16-1.3-3.75V26.86h-1.87c-0.24,0-0.45-0.08-0.62-0.23
					c-0.17-0.16-0.26-0.39-0.26-0.7v-1.76l2.97-0.49l0.94-5.04c0.05-0.24,0.16-0.43,0.33-0.56c0.17-0.13,0.39-0.2,0.66-0.2h2.3v5.81
					h4.86v3.17h-4.86v10.01c0,0.58,0.14,1.03,0.43,1.35s0.67,0.49,1.15,0.49c0.28,0,0.51-0.03,0.69-0.1
					c0.19-0.07,0.35-0.14,0.49-0.21s0.26-0.14,0.37-0.21s0.22-0.1,0.32-0.1c0.13,0,0.24,0.03,0.32,0.1s0.17,0.17,0.27,0.3l1.33,2.16
					c-0.65,0.54-1.39,0.95-2.23,1.22S158.64,42.29,157.74,42.29z"/>
				<path class="st3" d="M180.08,42h-2c-0.42,0-0.75-0.06-0.99-0.19s-0.42-0.38-0.54-0.76l-0.4-1.31c-0.47,0.42-0.93,0.79-1.38,1.11
					c-0.45,0.32-0.92,0.58-1.4,0.8c-0.48,0.22-0.99,0.38-1.53,0.49s-1.14,0.16-1.8,0.16c-0.78,0-1.5-0.11-2.16-0.32
					s-1.23-0.53-1.7-0.95c-0.47-0.42-0.84-0.95-1.11-1.57c-0.26-0.63-0.4-1.35-0.4-2.19c0-0.7,0.18-1.39,0.55-2.07
					c0.37-0.68,0.97-1.29,1.83-1.84c0.86-0.55,1.99-1,3.4-1.36c1.41-0.36,3.17-0.54,5.27-0.54v-1.09c0-1.25-0.26-2.17-0.78-2.77
					s-1.28-0.9-2.28-0.9c-0.72,0-1.32,0.08-1.8,0.25s-0.9,0.36-1.25,0.57s-0.68,0.4-0.98,0.57s-0.63,0.25-0.99,0.25
					c-0.3,0-0.56-0.08-0.78-0.23c-0.21-0.16-0.39-0.35-0.52-0.58l-0.81-1.42c2.12-1.94,4.69-2.92,7.69-2.92
					c1.08,0,2.04,0.18,2.89,0.53s1.56,0.85,2.15,1.48s1.04,1.38,1.34,2.26c0.3,0.88,0.46,1.84,0.46,2.88V42H180.08z M171.44,39.23
					c0.46,0,0.88-0.04,1.26-0.12c0.38-0.08,0.75-0.21,1.09-0.37c0.34-0.17,0.67-0.37,0.99-0.61s0.64-0.53,0.96-0.86v-3.09
					c-1.3,0-2.38,0.08-3.25,0.25c-0.87,0.17-1.57,0.37-2.1,0.62s-0.9,0.55-1.12,0.89s-0.33,0.71-0.33,1.11
					c0,0.79,0.23,1.35,0.69,1.69C170.09,39.06,170.7,39.23,171.44,39.23z"/>
				<path class="st3" d="M197.43,27.44c-0.13,0.17-0.26,0.3-0.39,0.4s-0.31,0.14-0.55,0.14c-0.23,0-0.45-0.07-0.67-0.21
					s-0.47-0.29-0.77-0.47c-0.3-0.17-0.66-0.33-1.07-0.47s-0.93-0.21-1.54-0.21c-0.78,0-1.46,0.14-2.05,0.42s-1.08,0.69-1.47,1.21
					c-0.39,0.53-0.68,1.17-0.87,1.92s-0.29,1.6-0.29,2.55c0,0.98,0.11,1.86,0.31,2.63c0.21,0.77,0.51,1.41,0.91,1.93
					c0.4,0.52,0.88,0.92,1.44,1.19s1.2,0.4,1.91,0.4s1.28-0.09,1.72-0.26s0.81-0.37,1.11-0.58c0.3-0.21,0.56-0.4,0.78-0.58
					c0.22-0.17,0.47-0.26,0.75-0.26c0.36,0,0.63,0.14,0.81,0.41l1.28,1.62c-0.49,0.58-1.03,1.06-1.6,1.45s-1.17,0.7-1.79,0.94
					c-0.62,0.23-1.26,0.4-1.92,0.5s-1.31,0.14-1.96,0.14c-1.14,0-2.21-0.21-3.22-0.64s-1.89-1.05-2.64-1.86
					c-0.75-0.82-1.34-1.81-1.78-3c-0.44-1.18-0.66-2.53-0.66-4.04c0-1.36,0.2-2.61,0.59-3.77s0.96-2.16,1.72-3.01
					s1.69-1.51,2.81-1.99s2.4-0.72,3.85-0.72c1.38,0,2.59,0.22,3.63,0.67c1.04,0.44,1.97,1.08,2.8,1.91L197.43,27.44z"/>
				<path class="st3" d="M207.69,42.29c-1.6,0-2.83-0.45-3.69-1.36s-1.3-2.16-1.3-3.75V26.86h-1.87c-0.24,0-0.45-0.08-0.62-0.23
					c-0.17-0.16-0.26-0.39-0.26-0.7v-1.76l2.97-0.49l0.94-5.04c0.05-0.24,0.16-0.43,0.33-0.56c0.17-0.13,0.39-0.2,0.66-0.2h2.3v5.81
					h4.86v3.17h-4.86v10.01c0,0.58,0.14,1.03,0.43,1.35s0.67,0.49,1.15,0.49c0.28,0,0.51-0.03,0.69-0.1
					c0.19-0.07,0.35-0.14,0.49-0.21s0.26-0.14,0.37-0.21s0.22-0.1,0.32-0.1c0.13,0,0.24,0.03,0.32,0.1s0.17,0.17,0.27,0.3l1.33,2.16
					c-0.65,0.54-1.39,0.95-2.23,1.22S208.59,42.29,207.69,42.29z"/>
				<path class="st3" d="M223.19,23.24c1.16,0,2.24,0.19,3.21,0.56c0.98,0.37,1.82,0.92,2.53,1.63c0.71,0.71,1.26,1.59,1.66,2.63
					c0.4,1.04,0.59,2.22,0.59,3.56c0,0.34-0.01,0.62-0.04,0.84c-0.03,0.22-0.08,0.4-0.16,0.52c-0.08,0.12-0.18,0.22-0.32,0.27
					c-0.13,0.05-0.3,0.08-0.5,0.08h-11.41c0.13,1.9,0.64,3.29,1.53,4.18s2.06,1.33,3.53,1.33c0.72,0,1.34-0.08,1.86-0.25
					s0.98-0.35,1.37-0.56c0.39-0.2,0.73-0.39,1.03-0.56c0.3-0.17,0.58-0.25,0.85-0.25c0.18,0,0.34,0.04,0.47,0.11
					s0.25,0.17,0.34,0.31l1.3,1.62c-0.49,0.58-1.04,1.06-1.66,1.45c-0.61,0.39-1.25,0.7-1.92,0.94c-0.67,0.23-1.34,0.4-2.03,0.5
					s-1.36,0.14-2.01,0.14c-1.28,0-2.48-0.21-3.58-0.64s-2.06-1.06-2.88-1.89c-0.82-0.83-1.46-1.87-1.93-3.1
					c-0.47-1.23-0.7-2.65-0.7-4.27c0-1.26,0.2-2.45,0.61-3.55c0.41-1.11,0.99-2.08,1.75-2.9s1.69-1.47,2.79-1.95
					C220.57,23.48,221.81,23.24,223.19,23.24z M223.28,26.43c-1.3,0-2.31,0.37-3.04,1.1s-1.2,1.77-1.4,3.11h8.35
					c0-0.58-0.08-1.12-0.23-1.63c-0.16-0.51-0.4-0.96-0.72-1.34c-0.32-0.38-0.73-0.69-1.22-0.91
					C224.52,26.54,223.94,26.43,223.28,26.43z"/>
				<path class="st3" d="M234.8,42V23.53h2.61c0.46,0,0.77,0.08,0.95,0.25s0.3,0.46,0.36,0.86l0.27,2.23
					c0.66-1.14,1.43-2.04,2.32-2.7c0.89-0.66,1.88-0.99,2.99-0.99c0.91,0,1.67,0.21,2.27,0.63l-0.58,3.33
					c-0.04,0.22-0.11,0.37-0.23,0.46c-0.12,0.09-0.28,0.13-0.49,0.13c-0.18,0-0.43-0.04-0.74-0.13s-0.73-0.13-1.24-0.13
					c-0.92,0-1.72,0.25-2.38,0.76s-1.22,1.26-1.67,2.24V42H234.8z"/>
			</g>
			<g id="Group-2" transform="translate(10.000000, 299.000000)">
				<path id="Path" class="st4" d="M31.03,67.79C11.46,95.04,0.88,122.2,0.07,147.95c-0.92,25.75,7.91,50.17,19.56,75.33
					c11.66,25.08,26.22,50.91,45.79,54.33c19.56,3.33,44.12-15.67,70.92-26.41c26.9-10.67,56.02-13,74.18-29.08
					c18.14-16.17,25.21-46.08,21.55-75.25c-3.75-29.16-18.4-57.59-40.87-84.25c-22.56-26.75-53.11-51.75-82.58-50.58
					C79.06,13.21,50.51,40.54,31.03,67.79z"/>
				<path class="st1" d="M80.47,181.15C74.46,197.97,72,274.94,72,288h31.07L116,258.79L93.55,177L80.47,181.15z"/>
				<path class="st1" d="M92,184.36c1.68,11.13,16.65,94.81,19.99,103.64h44.53c1.89-6.31,9.04-80.53,0-107.86
					C147.49,152.81,92,184.36,92,184.36z"/>
				<path class="st5" d="M84.25,140c-2.87-0.55-41.95-17.98-50.8-25.39s1.72-13.14,5.06-11.24c3.33,1.91,38.04,16.52,45.17,18.65
					C90.8,124.16,84.25,140,84.25,140z"/>
				<polygon id="Rectangle" class="st6" points="53.09,61.24 24.87,59.04 20.61,113.54 48.84,115.74 				"/>
				<line class="st7" x1="65" y1="72" x2="50" y2="102"/>
				
					<ellipse id="Oval" transform="matrix(0.1087 -0.9941 0.9941 0.1087 74.1669 158.852)" class="st5" cx="125.67" cy="38.07" rx="21.23" ry="14.64"/>
				<path class="st2" d="M128.49,63c-48.83,0-51.11,118.67-48.97,120.81s51.8,12.18,78.86,0.99C164.99,156.16,160.5,63,128.49,63z"
					/>
				<path class="st5" d="M51,87.67c0-2.78,2.97-8.58,7.34-7.55c3,0.71,7.13,6.72,8.92,9.27c6.05,4.16,44.34,35.78,47.28,38.84
					c0.12-2.55,2.58-7.66,5.53-12.39l24.93,16.1c-2.58,7.16-18.67,26.06-24.93,26.06c-16.45,0-49.7-44.61-58.13-56.58
					C58,98.69,51,93.23,51,87.67z"/>
				<path class="st1" d="M150,27.62c0-6.17-4.93-9.78-6.53-11.47c-3.24-3.42-5.18-12.54-12.02-12.54c-1.94,0-4.96,1.15-6.85,1.15
					C122.23,4.75,117.51,0,112.75,0C104.77,0,103,7.46,103,9.75c0,8.39,10.28,14.72,11.65,15.48c0.58-0.96,3.24-4.57,4.12-5.11
					c1.06,2.24,8.2,5.97,13.6,9.32c3.02,1.87,4.93,16.42,4.88,17.57C142.29,47.02,150,39.24,150,27.62z"/>
				<circle class="st5" cx="139" cy="42" r="4"/>
				<path class="st5" d="M122.01,70.7c-0.32,2.07,12.44,1.55,12.59-0.66l1.4-20.76L124.44,48C124.44,48,122.31,68.63,122.01,70.7z"
					/>
				<path class="st2" d="M154.4,80.74c14.71,7.92,1.56,49.05-7.73,53.26c-10.49,0-31.67-15.02-31.67-20.09
					C115,108.84,135.32,70.47,154.4,80.74z"/>
				<path class="st5" d="M33,82.98C33,90.19,24.73,94,23.52,94C21,94,21,86.11,21,84.07c0-4.66,4.38-8.07,7.71-8.07
					S33,78.9,33,82.98z"/>
			</g>
		</g>
	</g>
</g>
</svg>
