<svg width="55" height="55" viewBox="0 0 55 55" fill="none" xmlns="http://www.w3.org/2000/svg">
<path d="M50.7031 30.0781C49.5983 30.0781 48.7389 30.8255 48.4448 31.1188L44.4496 33.5156H41.25C41.0221 33.5156 40.8035 33.6062 40.6423 33.7673C40.4812 33.9285 40.3906 34.1471 40.3906 34.375V36.0938H38.5405L37.8008 31.6555C37.7629 31.4311 37.6375 31.2308 37.4521 31.0987C37.2668 30.9666 37.0366 30.9135 36.812 30.9509C36.5875 30.9884 36.387 31.1134 36.2546 31.2985C36.1221 31.4836 36.0685 31.7136 36.1055 31.9382L36.7981 36.0938H34.2608L33.6343 31.7071C33.5753 31.2945 33.4172 30.9024 33.1735 30.5643C32.9298 30.2263 32.6077 29.9523 32.2349 29.766L29.6031 28.45C29.4838 28.3904 29.3522 28.3594 29.2188 28.3594H25.7812C25.6478 28.3594 25.5162 28.3904 25.3969 28.45L22.7651 29.766C22.3923 29.9524 22.0704 30.2265 21.8267 30.5646C21.5831 30.9027 21.4251 31.2949 21.3662 31.7075L20.7392 36.0938H18.2019L18.8945 31.9382C18.9134 31.8268 18.91 31.7128 18.8847 31.6026C18.8594 31.4925 18.8126 31.3885 18.747 31.2964C18.6814 31.2044 18.5984 31.1262 18.5025 31.0663C18.4067 31.0065 18.3 30.9661 18.1885 30.9475C18.0771 30.9289 17.963 30.9325 17.853 30.958C17.7429 30.9835 17.6389 31.0305 17.547 31.0963C17.4551 31.1621 17.3771 31.2453 17.3174 31.3413C17.2577 31.4372 17.2176 31.544 17.1992 31.6555L16.4595 36.0938H14.6094V34.375C14.6094 34.1471 14.5188 33.9285 14.3577 33.7673C14.1965 33.6062 13.9779 33.5156 13.75 33.5156H10.5504L6.5552 31.1188C6.26108 30.8255 5.40171 30.0781 4.29688 30.0781C3.61335 30.0789 2.95804 30.3508 2.47471 30.8341C1.99139 31.3174 1.71952 31.9727 1.71875 32.6562V42.9688C1.71873 43.1491 1.77546 43.3249 1.8809 43.4712C1.98634 43.6176 2.13514 43.727 2.30624 43.7841L2.57812 43.8747V49.8438H1.71875V51.5625H53.2812V49.8438H52.4219V42.1846L52.7605 42.0394C52.915 41.9732 53.0467 41.8631 53.1392 41.7228C53.2318 41.5825 53.2812 41.4181 53.2812 41.25V32.6562C53.2805 31.9727 53.0086 31.3174 52.5253 30.8341C52.042 30.3508 51.3867 30.0789 50.7031 30.0781ZM42.9688 46.2852L44.9453 49.8438H42.9688V46.2852ZM42.9688 37.8125H45.5469C45.6803 37.8125 45.8119 37.7815 45.9312 37.7218L48.125 36.625V38.1956L42.9688 41.4182V37.8125ZM23.0667 31.9513C23.0864 31.8136 23.1392 31.6828 23.2205 31.5699C23.3019 31.4571 23.4094 31.3656 23.5338 31.3034L25.984 30.0781H29.016L31.4667 31.3034C31.5909 31.3657 31.6983 31.4571 31.7795 31.5698C31.8608 31.6826 31.9135 31.8133 31.9333 31.9509L32.5249 36.0938H30.9375V32.6562C30.9375 32.4283 30.847 32.2097 30.6858 32.0486C30.5246 31.8874 30.306 31.7969 30.0781 31.7969H24.9219C24.694 31.7969 24.4754 31.8874 24.3142 32.0486C24.153 32.2097 24.0625 32.4283 24.0625 32.6562V36.0938H22.4751L23.0667 31.9513ZM29.2188 36.0938H25.7812V33.5156H29.2188V36.0938ZM41.25 37.8125V39.5312H13.75V37.8125H41.25ZM32.6562 41.3973V41.25H37.8125V49.8438H30.1922L30.8943 44.2272L31.901 43.2205C32.1412 42.9817 32.3316 42.6976 32.4613 42.3846C32.5909 42.0716 32.6572 41.736 32.6562 41.3973ZM23.099 43.2205L24.1057 44.2272L24.8078 49.8438H17.1875V41.25H22.3438V41.3973C22.3428 41.736 22.4091 42.0716 22.5387 42.3846C22.6684 42.6976 22.8588 42.9817 23.099 43.2205ZM12.0312 44.8476L11.1358 41.8623C11.0742 41.6572 10.9383 41.4825 10.7548 41.3722L6.875 39.0445V36.625L9.06877 37.7218C9.18811 37.7815 9.31971 37.8125 9.45312 37.8125H12.0312V44.8476ZM4.29688 44.4475L7.0328 45.3593L8.31445 49.8438H4.29688V44.4475ZM10.1014 49.8438L8.56056 44.4512C8.52219 44.3169 8.45165 44.1939 8.35507 44.093C8.25848 43.9921 8.13876 43.9163 8.00626 43.8721L3.4375 42.3494V32.6562C3.43781 32.4284 3.52845 32.21 3.68955 32.0489C3.85065 31.8878 4.06905 31.7972 4.29688 31.7969C4.74676 31.7969 5.24144 32.2244 5.37528 32.3701C5.43264 32.4343 5.49943 32.4895 5.57337 32.5337L9.87024 35.1118C10.0039 35.1919 10.1567 35.2343 10.3125 35.2344H12.8906V36.0938H9.65583L6.39998 34.4657C6.26895 34.4001 6.12335 34.3692 5.977 34.3758C5.83066 34.3824 5.68842 34.4263 5.56381 34.5033C5.43919 34.5803 5.33633 34.6879 5.265 34.8159C5.19367 34.9438 5.15624 35.0879 5.15625 35.2344V39.5312C5.15626 39.6796 5.19468 39.8255 5.26777 39.9546C5.34087 40.0837 5.44615 40.1917 5.57337 40.2681L9.58493 42.6751L11.7354 49.8438H10.1014ZM13.75 49.8438V41.25H15.4688V49.8438H13.75ZM26.5399 49.8438L25.7745 43.7216C25.7509 43.5319 25.6647 43.3556 25.5295 43.2205L24.3143 42.0053C24.2342 41.9256 24.1707 41.8309 24.1275 41.7265C24.0843 41.6221 24.0622 41.5102 24.0625 41.3973V41.25H30.9375V41.3973C30.9378 41.5102 30.9157 41.6221 30.8725 41.7265C30.8293 41.8309 30.7658 41.9256 30.6857 42.0053L29.4705 43.2205C29.3353 43.3556 29.249 43.5319 29.2254 43.7216L28.46 49.8438H26.5399ZM39.5312 49.8438V41.25H41.25V49.8438H39.5312ZM46.9119 49.8438L43.2571 43.265L49.4396 39.4007C49.5632 39.3235 49.6652 39.216 49.7359 39.0885C49.8066 38.961 49.8437 38.8177 49.8438 38.6719V35.2344C49.8438 35.0879 49.8063 34.9438 49.735 34.8159C49.6637 34.6879 49.5608 34.5803 49.4362 34.5033C49.3116 34.4263 49.1693 34.3824 49.023 34.3758C48.8766 34.3692 48.731 34.4001 48.6 34.4657L45.3442 36.0938H42.1094V35.2344H44.6875C44.8433 35.2343 44.9961 35.1919 45.1298 35.1118L49.4266 32.5337C49.5006 32.4895 49.5674 32.4343 49.6247 32.3701C49.733 32.2492 50.234 31.7969 50.7031 31.7969C50.931 31.7972 51.1494 31.8878 51.3104 32.0489C51.4715 32.21 51.5622 32.4284 51.5625 32.6562V40.6836L46.0677 43.0384C45.88 43.1188 45.7271 43.2634 45.6363 43.4463C45.5456 43.6293 45.5229 43.8385 45.5724 44.0366L47.0244 49.8438H46.9119ZM50.7031 49.8438H48.7961L47.4175 44.3296L50.7031 42.9215V49.8438Z" fill="#1B2B67"/>
<path d="M30.0781 14.4621V17.1875C30.0781 17.343 30.1204 17.4956 30.2003 17.6291C30.2802 17.7625 30.3949 17.8717 30.532 17.9451C30.6691 18.0185 30.8236 18.0533 30.979 18.0458C31.1343 18.0383 31.2847 17.9888 31.4141 17.9025L34.418 15.8996C34.5193 16.4991 34.8293 17.0435 35.2933 17.4364C35.7572 17.8294 36.3451 18.0456 36.9531 18.0469H40.1304L45.0701 21.34C45.1996 21.4263 45.35 21.4758 45.5053 21.4834C45.6607 21.4909 45.8152 21.4561 45.9523 21.3827C46.0895 21.3093 46.2042 21.2001 46.2841 21.0666C46.364 20.9332 46.4062 20.7806 46.4062 20.625V17.8996C46.9086 17.7213 47.3434 17.392 47.6511 16.9568C47.9589 16.5215 48.1244 16.0018 48.125 15.4688V10.3125C48.1242 9.62897 47.8524 8.97366 47.369 8.49034C46.8857 8.00701 46.2304 7.73514 45.5469 7.73438H42.1094V6.875C42.1086 6.19147 41.8367 5.53616 41.3534 5.05284C40.8701 4.56951 40.2148 4.29764 39.5312 4.29688H30.9375C30.254 4.29764 29.5987 4.56951 29.1153 5.05284C28.632 5.53616 28.3601 6.19147 28.3594 6.875V12.0312C28.36 12.5643 28.5255 13.0841 28.8332 13.5193C29.1409 13.9545 29.5758 14.2838 30.0781 14.4621ZM45.5469 9.45312C45.7747 9.45344 45.9931 9.54408 46.1542 9.70518C46.3153 9.86627 46.4059 10.0847 46.4062 10.3125V15.4688C46.4059 15.6966 46.3153 15.915 46.1542 16.0761C45.9931 16.2372 45.7747 16.3278 45.5469 16.3281C45.319 16.3281 45.1004 16.4187 44.9392 16.5798C44.778 16.741 44.6875 16.9596 44.6875 17.1875V19.0191L40.8673 16.4725C40.7261 16.3784 40.5603 16.3282 40.3906 16.3281H36.9531C36.7253 16.3278 36.5069 16.2372 36.3458 16.0761C36.1847 15.915 36.0941 15.6966 36.0938 15.4688V14.7829L36.3539 14.6094H39.5312C40.2148 14.6086 40.8701 14.3367 41.3534 13.8534C41.8367 13.3701 42.1086 12.7148 42.1094 12.0312V9.45312H45.5469ZM36.0938 12.8906V10.3125C36.0941 10.0847 36.1847 9.86627 36.3458 9.70518C36.5069 9.54408 36.7253 9.45344 36.9531 9.45312H40.3906V12.0312C40.3903 12.2591 40.2997 12.4775 40.1386 12.6386C39.9775 12.7997 39.7591 12.8903 39.5312 12.8906H36.0938ZM30.0781 6.875C30.0784 6.64718 30.1691 6.42877 30.3302 6.26768C30.4913 6.10658 30.7097 6.01594 30.9375 6.01562H39.5312C39.7591 6.01594 39.9775 6.10658 40.1386 6.26768C40.2997 6.42877 40.3903 6.64718 40.3906 6.875V7.73438H36.9531C36.2696 7.73514 35.6143 8.00701 35.131 8.49034C34.6476 8.97366 34.3758 9.62897 34.375 10.3125V13.863L31.7969 15.5818V13.75C31.7969 13.5221 31.7063 13.3035 31.5452 13.1423C31.384 12.9812 31.1654 12.8906 30.9375 12.8906C30.7097 12.8903 30.4913 12.7997 30.3302 12.6386C30.1691 12.4775 30.0784 12.2591 30.0781 12.0312V6.875Z" fill="#1B2B67"/>
<path d="M6.01562 17.1875V19.7656C6.01563 19.9212 6.05785 20.0738 6.13779 20.2072C6.21772 20.3407 6.33238 20.4499 6.46953 20.5233C6.60667 20.5967 6.76117 20.6315 6.91654 20.624C7.0719 20.6165 7.22232 20.5669 7.35174 20.4806L12.2914 17.1875H16.3281C17.0117 17.1867 17.667 16.9149 18.1503 16.4315C18.6336 15.9482 18.9055 15.2929 18.9062 14.6094V9.45312C18.9055 8.7696 18.6336 8.11429 18.1503 7.63096C17.667 7.14764 17.0117 6.87577 16.3281 6.875H6.01562C5.3321 6.87577 4.67679 7.14764 4.19346 7.63096C3.71014 8.11429 3.43827 8.7696 3.4375 9.45312V14.6094C3.43827 15.2929 3.71014 15.9482 4.19346 16.4315C4.67679 16.9149 5.3321 17.1867 6.01562 17.1875ZM5.15625 9.45312C5.15656 9.2253 5.2472 9.0069 5.4083 8.8458C5.5694 8.6847 5.7878 8.59406 6.01562 8.59375H16.3281C16.5559 8.59406 16.7744 8.6847 16.9354 8.8458C17.0965 9.0069 17.1872 9.2253 17.1875 9.45312V14.6094C17.1872 14.8372 17.0965 15.0556 16.9354 15.2167C16.7744 15.3778 16.5559 15.4684 16.3281 15.4687H12.0312C11.8616 15.4688 11.6957 15.5191 11.5545 15.6131L7.73438 18.1598V16.3281C7.73438 16.1002 7.64383 15.8816 7.48267 15.7205C7.32151 15.5593 7.10292 15.4687 6.875 15.4687H6.01562C5.7878 15.4684 5.5694 15.3778 5.4083 15.2167C5.2472 15.0556 5.15656 14.8372 5.15625 14.6094V9.45312Z" fill="#1B2B67"/>
<path d="M8.59375 11.1719H6.875V12.8906H8.59375V11.1719Z" fill="#1B2B67"/>
<path d="M12.0312 11.1719H10.3125V12.8906H12.0312V11.1719Z" fill="#1B2B67"/>
<path d="M15.4688 11.1719H13.75V12.8906H15.4688V11.1719Z" fill="#1B2B67"/>
<path d="M27.5 27.5C28.1799 27.5 28.8445 27.2984 29.4098 26.9207C29.9751 26.543 30.4157 26.0061 30.6758 25.378C30.936 24.7499 31.0041 24.0587 30.8715 23.3919C30.7388 22.7251 30.4114 22.1126 29.9307 21.6318C29.4499 21.1511 28.8374 20.8237 28.1706 20.6911C27.5038 20.5584 26.8126 20.6265 26.1845 20.8867C25.5564 21.1468 25.0195 21.5874 24.6418 22.1527C24.2641 22.718 24.0625 23.3826 24.0625 24.0625C24.0635 24.9739 24.426 25.8476 25.0705 26.4921C25.7149 27.1365 26.5886 27.499 27.5 27.5ZM27.5 22.3438C27.8399 22.3438 28.1722 22.4446 28.4549 22.6334C28.7375 22.8223 28.9578 23.0907 29.0879 23.4048C29.218 23.7188 29.252 24.0644 29.1857 24.3978C29.1194 24.7312 28.9557 25.0375 28.7153 25.2778C28.475 25.5182 28.1687 25.6819 27.8353 25.7482C27.5019 25.8145 27.1563 25.7805 26.8423 25.6504C26.5282 25.5203 26.2598 25.3 26.0709 25.0174C25.8821 24.7347 25.7813 24.4024 25.7813 24.0625C25.7817 23.6068 25.9629 23.1699 26.2852 22.8477C26.6074 22.5254 27.0443 22.3442 27.5 22.3438Z" fill="#1B2B67"/>
<path d="M46.4062 25.7813C46.4062 26.4611 46.6079 27.1257 46.9856 27.691C47.3633 28.2563 47.9002 28.6969 48.5283 28.9571C49.1564 29.2173 49.8476 29.2853 50.5144 29.1527C51.1812 29.0201 51.7937 28.6927 52.2744 28.2119C52.7552 27.7312 53.0826 27.1187 53.2152 26.4519C53.3478 25.7851 53.2798 25.0939 53.0196 24.4658C52.7594 23.8377 52.3188 23.3008 51.7535 22.9231C51.1882 22.5454 50.5236 22.3438 49.8438 22.3438C48.9324 22.3448 48.0586 22.7073 47.4142 23.3517C46.7698 23.9961 46.4073 24.8699 46.4062 25.7813ZM49.8438 24.0625C50.1837 24.0625 50.516 24.1633 50.7986 24.3522C51.0813 24.541 51.3016 24.8095 51.4317 25.1235C51.5618 25.4376 51.5958 25.7832 51.5295 26.1166C51.4632 26.45 51.2995 26.7562 51.0591 26.9966C50.8187 27.237 50.5125 27.4007 50.1791 27.467C49.8457 27.5333 49.5001 27.4993 49.186 27.3692C48.872 27.2391 48.6035 27.0188 48.4147 26.7361C48.2258 26.4535 48.125 26.1212 48.125 25.7813C48.1255 25.3256 48.3067 24.8886 48.6289 24.5664C48.9511 24.2442 49.3881 24.063 49.8438 24.0625Z" fill="#1B2B67"/>
<path d="M5.15625 29.2188C5.83612 29.2188 6.50073 29.0171 7.06602 28.6394C7.63132 28.2617 8.07191 27.7249 8.33209 27.0967C8.59226 26.4686 8.66034 25.7774 8.5277 25.1106C8.39506 24.4438 8.06767 23.8313 7.58693 23.3506C7.10619 22.8698 6.49368 22.5424 5.82687 22.4098C5.16006 22.2772 4.4689 22.3452 3.84078 22.6054C3.21265 22.8656 2.67579 23.3062 2.29807 23.8715C1.92036 24.4368 1.71875 25.1014 1.71875 25.7813C1.71977 26.6926 2.08227 27.5664 2.7267 28.2108C3.37114 28.8552 4.24488 29.2177 5.15625 29.2188ZM5.15625 24.0625C5.49619 24.0625 5.82849 24.1633 6.11114 24.3522C6.39378 24.541 6.61408 24.8095 6.74417 25.1235C6.87426 25.4376 6.90829 25.7832 6.84198 26.1166C6.77566 26.45 6.61196 26.7562 6.37159 26.9966C6.13122 27.237 5.82497 27.4007 5.49156 27.467C5.15816 27.5333 4.81257 27.4993 4.49851 27.3692C4.18445 27.2391 3.91602 27.0188 3.72716 26.7361C3.5383 26.4535 3.4375 26.1212 3.4375 25.7813C3.43796 25.3256 3.61918 24.8886 3.94141 24.5664C4.26364 24.2442 4.70055 24.063 5.15625 24.0625Z" fill="#1B2B67"/>
</svg>
