<svg width="30" height="30" viewBox="0 0 30 30" fill="none" xmlns="http://www.w3.org/2000/svg">
<path d="M24.5412 11.2701C24.6113 10.8963 24.6468 10.5169 24.6473 10.1366C24.643 6.60514 21.7612 3.74574 18.2105 3.75C15.5075 3.75324 13.0953 5.43762 12.174 7.96501C10.5246 7.31195 8.65511 8.11244 7.99847 9.75298C7.94163 9.89498 7.89511 10.0408 7.85927 10.1894C5.22553 10.5812 3.4098 13.0223 3.80369 15.6418C4.15695 17.9912 6.18618 19.7293 8.5745 19.7283H12.5927C13.0365 19.7283 13.3963 19.3704 13.3963 18.929C13.3963 18.4875 13.0365 18.1296 12.5927 18.1296H8.5745C6.79912 18.1296 5.35992 16.6982 5.35992 14.9324C5.35992 13.1667 6.79912 11.7352 8.5745 11.7352C9.01835 11.7352 9.37816 11.3774 9.37816 10.9359C9.37961 10.053 10.1004 9.3385 10.9881 9.33995C11.4079 9.34066 11.8107 9.50467 12.1105 9.79691C12.4266 10.1068 12.9354 10.1031 13.247 9.78867C13.364 9.6706 13.4411 9.51933 13.4678 9.35569C13.9041 6.7455 16.3851 4.98127 19.0095 5.41514C21.6339 5.849 23.4077 8.31668 22.9715 10.9269C22.9455 11.0825 22.9117 11.2368 22.8704 11.3891C22.778 11.7227 22.912 12.0776 23.2024 12.2683C24.6817 13.2445 25.0852 15.2288 24.1036 16.7001C23.5095 17.5906 22.5073 18.127 21.4327 18.1295H19.0218C18.578 18.1295 18.2181 18.4874 18.2181 18.9289C18.2181 19.3703 18.578 19.7282 19.0218 19.7282H21.4327C24.0958 19.7257 26.2526 17.5765 26.25 14.9278C26.2487 13.5181 25.6237 12.1803 24.5412 11.2701Z" fill="white"/>
<path d="M20.4571 20.8395C20.1406 20.5376 19.6388 20.5376 19.3223 20.8395L16.6311 23.4956V11.7305C16.6311 11.285 16.2654 10.9238 15.8143 10.9238C15.3632 10.9238 14.9976 11.285 14.9976 11.7305V23.4956L12.308 20.8394C11.9835 20.5299 11.4665 20.5388 11.1531 20.8592C10.8474 21.1718 10.8474 21.6674 11.1531 21.9799L15.2368 26.013C15.5554 26.3283 16.0726 26.329 16.3919 26.0144C16.3924 26.0139 16.3929 26.0134 16.3934 26.013L20.4771 21.9799C20.7906 21.6596 20.7816 21.1489 20.4571 20.8395Z" fill="white"/>
</svg>
