<svg width="24" height="24" viewBox="0 0 24 24" fill="none" xmlns="http://www.w3.org/2000/svg">
<path d="M22.1773 8.02141C22.2521 7.62271 22.29 7.21801 22.2905 6.81242C22.2859 3.04548 19.2119 -0.00454093 15.4245 5.07521e-06C12.5413 0.00345205 9.96827 1.80012 8.98562 4.496C7.2262 3.79942 5.23212 4.65327 4.53169 6.40318C4.47107 6.55465 4.42144 6.71021 4.38322 6.86872C1.57389 7.2866 -0.362882 9.89046 0.0572714 12.6846C0.434079 15.1906 2.59859 17.0445 5.14613 17.0435H9.4322C9.90564 17.0435 10.2894 16.6618 10.2894 16.1909C10.2894 15.72 9.90564 15.3383 9.4322 15.3383H5.14613C3.2524 15.3383 1.71724 13.8114 1.71724 11.9279C1.71724 10.0444 3.2524 8.51757 5.14613 8.51757C5.61957 8.51757 6.00336 8.13586 6.00336 7.66497C6.00492 6.72325 6.77375 5.96107 7.72059 5.96262C8.16837 5.96336 8.59812 6.13831 8.91787 6.45004C9.25504 6.78055 9.7978 6.7766 10.1301 6.44124C10.2549 6.31531 10.3372 6.15395 10.3657 5.9794C10.831 3.1952 13.4775 1.31335 16.2768 1.77614C19.0761 2.23894 20.9682 4.87112 20.5029 7.65533C20.4752 7.82133 20.4392 7.98589 20.3951 8.14834C20.2966 8.50423 20.4395 8.88275 20.7492 9.08617C22.3271 10.1275 22.7575 12.244 21.7105 13.8134C21.0768 14.7633 20.0078 15.3355 18.8616 15.3382H16.2899C15.8165 15.3382 15.4327 15.7199 15.4327 16.1908C15.4327 16.6617 15.8165 17.0434 16.2899 17.0434H18.8616C21.7021 17.0407 24.0027 14.7482 24 11.923C23.9986 10.4193 23.332 8.9923 22.1773 8.02141Z" fill="#2349D7"/>
<path d="M17.8211 18.229C17.4835 17.907 16.9483 17.907 16.6107 18.229L13.7401 21.0623V8.51274C13.7401 8.03755 13.35 7.65234 12.8689 7.65234C12.3877 7.65234 11.9977 8.03755 11.9977 8.51274V21.0622L9.12877 18.229C8.78268 17.8989 8.23116 17.9083 7.89691 18.2501C7.57082 18.5835 7.57082 19.1121 7.89691 19.4455L12.2529 23.7474C12.5927 24.0838 13.1443 24.0845 13.485 23.7489C13.4855 23.7484 13.486 23.7479 13.4865 23.7474L17.8425 19.4455C18.1768 19.1038 18.1672 18.5591 17.8211 18.229Z" fill="#2349D7"/>
</svg>
