<?xml version="1.0" encoding="UTF-8"?>
<svg width="30px" height="30px" viewBox="0 0 30 30" version="1.1" xmlns="http://www.w3.org/2000/svg" xmlns:xlink="http://www.w3.org/1999/xlink">
    <!-- Generator: Sketch 63.1 (92452) - https://sketch.com -->
    <title>Group 2</title>
    <desc>Created with Sketch.</desc>
    <g id="wireframes" stroke="none" stroke-width="1" fill="none" fill-rule="evenodd">
        <g id="Simulation1-Copy" transform="translate(-68.000000, -347.000000)" fill-rule="nonzero">
            <g id="Group-2" transform="translate(68.000000, 347.000000)">
                <g id="Group-20" fill="#111B40">
                    <g id="Group-8">
                        <g id="Group-4">
                            <g id="Group" transform="translate(15.000000, 15.000000) rotate(90.000000) translate(-15.000000, -15.000000) ">
                                <circle id="Oval-3" cx="15" cy="15" r="15"></circle>
                            </g>
                        </g>
                    </g>
                </g>
                <g id="download" transform="translate(8.000000, 8.000000)" fill="#FFFFFF">
                    <path d="M6.95092279,11.6998567 C7.09654452,11.8457488 7.29405447,11.9277108 7.5,11.9277108 C7.70594553,11.9277108 7.90345548,11.8457488 8.04907721,11.6998567 L10.9773919,8.76625463 C11.2806284,8.46246841 11.2806284,7.96993603 10.9773919,7.66614981 C10.6741532,7.36236584 10.1825086,7.36236584 9.87926987,7.66614981 L8.27649243,9.27182119 L8.27649243,0.777894451 C8.27649243,0.348275209 7.92884493,0 7.5,0 C7.07115507,0 6.72350757,0.348275209 6.72350757,0.777894451 L6.72350757,9.27182119 L5.12073013,7.66614981 C4.81749144,7.36236584 4.32584675,7.36236584 4.02260806,7.66614981 C3.71937161,7.96993603 3.71937161,8.46246841 4.02260806,8.76625463 L6.95092279,11.6998567 Z" id="Path"></path>
                    <path d="M14.2241379,6.68674699 C13.7956411,6.68674699 13.4482759,7.03568169 13.4482759,7.46611446 L13.4482759,13.4412651 L1.55172414,13.4412651 L1.55172414,7.46611446 C1.55172414,7.03568169 1.20435886,6.68674699 0.775862069,6.68674699 C0.34736528,6.68674699 0,7.03568169 0,7.46611446 L0,13.7010542 C0,14.4184422 0.578942134,15 1.29310345,15 L13.7068966,15 C14.4210579,15 15,14.4184422 15,13.7010542 L15,7.46611446 C15,7.03568169 14.6526347,6.68674699 14.2241379,6.68674699 L14.2241379,6.68674699 Z" id="Path"></path>
                </g>
            </g>
        </g>
    </g>
</svg>