<svg width="324" height="328" viewBox="0 0 324 328" fill="none" xmlns="http://www.w3.org/2000/svg">
<path d="M236.491 38.1118C254.778 54.3929 266.746 77.1091 285.96 109.76C305.263 142.411 331.881 184.992 321.787 210.378C311.692 235.764 264.706 243.947 220.341 260.594C175.976 277.242 134.207 302.257 95.7836 297.381C57.3598 292.504 22.2806 257.743 13.458 219.298C4.54595 180.759 21.8092 138.545 34.2446 100.099C46.5906 61.6576 54.1087 26.9692 75.7325 11.264C97.3563 -4.44122 133.094 -1.06662 163.353 5.46111C193.609 12.0694 218.203 21.8348 236.491 38.1118Z" fill="#DEEEFF"/>
<path fill-rule="evenodd" clip-rule="evenodd" d="M56.3761 312.122H69V296.269H56.3761V247H43.7522L0 306.503V312.122H37.8677V327H56.3761V312.122ZM37.8677 277.731V296.269H24.6348L37.8677 277.731Z" fill="#1B2B67"/>
<path fill-rule="evenodd" clip-rule="evenodd" d="M110.676 246C86.8346 246 80 264.129 80 287.122C80 309.995 86.8346 328 110.676 328C134.415 328 141 309.995 141 287.122C141 264.129 134.399 246 110.676 246ZM110.696 262.547C119.519 262.547 122.255 273.253 122.255 287.122C122.255 300.867 119.519 311.349 110.696 311.333C101.747 311.333 98.6428 300.867 98.6428 287.122C98.6428 273.253 101.747 262.547 110.696 262.547Z" fill="#1B2B67"/>
<path fill-rule="evenodd" clip-rule="evenodd" d="M204.378 312.122H217V296.269H204.378V247H191.755L148 306.503V312.122H185.875V327H204.378V312.122ZM185.875 277.731V296.269H172.64L185.875 277.731Z" fill="#1B2B67"/>
<rect x="225" y="313" width="6" height="6" transform="rotate(-180 225 313)" fill="#F9D0B4"/>
<path d="M226 311V317H210V314.817L218.322 311H226Z" fill="black"/>
<rect x="117" y="242" width="6" height="6" transform="rotate(-180 117 242)" fill="#F9D0B4"/>
<path d="M118 240V246H102V243.821L110.324 240H118Z" fill="black"/>
<path d="M217.324 162C217.673 165.287 225 307 225 307H217.324L180 173.567L217.324 162Z" fill="#23333C"/>
<path d="M222 147.231C222 166.461 214.856 183.765 200.392 183.765C180.537 183.765 154.252 171.239 147.018 164.169C145.213 169.452 119.605 236 119.605 236H109C109 236 115.795 158.516 128.535 138.644C132.725 133.119 166.926 134.5 184.205 138.644C201.484 142.787 222 147.231 222 147.231Z" fill="#23333C"/>
<path d="M170.934 35.9853C171.188 34.7547 172.356 33.9045 173.647 34.0086C175.237 34.1171 177.834 38.183 177.834 41.4736C177.834 44.7641 176.876 46.0016 177.166 48.3921C177.456 50.7827 183.743 83.1978 183.743 85.1745C185.328 85.283 191 84.5156 191 84.5156L187.029 100H175.469L168 37.6326L170.934 35.9853Z" fill="#FAE3CE"/>
<path d="M181 39.5155L178.641 49C178.641 49 155.374 46.309 152.834 45.6852C150.295 45.0615 154.12 29.3793 156.728 30.0191C159.335 30.6588 181 39.5155 181 39.5155Z" fill="black"/>
<path d="M202.516 68C232.456 68 225.072 145.569 221.576 148.471C218.08 151.373 180.858 141.581 177.766 137.261C174.674 132.94 180.558 68 202.516 68Z" fill="#3853B9"/>
<path d="M191.514 88.1509C189.864 88.7072 180.188 92.4606 180.188 92.4606C180.026 90.5254 172.587 52.1453 172.129 49.795C173.068 47.449 173.532 44.9419 173.495 42.4173C173.495 36.116 170.921 31 167.747 31C164.573 31 162.003 36.116 162.003 42.4173C161.958 45.0547 162.469 47.6723 163.503 50.1014C163.146 54.8989 159.943 100.451 166.478 106.946C173.369 113.799 190.123 107.619 200.306 103.015C202.487 102.265 199.516 85.998 191.514 88.1509Z" fill="#F9D0B4"/>
<path d="M178.685 42.5879L184.767 44.1888L183.639 48.4014L177.556 46.8005L178.685 42.5879Z" fill="black"/>
<path d="M221.268 82.2123C225.834 91.1065 207.751 107.13 202.748 105.937C197.745 104.744 189.676 86.8339 191.185 83.6203C192.694 80.4067 216.827 73.5575 221.268 82.2123Z" fill="#3853B9"/>
<path d="M205 75.7658C205 77.2218 195 77.5907 195 75.7658V59H205V75.7658Z" fill="#FAE3CE"/>
<ellipse cx="197" cy="49" rx="12" ry="19" fill="#F9D0B4"/>
<path d="M187.876 35.8824C187.69 38.7206 189.049 41.4385 191.432 42.9924C195.012 45.4301 197.563 44.3535 200.188 46.649C201.574 48.0344 204.967 50.7118 204.999 54.8478C204.999 57.9071 206.003 59.451 206.885 59.451C207.767 59.451 210.091 58.8415 211.586 58.8415C226.271 58.8415 243.516 74 276.6 74C293.881 74 321 69.6406 321 44.2641C321 30.5601 316.067 14 289.993 14C273.434 14 261.834 22.1257 248.229 22.1257C230.757 22.1257 224.02 15.7998 211.948 15.7998C203.35 15.7998 184 20.7809 184 33.8307C184 38.7874 185.552 40.2256 186.032 40.4816C186.186 39.9372 187.133 37.1257 187.876 35.8824Z" fill="black"/>
<circle cx="203" cy="53" r="3" fill="#F9D0B4"/>
</svg>
