<svg width="31" height="30" viewBox="0 0 31 30" fill="none" xmlns="http://www.w3.org/2000/svg">
<path d="M9.58723 15.8163H20.3916L16.9804 19.605C16.8121 19.7934 16.8284 20.0826 17.0168 20.2509C17.2052 20.4192 17.4944 20.4029 17.6627 20.2145L21.7561 15.6662L21.7902 15.623L21.8221 15.573L21.8357 15.523V15.4889V15.4388C21.8357 15.4275 21.8357 15.4161 21.8357 15.4047C21.8357 15.3933 21.8676 15.3842 21.8676 15.3615C21.8676 15.3615 21.8676 15.341 21.8676 15.3297C21.8676 15.3183 21.8676 15.3069 21.8676 15.2956V15.2455V15.2114L21.8539 15.1614L21.8357 15.1318L21.8016 15.0863L17.6945 10.5199C17.5262 10.3315 17.2371 10.3152 17.0487 10.4835C16.8603 10.6518 16.844 10.9409 17.0123 11.1293L20.3916 14.9067H9.58723C9.33603 14.9067 9.1324 15.1103 9.1324 15.3615C9.1324 15.6127 9.33603 15.8163 9.58723 15.8163Z" fill="#2349D7"/>
<path fill-rule="evenodd" clip-rule="evenodd" d="M18.0348 20.5484C17.6825 20.942 17.0778 20.9758 16.6837 20.6238C16.2894 20.2715 16.2553 19.6663 16.6076 19.2719L16.6089 19.2705L19.2687 16.3163H9.58723C9.05989 16.3163 8.6324 15.8888 8.6324 15.3615C8.6324 14.8342 9.05989 14.4067 9.58723 14.4067H19.2734L16.6396 11.4627C16.2874 11.0684 16.3212 10.4629 16.7156 10.1106C17.1097 9.7585 17.7146 9.79239 18.0669 10.1862C18.0671 10.1864 18.0667 10.186 18.0669 10.1862L22.1882 14.7685L22.2495 14.8502L22.3174 14.9605L22.3676 15.1444V15.361C22.3676 15.4237 22.3563 15.4834 22.3373 15.537C22.3368 15.5384 22.3362 15.5399 22.3357 15.5413V15.5899L22.2845 15.7776L22.1984 15.9129L22.1386 15.9887L18.0356 20.5476C18.0353 20.5479 18.0351 20.5481 18.0348 20.5484ZM22.1576 15.7829C22.1572 15.7832 22.1572 15.7832 22.1576 15.7829V15.7829Z" fill="#2349D7"/>
</svg>
