<svg width="25" height="24" viewBox="0 0 25 24" fill="none" xmlns="http://www.w3.org/2000/svg">
<path fill-rule="evenodd" clip-rule="evenodd" d="M14.9171 17.6522C14.558 18.0816 13.9416 18.1185 13.5399 17.7344C13.138 17.3502 13.1032 16.6899 13.4623 16.2597L13.4636 16.2581L16.1747 13.0354L6.30661 13.0354C5.76911 13.0354 5.33337 12.5691 5.33337 11.9938C5.33337 11.4185 5.76911 10.9522 6.30661 10.9522L16.1796 10.9522L13.495 7.74058C13.1359 7.3104 13.1705 6.64984 13.5724 6.26555C13.9741 5.88144 14.5907 5.91842 14.9498 6.34802C14.95 6.34823 14.9496 6.34782 14.9498 6.34802L19.1506 11.3469L19.213 11.436L19.2822 11.5564L19.3334 11.757L19.3334 11.9932C19.3334 12.0617 19.3219 12.1268 19.3025 12.1852C19.302 12.1868 19.3015 12.1884 19.3009 12.1899L19.3009 12.243L19.2488 12.4477L19.161 12.5953L19.1 12.678L14.9178 17.6514C14.9176 17.6517 14.9174 17.6519 14.9171 17.6522ZM19.1193 12.4535C19.119 12.4539 19.119 12.4538 19.1193 12.4535V12.4535Z" fill="#FF5950"/>
</svg>
