<svg width="30" height="30" viewBox="0 0 30 30" fill="none" xmlns="http://www.w3.org/2000/svg">
<path d="M20.9126 14.1833L10.1082 14.1833L13.5194 10.3946C13.6877 10.2062 13.6714 9.91704 13.4831 9.74874C13.2947 9.58044 13.0055 9.59673 12.8372 9.78513L8.74376 14.3334L8.70964 14.3766L8.67781 14.4266L8.66416 14.4767L8.66416 14.5108L8.66416 14.5608C8.66416 14.5722 8.66416 14.5836 8.66416 14.5949C8.66416 14.6063 8.63232 14.6154 8.63232 14.6381C8.63232 14.6381 8.63232 14.6586 8.63232 14.67C8.63232 14.6813 8.63232 14.6927 8.63232 14.7041L8.63232 14.7541L8.63232 14.7882L8.64597 14.8383L8.66416 14.8678L8.69827 14.9133L12.8054 19.4798C12.9737 19.6682 13.2628 19.6844 13.4512 19.5161C13.6396 19.3479 13.6559 19.0587 13.4876 18.8703L10.1082 15.093L20.9126 15.093C21.1638 15.093 21.3675 14.8893 21.3675 14.6381C21.3675 14.3869 21.1638 14.1833 20.9126 14.1833Z" fill="#1B2B67"/>
<path fill-rule="evenodd" clip-rule="evenodd" d="M12.465 9.45117C12.8174 9.05759 13.4221 9.02378 13.8162 9.37581C14.2105 9.72808 14.2446 10.3333 13.8923 10.7276L13.891 10.7291L11.2312 13.6832L20.9126 13.6832C21.44 13.6832 21.8675 14.1107 21.8675 14.6381C21.8675 15.1654 21.44 15.5929 20.9126 15.5929L11.2264 15.5929L13.8602 18.5369C14.2125 18.9312 14.1787 19.5367 13.7843 19.889C13.3902 20.2411 12.7853 20.2072 12.433 19.8134C12.4328 19.8132 12.4331 19.8136 12.433 19.8134L8.31163 15.2311L8.25037 15.1494L8.18249 15.0391L8.13232 14.8551L8.13232 14.6386C8.13232 14.5759 8.14355 14.5161 8.16261 14.4626C8.16312 14.4611 8.16364 14.4597 8.16416 14.4583L8.16416 14.4097L8.21534 14.222L8.30146 14.0867L8.36131 14.0109L12.4643 9.45197C12.4646 9.4517 12.4648 9.45143 12.465 9.45117ZM8.34231 14.2167C8.34268 14.2164 8.34266 14.2164 8.34231 14.2167Z" fill="#1B2B67"/>
</svg>
