<svg width="30" height="30" viewBox="0 0 30 30" fill="none" xmlns="http://www.w3.org/2000/svg">
<path d="M15 30C6.71573 30 0 23.2843 0 15C0 6.71573 6.71573 0 15 0C23.2843 0 30 6.71573 30 15C30 23.2843 23.2843 30 15 30Z" fill="#1B2B67"/>
<path d="M9.08735 15.8167H19.8918L16.4806 19.6054C16.3123 19.7938 16.3286 20.083 16.5169 20.2513C16.7053 20.4196 16.9945 20.4033 17.1628 20.2149L21.2562 15.6666L21.2904 15.6234L21.3222 15.5734L21.3358 15.5233V15.4892V15.4392C21.3358 15.4278 21.3358 15.4164 21.3358 15.4051C21.3358 15.3937 21.3677 15.3846 21.3677 15.3619C21.3677 15.3619 21.3677 15.3414 21.3677 15.33C21.3677 15.3187 21.3677 15.3073 21.3677 15.2959V15.2459V15.2118L21.354 15.1617L21.3358 15.1322L21.3017 15.0867L17.1946 10.5202C17.0263 10.3318 16.7372 10.3156 16.5488 10.4839C16.3604 10.6522 16.3441 10.9413 16.5124 11.1297L19.8918 14.907H9.08735C8.83616 14.907 8.63252 15.1107 8.63252 15.3619C8.63252 15.6131 8.83616 15.8167 9.08735 15.8167Z" fill="white"/>
<path fill-rule="evenodd" clip-rule="evenodd" d="M17.535 20.5488C17.1826 20.9424 16.5779 20.9762 16.1838 20.6241C15.7895 20.2719 15.7554 19.6666 16.1077 19.2723L16.109 19.2708L18.7688 16.3167H9.08735C8.56001 16.3167 8.13252 15.8892 8.13252 15.3619C8.13252 14.8345 8.56001 14.407 9.08735 14.407H18.7735L16.1398 11.4631C15.7875 11.0687 15.8213 10.4632 16.2157 10.111C16.6098 9.75886 17.2147 9.79276 17.567 10.1866C17.5672 10.1867 17.5669 10.1864 17.567 10.1866L21.6884 14.7689L21.7496 14.8506L21.8175 14.9609L21.8677 15.1448V15.3613C21.8677 15.4241 21.8564 15.4838 21.8374 15.5374C21.8369 15.5388 21.8364 15.5402 21.8358 15.5417V15.5903L21.7847 15.7779L21.6985 15.9133L21.6387 15.9891L17.5357 20.548C17.5354 20.5482 17.5352 20.5485 17.535 20.5488ZM21.6577 15.7833C21.6573 15.7836 21.6573 15.7836 21.6577 15.7833V15.7833Z" fill="white"/>
</svg>
