<?xml version="1.0" encoding="UTF-8"?>
<svg width="23px" height="15px" viewBox="0 0 23 15" version="1.1" xmlns="http://www.w3.org/2000/svg" xmlns:xlink="http://www.w3.org/1999/xlink">
    <!-- Generator: Sketch 63.1 (92452) - https://sketch.com -->
    <title>point (1)</title>
    <desc>Created with Sketch.</desc>
    <g id="wireframes" stroke="none" stroke-width="1" fill="none" fill-rule="evenodd">
        <g id="Avant_propos" transform="translate(-450.000000, -260.000000)" fill="#1B2B67" fill-rule="nonzero">
            <g id="point-(1)" transform="translate(450.000000, 260.000000)">
                <path d="M20.9786953,3.08718277 L14.4392832,3.08718277 L12.295252,0.971012679 C11.0797559,-0.223726232 9.15090039,-0.328678167 7.80867969,0.726801846 L3.69837305,3.9587651 C3.33495508,3.42897197 2.71885156,3.07985336 2.02134961,3.07985336 L0.673783203,3.07985336 C0.301650391,3.0798092 0,3.37629731 0,3.7420175 L0,14.3377476 C0,14.7034677 0.301650391,15 0.673783203,15 L2.02130469,15 C2.81175,15 3.49730273,14.5514486 3.82936523,13.8999253 C5.84550391,14.6299087 7.9561582,15 10.1112402,15 C10.3961348,15 12.5163574,15 12.8014766,15 C13.9160332,15 14.8227813,14.1087695 14.8227813,13.0132868 C14.8227813,12.7547704 14.77175,12.5078221 14.6798848,12.2810517 C15.537668,12.0513231 16.1703027,11.279306 16.1703027,10.3643653 C16.1703027,10.1058489 16.1192715,9.85890058 16.0274063,9.63213022 C16.8851895,9.40240161 17.5178242,8.63038454 17.5178242,7.71544386 C17.5178242,7.48275699 17.476541,7.25943058 17.4014316,7.05173436 L20.9786953,7.05173436 C22.093252,7.05173436 23,6.16050391 23,5.06502118 L23,5.06060587 C23,3.96759572 22.093252,3.08718277 20.9786953,3.08718277 Z M1.99996666,13.3571245 C1.99996666,13.7115868 1.77568505,14 1.49996666,14 L1,14 L1,5 L1.5,5 C1.77568505,5 2,5.28837032 2,5.64287551 L2,13.3571245 L1.99996666,13.3571245 Z M22,5.63385055 C22,5.9886247 21.6910707,6.28587139 21.3112915,6.28587139 L12.9598227,6.28587139 C12.5794925,6.28587139 12.2711141,6.56535793 12.2711141,6.92073267 C12.2711141,7.27606451 12.5794465,7.56417373 12.9598227,7.56417373 L15.6775099,7.56417373 C15.6876116,7.56460272 15.6975297,7.56558939 15.7076773,7.56558939 C16.0874106,7.56558939 16.3963858,7.8542134 16.3963858,8.20903046 C16.3963858,8.56380461 16.0874565,8.85247152 15.7076773,8.85247152 L12.9529351,8.85247152 C12.5726049,8.85247152 12.2642266,9.14053783 12.2642266,9.49591258 C12.2642266,9.85128732 12.572559,10.1393536 12.9529351,10.1393536 L14.3303062,10.1393536 C14.7100395,10.1393536 15.0190147,10.4279776 15.0190147,10.7827947 C15.0190147,11.1376118 14.7100854,11.4262358 14.3303062,11.4262358 L12.9529351,11.4262358 C12.5726049,11.4262358 12.2642266,11.7143021 12.2642266,12.0696768 C12.2642266,12.4250516 12.572559,12.7131179 12.9529351,12.7131179 C13.3326684,12.7131179 13.6416436,13.0017419 13.6416436,13.3565589 C13.6416436,13.711376 13.3327143,14 12.9529351,14 C12.6612247,14 10.4943114,14 10.203106,14 C8.071457,14 5.98572493,13.636689 4,12.9197191 L4,5.94396692 L8.70993235,2.42368067 C9.5330398,1.80838131 10.7159985,1.86959808 11.4615063,2.56606222 L12.6791323,3.71223585 C10.3527953,3.71223585 12.6608114,3.70936162 10.198147,3.70936162 C9.8178168,3.70936162 9.50943849,3.99742794 9.50943849,4.35280268 C9.50943849,4.70813452 9.81777088,4.98766396 10.198147,4.98766396 C10.3492138,4.98766396 21.1599033,4.99053818 21.3112456,4.99053818 C21.6909788,4.99053818 22,5.27723174 22,5.62968935 L22,5.63385055 L22,5.63385055 Z" id="Shape"></path>
            </g>
        </g>
    </g>
</svg>