<?xml version="1.0" encoding="utf-8"?>
<!-- Generator: Adobe Illustrator 15.1.0, SVG Export Plug-In . SVG Version: 6.00 Build 0)  -->
<!DOCTYPE svg PUBLIC "-//W3C//DTD SVG 1.1//EN" "http://www.w3.org/Graphics/SVG/1.1/DTD/svg11.dtd">
<svg version="1.1" id="Calque_1" xmlns="http://www.w3.org/2000/svg" xmlns:xlink="http://www.w3.org/1999/xlink" x="0px" y="0px"
	 width="143px" height="40px" viewBox="0 0 143 40" enable-background="new 0 0 143 40" xml:space="preserve">
<g>
	<path fill="#FFFFFF" d="M56.506,15.578c-2.596,0-3.893,1.562-3.893,4.69v8.358h1.639v-3.688h2.253c2.606,0,3.908-1.56,3.908-4.67
		C60.413,17.14,59.111,15.579,56.506,15.578z M58.347,22.337c-0.357,0.521-0.97,0.78-1.843,0.78h-2.253v-2.85
		c0-0.955,0.142-1.649,0.426-2.074c0.346-0.529,0.954-0.796,1.828-0.796c0.872,0,1.487,0.267,1.844,0.796
		c0.282,0.426,0.426,1.118,0.426,2.074C58.775,21.21,58.63,21.898,58.347,22.337z"/>
	<polygon fill="#FFFFFF" points="65.381,13.315 67.998,14.797 68.737,13.795 65.38,11.889 62.023,13.795 62.764,14.797 	"/>
	<path fill="#FFFFFF" d="M65.458,15.579c-2.605,0-3.907,1.562-3.907,4.688c0,3.11,1.302,4.67,3.907,4.67
		c2.595,0,3.893-1.56,3.893-4.67C69.351,17.14,68.055,15.579,65.458,15.579z M67.276,22.339c-0.344,0.519-0.949,0.778-1.816,0.778
		c-0.866,0-1.477-0.26-1.831-0.778c-0.283-0.438-0.423-1.129-0.423-2.072c0-0.955,0.14-1.649,0.423-2.074
		c0.354-0.529,0.966-0.796,1.831-0.796c0.867,0,1.472,0.267,1.816,0.796c0.28,0.426,0.422,1.118,0.422,2.074
		C67.698,21.223,67.555,21.913,67.276,22.339z"/>
	<path fill="#FFFFFF" d="M74.863,23.115c-1.018,0-1.721-0.158-2.11-0.479c-0.294-0.232-0.44-0.596-0.44-1.074v-9.673h-1.64v9.656
		c0,2.262,1.397,3.393,4.192,3.393v-0.002h-0.002V23.115z"/>
	<path fill="#FFFFFF" d="M108.116,15.579c-1.384,0-2.409,0.472-3.072,1.413c-0.673-0.942-1.7-1.413-3.09-1.413
		c-2.593,0-3.892,1.562-3.892,4.688v4.67H99.7v-4.683c0-0.951,0.146-1.641,0.426-2.066c0.347-0.527,0.955-0.794,1.826-0.794
		c0.875,0,1.489,0.267,1.846,0.794c0.285,0.425,0.427,1.115,0.427,2.066v4.683h1.637v-4.683c0-0.951,0.143-1.641,0.429-2.066
		c0.347-0.527,0.954-0.794,1.826-0.794c0.875,0,1.489,0.267,1.846,0.794c0.283,0.425,0.429,1.115,0.429,2.066v4.683h1.635v-4.67
		C112.025,17.141,110.725,15.579,108.116,15.579z"/>
	<path fill="#FFFFFF" d="M117.244,15.578c-2.596,0-3.893,1.562-3.893,4.69v8.358h1.637v-3.688h2.256c2.605,0,3.906-1.56,3.906-4.67
		C121.15,17.14,119.85,15.579,117.244,15.578z M119.087,22.337c-0.358,0.521-0.97,0.78-1.843,0.78h-2.256v-2.85
		c0-0.955,0.144-1.649,0.427-2.074c0.345-0.529,0.957-0.796,1.827-0.796c0.874,0,1.488,0.267,1.845,0.796
		c0.283,0.426,0.425,1.118,0.425,2.074C119.512,21.21,119.37,21.898,119.087,22.337z"/>
	<path fill="#FFFFFF" d="M123.991,21.563v-9.673h-1.642v9.656c0,2.262,1.396,3.393,4.19,3.393h0.001v-1.822
		c-1.016,0-1.723-0.158-2.111-0.479C124.137,22.404,123.991,22.041,123.991,21.563z"/>
	<path fill="#FFFFFF" d="M130.92,15.579c-2.605,0-3.906,1.562-3.906,4.688c0,3.11,1.301,4.67,3.906,4.67
		c2.6,0,3.895-1.56,3.895-4.67C134.814,17.14,133.52,15.579,130.92,15.579z M132.751,22.339c-0.347,0.519-0.955,0.778-1.829,0.778
		c-0.869,0-1.479-0.26-1.828-0.778c-0.281-0.426-0.424-1.116-0.424-2.072c0-0.955,0.143-1.649,0.424-2.074
		c0.35-0.529,0.957-0.796,1.828-0.796c0.873,0,1.482,0.267,1.829,0.796c0.283,0.426,0.427,1.118,0.427,2.074
		C133.178,21.223,133.034,21.913,132.751,22.339z"/>
	<rect x="136.027" y="11.889" fill="#FFFFFF" width="1.64" height="1.817"/>
	<rect x="136.027" y="15.579" fill="#FFFFFF" width="1.64" height="9.358"/>
	<path fill="#FFFFFF" d="M79.352,15.579c-2.369,0-3.92,1.733-3.92,4.723c0,3.518,1.842,4.741,4.158,4.741
		c1.624,0,2.518-0.488,3.465-1.441l-1.188-1.111c-0.653,0.66-1.202,0.951-2.242,0.951c-1.516,0-2.354-1.004-2.354-2.592h6.004
		v-0.822C83.275,17.399,81.834,15.579,79.352,15.579z M77.273,19.554c0.018-0.565,0.055-0.838,0.236-1.259
		c0.293-0.692,0.967-1.167,1.842-1.167c0.873,0,1.533,0.475,1.823,1.167c0.185,0.42,0.237,0.694,0.257,1.259H77.273z"/>
	<path fill="#FFFFFF" d="M92.832,15.578c-2.37,0-3.922,1.734-3.922,4.726c0,3.516,1.843,4.739,4.158,4.739
		c1.621,0,2.517-0.488,3.465-1.441l-1.186-1.111c-0.658,0.66-1.205,0.951-2.244,0.951c-1.516,0-2.354-1.004-2.354-2.592v-0.002
		h6.004v-0.821C96.754,17.398,95.313,15.578,92.832,15.578z M90.75,19.554c0.02-0.565,0.055-0.838,0.236-1.259
		c0.296-0.692,0.968-1.167,1.844-1.167c0.875,0,1.531,0.475,1.822,1.167c0.182,0.42,0.238,0.694,0.256,1.259H90.75z"/>
	<path fill="#FFFFFF" d="M27.489,28.098c-1.934-1.992-2.909-4.681-2.911-8.146c0-1.627,0.242-3.129,0.723-4.512
		c0.479-1.381,1.177-2.556,2.091-3.536c0.911-0.978,2.032-1.728,3.377-2.254c1.344-0.524,2.837-0.79,4.49-0.79
		c1.71,0.001,3.208,0.29,4.513,0.854c-3.075-3.978-7.878-6.55-13.294-6.55c-9.284,0-16.81,7.526-16.81,16.81
		c0,9.284,7.526,16.809,16.81,16.809c5.272,0,9.973-2.432,13.055-6.229c-1.123,0.35-2.407,0.533-3.861,0.532
		C32.121,31.081,29.422,30.079,27.489,28.098z"/>
	<path fill="#FFFFFF" d="M40.979,21.041H30.317c-0.352,0-0.656,0.238-0.642,0.637c0.05,1.194,0.312,2.273,0.798,3.215
		c0.522,1.021,1.231,1.809,2.119,2.332c0.879,0.525,1.859,0.789,2.914,0.789c0.698,0,1.342-0.082,1.932-0.248
		c0.588-0.168,1.156-0.429,1.703-0.783c0.533-0.338,1.026-0.711,1.477-1.106c0.444-0.39,1.308-1.198,1.605-1.47
		c0.134-0.125,0.316-0.226,0.53-0.294c0,0-0.001,0-0.001,0c0.271-1.064,0.436-2.168,0.492-3.302
		C42.622,20.96,41.868,21.041,40.979,21.041z"/>
	<path fill="#FFFFFF" d="M35.075,12.11c-1.474-0.003-2.732,0.525-3.687,1.557c-0.92,0.99-1.468,2.41-1.687,4.218
		c-0.054,0.341,0.289,0.619,0.636,0.621h9.508c0.333,0,0.658-0.27,0.636-0.58c-0.165-1.851-0.688-3.293-1.619-4.282
		C37.903,12.623,36.611,12.107,35.075,12.11z"/>
	<path fill="#FFFFFF" d="M43.601,24.035c-0.082-0.008-0.165-0.014-0.255-0.014c-0.213,0-0.402,0.035-0.574,0.088
		c-0.604,2.388-1.719,4.57-3.223,6.43c0.041-0.012,0.083-0.021,0.123-0.034c2.11-0.741,4.486-2.847,4.89-4.831
		C44.826,24.376,44.031,24.096,43.601,24.035z"/>
	<path fill="#FFFFFF" d="M40.741,10.197c-0.295-0.174-0.612-0.318-0.931-0.458c2.178,2.835,3.476,6.383,3.476,10.235
		c0,0.271-0.007,0.545-0.02,0.815c0.369-0.092,0.706-0.201,0.978-0.342c0.658-0.34,1.031-1.092,1.037-2.456
		c0-1.468-0.374-2.905-1.134-4.331C43.394,12.248,42.267,11.097,40.741,10.197z"/>
</g>
</svg>
