<svg width="40" height="41" viewBox="0 0 40 41" fill="none" xmlns="http://www.w3.org/2000/svg">
<g clip-path="url(#clip0)">
<g filter="url(#filter0_d)">
<rect y="0.5" width="40" height="40" rx="8" fill="#F1A378"/>
</g>
<path d="M15.7121 21.724L14.6561 18.838C14.6041 18.71 14.5501 18.558 14.4941 18.382C14.4381 18.206 14.3821 18.016 14.3261 17.812C14.2741 18.016 14.2201 18.208 14.1641 18.388C14.1081 18.564 14.0541 18.718 14.0021 18.85L12.9521 21.724H15.7121ZM18.5621 25H17.3141C17.1741 25 17.0601 24.966 16.9721 24.898C16.8841 24.826 16.8181 24.738 16.7741 24.634L16.1261 22.864H12.5321L11.8841 24.634C11.8521 24.726 11.7901 24.81 11.6981 24.886C11.6061 24.962 11.4921 25 11.3561 25H10.0961L13.5101 16.324H15.1541L18.5621 25ZM28.8681 16.324V25H27.4461V19.396C27.4461 19.172 27.4581 18.93 27.4821 18.67L24.8601 23.596C24.7361 23.832 24.5461 23.95 24.2901 23.95H24.0621C23.8061 23.95 23.6161 23.832 23.4921 23.596L20.8401 18.652C20.8521 18.784 20.8621 18.914 20.8701 19.042C20.8781 19.17 20.8821 19.288 20.8821 19.396V25H19.4601V16.324H20.6781C20.7501 16.324 20.8121 16.326 20.8641 16.33C20.9161 16.334 20.9621 16.344 21.0021 16.36C21.0461 16.376 21.0841 16.402 21.1161 16.438C21.1521 16.474 21.1861 16.522 21.2181 16.582L23.8161 21.4C23.8841 21.528 23.9461 21.66 24.0021 21.796C24.0621 21.932 24.1201 22.072 24.1761 22.216C24.2321 22.068 24.2901 21.926 24.3501 21.79C24.4101 21.65 24.4741 21.516 24.5421 21.388L27.1041 16.582C27.1361 16.522 27.1701 16.474 27.2061 16.438C27.2421 16.402 27.2801 16.376 27.3201 16.36C27.3641 16.344 27.4121 16.334 27.4641 16.33C27.5161 16.326 27.5781 16.324 27.6501 16.324H28.8681Z" fill="#23333C"/>
</g>
<defs>
<filter id="filter0_d" x="-4" y="-1.5" width="48" height="48" filterUnits="userSpaceOnUse" color-interpolation-filters="sRGB">
<feFlood flood-opacity="0" result="BackgroundImageFix"/>
<feColorMatrix in="SourceAlpha" type="matrix" values="0 0 0 0 0 0 0 0 0 0 0 0 0 0 0 0 0 0 127 0" result="hardAlpha"/>
<feOffset dy="2"/>
<feGaussianBlur stdDeviation="2"/>
<feColorMatrix type="matrix" values="0 0 0 0 0.889974 0 0 0 0 0.889974 0 0 0 0 0.889974 0 0 0 0.5 0"/>
<feBlend mode="normal" in2="BackgroundImageFix" result="effect1_dropShadow"/>
<feBlend mode="normal" in="SourceGraphic" in2="effect1_dropShadow" result="shape"/>
</filter>
<clipPath id="clip0">
<rect width="40" height="40" fill="white" transform="translate(0 0.5)"/>
</clipPath>
</defs>
</svg>
