<svg width="40" height="40" viewBox="0 0 40 40" fill="none" xmlns="http://www.w3.org/2000/svg">
<g clip-path="url(#clip0)">
<g filter="url(#filter0_d)">
<rect width="40" height="40" rx="8" fill="#BDB2FF"/>
</g>
<path d="M16.2098 20.186C16.5058 20.186 16.7638 20.15 16.9838 20.078C17.2038 20.002 17.3858 19.896 17.5298 19.76C17.6778 19.62 17.7878 19.452 17.8598 19.256C17.9318 19.056 17.9678 18.834 17.9678 18.59C17.9678 18.358 17.9318 18.148 17.8598 17.96C17.7878 17.772 17.6798 17.612 17.5358 17.48C17.3918 17.348 17.2098 17.248 16.9898 17.18C16.7698 17.108 16.5098 17.072 16.2098 17.072H15.0038V20.186H16.2098ZM16.2098 15.824C16.7898 15.824 17.2918 15.892 17.7158 16.028C18.1398 16.164 18.4898 16.354 18.7658 16.598C19.0418 16.842 19.2458 17.134 19.3778 17.474C19.5138 17.814 19.5818 18.186 19.5818 18.59C19.5818 19.01 19.5118 19.396 19.3718 19.748C19.2318 20.096 19.0218 20.396 18.7418 20.648C18.4618 20.9 18.1098 21.096 17.6858 21.236C17.2658 21.376 16.7738 21.446 16.2098 21.446H15.0038V24.5H13.3898V15.824H16.2098ZM24.7941 21.224L23.7381 18.338C23.6861 18.21 23.6321 18.058 23.5761 17.882C23.5201 17.706 23.4641 17.516 23.4081 17.312C23.3561 17.516 23.3021 17.708 23.2461 17.888C23.1901 18.064 23.1361 18.218 23.0841 18.35L22.0341 21.224H24.7941ZM27.6441 24.5H26.3961C26.2561 24.5 26.1421 24.466 26.0541 24.398C25.9661 24.326 25.9001 24.238 25.8561 24.134L25.2081 22.364H21.6141L20.9661 24.134C20.9341 24.226 20.8721 24.31 20.7801 24.386C20.6881 24.462 20.5741 24.5 20.4381 24.5H19.1781L22.5921 15.824H24.2361L27.6441 24.5Z" fill="#23333C"/>
</g>
<defs>
<filter id="filter0_d" x="-4" y="-2" width="48" height="48" filterUnits="userSpaceOnUse" color-interpolation-filters="sRGB">
<feFlood flood-opacity="0" result="BackgroundImageFix"/>
<feColorMatrix in="SourceAlpha" type="matrix" values="0 0 0 0 0 0 0 0 0 0 0 0 0 0 0 0 0 0 127 0" result="hardAlpha"/>
<feOffset dy="2"/>
<feGaussianBlur stdDeviation="2"/>
<feColorMatrix type="matrix" values="0 0 0 0 0.889974 0 0 0 0 0.889974 0 0 0 0 0.889974 0 0 0 0.5 0"/>
<feBlend mode="normal" in2="BackgroundImageFix" result="effect1_dropShadow"/>
<feBlend mode="normal" in="SourceGraphic" in2="effect1_dropShadow" result="shape"/>
</filter>
<clipPath id="clip0">
<rect width="40" height="40" fill="white"/>
</clipPath>
</defs>
</svg>
