<?xml version="1.0" encoding="UTF-8"?>
<svg width="351px" height="269px" viewBox="0 0 351 269" version="1.1" xmlns="http://www.w3.org/2000/svg" xmlns:xlink="http://www.w3.org/1999/xlink">
    <!-- Generator: Sketch 63.1 (92452) - https://sketch.com -->
    <title>Image_HP</title>
    <desc>Created with Sketch.</desc>
    <defs>
        <linearGradient x1="52.4361023%" y1="-143.542426%" x2="47.1319571%" y2="273.042047%" id="linearGradient-1">
            <stop stop-color="#000000" offset="1%"></stop>
            <stop stop-color="#000000" stop-opacity="0.69" offset="13%"></stop>
            <stop stop-color="#000000" stop-opacity="0.32" offset="25%"></stop>
            <stop stop-color="#000000" stop-opacity="0" offset="100%"></stop>
        </linearGradient>
    </defs>
    <g id="wireframes" stroke="none" stroke-width="1" fill="none" fill-rule="evenodd">
        <g id="HP_1440_nonconnecté" transform="translate(-909.000000, -97.000000)">
            <g id="Image_HP" transform="translate(909.000000, 97.000000)">
                <g id="calculator">
                    <path d="M350.473953,210.037374 C350.118931,212.938441 349.496523,215.800593 348.614651,218.587407 C343.843953,233.722054 331.87186,246.864108 317.86814,255.015623 C301.615116,264.498552 287.937907,268.519966 273.916047,268.519966 C266.770947,268.454461 259.658882,267.542358 252.72907,265.802795 C251.822093,265.585421 250.915116,265.349933 249.944651,265.105387 C247.613721,264.489495 245.228372,263.810202 242.788605,263.049394 L239.83186,262.14367 L238.326279,261.636465 C236.312791,260.966229 234.272093,260.250707 232.176977,259.489899 L229.011628,258.321515 C218.753721,254.49936 208.876744,249.164646 198.791163,244.799057 C189.494651,240.7867 180.007674,237.553266 169.922093,237.181919 C144.526744,236.149394 121.852326,253.013973 96.7653488,257.343333 C66.6446512,262.515017 34.5830233,247.833232 17.0965116,222.835253 C16.225814,221.591392 15.3944186,220.332435 14.6023256,219.058384 C14.3574419,218.67798 14.1306977,218.288519 13.8948837,217.908114 C13.2690698,216.875589 12.6795349,215.852121 12.0809302,214.801481 C11.817907,214.330505 11.5639535,213.850471 11.3190698,213.370438 C11.074186,212.890404 10.7748837,212.319798 10.5209302,211.794478 L10.4574419,211.667677 C10.1853488,211.1333 9.93139535,210.60798 9.68651163,210.073603 C7.35366648,205.084329 5.47764691,199.894509 4.08139535,194.567609 C-0.989425622,175.002911 0.013244542,154.361276 6.95651163,135.378552 C7.58232558,133.684848 8.25348837,132.009259 8.98813953,130.351785 C12.5616279,122.182155 17.4683721,114.45633 24.2072093,108.596296 C37.8118605,96.7765993 56.8583721,93.9416835 73.1839535,86.3426599 C81.0747503,82.5852788 88.491243,77.9062083 95.277907,72.403569 C119.113256,53.5373401 137.905814,27.0449158 164.788605,12.2725589 C176.277835,6.04711272 188.944834,2.29237038 201.974651,1.24989899 C223.871286,-0.537293633 245.781918,4.52760603 264.664884,15.7414815 C276.945349,23.0869024 288.409535,31.5644781 298.322791,54.216633 C303.81,66.7337374 308.807442,83.5892593 313.224419,106.956936 C313.737835,109.670693 314.394802,112.355395 315.192558,114.999764 C321.069767,134.545286 333.994186,153.112626 342.556047,172.277744 C346.909535,182.014276 350.111163,191.922896 350.718837,202.166633 C350.875799,204.792209 350.796729,207.426593 350.473953,210.037374 Z" id="Path" fill="#FF810B" fill-rule="nonzero" opacity="0.18"></path>
                    <path d="M135.538605,212.663973 C133.933256,212.727374 132.055814,212.93569 131.230465,214.312391 C130.967013,215.049586 130.664255,215.772179 130.323488,216.477071 C129.416512,217.663569 127.693256,217.554882 126.223953,217.382795 C117.188772,216.365265 108.045721,217.788472 99.7493023,221.503838 C105.934884,224.402155 112.936744,224.936532 119.757209,225.425623 C169.831395,229.048519 220.077907,232.608013 270.206512,229.736869 C273.163256,229.573838 276.283256,229.320236 278.704884,227.617475 C279.893023,226.784209 280.908837,225.416566 280.663953,223.994579 C280.310233,221.974815 277.879535,221.186835 275.866047,220.797374 L215.606512,209.222222 C209.257674,207.999495 202.727442,206.794882 196.215349,206.985084 C190.165814,207.148114 185.23186,209.575455 179.472558,210.734781 C165.586744,213.524411 149.696512,212.129596 135.538605,212.663973 Z" id="Path" fill="#1B2B67" fill-rule="nonzero" opacity="0.39"></path>
                    <path d="M242.933721,221.150694 L184.46093,220.806431 C182.486887,220.806432 180.593828,220.022711 179.19882,218.627931 C177.803812,217.23315 177.021314,215.341752 177.023715,213.370438 L177.023715,113.867609 C177.023715,109.765826 180.353473,106.440673 184.46093,106.440673 L244.747674,106.440673 C248.855132,106.440673 252.184884,109.765826 252.184884,113.867609 L250.416279,213.72367 C250.413891,215.700541 249.623333,217.595095 248.219292,218.9887 C246.81525,220.382305 244.913304,221.160239 242.933721,221.150694 L242.933721,221.150694 Z" id="Path" fill="#1B2B67" fill-rule="nonzero"></path>
                    <path d="M245.781628,136.565051 L236.584884,138.901818 C221.964361,142.615198 206.645639,142.615198 192.025116,138.901818 L182.855581,136.565051 L182.855581,113.016229 L245.754419,113.016229 L245.781628,136.565051 Z" id="Path" fill="#020202" fill-rule="nonzero" opacity="0.1"></path>
                    <rect id="Rectangle" fill="#FFFFFF" fill-rule="nonzero" x="186.646744" y="116.548552" width="55.8788372" height="14.7632997"></rect>
                    <rect id="Rectangle" fill="#FF810B" fill-rule="nonzero" opacity="0.5" x="186.673953" y="151.446094" width="11.9993023" height="12.3450168"></rect>
                    <rect id="Rectangle" fill="#FF810B" fill-rule="nonzero" opacity="0.5" x="201.267209" y="151.446094" width="11.9993023" height="12.3450168"></rect>
                    <rect id="Rectangle" fill="#FF810B" fill-rule="nonzero" opacity="0.5" x="215.851395" y="151.446094" width="11.9993023" height="12.3450168"></rect>
                    <rect id="Rectangle" fill="#DEEEFF" fill-rule="nonzero" opacity="0.1" x="186.673953" y="167.033603" width="11.9993023" height="12.3450168"></rect>
                    <rect id="Rectangle" fill="#DEEEFF" fill-rule="nonzero" opacity="0.1" x="201.267209" y="167.033603" width="11.9993023" height="12.3450168"></rect>
                    <rect id="Rectangle" fill="#DEEEFF" fill-rule="nonzero" opacity="0.1" x="215.851395" y="167.033603" width="11.9993023" height="12.3450168"></rect>
                    <rect id="Rectangle" fill="#DEEEFF" fill-rule="nonzero" opacity="0.1" x="230.000233" y="167.033603" width="11.9993023" height="12.3450168"></rect>
                    <rect id="Rectangle" fill="#FF810B" fill-rule="nonzero" opacity="0.5" x="230.000233" y="182.621111" width="11.9993023" height="27.923468"></rect>
                    <rect id="Rectangle" fill="#DEEEFF" fill-rule="nonzero" opacity="0.1" x="186.673953" y="182.621111" width="11.9993023" height="12.3450168"></rect>
                    <rect id="Rectangle" fill="#DEEEFF" fill-rule="nonzero" opacity="0.1" x="201.267209" y="182.621111" width="11.9993023" height="12.3450168"></rect>
                    <rect id="Rectangle" fill="#DEEEFF" fill-rule="nonzero" opacity="0.1" x="215.851395" y="182.621111" width="11.9993023" height="12.3450168"></rect>
                    <rect id="Rectangle" fill="#DEEEFF" fill-rule="nonzero" opacity="0.1" x="186.673953" y="198.199562" width="11.9993023" height="12.3450168"></rect>
                    <rect id="Rectangle" fill="#DEEEFF" fill-rule="nonzero" opacity="0.1" x="201.267209" y="198.199562" width="11.9993023" height="12.3450168"></rect>
                    <rect id="Rectangle" fill="#DEEEFF" fill-rule="nonzero" opacity="0.1" x="215.851395" y="198.199562" width="11.9993023" height="12.3450168"></rect>
                    <path d="M126.142326,81.5513805 C126.251163,81.5513805 126.142326,81.3883502 126.069767,81.3521212 C125.54203,81.2564508 125.008952,81.1929328 124.473488,81.1619192 C123.932134,81.1272739 123.426607,80.8797448 123.067674,80.473569 C122.833128,80.109644 122.695747,79.6918328 122.668605,79.259899 L121.67093,72.5031987 C120.854651,67.0145118 121.317209,61.5439394 121.036047,56.0009091 C120.976666,55.429457 121.004186,54.8523225 121.117674,54.2890909 C121.253921,53.8417473 121.417483,53.4031592 121.607442,52.9757912 C122.142971,51.2607565 122.309866,49.4521341 122.097209,47.6682492 C122.148556,47.1950159 121.973831,46.7252524 121.625581,46.4002357 C120.90907,45.9383165 120.12,46.8530976 119.766279,47.6320202 L118.859302,49.6608418 C118.822943,49.7701754 118.757027,49.8673449 118.668837,49.9416162 C118.496637,50.023185 118.296851,50.023185 118.124651,49.9416162 C116.62814,49.5340404 114.986512,49.0358923 114.197442,47.6863636 C113.616977,46.6991246 113.49,45.2680808 112.383488,44.8333333 C111.393912,44.5715714 110.368623,45.1110734 110.025349,46.0741751 C109.734712,47.0162494 109.687906,48.016514 109.889302,48.9815488 C110.134186,50.919798 110.433488,52.9576768 111.657907,54.4702357 C112.227877,55.0569616 112.755258,55.6834975 113.236047,56.3450842 C113.691615,57.3118982 113.903354,58.3753504 113.852791,59.4426599 L114.469535,80.5822559 C114.523953,82.6835354 114.632791,84.9116162 115.84814,86.6234343 C117.362791,88.7428283 120.147209,89.4583502 122.704884,89.9383838 C123.988107,90.2629938 125.323437,90.3276663 126.632093,90.1285859 C127.960568,89.8964793 129.05047,88.9476208 129.46186,87.6650168 C129.615623,86.5185565 129.305541,85.3581703 128.600233,84.4406397 C127.992558,83.4805724 126.568605,82.6110774 126.142326,81.5513805 Z" id="Path" fill="#F9D0B4" fill-rule="nonzero"></path>
                    <path d="M116.791395,52.6316162 C115.745452,52.9110851 114.655592,52.9879463 113.580698,52.8580471 C112.842522,52.9048934 112.113806,52.6720262 111.54,52.2059259 C111.089404,51.5566457 110.93153,50.748658 111.104651,49.9778451 C111.101316,49.8652516 111.14012,49.7554582 111.213488,49.669899 C111.318396,49.602976 111.445544,49.5801861 111.567209,49.6064983 L116.673488,50.050303 C117.426279,50.1137037 119.013488,49.8782155 118.696047,50.9560269 C118.343611,51.7705846 117.645005,52.3851726 116.791395,52.6316162 Z" id="Path" fill="#E2B596" fill-rule="nonzero"></path>
                    <path d="M197.240233,97.9359259 L188.569535,99.5843434 L183.826047,100.490067 L179.291163,93.7967677 C177.096279,91.7407744 177.132558,91.3150842 175.89,94.0503704 C172.479767,101.53165 166.883721,115.217138 166.448372,125.460875 L163.727442,125.152929 L128.944884,121.068114 L138.631395,89.7662963 L125.870233,91.0705387 L123.62093,80.5188552 L144.417907,73.7349832 C146.592654,73.1325267 148.823269,72.7531782 151.075116,72.6028283 C157.696047,72.1861953 169.586512,71.6971044 177.06,74.6135354 C187.009535,78.3994613 197.240233,97.9359259 197.240233,97.9359259 Z" id="Path" fill="#1B2B67" fill-rule="nonzero"></path>
                    <path d="M195.879767,97.3472054 C195.879767,97.3472054 199.589302,103.053266 198.664186,105.27229 C197.73907,107.491313 178.538372,115.642828 178.538372,115.642828 C177.177907,115.697172 176.243721,117.119158 175.817442,118.423401 C175.485589,119.809491 175.249222,121.216658 175.11,122.635017 C174.968176,124.067417 174.295306,125.395145 173.223488,126.357542 C172.818957,126.695424 172.308769,126.881273 171.781395,126.882862 C171.427479,126.85404 171.084018,126.748981 170.774651,126.574916 C169.305321,125.665432 168.373957,124.096136 168.280465,122.372357 C168.217203,120.669337 168.555852,118.975327 169.26907,117.427104 L167.019767,117.427104 C166.656977,116.666296 167.745349,116.09569 168.534419,115.83303 C171.935581,114.700875 186.973256,103.243468 187.082093,102.419259 C187.19093,101.595051 184.796512,99.7020875 184.796512,99.7020875 C188.263453,98.0854301 192.054069,97.2800302 195.879767,97.3472054 L195.879767,97.3472054 Z" id="Path" fill="#F9D0B4" fill-rule="nonzero"></path>
                    <path d="M152.988837,63.7539057 C152.97679,64.593178 153.089889,65.4295678 153.324419,66.2355892 C153.613365,67.1485128 154.128053,67.9739905 154.82093,68.6357576 C155.501163,69.2878788 156.426279,69.7045118 156.634884,70.7098653 C156.72301,71.3338442 156.679763,71.969322 156.507907,72.5756566 C156.303118,73.3080831 156.16052,74.0564452 156.081628,74.8127946 C156.002419,75.5740509 156.205739,76.3378644 156.653023,76.9593603 C157.35558,77.7048696 158.350045,78.1054162 159.373953,78.0552862 C160.849091,78.1568654 162.290561,77.5837394 163.292093,76.4974411 C163.896593,75.5727734 164.341158,74.553217 164.607209,73.4813805 C165.024419,72.2677104 165.35093,71.0268687 165.804419,69.8584848 C166.768373,67.5411572 167.607023,65.1738095 168.316744,62.7666667 C169.08231,60.2490418 169.012318,57.5517222 168.117209,55.0770707 C167.210233,53.0301347 164.371395,52.0519529 162.285349,52.0157166 C160.040838,52.012939 157.868176,52.8056999 156.154186,54.252862 C154.84814,55.4031313 154.167907,57.4862963 153.687209,59.0803704 C153.222018,60.594648 152.986615,62.1699749 152.988837,63.7539057 Z" id="Path" fill="#F9D0B4" fill-rule="nonzero"></path>
                    <path d="M154.730233,53.4920539 C154.324636,53.0434475 154.015898,52.516235 153.823256,51.943266 C153.246984,50.5345105 153.104872,48.9860538 153.415116,47.4961616 C153.737645,46.0022968 154.74573,44.7472878 156.136047,44.1087542 C156.811328,43.8446593 157.533588,43.7213666 158.258372,43.7464646 C158.634868,43.7432763 159.009132,43.8044891 159.364884,43.9276094 C160.834186,44.4891582 161.178837,46.4998653 162.493953,47.396532 C162.637649,46.814942 163.154898,46.4024579 163.754651,46.3911785 C164.332407,46.4275606 164.858075,46.7371414 165.169535,47.2244444 C165.482094,47.6962994 165.755114,48.1931156 165.985814,48.7098316 C166.475891,49.6251919 167.16365,50.4202814 167.999302,51.0375421 C168.114915,51.1472161 168.266281,51.211538 168.425581,51.2186869 C168.616047,51.2186869 168.770233,51.0647138 168.951628,50.9831987 C169.486744,50.7658249 170.04907,51.2820875 170.230465,51.8255219 C170.327229,52.39125 170.457457,52.9507591 170.620465,53.5011111 C170.937907,54.180404 171.663488,54.5698653 172.153256,55.1314141 C173.081425,56.3868974 173.208292,58.0620536 172.479767,59.4426599 C171.735297,60.7786316 170.740765,61.9593523 169.550233,62.9206397 C169.289259,62.5627947 168.789991,62.478358 168.425581,62.7304377 C168.074502,62.9793806 167.767892,63.2855668 167.518605,63.6361616 C167.268405,63.99206 166.865426,64.210039 166.430233,64.2248822 C166.375814,62.9206397 167.065116,61.6888552 167.183023,60.3846128 C167.230755,58.3563182 166.143089,56.4703753 164.362326,55.4937037 C162.591599,54.5658081 160.575573,54.2112751 158.593953,54.4792929 C157.414884,54.5879798 155.646279,54.443064 154.730233,53.4920539 Z" id="Path" fill="#473F47" fill-rule="nonzero"></path>
                    <path d="M168.561628,61.9968013 C168.934118,61.8288371 169.351485,61.7874763 169.749767,61.8790572 C170.27835,62.1158796 170.608951,62.6505711 170.584186,63.2285859 C170.572204,63.854415 170.348432,64.4577646 169.949302,64.940404 C169.547261,65.4169158 169.080131,65.8346174 168.561628,66.1812458 C168.281545,66.4186692 167.94364,66.578015 167.582093,66.643165 C166.969931,66.6806628 166.405723,66.3124087 166.194419,65.7374411 C166.012786,65.1533538 166.071532,64.5210821 166.357674,63.9803367 C166.775637,63.0356807 167.577449,62.314058 168.561628,61.9968013 Z" id="Path" fill="#F9D0B4" fill-rule="nonzero"></path>
                    <ellipse id="Oval" fill="#FF810B" fill-rule="nonzero" cx="114.805116" cy="31.1659596" rx="19.9988372" ry="19.9712121"></ellipse>
                    <ellipse id="Oval" fill="#FFFFFF" fill-rule="nonzero" transform="translate(114.811084, 31.175485) rotate(-80.780000) translate(-114.811084, -31.175485) " cx="114.811084" cy="31.1754848" rx="17.019157" ry="17.0414891"></ellipse>
                    <path d="M119.639302,47.6501347 C119.839811,46.7523537 120.404853,45.9781333 121.199302,45.5126263 C121.322664,45.4539528 121.465941,45.4539528 121.589302,45.5126263 C121.699324,45.611614 121.7834,45.7359992 121.834186,45.8749158 C122.047653,46.5819524 122.139652,47.3199894 122.106279,48.0577104 C122.138011,48.5583768 122.138011,49.0605458 122.106279,49.5612121 C122.060492,50.5893913 121.541622,51.5387815 120.700465,52.133468 C120.246977,52.3780135 118.886512,52.4685859 118.886512,51.3998316 C118.959749,50.7874595 119.081053,50.1817799 119.249302,49.5883838 C119.341379,48.9352653 119.471601,48.2880788 119.639302,47.6501347 Z" id="Path" fill="#F9D0B4" fill-rule="nonzero"></path>
                    <path d="M128.953953,121.059057 C128.953953,121.059057 129.543488,165.99202 131.847209,182.648283 C134.105581,198.887912 135.647442,211.631448 135.71093,212.790774 L141.152791,212.093367 L146.503953,141.727677 L153.297209,171.009731 L166.947209,171.99697 L166.421163,125.415589 L128.953953,121.059057 Z" id="Path" fill="#473F47" fill-rule="nonzero"></path>
                    <path d="M123.512093,198.199562 C123.512093,198.199562 168.49814,180.601347 166.947209,172.033199 L153.26093,170.973502 L119.856977,194.830269 L123.512093,198.199562 Z" id="Path" fill="#473F47" fill-rule="nonzero"></path>
                    <path d="M134.740465,217.192593 C134.685825,217.332372 134.685825,217.48756 134.740465,217.62734 C134.834744,217.74147 134.966514,217.818497 135.112326,217.844714 C139.112093,219.094613 143.166279,220.362626 147.356512,220.498485 C147.927907,220.498485 148.635349,220.41697 148.798605,219.882593 C148.856878,219.543525 148.77864,219.195198 148.58093,218.913468 C147.481748,216.954343 145.886705,215.317778 143.955349,214.167475 C142.776279,213.46101 141.388605,212.87229 140.77186,211.640505 C139.87835,211.857886 138.968203,212.000278 138.05093,212.066195 C137.434186,212.066195 136.336744,211.848822 135.874186,212.328855 C135.510019,213.000041 135.293565,213.741143 135.239302,214.502593 C135.003488,215.390202 134.867442,216.295926 134.740465,217.192593 Z" id="Path" fill="#473F47" fill-rule="nonzero"></path>
                    <path d="M124.509767,198.462222 C124.344805,198.141416 124.293648,197.774231 124.364651,197.42064 C123.536382,198.929199 123.146843,200.63892 123.24,202.356835 C123.336942,204.063034 123.297514,205.774235 123.122093,207.474175 C123.099338,208.097912 122.756633,208.666015 122.215116,208.977677 C121.498605,209.276566 120.736744,208.687845 120.228837,208.071953 C117.615233,205.006566 116.431255,200.975405 116.972791,196.985892 C116.984183,196.797391 117.040129,196.614265 117.136047,196.451515 C117.37364,196.193076 117.69471,196.02635 118.043023,195.980539 C119.766279,195.545791 120.51,194.395522 121.816047,193.399226 C123.031395,194.640067 123.729767,196.931549 124.509767,198.462222 Z" id="Path" fill="#473F47" fill-rule="nonzero"></path>
                    <path d="M188.569535,99.5843434 L183.826047,100.490067 L179.291163,93.7967677 C177.096279,91.7407744 177.132558,91.3150842 175.89,94.0503704 C172.479767,101.53165 166.883721,115.217138 166.448372,125.460875 L163.727442,125.152929 C163.228086,124.416115 162.951065,123.551622 162.929302,122.662189 C162.720698,119.881616 163.645814,116.702525 161.85,114.574074 C161.432791,114.084983 160.852326,113.577778 160.943023,112.934714 C161.038639,112.538865 161.257798,112.183619 161.568837,111.920303 C164.291956,109.031121 166.500503,105.69837 168.09907,102.066027 C169.006047,100.010034 169.713488,97.863468 170.765581,95.8708754 C171.827363,93.9654289 173.040559,92.1481478 174.393488,90.436532 C175.300465,89.2138047 176.388837,87.9005051 177.885349,87.5744444 C179.599535,87.1940404 181.35907,88.2809091 182.420233,89.6847811 C183.35538,91.1738577 184.127714,92.7589023 184.723953,94.4126599 C185.125716,95.390041 185.693345,96.2908653 186.40186,97.0754882 C186.900698,97.5917508 187.97093,97.7910101 188.35186,98.2619865 C188.659267,98.6306996 188.74257,99.1367627 188.569535,99.5843434 L188.569535,99.5843434 Z" id="Path" fill="url(#linearGradient-1)" fill-rule="nonzero"></path>
                    <rect id="Rectangle" fill="#FF810B" fill-rule="nonzero" opacity="0.5" x="230.000233" y="151.446094" width="11.9993023" height="12.3450168"></rect>
                    <text id="€" font-family="Lato-Black, Lato" font-size="28" font-weight="700" fill="#FF810B">
                        <tspan x="105.88" y="42">€</tspan>
                    </text>
                </g>
            </g>
        </g>
    </g>
</svg>