<?xml version="1.0" encoding="utf-8"?>
<!-- Generator: Adobe Illustrator 25.0.1, SVG Export Plug-In . SVG Version: 6.00 Build 0)  -->
<svg version="1.1" id="Calque_1" xmlns="http://www.w3.org/2000/svg" xmlns:xlink="http://www.w3.org/1999/xlink" x="0px" y="0px"
	 viewBox="0 0 351 269" style="enable-background:new 0 0 351 269;" xml:space="preserve">
<style type="text/css">
	.st0{opacity:0.18;fill:#FF810B;enable-background:new    ;}
	.st1{opacity:0.39;fill:#1B2B67;enable-background:new    ;}
	.st2{fill:#1B2B67;}
	.st3{opacity:0.1;fill:#020202;enable-background:new    ;}
	.st4{fill:#FFFFFF;}
	.st5{opacity:0.5;fill:#FF810B;enable-background:new    ;}
	.st6{opacity:0.1;fill:#DEEEFF;enable-background:new    ;}
	.st7{fill:#F9D0B4;}
	.st8{fill:#E2B596;}
	.st9{fill:#473F47;}
	.st10{fill:#FF810B;}
	.st11{fill:url(#Path_17_);}
	.st12{enable-background:new    ;}
</style>
<desc>Created with Sketch.</desc>
<g id="wireframes">
	<g id="HP_1440_nonconnecté" transform="translate(-909.000000, -97.000000)">
		<g id="Image_HP" transform="translate(909.000000, 97.000000)">
			<g id="calculator">
				<path id="Path" class="st0" d="M350.5,210c-0.4,2.9-1,5.8-1.9,8.6c-4.8,15.1-16.7,28.3-30.7,36.4c-16.3,9.5-29.9,13.5-44,13.5
					c-7.1-0.1-14.3-1-21.2-2.7c-0.9-0.2-1.8-0.5-2.8-0.7c-2.3-0.6-4.7-1.3-7.2-2.1l-3-0.9l-1.5-0.5c-2-0.7-4.1-1.4-6.1-2.1l-3.2-1.2
					c-10.3-3.8-20.1-9.2-30.2-13.5c-9.3-4-18.8-7.2-28.9-7.6c-25.4-1-48.1,15.8-73.2,20.2c-30.1,5.2-62.2-9.5-79.7-34.5
					c-0.9-1.2-1.7-2.5-2.5-3.8c-0.2-0.4-0.5-0.8-0.7-1.2c-0.6-1-1.2-2.1-1.8-3.1c-0.3-0.5-0.5-1-0.8-1.4s-0.5-1.1-0.8-1.6l-0.1-0.1
					c-0.3-0.5-0.5-1.1-0.8-1.6c-2.3-5-4.2-10.2-5.6-15.5C-1,175,0,154.4,7,135.4c0.6-1.7,1.3-3.4,2-5c3.6-8.2,8.5-15.9,15.2-21.8
					c13.6-11.8,32.7-14.7,49-22.3c7.9-3.8,15.3-8.4,22.1-13.9c23.8-18.9,42.6-45.4,69.5-60.1c11.5-6.2,24.2-10,37.2-11
					c21.9-1.8,43.8,3.3,62.7,14.5c12.3,7.3,23.7,15.8,33.7,38.5c5.5,12.5,10.5,29.4,14.9,52.7c0.5,2.7,1.2,5.4,2,8
					c5.9,19.5,18.8,38.1,27.4,57.3c4.4,9.7,7.6,19.6,8.2,29.9C350.9,204.8,350.8,207.4,350.5,210z"/>
				<path id="Path_1_" class="st1" d="M135.5,212.7c-1.6,0.1-3.5,0.3-4.3,1.6c-0.3,0.7-0.6,1.5-0.9,2.2c-0.9,1.2-2.6,1.1-4.1,0.9
					c-9-1-18.2,0.4-26.5,4.1c6.2,2.9,13.2,3.4,20,3.9c50.1,3.6,100.3,7.2,150.4,4.3c3-0.2,6.1-0.4,8.5-2.1c1.2-0.8,2.2-2.2,2-3.6
					c-0.4-2-2.8-2.8-4.8-3.2l-60.3-11.6c-6.3-1.2-12.9-2.4-19.4-2.2c-6,0.2-11,2.6-16.7,3.7C165.6,213.5,149.7,212.1,135.5,212.7z"
					/>
				<path id="Path_2_" class="st2" d="M242.9,221.2l-58.5-0.3c-2,0-3.9-0.8-5.3-2.2s-2.2-3.3-2.2-5.3v-99.5c0-4.1,3.3-7.4,7.4-7.4
					h60.3c4.1,0,7.4,3.3,7.4,7.4l-1.8,99.9c0,2-0.8,3.9-2.2,5.3C246.8,220.4,244.9,221.2,242.9,221.2L242.9,221.2z"/>
				<path id="Path_3_" class="st3" d="M245.8,136.6l-9.2,2.3c-14.6,3.7-29.9,3.7-44.6,0l-9.2-2.3V113h62.9L245.8,136.6z"/>
				<rect id="Rectangle" x="186.6" y="116.5" class="st4" width="55.9" height="14.8"/>
				<rect id="Rectangle_1_" x="186.7" y="151.4" class="st5" width="12" height="12.3"/>
				<rect id="Rectangle_2_" x="201.3" y="151.4" class="st5" width="12" height="12.3"/>
				<rect id="Rectangle_3_" x="215.9" y="151.4" class="st5" width="12" height="12.3"/>
				<rect id="Rectangle_4_" x="186.7" y="167" class="st6" width="12" height="12.3"/>
				<rect id="Rectangle_5_" x="201.3" y="167" class="st6" width="12" height="12.3"/>
				<rect id="Rectangle_6_" x="215.9" y="167" class="st6" width="12" height="12.3"/>
				<rect id="Rectangle_7_" x="230" y="167" class="st6" width="12" height="12.3"/>
				<rect id="Rectangle_8_" x="230" y="182.6" class="st5" width="12" height="27.9"/>
				<rect id="Rectangle_9_" x="186.7" y="182.6" class="st6" width="12" height="12.3"/>
				<rect id="Rectangle_10_" x="201.3" y="182.6" class="st6" width="12" height="12.3"/>
				<rect id="Rectangle_11_" x="215.9" y="182.6" class="st6" width="12" height="12.3"/>
				<rect id="Rectangle_12_" x="186.7" y="198.2" class="st6" width="12" height="12.3"/>
				<rect id="Rectangle_13_" x="201.3" y="198.2" class="st6" width="12" height="12.3"/>
				<rect id="Rectangle_14_" x="215.9" y="198.2" class="st6" width="12" height="12.3"/>
				<path id="Path_4_" class="st7" d="M126.1,81.6c0.1,0,0-0.2-0.1-0.2c-0.5-0.1-1.1-0.2-1.6-0.2c-0.5,0-1-0.3-1.4-0.7
					c-0.2-0.4-0.4-0.8-0.4-1.2l-1-6.8c-0.8-5.5-0.4-11-0.6-16.5c-0.1-0.6,0-1.1,0.1-1.7c0.1-0.4,0.3-0.9,0.5-1.3
					c0.5-1.7,0.7-3.5,0.5-5.3c0.1-0.5-0.1-0.9-0.5-1.3c-0.7-0.5-1.5,0.5-1.9,1.2l-0.9,2c0,0.1-0.1,0.2-0.2,0.3
					c-0.2,0.1-0.4,0.1-0.5,0c-1.5-0.4-3.1-0.9-3.9-2.3c-0.6-1-0.7-2.4-1.8-2.9c-1-0.3-2,0.3-2.4,1.2c-0.3,0.9-0.3,1.9-0.1,2.9
					c0.2,1.9,0.5,4,1.8,5.5c0.6,0.6,1.1,1.2,1.6,1.9c0.5,1,0.7,2,0.6,3.1l0.6,21.1c0.1,2.1,0.2,4.3,1.4,6c1.5,2.1,4.3,2.8,6.9,3.3
					c1.3,0.3,2.6,0.4,3.9,0.2c1.3-0.2,2.4-1.2,2.8-2.5c0.2-1.1-0.2-2.3-0.9-3.2C128,83.5,126.6,82.6,126.1,81.6z"/>
				<path id="Path_5_" class="st8" d="M116.8,52.6c-1,0.3-2.1,0.4-3.2,0.2c-0.7,0-1.5-0.2-2-0.7c-0.5-0.6-0.6-1.5-0.4-2.2
					c0-0.1,0-0.2,0.1-0.3c0.1-0.1,0.2-0.1,0.4-0.1l5.1,0.4c0.8,0.1,2.3-0.2,2,0.9C118.3,51.8,117.6,52.4,116.8,52.6z"/>
				<path id="Path_6_" class="st2" d="M197.2,97.9l-8.7,1.6l-4.7,0.9l-4.5-6.7c-2.2-2.1-2.2-2.5-3.4,0.3c-3.4,7.5-9,21.2-9.4,31.4
					l-2.7-0.3l-34.8-4.1l9.7-31.3l-12.8,1.3l-2.2-10.6l20.8-6.8c2.2-0.6,4.4-1,6.7-1.1c6.6-0.4,18.5-0.9,26,2
					C187,78.4,197.2,97.9,197.2,97.9z"/>
				<path id="Path_7_" class="st7" d="M195.9,97.3c0,0,3.7,5.7,2.8,7.9c-0.9,2.2-20.1,10.4-20.1,10.4c-1.4,0.1-2.3,1.5-2.7,2.8
					c-0.3,1.4-0.6,2.8-0.7,4.2c-0.1,1.4-0.8,2.8-1.9,3.7c-0.4,0.3-0.9,0.5-1.4,0.5c-0.4,0-0.7-0.1-1-0.3c-1.5-0.9-2.4-2.5-2.5-4.2
					c-0.1-1.7,0.3-3.4,1-4.9H167c-0.4-0.8,0.7-1.3,1.5-1.6c3.4-1.1,18.4-12.6,18.5-13.4c0.1-0.8-2.3-2.7-2.3-2.7
					C188.3,98.1,192.1,97.3,195.9,97.3L195.9,97.3z"/>
				<path id="Path_8_" class="st7" d="M153,63.8c0,0.8,0.1,1.7,0.3,2.5c0.3,0.9,0.8,1.7,1.5,2.4c0.7,0.7,1.6,1.1,1.8,2.1
					c0.1,0.6,0,1.3-0.1,1.9c-0.2,0.7-0.3,1.5-0.4,2.2c-0.1,0.8,0.1,1.5,0.6,2.1c0.7,0.7,1.7,1.1,2.7,1.1c1.5,0.1,2.9-0.5,3.9-1.6
					c0.6-0.9,1-1.9,1.3-3c0.4-1.2,0.7-2.5,1.2-3.6c1-2.3,1.8-4.7,2.5-7.1c0.8-2.5,0.7-5.2-0.2-7.7c-0.9-2-3.7-3-5.8-3.1
					c-2.2,0-4.4,0.8-6.1,2.2c-1.3,1.2-2,3.2-2.5,4.8C153.2,60.6,153,62.2,153,63.8z"/>
				<path id="Path_9_" class="st9" d="M154.7,53.5c-0.4-0.4-0.7-1-0.9-1.5c-0.6-1.4-0.7-3-0.4-4.4c0.3-1.5,1.3-2.7,2.7-3.4
					c0.7-0.3,1.4-0.4,2.1-0.4c0.4,0,0.8,0.1,1.1,0.2c1.5,0.6,1.8,2.6,3.1,3.5c0.1-0.6,0.7-1,1.3-1c0.6,0,1.1,0.3,1.4,0.8
					c0.3,0.5,0.6,1,0.8,1.5c0.5,0.9,1.2,1.7,2,2.3c0.1,0.1,0.3,0.2,0.4,0.2c0.2,0,0.3-0.2,0.5-0.2c0.5-0.2,1.1,0.3,1.3,0.8
					c0.1,0.6,0.2,1.1,0.4,1.7c0.3,0.7,1,1.1,1.5,1.6c0.9,1.3,1.1,2.9,0.3,4.3c-0.7,1.3-1.7,2.5-2.9,3.5c-0.3-0.4-0.8-0.4-1.1-0.2
					c-0.4,0.2-0.7,0.6-0.9,0.9c-0.3,0.4-0.7,0.6-1.1,0.6c-0.1-1.3,0.6-2.5,0.8-3.8c0-2-1-3.9-2.8-4.9c-1.8-0.9-3.8-1.3-5.8-1
					C157.4,54.6,155.6,54.4,154.7,53.5z"/>
				<path id="Path_10_" class="st7" d="M168.6,62c0.4-0.2,0.8-0.2,1.2-0.1c0.5,0.2,0.9,0.8,0.8,1.3c0,0.6-0.2,1.2-0.6,1.7
					c-0.4,0.5-0.9,0.9-1.4,1.2c-0.3,0.2-0.6,0.4-1,0.5c-0.6,0-1.2-0.3-1.4-0.9c-0.2-0.6-0.1-1.2,0.2-1.8
					C166.8,63,167.6,62.3,168.6,62z"/>
				<ellipse id="Oval" class="st10" cx="114.8" cy="31.2" rx="20" ry="20"/>
				
					<ellipse id="Oval_1_" transform="matrix(0.1603 -0.9871 0.9871 0.1603 65.638 139.506)" class="st4" cx="114.8" cy="31.2" rx="17" ry="17"/>
				<path id="Path_11_" class="st7" d="M119.6,47.7c0.2-0.9,0.8-1.7,1.6-2.1c0.1-0.1,0.3-0.1,0.4,0c0.1,0.1,0.2,0.2,0.2,0.4
					c0.2,0.7,0.3,1.4,0.3,2.2c0,0.5,0,1,0,1.5c0,1-0.6,2-1.4,2.6c-0.5,0.2-1.8,0.3-1.8-0.7c0.1-0.6,0.2-1.2,0.4-1.8
					C119.3,48.9,119.5,48.3,119.6,47.7z"/>
				<path id="Path_12_" class="st9" d="M129,121.1c0,0,0.6,44.9,2.9,61.6c2.3,16.2,3.8,29,3.9,30.1l5.4-0.7l5.4-70.4l6.8,29.3
					l13.6,1l-0.5-46.6L129,121.1z"/>
				<path id="Path_13_" class="st9" d="M123.5,198.2c0,0,45-17.6,43.4-26.2l-13.7-1.1l-33.4,23.9L123.5,198.2z"/>
				<path id="Path_14_" class="st9" d="M134.7,217.2c-0.1,0.1-0.1,0.3,0,0.4c0.1,0.1,0.2,0.2,0.4,0.2c4,1.2,8.1,2.5,12.2,2.7
					c0.6,0,1.3-0.1,1.4-0.6c0.1-0.3,0-0.7-0.2-1c-1.1-2-2.7-3.6-4.6-4.7c-1.2-0.7-2.6-1.3-3.2-2.5c-0.9,0.2-1.8,0.4-2.7,0.4
					c-0.6,0-1.7-0.2-2.2,0.3c-0.4,0.7-0.6,1.4-0.6,2.2C135,215.4,134.9,216.3,134.7,217.2z"/>
				<path id="Path_15_" class="st9" d="M124.5,198.5c-0.2-0.3-0.2-0.7-0.1-1c-0.8,1.5-1.2,3.2-1.1,4.9c0.1,1.7,0.1,3.4-0.1,5.1
					c0,0.6-0.4,1.2-0.9,1.5c-0.7,0.3-1.5-0.3-2-0.9c-2.6-3.1-3.8-7.1-3.3-11.1c0-0.2,0.1-0.4,0.2-0.5c0.2-0.3,0.6-0.4,0.9-0.5
					c1.7-0.4,2.5-1.6,3.8-2.6C123,194.6,123.7,196.9,124.5,198.5z"/>
				
					<linearGradient id="Path_17_" gradientUnits="userSpaceOnUse" x1="-755.1976" y1="665.7672" x2="-755.2507" y2="661.6013" gradientTransform="matrix(27.7249 0 0 -37.9631 21113.2305 25307.6035)">
					<stop  offset="1.000000e-02" style="stop-color:#000000"/>
					<stop  offset="0.13" style="stop-color:#000000;stop-opacity:0.69"/>
					<stop  offset="0.25" style="stop-color:#000000;stop-opacity:0.32"/>
					<stop  offset="1" style="stop-color:#000000;stop-opacity:0"/>
				</linearGradient>
				<path id="Path_16_" class="st11" d="M188.6,99.6l-4.7,0.9l-4.5-6.7c-2.2-2.1-2.2-2.5-3.4,0.3c-3.4,7.5-9,21.2-9.4,31.4l-2.7-0.3
					c-0.5-0.7-0.8-1.6-0.8-2.5c-0.2-2.8,0.7-6-1.1-8.1c-0.4-0.5-1-1-0.9-1.6c0.1-0.4,0.3-0.8,0.6-1c2.7-2.9,4.9-6.2,6.5-9.9
					c0.9-2.1,1.6-4.2,2.7-6.2c1.1-1.9,2.3-3.7,3.6-5.4c0.9-1.2,2-2.5,3.5-2.9c1.7-0.4,3.5,0.7,4.5,2.1c0.9,1.5,1.7,3.1,2.3,4.7
					c0.4,1,1,1.9,1.7,2.7c0.5,0.5,1.6,0.7,1.9,1.2C188.7,98.6,188.7,99.1,188.6,99.6L188.6,99.6z"/>
				<rect id="Rectangle_15_" x="230" y="151.4" class="st5" width="12" height="12.3"/>
				<g class="st12">
					<path class="st10" d="M106.4,28.7h1.7c0.2-1.1,0.6-2.1,1.1-3s1.1-1.7,1.8-2.3c0.7-0.6,1.5-1.1,2.3-1.5c0.9-0.3,1.8-0.5,2.8-0.5
						c1.3,0,2.5,0.3,3.4,0.8c1,0.5,1.7,1.2,2.3,2.1l-1.6,1.7c-0.1,0.1-0.2,0.2-0.3,0.3s-0.3,0.1-0.5,0.1c-0.2,0-0.4-0.1-0.6-0.2
						c-0.2-0.1-0.3-0.3-0.5-0.5c-0.2-0.2-0.5-0.3-0.8-0.5c-0.3-0.1-0.7-0.2-1.3-0.2c-0.9,0-1.6,0.3-2.2,0.9
						c-0.6,0.6-1.1,1.5-1.4,2.8h6.4V30c0,0.1,0,0.2-0.1,0.4c-0.1,0.1-0.1,0.2-0.2,0.3c-0.1,0.1-0.2,0.2-0.4,0.2
						c-0.1,0.1-0.3,0.1-0.5,0.1h-5.6c0,0.1,0,0.3,0,0.4s0,0.3,0,0.4v0.5h5.4v1.3c0,0.1,0,0.2-0.1,0.4c-0.1,0.1-0.1,0.2-0.2,0.3
						c-0.1,0.1-0.2,0.2-0.4,0.2c-0.1,0.1-0.3,0.1-0.5,0.1h-4c0.2,1.4,0.7,2.4,1.3,3c0.6,0.7,1.3,1,2.2,1c0.4,0,0.7,0,1-0.1
						c0.3-0.1,0.5-0.2,0.7-0.3c0.2-0.1,0.4-0.2,0.5-0.4c0.1-0.1,0.3-0.3,0.4-0.4s0.2-0.2,0.4-0.3c0.1-0.1,0.3-0.1,0.4-0.1
						c0.1,0,0.2,0,0.3,0.1c0.1,0,0.2,0.1,0.3,0.2l1.9,1.7c-0.6,1.1-1.5,1.9-2.5,2.4s-2.2,0.8-3.6,0.8c-1.1,0-2.1-0.2-3-0.6
						c-0.9-0.4-1.6-0.9-2.3-1.5c-0.6-0.7-1.2-1.5-1.6-2.4c-0.4-0.9-0.7-2-0.9-3.1h-1.6v-2.3h1.4v-0.5c0-0.1,0-0.3,0-0.4s0-0.3,0-0.4
						h-1.4V28.7z"/>
				</g>
			</g>
		</g>
	</g>
</g>
</svg>
