<?xml version="1.0" encoding="UTF-8"?>
<svg width="386px" height="296px" viewBox="0 0 386 296" version="1.1" xmlns="http://www.w3.org/2000/svg" xmlns:xlink="http://www.w3.org/1999/xlink">
    <!-- Generator: Sketch 63.1 (92452) - https://sketch.com -->
    <title>Group 3</title>
    <desc>Created with Sketch.</desc>
    <defs>
        <linearGradient x1="52.4293768%" y1="-143.542426%" x2="47.1398751%" y2="273.042047%" id="linearGradient-1">
            <stop stop-color="#000000" offset="1%"></stop>
            <stop stop-color="#000000" stop-opacity="0.69" offset="13%"></stop>
            <stop stop-color="#000000" stop-opacity="0.32" offset="25%"></stop>
            <stop stop-color="#000000" stop-opacity="0" offset="100%"></stop>
        </linearGradient>
    </defs>
    <g id="wireframes" stroke="none" stroke-width="1" fill="none" fill-rule="evenodd">
        <g id="HP_1440_nonconnecté" transform="translate(-824.000000, -161.000000)">
            <g id="Group-3" transform="translate(823.000000, 160.000000)">
                <g id="calculator" fill-rule="nonzero">
                    <path d="M386.42,231.9 C386.028565,235.103037 385.342321,238.263108 384.37,241.34 C379.11,258.05 365.91,272.56 350.47,281.56 C332.55,292.03 317.47,296.47 302.01,296.47 C294.13207,296.397676 286.290562,295.390633 278.65,293.47 C277.65,293.23 276.65,292.97 275.58,292.7 C273.01,292.02 270.38,291.27 267.69,290.43 L264.43,289.43 L262.77,288.87 C260.55,288.13 258.3,287.34 255.99,286.5 L252.5,285.21 C241.19,280.99 230.3,275.1 219.18,270.28 C208.93,265.85 198.47,262.28 187.35,261.87 C159.35,260.73 134.35,279.35 106.69,284.13 C73.48,289.84 38.13,273.63 18.85,246.03 C17.89,244.656667 16.9733333,243.266667 16.1,241.86 C15.83,241.44 15.58,241.01 15.32,240.59 C14.63,239.45 13.98,238.32 13.32,237.16 C13.03,236.64 12.75,236.11 12.48,235.58 C12.21,235.05 11.88,234.42 11.6,233.84 L11.53,233.7 C11.23,233.11 10.95,232.53 10.68,231.94 C8.10788868,226.431397 6.03945685,220.701372 4.5,214.82 C-1.09090517,193.218827 0.0146029566,170.42862 7.67,149.47 C8.36,147.6 9.1,145.75 9.91,143.92 C13.85,134.9 19.26,126.37 26.69,119.9 C41.69,106.85 62.69,103.72 80.69,95.33 C89.3901093,91.181516 97.567268,86.0154048 105.05,79.94 C131.33,59.11 152.05,29.86 181.69,13.55 C194.357613,6.67655196 208.323791,2.53098142 222.69,1.38 C246.832443,-0.593220108 270.99032,4.998881 291.81,17.38 C305.35,25.49 317.99,34.85 328.92,59.86 C334.97,73.68 340.48,92.29 345.35,118.09 C345.916075,121.08623 346.640423,124.05038 347.52,126.97 C354,148.55 368.25,169.05 377.69,190.21 C382.49,200.96 386.02,211.9 386.69,223.21 C386.863061,226.10887 386.77588,229.017465 386.42,231.9 Z" id="Path" fill="#FF810B" opacity="0.18"></path>
                    <path d="M149.44,234.8 C147.67,234.87 145.6,235.1 144.69,236.62 C144.399527,237.43393 144.065717,238.231737 143.69,239.01 C142.69,240.32 140.79,240.2 139.17,240.01 C129.208134,238.886557 119.127334,240.457905 109.98,244.56 C116.8,247.76 124.52,248.35 132.04,248.89 C187.25,252.89 242.65,256.82 297.92,253.65 C301.18,253.47 304.62,253.19 307.29,251.31 C308.6,250.39 309.72,248.88 309.45,247.31 C309.06,245.08 306.38,244.21 304.16,243.78 L237.72,231 C230.72,229.65 223.52,228.32 216.34,228.53 C209.67,228.71 204.23,231.39 197.88,232.67 C182.57,235.75 165.05,234.21 149.44,234.8 Z" id="Path" fill="#1B2B67" opacity="0.39"></path>
                    <path d="M267.85,244.170098 L203.38,243.79 C201.203491,243.790002 199.116272,242.924703 197.578186,241.384741 C196.0401,239.844779 195.177346,237.756507 195.179994,235.58 L195.179994,125.72 C195.179994,121.191265 198.851265,117.52 203.38,117.52 L269.85,117.52 C274.378735,117.52 278.05,121.191265 278.05,125.72 L276.1,235.97 C276.097367,238.152642 275.225727,240.244399 273.67768,241.783063 C272.129634,243.321727 270.032618,244.180636 267.85,244.170098 L267.85,244.170098 Z" id="Path" fill="#1B2B67"></path>
                    <path d="M270.99,150.78 L260.85,153.36 C244.729936,157.459902 227.840064,157.459902 211.72,153.36 L201.61,150.78 L201.61,124.78 L270.96,124.78 L270.99,150.78 Z" id="Path" fill="#020202" opacity="0.1"></path>
                    <rect id="Rectangle" fill="#FFFFFF" x="205.79" y="128.68" width="61.61" height="16.3"></rect>
                    <rect id="Rectangle" fill="#FF810B" opacity="0.5" x="205.82" y="167.21" width="13.23" height="13.63"></rect>
                    <rect id="Rectangle" fill="#FF810B" opacity="0.5" x="221.91" y="167.21" width="13.23" height="13.63"></rect>
                    <rect id="Rectangle" fill="#FF810B" opacity="0.5" x="237.99" y="167.21" width="13.23" height="13.63"></rect>
                    <rect id="Rectangle" fill="#DEEEFF" opacity="0.1" x="205.82" y="184.42" width="13.23" height="13.63"></rect>
                    <rect id="Rectangle" fill="#DEEEFF" opacity="0.1" x="221.91" y="184.42" width="13.23" height="13.63"></rect>
                    <rect id="Rectangle" fill="#DEEEFF" opacity="0.1" x="237.99" y="184.42" width="13.23" height="13.63"></rect>
                    <rect id="Rectangle" fill="#DEEEFF" opacity="0.1" x="253.59" y="184.42" width="13.23" height="13.63"></rect>
                    <rect id="Rectangle" fill="#FF810B" opacity="0.5" x="253.59" y="201.63" width="13.23" height="30.83"></rect>
                    <rect id="Rectangle" fill="#DEEEFF" opacity="0.1" x="205.82" y="201.63" width="13.23" height="13.63"></rect>
                    <rect id="Rectangle" fill="#DEEEFF" opacity="0.1" x="221.91" y="201.63" width="13.23" height="13.63"></rect>
                    <rect id="Rectangle" fill="#DEEEFF" opacity="0.1" x="237.99" y="201.63" width="13.23" height="13.63"></rect>
                    <rect id="Rectangle" fill="#DEEEFF" opacity="0.1" x="205.82" y="218.83" width="13.23" height="13.63"></rect>
                    <rect id="Rectangle" fill="#DEEEFF" opacity="0.1" x="221.91" y="218.83" width="13.23" height="13.63"></rect>
                    <rect id="Rectangle" fill="#DEEEFF" opacity="0.1" x="237.99" y="218.83" width="13.23" height="13.63"></rect>
                    <path d="M139.08,90.04 C139.2,90.04 139.08,89.86 139,89.82 C138.418135,89.7143714 137.830383,89.6442418 137.24,89.61 C136.643122,89.5717485 136.085746,89.2984543 135.69,88.85 C135.431398,88.4481943 135.279926,87.9868935 135.25,87.51 L134.15,80.05 C133.25,73.99 133.76,67.95 133.45,61.83 C133.384529,61.1990659 133.414872,60.561858 133.54,59.94 C133.69022,59.4460928 133.870558,58.9618524 134.08,58.49 C134.670455,56.5964487 134.854468,54.5995681 134.62,52.63 C134.676613,52.1075083 134.483968,51.5888475 134.1,51.23 C133.31,50.72 132.44,51.73 132.05,52.59 L131.05,54.83 C131.009911,54.9507141 130.937235,55.0579979 130.84,55.14 C130.650138,55.2300593 130.429862,55.2300593 130.24,55.14 C128.59,54.69 126.78,54.14 125.91,52.65 C125.27,51.56 125.13,49.98 123.91,49.5 C122.818929,49.2109914 121.688482,49.8066498 121.31,50.87 C120.989554,51.9101341 120.937947,53.0145155 121.16,54.08 C121.43,56.22 121.76,58.47 123.11,60.14 C123.738428,60.7877978 124.3199,61.4795493 124.85,62.21 C125.352294,63.277449 125.58575,64.4515951 125.53,65.63 L126.21,88.97 C126.27,91.29 126.39,93.75 127.73,95.64 C129.4,97.98 132.47,98.77 135.29,99.3 C136.704836,99.6583984 138.177122,99.7298026 139.62,99.51 C141.084729,99.2537337 142.286416,98.2061092 142.74,96.79 C142.909533,95.5242055 142.567648,94.2430357 141.79,93.23 C141.12,92.17 139.55,91.21 139.08,90.04 Z" id="Path" fill="#F9D0B4"></path>
                    <path d="M128.77,58.11 C127.61678,58.4185586 126.41514,58.5034202 125.23,58.36 C124.416114,58.4117224 123.612658,58.1546163 122.98,57.64 C122.483189,56.9231367 122.309123,56.0310462 122.5,55.18 C122.496323,55.0556867 122.539107,54.934465 122.62,54.84 C122.735667,54.7661111 122.875856,54.7409489 123.01,54.77 L128.64,55.26 C129.47,55.33 131.22,55.07 130.87,56.26 C130.481417,57.1593443 129.711159,57.8379043 128.77,58.11 Z" id="Path" fill="#E2B596"></path>
                    <path d="M217.47,108.13 L207.91,109.95 L202.68,110.95 L197.68,103.56 C195.26,101.29 195.3,100.82 193.93,103.84 C190.17,112.1 184,127.21 183.52,138.52 L180.52,138.18 L142.17,133.67 L152.85,99.11 L138.78,100.55 L136.3,88.9 L159.23,81.41 C161.627798,80.7448343 164.087194,80.3259998 166.57,80.16 C173.87,79.7 186.98,79.16 195.22,82.38 C206.19,86.56 217.47,108.13 217.47,108.13 Z" id="Path" fill="#1B2B67"></path>
                    <path d="M215.97,107.48 C215.97,107.48 220.06,113.78 219.04,116.23 C218.02,118.68 196.85,127.68 196.85,127.68 C195.35,127.74 194.32,129.31 193.85,130.75 C193.484111,132.280368 193.223501,133.834006 193.07,135.4 C192.913629,136.981498 192.171747,138.447428 190.99,139.51 C190.543978,139.883052 189.981464,140.088246 189.4,140.09 C189.009784,140.058178 188.631096,139.942183 188.29,139.75 C186.66997,138.745848 185.64308,137.013206 185.54,135.11 C185.470249,133.229715 185.843632,131.359375 186.63,129.65 L184.15,129.65 C183.75,128.81 184.95,128.18 185.82,127.89 C189.57,126.64 206.15,113.99 206.27,113.08 C206.39,112.17 203.75,110.08 203.75,110.08 C207.572525,108.295066 211.751922,107.405833 215.97,107.48 L215.97,107.48 Z" id="Path" fill="#F9D0B4"></path>
                    <path d="M168.68,70.39 C168.666717,71.3166315 168.791417,72.2400804 169.05,73.13 C169.368582,74.1379491 169.936058,75.0493501 170.7,75.78 C171.45,76.5 172.47,76.96 172.7,78.07 C172.797165,78.7589283 172.749482,79.4605526 172.56,80.13 C172.334207,80.9386642 172.176984,81.7649228 172.09,82.6 C172.002667,83.4404949 172.226841,84.2838131 172.72,84.97 C173.494614,85.7931088 174.591075,86.235348 175.72,86.18 C177.346433,86.2921525 178.935747,85.6593702 180.04,84.46 C180.7065,83.4390844 181.196661,82.3134032 181.49,81.13 C181.95,79.79 182.31,78.42 182.81,77.13 C183.872822,74.5714635 184.797486,71.9577005 185.58,69.3 C186.424086,66.5203175 186.346915,63.5422361 185.36,60.81 C184.36,58.55 181.23,57.47 178.93,57.4299919 C176.455283,57.4269253 174.059783,58.302204 172.17,59.9 C170.73,61.17 169.98,63.47 169.45,65.23 C168.937097,66.9018976 168.67755,68.641199 168.68,70.39 Z" id="Path" fill="#F9D0B4"></path>
                    <path d="M170.6,59.06 C170.152804,58.5646985 169.812401,57.9826089 169.6,57.35 C168.964623,55.7946082 168.807936,54.0849739 169.15,52.44 C169.505609,50.79064 170.617086,49.4049981 172.15,48.7 C172.894541,48.4084157 173.690879,48.2722895 174.49,48.3 C174.905111,48.2964798 175.317761,48.3640642 175.71,48.5 C177.33,49.12 177.71,51.34 179.16,52.33 C179.318434,51.6878728 179.888733,51.2324536 180.55,51.22 C181.187013,51.2601691 181.766595,51.6019739 182.11,52.14 C182.454617,52.66097 182.755639,53.2094994 183.01,53.78 C183.550342,54.7906394 184.30864,55.6684892 185.23,56.35 C185.35747,56.4710899 185.524361,56.5421071 185.7,56.55 C185.91,56.55 186.08,56.38 186.28,56.29 C186.87,56.05 187.49,56.62 187.69,57.22 C187.796688,57.8446143 187.940273,58.4623623 188.12,59.07 C188.47,59.82 189.27,60.25 189.81,60.87 C190.833366,62.2561655 190.973246,64.1056874 190.17,65.63 C189.349173,67.105032 188.252638,68.4086529 186.94,69.47 C186.65226,69.0749072 186.101785,68.9816816 185.7,69.26 C185.312912,69.5348552 184.974855,69.8729121 184.7,70.26 C184.424139,70.6529436 183.979828,70.8936119 183.5,70.91 C183.44,69.47 184.2,68.11 184.33,66.67 C184.382627,64.4305818 183.183406,62.3483326 181.22,61.27 C179.26766,60.2455204 177.044863,59.8540844 174.86,60.15 C173.56,60.27 171.61,60.11 170.6,59.06 Z" id="Path" fill="#473F47"></path>
                    <path d="M185.85,68.45 C186.260695,68.2645525 186.720868,68.2188865 187.16,68.32 C187.742796,68.581473 188.107305,69.1718201 188.08,69.81 C188.066789,70.5009712 187.820066,71.167123 187.38,71.7 C186.936723,72.2261115 186.421683,72.6872914 185.85,73.07 C185.54119,73.3321366 185.168629,73.5080686 184.77,73.58 C184.095052,73.621401 183.472976,73.2148156 183.24,72.58 C183.039738,71.9351155 183.104509,71.2370312 183.42,70.64 C183.88083,69.5970155 184.76488,68.8002796 185.85,68.45 Z" id="Path" fill="#F9D0B4"></path>
                    <circle id="Oval" fill="#FF810B" cx="126.58" cy="34.41" r="22.05"></circle>
                    <circle id="Oval" fill="#FFFFFF" transform="translate(126.586579, 34.420517) rotate(-80.780000) translate(-126.586579, -34.420517) " cx="126.586579" cy="34.4205166" r="18.79"></circle>
                    <path d="M131.91,52.61 C132.131073,51.6187697 132.754069,50.7639613 133.63,50.25 C133.766014,50.1852193 133.923986,50.1852193 134.06,50.25 C134.181306,50.3592913 134.274005,50.4966236 134.33,50.65 C134.565361,51.4306315 134.666796,52.2454901 134.63,53.06 C134.664987,53.6127803 134.664987,54.1672197 134.63,54.72 C134.579516,55.8552015 134.007429,56.903413 133.08,57.56 C132.58,57.83 131.08,57.93 131.08,56.75 C131.160749,56.0738865 131.294494,55.4051622 131.48,54.75 C131.581521,54.0288988 131.725099,53.3143472 131.91,52.61 Z" id="Path" fill="#F9D0B4"></path>
                    <path d="M142.18,133.66 C142.18,133.66 142.83,183.27 145.37,201.66 C147.86,219.59 149.56,233.66 149.63,234.94 L155.63,234.17 L161.53,156.48 L169.02,188.81 L184.07,189.9 L183.49,138.47 L142.18,133.66 Z" id="Path" fill="#473F47"></path>
                    <path d="M136.18,218.83 C136.18,218.83 185.78,199.4 184.07,189.94 L168.98,188.77 L132.15,215.11 L136.18,218.83 Z" id="Path" fill="#473F47"></path>
                    <path d="M148.56,239.8 C148.499756,239.954329 148.499756,240.125671 148.56,240.28 C148.663949,240.40601 148.809233,240.491054 148.97,240.52 C153.38,241.9 157.85,243.3 162.47,243.45 C163.1,243.45 163.88,243.36 164.06,242.77 C164.12425,242.395639 164.037988,242.011055 163.82,241.7 C162.608082,239.536951 160.849444,237.730037 158.72,236.46 C157.42,235.68 155.89,235.03 155.21,233.67 C154.224847,233.910007 153.221352,234.067222 152.21,234.14 C151.53,234.14 150.32,233.9 149.81,234.43 C149.408482,235.171049 149.169828,235.989291 149.11,236.83 C148.85,237.81 148.7,238.81 148.56,239.8 Z" id="Path" fill="#473F47"></path>
                    <path d="M137.28,219.12 C137.098119,218.765801 137.041715,218.360396 137.12,217.97 C136.20678,219.635584 135.777289,221.523268 135.88,223.42 C135.986884,225.303795 135.943413,227.193114 135.75,229.07 C135.724911,229.758661 135.347057,230.385898 134.75,230.73 C133.96,231.06 133.12,230.41 132.56,229.73 C129.678334,226.34554 128.372922,221.894778 128.97,217.49 C128.982561,217.281877 129.044245,217.079691 129.15,216.9 C129.411962,216.61466 129.765963,216.43058 130.15,216.38 C132.05,215.9 132.87,214.63 134.31,213.53 C135.65,214.9 136.42,217.43 137.28,219.12 Z" id="Path" fill="#473F47"></path>
                    <path d="M207.91,109.95 L202.68,110.95 L197.68,103.56 C195.26,101.29 195.3,100.82 193.93,103.84 C190.17,112.1 184,127.21 183.52,138.52 L180.52,138.18 C179.969428,137.366491 179.663995,136.412013 179.64,135.43 C179.41,132.36 180.43,128.85 178.45,126.5 C177.99,125.96 177.35,125.4 177.45,124.69 C177.555423,124.252947 177.797059,123.860725 178.14,123.57 C181.142413,120.380085 183.577478,116.700431 185.34,112.69 C186.34,110.42 187.12,108.05 188.28,105.85 C189.450682,103.746217 190.788309,101.739777 192.28,99.85 C193.28,98.5 194.48,97.05 196.13,96.69 C198.02,96.27 199.96,97.47 201.13,99.02 C202.16106,100.664073 203.012607,102.414104 203.67,104.24 C204.112969,105.319116 204.738816,106.313706 205.52,107.18 C206.07,107.75 207.25,107.97 207.67,108.49 C208.008935,108.897092 208.100783,109.455831 207.91,109.95 L207.91,109.95 Z" id="Path" fill="url(#linearGradient-1)"></path>
                    <rect id="Rectangle" fill="#FF810B" opacity="0.5" x="253.59" y="167.21" width="13.23" height="13.63"></rect>
                </g>
                <text id="€" font-family="Lato-Black, Lato" font-size="28" font-weight="700" fill="#FF810B">
                    <tspan x="117.88" y="44">€</tspan>
                </text>
            </g>
        </g>
    </g>
</svg>