<svg width="40" height="40" viewBox="0 0 40 40" fill="none" xmlns="http://www.w3.org/2000/svg">
<g clip-path="url(#clip0)">
<g filter="url(#filter0_d)">
<rect width="40" height="40" rx="8" fill="#FFC6FF"/>
</g>
<path d="M8.21211 21.224L7.15611 18.338C7.10411 18.21 7.05011 18.058 6.99411 17.882C6.93811 17.706 6.88211 17.516 6.82611 17.312C6.77411 17.516 6.72011 17.708 6.66411 17.888C6.60811 18.064 6.55411 18.218 6.50211 18.35L5.45211 21.224H8.21211ZM11.0621 24.5H9.81411C9.67411 24.5 9.56011 24.466 9.47211 24.398C9.38411 24.326 9.31811 24.238 9.27411 24.134L8.62611 22.364H5.03211L4.38411 24.134C4.35211 24.226 4.29011 24.31 4.19811 24.386C4.10611 24.462 3.99211 24.5 3.85611 24.5H2.59611L6.01011 15.824H7.65411L11.0621 24.5ZM18.8543 20.15V23.66C18.4143 23.984 17.9443 24.222 17.4443 24.374C16.9483 24.522 16.4163 24.596 15.8483 24.596C15.1403 24.596 14.4983 24.486 13.9223 24.266C13.3503 24.046 12.8603 23.74 12.4523 23.348C12.0483 22.956 11.7363 22.488 11.5163 21.944C11.2963 21.4 11.1863 20.806 11.1863 20.162C11.1863 19.51 11.2923 18.912 11.5043 18.368C11.7163 17.824 12.0163 17.356 12.4043 16.964C12.7963 16.572 13.2703 16.268 13.8263 16.052C14.3823 15.836 15.0063 15.728 15.6983 15.728C16.0503 15.728 16.3783 15.756 16.6823 15.812C16.9903 15.868 17.2743 15.946 17.5343 16.046C17.7983 16.142 18.0383 16.26 18.2543 16.4C18.4703 16.54 18.6683 16.694 18.8483 16.862L18.3863 17.594C18.3143 17.71 18.2203 17.782 18.1043 17.81C17.9883 17.834 17.8623 17.804 17.7263 17.72C17.5943 17.644 17.4623 17.568 17.3303 17.492C17.1983 17.416 17.0503 17.35 16.8863 17.294C16.7263 17.238 16.5443 17.192 16.3403 17.156C16.1403 17.12 15.9083 17.102 15.6443 17.102C15.2163 17.102 14.8283 17.174 14.4803 17.318C14.1363 17.462 13.8423 17.668 13.5983 17.936C13.3543 18.204 13.1663 18.526 13.0343 18.902C12.9023 19.278 12.8363 19.698 12.8363 20.162C12.8363 20.658 12.9063 21.102 13.0463 21.494C13.1903 21.882 13.3903 22.212 13.6463 22.484C13.9063 22.752 14.2183 22.958 14.5823 23.102C14.9463 23.242 15.3523 23.312 15.8003 23.312C16.1203 23.312 16.4063 23.278 16.6583 23.21C16.9103 23.142 17.1563 23.05 17.3963 22.934V21.362H16.3043C16.2003 21.362 16.1183 21.334 16.0583 21.278C16.0023 21.218 15.9743 21.146 15.9743 21.062V20.15H18.8543ZM22.0294 17.108V19.514H25.0654V20.756H22.0294V23.21H25.8814V24.5H20.4094V15.824H25.8814V17.108H22.0294ZM30.1317 20.186C30.4277 20.186 30.6857 20.15 30.9057 20.078C31.1257 20.002 31.3077 19.896 31.4517 19.76C31.5997 19.62 31.7097 19.452 31.7817 19.256C31.8537 19.056 31.8897 18.834 31.8897 18.59C31.8897 18.358 31.8537 18.148 31.7817 17.96C31.7097 17.772 31.6017 17.612 31.4577 17.48C31.3137 17.348 31.1317 17.248 30.9117 17.18C30.6917 17.108 30.4317 17.072 30.1317 17.072H28.9257V20.186H30.1317ZM30.1317 15.824C30.7117 15.824 31.2137 15.892 31.6377 16.028C32.0617 16.164 32.4117 16.354 32.6877 16.598C32.9637 16.842 33.1677 17.134 33.2997 17.474C33.4357 17.814 33.5037 18.186 33.5037 18.59C33.5037 19.01 33.4337 19.396 33.2937 19.748C33.1537 20.096 32.9437 20.396 32.6637 20.648C32.3837 20.9 32.0317 21.096 31.6077 21.236C31.1877 21.376 30.6957 21.446 30.1317 21.446H28.9257V24.5H27.3117V15.824H30.1317ZM36.3614 24.5H34.7414V15.824H36.3614V24.5Z" fill="#23333C"/>
</g>
<defs>
<filter id="filter0_d" x="-4" y="-2" width="48" height="48" filterUnits="userSpaceOnUse" color-interpolation-filters="sRGB">
<feFlood flood-opacity="0" result="BackgroundImageFix"/>
<feColorMatrix in="SourceAlpha" type="matrix" values="0 0 0 0 0 0 0 0 0 0 0 0 0 0 0 0 0 0 127 0" result="hardAlpha"/>
<feOffset dy="2"/>
<feGaussianBlur stdDeviation="2"/>
<feColorMatrix type="matrix" values="0 0 0 0 0.889974 0 0 0 0 0.889974 0 0 0 0 0.889974 0 0 0 0.5 0"/>
<feBlend mode="normal" in2="BackgroundImageFix" result="effect1_dropShadow"/>
<feBlend mode="normal" in="SourceGraphic" in2="effect1_dropShadow" result="shape"/>
</filter>
<clipPath id="clip0">
<rect width="40" height="40" fill="white"/>
</clipPath>
</defs>
</svg>
