<?xml version="1.0" encoding="UTF-8"?>
<svg width="335px" height="256px" viewBox="0 0 335 256" version="1.1" xmlns="http://www.w3.org/2000/svg" xmlns:xlink="http://www.w3.org/1999/xlink">
    <title>Group 10</title>
    <defs>
        <linearGradient x1="51.2428684%" y1="-143.53183%" x2="48.2339044%" y2="273.246634%" id="linearGradient-1">
            <stop stop-color="#000000" offset="1%"></stop>
            <stop stop-color="#000000" stop-opacity="0.69" offset="13%"></stop>
            <stop stop-color="#000000" stop-opacity="0.32" offset="25%"></stop>
            <stop stop-color="#000000" stop-opacity="0" offset="100%"></stop>
        </linearGradient>
    </defs>
    <g id="Test_prospective" stroke="none" stroke-width="1" fill="none" fill-rule="evenodd">
        <g id="HP_retravail" transform="translate(-874.000000, -154.000000)" fill-rule="nonzero">
            <g id="Group-10" transform="translate(874.000000, 154.000000)">
                <path d="M334.650065,200.012111 C334.339012,202.811506 333.716906,205.507219 332.887431,208.202932 C328.325319,222.71831 316.816355,235.263745 303.441073,243.039841 C287.888419,252.060112 274.82419,256 261.345223,256 C254.502055,255.896319 247.658888,255.066869 241.023089,253.407968 C240.193614,253.200606 239.260454,252.993243 238.327295,252.78588 C236.046239,252.163793 233.765183,251.541705 231.484127,250.815936 L228.68465,249.986486 L227.233069,249.46808 C225.263066,248.845992 223.396747,248.120223 221.32306,247.394454 L218.316214,246.25396 C208.4662,242.625115 199.030923,237.544733 189.388277,233.293801 C180.471423,229.457593 171.450883,226.347155 161.808238,226.036111 C137.546098,224.999299 115.772382,241.173578 91.8212951,245.320829 C62.9970431,250.29753 32.3064727,236.196876 15.6132908,212.350183 C14.7838159,211.209689 13.954341,209.965514 13.2285505,208.721338 C13.0211818,208.306613 12.8138131,207.995569 12.50276,207.580844 C11.8806538,206.544031 11.362232,205.6109 10.7401259,204.574087 C10.5327572,204.159362 10.2217041,203.640956 10.0143354,203.226231 C9.80696664,202.811506 9.49591356,202.189418 9.28854484,201.671012 L9.18486048,201.56733 C8.8738074,201.048924 8.66643868,200.530517 8.45906996,200.012111 C6.17801405,195.242772 4.41537994,190.266071 3.06748326,185.185689 C-1.80568164,166.523059 -0.872522401,146.719935 5.86696097,128.575712 C6.48906713,126.916812 7.11117329,125.361593 7.83696381,123.806373 C11.2585477,116.030278 15.9243439,108.565226 22.3527742,102.966437 C35.4170035,91.665178 53.5617664,88.9694648 69.2181047,81.7117755 C76.7870629,78.0829309 83.8375994,73.624636 90.3697141,68.3368909 C113.180273,50.296349 131.117667,24.9981177 156.935073,10.8974642 C167.925615,4.98763147 180.056685,1.35878682 192.498808,0.321974062 C213.443049,-1.33692635 234.38729,3.43241233 252.532052,14.215265 C264.248385,21.2655918 275.238927,29.3527313 284.777888,51.0221179 C290.065791,62.9454646 294.835271,79.1197436 299.08633,101.411218 C299.604752,104.00325 300.226858,106.595282 300.952648,109.083632 C306.551604,127.746262 318.993727,145.47576 327.184791,163.827346 C331.332166,173.158661 334.442697,182.593657 334.961118,192.443378 C335.064803,195.03541 334.961118,197.52376 334.650065,200.012111 Z" id="Path" fill="#FF810B" opacity="0.18"></path>
                <path d="M127.377472,202.562116 C125.814859,202.666936 124.043899,202.876576 123.210505,204.134418 C123.002157,204.86816 122.689635,205.497081 122.377112,206.230822 C121.543719,207.383844 119.876932,207.279024 118.418494,207.069384 C109.772039,206.126002 100.917236,207.488665 93,211.052551 C98.9379269,213.882696 105.709247,214.406797 112.272219,214.826078 C160.400679,218.285145 208.737488,221.744211 256.970123,219.018886 C259.782825,218.809246 262.803876,218.599605 265.095707,216.922482 C266.241623,216.083921 267.17919,214.826078 266.970842,213.463416 C266.658319,211.471832 264.262314,210.738091 262.387179,210.42363 L204.362174,199.207869 C198.215898,198.054847 191.965449,196.901825 185.715,197.006645 C179.881247,197.216286 175.19341,199.52233 169.568005,200.675352 C156.233713,203.400677 141.024286,202.038015 127.377472,202.562116 Z" id="Path_1_" fill="#1B2B67" opacity="0.39"></path>
                <path d="M232.181556,211 L176.158501,210.687796 C174.291066,210.687796 172.423631,209.959319 171.074928,208.606433 C169.726225,207.253548 169,205.48439 169,203.611164 L169,108.076632 C169,104.122044 172.216138,101 176.158501,101 L233.841499,101 C237.783862,101 241,104.226112 241,108.076632 L239.340058,203.923368 C239.340058,205.796594 238.613833,207.66982 237.26513,209.022706 C235.916427,210.375591 234.152738,211 232.181556,211 L232.181556,211 Z" id="Path_2_" fill="#1B2B67"></path>
                <path d="M235,130.971645 L226.222031,133.300567 C212.280551,136.899811 197.719449,136.899811 183.777969,133.300567 L175,130.971645 L175,108 L235,108 L235,130.971645 Z" id="Path_3_" fill="#020202" opacity="0.1"></path>
                <rect id="Rectangle" fill="#FFFFFF" x="178" y="111" width="53" height="14"></rect>
                <rect id="Rectangle_1_" fill="#FF810B" opacity="0.5" x="178" y="145" width="11" height="12"></rect>
                <rect id="Rectangle_2_" fill="#FF810B" opacity="0.5" x="192" y="145" width="11" height="12"></rect>
                <rect id="Rectangle_3_" fill="#FF810B" opacity="0.5" x="206" y="145" width="11" height="12"></rect>
                <rect id="Rectangle_4_" fill="#DEEEFF" opacity="0.1" x="178" y="159" width="11" height="12"></rect>
                <rect id="Rectangle_5_" fill="#DEEEFF" opacity="0.1" x="192" y="159" width="11" height="12"></rect>
                <rect id="Rectangle_6_" fill="#DEEEFF" opacity="0.1" x="206" y="159" width="11" height="12"></rect>
                <rect id="Rectangle_7_" fill="#DEEEFF" opacity="0.1" x="220" y="159" width="11" height="12"></rect>
                <rect id="Rectangle_8_" fill="#FF810B" opacity="0.5" x="220" y="174" width="11" height="28"></rect>
                <rect id="Rectangle_9_" fill="#DEEEFF" opacity="0.1" x="178" y="175" width="11" height="12"></rect>
                <rect id="Rectangle_10_" fill="#DEEEFF" opacity="0.1" x="192" y="175" width="11" height="12"></rect>
                <rect id="Rectangle_11_" fill="#DEEEFF" opacity="0.1" x="206" y="175" width="11" height="12"></rect>
                <rect id="Rectangle_12_" fill="#DEEEFF" opacity="0.1" x="178" y="189" width="11" height="12"></rect>
                <rect id="Rectangle_13_" fill="#DEEEFF" opacity="0.1" x="192" y="189" width="11" height="12"></rect>
                <rect id="Rectangle_14_" fill="#DEEEFF" opacity="0.1" x="206" y="189" width="11" height="12"></rect>
                <path d="M120.645844,77.4151216 C120.749877,77.4151216 120.645844,77.2058377 120.541812,77.2058377 C120.021649,77.1011958 119.501487,77.1011958 118.981325,76.9965539 C118.461163,76.9965539 117.941,76.6826281 117.628903,76.3687023 C117.420838,76.0547765 117.316806,75.6362087 117.212773,75.217641 L116.276481,68.7298412 C115.444221,63.3931026 115.964384,58.161006 115.652286,52.8242674 C115.548254,52.3010577 115.652286,51.6732061 115.756319,51.1499965 C115.860351,50.7314287 116.068416,50.312861 116.276481,49.8942933 C116.796643,48.2200224 116.900676,46.5457514 116.796643,44.7668386 C116.796643,44.3482708 116.692611,43.8250612 116.380514,43.5111354 C115.652286,43.0925676 114.924059,43.9297031 114.611962,44.6621966 L113.779702,46.6503934 C113.779702,46.7550353 113.67567,46.8596772 113.571637,46.9643192 C113.363572,47.0689611 113.25954,47.0689611 113.051475,46.9643192 C111.595021,46.5457514 110.034534,46.1271837 109.306307,44.7668386 C108.786144,43.8250612 108.578079,42.464716 107.537755,42.0461483 C106.601463,41.8368645 105.561138,42.3600741 105.249041,43.1972096 C104.936944,44.138987 104.936944,45.0807644 105.145008,46.0225418 C105.353073,47.9060966 105.665171,49.8942933 106.809528,51.3592803 C107.32969,51.88249 107.849852,52.5103416 108.370015,53.1381932 C108.786144,54.0799706 108.994209,55.1263899 108.994209,56.1728092 L109.618404,76.5779861 C109.722436,78.5661829 109.826469,80.7636634 110.970826,82.4379344 C112.42728,84.530773 115.132124,85.1586246 117.524871,85.6818343 C118.77326,85.9957601 120.021649,86.100402 121.270039,85.8911181 C122.518428,85.6818343 123.558753,84.7400569 123.974883,83.4843537 C124.078915,82.3332924 123.87085,81.2868731 123.142623,80.3450957 C122.414396,79.2986764 121.061974,78.4615409 120.645844,77.4151216 Z" id="Path_4_" fill="#F9D0B4"></path>
                <path d="M112.045235,49.7533322 C110.921264,50.0381596 109.797293,50.0381596 108.673321,49.9432172 C107.886542,49.9432172 107.099762,49.7533322 106.537776,49.3735622 C106.088188,48.8039073 105.863394,48.1393099 106.088188,47.37977 C106.088188,47.2848275 106.088188,47.189885 106.200585,47.0949425 C106.312982,47 106.425379,47 106.537776,47 L111.820441,47.37977 C112.60722,47.4747124 114.293177,47.189885 113.955986,48.1393099 C113.618794,48.9937923 112.944412,49.5634472 112.045235,49.7533322 Z" id="Path_5_" fill="#E2B596"></path>
                <path d="M188,93.6066792 L179.764706,95.1715006 L175.235294,96.006072 L170.911765,89.5381436 C168.852941,87.5560365 168.852941,87.1387508 167.720588,89.7467864 C164.529412,96.9449648 159.176471,110.089465 158.764706,120 L156.191176,119.687036 L123.147059,115.722822 L132.308824,85.5739294 L120.161765,87.0344293 L118,76.915251 L137.764706,70.3430012 C139.823529,69.7170726 141.985294,69.4041083 144.044118,69.2997869 C150.323529,68.8825012 161.647059,68.4652155 168.75,71.281894 C178.220588,74.8288225 188,93.6066792 188,93.6066792 Z" id="Path_6_" fill="#3853B9"></path>
                <path d="M187.127698,92 C187.127698,92 190.715591,97.4358974 189.871381,99.4871795 C189.027171,101.538462 170.243494,109.333333 170.243494,109.333333 C168.871653,109.435897 168.027443,110.769231 167.605338,112 C167.288759,113.333333 167.077706,114.666667 166.866654,116 C166.761127,117.333333 166.022444,118.564103 165.072707,119.487179 C164.650602,119.794872 164.228497,120 163.700866,120 C163.384287,120 163.067708,119.897436 162.751129,119.692308 C161.273761,118.871795 160.429551,117.333333 160.324025,115.692308 C160.218499,114.051282 160.640604,112.512821 161.273761,110.974359 L159.05771,110.974359 C158.741131,110.25641 159.796394,109.74359 160.535077,109.435897 C163.806392,108.410256 178.474543,97.5384615 178.58007,96.7179487 C178.685596,95.8974359 176.364018,94.1538462 176.364018,94.1538462 C179.740859,92.7179487 183.434278,92 187.127698,92 L187.127698,92 Z" id="Path_7_" fill="#F9D0B4"></path>
                <path d="M145,60.185352 C145,61.02164 145.0961,61.753392 145.288301,62.58968 C145.576602,63.425968 145.961003,64.262256 146.633705,64.889472 C147.210307,65.516688 148.07521,65.934832 148.26741,66.875656 C148.363511,67.502872 148.26741,68.130088 148.17131,68.652768 C147.979109,69.38452 147.883009,70.116272 147.786909,70.848024 C147.690808,71.579776 147.883009,72.311528 148.26741,72.938744 C148.844012,73.670496 149.805015,74.08864 150.669918,73.984104 C152.015322,74.08864 153.264626,73.56596 154.129529,72.5206 C154.70613,71.579776 155.090532,70.638952 155.282732,69.593592 C155.667133,68.443696 155.955434,67.189264 156.339836,66.143904 C157.204738,63.948648 157.973541,61.648856 158.550142,59.349064 C159.222845,56.944736 159.126744,54.331336 158.357942,51.927008 C157.589139,49.940824 154.994431,49 153.168526,49 C151.150419,49 149.228413,49.731752 147.690808,51.195256 C146.537605,52.345152 145.961003,54.331336 145.480502,55.899376 C145.192201,57.153808 145,58.617312 145,60.185352 Z" id="Path_8_" fill="#F9D0B4"></path>
                <path d="M147.384656,49.9612179 C146.97162,49.5596666 146.661843,49.0577275 146.558584,48.5557884 C146.042289,47.2507467 145.835771,45.8453172 146.145548,44.4398877 C146.455325,43.0344582 147.384656,41.9301922 148.727023,41.3278653 C149.346577,41.1270896 150.069391,40.926314 150.792204,41.0267018 C151.101981,41.0267018 151.515017,41.1270896 151.824794,41.2274774 C153.27042,41.7294165 153.580197,43.6367851 154.819306,44.4398877 C154.922565,43.9379486 155.43886,43.5363973 156.058414,43.5363973 C156.574709,43.5363973 157.091004,43.8375608 157.400781,44.3394999 C157.710558,44.7410512 157.917076,45.2429903 158.226853,45.7449294 C158.743149,46.548032 159.362703,47.3511345 160.188775,47.8530736 C160.292034,47.9534615 160.395293,48.0538493 160.601811,48.0538493 C160.808329,48.0538493 160.911588,47.9534615 161.118106,47.8530736 C161.634401,47.652298 162.150696,48.1542371 162.357214,48.6561762 C162.460473,49.1581153 162.563732,49.6600544 162.77025,50.1619935 C163.080028,50.7643204 163.802841,51.1658717 164.215877,51.6678108 C165.145208,52.8724647 165.248467,54.378282 164.525654,55.6833237 C163.802841,56.8879775 162.873509,57.9922436 161.73766,58.895734 C161.531142,58.5945705 161.014847,58.4941827 160.70507,58.6949583 C160.395293,58.895734 160.085516,59.1968974 159.878998,59.4980609 C159.67248,59.7992244 159.259444,60 158.846408,60 C158.743149,58.7953461 159.465962,57.6910801 159.569221,56.4864263 C159.569221,54.5790577 158.536631,52.8724647 156.884486,51.9689743 C155.232342,51.0654839 153.27042,50.7643204 151.411758,51.0654839 C149.966132,50.9650961 148.313987,50.8647083 147.384656,49.9612179 Z" id="Path_9_" fill="#473F47"></path>
                <path d="M160.19222,59.151807 C160.477659,58.9685597 160.858244,58.9685597 161.23883,59.0601834 C161.714561,59.2434307 162,59.7015489 162,60.1596671 C162,60.7094089 161.809707,61.1675272 161.429122,61.6256454 C161.048537,61.9921399 160.667952,62.3586345 160.19222,62.6335054 C159.906781,62.8167527 159.621342,63 159.335903,63 C158.765026,63 158.289294,62.7251291 158.099001,62.2670109 C157.908709,61.8088926 158.003855,61.2591508 158.289294,60.8010326 C158.574733,59.9764198 159.335903,59.3350543 160.19222,59.151807 Z" id="Path_10_" fill="#F9D0B4"></path>
                <circle id="Oval" fill="#FF810B" cx="109" cy="29" r="19"></circle>
                <ellipse id="Oval_1_" fill="#FFFFFF" transform="translate(109.031683, 29.061229) rotate(-80.781636) translate(-109.031683, -29.061229) " cx="109.031683" cy="29.0612292" rx="16.3009277" ry="16.2704141"></ellipse>
                <path d="M113.7,45.3035561 C113.9,44.4154381 114.4,43.6383348 115.1,43.0832611 C115.2,42.9722463 115.3,42.9722463 115.5,43.0832611 C115.6,43.1942758 115.7,43.3052906 115.7,43.4163053 C115.9,44.1934086 116,44.8594971 116,45.6366004 C116,46.1916742 116,46.6357332 116,47.190807 C116,48.1899398 115.5,49.1890725 114.7,49.8551611 C114.3,50.0771906 113,50.1882053 113,49.0780578 C113.1,48.4119693 113.2,47.8568955 113.3,47.190807 C113.5,46.6357332 113.6,45.9696447 113.7,45.3035561 Z" id="Path_11_" fill="#F9D0B4"></path>
                <path d="M123,115 C123,115 123.632479,157.335697 125.846154,173.562648 C128.059829,189.373522 129.535613,201.855792 129.641026,203 L134.911681,202.271868 L140.076923,133.619385 L146.717949,162.224586 L160,163.160757 L159.472934,117.704492 L123,115 Z" id="Path_12_" fill="#23333C"></path>
                <path d="M118.41893,188 C118.41893,188 161.414565,170.573705 159.96411,162.075697 L146.910014,161 L115,184.665339 L118.41893,188 Z" id="Path_13_" fill="#23333C"></path>
                <path d="M128.074918,206.073171 C127.975027,206.170732 127.975027,206.365854 128.074918,206.463415 C128.174809,206.560976 128.274699,206.658537 128.37459,206.658537 C132.070544,207.829268 135.766498,208.902439 139.662234,209 C140.161687,209 140.860922,208.902439 140.960812,208.414634 C141.060703,208.121951 140.960812,207.829268 140.761031,207.536585 C139.762125,205.780488 138.263765,204.317073 136.465733,203.243902 C135.366936,202.560976 134.068357,202.073171 133.568904,201 C132.769779,201.195122 131.870763,201.292683 131.071638,201.390244 C130.472294,201.390244 129.473387,201.195122 129.073825,201.585366 C128.774153,202.170732 128.574371,202.853659 128.474481,203.536585 C128.274699,204.512195 128.174809,205.292683 128.074918,206.073171 Z" id="Path_14_" fill="#23333C"></path>
                <path d="M121,186.47831 C120.768731,186.186246 120.768731,185.894182 120.884366,185.504764 C119.959291,186.867728 119.612387,188.425401 119.728022,189.983074 C119.843656,191.540747 119.843656,193.09842 119.612387,194.558738 C119.612387,195.142865 119.265484,195.629638 118.687312,195.921702 C117.877872,196.213766 117.068431,195.629638 116.605894,195.142865 C113.830669,192.416938 112.55869,188.814819 113.136862,185.2127 C113.136862,185.017991 113.252497,184.920637 113.368131,184.725928 C113.5994,184.531219 113.946303,184.336509 114.293206,184.336509 C116.143356,183.947091 116.952797,182.876191 118.340409,182 C119.496753,183.0709 120.190559,185.115346 121,186.47831 Z" id="Path_15_" fill="#23333C"></path>
                <path d="M179.958384,94.5085754 L175.290805,95.3318166 L170.835389,88.9516976 C168.713762,86.9964998 168.713762,86.5848792 167.546868,89.1575079 C164.258346,96.2579629 158.742117,109.224011 158.317791,119 L155.665758,118.691285 C155.135351,117.970949 154.923189,117.147707 154.923189,116.324466 C154.711026,113.648932 155.665758,110.664683 153.862375,108.60658 C153.43805,108.092055 152.907643,107.680434 153.013725,107.063003 C153.119806,106.651383 153.331969,106.342667 153.650213,106.136857 C156.302246,103.358418 158.529954,100.271264 160.015093,96.7724886 C160.863743,94.8172909 161.606313,92.759188 162.667126,90.9068953 C163.72794,89.0546027 164.894834,87.4081204 166.16781,85.7616381 C167.016461,84.6296815 168.077274,83.3948197 169.562413,83.0861043 C171.259714,82.6744837 172.957016,83.8064403 174.017829,85.0413021 C174.972561,86.4819741 175.71513,87.9226461 176.245537,89.5691285 C176.669862,90.4952748 177.200269,91.3185159 177.836757,92.1417571 C178.367164,92.6562828 179.321896,92.8620931 179.746221,93.2737137 C179.958384,93.5824291 180.064465,94.0969548 179.958384,94.5085754 L179.958384,94.5085754 Z" id="Path_16_" fill="url(#linearGradient-1)"></path>
                <rect id="Rectangle_15_" fill="#FF810B" opacity="0.5" x="220" y="145" width="11" height="12"></rect>
                <path d="M99.3269231,26.6176471 L101.397436,26.6176471 C101.615385,25.4852941 102.051282,24.3529412 102.487179,23.4264706 C103.032051,22.5 103.576923,21.6764706 104.339744,21.0588235 C105.102564,20.4411765 105.865385,19.9264706 106.846154,19.5147059 C107.717949,19.2058824 108.807692,19 109.897436,19 C111.314103,19 112.512821,19.2058824 113.49359,19.7205882 C114.474359,20.2352941 115.346154,20.9558824 116,21.7794118 L114.692308,23.1176471 C114.583333,23.2205882 114.474359,23.3235294 114.365385,23.4264706 C114.25641,23.5294118 114.147436,23.5294118 113.929487,23.5294118 C113.820513,23.5294118 113.711538,23.5294118 113.49359,23.4264706 C113.384615,23.3235294 113.275641,23.2205882 113.057692,23.1176471 C112.948718,23.0147059 112.730769,22.9117647 112.621795,22.7058824 C112.403846,22.6029412 112.294872,22.3970588 111.967949,22.2941176 C111.641026,22.1911765 111.423077,22.0882353 111.096154,21.9852941 C110.769231,21.8823529 110.333333,21.8823529 109.897436,21.8823529 C108.698718,21.8823529 107.717949,22.2941176 106.846154,23.0147059 C105.974359,23.7352941 105.429487,24.9705882 105.102564,26.4117647 L112.730769,26.4117647 L112.730769,27.5441176 C112.730769,27.75 112.621795,27.9558824 112.403846,28.1617647 C112.185897,28.3676471 111.967949,28.4705882 111.641026,28.4705882 L104.775641,28.4705882 C104.775641,28.6764706 104.775641,28.7794118 104.775641,28.9852941 C104.775641,29.1911765 104.775641,29.2941176 104.775641,29.5 C104.775641,29.6029412 104.775641,29.7058824 104.775641,29.8088235 C104.775641,29.9117647 104.775641,30.0147059 104.775641,30.1176471 L111.205128,30.1176471 L111.205128,31.1470588 C111.205128,31.3529412 111.096154,31.5588235 110.878205,31.7647059 C110.660256,31.9705882 110.442308,32.0735294 110.115385,32.0735294 L104.884615,32.0735294 C105.211538,33.7205882 105.75641,34.9558824 106.519231,35.7794118 C107.282051,36.6029412 108.371795,37.0147059 109.570513,37.0147059 C110.333333,37.0147059 110.878205,36.9117647 111.314103,36.7058824 C111.75,36.5 112.076923,36.2941176 112.403846,36.0882353 C112.730769,35.8823529 112.948718,35.6764706 113.057692,35.4705882 C113.275641,35.2647059 113.49359,35.1617647 113.711538,35.1617647 C113.820513,35.1617647 113.929487,35.1617647 114.038462,35.1617647 C114.147436,35.1617647 114.25641,35.2647059 114.25641,35.3676471 L115.891026,36.8088235 C115.128205,37.8382353 114.25641,38.6617647 113.166667,39.1764706 C112.076923,39.6911765 110.769231,40 109.352564,40 C108.153846,40 107.064103,39.7941176 106.192308,39.3823529 C105.211538,38.9705882 104.448718,38.4558824 103.685897,37.7352941 C103.032051,37.0147059 102.378205,36.1911765 101.942308,35.2647059 C101.50641,34.2352941 101.179487,33.2058824 100.961538,31.9705882 L99,31.9705882 L99,30.0147059 L101.070513,30.0147059 C101.070513,29.9117647 101.070513,29.8088235 101.070513,29.7058824 C101.070513,29.6029412 101.070513,29.5 101.070513,29.3970588 C101.070513,29.1911765 101.070513,29.0882353 101.070513,28.8823529 C101.070513,28.6764706 101.070513,28.5735294 101.070513,28.3676471 L99.3269231,28.3676471 L99.3269231,26.6176471 Z" id="Path" fill="#FF810B"></path>
            </g>
        </g>
    </g>
</svg>