<svg width="30" height="30" viewBox="0 0 30 30" fill="none" xmlns="http://www.w3.org/2000/svg">
<path d="M9.08723 15.8168H19.8916L16.4804 19.6055C16.3121 19.7939 16.3284 20.0831 16.5168 20.2514C16.7052 20.4197 16.9944 20.4034 17.1627 20.215L21.2561 15.6667L21.2902 15.6235L21.3221 15.5735L21.3357 15.5235V15.4893V15.4393C21.3357 15.4279 21.3357 15.4166 21.3357 15.4052C21.3357 15.3938 21.3676 15.3847 21.3676 15.362C21.3676 15.362 21.3676 15.3415 21.3676 15.3302C21.3676 15.3188 21.3676 15.3074 21.3676 15.296V15.246V15.2119L21.3539 15.1619L21.3357 15.1323L21.3016 15.0868L17.1945 10.5204C17.0262 10.332 16.7371 10.3157 16.5487 10.484C16.3603 10.6523 16.344 10.9414 16.5123 11.1298L19.8916 14.9072H9.08723C8.83603 14.9072 8.6324 15.1108 8.6324 15.362C8.6324 15.6132 8.83603 15.8168 9.08723 15.8168Z" fill="#2349D7"/>
<path fill-rule="evenodd" clip-rule="evenodd" d="M17.5348 20.5489C17.1825 20.9425 16.5778 20.9763 16.1837 20.6243C15.7894 20.272 15.7553 19.6667 16.1076 19.2724L16.1089 19.271L18.7687 16.3168H9.08723C8.55989 16.3168 8.1324 15.8893 8.1324 15.362C8.1324 14.8347 8.55989 14.4072 9.08723 14.4072H18.7734L16.1396 11.4632C15.7874 11.0689 15.8212 10.4634 16.2156 10.1111C16.6097 9.75899 17.2146 9.79288 17.5669 10.1867C17.5671 10.1869 17.5667 10.1865 17.5669 10.1867L21.6882 14.769L21.7495 14.8507L21.8174 14.961L21.8676 15.1449V15.3615C21.8676 15.4242 21.8563 15.4839 21.8373 15.5375C21.8368 15.5389 21.8362 15.5404 21.8357 15.5418V15.5904L21.7845 15.7781L21.6984 15.9134L21.6386 15.9892L17.5356 20.5481C17.5353 20.5484 17.5351 20.5486 17.5348 20.5489ZM21.6576 15.7834C21.6572 15.7837 21.6572 15.7837 21.6576 15.7834V15.7834Z" fill="#2349D7"/>
</svg>
