<?xml version="1.0" encoding="utf-8"?>
<!-- Generator: Adobe Illustrator 24.1.0, SVG Export Plug-In . SVG Version: 6.00 Build 0)  -->
<svg version="1.1" id="Calque_1" xmlns="http://www.w3.org/2000/svg" xmlns:xlink="http://www.w3.org/1999/xlink" x="0px" y="0px"
	 viewBox="0 0 324 248" style="enable-background:new 0 0 324 248;" xml:space="preserve">
<style type="text/css">
	.st0{opacity:0.18;fill:#FF810B;enable-background:new    ;}
	.st1{opacity:0.39;fill:#1B2B67;enable-background:new    ;}
	.st2{fill:#1B2B67;}
	.st3{opacity:0.1;fill:#020202;enable-background:new    ;}
	.st4{fill:#FFFFFF;}
	.st5{opacity:0.5;fill:#FF810B;enable-background:new    ;}
	.st6{opacity:0.1;fill:#DEEEFF;enable-background:new    ;}
	.st7{fill:#F9D0B4;}
	.st8{fill:#E2B596;}
	.st9{fill:#473F47;}
	.st10{fill:#FF810B;}
	.st11{enable-background:new    ;}
	.st12{fill:#23333C;}
	.st13{fill:url(#Path_17_);}
</style>
<desc>Created with Sketch.</desc>
<g id="Sprint-1">
	<g id="Group-3">
		<g id="calculator">
			<path id="Path" class="st0" d="M323.5,193.6c-0.3,2.7-0.9,5.3-1.7,7.9c-4.4,14-15.5,26.1-28.4,33.6c-15,8.7-27.6,12.5-40.6,12.5
				c-6.6-0.1-13.2-0.9-19.6-2.5c-0.8-0.2-1.7-0.4-2.6-0.6c-2.2-0.6-4.4-1.2-6.6-1.9l-2.7-0.8l-1.4-0.5c-1.9-0.6-3.7-1.3-5.7-2
				l-2.9-1.1c-9.5-3.5-18.6-8.4-27.9-12.5c-8.6-3.7-17.3-6.7-26.6-7c-23.4-1-44.4,14.6-67.5,18.6c-27.8,4.8-57.4-8.8-73.5-31.8
				c-0.8-1.1-1.6-2.3-2.3-3.5c-0.2-0.4-0.4-0.7-0.7-1.1c-0.6-1-1.1-1.9-1.7-2.9c-0.2-0.4-0.5-0.9-0.7-1.3c-0.2-0.4-0.5-1-0.7-1.5
				l-0.1-0.1c-0.3-0.5-0.5-1-0.7-1.5c-2.2-4.6-3.9-9.4-5.2-14.3c-4.7-18-3.8-37.1,2.7-54.6c0.6-1.6,1.2-3.1,1.9-4.6
				c3.3-7.5,7.8-14.7,14-20.1c12.6-10.9,30.1-13.5,45.2-20.5c7.3-3.5,14.1-7.8,20.4-12.9c22-17.4,39.3-41.8,64.2-55.4
				c10.6-5.7,22.3-9.2,34.3-10.2c20.2-1.6,40.4,3,57.9,13.4c11.3,6.8,21.9,14.6,31.1,35.5c5.1,11.5,9.7,27.1,13.8,48.6
				c0.5,2.5,1.1,5,1.8,7.4c5.4,18,17.4,35.1,25.3,52.8c4,9,7,18.1,7.5,27.6C323.9,188.8,323.8,191.2,323.5,193.6z"/>
			<path id="Path_1_" class="st1" d="M125.1,196.1c-1.5,0.1-3.2,0.3-4,1.5c-0.2,0.7-0.5,1.3-0.8,2c-0.8,1.1-2.4,1-3.8,0.8
				c-8.3-0.9-16.8,0.4-24.4,3.8c5.7,2.7,12.2,3.2,18.5,3.6c46.2,3.3,92.6,6.6,138.9,4c2.7-0.2,5.6-0.4,7.8-2c1.1-0.8,2-2,1.8-3.3
				c-0.3-1.9-2.6-2.6-4.4-2.9L199,192.9c-5.9-1.1-11.9-2.2-17.9-2.1c-5.6,0.2-10.1,2.4-15.5,3.5
				C152.8,196.9,138.2,195.6,125.1,196.1z"/>
			<path id="Path_2_" class="st2" d="M224.2,203.9l-54-0.3c-1.8,0-3.6-0.7-4.9-2c-1.3-1.3-2-3-2-4.8V105c0-3.8,3.1-6.8,6.9-6.8h55.6
				c3.8,0,6.9,3.1,6.9,6.8l-1.6,92.1c0,1.8-0.7,3.6-2,4.9S226.1,203.9,224.2,203.9L224.2,203.9z"/>
			<path id="Path_3_" class="st3" d="M226.9,125.9l-8.5,2.2c-13.5,3.4-27.6,3.4-41.1,0l-8.5-2.2v-21.7h58.1L226.9,125.9z"/>
			<rect id="Rectangle" x="172.3" y="107.4" class="st4" width="51.6" height="13.6"/>
			<rect id="Rectangle_1_" x="172.3" y="139.6" class="st5" width="11.1" height="11.4"/>
			<rect id="Rectangle_2_" x="185.8" y="139.6" class="st5" width="11.1" height="11.4"/>
			<rect id="Rectangle_3_" x="199.2" y="139.6" class="st5" width="11.1" height="11.4"/>
			<rect id="Rectangle_4_" x="172.3" y="154" class="st6" width="11.1" height="11.4"/>
			<rect id="Rectangle_5_" x="185.8" y="154" class="st6" width="11.1" height="11.4"/>
			<rect id="Rectangle_6_" x="199.2" y="154" class="st6" width="11.1" height="11.4"/>
			<rect id="Rectangle_7_" x="212.3" y="154" class="st6" width="11.1" height="11.4"/>
			<rect id="Rectangle_8_" x="212.3" y="168.4" class="st5" width="11.1" height="25.7"/>
			<rect id="Rectangle_9_" x="172.3" y="168.4" class="st6" width="11.1" height="11.4"/>
			<rect id="Rectangle_10_" x="185.8" y="168.4" class="st6" width="11.1" height="11.4"/>
			<rect id="Rectangle_11_" x="199.2" y="168.4" class="st6" width="11.1" height="11.4"/>
			<rect id="Rectangle_12_" x="172.3" y="182.7" class="st6" width="11.1" height="11.4"/>
			<rect id="Rectangle_13_" x="185.8" y="182.7" class="st6" width="11.1" height="11.4"/>
			<rect id="Rectangle_14_" x="199.2" y="182.7" class="st6" width="11.1" height="11.4"/>
			<path id="Path_4_" class="st7" d="M116.4,75.2c0.1,0,0-0.2-0.1-0.2c-0.5-0.1-1-0.1-1.5-0.2c-0.5,0-1-0.3-1.3-0.6
				c-0.2-0.3-0.3-0.7-0.4-1.1l-0.9-6.2c-0.8-5.1-0.3-10.1-0.6-15.2c-0.1-0.5,0-1.1,0.1-1.6c0.1-0.4,0.3-0.8,0.5-1.2
				c0.5-1.6,0.6-3.2,0.5-4.9c0-0.4-0.1-0.9-0.4-1.2c-0.7-0.4-1.4,0.4-1.7,1.1l-0.8,1.9c0,0.1-0.1,0.2-0.2,0.3
				c-0.2,0.1-0.3,0.1-0.5,0c-1.4-0.4-2.9-0.8-3.6-2.1c-0.5-0.9-0.7-2.2-1.7-2.6c-0.9-0.2-1.9,0.3-2.2,1.1c-0.3,0.9-0.3,1.8-0.1,2.7
				c0.2,1.8,0.5,3.7,1.6,5.1c0.5,0.5,1,1.1,1.5,1.7c0.4,0.9,0.6,1.9,0.6,2.9l0.6,19.5c0.1,1.9,0.2,4,1.3,5.6c1.4,2,4,2.6,6.3,3.1
				c1.2,0.3,2.4,0.4,3.6,0.2c1.2-0.2,2.2-1.1,2.6-2.3c0.1-1.1-0.1-2.1-0.8-3C118.1,77,116.8,76.2,116.4,75.2z"/>
			<path id="Path_5_" class="st8" d="M107.8,48.5c-1,0.3-2,0.3-3,0.2c-0.7,0-1.4-0.2-1.9-0.6c-0.4-0.6-0.6-1.3-0.4-2.1
				c0-0.1,0-0.2,0.1-0.3c0.1-0.1,0.2-0.1,0.3-0.1l4.7,0.4c0.7,0.1,2.2-0.2,1.9,0.8C109.2,47.7,108.6,48.3,107.8,48.5z"/>
			<path id="Path_6_" class="st2" d="M182.1,90.3l-8,1.5l-4.4,0.8l-4.2-6.2c-2-1.9-2-2.3-3.1,0.2c-3.1,6.9-8.3,19.5-8.7,29l-2.5-0.3
				l-32.1-3.8l8.9-28.9L116.2,84l-2.1-9.7l19.2-6.3c2-0.6,4.1-0.9,6.1-1c6.1-0.4,17.1-0.8,24,1.9C172.6,72.3,182.1,90.3,182.1,90.3z
				"/>
			<path id="Path_7_" class="st7" d="M180.8,89.7c0,0,3.4,5.3,2.6,7.3s-18.6,9.6-18.6,9.6c-1.3,0.1-2.1,1.4-2.5,2.6
				c-0.3,1.3-0.5,2.6-0.7,3.9c-0.1,1.3-0.8,2.5-1.7,3.4c-0.4,0.3-0.8,0.5-1.3,0.5c-0.3,0-0.6-0.1-0.9-0.3c-1.4-0.8-2.2-2.3-2.3-3.9
				c-0.1-1.6,0.3-3.1,0.9-4.6h-2.1c-0.3-0.7,0.7-1.2,1.4-1.5c3.1-1,17-11.6,17.1-12.4s-2.1-2.5-2.1-2.5
				C173.8,90.4,177.3,89.7,180.8,89.7L180.8,89.7z"/>
			<path id="Path_8_" class="st7" d="M141.2,58.8c0,0.8,0.1,1.5,0.3,2.3c0.3,0.8,0.7,1.6,1.4,2.2c0.6,0.6,1.5,1,1.7,1.9
				c0.1,0.6,0,1.2-0.1,1.7c-0.2,0.7-0.3,1.4-0.4,2.1c-0.1,0.7,0.1,1.4,0.5,2c0.6,0.7,1.6,1.1,2.5,1c1.4,0.1,2.7-0.4,3.6-1.4
				c0.6-0.9,1-1.8,1.2-2.8c0.4-1.1,0.7-2.3,1.1-3.3c0.9-2.1,1.7-4.3,2.3-6.5c0.7-2.3,0.6-4.8-0.2-7.1c-0.8-1.9-3.5-2.8-5.4-2.8
				c-2.1,0-4.1,0.7-5.7,2.1c-1.2,1.1-1.8,3-2.3,4.5C141.4,55.9,141.2,57.3,141.2,58.8z"/>
			<path id="Path_9_" class="st9" d="M142.8,49.3c-0.4-0.4-0.7-0.9-0.8-1.4c-0.5-1.3-0.7-2.7-0.4-4.1c0.3-1.4,1.2-2.5,2.5-3.1
				c0.6-0.2,1.3-0.4,2-0.3c0.3,0,0.7,0.1,1,0.2c1.4,0.5,1.7,2.4,2.9,3.2c0.1-0.5,0.6-0.9,1.2-0.9c0.5,0,1,0.3,1.3,0.8
				c0.3,0.4,0.5,0.9,0.8,1.4c0.5,0.8,1.1,1.6,1.9,2.1c0.1,0.1,0.2,0.2,0.4,0.2c0.2,0,0.3-0.1,0.5-0.2c0.5-0.2,1,0.3,1.2,0.8
				c0.1,0.5,0.2,1,0.4,1.5c0.3,0.6,1,1,1.4,1.5c0.9,1.2,1,2.7,0.3,4c-0.7,1.2-1.6,2.3-2.7,3.2c-0.2-0.3-0.7-0.4-1-0.2
				c-0.3,0.2-0.6,0.5-0.8,0.8c-0.2,0.3-0.6,0.5-1,0.5c-0.1-1.2,0.6-2.3,0.7-3.5c0-1.9-1-3.6-2.6-4.5c-1.6-0.9-3.5-1.2-5.3-0.9
				C145.3,50.3,143.7,50.2,142.8,49.3z"/>
			<path id="Path_10_" class="st7" d="M155.6,57.2c0.3-0.2,0.7-0.2,1.1-0.1c0.5,0.2,0.8,0.7,0.8,1.2c0,0.6-0.2,1.1-0.6,1.6
				c-0.4,0.4-0.8,0.8-1.3,1.1c-0.3,0.2-0.6,0.4-0.9,0.4c-0.6,0-1.1-0.3-1.3-0.8c-0.2-0.5-0.1-1.1,0.2-1.6
				C153.9,58.1,154.7,57.4,155.6,57.2z"/>
			<ellipse id="Oval" class="st10" cx="106" cy="28.7" rx="18.5" ry="18.4"/>
			
				<ellipse id="Oval_1_" transform="matrix(0.1602 -0.9871 0.9871 0.1602 60.6284 128.7468)" class="st4" cx="106" cy="28.7" rx="15.7" ry="15.7"/>
			<g class="st11">
				<path class="st10" d="M97.4,26.7h1.9c0.2-1.1,0.6-2.2,1-3.1c0.5-0.9,1-1.7,1.7-2.3c0.7-0.6,1.4-1.1,2.3-1.5
					c0.8-0.3,1.8-0.5,2.8-0.5c1.3,0,2.4,0.2,3.3,0.7c0.9,0.5,1.7,1.2,2.3,2l-1.2,1.3c-0.1,0.1-0.2,0.2-0.3,0.3
					c-0.1,0.1-0.2,0.1-0.4,0.1c-0.1,0-0.2,0-0.4-0.1c-0.1-0.1-0.2-0.2-0.4-0.3c-0.1-0.1-0.3-0.2-0.4-0.4c-0.2-0.1-0.3-0.3-0.6-0.4
					s-0.5-0.2-0.8-0.3c-0.3-0.1-0.7-0.1-1.1-0.1c-1.1,0-2,0.4-2.8,1.1s-1.3,1.9-1.6,3.3h7v1.1c0,0.2-0.1,0.4-0.3,0.6
					c-0.2,0.2-0.4,0.3-0.7,0.3h-6.3c0,0.2,0,0.3,0,0.5s0,0.3,0,0.5c0,0.1,0,0.2,0,0.3s0,0.2,0,0.3h5.9v1c0,0.2-0.1,0.4-0.3,0.6
					c-0.2,0.2-0.4,0.3-0.7,0.3h-4.8c0.3,1.6,0.8,2.8,1.5,3.6c0.7,0.8,1.7,1.2,2.8,1.2c0.7,0,1.2-0.1,1.6-0.3c0.4-0.2,0.7-0.4,1-0.6
					c0.3-0.2,0.5-0.4,0.6-0.6c0.2-0.2,0.4-0.3,0.6-0.3c0.1,0,0.2,0,0.3,0c0.1,0,0.2,0.1,0.2,0.2l1.5,1.4c-0.7,1-1.5,1.8-2.5,2.3
					c-1,0.5-2.2,0.8-3.5,0.8c-1.1,0-2.1-0.2-2.9-0.6c-0.9-0.4-1.6-0.9-2.3-1.6c-0.6-0.7-1.2-1.5-1.6-2.4c-0.4-1-0.7-2-0.9-3.2h-1.8
					v-1.9H99c0-0.1,0-0.2,0-0.3s0-0.2,0-0.3c0-0.2,0-0.3,0-0.5s0-0.3,0-0.5h-1.6V26.7z"/>
			</g>
			<path id="Path_11_" class="st7" d="M110.4,43.9c0.2-0.8,0.7-1.5,1.4-2c0.1-0.1,0.2-0.1,0.4,0c0.1,0.1,0.2,0.2,0.2,0.3
				c0.2,0.7,0.3,1.3,0.3,2c0,0.5,0,0.9,0,1.4c0,0.9-0.5,1.8-1.3,2.4c-0.4,0.2-1.7,0.3-1.7-0.7c0.1-0.6,0.2-1.1,0.3-1.7
				C110.2,45.1,110.3,44.5,110.4,43.9z"/>
			<path id="Path_12_" class="st12" d="M119,111.6c0,0,0.6,40.7,2.7,56.3c2.1,15.2,3.5,27.2,3.6,28.3l5-0.7l4.9-66l6.3,27.5
				l12.6,0.9l-0.5-43.7L119,111.6z"/>
			<path id="Path_13_" class="st12" d="M114,181.8c0,0,41.5-16.2,40.1-24.1l-12.6-1l-30.8,22L114,181.8z"/>
			<path id="Path_14_" class="st12" d="M124.4,200.2c-0.1,0.1-0.1,0.3,0,0.4c0.1,0.1,0.2,0.2,0.3,0.2c3.7,1.2,7.4,2.3,11.3,2.4
				c0.5,0,1.2-0.1,1.3-0.6c0.1-0.3,0-0.6-0.2-0.9c-1-1.8-2.5-3.3-4.3-4.4c-1.1-0.7-2.4-1.2-2.9-2.3c-0.8,0.2-1.7,0.3-2.5,0.4
				c-0.6,0-1.6-0.2-2,0.2c-0.3,0.6-0.5,1.3-0.6,2C124.6,198.6,124.5,199.4,124.4,200.2z"/>
			<path id="Path_15_" class="st12" d="M114.9,182c-0.2-0.3-0.2-0.6-0.1-1c-0.8,1.4-1.1,3-1,4.6c0.1,1.6,0.1,3.2-0.1,4.7
				c0,0.6-0.3,1.1-0.8,1.4c-0.7,0.3-1.4-0.3-1.8-0.8c-2.4-2.8-3.5-6.5-3-10.2c0-0.2,0.1-0.3,0.2-0.5c0.2-0.2,0.5-0.4,0.8-0.4
				c1.6-0.4,2.3-1.5,3.5-2.4C113.6,178.5,114.2,180.6,114.9,182z"/>
			
				<linearGradient id="Path_17_" gradientUnits="userSpaceOnUse" x1="-129.2004" y1="537.8394" x2="-129.2536" y2="533.6735" gradientTransform="matrix(25.5922 0 0 -34.9995 3468.498 18854.5137)">
				<stop  offset="1.000000e-02" style="stop-color:#000000"/>
				<stop  offset="0.13" style="stop-color:#000000;stop-opacity:0.69"/>
				<stop  offset="0.25" style="stop-color:#000000;stop-opacity:0.32"/>
				<stop  offset="1" style="stop-color:#000000;stop-opacity:0"/>
			</linearGradient>
			<path id="Path_16_" class="st13" d="M174.1,91.8l-4.4,0.8l-4.2-6.2c-2-1.9-2-2.3-3.1,0.2c-3.1,6.9-8.3,19.5-8.7,29l-2.5-0.3
				c-0.5-0.7-0.7-1.5-0.7-2.3c-0.2-2.6,0.7-5.5-1-7.5c-0.4-0.5-0.9-0.9-0.8-1.5c0.1-0.4,0.3-0.7,0.6-0.9c2.5-2.7,4.6-5.7,6-9.1
				c0.8-1.9,1.5-3.9,2.5-5.7c1-1.8,2.1-3.4,3.3-5c0.8-1.1,1.8-2.3,3.2-2.6c1.6-0.4,3.2,0.7,4.2,1.9c0.9,1.4,1.6,2.8,2.1,4.4
				c0.4,0.9,0.9,1.7,1.5,2.5c0.5,0.5,1.4,0.7,1.8,1.1C174.1,90.9,174.2,91.4,174.1,91.8L174.1,91.8z"/>
			<rect id="Rectangle_15_" x="212.3" y="139.6" class="st5" width="11.1" height="11.4"/>
		</g>
	</g>
</g>
</svg>
