<?xml version="1.0" encoding="UTF-8"?>
<svg width="37px" height="37px" viewBox="0 0 37 37" version="1.1" xmlns="http://www.w3.org/2000/svg" xmlns:xlink="http://www.w3.org/1999/xlink">
    <!-- Generator: Sketch 49.1 (51147) - http://www.bohemiancoding.com/sketch -->
    <title>account_circle-24px</title>
    <desc>Created with Sketch.</desc>
    <defs></defs>
    <g id="Parcours-entier" stroke="none" stroke-width="1" fill="none" fill-rule="evenodd">
        <g id="Desktop" transform="translate(-183.000000, -536.000000)">
            <g id="Group-6" transform="translate(70.000000, 514.000000)">
                <g id="account_circle-24px" transform="translate(109.000000, 18.000000)">
                    <path d="M22.5,4.18604651 C12.3906977,4.18604651 4.18604651,12.3906977 4.18604651,22.5 C4.18604651,32.6093023 12.3906977,40.8139535 22.5,40.8139535 C32.6093023,40.8139535 40.8139535,32.6093023 40.8139535,22.5 C40.8139535,12.3906977 32.6093023,4.18604651 22.5,4.18604651 Z M22.5,9.68023256 C25.5401163,9.68023256 27.994186,12.1343023 27.994186,15.1744186 C27.994186,18.2145349 25.5401163,20.6686047 22.5,20.6686047 C19.4598837,20.6686047 17.005814,18.2145349 17.005814,15.1744186 C17.005814,12.1343023 19.4598837,9.68023256 22.5,9.68023256 Z M22.5,35.6860465 C17.9215116,35.6860465 13.8741279,33.3418605 11.5116279,29.7889535 C11.5665698,26.1444767 18.8372093,24.1482558 22.5,24.1482558 C26.1444767,24.1482558 33.4334302,26.1444767 33.4883721,29.7889535 C31.1258721,33.3418605 27.0784884,35.6860465 22.5,35.6860465 Z" id="Shape" fill="#00B0FF" fill-rule="nonzero"></path>
                    <polygon id="Shape" points="0 0 45 0 45 45 0 45"></polygon>
                </g>
            </g>
        </g>
    </g>
</svg>