<?xml version="1.0" encoding="UTF-8"?>
<svg width="30px" height="30px" viewBox="0 0 30 30" version="1.1" xmlns="http://www.w3.org/2000/svg" xmlns:xlink="http://www.w3.org/1999/xlink">
    <!-- Generator: Sketch 49.1 (51147) - http://www.bohemiancoding.com/sketch -->
    <title>icon-bt-primaire</title>
    <desc>Created with Sketch.</desc>
    <defs></defs>
    <g id="Symbols" stroke="none" stroke-width="1" fill="none" fill-rule="evenodd">
        <g id="bt-primaire" transform="translate(-158.000000, -5.000000)">
            <g id="Group-8">
                <g id="icon-bt-primaire" transform="translate(158.000000, 5.000000)">
                    <g id="Group-4">
                        <g id="Group" transform="translate(15.000000, 15.000000) rotate(90.000000) translate(-15.000000, -15.000000) " fill="#111B40" fill-rule="nonzero">
                            <circle id="Oval-3" cx="15" cy="15" r="15"></circle>
                        </g>
                        <path d="M20.9127494,14.9184348 L10.1083369,14.9184348 L13.5195385,11.1297269 C13.6878384,10.9413314 13.6715478,10.6521726 13.4831523,10.4838727 C13.2947569,10.3155728 13.0055981,10.3318634 12.8372982,10.5202588 L8.74385627,15.0685276 L8.70974425,15.1117362 L8.67790637,15.1617672 L8.66426156,15.2117981 L8.66426156,15.2459101 L8.66426156,15.2959411 C8.66426156,15.3073118 8.66426156,15.3186824 8.66426156,15.3300531 C8.66426156,15.3414238 8.63242368,15.3505203 8.63242368,15.3732617 C8.63242368,15.3732617 8.63242368,15.3937289 8.63242368,15.4050995 C8.63242368,15.4164702 8.63242368,15.4278409 8.63242368,15.4392116 L8.63242368,15.4892425 L8.63242368,15.5233545 L8.64606849,15.5733855 L8.66426156,15.6029492 L8.69837358,15.6484319 L12.8054603,20.2148938 C12.9737603,20.4032892 13.262919,20.4195799 13.4513145,20.2512799 C13.6397099,20.08298 13.6560006,19.7938212 13.4877006,19.6054258 L10.1083369,15.8280885 L20.9127494,15.8280885 C21.1639434,15.8280885 21.3675763,15.6244556 21.3675763,15.3732617 C21.3675763,15.1220677 21.1639434,14.9184348 20.9127494,14.9184348 Z" id="Shape" stroke="#FFFFFF" fill="#FFFFFF" fill-rule="nonzero" transform="translate(15.000000, 15.367576) scale(-1, -1) translate(-15.000000, -15.367576) "></path>
                    </g>
                </g>
            </g>
        </g>
    </g>
</svg>