<svg width="68" height="48" viewBox="0 0 68 48" fill="none" xmlns="http://www.w3.org/2000/svg">
<g clip-path="url(#clip0)">
<path opacity="0.977818" d="M47.9648 0.303151C55.9088 1.34236 65.8758 5.28993 67.6857 11.1049C69.4964 16.935 63.1539 24.6182 57.116 30.7653C51.0801 36.9266 45.3546 41.5527 38.34 44.6695C31.3264 47.7728 23.0391 49.3891 17.4611 46.462C11.8986 43.5555 9.06481 36.1136 5.76433 29.5595C2.45324 22.9912 -1.33127 17.2965 0.461194 13.3044C2.25751 9.32744 9.6308 7.05222 15.1769 5.6212C20.723 4.19017 24.4256 3.5873 29.2543 2.36732C34.0667 1.13131 40.0043 -0.736058 47.9648 0.303151Z" fill="#2349D7"/>
<path d="M17.1948 34.04V27.38L27.9228 12.08H36.5268V27.128H39.1188V34.04H36.5268V38H28.4628V34.04H17.1948ZM29.1108 21.188L25.2228 27.128H29.1108V21.188ZM46.4304 38.288C45.0384 38.288 43.9224 37.916 43.0824 37.172C42.2424 36.428 41.8224 35.492 41.8224 34.364C41.8224 33.212 42.2424 32.264 43.0824 31.52C43.9224 30.752 45.0384 30.368 46.4304 30.368C47.7984 30.368 48.9024 30.752 49.7424 31.52C50.5824 32.264 51.0024 33.212 51.0024 34.364C51.0024 35.492 50.5824 36.428 49.7424 37.172C48.9024 37.916 47.7984 38.288 46.4304 38.288Z" fill="#FF810B"/>
</g>
<defs>
<clipPath id="clip0">
<rect width="68" height="48" fill="white"/>
</clipPath>
</defs>
</svg>
