<svg width="69" height="51" viewBox="0 0 69 51" fill="none" xmlns="http://www.w3.org/2000/svg">
<g clip-path="url(#clip0)">
<path opacity="0.977818" d="M48.3074 0.322098C56.3082 1.42626 66.3464 5.62055 68.1691 11.7989C69.9929 17.9934 63.605 26.1568 57.524 32.6881C51.445 39.2345 45.6786 44.1498 38.6139 47.4613C31.5502 50.7586 23.2036 52.4759 17.5858 49.3659C11.9836 46.2777 9.12956 38.3707 5.8055 31.407C2.47077 24.4282 -1.34077 18.3775 0.464489 14.1359C2.27364 9.91041 9.69959 7.49299 15.2853 5.97252C20.871 4.45205 24.6 3.81151 29.4633 2.51528C34.31 1.20202 40.29 -0.782062 48.3074 0.322098Z" fill="#2349D7"/>
<path d="M21.4081 21.172V13.684H33.6121V40H25.2241V21.172H21.4081ZM41.187 40.288C39.795 40.288 38.679 39.916 37.839 39.172C36.999 38.428 36.579 37.492 36.579 36.364C36.579 35.212 36.999 34.264 37.839 33.52C38.679 32.752 39.795 32.368 41.187 32.368C42.555 32.368 43.659 32.752 44.499 33.52C45.339 34.264 45.759 35.212 45.759 36.364C45.759 37.492 45.339 38.428 44.499 39.172C43.659 39.916 42.555 40.288 41.187 40.288Z" fill="#FF810B"/>
</g>
<defs>
<clipPath id="clip0">
<rect width="68.4857" height="51" fill="white"/>
</clipPath>
</defs>
</svg>
