<svg width="69" height="51" viewBox="0 0 69 51" fill="none" xmlns="http://www.w3.org/2000/svg">
<g clip-path="url(#clip0)">
<path opacity="0.977818" d="M48.3074 0.322098C56.3082 1.42626 66.3464 5.62055 68.1691 11.7989C69.9929 17.9934 63.605 26.1568 57.524 32.6881C51.445 39.2345 45.6786 44.1498 38.6139 47.4613C31.5502 50.7586 23.2036 52.4759 17.5858 49.3659C11.9836 46.2777 9.12956 38.3707 5.8055 31.407C2.47077 24.4282 -1.34077 18.3775 0.464489 14.1359C2.27364 9.91041 9.69959 7.49299 15.2853 5.97252C20.871 4.45205 24.6 3.81151 29.4633 2.51528C34.31 1.20202 40.29 -0.782062 48.3074 0.322098Z" fill="#2349D7"/>
<path d="M19.0502 33.628C22.2662 31.228 24.8102 29.056 26.6822 27.112C28.5542 25.144 29.4902 23.308 29.4902 21.604C29.4902 21.028 29.3582 20.584 29.0942 20.272C28.8542 19.96 28.5302 19.804 28.1222 19.804C27.6422 19.804 27.2582 20.056 26.9702 20.56C26.7062 21.04 26.6102 21.784 26.6822 22.792H18.9422C19.0142 20.56 19.4942 18.724 20.3822 17.284C21.2942 15.844 22.4702 14.788 23.9102 14.116C25.3502 13.444 26.9342 13.108 28.6622 13.108C31.7342 13.108 33.9782 13.852 35.3942 15.34C36.8342 16.804 37.5542 18.688 37.5542 20.992C37.5542 23.416 36.7742 25.696 35.2142 27.832C33.6782 29.944 31.7462 31.732 29.4182 33.196H37.6622V39.64H19.0502V33.628ZM44.1929 40.288C42.8009 40.288 41.6849 39.916 40.8449 39.172C40.0049 38.428 39.5849 37.492 39.5849 36.364C39.5849 35.212 40.0049 34.264 40.8449 33.52C41.6849 32.752 42.8009 32.368 44.1929 32.368C45.5609 32.368 46.6649 32.752 47.5049 33.52C48.3449 34.264 48.7649 35.212 48.7649 36.364C48.7649 37.492 48.3449 38.428 47.5049 39.172C46.6649 39.916 45.5609 40.288 44.1929 40.288Z" fill="#FF810B"/>
</g>
<defs>
<clipPath id="clip0">
<rect width="68.4857" height="51" fill="white"/>
</clipPath>
</defs>
</svg>
