<?xml version="1.0" encoding="UTF-8"?>
<svg width="155px" height="116px" viewBox="0 0 155 116" version="1.1" xmlns="http://www.w3.org/2000/svg" xmlns:xlink="http://www.w3.org/1999/xlink">
    <title>Path</title>
    <g id="Sprint-8" stroke="none" stroke-width="1" fill="none" fill-rule="evenodd" opacity="0.97781808">
        <g id="HP_1440_newversion" transform="translate(-230.000000, -717.000000)" fill="#FFFFFF" fill-rule="nonzero">
            <g id="Group-13" transform="translate(230.000000, 717.000000)">
                <path d="M109.33142,0.732615939 C127.439288,3.24403853 150.158189,12.7840011 154.283504,26.8367771 C158.411016,40.9261376 143.953733,59.493879 130.190963,74.3493633 C116.432588,89.2392801 103.381912,100.419092 87.3927465,107.951208 C71.4057786,115.451043 52.515486,119.356983 39.8010773,112.28325 C27.1218337,105.259014 20.6624306,87.2744739 13.1392808,71.4355105 C5.59195507,55.5621146 -3.03450201,41.7998631 1.0512518,32.1522988 C5.14579691,22.5413191 21.9525529,17.0428746 34.5944335,13.5845575 C47.236314,10.1262403 55.6759561,8.66931391 66.682656,5.7210286 C77.6519929,2.7340067 91.1861898,-1.77880666 109.33142,0.732615939 Z" id="Path"></path>
            </g>
        </g>
    </g>
</svg>