<?xml version="1.0" encoding="UTF-8"?>
<svg width="30px" height="38px" viewBox="0 0 30 38" version="1.1" xmlns="http://www.w3.org/2000/svg" xmlns:xlink="http://www.w3.org/1999/xlink">
    <!-- Generator: Sketch 49.1 (51147) - http://www.bohemiancoding.com/sketch -->
    <title>description-24px (1)</title>
    <desc>Created with Sketch.</desc>
    <defs></defs>
    <g id="Parcours-entier" stroke="none" stroke-width="1" fill="none" fill-rule="evenodd">
        <g id="Desktop" transform="translate(-496.000000, -531.000000)">
            <g id="Group-7" transform="translate(378.000000, 514.000000)">
                <g id="description-24px-(1)" transform="translate(110.000000, 13.000000)">
                    <polygon id="Shape" points="0 0 45 0 45 45 0 45"></polygon>
                    <path d="M26.75,4 L11.75,4 C9.6875,4 8.01875,5.6875 8.01875,7.75 L8,37.75 C8,39.8125 9.66875,41.5 11.73125,41.5 L34.25,41.5 C36.3125,41.5 38,39.8125 38,37.75 L38,15.25 L26.75,4 Z M30.5,34 L15.5,34 L15.5,30.25 L30.5,30.25 L30.5,34 Z M30.5,26.5 L15.5,26.5 L15.5,22.75 L30.5,22.75 L30.5,26.5 Z M24.875,17.125 L24.875,6.8125 L35.1875,17.125 L24.875,17.125 Z" id="Shape" fill="#FFC400" fill-rule="nonzero"></path>
                </g>
            </g>
        </g>
    </g>
</svg>