<?xml version="1.0" encoding="UTF-8"?>
<svg width="30px" height="30px" viewBox="0 0 30 30" version="1.1" xmlns="http://www.w3.org/2000/svg" xmlns:xlink="http://www.w3.org/1999/xlink">
    <!-- Generator: Sketch 63.1 (92452) - https://sketch.com -->
    <title>Group</title>
    <desc>Created with Sketch.</desc>
    <g id="Sprint-5" stroke="none" stroke-width="1" fill="none" fill-rule="evenodd">
        <g id="US.44" transform="translate(-579.000000, -2322.000000)" fill-rule="nonzero">
            <g id="Group-5" transform="translate(579.000000, 2322.000000)">
                <g id="Group" transform="translate(15.000000, 15.000000) rotate(-90.000000) translate(-15.000000, -15.000000) ">
                    <circle id="Oval-3" fill="#1B2B67" cx="15" cy="15" r="15"></circle>
                    <path d="M21.2803258,14.5508585 L10.4759132,14.5508585 L13.8871148,10.7621505 C14.0554148,10.5737551 14.0391241,10.2845963 13.8507287,10.1162964 C13.6623332,9.94799644 13.3731745,9.96428707 13.2048745,10.1526825 L9.11143259,14.7009513 L9.07732057,14.7441599 L9.04548269,14.7941908 L9.03183788,14.8442218 L9.03183788,14.8783338 L9.03183788,14.9283648 C9.03183788,14.9397354 9.03183788,14.9511061 9.03183788,14.9624768 C9.03183788,14.9738475 9,14.982944 9,15.0056853 C9,15.0056853 9,15.0261525 9,15.0375232 C9,15.0488939 9,15.0602646 9,15.0716352 L9,15.1216662 L9,15.1557782 L9.01364481,15.2058092 L9.03183788,15.2353729 L9.0659499,15.2808556 L13.1730366,19.8473175 C13.3413366,20.0357129 13.6304953,20.0520036 13.8188908,19.8837036 C14.0072862,19.7154037 14.0235769,19.4262449 13.8552769,19.2378495 L10.4759132,15.4605122 L21.2803258,15.4605122 C21.5315197,15.4605122 21.7351526,15.2568793 21.7351526,15.0056853 C21.7351526,14.7544914 21.5315197,14.5508585 21.2803258,14.5508585 Z" id="Shape" stroke="#FFFFFF" fill="#FFFFFF" transform="translate(15.367576, 15.000000) scale(-1, -1) rotate(-90.000000) translate(-15.367576, -15.000000) "></path>
                </g>
            </g>
        </g>
    </g>
</svg>