<svg width="68" height="48" viewBox="0 0 68 48" fill="none" xmlns="http://www.w3.org/2000/svg">
<g clip-path="url(#clip0)">
<path opacity="0.977818" d="M47.9648 0.303151C55.9088 1.34236 65.8758 5.28993 67.6857 11.1049C69.4964 16.935 63.1539 24.6182 57.116 30.7653C51.0801 36.9266 45.3546 41.5527 38.34 44.6695C31.3264 47.7728 23.0391 49.3891 17.4611 46.462C11.8986 43.5555 9.06481 36.1136 5.76433 29.5595C2.45324 22.9912 -1.33127 17.2965 0.461194 13.3044C2.25751 9.32744 9.6308 7.05222 15.1769 5.6212C20.723 4.19017 24.4256 3.5873 29.2543 2.36732C34.0667 1.13131 40.0043 -0.736058 47.9648 0.303151Z" fill="#2349D7"/>
<path d="M18.5424 19.928C18.6144 17.072 19.4424 14.888 21.0264 13.376C22.6344 11.864 24.9024 11.108 27.8304 11.108C29.7264 11.108 31.3464 11.432 32.6904 12.08C34.0344 12.728 35.0424 13.604 35.7144 14.708C36.4104 15.812 36.7584 17.06 36.7584 18.452C36.7584 20.132 36.3624 21.452 35.5704 22.412C34.7784 23.348 33.8904 23.984 32.9064 24.32V24.464C35.7864 25.544 37.2264 27.548 37.2264 30.476C37.2264 32.012 36.8664 33.368 36.1464 34.544C35.4264 35.72 34.3944 36.632 33.0504 37.28C31.7304 37.928 30.1584 38.252 28.3344 38.252C25.2144 38.252 22.7664 37.508 20.9904 36.02C19.2144 34.532 18.3024 32.204 18.2544 29.036H26.0304C25.9824 29.9 26.1024 30.56 26.3904 31.016C26.7024 31.448 27.2304 31.664 27.9744 31.664C28.4064 31.664 28.7664 31.508 29.0544 31.196C29.3424 30.86 29.4864 30.428 29.4864 29.9C29.4864 29.228 29.2584 28.724 28.8024 28.388C28.3704 28.028 27.6264 27.848 26.5704 27.848H25.2384V21.404H26.5344C28.1664 21.5 28.9824 20.852 28.9824 19.46C28.9824 18.86 28.8504 18.416 28.5864 18.128C28.3464 17.84 28.0344 17.696 27.6504 17.696C26.7624 17.696 26.3184 18.44 26.3184 19.928H18.5424ZM44.8308 38.288C43.4388 38.288 42.3228 37.916 41.4828 37.172C40.6428 36.428 40.2228 35.492 40.2228 34.364C40.2228 33.212 40.6428 32.264 41.4828 31.52C42.3228 30.752 43.4388 30.368 44.8308 30.368C46.1988 30.368 47.3028 30.752 48.1428 31.52C48.9828 32.264 49.4028 33.212 49.4028 34.364C49.4028 35.492 48.9828 36.428 48.1428 37.172C47.3028 37.916 46.1988 38.288 44.8308 38.288Z" fill="#FF810B"/>
</g>
<defs>
<clipPath id="clip0">
<rect width="68" height="48" fill="white"/>
</clipPath>
</defs>
</svg>
