<?xml version="1.0" encoding="UTF-8" standalone="no"?>
<svg
   xmlns:dc="http://purl.org/dc/elements/1.1/"
   xmlns:cc="http://creativecommons.org/ns#"
   xmlns:rdf="http://www.w3.org/1999/02/22-rdf-syntax-ns#"
   xmlns:svg="http://www.w3.org/2000/svg"
   xmlns="http://www.w3.org/2000/svg"
   xmlns:sodipodi="http://sodipodi.sourceforge.net/DTD/sodipodi-0.dtd"
   xmlns:inkscape="http://www.inkscape.org/namespaces/inkscape"
   width="21px"
   height="21px"
   viewBox="0 0 21 21"
   version="1.1"
   id="svg936"
   sodipodi:docname="info-blue-2.svg"
   inkscape:version="1.0.1 (0767f8302a, 2020-10-17)">
  <metadata
     id="metadata942">
    <rdf:RDF>
      <cc:Work
         rdf:about="">
        <dc:format>image/svg+xml</dc:format>
        <dc:type
           rdf:resource="http://purl.org/dc/dcmitype/StillImage" />
        <dc:title>info</dc:title>
      </cc:Work>
    </rdf:RDF>
  </metadata>
  <defs
     id="defs940" />
  <sodipodi:namedview
     pagecolor="#ffffff"
     bordercolor="#666666"
     borderopacity="1"
     objecttolerance="10"
     gridtolerance="10"
     guidetolerance="10"
     inkscape:pageopacity="0"
     inkscape:pageshadow="2"
     inkscape:window-width="1853"
     inkscape:window-height="1025"
     id="namedview938"
     showgrid="false"
     inkscape:zoom="40.47619"
     inkscape:cx="10.5"
     inkscape:cy="10.413529"
     inkscape:window-x="1347"
     inkscape:window-y="27"
     inkscape:window-maximized="1"
     inkscape:current-layer="svg936" />
  <!-- Generator: Sketch 63.1 (92452) - https://sketch.com -->
  <title
     id="title922">info</title>
  <desc
     id="desc924">Created with Sketch.</desc>
  <g
     id="Sprint-2"
     stroke="none"
     stroke-width="1"
     fill="none"
     fill-rule="evenodd">
    <g
       id="US_51"
       transform="translate(-512.000000, -487.000000)"
       fill="#3853B9"
       fill-rule="nonzero">
      <g
         id="Group-6"
         transform="translate(497.000000, 468.000000)">
        <g
           id="info"
           transform="translate(15.000000, 19.000000)">
          <path
             d="M11.4545455,5.40909091 C11.4545455,5.93626709 11.0271762,6.36363636 10.5,6.36363636 C9.97282382,6.36363636 9.54545455,5.93626709 9.54545455,5.40909091 C9.54545455,4.88191473 9.97282382,4.45454545 10.5,4.45454545 C11.0271762,4.45454545 11.4545455,4.88191473 11.4545455,5.40909091 Z"
             id="Path" />
          <path
             d="M10.7202659,16.5454545 C10.3149422,16.5454545 9.9859864,16.2461086 9.9859864,15.8772686 L9.9859864,8.97273543 L9.0070068,8.97273543 C8.60168308,8.97273543 8.27272727,8.67338944 8.27272727,8.30454953 C8.27272727,7.93570962 8.60168308,7.63636364 9.0070068,7.63636364 L10.7202659,7.63636364 C11.1255896,7.63636364 11.4545455,7.93570962 11.4545455,8.30454953 L11.4545455,15.8772686 C11.4545455,16.2461086 11.1255896,16.5454545 10.7202659,16.5454545 Z"
             id="path927" />
          <path
             d="M10.5,21 C4.71006777,21 0,16.2899322 0,10.5 C0,4.71006777 4.71006777,0 10.5,0 C16.2899322,0 21,4.71006777 21,10.5 C21,16.2899322 16.2899322,21 10.5,21 Z M10.5,1.3125 C5.43376924,1.3125 1.3125,5.43376924 1.3125,10.5 C1.3125,15.5662308 5.43376924,19.6875 10.5,19.6875 C15.5662308,19.6875 19.6875,15.5662308 19.6875,10.5 C19.6875,5.43376924 15.5662308,1.3125 10.5,1.3125 Z"
             id="Shape" />
          <path
             d="M12.7272727,16.5454545 L8.90909091,16.5454545 C8.55781695,16.5454545 8.27272727,16.2603649 8.27272727,15.9090909 C8.27272727,15.5578169 8.55781695,15.2727273 8.90909091,15.2727273 L12.7272727,15.2727273 C13.0785467,15.2727273 13.3636364,15.5578169 13.3636364,15.9090909 C13.3636364,16.2603649 13.0785467,16.5454545 12.7272727,16.5454545 Z"
             id="path930" />
        </g>
      </g>
    </g>
  </g>
  <path
     style="fill:#808000;stroke-width:0.0247059"
     d="M 10.016548,20.973182 C 5.430667,20.774303 1.4546634,17.525547 0.33275338,13.060642 0.10897497,12.170063 0.02509437,11.471926 0.02509437,10.5 c 0,-0.7647654 0.02446175,-1.0766443 0.13661268,-1.7417647 C 0.83908116,4.7410121 3.7914497,1.4787057 7.740856,0.38343159 c 1.0042916,-0.2785164 2.0910332,-0.39856303 3.216203,-0.35527703 4.58612,0.17643098 8.585377,3.43475454 9.710188,7.91120374 0.226758,0.9024397 0.308445,1.5904484 0.306957,2.5853477 -0.0012,0.778665 -0.02897,1.114353 -0.149091,1.799777 -0.612374,3.494369 -3.001249,6.473052 -6.301241,7.857006 -1.070371,0.448893 -2.331539,0.738092 -3.406225,0.781085 -0.190235,0.0076 -0.418147,0.01734 -0.506471,0.02163 -0.08832,0.0043 -0.355906,-6.72e-4 -0.594628,-0.01103 z m 1.632276,-1.343036 c 1.935082,-0.258626 3.694322,-1.078799 5.077058,-2.366968 1.689634,-1.574077 2.671747,-3.534187 2.930671,-5.84906 0.04108,-0.367278 0.04108,-1.4609585 0,-1.8282356 C 19.374673,7.0657801 18.181838,4.8737027 16.246863,3.3198868 14.922028,2.2560221 13.378568,1.6039304 11.624118,1.3668373 11.14842,1.3025524 9.8549526,1.3022932 9.3758824,1.3663867 7.5696523,1.6080373 5.9601871,2.3097379 4.5978057,3.4495499 4.2161549,3.7688515 3.6229252,4.3748687 3.3190384,4.7558824 2.216952,6.1376791 1.5728509,7.6897694 1.3556498,9.4870588 c -0.053208,0.4402875 -0.060002,1.5024452 -0.012325,1.9270592 0.178199,1.587066 0.7121349,3.047625 1.5641341,4.278624 0.4537238,0.655555 1.2552138,1.520776 1.8360708,1.982065 1.4672675,1.165236 3.1639294,1.837051 5.052353,2.000544 0.2897953,0.02509 1.5585873,-0.0059 1.8529413,-0.0452 z"
     id="path944" />
  <path
     style="fill:#808000;stroke-width:0.0247059"
     d="M 9.7835294,20.948232 C 6.8844251,20.753517 4.1475408,19.312048 2.312892,17.013578 0.9884554,15.354308 0.1945457,13.32082 0.05924464,11.241176 0.0242408,10.70315 0.04391343,9.6779177 0.09705611,9.2706444 0.26004648,8.0215237 0.58507188,6.9443793 1.1276289,5.8552941 1.7389831,4.6281107 2.5213349,3.6002635 3.5269616,2.7030706 5.2206855,1.1919764 7.2948449,0.28689983 9.5611765,0.06999115 c 0.4637595,-0.04438599 1.5446475,-0.03722974 2.0135295,0.013331 2.812371,0.30326544 5.351005,1.69640145 7.112402,3.90309965 1.305929,1.6360829 2.113938,3.6867393 2.250131,5.710637 0.112381,1.6700292 -0.110122,3.1371972 -0.708138,4.6694122 -0.148615,0.380775 -0.589466,1.255839 -0.809032,1.605882 -1.184331,1.888116 -2.826336,3.302537 -4.835671,4.165439 -1.476162,0.633933 -3.170439,0.919946 -4.8008686,0.81044 z m 1.4823526,-1.282305 c 1.419564,-0.08016 3.06469,-0.647179 4.32353,-1.490166 1.36396,-0.91338 2.489974,-2.198209 3.186867,-3.636349 0.4098,-0.845679 0.672406,-1.688033 0.826683,-2.65172 0.138747,-0.866683 0.133771,-1.9728992 -0.0128,-2.8450142 C 19.253339,7.0385223 18.347878,5.294183 16.925196,3.9087112 15.536368,2.556207 13.838925,1.7095178 11.883529,1.393914 11.544428,1.3391825 11.382874,1.3282246 10.747059,1.3168291 9.9181908,1.3019737 9.4924531,1.326515 8.9746739,1.418997 7.0203993,1.7680556 5.3719789,2.6187489 4.0148712,3.9785814 3.6022039,4.3920771 3.3858411,4.6394359 3.0972613,5.0276471 2.1469629,6.3060329 1.5771383,7.7315744 1.3586966,9.3770485 1.305258,9.7795898 1.2835694,10.793505 1.3189595,11.234707 c 0.12049,1.502132 0.6589403,3.075462 1.4734261,4.305293 0.4905355,0.740683 1.268842,1.597446 1.9487414,2.145184 1.308111,1.053835 2.9009763,1.726676 4.6303617,1.955906 0.390829,0.0518 1.2235213,0.06272 1.8943933,0.02484 z"
     id="path946" />
  <path
     style="fill:#1b2b67;stroke-width:0.0247059;fill-opacity:1"
     d="M 9.9688235,20.959269 C 9.2143844,20.909106 8.6725373,20.830068 8.0520483,20.679671 4.5836374,19.838986 1.74952,17.260132 0.59806861,13.897059 0.17185643,12.65221 0.01392781,11.590418 0.04502636,10.178824 0.05975992,9.5100526 0.08652383,9.2404195 0.19897396,8.6278782 0.89556701,4.8333783 3.6305843,1.7169507 7.3045802,0.53136352 9.1410401,-0.06125644 11.162352,-0.13017029 13.02,0.33650412 c 2.508618,0.63020961 4.702862,2.16743908 6.157721,4.31393528 0.925369,1.3652885 1.528087,2.982414 1.724384,4.6266194 0.05341,0.4473986 0.0741,1.5371772 0.03846,2.0258822 -0.132366,1.814811 -0.787203,3.649757 -1.838301,5.151177 -1.725216,2.464349 -4.320449,4.045204 -7.280494,4.434825 -0.501925,0.06607 -1.402784,0.100258 -1.8529415,0.07033 z m 1.2857695,-1.293116 c 1.023743,-0.05946 2.205163,-0.376151 3.230943,-0.866089 2.353986,-1.124322 4.167527,-3.277298 4.868788,-5.780064 0.22152,-0.790597 0.320869,-1.449304 0.34095,-2.260588 0.01637,-0.661236 -0.01613,-1.1899801 -0.105763,-1.7209053 C 19.182426,6.6272472 17.93993,4.5787019 15.997059,3.1155101 14.798784,2.2130797 13.372019,1.6252631 11.784706,1.380052 11.374808,1.3167301 10.202574,1.2897959 9.6773015,1.3316305 8.3582332,1.4366857 6.9133905,1.9082142 5.7545393,2.6118347 3.9788465,3.6899836 2.6090568,5.33228 1.880868,7.2561364 1.6468864,7.87431 1.4441534,8.702231 1.358781,9.3882353 1.305765,9.8142448 1.284717,10.774996 1.318661,11.219612 c 0.087964,1.152221 0.4535268,2.439218 0.9924257,3.493931 0.4368197,0.854927 0.9888445,1.589555 1.7942874,2.387816 0.4116981,0.408028 0.6231308,0.588932 1.0269272,0.87865 1.2795191,0.918034 2.8008001,1.497723 4.4165223,1.682929 0.25944,0.02974 1.2179784,0.03155 1.7057694,0.0032 z"
     id="path948" />
  <path
     style="fill:#1b2b67;fill-opacity:1;stroke-width:0.0247059"
     d="m 8.6318022,16.459238 c -0.463647,-0.242212 -0.4547887,-0.885201 0.015257,-1.107416 0.1194487,-0.05647 0.1437291,-0.05841 0.735,-0.05864 L 9.9935298,15.29294 V 12.130588 8.9682353 H 9.4798966 c -0.5591078,0 -0.7170994,-0.023829 -0.8926226,-0.1346325 C 8.1620072,8.5651436 8.2033219,7.9740756 8.6645687,7.7277869 8.7704674,7.671241 8.7718273,7.6711765 9.8576471,7.6711765 h 1.0870589 l 0.119324,0.060952 c 0.135946,0.069443 0.274102,0.2114406 0.333959,0.3432473 0.03727,0.082071 0.04141,0.4009332 0.04742,3.6537422 l 0.0066,3.563823 h 0.713241 0.713242 l 0.132076,0.069 c 0.331228,0.173036 0.436481,0.58081 0.230325,0.892333 -0.07371,0.111387 -0.212033,0.214837 -0.33404,0.249828 -0.05171,0.01483 -0.866472,0.02414 -2.113558,0.02414 H 8.7638777 Z"
     id="path950" />
  <path
     style="fill:#1b2b67;fill-opacity:1;stroke-width:0.0247059"
     d="M 10.252941,6.3162325 C 9.8797328,6.1923712 9.6410231,5.9244938 9.5724982,5.5526471 9.5014454,5.1670824 9.729473,4.7407196 10.105245,4.5565251 c 0.21774,-0.1067314 0.57177,-0.1067314 0.78951,0 0.375772,0.1841945 0.6038,0.6105573 0.532747,0.996122 -0.0831,0.4509419 -0.442506,0.7699002 -0.888551,0.7885547 -0.11089,0.00464 -0.227467,-0.00554 -0.28601,-0.024969 z"
     id="path952" />
</svg>
