<?xml version="1.0" encoding="UTF-8"?>
<svg width="23px" height="23px" viewBox="0 0 23 23" version="1.1" xmlns="http://www.w3.org/2000/svg" xmlns:xlink="http://www.w3.org/1999/xlink">
    <!-- Generator: Sketch 63.1 (92452) - https://sketch.com -->
    <title>info</title>
    <desc>Created with Sketch.</desc>
    <g id="Sprint-2" stroke="none" stroke-width="1" fill="none" fill-rule="evenodd">
        <g id="US_50" transform="translate(-324.000000, -783.000000)" fill="#23333C" fill-rule="nonzero">
            <g id="info" transform="translate(324.000000, 783.000000)">
                <path d="M12.5454545,5.92424242 C12.5454545,6.50162586 12.0773834,6.96969697 11.5,6.96969697 C10.9226166,6.96969697 10.4545455,6.50162586 10.4545455,5.92424242 C10.4545455,5.34685899 10.9226166,4.87878788 11.5,4.87878788 C12.0773834,4.87878788 12.5454545,5.34685899 12.5454545,5.92424242 Z" id="Path"></path>
                <path d="M11.7412436,18.1212121 C11.2973177,18.1212121 10.9370327,17.793357 10.9370327,17.3893895 L10.9370327,9.82728166 L9.86481697,9.82728166 C9.42089099,9.82728166 9.06060606,9.49942653 9.06060606,9.09545901 C9.06060606,8.69149149 9.42089099,8.36363636 9.86481697,8.36363636 L11.7412436,8.36363636 C12.1851696,8.36363636 12.5454545,8.69149149 12.5454545,9.09545901 L12.5454545,17.3893895 C12.5454545,17.793357 12.1851696,18.1212121 11.7412436,18.1212121 Z" id="Path"></path>
                <path d="M11.5,23 C5.15864565,23 0,17.8413543 0,11.5 C0,5.15864565 5.15864565,0 11.5,0 C17.8413543,0 23,5.15864565 23,11.5 C23,17.8413543 17.8413543,23 11.5,23 Z M11.5,1.4375 C5.95127107,1.4375 1.4375,5.95127107 1.4375,11.5 C1.4375,17.0487289 5.95127107,21.5625 11.5,21.5625 C17.0487289,21.5625 21.5625,17.0487289 21.5625,11.5 C21.5625,5.95127107 17.0487289,1.4375 11.5,1.4375 Z" id="Shape"></path>
                <path d="M13.9393939,18.1212121 L9.75757576,18.1212121 C9.37284713,18.1212121 9.06060606,17.808971 9.06060606,17.4242424 C9.06060606,17.0395138 9.37284713,16.7272727 9.75757576,16.7272727 L13.9393939,16.7272727 C14.3241226,16.7272727 14.6363636,17.0395138 14.6363636,17.4242424 C14.6363636,17.808971 14.3241226,18.1212121 13.9393939,18.1212121 Z" id="Path"></path>
            </g>
        </g>
    </g>
</svg>