<?xml version="1.0" encoding="UTF-8"?>
<svg width="21px" height="21px" viewBox="0 0 21 21" version="1.1" xmlns="http://www.w3.org/2000/svg" xmlns:xlink="http://www.w3.org/1999/xlink">
    <!-- Generator: Sketch 63.1 (92452) - https://sketch.com -->
    <title>info</title>
    <desc>Created with Sketch.</desc>
    <g id="Sprint-2" stroke="none" stroke-width="1" fill="none" fill-rule="evenodd">
        <g id="US_51" transform="translate(-512.000000, -487.000000)" fill="#3853B9" fill-rule="nonzero">
            <g id="Group-6" transform="translate(497.000000, 468.000000)">
                <g id="info" transform="translate(15.000000, 19.000000)">
                    <path d="M11.4545455,5.40909091 C11.4545455,5.93626709 11.0271762,6.36363636 10.5,6.36363636 C9.97282382,6.36363636 9.54545455,5.93626709 9.54545455,5.40909091 C9.54545455,4.88191473 9.97282382,4.45454545 10.5,4.45454545 C11.0271762,4.45454545 11.4545455,4.88191473 11.4545455,5.40909091 Z" id="Path"></path>
                    <path d="M10.7202659,16.5454545 C10.3149422,16.5454545 9.9859864,16.2461086 9.9859864,15.8772686 L9.9859864,8.97273543 L9.0070068,8.97273543 C8.60168308,8.97273543 8.27272727,8.67338944 8.27272727,8.30454953 C8.27272727,7.93570962 8.60168308,7.63636364 9.0070068,7.63636364 L10.7202659,7.63636364 C11.1255896,7.63636364 11.4545455,7.93570962 11.4545455,8.30454953 L11.4545455,15.8772686 C11.4545455,16.2461086 11.1255896,16.5454545 10.7202659,16.5454545 Z" id="Path"></path>
                    <path d="M10.5,21 C4.71006777,21 0,16.2899322 0,10.5 C0,4.71006777 4.71006777,0 10.5,0 C16.2899322,0 21,4.71006777 21,10.5 C21,16.2899322 16.2899322,21 10.5,21 Z M10.5,1.3125 C5.43376924,1.3125 1.3125,5.43376924 1.3125,10.5 C1.3125,15.5662308 5.43376924,19.6875 10.5,19.6875 C15.5662308,19.6875 19.6875,15.5662308 19.6875,10.5 C19.6875,5.43376924 15.5662308,1.3125 10.5,1.3125 Z" id="Shape"></path>
                    <path d="M12.7272727,16.5454545 L8.90909091,16.5454545 C8.55781695,16.5454545 8.27272727,16.2603649 8.27272727,15.9090909 C8.27272727,15.5578169 8.55781695,15.2727273 8.90909091,15.2727273 L12.7272727,15.2727273 C13.0785467,15.2727273 13.3636364,15.5578169 13.3636364,15.9090909 C13.3636364,16.2603649 13.0785467,16.5454545 12.7272727,16.5454545 Z" id="Path"></path>
                </g>
            </g>
        </g>
    </g>
</svg>