<?xml version="1.0" encoding="UTF-8" standalone="no"?>
<svg
   xmlns:dc="http://purl.org/dc/elements/1.1/"
   xmlns:cc="http://creativecommons.org/ns#"
   xmlns:rdf="http://www.w3.org/1999/02/22-rdf-syntax-ns#"
   xmlns:svg="http://www.w3.org/2000/svg"
   xmlns="http://www.w3.org/2000/svg"
   xmlns:sodipodi="http://sodipodi.sourceforge.net/DTD/sodipodi-0.dtd"
   xmlns:inkscape="http://www.inkscape.org/namespaces/inkscape"
   height="512pt"
   viewBox="0 0 512 512"
   width="512pt"
   version="1.1"
   id="svg10"
   sodipodi:docname="info-blue.svg"
   inkscape:version="1.0.1 (0767f8302a, 2020-10-17)">
  <metadata
     id="metadata16">
    <rdf:RDF>
      <cc:Work
         rdf:about="">
        <dc:format>image/svg+xml</dc:format>
        <dc:type
           rdf:resource="http://purl.org/dc/dcmitype/StillImage" />
        <dc:title></dc:title>
      </cc:Work>
    </rdf:RDF>
  </metadata>
  <defs
     id="defs14" />
  <sodipodi:namedview
     pagecolor="#ffffff"
     bordercolor="#666666"
     borderopacity="1"
     objecttolerance="10"
     gridtolerance="10"
     guidetolerance="10"
     inkscape:pageopacity="0"
     inkscape:pageshadow="2"
     inkscape:window-width="1853"
     inkscape:window-height="1025"
     id="namedview12"
     showgrid="false"
     inkscape:zoom="0.97035431"
     inkscape:cx="341.33333"
     inkscape:cy="306.62542"
     inkscape:window-x="1347"
     inkscape:window-y="27"
     inkscape:window-maximized="1"
     inkscape:current-layer="svg10" />
  <path
     d="m277.332031 128c0 11.78125-9.550781 21.332031-21.332031 21.332031s-21.332031-9.550781-21.332031-21.332031 9.550781-21.332031 21.332031-21.332031 21.332031 9.550781 21.332031 21.332031zm0 0"
     id="path2" />
  <path
     d="m256 405.332031c-8.832031 0-16-7.167969-16-16v-165.332031h-21.332031c-8.832031 0-16-7.167969-16-16s7.167969-16 16-16h37.332031c8.832031 0 16 7.167969 16 16v181.332031c0 8.832031-7.167969 16-16 16zm0 0"
     id="path4" />
  <path
     d="m256 512c-141.164062 0-256-114.835938-256-256s114.835938-256 256-256 256 114.835938 256 256-114.835938 256-256 256zm0-480c-123.519531 0-224 100.480469-224 224s100.480469 224 224 224 224-100.480469 224-224-100.480469-224-224-224zm0 0"
     id="path6" />
  <path
     d="m304 405.332031h-96c-8.832031 0-16-7.167969-16-16s7.167969-16 16-16h96c8.832031 0 16 7.167969 16 16s-7.167969 16-16 16zm0 0"
     id="path8" />
  <path
     style="fill:#3853b9;fill-opacity:1;stroke-width:1.03055"
     d="M 319.69175,681.62656 C 247.34066,675.83353 183.66623,651.03725 128.52447,607.18164 115.24111,596.61706 85.377789,566.69708 74.887072,553.44248 36.45773,504.88854 11.947354,447.2177 3.2758527,384.94732 0.99821967,368.59156 0.18144069,332.13733 1.6913546,314.22849 14.652879,160.49405 127.73996,34.92824 278.98497,6.3365749 c 39.20964,-7.4122692 85.48709,-7.4122692 124.69672,0 C 543.94604,32.852432 653.60723,144.36259 677.21028,284.47704 c 3.83865,22.78731 5.09633,41.67179 4.41864,66.34718 -0.8696,31.66348 -5.05233,58.42956 -13.69293,87.62379 -11.64558,39.34723 -33.93423,81.88105 -60.32247,115.11439 -10.02351,12.62362 -31.64167,34.96413 -44.71163,46.20564 -50.84442,43.73143 -113.47074,71.41212 -180.86178,79.94052 -12.37686,1.56631 -51.65136,2.77449 -62.34836,1.918 z m 56.16506,-43.23098 c 35.31556,-4.08867 64.6134,-12.75484 97.3871,-28.80667 47.94481,-23.4823 87.89359,-58.67186 118.14164,-104.06707 16.42674,-24.65266 32.46745,-61.17722 40.03916,-91.16876 17.57274,-69.60567 9.21397,-144.37372 -23.27663,-208.20643 C 593.28677,176.94935 577.28773,155.03637 553.15135,130.8207 527.61259,105.19805 505.56663,89.17109 474.73713,73.81517 439.26418,56.14639 405.6156,46.684494 366.06657,43.257285 c -17.22811,-1.492942 -48.26324,-0.721723 -65.44002,1.626174 -51.69223,7.065821 -101.155,28.0801 -144.27719,61.296231 -13.75359,10.5941 -42.08565,39.35726 -52.78893,53.59215 -64.016347,85.13891 -78.936498,193.45252 -40.245094,292.16132 4.799292,12.24387 17.277786,36.84384 24.569437,48.43592 40.396507,64.22136 105.046777,111.54586 178.061967,130.34275 15.48535,3.98652 29.07416,6.51198 43.95478,8.16893 13.69399,1.52482 50.96202,1.25067 65.95529,-0.48518 z"
     id="path18"
     transform="scale(0.74999998)" />
  <path
     style="fill:#3853b9;fill-opacity:1;stroke-width:1.03055"
     d="m 270.22529,538.49665 c -7.64088,-2.7029 -13.88847,-11.76237 -13.9067,-20.16577 -0.003,-1.45707 1.26956,-5.16479 2.82827,-8.23939 2.12768,-4.19691 4.09762,-6.36197 7.90397,-8.68684 l 5.06996,-3.09667 24.04312,-0.35406 24.04312,-0.35406 v -99.80064 -99.80064 l -17.94991,-0.32406 -17.9499,-0.32407 -4.37281,-3.09165 c -11.89563,-8.41042 -11.76362,-25.79677 0.25916,-34.13325 l 4.2784,-2.9666 29.46123,-0.323 c 32.75717,-0.35913 35.06767,-0.0435 41.37075,5.65091 7.49949,6.77534 7.15569,0.78819 7.15569,124.61219 v 110.50081 l 24.04312,0.35406 24.04312,0.35406 5.05762,3.12811 c 8.25407,5.10511 12.09432,14.33256 9.68642,23.27481 -1.54617,5.74206 -8.28565,12.62571 -13.88249,14.17947 -2.82822,0.78516 -24.94671,1.13107 -70.58937,1.10396 -54.60458,-0.0325 -67.20644,-0.2998 -70.59277,-1.49768 z"
     id="path843"
     transform="scale(0.74999998)" />
  <path
     style="fill:#3853b9;fill-opacity:1;stroke-width:1.03055"
     d="m 334.43195,197.52983 c -14.08793,-3.9066 -23.03459,-17.72594 -20.41576,-31.53495 1.26014,-6.64472 3.00299,-9.93417 7.79273,-14.70806 5.78594,-5.76677 11.46575,-8.13262 19.52441,-8.13262 24.64459,0 36.95035,29.58033 19.54613,46.98456 -6.99119,6.99118 -17.39983,9.9 -26.44751,7.39107 z"
     id="path845"
     transform="scale(0.74999998)" />
</svg>
