<svg width="24" height="24" viewBox="0 0 24 24" fill="none" xmlns="http://www.w3.org/2000/svg">
<path d="M13 7C13 7.55228 12.5523 8 12 8C11.4477 8 11 7.55228 11 7C11 6.44772 11.4477 6 12 6C12.5523 6 13 6.44772 13 7Z" fill="#1B2B67"/>
<path d="M12.3077 18C11.9255 18 11.6154 17.6976 11.6154 17.325V10.35H10.6923C10.3102 10.35 10 10.0476 10 9.675C10 9.3024 10.3102 9 10.6923 9H12.3077C12.6898 9 13 9.3024 13 9.675V17.325C13 17.6976 12.6898 18 12.3077 18Z" fill="#1B2B67"/>
<path fill-rule="evenodd" clip-rule="evenodd" d="M2 12C2 17.5142 6.48578 22 12 22C17.5142 22 22 17.5142 22 12C22 6.48578 17.5142 2 12 2C6.48578 2 2 6.48578 2 12ZM3.25 12C3.25 7.17502 7.17502 3.25 12 3.25C16.825 3.25 20.75 7.17502 20.75 12C20.75 16.825 16.825 20.75 12 20.75C7.17502 20.75 3.25 16.825 3.25 12Z" fill="#1B2B67"/>
<path d="M14.5455 18.9091H10.1819C9.78041 18.9091 9.45459 18.5833 9.45459 18.1819C9.45459 17.7804 9.78041 17.4546 10.1819 17.4546H14.5455C14.947 17.4546 15.2728 17.7804 15.2728 18.1819C15.2728 18.5833 14.947 18.9091 14.5455 18.9091Z" fill="#1B2B67"/>
</svg>
