<svg xmlns="http://www.w3.org/2000/svg" height="682.667" viewBox="0 0 512 512" width="682.667"  xmlns:v="https://vecta.io/nano"><path d="M277.332 128c0 11.781-9.551 21.332-21.332 21.332s-21.332-9.551-21.332-21.332 9.551-21.332 21.332-21.332 21.332 9.551 21.332 21.332zM256 405.332a16.01 16.01 0 0 1-16-16V224h-21.332a16.01 16.01 0 0 1-16-16 16.01 16.01 0 0 1 16-16H256a16.01 16.01 0 0 1 16 16v181.332a16.01 16.01 0 0 1-16 16zm0 0"/><path d="M256 512C114.836 512 0 397.164 0 256S114.836 0 256 0s256 114.836 256 256-114.836 256-256 256zm0-480C132.48 32 32 132.48 32 256s100.48 224 224 224 224-100.48 224-224S379.52 32 256 32zm48 373.332h-96a16.01 16.01 0 0 1-16-16 16.01 16.01 0 0 1 16-16h96a16.01 16.01 0 0 1 16 16 16.01 16.01 0 0 1-16 16zm0 0"/></svg>