<svg width="25" height="24" viewBox="0 0 25 24" fill="none" xmlns="http://www.w3.org/2000/svg">
<path d="M13.5 7C13.5 7.55228 13.0523 8 12.5 8C11.9477 8 11.5 7.55228 11.5 7C11.5 6.44772 11.9477 6 12.5 6C13.0523 6 13.5 6.44772 13.5 7Z" fill="#1B2B67"/>
<path d="M12.8077 18C12.4255 18 12.1154 17.6976 12.1154 17.325V10.35H11.1923C10.8102 10.35 10.5 10.0476 10.5 9.675C10.5 9.3024 10.8102 9 11.1923 9H12.8077C13.1898 9 13.5 9.3024 13.5 9.675V17.325C13.5 17.6976 13.1898 18 12.8077 18Z" fill="#1B2B67"/>
<path fill-rule="evenodd" clip-rule="evenodd" d="M2.5 12C2.5 17.5142 6.98578 22 12.5 22C18.0142 22 22.5 17.5142 22.5 12C22.5 6.48578 18.0142 2 12.5 2C6.98578 2 2.5 6.48578 2.5 12ZM3.75 12C3.75 7.17502 7.67502 3.25 12.5 3.25C17.325 3.25 21.25 7.17502 21.25 12C21.25 16.825 17.325 20.75 12.5 20.75C7.67502 20.75 3.75 16.825 3.75 12Z" fill="#1B2B67"/>
<path d="M15.0455 18.9091H10.6819C10.2804 18.9091 9.95459 18.5833 9.95459 18.1819C9.95459 17.7804 10.2804 17.4546 10.6819 17.4546H15.0455C15.447 17.4546 15.7728 17.7804 15.7728 18.1819C15.7728 18.5833 15.447 18.9091 15.0455 18.9091Z" fill="#1B2B67"/>
</svg>