<svg width="50" height="50" viewBox="0 0 50 50" fill="none" xmlns="http://www.w3.org/2000/svg">
<path d="M0.976562 34.375H49.0234V4.88281C49.0234 2.72549 47.2745 0.976562 45.1172 0.976562H4.88281C2.72549 0.976562 0.976562 2.72549 0.976562 4.88281V34.375Z" fill="white"/>
<path d="M49.0234 35.375H0.976562V37.3281C0.976562 39.4854 2.72549 41.2344 4.88281 41.2344H45.1172C47.2745 41.2344 49.0234 39.4854 49.0234 37.3281V35.375Z" fill="white"/>
<path d="M30.8594 42.6758V40.2344H19.1406V42.6758C19.1406 44.5635 17.6104 45.1172 15.7227 45.1172C13.835 45.1172 12.3047 46.6475 12.3047 48.5352V49.0234H37.6953V48.5352C37.6953 46.6475 36.165 45.1172 34.2773 45.1172C32.3896 45.1172 30.8594 44.5635 30.8594 42.6758Z" fill="white"/>
<circle cx="26.7441" cy="0.976562" r="0.976562" fill="white"/>
<path fill-rule="evenodd" clip-rule="evenodd" d="M49.6162 2.98242C49.3701 2.40039 49.0186 1.87783 48.5693 1.42969C48.1211 0.981445 47.5996 0.62998 47.0176 0.383789C46.416 0.128809 45.7764 0 45.1172 0H31.1387C30.5996 0 30.1621 0.438477 30.1621 0.976562C30.1621 1.51465 30.5996 1.95312 31.1387 1.95312H45.1172C46.7295 1.95596 48.0439 3.27051 48.0469 4.88281V33.3984H1.95312V4.88281C1.95605 3.27051 3.27051 1.95596 4.88281 1.95312H22.3496C22.8877 1.95312 23.3262 1.51465 23.3262 0.976562C23.3262 0.438477 22.8887 0.000976562 22.3506 0H22.3496H4.88281C4.22363 0 3.58398 0.128809 2.98242 0.383789C2.40039 0.62998 1.87891 0.981445 1.43066 1.42969C0.981445 1.87793 0.629883 2.40039 0.383789 2.98242C0.128906 3.58398 0 4.22363 0 4.88281V36.3281C0 39.0205 2.19043 41.2109 4.88281 41.2109H18.1641V42.6758C18.1641 43.1513 18.1641 44.1406 15.7227 44.1406C13.2995 44.1406 11.3281 46.112 11.3281 48.5352V49.0234C11.3281 49.5627 11.7653 50 12.3047 50H37.6953C38.2347 50 38.6719 49.5627 38.6719 49.0234V48.5352C38.6719 46.112 36.7005 44.1406 34.2773 44.1406C31.8359 44.1406 31.8359 43.1513 31.8359 42.6758V41.2109H45.1172C47.8096 41.2109 50 39.0205 50 36.3281V4.88281C50 4.22363 49.8711 3.58398 49.6162 2.98242ZM34.2773 45.0938C35.4563 45.0938 36.4429 45.934 36.6697 47.0469H13.3303C13.5571 45.934 14.5437 45.0938 15.7227 45.0938C15.7289 45.0938 15.7348 45.0936 15.7408 45.0935L15.7588 45.0932C15.7609 45.0932 15.763 45.0933 15.7651 45.0935L15.7715 45.0938H21.7773C22.3167 45.0938 22.7539 44.6564 22.7539 44.1172C22.7539 43.5779 22.3167 43.1406 21.7773 43.1406H19.8216C20.052 42.6307 20.1172 42.1045 20.1172 41.6758V40.2109H29.8828V41.6758C29.8828 42.1045 29.948 42.6307 30.1784 43.1406H28.2715C27.7321 43.1406 27.2949 43.5779 27.2949 44.1172C27.2949 44.6564 27.7321 45.0938 28.2715 45.0938H34.2773ZM45.1172 39.2578C46.7326 39.2578 48.0469 37.9436 48.0469 36.3281V35.3516H1.95312V36.3281C1.95312 37.9436 3.26738 39.2578 4.88281 39.2578H45.1172Z" fill="#1B2B67"/>
<path d="M14.27 25.5859H6.45752C5.91816 25.5859 5.48096 26.0232 5.48096 26.5625C5.48096 27.1018 5.91816 27.5391 6.45752 27.5391H14.27C14.8094 27.5391 15.2466 27.1018 15.2466 26.5625C15.2466 26.0232 14.8094 25.5859 14.27 25.5859Z" fill="#1B2B67"/>
<path d="M14.27 21.6797H6.45752C5.91816 21.6797 5.48096 22.117 5.48096 22.6562C5.48096 23.1955 5.91816 23.6328 6.45752 23.6328H14.27C14.8094 23.6328 15.2466 23.1955 15.2466 22.6562C15.2466 22.117 14.8094 21.6797 14.27 21.6797Z" fill="#1B2B67"/>
<path d="M14.27 17.7734H9.38721C8.84785 17.7734 8.41064 18.2107 8.41064 18.75C8.41064 19.2893 8.84785 19.7266 9.38721 19.7266H14.27C14.8094 19.7266 15.2466 19.2893 15.2466 18.75C15.2466 18.2107 14.8094 17.7734 14.27 17.7734Z" fill="#1B2B67"/>
<path d="M20.1045 23.6328H24.0107C24.5498 23.6328 24.9873 23.1943 24.9873 22.6562C24.9873 22.1182 24.5498 21.6797 24.0107 21.6797H20.1045C19.5664 21.6797 19.1279 22.1182 19.1279 22.6562C19.1279 23.1943 19.5664 23.6328 20.1045 23.6328Z" fill="#1B2B67"/>
<path d="M29.3818 22.6562C29.3818 22.1182 28.9443 21.6797 28.4053 21.6797C27.8672 21.6797 27.4297 22.1182 27.4297 22.6562C27.4297 23.1943 27.8672 23.6328 28.4053 23.6328C28.9443 23.6328 29.3818 23.1943 29.3818 22.6562Z" fill="#1B2B67"/>
<path d="M28.894 17.7734H20.105C19.5656 17.7734 19.1284 18.2107 19.1284 18.75C19.1284 19.2893 19.5656 19.7266 20.105 19.7266H28.894C29.4334 19.7266 29.8706 19.2893 29.8706 18.75C29.8706 18.2107 29.4333 17.7734 28.894 17.7734Z" fill="#1B2B67"/>
<path d="M43.5425 21.6797H34.7534C34.2141 21.6797 33.7769 22.117 33.7769 22.6562C33.7769 23.1955 34.2141 23.6328 34.7534 23.6328H43.5425C44.0818 23.6328 44.519 23.1955 44.519 22.6562C44.519 22.117 44.0817 21.6797 43.5425 21.6797Z" fill="#1B2B67"/>
<path d="M43.5425 17.7734H35.73C35.1906 17.7734 34.7534 18.2107 34.7534 18.75C34.7534 19.2893 35.1906 19.7266 35.73 19.7266H43.5425C44.0818 19.7266 44.519 19.2893 44.519 18.75C44.519 18.2107 44.0817 17.7734 43.5425 17.7734Z" fill="#1B2B67"/>
<path d="M16.0157 4.88286C16.0157 4.32202 15.5429 3.87163 14.9742 3.90835C14.4551 3.94204 14.0626 4.39614 14.0626 4.91635V12.6879C14.0626 13.056 13.8711 13.3919 13.5526 13.5649C13.2369 13.7366 12.8416 13.6582 12.5167 13.4449C12.1314 13.1919 11.6208 13.2812 11.299 13.5742H11.2998C10.8744 14.0624 10.9516 14.735 11.458 15.0737C11.9668 15.4139 12.5846 15.623 13.153 15.623C13.5804 15.623 14.0275 15.5267 14.4846 15.2784C15.4328 14.7634 16.0156 13.7725 16.0156 12.6877V4.88286H16.0157Z" fill="#1B2B67"/>
<path fill-rule="evenodd" clip-rule="evenodd" d="M35.3931 3.90625H32.6046C32.0652 3.90625 31.6406 4.34355 31.6406 4.88281V14.6484C31.6406 15.1797 32.075 15.625 32.6046 15.625H32.609H35.88C37.8433 15.625 39.4404 13.9961 39.4404 12.0082C39.4404 10.7956 38.8456 9.72188 37.9365 9.06807C38.3392 8.52822 38.5784 7.85684 38.5784 7.12988C38.5785 5.35244 37.1495 3.90625 35.3931 3.90625ZM33.5938 5.85938H35.3931C36.0726 5.85938 36.6254 6.42705 36.6254 7.12754C36.6254 7.82803 36.0726 8.39844 35.3931 8.39844H33.5938V5.85938ZM33.5938 13.6677C34.375 13.6644 35.4683 13.6603 35.8863 13.6603C36.7727 13.6603 37.4937 12.9191 37.4937 12.0082C37.4937 11.0973 36.7727 10.3562 35.8863 10.3562C35.8863 10.3562 33.8867 10.3551 33.5938 10.3562V13.6677Z" fill="#1B2B67"/>
<path fill-rule="evenodd" clip-rule="evenodd" d="M23.8076 15.625C20.5768 15.625 17.9482 12.9965 17.9482 9.76562C17.9482 6.53477 20.5768 3.90625 23.8076 3.90625C27.0385 3.90625 29.667 6.53477 29.667 9.76562C29.667 12.9965 27.0385 15.625 23.8076 15.625ZM27.7139 9.76562C27.7139 7.61172 25.9615 5.85938 23.8076 5.85938C21.6537 5.85938 19.9014 7.61172 19.9014 9.76562C19.9014 11.9195 21.6537 13.6719 23.8076 13.6719C25.9615 13.6719 27.7139 11.9195 27.7139 9.76562Z" fill="#1B2B67"/>
</svg>
