<?xml version="1.0" encoding="UTF-8"?>
<svg width="28px" height="28px" viewBox="0 0 28 28" version="1.1" xmlns="http://www.w3.org/2000/svg" xmlns:xlink="http://www.w3.org/1999/xlink">
    <!-- Generator: Sketch 63.1 (92452) - https://sketch.com -->
    <title>left-chevron</title>
    <desc>Created with Sketch.</desc>
    <g id="wireframes" stroke="none" stroke-width="1" fill="none" fill-rule="evenodd">
        <g id="HP_1440_nonconnecté" transform="translate(-914.000000, -944.000000)" fill-rule="nonzero">
            <g id="Steps" transform="translate(0.000000, 738.000000)">
                <g id="left-chevron" transform="translate(928.000000, 220.000000) rotate(-180.000000) translate(-928.000000, -220.000000) translate(914.000000, 206.000000)">
                    <path d="M23.8995299,4.1004701 C21.255233,1.45628866 17.7395299,5.68434189e-14 14,5.68434189e-14 C10.2604701,5.68434189e-14 6.74476701,1.45628866 4.1004701,4.1004701 C1.45628866,6.74476701 0,10.2604701 0,14 C0,17.7395299 1.45628866,21.255233 4.1004701,23.8995299 C6.74476701,26.5437113 10.2604701,28 14,28 C17.7395299,28 21.255233,26.5437113 23.8995299,23.8995299 C26.5437113,21.255233 28,17.7395299 28,14 C28,10.2604701 26.5437113,6.74476701 23.8995299,4.1004701 Z M14,26.2680412 C7.2353732,26.2680412 1.73195876,20.7646268 1.73195876,14 C1.73195876,7.2353732 7.2353732,1.73195876 14,1.73195876 C20.7646268,1.73195876 26.2680412,7.2353732 26.2680412,14 C26.2680412,20.7646268 20.7646268,26.2680412 14,26.2680412 Z" id="Shape" fill="#FFFFFF"></path>
                    <polygon id="Path" fill="#FF810B" points="15.7158743 6 8 13.5 15.7158743 21 17 19.7599638 10.5598509 13.5 17 7.24003622"></polygon>
                </g>
            </g>
        </g>
    </g>
</svg>