<svg width="42" height="32" viewBox="0 0 42 32" fill="none" xmlns="http://www.w3.org/2000/svg">
<g clip-path="url(#clip0)">
<path opacity="0.977818" d="M29.3633 0.695785C34.2266 1.36694 40.3282 3.91641 41.4361 7.6719C42.5447 11.4372 38.6619 16.3992 34.9656 20.3692C31.2705 24.3484 27.7654 27.3361 23.4712 29.349C19.1776 31.3533 14.1042 32.3971 10.6894 30.5067C7.28415 28.6296 5.54934 23.8234 3.52884 19.5905C1.50184 15.3485 -0.814981 11.6707 0.282336 9.09242C1.38201 6.52397 5.89583 5.05456 9.29108 4.13036C12.6863 3.20615 14.953 2.8168 17.9091 2.0289C20.8551 1.23064 24.49 0.0246292 29.3633 0.695785Z" fill="#2349D7"/>
<path d="M10.8459 22.19V18.305L17.1039 9.38H22.1229V18.158H23.6349V22.19H22.1229V24.5H17.4189V22.19H10.8459ZM17.7969 14.693L15.5289 18.158H17.7969V14.693ZM27.9 24.668C27.088 24.668 26.437 24.451 25.947 24.017C25.457 23.583 25.212 23.037 25.212 22.379C25.212 21.707 25.457 21.154 25.947 20.72C26.437 20.272 27.088 20.048 27.9 20.048C28.698 20.048 29.342 20.272 29.832 20.72C30.322 21.154 30.567 21.707 30.567 22.379C30.567 23.037 30.322 23.583 29.832 24.017C29.342 24.451 28.698 24.668 27.9 24.668Z" fill="#FF810B"/>
</g>
<defs>
<clipPath id="clip0">
<rect width="41.6286" height="31" fill="white" transform="translate(0 0.5)"/>
</clipPath>
</defs>
</svg>
