<svg width="42" height="32" viewBox="0 0 42 32" fill="none" xmlns="http://www.w3.org/2000/svg">
<g clip-path="url(#clip0)">
<path opacity="0.977818" d="M29.3633 0.695785C34.2266 1.36694 40.3282 3.91641 41.4361 7.6719C42.5447 11.4372 38.6619 16.3992 34.9656 20.3692C31.2705 24.3484 27.7654 27.3361 23.4712 29.349C19.1776 31.3533 14.1042 32.3971 10.6894 30.5067C7.28415 28.6296 5.54934 23.8234 3.52884 19.5905C1.50184 15.3485 -0.814981 11.6707 0.282336 9.09242C1.38201 6.52397 5.89583 5.05456 9.29108 4.13036C12.6863 3.20615 14.953 2.8168 17.9091 2.0289C20.8551 1.23064 24.49 0.0246292 29.3633 0.695785Z" fill="#2349D7"/>
<path d="M11.7877 20.783C13.6637 19.383 15.1477 18.116 16.2397 16.982C17.3317 15.834 17.8777 14.763 17.8777 13.769C17.8777 13.433 17.8007 13.174 17.6467 12.992C17.5067 12.81 17.3177 12.719 17.0797 12.719C16.7997 12.719 16.5757 12.866 16.4077 13.16C16.2537 13.44 16.1977 13.874 16.2397 14.462H11.7247C11.7667 13.16 12.0467 12.089 12.5647 11.249C13.0967 10.409 13.7827 9.793 14.6227 9.401C15.4627 9.009 16.3867 8.813 17.3947 8.813C19.1867 8.813 20.4957 9.247 21.3217 10.115C22.1617 10.969 22.5817 12.068 22.5817 13.412C22.5817 14.826 22.1267 16.156 21.2167 17.402C20.3207 18.634 19.1937 19.677 17.8357 20.531H22.6447V24.29H11.7877V20.783ZM26.4542 24.668C25.6422 24.668 24.9912 24.451 24.5012 24.017C24.0112 23.583 23.7662 23.037 23.7662 22.379C23.7662 21.707 24.0112 21.154 24.5012 20.72C24.9912 20.272 25.6422 20.048 26.4542 20.048C27.2522 20.048 27.8962 20.272 28.3862 20.72C28.8762 21.154 29.1212 21.707 29.1212 22.379C29.1212 23.037 28.8762 23.583 28.3862 24.017C27.8962 24.451 27.2522 24.668 26.4542 24.668Z" fill="#FF810B"/>
</g>
<defs>
<clipPath id="clip0">
<rect width="41.6286" height="31" fill="white" transform="translate(0 0.5)"/>
</clipPath>
</defs>
</svg>
