<svg width="42" height="32" viewBox="0 0 42 32" fill="none" xmlns="http://www.w3.org/2000/svg">
<g clip-path="url(#clip0)">
<path opacity="0.977818" d="M29.3633 0.695785C34.2266 1.36694 40.3282 3.91641 41.4361 7.6719C42.5447 11.4372 38.6619 16.3992 34.9656 20.3692C31.2705 24.3484 27.7654 27.3361 23.4712 29.349C19.1776 31.3533 14.1042 32.3971 10.6894 30.5067C7.28415 28.6296 5.54934 23.8234 3.52884 19.5905C1.50184 15.3485 -0.814981 11.6707 0.282336 9.09242C1.38201 6.52397 5.89583 5.05456 9.29108 4.13036C12.6863 3.20615 14.953 2.8168 17.9091 2.0289C20.8551 1.23064 24.49 0.0246292 29.3633 0.695785Z" fill="#2349D7"/>
<path d="M11.632 13.958C11.674 12.292 12.157 11.018 13.081 10.136C14.019 9.254 15.342 8.813 17.05 8.813C18.156 8.813 19.101 9.002 19.885 9.38C20.669 9.758 21.257 10.269 21.649 10.913C22.055 11.557 22.258 12.285 22.258 13.097C22.258 14.077 22.027 14.847 21.565 15.407C21.103 15.953 20.585 16.324 20.011 16.52V16.604C21.691 17.234 22.531 18.403 22.531 20.111C22.531 21.007 22.321 21.798 21.901 22.484C21.481 23.17 20.879 23.702 20.095 24.08C19.325 24.458 18.408 24.647 17.344 24.647C15.524 24.647 14.096 24.213 13.06 23.345C12.024 22.477 11.492 21.119 11.464 19.271H16C15.972 19.775 16.042 20.16 16.21 20.426C16.392 20.678 16.7 20.804 17.134 20.804C17.386 20.804 17.596 20.713 17.764 20.531C17.932 20.335 18.016 20.083 18.016 19.775C18.016 19.383 17.883 19.089 17.617 18.893C17.365 18.683 16.931 18.578 16.315 18.578H15.538V14.819H16.294C17.246 14.875 17.722 14.497 17.722 13.685C17.722 13.335 17.645 13.076 17.491 12.908C17.351 12.74 17.169 12.656 16.945 12.656C16.427 12.656 16.168 13.09 16.168 13.958H11.632ZM26.9669 24.668C26.1549 24.668 25.5039 24.451 25.0139 24.017C24.5239 23.583 24.2789 23.037 24.2789 22.379C24.2789 21.707 24.5239 21.154 25.0139 20.72C25.5039 20.272 26.1549 20.048 26.9669 20.048C27.7649 20.048 28.4089 20.272 28.8989 20.72C29.3889 21.154 29.6339 21.707 29.6339 22.379C29.6339 23.037 29.3889 23.583 28.8989 24.017C28.4089 24.451 27.7649 24.668 26.9669 24.668Z" fill="#FF810B"/>
</g>
<defs>
<clipPath id="clip0">
<rect width="41.6286" height="31" fill="white" transform="translate(0 0.5)"/>
</clipPath>
</defs>
</svg>
