<?xml version="1.0" encoding="UTF-8" standalone="no"?>
<svg
   xmlns:dc="http://purl.org/dc/elements/1.1/"
   xmlns:cc="http://creativecommons.org/ns#"
   xmlns:rdf="http://www.w3.org/1999/02/22-rdf-syntax-ns#"
   xmlns:svg="http://www.w3.org/2000/svg"
   xmlns="http://www.w3.org/2000/svg"
   xmlns:sodipodi="http://sodipodi.sourceforge.net/DTD/sodipodi-0.dtd"
   xmlns:inkscape="http://www.inkscape.org/namespaces/inkscape"
   version="1.1"
   id="Calque_1"
   x="0px"
   y="0px"
   width="55px"
   height="40px"
   viewBox="0.083 0 55 40"
   enable-background="new 0.083 0 55 40"
   xml:space="preserve"
   sodipodi:docname="logo-pole-emploi-mono-picto-white.svg"
   inkscape:version="1.0.1 (0767f8302a, 2020-10-17)"><metadata
   id="metadata228"><rdf:RDF><cc:Work
       rdf:about=""><dc:format>image/svg+xml</dc:format><dc:type
         rdf:resource="http://purl.org/dc/dcmitype/StillImage" /><dc:title></dc:title></cc:Work></rdf:RDF></metadata><defs
   id="defs226" /><sodipodi:namedview
   pagecolor="#ffffff"
   bordercolor="#666666"
   borderopacity="1"
   objecttolerance="10"
   gridtolerance="10"
   guidetolerance="10"
   inkscape:pageopacity="0"
   inkscape:pageshadow="2"
   inkscape:window-width="1853"
   inkscape:window-height="1025"
   id="namedview224"
   showgrid="false"
   inkscape:zoom="21.25"
   inkscape:cx="27.5"
   inkscape:cy="19.835294"
   inkscape:window-x="1347"
   inkscape:window-y="27"
   inkscape:window-maximized="1"
   inkscape:current-layer="Calque_1" />
<g
   id="g221">
	<path
   fill="#1B2B66"
   d="M27.489,28.098c-1.934-1.992-2.909-4.681-2.911-8.146c0-1.627,0.242-3.129,0.723-4.512   c0.479-1.381,1.177-2.556,2.091-3.536c0.911-0.978,2.032-1.728,3.377-2.254c1.344-0.524,2.837-0.79,4.49-0.79   c1.71,0.001,3.208,0.29,4.513,0.854c-3.075-3.978-7.878-6.55-13.294-6.55c-9.284,0-16.81,7.526-16.81,16.81   c0,9.284,7.526,16.809,16.81,16.809c5.272,0,9.973-2.432,13.055-6.229c-1.123,0.35-2.407,0.532-3.861,0.531   C32.121,31.081,29.422,30.079,27.489,28.098z"
   id="path211" />
	<path
   fill="#1B2B66"
   d="M40.979,21.041H30.317c-0.352,0-0.656,0.238-0.642,0.637c0.05,1.194,0.312,2.273,0.798,3.215   c0.522,1.021,1.231,1.81,2.119,2.332c0.879,0.525,1.859,0.789,2.914,0.789c0.698,0,1.342-0.082,1.932-0.248   c0.588-0.168,1.156-0.429,1.703-0.783c0.533-0.338,1.026-0.711,1.477-1.105c0.444-0.391,1.308-1.197,1.605-1.47   c0.134-0.125,0.316-0.226,0.53-0.294h-0.001c0.271-1.064,0.436-2.168,0.492-3.303C42.622,20.96,41.868,21.041,40.979,21.041z"
   id="path213" />
	<path
   fill="#1B2B66"
   d="M35.075,12.11c-1.474-0.003-2.732,0.525-3.687,1.557c-0.92,0.99-1.468,2.41-1.687,4.218   c-0.054,0.341,0.289,0.619,0.636,0.621h9.508c0.333,0,0.658-0.27,0.636-0.58c-0.165-1.851-0.688-3.293-1.619-4.282   C37.903,12.623,36.611,12.107,35.075,12.11z"
   id="path215" />
	<path
   fill="#1B2B66"
   d="M43.601,24.035c-0.082-0.008-0.165-0.014-0.255-0.014c-0.213,0-0.402,0.035-0.574,0.088   c-0.604,2.388-1.719,4.57-3.223,6.43c0.041-0.012,0.083-0.021,0.123-0.034c2.11-0.741,4.486-2.847,4.89-4.831   C44.826,24.376,44.031,24.096,43.601,24.035z"
   id="path217" />
	<path
   fill="#1B2B66"
   d="M40.741,10.197c-0.295-0.174-0.612-0.318-0.931-0.458c2.178,2.835,3.476,6.383,3.476,10.235   c0,0.271-0.007,0.545-0.02,0.815c0.369-0.092,0.706-0.201,0.978-0.342c0.658-0.34,1.031-1.092,1.037-2.456   c0-1.468-0.374-2.905-1.134-4.331C43.394,12.248,42.267,11.097,40.741,10.197z"
   id="path219" />
</g>
<path
   style="fill:#ffffff;stroke-width:0.0470588"
   d="M 25.194118,36.724083 C 22.166226,36.459582 19.558806,35.563961 17.123529,33.951925 13.352468,31.455662 10.755769,27.551144 9.9039428,23.096216 9.6524728,21.781064 9.5530541,19.979661 9.6598297,18.67304 9.9890531,14.644308 11.688878,10.963137 14.53443,8.1165172 17.198536,5.451411 20.529957,3.8191663 24.347059,3.3087751 c 0.796452,-0.106495 3.13521,-0.1201725 3.905882,-0.022842 3.952788,0.4992082 7.347716,2.1574356 10.052668,4.9101518 0.583361,0.5936612 1.257337,1.3566555 1.226031,1.3879624 -0.0096,0.0096 -0.269532,-0.066819 -0.57762,-0.1698269 -1.245022,-0.4162682 -2.140017,-0.5436249 -3.806961,-0.5417251 -1.702315,0.00194 -2.593011,0.1310004 -3.935776,0.5702894 -3.642786,1.1917473 -5.929425,4.0889353 -6.586742,8.3454503 -0.142036,0.919766 -0.175421,2.763196 -0.06879,3.798332 0.242796,2.356943 1.001311,4.32539 2.271862,5.895786 0.36742,0.454129 1.162031,1.221914 1.614147,1.559655 1.001175,0.747897 2.273996,1.337379 3.579667,1.65785 2.23311,0.548106 5.123219,0.529087 7.189795,-0.04731 0.09841,-0.02745 0.105522,-0.02075 0.06172,0.05822 -0.02723,0.04908 -0.267864,0.324328 -0.534752,0.611661 -2.763819,2.975537 -6.255581,4.77775 -10.297016,5.314627 -0.560575,0.07447 -2.726352,0.132519 -3.247058,0.08703 z"
   id="path230"
   transform="translate(0.083)" /><path
   style="fill:#ffffff;stroke-width:0.0470588"
   d="m 34.629412,27.931904 c -1.493084,-0.204849 -2.759726,-0.952863 -3.654691,-2.15827 -0.689307,-0.928413 -1.116454,-2.026494 -1.287115,-3.308833 -0.119534,-0.898169 -0.08134,-1.13086 0.214269,-1.305481 0.118586,-0.07005 0.622278,-0.07703 5.605386,-0.0777 5.437937,-7.23e-4 6.497051,-0.02488 7.228827,-0.164914 0.200152,-0.0383 0.369206,-0.06964 0.375677,-0.06964 0.09227,-6.3e-5 -0.161384,1.942218 -0.370205,2.834764 -0.09528,0.40724 -0.09813,0.41209 -0.292417,0.498306 -0.113801,0.0505 -0.574631,0.434266 -1.097271,0.913778 -1.573428,1.443591 -2.437035,2.053072 -3.508921,2.476381 -0.922159,0.364178 -2.170748,0.504677 -3.213539,0.361609 z"
   id="path232"
   transform="translate(0.083)" /><path
   style="fill:#ffffff;stroke-width:0.0470588"
   d="m 30.041201,18.441249 c -0.153787,-0.06132 -0.329124,-0.22636 -0.379782,-0.357473 -0.02561,-0.06629 -0.0073,-0.307027 0.05021,-0.658824 0.278987,-1.707722 0.804581,-2.879408 1.71037,-3.812858 0.914215,-0.942134 1.957171,-1.401096 3.313355,-1.458071 1.30165,-0.05469 2.406584,0.24457 3.326329,0.900886 0.411959,0.293969 1.047135,0.983233 1.308248,1.419653 0.511557,0.855011 0.943584,2.323399 0.988698,3.360422 0.01032,0.237278 -0.0042,0.292534 -0.105683,0.402558 -0.247293,0.268066 -0.01429,0.256826 -5.257312,0.253593 -3.09657,-0.0019 -4.879125,-0.01986 -4.954428,-0.04989 z"
   id="path234"
   transform="translate(0.083)" /><path
   style="fill:#ffffff;stroke-width:0.0470588"
   d="m 43.203457,19.611024 c -0.06269,-2.624935 -0.607003,-4.860664 -1.730435,-7.107681 -0.47696,-0.953982 -1.055624,-1.906661 -1.513406,-2.491578 -0.07596,-0.097059 -0.125143,-0.1764709 -0.10929,-0.1764709 0.09122,0 0.778065,0.3697129 1.202615,0.6473369 2.382936,1.558257 3.86243,4.049982 4.091439,6.890692 0.108342,1.343908 -0.122721,2.297701 -0.680027,2.807046 -0.242547,0.221675 -0.702903,0.446396 -1.110771,0.54222 l -0.122888,0.02887 z"
   id="path236"
   transform="translate(0.083)" /><path
   style="fill:#ffffff;stroke-width:0.0470588"
   d="m 39.754317,30.223529 c 1.207763,-1.595415 2.216708,-3.562728 2.73321,-5.329411 0.246398,-0.842796 0.211376,-0.787211 0.520303,-0.825809 0.703986,-0.08796 1.261947,0.188816 1.434468,0.711561 0.149121,0.45184 -0.04452,1.348503 -0.446425,2.067174 -0.744747,1.331732 -2.360082,2.74172 -3.933621,3.433565 -0.208216,0.09155 -0.400755,0.16645 -0.427864,0.16645 -0.02711,0 0.02686,-0.100588 0.119929,-0.22353 z"
   id="path238"
   transform="translate(0.083)" /></svg>
