<svg xmlns="http://www.w3.org/2000/svg" xmlns:xlink="http://www.w3.org/1999/xlink" width="99" height="40" xmlns:v="https://vecta.io/nano"><defs><path id="A" d="M0 .441h39.098V39.54H0z"/><path id="B" d="M0 39.559h98.485V.46H0z"/></defs><g fill="none" fill-rule="evenodd"><g transform="translate(0 .018)"><mask id="C" fill="#fff"><use xlink:href="#A"/></mask><path d="M39.098 19.991c0 10.797-8.752 19.55-19.549 19.55S0 30.788 0 19.991 8.753.441 19.549.441s19.549 8.753 19.549 19.549" fill="#23333c" mask="url(#C)"/></g><path d="M45.7 5.22h7.099l-.652 2.068h-3.894v2.926h3.894v2.049h-3.894v3.168h4.527V17.5H45.7zm9.297 9.745c.708.466 1.621.764 2.478.764.839 0 1.435-.205 1.435-.764 0-1.342-4.155-.82-4.155-3.764 0-1.621 1.342-2.739 3.465-2.739 1.024 0 1.957.169 2.702.447v2.106c-.783-.336-1.64-.596-2.59-.596-.727 0-1.119.205-1.119.651 0 1.211 4.155.727 4.155 3.839 0 1.994-1.77 2.776-3.689 2.776-1.453 0-2.664-.41-3.447-.894l.764-1.826zm8.832.242v-4.565h-1.622V8.686h1.622V6.618l2.534-.726v2.794h2.664l-.577 1.957h-2.087v3.931c0 .82.261 1.1.838 1.1a2.46 2.46 0 0 0 1.304-.391l.726 1.714c-.652.447-1.808.689-2.683.689-1.676 0-2.72-.931-2.72-2.478" fill="#21313b"/><mask id="D" fill="#fff"><use xlink:href="#B"/></mask><path d="M70.443 17.5h2.515V8.686h-2.515V17.5zm-.261-11.534c0-.801.652-1.453 1.528-1.453.857 0 1.509.615 1.509 1.453 0 .82-.652 1.491-1.509 1.491-.876 0-1.528-.652-1.528-1.491zm4.77 2.72h2.105l.243.95c.857-.652 1.863-1.173 2.926-1.173 1.099 0 1.919.466 2.385 1.305 1.062-.877 2.18-1.305 3.131-1.305 1.583 0 3.018.82 3.018 3.223V17.5h-2.515v-5.143c0-.949-.168-1.714-1.248-1.714-.634 0-1.324.279-1.882.726V17.5h-2.516v-5.106c0-.95-.149-1.751-1.23-1.751-.633 0-1.341.279-1.9.726V17.5h-2.515V8.686zm20.999 3.428c-.019-.875-.466-1.751-1.565-1.751-1.006 0-1.547.839-1.547 1.751h3.112zm-5.608 1.044c0-2.664 1.434-4.696 4.081-4.696 2.571 0 4.062 1.807 4.062 4.77v.577h-5.609c.038 1.229.988 1.92 2.329 1.92a4.32 4.32 0 0 0 2.255-.596l.726 1.714c-.987.596-2.087.838-3.204.838-3.354 0-4.64-2.217-4.64-4.527z" mask="url(#D)" fill="#21313b"/><path fill="#ff810b" mask="url(#D)" d="M45.698 33.721h47.84V22.752h-47.84z"/><path d="M50.988 27.734c.309 0 .541-.052.713-.146.344-.164.507-.499.507-.954 0-.404-.155-.739-.473-.928-.181-.103-.422-.163-.757-.163h-.335v2.192h.344zm-1.246-2.931h1.263c.542 0 .937.077 1.264.249.559.292.885.833.885 1.581 0 .662-.284 1.315-1.04 1.633-.3.129-.679.206-1.185.206h-.284v1.994h-.902v-5.663zm7.101 3.618c0-.808-.378-1.393-1.057-1.393s-1.066.585-1.066 1.393c0 .817.387 1.401 1.066 1.401s1.057-.585 1.057-1.401zm-1.444-3.782h.757l.859 1.263h-.722l-.515-.739-.508.739h-.722l.851-1.263zm-1.598 3.782c0-1.212.791-2.122 1.985-2.122 1.186 0 1.977.91 1.977 2.122s-.791 2.132-1.977 2.132-1.985-.92-1.985-2.132zm4.833-4.039h.893v4.976c0 .301.103.387.301.387a1.03 1.03 0 0 0 .257-.051l.181.695a1.82 1.82 0 0 1-.697.138c-.627 0-.936-.327-.936-.92v-5.225zm4.59 3.636c-.017-.516-.266-1.023-.842-1.023-.542 0-.859.474-.869 1.023h1.711zm-2.613.404c0-1.229.679-2.122 1.779-2.122 1.109 0 1.744.825 1.744 2.14v.215h-2.612c.017.695.472 1.185 1.211 1.185a2.03 2.03 0 0 0 1.023-.275l.266.61c-.395.258-.903.379-1.384.379-1.418 0-2.029-1.006-2.029-2.132zm8.409-.404c-.017-.516-.266-1.023-.842-1.023-.542 0-.859.474-.869 1.023h1.711zm-2.613.404c0-1.229.679-2.122 1.779-2.122 1.109 0 1.744.825 1.744 2.14v.215h-2.612c.017.695.472 1.185 1.211 1.185a2.03 2.03 0 0 0 1.023-.275l.266.61c-.395.258-.903.379-1.384.379-1.418 0-2.029-1.006-2.029-2.132zm4.369-2.02h.747l.095.481c.413-.335.877-.584 1.384-.584.481 0 .868.223 1.066.653.49-.421 1.005-.653 1.478-.653.696 0 1.297.404 1.297 1.461v2.708h-.893V28.01c0-.516-.103-.928-.645-.928-.361 0-.731.206-1.057.473a1.25 1.25 0 0 1 .009.189v2.725h-.893V28.02c0-.516-.104-.937-.636-.937-.37 0-.739.206-1.057.473v2.914h-.893v-4.065zm8.565 3.403c.807 0 1.229-.55 1.229-1.392 0-.937-.516-1.367-1.281-1.367a1.82 1.82 0 0 0-.542.078v2.553c.189.086.361.129.594.129zm-1.487-3.249a4.47 4.47 0 0 1 1.47-.257c1.401 0 2.166.807 2.166 2.122 0 1.273-.851 2.132-2.089 2.132-.232 0-.455-.044-.653-.112v2.063h-.894v-5.948zm4.506-2.174h.893v4.976c0 .301.103.387.301.387.06 0 .181-.025.257-.051l.181.695a1.82 1.82 0 0 1-.697.138c-.627 0-.936-.327-.936-.92v-5.225zm5.123 4.039c0-.808-.378-1.393-1.057-1.393s-1.066.585-1.066 1.393c0 .817.387 1.401 1.066 1.401s1.057-.585 1.057-1.401m-3.043 0c0-1.212.791-2.122 1.985-2.122 1.186 0 1.977.91 1.977 2.122s-.791 2.132-1.977 2.132-1.985-.92-1.985-2.132m4.843 2.046h.894v-4.065h-.894v4.065zm-.112-5.362a.54.54 0 0 1 .559-.55c.327 0 .558.232.558.55 0 .309-.24.55-.558.55a.54.54 0 0 1-.559-.55zM32.77 35.39H22.44a2.59 2.59 0 0 1-2.583-2.583v-10.33a2.59 2.59 0 0 1 2.583-2.583h10.33a2.59 2.59 0 0 1 2.583 2.583v10.33a2.59 2.59 0 0 1-2.583 2.583" mask="url(#D)" fill="#fff"/><g fill="#ff810b"><path d="M22.44 20.815c-.917 0-1.663.746-1.663 1.663v10.33c0 .917.746 1.663 1.663 1.663h10.33c.917 0 1.663-.746 1.663-1.663v-10.33c0-.917-.746-1.663-1.663-1.663H22.44zM32.77 36.31H22.44c-1.931 0-3.502-1.571-3.502-3.502v-10.33c0-1.931 1.571-3.502 3.502-3.502h10.33c1.931 0 3.502 1.571 3.502 3.502v10.33c0 1.931-1.571 3.502-3.502 3.502zM15.456 11.091h-2.72v-2.72a.92.92 0 0 0-1.84 0v2.72h-2.72a.92.92 0 0 0 0 1.84h2.72v2.72a.92.92 0 0 0 1.84 0v-2.72h2.72a.92.92 0 1 0 0-1.84" mask="url(#D)"/><path d="M31.088 12.93H23.81a.92.92 0 1 1 0-1.84h7.278a.92.92 0 1 1 0 1.84M13.117 27.642l1.923-1.923a.92.92 0 0 0 0-1.3.92.92 0 0 0-1.301 0l-1.923 1.923-1.923-1.923a.92.92 0 0 0-1.3 0 .92.92 0 0 0 0 1.3l1.923 1.923-1.923 1.923a.92.92 0 0 0 .65 1.569.92.92 0 0 0 .65-.269l1.923-1.923 1.923 1.923a.92.92 0 0 0 1.301 0 .92.92 0 0 0 0-1.3l-1.923-1.923zm17.971-1.379H23.81a.92.92 0 1 1 0-1.84h7.278a.92.92 0 1 1 0 1.84m0 4.598H23.81a.92.92 0 1 1 0-1.84h7.278a.92.92 0 1 1 0 1.84" mask="url(#D)"/></g></g></svg>