<svg width="33" height="30" viewBox="0 0 33 30" fill="none" xmlns="http://www.w3.org/2000/svg">
<path d="M16.149 22.1701C14.371 20.2045 13.4544 17.6147 13.6022 14.9746C13.5739 13.5986 13.7806 12.2279 14.2134 10.9208C14.6114 9.79423 15.2352 8.75986 16.0471 7.88038C16.8975 6.98219 17.9428 6.28895 19.1033 5.85347C20.3975 5.32816 21.7804 5.053 23.1782 5.04271C24.4684 5.03958 25.7475 5.28032 26.9475 5.75213C23.0003 0.737956 16.3006 -1.24972 10.2375 0.79461C4.17438 2.83894 0.0700935 8.4695 0.000888146 14.8379C-0.0683172 21.2063 3.91265 26.9238 9.9299 29.098C15.9471 31.2723 22.6885 29.4292 26.7437 24.5011C25.6814 24.7865 24.5841 24.923 23.4838 24.9065C20.7774 25.0778 18.1209 24.1235 16.149 22.2715V22.1701Z" fill="white"/>
<path fill-rule="evenodd" clip-rule="evenodd" d="M18.487 13.6815H27.2885C27.4445 13.7118 27.6065 13.6731 27.7288 13.5763C27.8511 13.4796 27.9204 13.3353 27.9172 13.1842C27.8138 11.8126 27.2227 10.5149 26.2407 9.50397C25.3486 8.59494 24.0915 8.08868 22.783 8.11145C21.4691 8.06195 20.2008 8.57274 19.3252 9.50397C18.4453 10.5562 17.9326 11.8426 17.8583 13.1842C17.7535 13.4826 18.0679 13.6815 18.3822 13.6815H18.487ZM28.3364 15.8698H18.4871C18.3109 15.831 18.1262 15.8812 17.9983 16.0026C17.8705 16.124 17.8176 16.2994 17.8584 16.4666C17.8869 17.4345 18.1371 18.3849 18.5919 19.2516C19.417 20.9607 21.2218 22.0509 23.2022 22.0367C23.8077 22.0165 24.4073 21.9161 24.9834 21.7383C25.535 21.6125 26.0644 21.4115 26.5551 21.1415C27.0346 20.8426 27.4899 20.5101 27.9173 20.1468L29.3842 18.8538C29.4778 18.7728 29.5838 18.7057 29.6985 18.6548C29.1674 20.725 28.1661 22.66 26.7647 24.3243L27.079 24.2248C29.0699 23.5286 31.2702 21.7382 31.5846 19.9478C31.7941 18.8537 31.0607 18.5553 30.7463 18.5553H30.432C30.1828 18.5361 29.9322 18.5701 29.6986 18.6547C29.9814 17.68 30.157 16.68 30.2224 15.6709C29.6063 15.8321 28.9743 15.9321 28.3364 15.9693V15.8698ZM29.6986 18.6547C29.6986 18.6547 29.6985 18.6547 29.6985 18.6547C29.6985 18.6548 29.6985 18.6548 29.6985 18.6548C29.6985 18.6548 29.6985 18.6548 29.6985 18.6548C29.6985 18.6548 29.6986 18.6548 29.6986 18.6547Z" fill="white"/>
<path d="M30.2496 15.4055C30.6306 15.3172 30.9975 15.1851 31.341 15.0124C31.9959 14.7176 32.4325 14.0296 32.4325 12.9485C32.4192 11.6413 32.044 10.3577 31.341 9.21386C30.3214 7.58666 28.6987 6.33422 26.7568 5.67578C29.0051 8.21833 30.2357 11.3692 30.2496 14.6193V15.4055V15.4055Z" fill="white"/>
</svg>
