<svg width="100" height="40" viewBox="0 0 100 40" fill="none" xmlns="http://www.w3.org/2000/svg">
<mask id="mask0_3414_90469" style="mask-type:alpha" maskUnits="userSpaceOnUse" x="0" y="0" width="40" height="40">
<path fill-rule="evenodd" clip-rule="evenodd" d="M0.000244141 0H39.7001V39.4392H0.000244141V0Z" fill="white"/>
</mask>
<g mask="url(#mask0_3414_90469)">
<path fill-rule="evenodd" clip-rule="evenodd" d="M39.7001 19.7193C39.7001 30.6106 30.8132 39.4394 19.8499 39.4394C8.88799 39.4394 0.000244141 30.6106 0.000244141 19.7193C0.000244141 8.82858 8.88799 -0.000244141 19.8499 -0.000244141C30.8132 -0.000244141 39.7001 8.82858 39.7001 19.7193Z" fill="#23333C"/>
</g>
<path fill-rule="evenodd" clip-rule="evenodd" d="M46.4026 4.80176H53.6106L52.9487 6.8878H48.995V9.83925H52.9487V11.9063H48.995V15.1021H53.5915V17.1882H46.4026V4.80176Z" fill="#23333C"/>
<path fill-rule="evenodd" clip-rule="evenodd" d="M55.843 14.6321C56.562 15.1023 57.4887 15.4029 58.3593 15.4029C59.2108 15.4029 59.8163 15.196 59.8163 14.6321C59.8163 13.2788 55.5975 13.8047 55.5975 10.8352C55.5975 9.19991 56.9597 8.07202 59.1161 8.07202C60.1562 8.07202 61.1029 8.24223 61.8597 8.52327V10.6478C61.0647 10.3088 60.1945 10.0463 59.23 10.0463C58.4914 10.0463 58.0941 10.2527 58.0941 10.7035C58.0941 11.9255 62.3135 11.4367 62.3135 14.5755C62.3135 16.5869 60.5161 17.3758 58.5675 17.3758C57.0918 17.3758 55.8622 16.9625 55.0671 16.4737L55.843 14.6321Z" fill="#23333C"/>
<path fill-rule="evenodd" clip-rule="evenodd" d="M64.8109 14.8762V10.2714H63.1643V8.29757H64.8109V6.21152L67.3841 5.47876V8.29757H70.089L69.5031 10.2714H67.3841V14.2371C67.3841 15.064 67.6488 15.3464 68.2351 15.3464C68.7267 15.3464 69.2183 15.1767 69.5596 14.9518L70.2972 16.6807C69.6347 17.1315 68.4616 17.3759 67.5727 17.3759C65.8706 17.3759 64.8109 16.4363 64.8109 14.8762Z" fill="#23333C"/>
<mask id="mask1_3414_90469" style="mask-type:alpha" maskUnits="userSpaceOnUse" x="0" y="0" width="100" height="40">
<path fill-rule="evenodd" clip-rule="evenodd" d="M0 39.4392H100V0H0V39.4392Z" fill="white"/>
</mask>
<g mask="url(#mask1_3414_90469)">
<path fill-rule="evenodd" clip-rule="evenodd" d="M71.5271 17.1884H74.0812V8.29785H71.5271V17.1884ZM71.2617 5.55363C71.2617 4.74528 71.9242 4.08765 72.8135 4.08765C73.6832 4.08765 74.3457 4.70771 74.3457 5.55363C74.3457 6.381 73.6832 7.05718 72.8135 7.05718C71.9242 7.05718 71.2617 6.39909 71.2617 5.55363Z" fill="#23333C"/>
<path fill-rule="evenodd" clip-rule="evenodd" d="M76.105 8.29766H78.2427L78.4891 9.25581C79.3589 8.59818 80.3808 8.07227 81.4597 8.07227C82.5759 8.07227 83.4083 8.54253 83.8812 9.38845C84.9591 8.50404 86.0945 8.07227 87.0599 8.07227C88.6677 8.07227 90.1243 8.89917 90.1243 11.3238V17.1882H87.5706V12C87.5706 11.0423 87.3998 10.2715 86.3032 10.2715C85.6594 10.2715 84.9591 10.553 84.3919 11.0042V17.1882H81.8373V12.038C81.8373 11.0794 81.6861 10.2715 80.5885 10.2715C79.9462 10.2715 79.2268 10.553 78.6591 11.0042V17.1882H76.105V8.29766Z" fill="#23333C"/>
<path fill-rule="evenodd" clip-rule="evenodd" d="M97.4267 11.7563C97.4075 10.8732 96.9533 9.98975 95.838 9.98975C94.8161 9.98975 94.2671 10.8357 94.2671 11.7563H97.4267ZM91.7322 12.809C91.7322 10.1215 93.1887 8.07251 95.8759 8.07251C98.4865 8.07251 100 9.89513 100 12.8841V13.4666H94.3049C94.3432 14.7068 95.3077 15.4029 96.67 15.4029C97.5971 15.4029 98.2974 15.177 98.9594 14.8014L99.697 16.5303C98.6947 17.1318 97.578 17.3758 96.4436 17.3758C93.0375 17.3758 91.7322 15.1395 91.7322 12.809Z" fill="#23333C"/>
<path fill-rule="evenodd" clip-rule="evenodd" d="M46.4011 33.5505H94.977V22.4858H46.4011V33.5505Z" fill="#FF810B"/>
<path fill-rule="evenodd" clip-rule="evenodd" d="M51.7722 27.512C52.0864 27.512 52.3217 27.4596 52.4963 27.3645C52.8455 27.1989 53.0112 26.8609 53.0112 26.4017C53.0112 25.9941 52.8534 25.656 52.5313 25.4658C52.3474 25.3619 52.1032 25.3012 51.7629 25.3012H51.4226V27.512H51.7722ZM50.5068 24.5559H51.7893C52.3397 24.5559 52.7407 24.6334 53.0726 24.8068C53.6398 25.1013 53.9713 25.6472 53.9713 26.4017C53.9713 27.0691 53.6832 27.7286 52.9148 28.049C52.6104 28.1789 52.2258 28.2573 51.7113 28.2573H51.4228V30.2682H50.5068V24.5559Z" fill="white"/>
<path fill-rule="evenodd" clip-rule="evenodd" d="M57.718 28.2051C57.718 27.3903 57.3342 26.8004 56.6447 26.8004C55.9557 26.8004 55.5626 27.3903 55.5626 28.2051C55.5626 29.0288 55.9557 29.6187 56.6447 29.6187C57.3342 29.6187 57.718 29.0288 57.718 28.2051ZM56.2516 24.3906H57.0201L57.8926 25.6651H57.1596L56.6368 24.9193L56.1209 25.6651H55.388L56.2516 24.3906ZM54.6289 28.2052C54.6289 26.9827 55.4323 26.0644 56.6447 26.0644C57.8492 26.0644 58.6526 26.9827 58.6526 28.2052C58.6526 29.4282 57.8492 30.3557 56.6447 30.3557C55.4403 30.3557 54.6289 29.4282 54.6289 28.2052Z" fill="white"/>
<path fill-rule="evenodd" clip-rule="evenodd" d="M59.5361 24.1306H60.4432V29.15C60.4432 29.4538 60.5478 29.5401 60.749 29.5401C60.8101 29.5401 60.932 29.5145 61.0104 29.4886L61.1939 30.1898C60.9754 30.2858 60.7051 30.3289 60.4866 30.3289C59.8499 30.3289 59.5361 29.9992 59.5361 29.4014V24.1306Z" fill="white"/>
<path fill-rule="evenodd" clip-rule="evenodd" d="M64.1964 27.7979C64.1792 27.2776 63.9266 26.7656 63.3416 26.7656C62.7912 26.7656 62.4691 27.2432 62.4593 27.7979H64.1964ZM61.5437 28.205C61.5437 26.9653 62.2332 26.0642 63.3504 26.0642C64.4759 26.0642 65.1216 26.8962 65.1216 28.2226V28.4396H62.4694C62.4863 29.1409 62.9489 29.6353 63.6996 29.6353C64.1099 29.6353 64.4409 29.523 64.7383 29.3579L65.0086 29.9733C64.6076 30.234 64.0922 30.3555 63.6034 30.3555C62.1637 30.3555 61.5437 29.3408 61.5437 28.205Z" fill="white"/>
<path fill-rule="evenodd" clip-rule="evenodd" d="M70.0821 27.7979C70.0649 27.2776 69.8123 26.7656 69.2274 26.7656C68.6769 26.7656 68.3548 27.2432 68.345 27.7979H70.0821ZM67.429 28.205C67.429 26.9653 68.1185 26.0642 69.2356 26.0642C70.3612 26.0642 71.0068 26.8962 71.0068 28.2226V28.4396H68.3547C68.3715 29.1409 68.8342 29.6353 69.5848 29.6353C69.9952 29.6353 70.3262 29.523 70.6236 29.3579L70.8939 29.9733C70.4928 30.234 69.9774 30.3555 69.4887 30.3555C68.0489 30.3555 67.429 29.3408 67.429 28.205Z" fill="white"/>
<path fill-rule="evenodd" clip-rule="evenodd" d="M71.8652 26.1678H72.6239L72.72 26.6534C73.1392 26.3153 73.6103 26.064 74.1257 26.064C74.614 26.064 75.0066 26.2894 75.2078 26.7225C75.7055 26.2977 76.2283 26.064 76.7087 26.064C77.4155 26.064 78.0257 26.4712 78.0257 27.5374V30.2685H77.1186V27.7892C77.1186 27.2688 77.014 26.8528 76.4641 26.8528C76.0972 26.8528 75.7223 27.0611 75.3904 27.3296C75.3992 27.3811 75.3992 27.4516 75.3992 27.5202V30.2685H74.4922V27.798C74.4922 27.2777 74.3867 26.8528 73.846 26.8528C73.4707 26.8528 73.0958 27.0611 72.7723 27.3296V30.2685H71.8652V26.1678Z" fill="white"/>
<path fill-rule="evenodd" clip-rule="evenodd" d="M80.5614 29.6007C81.3812 29.6007 81.8093 29.046 81.8093 28.1964C81.8093 27.2512 81.2855 26.8176 80.5086 26.8176C80.3074 26.8176 80.1333 26.844 79.9587 26.8959V29.4708C80.1506 29.5575 80.3252 29.6007 80.5614 29.6007ZM79.051 26.3237C79.4959 26.1678 80.0109 26.064 80.5435 26.064C81.966 26.064 82.7428 26.8783 82.7428 28.2047C82.7428 29.4885 81.8782 30.3552 80.6215 30.3552C80.3862 30.3552 80.1598 30.3112 79.9586 30.2426V32.3235H79.051V26.3237Z" fill="white"/>
<path fill-rule="evenodd" clip-rule="evenodd" d="M83.627 24.1306H84.534V29.15C84.534 29.4538 84.6386 29.5401 84.8398 29.5401C84.901 29.5401 85.0233 29.5145 85.1012 29.4886L85.2847 30.1898C85.0667 30.2858 84.7959 30.3289 84.5774 30.3289C83.9411 30.3289 83.627 29.9992 83.627 29.4014V24.1306Z" fill="white"/>
<path fill-rule="evenodd" clip-rule="evenodd" d="M88.8291 28.205C88.8291 27.3901 88.4454 26.8002 87.7554 26.8002C87.0663 26.8002 86.6733 27.3901 86.6733 28.205C86.6733 29.0286 87.0663 29.6186 87.7554 29.6186C88.4454 29.6186 88.8291 29.0286 88.8291 28.205ZM85.7395 28.205C85.7395 26.9825 86.5425 26.0642 87.7553 26.0642C88.9598 26.0642 89.7628 26.9825 89.7628 28.205C89.7628 29.4279 88.9598 30.3555 87.7553 30.3555C86.5513 30.3555 85.7395 29.4279 85.7395 28.205Z" fill="white"/>
<path fill-rule="evenodd" clip-rule="evenodd" d="M90.6562 30.2686H91.5637V26.1679H90.6562V30.2686ZM90.5422 24.8596C90.5422 24.5465 90.7775 24.3044 91.1094 24.3044C91.4414 24.3044 91.6762 24.5382 91.6762 24.8596C91.6762 25.1717 91.433 25.4142 91.1094 25.4142C90.7775 25.4142 90.5422 25.1717 90.5422 24.8596Z" fill="white"/>
<path fill-rule="evenodd" clip-rule="evenodd" d="M33.2744 35.2345H22.7853C21.3428 35.2345 20.1631 34.0626 20.1631 32.6295V22.2095C20.1631 20.7764 21.3428 19.6045 22.7853 19.6045H33.2744C34.7164 19.6045 35.8966 20.7764 35.8966 22.2095V32.6295C35.8966 34.0626 34.7164 35.2345 33.2744 35.2345Z" fill="white"/>
<path fill-rule="evenodd" clip-rule="evenodd" d="M22.7852 20.5319C21.8539 20.5319 21.0967 21.2842 21.0967 22.2094V32.6294C21.0967 33.5542 21.8539 34.3069 22.7852 34.3069H33.2742C34.2051 34.3069 34.9628 33.5542 34.9628 32.6294V22.2094C34.9628 21.2842 34.2051 20.5319 33.2742 20.5319H22.7852ZM33.2742 36.1619H22.7852C20.8244 36.1619 19.2292 34.5772 19.2292 32.6293V22.2093C19.2292 20.2615 20.8244 18.6768 22.7852 18.6768H33.2742C35.2349 18.6768 36.8301 20.2615 36.8301 22.2093V32.6293C36.8301 34.5772 35.2349 36.1619 33.2742 36.1619Z" fill="#FF810B"/>
<path fill-rule="evenodd" clip-rule="evenodd" d="M15.6932 10.7235H12.9318V7.98028C12.9318 7.46781 12.5135 7.05273 11.9981 7.05273C11.4823 7.05273 11.0644 7.46781 11.0644 7.98028V10.7235H8.30307C7.78768 10.7235 7.36938 11.139 7.36938 11.651C7.36938 12.163 7.78768 12.5786 8.30307 12.5786H11.0644V15.3218C11.0644 15.8343 11.4823 16.2493 11.9981 16.2493C12.5135 16.2493 12.9318 15.8343 12.9318 15.3218V12.5786H15.6932C16.2086 12.5786 16.6269 12.163 16.6269 11.651C16.6269 11.139 16.2086 10.7235 15.6932 10.7235Z" fill="#FF810B"/>
<path fill-rule="evenodd" clip-rule="evenodd" d="M31.566 12.5785H24.1759C23.6605 12.5785 23.2422 12.1629 23.2422 11.6509C23.2422 11.1389 23.6605 10.7234 24.1759 10.7234H31.566C32.0814 10.7234 32.4997 11.1389 32.4997 11.6509C32.4997 12.1629 32.0814 12.5785 31.566 12.5785Z" fill="#FF810B"/>
<path fill-rule="evenodd" clip-rule="evenodd" d="M13.3184 27.4192L15.2712 25.4792C15.6358 25.1175 15.6358 24.5303 15.2712 24.1677C14.9066 23.8054 14.3151 23.8054 13.9505 24.1677L11.9981 26.1076L10.0453 24.1677C9.68121 23.8054 9.08925 23.8054 8.72511 24.1677C8.36051 24.5303 8.36051 25.1175 8.72511 25.4792L10.6779 27.4192L8.72511 29.3591C8.36051 29.7213 8.36051 30.3085 8.72511 30.6707C8.90718 30.8515 9.14621 30.9424 9.38523 30.9424C9.62425 30.9424 9.86328 30.8515 10.0453 30.6707L11.9981 28.7307L13.9505 30.6707C14.133 30.8515 14.372 30.9424 14.6111 30.9424C14.8496 30.9424 15.0886 30.8515 15.2712 30.6707C15.6358 30.3085 15.6358 29.7213 15.2712 29.3591L13.3184 27.4192Z" fill="#FF810B"/>
<path fill-rule="evenodd" clip-rule="evenodd" d="M31.566 26.0279H24.1759C23.6605 26.0279 23.2422 25.6124 23.2422 25.1004C23.2422 24.5884 23.6605 24.1729 24.1759 24.1729H31.566C32.0814 24.1729 32.4997 24.5884 32.4997 25.1004C32.4997 25.6124 32.0814 26.0279 31.566 26.0279Z" fill="#FF810B"/>
<path fill-rule="evenodd" clip-rule="evenodd" d="M31.566 30.6656H24.1759C23.6605 30.6656 23.2422 30.2501 23.2422 29.7381C23.2422 29.2261 23.6605 28.8105 24.1759 28.8105H31.566C32.0814 28.8105 32.4997 29.2261 32.4997 29.7381C32.4997 30.2501 32.0814 30.6656 31.566 30.6656Z" fill="#FF810B"/>
</g>
</svg>
