<svg width="56" height="51" viewBox="0 0 56 51" fill="none" xmlns="http://www.w3.org/2000/svg">
<path fill-rule="evenodd" clip-rule="evenodd" d="M7.53944 36.4784C7.53944 36.0653 7.38302 35.9064 7.13275 35.9064C6.88248 35.9064 6.4445 36.2877 6.13167 36.7326L6.94504 34.5719V34.5083L6.0691 34.6036V34.699L6.2568 34.8261C6.40138 34.9435 6.35887 35.061 6.25278 35.3542L6.22552 35.4298L5.31829 37.7176C5.30404 37.7538 5.28978 37.7884 5.2759 37.822L5.27588 37.8221L5.27587 37.8221C5.22882 37.9361 5.18602 38.0399 5.16187 38.1625C5.16187 38.3849 5.47471 38.6074 5.75626 38.6074C6.03782 38.6074 7.53944 37.3999 7.53944 36.4784ZM14.985 35.6522L15.9235 34.7625V34.6672H15.4229L14.8285 35.6522H14.985ZM15.0788 37.6541H15.2665C14.9537 38.2578 14.5157 38.6074 14.2029 38.6074C14.143 38.6074 14.0866 38.6167 14.0345 38.6253C13.8142 38.6616 13.671 38.6852 13.671 37.9401C13.671 37.0186 14.6721 35.9064 15.0475 35.9064C15.4229 35.9064 15.7358 36.1924 15.4855 36.8279L14.109 37.2728C14.109 37.322 14.1043 37.3427 14.0986 37.3679C14.0895 37.4079 14.0777 37.4594 14.0777 37.6541C14.0777 37.9719 14.2029 38.099 14.4219 38.099C14.7034 38.0672 14.9224 37.9083 15.0788 37.6541ZM14.7973 36.2877C14.985 36.2877 15.1414 36.4148 15.0475 36.7644L14.2029 36.9868C14.3593 36.5737 14.6096 36.2877 14.7973 36.2877ZM3.84795 40.1962L2.87816 40.8317H2.72174L3.25356 40.069H3.84795V40.1962ZM9.32261 44.3588L10.6991 40.7363H10.6365L9.79186 40.8317V40.927L9.94828 41.0541C10.1047 41.1812 10.0734 41.2765 9.917 41.6578L8.85335 44.4859C8.79078 44.613 8.85335 44.7719 8.97849 44.8036C8.99173 44.8036 8.99937 44.8036 9.00615 44.806C9.01538 44.8093 9.02302 44.8171 9.04105 44.8354C9.51031 44.7719 9.917 44.4541 10.0421 43.9775H9.917C9.79186 44.1999 9.57288 44.327 9.32261 44.3905V44.3588ZM12.232 41.1494C12.2007 41.3083 12.0756 41.4354 11.9192 41.4036H11.8566C11.7002 41.3719 11.575 41.2447 11.6063 41.0859C11.6063 40.8952 11.7315 40.7681 11.9192 40.7681C12.1069 40.7681 12.232 40.8952 12.232 41.0859V41.1494ZM15.2978 41.8485L16.2676 40.9588V40.8634H15.7358L15.1414 41.8485H15.2978ZM15.3917 43.8504H15.5794C15.2665 44.4541 14.8285 44.8036 14.5157 44.8036C14.2029 44.8036 14.0152 44.5812 14.0152 44.1363C14.0152 43.1831 14.985 42.1027 15.3604 42.1027C15.7358 42.1027 16.0486 42.3887 15.7983 43.0242L14.4531 43.469L14.4531 43.4691C14.4219 43.5962 14.3906 43.7233 14.3906 43.8504C14.3906 44.1681 14.5157 44.2952 14.7347 44.2952C15.0162 44.2634 15.2665 44.1046 15.3917 43.8504ZM15.1101 42.484C15.2978 42.484 15.4542 42.6111 15.3604 42.9606L14.5157 43.1513C14.6721 42.77 14.9224 42.484 15.1101 42.484ZM18.4575 47.5999C18.6452 47.5681 18.7703 47.441 18.7703 47.2504C18.7703 47.0915 18.6139 46.9326 18.4575 46.9326C18.2698 46.9326 18.1446 47.0597 18.1133 47.2504C18.1133 47.441 18.2698 47.5999 18.4575 47.5999ZM22.7746 47.155L21.8361 48.0448H21.6797L22.2741 47.0279H22.7746V47.155ZM22.0864 50.0466H21.93C21.711 50.269 21.492 50.4915 21.273 50.4915C21.054 50.4915 20.9289 50.3326 20.9289 50.0466C20.9289 49.9195 20.9289 49.7924 20.9602 49.6653L22.3054 49.2205C22.5869 48.5849 22.2741 48.299 21.8987 48.299C21.5233 48.299 20.5222 49.3793 20.5222 50.3326C20.5222 50.7457 20.7412 50.9999 21.0227 50.9999C21.3043 50.9999 21.7735 50.6186 22.0864 50.0466ZM21.6484 48.6485C21.8048 48.6485 21.9612 48.8074 21.8987 49.1569L21.054 49.3476C21.1791 48.9662 21.4294 48.6485 21.6484 48.6485ZM18.9267 48.6803H19.3647L18.6452 50.6504C18.5826 50.7775 18.6452 50.9363 18.7703 50.9681C18.7835 50.9681 18.7912 50.9681 18.798 50.9705C18.8072 50.9738 18.8148 50.9816 18.8329 50.9999C19.396 50.9046 19.8965 50.555 20.1468 50.0148H19.9904C19.7714 50.269 19.4898 50.4597 19.177 50.5233L19.8339 48.6803H20.4909L20.5848 48.3943H19.9278L20.1781 47.6952H19.9278L19.4585 48.3943L18.9267 48.4578V48.6803ZM18.1446 48.299C18.2385 48.299 18.3636 48.3943 18.301 48.5849L17.5189 50.555C17.7379 50.4597 17.9256 50.3326 18.0508 50.1419H18.1759C17.9882 50.6186 17.5502 50.9999 17.2061 50.9999H17.1748C17.0497 50.9681 16.9871 50.841 17.0184 50.7139L17.7692 48.7438C17.5502 48.8074 17.3625 48.9662 17.2374 49.1569H17.1123C17.2687 48.6803 17.6754 48.3625 18.1446 48.299ZM14.2342 50.9681C14.109 50.9046 14.0777 50.7457 14.1403 50.6186L14.6721 49.4111C14.8598 48.998 14.7347 48.6167 14.4844 48.6167C14.5783 48.4578 14.7347 48.3307 14.9224 48.299C15.1414 48.299 15.2352 48.5214 15.2352 48.7756V49.1569C15.6419 48.6803 15.986 48.299 16.2989 48.299H16.3615C16.5492 48.3307 16.7056 48.4896 16.6743 48.6803C16.6743 48.8391 16.6117 48.998 16.5492 49.1569L15.8609 50.555C16.0799 50.4597 16.2676 50.3326 16.3927 50.1419H16.5179C16.3615 50.5868 15.9548 50.9363 15.4855 50.9999C15.4542 50.9999 15.3917 50.9999 15.3604 50.9681C15.2665 50.9046 15.2352 50.7457 15.2978 50.6504L16.0799 49.0933C16.1737 48.9345 16.205 48.8074 16.0486 48.8074C15.7045 48.9027 15.3917 49.1251 15.1414 49.4111L14.6096 50.8092C14.547 50.9681 14.5157 50.9999 14.3593 50.9999C14.328 50.9999 14.2654 50.9999 14.2342 50.9681ZM14.1403 48.9027C14.2342 48.5849 14.1716 48.299 13.9526 48.299C13.7336 48.299 13.5772 48.5214 13.2956 49.1569V48.7756C13.2956 48.5214 13.2018 48.299 12.9828 48.299C12.7638 48.299 12.451 48.712 12.2633 49.1569H12.3884C12.5135 48.9662 12.6387 48.8391 12.7325 48.8391C12.8264 48.8391 12.9202 49.0298 12.7325 49.4429L12.2007 50.6186C12.1381 50.7457 12.1694 50.9046 12.2946 50.9681C12.3258 50.9999 12.3884 50.9999 12.4197 50.9999C12.5761 50.9999 12.6074 50.9681 12.67 50.8092L13.2018 49.4111C13.3269 49.2205 13.4833 49.0616 13.6397 48.9027L13.6398 48.9027L13.6398 48.9027H14.1403ZM11.4186 49.1569C11.4812 48.8074 11.3248 48.6485 11.1371 48.6485C10.9494 48.6485 10.6991 48.9662 10.574 49.3476L11.4186 49.1569ZM11.6063 50.0466H11.4499C11.2309 50.269 11.0119 50.4915 10.7929 50.4915C10.574 50.4915 10.4488 50.3326 10.4488 50.0466C10.4488 49.9195 10.4488 49.7924 10.4801 49.6653L11.8253 49.2205C12.1069 48.5849 11.794 48.299 11.4186 48.299C11.0432 48.299 10.0421 49.3793 10.0421 50.3326C10.0421 50.7457 10.2298 50.9999 10.5427 50.9999C10.8555 50.9999 11.2935 50.6186 11.6063 50.0466ZM8.88464 48.6803H8.44666V48.4578L8.97849 48.3943L9.44774 47.6952H9.69801L9.44774 48.3943H10.1047L10.0109 48.6803H9.35389L8.69693 50.5233C9.00977 50.4597 9.29132 50.269 9.51031 50.0148H9.63545C9.41646 50.555 8.91592 50.9363 8.35281 50.9999C8.33478 50.9816 8.32714 50.9738 8.31791 50.9705C8.31113 50.9681 8.30349 50.9681 8.29025 50.9681C8.16511 50.9363 8.10254 50.7775 8.16511 50.6504L8.88464 48.6803ZM5.97525 50.2055C5.97525 49.6018 6.63221 48.7756 7.00761 48.7756H7.2266L6.85119 49.8242C6.63221 50.1102 6.28809 50.4597 6.13167 50.4597C5.97525 50.4597 5.97525 50.3644 5.97525 50.2055ZM7.82099 48.1401H8.00869L7.35173 49.8242C7.16403 50.2055 7.25788 50.3962 7.35173 50.3962C7.44558 50.3962 7.57072 50.3008 7.69585 50.1102H7.82099C7.63329 50.5233 7.32045 50.9681 7.10146 50.9681C6.88248 50.9681 6.72606 50.7139 6.75734 50.2373V50.1102L6.72933 50.15L6.72932 50.15L6.72932 50.15C6.42764 50.5794 6.15452 50.9681 5.8814 50.9681H5.81883C5.59984 50.9363 5.44343 50.7775 5.47471 50.555C5.47471 49.6335 6.41322 48.3625 7.53944 48.3625H7.602L7.82099 48.1401ZM5.66241 48.8709C5.75626 48.5532 5.69369 48.2672 5.44342 48.2672C5.20759 48.2672 5.11065 48.4647 4.83847 49.0193L4.78647 49.1251V48.7438C4.78647 48.4896 4.7239 48.2672 4.47363 48.2672C4.22336 48.2672 3.97309 48.6803 3.78539 49.1251H3.91052C4.03566 48.9345 4.16079 48.8074 4.25464 48.8074C4.34849 48.8074 4.44235 48.998 4.25464 49.4111L3.72282 50.5868C3.62897 50.8092 3.72282 50.9681 3.94181 50.9681C4.12543 50.9681 4.13309 50.9458 4.16766 50.8449L4.16767 50.8449C4.17432 50.8254 4.18198 50.8031 4.19208 50.7775L4.69262 49.3793C4.81775 49.1887 4.97417 49.0298 5.16187 48.8709H5.66241ZM1.97093 50.7139L1.90836 50.841L0.0626221 50.8728V50.7457C0.688297 50.6186 0.782148 50.5868 1.03242 49.8877L1.59553 48.2672C1.8458 47.5999 1.81451 47.5363 1.28269 47.441V47.2821H3.97309L3.84795 48.0765H3.66025C3.66025 47.6317 3.59768 47.5046 3.15971 47.5046H2.84687C2.4089 47.5046 2.31505 47.5681 2.2212 47.8859L1.8458 48.9345H2.53404C2.90944 48.9345 3.03458 48.7438 3.191 48.4578H3.3787L2.94073 49.6335H2.75302C2.81559 49.284 2.78431 49.1569 2.47147 49.1569H1.75194L1.50167 49.856C1.25523 50.5756 1.31213 50.5866 1.94124 50.7082L1.97093 50.7139ZM12.8264 42.484H12.3884V42.2933L12.9515 42.198L13.3895 41.499H13.671L13.4208 42.198H14.0465L13.9839 42.484H13.2956L12.67 44.3588C12.9828 44.2634 13.2644 44.0728 13.4833 43.8504H13.6085C13.3582 44.3588 12.889 44.7401 12.3258 44.8036C12.1381 44.8036 12.0756 44.6447 12.1381 44.4541L12.8264 42.484ZM11.794 42.3887C11.8253 42.198 11.7315 42.1027 11.6376 42.1027C11.1371 42.1662 10.7304 42.484 10.574 42.9606H10.6991C10.8242 42.7382 11.0432 42.6111 11.2622 42.5476L10.5114 44.5176C10.4488 44.7083 10.574 44.8036 10.6678 44.8036C11.1371 44.7401 11.5125 44.3905 11.6689 43.9457H11.5438C11.4186 44.1681 11.1996 44.2952 10.9806 44.3588L11.794 42.3887ZM7.78971 42.6111C7.4143 42.6111 6.75734 43.4373 6.75734 44.0728V44.041C6.75734 44.0762 6.75427 44.1083 6.75153 44.1369C6.7419 44.2375 6.73637 44.2952 6.88248 44.2952C7.07018 44.2952 7.4143 43.9457 7.63329 43.6915L8.00869 42.6111H7.78971ZM8.79078 42.0074H8.60308L8.35281 42.2298H8.32153C7.19531 42.2298 6.2568 43.5008 6.2568 44.4223C6.22552 44.6447 6.38194 44.8036 6.60092 44.8354H6.63221C6.93657 44.8354 7.21132 44.4444 7.51407 44.0135L7.53944 43.9775V44.1363C7.50815 44.5812 7.63329 44.8354 7.88356 44.8354C8.13383 44.8354 8.3841 44.3905 8.60308 43.9775H8.47795C8.32153 44.1681 8.19639 44.2952 8.10254 44.2952C8.00869 44.2952 7.94612 44.1046 8.10254 43.6915L8.79078 42.0074ZM4.44235 44.7083C4.09822 44.8672 3.84795 45.0261 3.84795 45.2803C3.84795 45.5345 4.00437 45.6298 4.5362 45.6298C5.06802 45.6298 5.47471 45.3438 5.47471 45.2167C5.47471 45.0896 5.34957 45.0261 4.97417 44.899L4.44235 44.7083ZM4.84903 43.6915C4.69262 43.6915 4.63005 43.5326 4.63005 43.3737C4.63005 43.2148 4.84903 42.2933 5.22444 42.2933C5.50676 42.2933 5.4883 42.3652 5.46178 42.4685C5.45304 42.5025 5.44343 42.5399 5.44343 42.5793C5.44343 42.7382 5.22444 43.6915 4.84903 43.6915ZM5.16187 44.4541C5.63113 44.613 5.91268 44.7083 5.91268 45.0261C5.91268 45.4391 4.78647 45.9476 4.25464 45.9476C3.72282 45.9476 3.28485 45.7887 3.28485 45.4391C3.28485 45.0896 3.59768 44.8672 4.31721 44.6447C4.22336 44.5812 4.19208 44.4541 4.19208 44.3588C4.19208 44.1681 4.34849 44.0092 4.66133 43.8504C4.34849 43.7868 4.12951 43.5326 4.16079 43.2148C4.19208 42.6111 4.69262 42.1027 5.28701 42.1027L5.63113 42.198H6.47579L6.38194 42.484H5.85011C5.8814 42.5793 5.91268 42.6747 5.91268 42.77C5.8814 43.3737 5.44342 43.8504 4.84903 43.8821C4.69262 43.9139 4.59876 44.041 4.59876 44.1999C4.59876 44.2871 4.64291 44.2995 4.82204 44.35L4.82205 44.35C4.9041 44.3731 5.01446 44.4042 5.16187 44.4541ZM2.50275 42.9289C2.81559 42.9289 2.81559 43.056 2.78431 43.4055H2.97201L3.3787 42.2298H3.191L3.17604 42.2541C3.02633 42.498 2.89841 42.7064 2.56532 42.7064H1.8458L2.2212 41.7214C2.31505 41.3719 2.4089 41.3083 2.84687 41.3083H3.15971C3.59768 41.3083 3.66025 41.4354 3.66025 41.912H3.84795L3.97309 41.0859H1.28269V41.2447C1.81451 41.3401 1.8458 41.4036 1.59553 42.0709L1.03242 43.6915C0.782148 44.3905 0.688297 44.4541 0.0626221 44.5494V44.7083H3.00329L3.53512 43.8504H3.31613C2.97201 44.2317 2.47147 44.4541 1.93965 44.4859C1.20517 44.4859 1.21563 44.4578 1.45283 43.8228C1.4682 43.7816 1.48453 43.7379 1.50167 43.6915L1.78323 42.9289H2.50275ZM12.5448 36.2877H12.2007V36.0971L12.6387 36.0335L13.1079 35.3027H13.3582L13.1392 36.0335H13.7649L13.7023 36.2877H13.0141L12.3571 38.1625C12.67 38.0672 12.9828 37.9083 13.2018 37.6541H13.3269C13.0767 38.1625 12.6074 38.512 12.0443 38.6074C11.9817 38.6074 11.9504 38.6074 11.9192 38.5756C11.8253 38.5438 11.7627 38.3849 11.8253 38.2896L12.5448 36.2877ZM11.8566 36.5102C11.9504 36.1924 11.8879 35.9064 11.6376 35.9064C11.3972 35.9064 11.3011 36.1116 11.0167 36.7192L10.9806 36.7962V36.4148C10.9806 36.1606 10.9181 35.9064 10.6678 35.9064C10.4175 35.9064 10.136 36.3513 9.94828 36.7644H10.0734C10.2298 36.5737 10.355 36.4784 10.4488 36.4784C10.5427 36.4784 10.6052 36.6373 10.4488 37.0504L9.917 38.2578C9.82315 38.4803 9.917 38.6074 10.136 38.6074C10.2611 38.6391 10.355 38.5438 10.3863 38.4485L10.8868 37.0504L11.3248 36.5102H11.8566ZM9.10362 36.7644C9.19747 36.4148 9.04105 36.2877 8.85335 36.2877C8.66565 36.2877 8.41538 36.5737 8.25896 36.9868L9.10362 36.7644ZM9.32261 37.6541H9.13491C9.00977 37.9083 8.7595 38.0672 8.47795 38.099C8.25896 38.099 8.13383 37.9719 8.13383 37.6541C8.13383 37.527 8.16511 37.3999 8.19639 37.2728L9.54159 36.8279C9.79186 36.1924 9.47903 35.9064 9.10362 35.9064C8.72822 35.9064 7.75842 37.0186 7.75842 37.9401C7.75842 38.6826 7.8803 38.6618 8.09131 38.6257C8.14217 38.617 8.19821 38.6074 8.25896 38.6074C8.5718 38.6074 9.00977 38.2578 9.32261 37.6541ZM5.69369 37.9719C5.69369 38.099 5.8814 38.2261 6.00653 38.2261C6.53836 38.2261 7.0389 36.8915 7.0389 36.7008C7.0389 36.5102 7.00761 36.4148 6.81991 36.4148C6.63221 36.4148 6.2568 36.7326 6.03782 37.0186L5.81883 37.5905C5.79493 37.6634 5.77103 37.7176 5.75062 37.764C5.71759 37.839 5.69369 37.8933 5.69369 37.9719ZM4.81775 35.9382C4.9116 35.97 4.94288 36.0971 4.88032 36.1924L4.09822 38.1625C4.31721 38.099 4.50491 37.9401 4.63005 37.7494H4.75518C4.63005 38.1943 4.25464 38.5438 3.78539 38.6074H3.7541C3.62897 38.5756 3.5664 38.4485 3.59768 38.3214L4.34849 36.3513C4.12951 36.4466 3.94181 36.5737 3.81667 36.7644H3.69154C3.84795 36.3195 4.25464 35.97 4.7239 35.9064C4.73954 35.9064 4.75518 35.9144 4.77082 35.9223C4.78647 35.9303 4.80211 35.9382 4.81775 35.9382ZM5.03674 35.2074C5.22444 35.2074 5.34957 35.0803 5.34957 34.8896C5.34957 34.699 5.22444 34.5719 5.03674 34.5719C4.84903 34.5719 4.7239 34.699 4.7239 34.8896C4.7239 35.0803 4.84903 35.2074 5.03674 35.2074ZM1.28269 34.8896H3.06586L3.00329 35.0485C2.4089 35.1756 2.31505 35.2074 2.06478 35.9064L1.50167 37.527C1.47519 37.601 1.45046 37.6678 1.42811 37.7282C1.23925 38.2388 1.22045 38.2896 1.75194 38.2896C2.32785 38.2896 2.72755 37.8422 3.03641 37.4964C3.04632 37.4853 3.05613 37.4743 3.06586 37.4634H3.28485L2.69046 38.512H0.0626221V38.3532C0.688297 38.2578 0.782148 38.1943 1.03242 37.527L1.59553 35.9064C1.8458 35.2074 1.78323 35.1756 1.28269 35.0485V34.8896Z" fill="black"/>
<path fill-rule="evenodd" clip-rule="evenodd" d="M0 13.5367V20.0825H1.31392V17.4451H1.97088L3.69148 20.0825H5.25567L3.25351 17.1909C3.56635 17.032 3.81662 16.8096 4.00432 16.5236C4.19202 16.2058 4.28587 15.8563 4.28587 15.475C4.31716 14.9348 4.06689 14.3946 3.6602 14.0451C3.15966 13.6638 2.56527 13.5049 1.97088 13.5367H0ZM1.31392 14.6488H2.03344C2.28371 14.6488 2.5027 14.7124 2.6904 14.8712C2.84682 15.0301 2.94067 15.2526 2.94067 15.475C2.94067 15.6974 2.84682 15.9198 2.6904 16.0787C2.5027 16.2376 2.28371 16.3329 2.03344 16.3012H1.31392V14.6488Z" fill="black"/>
<path fill-rule="evenodd" clip-rule="evenodd" d="M7.35172 12.9644H8.54051L9.76057 11.6934H8.38409L7.35172 12.9644ZM6.06909 13.5364V20.0821H9.85442V18.9382H7.38301V17.3177H9.47902V16.1737H7.38301V14.6485H9.85442V13.5364H6.06909Z" fill="black"/>
<path fill-rule="evenodd" clip-rule="evenodd" d="M11.356 13.5366V20.0824H12.6699V17.445H13.5145C14.1089 17.4768 14.7033 17.2862 15.1726 16.9049C15.2162 16.8827 15.2446 16.8451 15.2684 16.8136C15.2788 16.7999 15.2882 16.7874 15.2977 16.7778C16.0172 15.9834 15.9547 14.7759 15.1726 14.045C14.7033 13.6955 14.1089 13.5049 13.5145 13.5366H11.356ZM12.6699 14.6488H13.5458C13.7961 14.6488 14.0151 14.7123 14.2028 14.8712C14.3592 15.0301 14.453 15.2525 14.453 15.4749C14.453 15.6974 14.3592 15.9198 14.2028 16.0787C14.0151 16.2376 13.7961 16.3329 13.5458 16.3011H12.6699V14.6488Z" fill="black"/>
<path d="M20.6786 17.6357V13.5366H21.9925V17.5086C22.0238 18.2712 21.7735 18.9703 21.273 19.5422C20.178 20.5273 18.5513 20.5273 17.4564 19.5422C16.9871 18.9703 16.7368 18.2394 16.7681 17.5086V13.5366H18.082V17.6357C18.0508 18.017 18.1759 18.3665 18.4262 18.6525C18.6764 18.9067 19.0205 19.0656 19.3647 19.0338C19.7401 19.0656 20.0842 18.9067 20.3345 18.6525C20.5847 18.3665 20.7099 18.017 20.6786 17.6357Z" fill="black"/>
<path fill-rule="evenodd" clip-rule="evenodd" d="M23.6193 20.0825V13.5367H25.465C26.0281 13.5049 26.5912 13.6638 27.0292 14.0133C27.4359 14.3311 27.6549 14.8077 27.6236 15.3161C27.6236 15.5703 27.561 15.8245 27.4359 16.047C27.3107 16.2694 27.1543 16.4601 26.9353 16.5872C27.2482 16.7143 27.5297 16.9685 27.7174 17.2544C27.9051 17.5086 27.999 17.8264 27.999 18.1442C28.0303 18.7161 27.78 19.2245 27.342 19.5741C26.8415 19.9554 26.2158 20.1143 25.5901 20.0825H23.6193ZM25.465 14.6488H24.9332V16.1105H25.465C25.684 16.1105 25.903 16.047 26.0594 15.9199C26.3409 15.6339 26.3409 15.1255 26.0594 14.8395C25.903 14.7124 25.684 14.6488 25.465 14.6488ZM24.9332 17.2544H25.6527C25.903 17.2227 26.1532 17.318 26.3722 17.4451C26.5599 17.604 26.6538 17.8264 26.6538 18.0806C26.6538 18.3348 26.5599 18.5572 26.3722 18.7161C26.1845 18.875 25.903 18.9703 25.6527 18.9386H24.9332V17.2544Z" fill="black"/>
<path d="M29.3129 20.0824V13.5366H30.6268V18.8749H33.0982V20.0824H29.3129Z" fill="black"/>
<path d="M34.2557 20.0824V13.5366H35.5697V20.0824H34.2557Z" fill="black"/>
<path fill-rule="evenodd" clip-rule="evenodd" d="M43.4844 20.3999C43.2341 20.2728 42.9838 20.114 42.7961 19.9233L42.3894 19.5102C42.7961 19.1925 43.109 18.7794 43.3279 18.3028C43.5469 17.8261 43.6721 17.3177 43.6721 16.7775C43.6721 15.856 43.3279 14.9981 42.7335 14.3308C42.4207 14.013 42.0453 13.7906 41.6386 13.5999C41.2006 13.4093 40.7001 13.314 40.2309 13.314C39.7616 13.314 39.2923 13.4093 38.8544 13.5999C38.4477 13.7588 38.0723 14.013 37.7594 14.3308C37.165 14.9981 36.8209 15.856 36.8209 16.7775C36.8209 17.699 37.165 18.557 37.7594 19.2242C38.0723 19.542 38.4477 19.7644 38.8544 19.9551C39.2923 20.1457 39.7616 20.2411 40.2309 20.2411H40.7001L41.1381 20.1775L41.8889 20.8448C42.2017 21.1308 42.5146 21.3532 42.89 21.5121C43.2028 21.6392 43.5782 21.7345 43.9223 21.7345H44.2977L44.6106 21.6392V20.4953L44.3603 20.5588H44.1413C43.9223 20.5588 43.7033 20.4953 43.4844 20.3999ZM41.7325 18.3981C41.3258 18.7794 40.794 19.0336 40.2309 19.0336C39.9493 19.0336 39.6677 18.97 39.4175 18.8429C39.1672 18.7476 38.9482 18.6205 38.7605 18.3981C38.5728 18.2074 38.4164 17.9532 38.3225 17.699C38.1036 17.127 38.1036 16.4915 38.3225 15.9196C38.4164 15.6654 38.5728 15.4112 38.7605 15.2205C38.9482 14.9981 39.1672 14.8392 39.4175 14.7439C39.6677 14.6485 39.9493 14.585 40.2309 14.585C40.5124 14.585 40.794 14.6485 41.0755 14.7439C41.3258 14.871 41.5448 15.0299 41.7325 15.2205C41.9202 15.4429 42.0766 15.6654 42.1704 15.9196C42.3894 16.4915 42.3894 17.127 42.1704 17.699C42.0453 17.9532 41.9202 18.1756 41.7325 18.3981Z" fill="black"/>
<path d="M48.74 17.6357V13.5366H50.0539V17.5086C50.0852 18.2712 49.8349 18.9703 49.3344 19.5422C48.2395 20.5273 46.6127 20.5273 45.5178 19.5422C45.0173 18.9703 44.767 18.2712 44.7983 17.5086V13.5366H46.1122V17.6357C46.0809 18.017 46.2373 18.3983 46.4876 18.6525C46.7379 18.9067 47.082 19.0656 47.4261 19.0338C47.8015 19.0656 48.1456 18.9067 48.3959 18.6525C48.6462 18.3665 48.7713 18.017 48.74 17.6357Z" fill="black"/>
<path d="M51.6808 20.0824V13.5366H55.4348V14.6488H52.9947V16.174H55.0594V17.3179H52.9947V18.9385H55.4348V20.0824H51.6808Z" fill="black"/>
<path d="M0 29.9965V23.4507H3.75405V24.5628H1.31392V26.0881H3.40993V27.232H1.31392V29.9965H0Z" fill="black"/>
<path fill-rule="evenodd" clip-rule="evenodd" d="M4.9115 23.4502V29.996H6.22542V27.3587H6.91366L8.63426 29.996H10.1985L8.16501 27.1044C8.47784 26.9456 8.72811 26.7231 8.91582 26.4372C9.10352 26.1194 9.19737 25.7699 9.19737 25.3886C9.22865 24.8484 8.97838 24.3082 8.5717 23.9587C8.07116 23.5773 7.47677 23.4185 6.88237 23.4502H4.9115ZM6.22542 24.5624H6.97623C7.19521 24.5624 7.4142 24.6259 7.6019 24.7848C7.75832 24.9437 7.85217 25.1661 7.85217 25.3886C7.85217 25.611 7.75832 25.8334 7.6019 25.9923C7.44548 26.1512 7.19521 26.2465 6.97623 26.2147H6.22542V24.5624Z" fill="black"/>
<path fill-rule="evenodd" clip-rule="evenodd" d="M12.9202 23.4507L10.4801 29.9965H11.8566L12.4823 28.2806H15.0475L15.6732 29.9965H17.081L14.6408 23.4507H12.9202ZM13.7649 24.6899L14.6408 27.1684H12.889L13.7649 24.6899Z" fill="black"/>
<path d="M18.082 29.9965V23.4507H19.7401L22.6495 28.1217V23.4507H23.9634V29.9965H22.2741L19.3647 25.2937V29.9965H18.082Z" fill="black"/>
<path d="M28.6246 28.9476C28.9688 28.9476 29.3129 28.8523 29.6257 28.6934C29.9073 28.5345 30.1263 28.3121 30.314 28.0579L31.3463 28.8523C31.0961 29.2018 30.7832 29.4878 30.4078 29.7102C30.0324 29.9327 29.5944 30.0915 29.1565 30.1551L28.3431 31.5214H27.1856L27.999 30.1233C27.5923 30.0598 27.1856 29.9327 26.8415 29.7102C26.5286 29.4878 26.2158 29.2336 25.9655 28.9476C25.7153 28.6299 25.5276 28.2803 25.4024 27.899C25.2773 27.5177 25.2147 27.1364 25.2147 26.7233C25.2147 25.8018 25.5588 24.9439 26.1532 24.2766C26.4661 23.9588 26.8415 23.7046 27.2482 23.5457C27.6861 23.3551 28.1554 23.2598 28.6246 23.2598C29.1878 23.2598 29.7196 23.3869 30.2201 23.6093C30.6581 23.8317 31.0648 24.1813 31.3463 24.5943L30.314 25.3887C30.1263 25.1345 29.9073 24.9121 29.6257 24.7532C29.3129 24.5943 28.9688 24.499 28.6246 24.499C28.3431 24.499 28.0615 24.5626 27.8113 24.6579C27.561 24.785 27.3107 24.9439 27.123 25.1345C26.9666 25.357 26.8102 25.5794 26.7163 25.8336C26.4974 26.4056 26.4974 27.0411 26.7163 27.613C26.8102 27.8672 26.9666 28.0897 27.123 28.3121C27.3107 28.5028 27.561 28.6616 27.8113 28.757C28.0615 28.8841 28.3431 28.9476 28.6246 28.9476Z" fill="black"/>
<path fill-rule="evenodd" clip-rule="evenodd" d="M34.0679 23.4507L31.6278 29.9965H33.0356L33.6613 28.2806H36.2265L36.8522 29.9965H38.2287L35.7885 23.4507H34.0679ZM35.8198 27.1684H34.0679L34.9439 24.6899L35.8198 27.1684Z" fill="black"/>
<path d="M39.2299 29.9965V23.4507H40.5438V29.9965H39.2299Z" fill="black"/>
<path d="M41.7638 29.1065L42.7336 28.2168C42.9213 28.4392 43.1403 28.6299 43.3905 28.7887C43.6095 28.9476 43.8911 29.0112 44.1726 29.0112C44.3916 29.0112 44.6106 28.9476 44.767 28.8205C44.9235 28.6616 44.986 28.471 44.986 28.2486C44.986 27.9626 44.7983 27.6766 44.5168 27.5813L43.5157 27.0728C43.1403 26.914 42.7962 26.6598 42.4833 26.4056C42.1705 26.056 42.0141 25.6112 42.0453 25.1663C42.0453 24.9121 42.0766 24.6579 42.2018 24.4355C42.2956 24.1813 42.4208 23.9906 42.6085 23.8C42.7962 23.6411 43.0151 23.514 43.2654 23.4186C43.5157 23.2915 43.8285 23.2598 44.1101 23.2598C44.548 23.2598 44.986 23.3551 45.3927 23.5457C45.7681 23.7682 46.0809 24.0224 46.3625 24.3719L45.3927 25.2299C45.2363 25.0074 45.0173 24.785 44.7983 24.6261C44.5793 24.499 44.3603 24.4037 44.1101 24.4037C43.9224 24.4037 43.7034 24.4672 43.5783 24.6261C43.4218 24.7532 43.3593 24.9121 43.3593 25.1028C43.3593 25.3887 43.547 25.6747 43.8285 25.77L44.8296 26.2785C45.205 26.4373 45.5491 26.6915 45.862 26.9775C46.1748 27.2953 46.3625 27.7401 46.3312 28.2168C46.2999 28.5028 46.2374 28.7887 46.1435 29.0429C46.0184 29.2654 45.862 29.4878 45.6743 29.6785C45.4866 29.8373 45.2676 29.9644 45.0173 30.0598C44.7357 30.1551 44.4542 30.1869 44.1726 30.1869C43.7034 30.1869 43.2341 30.0915 42.7962 29.9009C42.3895 29.7102 42.0453 29.4243 41.7638 29.1065Z" fill="black"/>
<path d="M47.7076 29.9965V23.4507H51.4617V24.5628H48.9903V26.0881H51.0863V27.232H48.9903V28.8526H51.4617V29.9965H47.7076Z" fill="black"/>
<path fill-rule="evenodd" clip-rule="evenodd" d="M10.0734 7.94393L10.355 7.65794C10.5114 7.46729 10.7304 7.24486 10.9181 7.08598L11.1058 6.9271C11.1371 6.89533 11.1371 6.89533 11.1371 6.86355L10.9181 6.99065C10.9181 6.99065 10.8868 6.99065 10.9181 6.95888L11.0745 6.83178H11.0432C10.8242 6.83178 10.6365 6.9271 10.5114 7.08598H10.4488C10.3237 7.13365 10.2142 7.21308 10.1047 7.29252C9.99519 7.37196 9.8857 7.4514 9.76057 7.49907L9.44773 7.62617C9.32259 7.65794 9.16618 7.65794 9.04104 7.62617L8.41537 7.75327L8.10253 7.88037H8.07124C8.07124 7.89634 8.07124 7.90429 8.06727 7.90824C8.06334 7.91215 8.05552 7.91215 8.03996 7.91215L7.94611 8.00748C7.85226 8.07103 7.75841 8.13458 7.66456 8.22991H7.63327L7.35172 8.51589H7.32044C7.33977 8.51589 7.34715 8.50375 7.35736 8.48698C7.36367 8.47661 7.37105 8.46447 7.383 8.45234C7.383 8.43879 7.383 8.43101 7.38543 8.42409C7.38869 8.41478 7.39634 8.40701 7.41429 8.38879C7.44557 8.35701 7.47685 8.29346 7.47685 8.26168L7.75841 8.07103C7.74285 8.07103 7.73503 8.07103 7.7311 8.06712C7.72712 8.06317 7.72712 8.05522 7.72712 8.03925H7.69584L7.82098 7.95452L7.63327 8.03925H7.60199C7.60199 8.03925 7.60199 8.07103 7.5707 8.03925L7.66456 7.94393H7.69584C8.02377 7.68921 8.43496 7.6278 8.84873 7.56601C9.106 7.52759 9.36427 7.48902 9.60415 7.40374L9.76057 7.30841C9.78251 7.29727 9.80445 7.27831 9.82909 7.25702L9.82909 7.25701L9.82911 7.257L9.82911 7.257C9.87473 7.21758 9.9296 7.17016 10.0108 7.14953C10.136 7.05421 10.2298 6.89533 10.2924 6.73645H10.2611C10.0421 6.83178 9.79185 6.89533 9.54158 6.89533C9.22596 7.0119 8.85771 7.07502 8.50923 7.08467C8.51008 7.05333 8.54093 7.02199 8.57178 6.99065H8.63435C8.63435 6.97468 8.63435 6.96674 8.63832 6.96279C8.64225 6.95888 8.65008 6.95888 8.66564 6.95888H8.7282C8.6979 6.9281 8.66026 6.94204 8.61883 6.95739C8.57473 6.97372 8.52633 6.99165 8.47793 6.95888C8.41368 6.91537 8.45207 6.90165 8.49272 6.88712C8.51144 6.88043 8.53064 6.87357 8.5405 6.86355H8.60307C8.60307 6.83178 8.60307 6.83178 8.63435 6.8C8.74523 6.72961 8.85611 6.67169 8.96427 6.6152C9.10024 6.54418 9.23191 6.4754 9.35388 6.38692C9.37778 6.36958 9.39571 6.35678 9.40862 6.3477C9.36051 6.37868 9.26259 6.43588 9.22874 6.41869C9.16618 6.38692 9.22874 6.35514 9.26003 6.35514C9.44773 6.29159 9.63543 6.22804 9.79185 6.13271C9.771 6.13271 9.75014 6.13977 9.72929 6.14683L9.72928 6.14683C9.68757 6.16096 9.64586 6.17508 9.60415 6.13271H9.698V6.06916C9.698 6.03738 9.698 6.03738 9.72928 6.03738H9.698L9.79185 5.97383H9.76057C9.82313 5.91028 9.8857 5.8785 9.97955 5.8785C9.96391 5.86262 9.94045 5.86262 9.9209 5.86262C9.90134 5.86262 9.8857 5.86262 9.8857 5.84673C9.8857 5.81495 9.91699 5.81495 9.94827 5.81495H9.8857C9.85442 5.81495 9.85442 5.81495 9.85442 5.78318C9.85442 5.76721 9.85442 5.75926 9.85839 5.75531C9.86232 5.7514 9.87014 5.7514 9.8857 5.7514C9.94827 5.6243 10.0108 5.46542 10.0421 5.33832H10.0108C9.82313 5.4972 9.57286 5.6243 9.32259 5.68785H9.22874C9.13489 5.71963 9.04104 5.71963 8.94719 5.65608L8.79077 5.52897L8.3528 5.30654C7.94611 5.14766 7.50814 5.02056 7.07017 4.98879C7.25787 4.92523 7.47685 4.86168 7.66456 4.82991C7.94611 4.7028 8.22766 4.67103 8.50922 4.67103C8.46422 4.64817 8.41922 4.65819 8.38586 4.66562C8.37283 4.66852 8.36158 4.67103 8.3528 4.67103C8.10253 4.67103 7.85226 4.7028 7.63327 4.76636L7.13273 4.89346C7.0955 4.90606 7.06319 4.93367 7.0319 4.96041C6.98431 5.00108 6.93908 5.03973 6.88246 5.02056V4.95701C7.03888 4.73458 7.25787 4.5757 7.50814 4.54393C7.78969 4.51215 8.10253 4.51215 8.38408 4.5757L9.04104 4.7028C9.07544 4.7028 9.10039 4.74123 9.12627 4.78111C9.14747 4.81376 9.16929 4.84738 9.19746 4.86168C9.22338 4.87484 9.26003 4.8771 9.30297 4.87975C9.36369 4.88349 9.43699 4.88801 9.5103 4.92523C9.57894 4.9601 9.56286 4.93758 9.53951 4.90491C9.5203 4.87802 9.49617 4.84425 9.5103 4.82991C9.52594 4.81402 9.55722 4.81402 9.59633 4.81402C9.63543 4.81402 9.68236 4.81402 9.72928 4.79813C9.78915 4.77786 9.72171 4.69293 9.64879 4.6011C9.6074 4.54897 9.56423 4.49462 9.54158 4.4486C9.66672 4.5757 9.79185 4.67103 9.94827 4.76636C10.0421 4.82991 10.2298 4.86168 10.1985 4.76636C10.1047 4.5757 9.97955 4.41682 9.82313 4.25794V4.19439H9.76057V4.03551C9.72928 4.01963 9.72146 3.99579 9.71364 3.97196C9.70582 3.94813 9.698 3.9243 9.66672 3.90841C9.63125 3.8904 9.63599 3.82135 9.64105 3.74755C9.64492 3.69114 9.64898 3.63195 9.63543 3.59065C9.60415 3.49533 9.57286 3.4 9.57286 3.30467C9.56312 3.26014 9.55338 3.21638 9.54375 3.17315C9.49157 2.93875 9.44286 2.71995 9.41645 2.4785C9.39207 2.23094 9.51961 2.02195 9.65112 1.80646C9.68841 1.74536 9.72601 1.68374 9.76057 1.62056C9.85442 1.39813 10.0108 1.20748 10.2298 1.08037C10.2924 0.88972 10.3862 0.699065 10.5427 0.540187C10.6678 0.381308 10.8555 0.254206 11.0432 0.190654L11.5125 0H14.8598L14.9224 0.0635514L15.1727 0.190654C15.2978 0.254206 15.3916 0.349533 15.4855 0.44486C15.4904 0.45492 15.4962 0.465777 15.5022 0.477178C15.5342 0.537797 15.5744 0.613799 15.5481 0.66729C15.5386 0.686531 15.5291 0.714512 15.5188 0.745057C15.495 0.815398 15.4665 0.89934 15.4229 0.921495C15.2978 0.985047 15.1727 0.985047 15.0475 0.985047L14.8598 0.921495C15.1101 1.01682 15.3604 1.1757 15.5168 1.39813L15.6732 1.46168C15.6419 1.49346 15.6106 1.52523 15.6419 1.55701H15.6732C15.712 1.54387 15.7294 1.50899 15.7453 1.4771C15.7679 1.43187 15.7875 1.39264 15.8609 1.42991C15.9547 1.46168 15.986 1.55701 15.9547 1.62056C15.9547 1.63645 15.9469 1.64439 15.9391 1.65234C15.9313 1.66028 15.9235 1.66822 15.9235 1.68411L15.7358 1.84299C15.7045 1.87477 15.7045 1.93832 15.7358 1.97009L15.8296 2.16075L15.9235 2.54206C16.0173 2.79626 16.0486 3.05047 16.0486 3.30467C16.0486 3.35551 16.0386 3.40636 16.0286 3.4572C16.0136 3.53346 15.9985 3.60972 16.0173 3.68598L16.205 4.06729C16.2989 4.13084 16.3614 4.22617 16.3927 4.3215C16.4137 4.35694 16.4393 4.39397 16.4657 4.43223C16.5579 4.56545 16.6603 4.71356 16.6117 4.86168C16.574 4.9767 16.4907 4.98764 16.4031 4.99914C16.3454 5.00671 16.2859 5.01452 16.2363 5.05234C16.1112 5.14766 16.2363 5.27477 16.2989 5.33832C16.3614 5.40187 16.1737 5.59252 16.0799 5.65608C16.0236 5.69421 16.0686 5.69802 16.1137 5.70183C16.1437 5.70437 16.1737 5.70692 16.1737 5.71963C16.1737 5.72901 16.1846 5.74394 16.1984 5.76277C16.2313 5.80771 16.2804 5.87488 16.2363 5.94206C16.2177 5.97039 16.1853 5.99592 16.1522 6.02198C16.0739 6.08359 15.9919 6.14816 16.0799 6.25981C16.1741 6.3795 16.1264 6.46312 16.0837 6.53784L16.0837 6.53785L16.0837 6.53789L16.0837 6.53792C16.0697 6.56236 16.0563 6.58585 16.0486 6.60935C15.986 6.73645 15.8922 6.83178 15.7358 6.86355C15.6419 6.9271 15.5168 6.9271 15.4229 6.89533H15.3291C15.0475 6.83178 14.766 6.8 14.4844 6.76822L14.2341 6.83178L14.0464 7.02243H13.9526L13.8275 7.21308C13.8275 7.22905 13.8275 7.237 13.8235 7.24095C13.8196 7.24486 13.8117 7.24486 13.7962 7.24486L13.671 7.56262C13.5772 7.94393 13.6085 8.29346 13.7023 8.35701C13.74 8.38252 13.8381 8.41827 13.9644 8.46425C14.1527 8.53283 14.4036 8.62419 14.6095 8.73832L15.0162 8.92897H8.13381C8.47793 8.70654 8.85334 8.51589 9.22874 8.35701C9.54158 8.22991 9.82313 8.07103 10.0734 7.8486V7.94393ZM8.50923 7.08467L8.50922 7.08598H8.41537C8.44646 7.08598 8.47777 7.08555 8.50923 7.08467ZM7.64491 8.07805C7.65163 8.06552 7.65807 8.05242 7.66452 8.03932L7.66453 8.0393L7.66454 8.03929L7.66455 8.03927L7.66456 8.03925H7.69584L7.64491 8.07805ZM7.64491 8.07805C7.61902 8.12634 7.58907 8.16636 7.53942 8.16636C7.53942 8.15038 7.53942 8.14244 7.54339 8.13849C7.54732 8.13458 7.55514 8.13458 7.5707 8.13458L7.64491 8.07805ZM7.50814 6.64112C7.49771 6.64112 7.48381 6.64465 7.4699 6.64818C7.44209 6.65524 7.41429 6.66231 7.41429 6.64112C7.41429 6.60935 7.53942 6.54579 7.63327 6.51402C7.6802 6.49813 7.69584 6.48224 7.70366 6.4743C7.70669 6.47122 7.70854 6.46934 7.71059 6.46911C7.71383 6.46874 7.71754 6.4725 7.72712 6.48224L7.85226 6.54579C7.78925 6.60979 7.71214 6.6165 7.6304 6.62362H7.63039C7.59038 6.6271 7.54926 6.63068 7.50814 6.64112ZM5.47469 5.40187C5.31828 5.71963 5.13057 6.00561 4.94287 6.25981V6.35514C5.30377 5.92747 5.72249 5.55854 6.17124 5.22011C6.18521 5.22026 6.21173 5.21775 6.25679 5.21122C6.43283 5.18567 6.48757 5.07798 6.56728 4.92117C6.58672 4.88292 6.60765 4.84175 6.63219 4.79813C6.7037 4.67103 6.81606 4.58543 6.92843 4.49983C7.01271 4.43563 7.09698 4.37143 7.16402 4.28972V4.35327H7.1953C7.21776 4.34187 7.24424 4.33456 7.27186 4.32693C7.3212 4.31331 7.37417 4.29869 7.41429 4.25794C7.28915 4.19439 7.13273 4.19439 6.97631 4.22617C6.63219 4.41682 6.28807 4.67103 6.0378 4.98878C5.8501 5.14766 5.6624 5.27477 5.47469 5.40187ZM6.21294 5.18881C6.22556 5.18338 6.23329 5.17944 6.2255 5.17944L6.21294 5.18881ZM6.31936 5.24299C6.31936 5.25888 6.31153 5.26682 6.30371 5.27477C6.29589 5.28271 6.28807 5.29065 6.28807 5.30654C6.28807 5.33832 6.25679 5.37009 6.2255 5.37009H6.19422C6.19422 5.30654 6.25679 5.21122 6.31936 5.24299ZM7.08581 7.78505C7.09363 7.7771 7.10145 7.76916 7.10145 7.75327H6.97631C6.97631 7.77291 6.96436 7.78041 6.94785 7.79078C6.93765 7.79718 6.9257 7.80468 6.91375 7.81682L6.78861 7.94392C6.75733 7.9757 6.85118 7.9757 6.88246 7.94392H6.94503C6.94503 7.92795 6.94503 7.92001 6.949 7.91606C6.95293 7.91215 6.96075 7.91215 6.97631 7.91215L7.10145 7.8486C7.10145 7.83271 7.09363 7.83271 7.08581 7.83271C7.07799 7.83271 7.07017 7.83271 7.07017 7.81682C7.07017 7.80093 7.07799 7.79299 7.08581 7.78505ZM6.8199 7.62617L6.60091 7.75327L6.38192 7.8486H6.35064L6.19422 7.9757H6.10037C6.10037 7.99167 6.10037 7.99962 6.0964 8.00357C6.09247 8.00748 6.08465 8.00748 6.06909 8.00748H6.0378C6.0378 8.02345 6.0378 8.03139 6.03383 8.03534C6.0299 8.03925 6.02208 8.03925 6.00652 8.03925H5.97523C5.96329 8.05139 5.95134 8.05889 5.94113 8.0653C5.92462 8.07566 5.91267 8.08317 5.91267 8.1028L5.81882 8.19813H5.72496L5.78753 8.13458H5.8501C5.8501 8.1028 5.88138 8.07103 5.91267 8.07103C5.91267 8.05506 5.91267 8.04711 5.91664 8.04316C5.92057 8.03925 5.92839 8.03925 5.94395 8.03925L5.94396 8.03925C5.9619 8.02102 5.96955 8.01325 5.97281 8.00395C5.97523 7.99702 5.97523 7.98925 5.97523 7.9757C6.00652 7.94392 6.0378 7.91215 6.0378 7.88037L5.97523 7.94392C5.95967 7.94392 5.95185 7.94392 5.94792 7.94001C5.94395 7.93606 5.94395 7.92812 5.94395 7.91215C5.95951 7.91215 5.96733 7.91215 5.97126 7.90824C5.97523 7.90429 5.97523 7.89634 5.97523 7.88037H6.00652L6.06909 7.78505H6.13165V7.7215C6.23542 7.63367 6.3583 7.6041 6.48445 7.57375C6.5865 7.5492 6.69068 7.52413 6.78861 7.46729C6.9324 7.38383 6.96829 7.42368 6.99369 7.45188C7.00698 7.46663 7.0174 7.4782 7.03888 7.46729H7.1953L6.78861 7.75327L6.8199 7.62617ZM7.13662 6.55868C7.12372 6.5618 7.11846 6.56308 7.13273 6.57757L7.13743 6.55848C7.15292 6.55472 7.17858 6.54799 7.1953 6.51402H7.14837L7.16402 6.45047H7.383C7.41429 6.38692 7.47685 6.38692 7.53942 6.38692H7.69584C8.10253 6.38692 8.47793 6.35514 8.85334 6.22804C8.5113 5.95506 8.09293 5.83713 7.68765 5.72289C7.57399 5.69085 7.46135 5.6591 7.35172 5.6243C7.36119 5.6243 7.38213 5.63013 7.405 5.63649C7.45765 5.65113 7.52048 5.66861 7.47685 5.6243C7.44557 5.59252 7.39864 5.58458 7.35172 5.57664C7.32633 5.57234 7.30093 5.56804 7.27802 5.55996C7.28125 5.55941 7.28355 5.55846 7.28518 5.55684C7.28915 5.55289 7.28915 5.54494 7.28915 5.52897L6.88246 5.40187C6.97631 5.40187 7.0076 5.33832 7.0076 5.24299H6.97631C6.75733 5.33832 6.60091 5.52897 6.53834 5.7514C6.60985 5.78772 6.68135 5.78253 6.75286 5.77734C6.80649 5.77345 6.86012 5.76956 6.91375 5.78318L6.72604 5.84673C6.66348 5.84673 6.60091 5.8785 6.63219 5.94206H6.66348L6.56963 6.00561C6.61655 6.05327 6.66348 6.04731 6.7104 6.04136C6.72604 6.03937 6.74169 6.03738 6.75733 6.03738H6.8199C6.75733 6.06916 6.69476 6.13271 6.66348 6.19626L6.47577 6.38692V6.45047C6.28807 6.57757 6.13165 6.73645 6.00652 6.89533L5.88138 6.99065C5.88138 7.00662 5.88138 7.01457 5.88535 7.01852C5.88929 7.02243 5.89711 7.02243 5.91267 7.02243C6.10037 6.9271 6.28807 6.83178 6.44449 6.73645L6.78861 6.60935L7.07017 6.51402H7.14837L7.13743 6.55848C7.13716 6.55855 7.13689 6.55861 7.13662 6.55868Z" fill="white"/>
<path fill-rule="evenodd" clip-rule="evenodd" d="M10.0734 7.94393L10.3549 7.65794C10.5113 7.46729 10.7303 7.24486 10.918 7.08598L11.1057 6.9271C11.1237 6.90888 11.1313 6.90111 11.1346 6.8918C11.137 6.88487 11.137 6.8771 11.137 6.86355L10.918 6.99065C10.918 6.99065 10.8867 6.99065 10.918 6.95888L11.0744 6.83178H11.0432C10.8242 6.83178 10.6365 6.9271 10.5113 7.08598H10.4488C10.3236 7.13365 10.2141 7.21308 10.1046 7.29252C9.99515 7.37196 9.88566 7.4514 9.76053 7.49907L9.44769 7.62617C9.32255 7.65794 9.16614 7.65794 9.041 7.62617L8.41533 7.75327L8.10249 7.88037H8.0712C8.0712 7.89634 8.0712 7.90429 8.06723 7.90824C8.0633 7.91215 8.05548 7.91215 8.03992 7.91215L7.94607 8.00748L7.66452 8.22991C7.63323 8.22991 7.63323 8.22991 7.63323 8.26168L7.35168 8.51589H7.32039C7.33973 8.51589 7.34711 8.50375 7.35732 8.48698C7.36363 8.47661 7.37101 8.46447 7.38296 8.45234C7.38296 8.42056 7.38296 8.42056 7.41425 8.38879C7.44553 8.35701 7.47681 8.29346 7.47681 8.26168L7.75837 8.07103C7.74281 8.07103 7.73499 8.07103 7.73106 8.06712C7.72708 8.06317 7.72708 8.05522 7.72708 8.03925H7.6958L7.82093 7.95452L7.91479 7.91215H7.8835L7.82093 7.95452L7.63323 8.03925H7.60195C7.60195 8.03925 7.60195 8.07103 7.57066 8.03925L7.66452 7.94393H7.6958C8.02373 7.68921 8.43492 7.6278 8.84869 7.56601C9.10596 7.52759 9.36423 7.48902 9.60411 7.40374L9.76053 7.30841C9.78247 7.29727 9.80441 7.27831 9.82905 7.25702L9.82906 7.25701L9.82907 7.257C9.87469 7.21758 9.92956 7.17016 10.0108 7.14953C10.1359 7.05421 10.2298 6.89533 10.2923 6.73645H10.2611C10.0421 6.83178 9.79181 6.89533 9.54154 6.89533C9.22592 7.0119 8.85767 7.07502 8.50919 7.08467C8.51003 7.05333 8.54089 7.02199 8.57174 6.99065H8.63431C8.63431 6.97468 8.63431 6.96674 8.63828 6.96279C8.64221 6.95888 8.65003 6.95888 8.6656 6.95888H8.72816C8.69786 6.9281 8.66022 6.94204 8.61879 6.95739C8.57469 6.97372 8.52629 6.99165 8.47789 6.95888C8.41364 6.91537 8.45203 6.90165 8.49268 6.88712C8.5114 6.88043 8.5306 6.87357 8.54046 6.86355H8.60303C8.60303 6.83178 8.60303 6.83178 8.63431 6.8C8.74519 6.72961 8.85607 6.67169 8.96423 6.6152C9.1002 6.54418 9.23187 6.4754 9.35384 6.38692C9.37774 6.36958 9.39568 6.35678 9.40859 6.3477C9.42414 6.33768 9.43449 6.3304 9.43578 6.32926C9.43706 6.32812 9.42929 6.33314 9.40859 6.3477C9.36048 6.37868 9.26255 6.43588 9.2287 6.41869C9.16613 6.38692 9.2287 6.35514 9.25999 6.35514C9.44769 6.29159 9.63539 6.22804 9.79181 6.13271C9.77095 6.13271 9.7501 6.13977 9.72924 6.14683C9.68753 6.16096 9.64582 6.17508 9.60411 6.13271H9.69796V6.06916C9.69796 6.03738 9.69796 6.03738 9.72924 6.03738H9.69796L9.79181 5.97383H9.76053C9.82309 5.91028 9.88566 5.8785 9.97951 5.8785C9.96387 5.86262 9.94041 5.86262 9.92086 5.86262C9.9013 5.86262 9.88566 5.86262 9.88566 5.84673C9.88566 5.81495 9.91695 5.81495 9.94823 5.81495H9.88566C9.85438 5.81495 9.85438 5.81495 9.85438 5.78318C9.85438 5.7514 9.85438 5.7514 9.88566 5.7514C9.94823 5.6243 10.0108 5.46542 10.0421 5.33832H10.0108C9.82309 5.4972 9.57282 5.6243 9.32255 5.68785H9.2287C9.13485 5.71963 9.041 5.71963 8.94715 5.65608L8.79073 5.52897L8.35276 5.30654C7.94607 5.14766 7.5081 5.02056 7.07012 4.98879C7.25783 4.92523 7.47681 4.86168 7.66452 4.82991C7.94607 4.7028 8.22762 4.67103 8.50918 4.67103C8.46418 4.64817 8.41918 4.65819 8.38581 4.66562C8.37279 4.66852 8.36154 4.67103 8.35276 4.67103C8.10249 4.67103 7.85222 4.7028 7.63323 4.76636L7.13269 4.89346C7.09546 4.90606 7.06315 4.93367 7.03186 4.96041C6.98427 5.00108 6.93904 5.03973 6.88242 5.02056V4.95701C7.03884 4.73458 7.25783 4.5757 7.5081 4.54393C7.78965 4.51215 8.10249 4.51215 8.38404 4.5757L9.041 4.7028C9.0754 4.7028 9.10035 4.74123 9.12623 4.78111C9.14743 4.81376 9.16925 4.84738 9.19742 4.86168C9.22334 4.87484 9.25999 4.8771 9.30293 4.87975C9.36365 4.88349 9.43695 4.88801 9.51026 4.92523C9.5789 4.9601 9.56282 4.93758 9.53947 4.90491C9.52026 4.87802 9.49613 4.84425 9.51026 4.82991C9.5259 4.81402 9.55718 4.81402 9.59629 4.81402C9.63539 4.81402 9.68232 4.81402 9.72924 4.79813C9.78911 4.77786 9.72167 4.69293 9.64875 4.6011C9.60736 4.54897 9.56419 4.49462 9.54154 4.4486C9.61084 4.49083 9.66786 4.54554 9.72348 4.59891C9.7934 4.66599 9.86111 4.73096 9.94823 4.76636C10.1046 4.82991 10.2298 4.86168 10.1985 4.76636C10.1046 4.5757 9.97951 4.41682 9.82309 4.25794V4.19439H9.76053V4.03551C9.72331 4.01661 9.7193 3.98646 9.71557 3.95845C9.71304 3.93937 9.71063 3.92128 9.69796 3.90841C9.68102 3.89121 9.67325 3.82744 9.66473 3.75744C9.65751 3.69814 9.64974 3.63437 9.63539 3.59065L9.63539 3.59064C9.60411 3.49532 9.57282 3.4 9.57282 3.30467C9.56311 3.26026 9.55339 3.21662 9.54379 3.1735L9.54374 3.17327L9.54371 3.17315L9.54371 3.17313C9.49153 2.93874 9.44282 2.71995 9.4164 2.4785C9.39203 2.23094 9.51957 2.02195 9.65108 1.80646L9.65109 1.80645L9.65109 1.80643C9.68838 1.74534 9.72598 1.68373 9.76053 1.62056C9.85438 1.39813 10.0108 1.20748 10.2298 1.08037C10.2923 0.88972 10.3862 0.699065 10.5426 0.540187C10.6678 0.381308 10.8555 0.254206 11.0432 0.190654L11.5124 0H0V9.0243H8.13377C8.47789 8.80187 8.8533 8.61121 9.2287 8.45234C9.54154 8.32523 9.82309 8.16636 10.0734 7.94393ZM7.57066 8.13458L7.64486 8.07805C7.61898 8.12634 7.58903 8.16636 7.53938 8.16636C7.53938 8.15038 7.53938 8.14244 7.54335 8.13849C7.54728 8.13458 7.5551 8.13458 7.57066 8.13458ZM7.5081 6.73645C7.49767 6.73645 7.48377 6.73998 7.46986 6.74351C7.44205 6.75057 7.41425 6.75763 7.41425 6.73645C7.41425 6.70467 7.53938 6.64112 7.63323 6.60935C7.68016 6.59346 7.6958 6.57757 7.70362 6.56963C7.70665 6.56655 7.7085 6.56467 7.71055 6.56443C7.71378 6.56406 7.71749 6.56783 7.72708 6.57757L7.72708 6.57757L7.85222 6.64112C7.78921 6.70512 7.7121 6.71183 7.63036 6.71894H7.63035C7.59034 6.72243 7.54922 6.72601 7.5081 6.73645ZM5.47465 5.4972C5.31824 5.81495 5.13053 6.10093 4.94283 6.35514C5.30373 5.92747 5.72245 5.55854 6.1712 5.22011C6.18517 5.22026 6.21169 5.21775 6.25675 5.21122C6.43279 5.18567 6.48753 5.07798 6.56724 4.92117C6.58668 4.88292 6.60761 4.84175 6.63215 4.79813C6.70366 4.67103 6.81602 4.58543 6.92839 4.49983C7.01266 4.43563 7.09694 4.37143 7.16398 4.28972V4.35327H7.19526C7.21771 4.34187 7.2442 4.33456 7.27182 4.32693C7.32116 4.31331 7.37413 4.29869 7.41425 4.25794C7.28911 4.19439 7.13269 4.19439 6.97627 4.22617C6.63215 4.41682 6.28803 4.67103 6.03776 4.98878C5.88134 5.17944 5.69364 5.37009 5.47465 5.4972ZM6.2129 5.18881C6.22552 5.18338 6.23325 5.17944 6.22546 5.17944L6.2129 5.18881ZM6.31931 5.24299C6.31931 5.25888 6.31149 5.26682 6.30367 5.27477C6.29585 5.28271 6.28803 5.29065 6.28803 5.30654C6.28803 5.33832 6.25675 5.37009 6.22546 5.37009H6.19418C6.19418 5.30654 6.25675 5.21122 6.31931 5.24299ZM7.08577 7.78505C7.09359 7.7771 7.10141 7.76916 7.10141 7.75327V7.68972H7.00756C7.00756 7.70569 7.00756 7.71363 7.00359 7.71759C6.99965 7.7215 6.99183 7.7215 6.97627 7.7215C6.97627 7.74113 6.96432 7.74863 6.94781 7.759L6.94781 7.759C6.9376 7.76541 6.92565 7.77291 6.91371 7.78505L6.78857 7.91215C6.75729 7.94393 6.85114 7.94393 6.88242 7.91215H6.97627L7.10141 7.8486C7.10141 7.83271 7.09359 7.83271 7.08577 7.83271C7.07795 7.83271 7.07012 7.83271 7.07012 7.81682C7.07012 7.80093 7.07795 7.79299 7.08577 7.78505ZM6.81985 7.56262L6.60087 7.68972L6.38188 7.78505H6.3506L6.19418 7.91215H6.10033C6.10033 7.92812 6.10033 7.93606 6.09636 7.94001C6.09243 7.94392 6.08461 7.94392 6.06905 7.94392H6.03776C6.03776 7.9599 6.03776 7.96784 6.03379 7.97179C6.02986 7.9757 6.02204 7.9757 6.00648 7.9757H5.97519C5.96324 7.98784 5.95129 7.99534 5.94109 8.00175C5.92458 8.01211 5.91263 8.01961 5.91263 8.03925L5.81878 8.13458H5.72492L5.78749 8.07103H5.85006C5.85006 8.03925 5.88134 8.00748 5.91263 8.00748C5.91263 7.9757 5.91263 7.9757 5.94391 7.9757C5.96185 7.95748 5.96951 7.9497 5.97277 7.94039C5.97519 7.93347 5.97519 7.9257 5.97519 7.91215C6.00648 7.88037 6.03776 7.8486 6.03776 7.81682L5.97519 7.88037C5.95963 7.88037 5.95181 7.88037 5.94788 7.87646C5.94391 7.87251 5.94391 7.86457 5.94391 7.8486C5.95947 7.8486 5.96729 7.8486 5.97122 7.84469C5.97519 7.84074 5.97519 7.83279 5.97519 7.81682H6.00648L6.06905 7.7215H6.13161V7.65794C6.23538 7.57011 6.35826 7.54055 6.48441 7.5102C6.58646 7.48564 6.69064 7.46058 6.78857 7.40374C6.93236 7.32028 6.96825 7.36012 6.99365 7.38833C7.00694 7.40308 7.01736 7.41465 7.03884 7.40374H7.19526L6.78857 7.68972L6.81985 7.56262ZM7.13658 6.49513C7.12368 6.49825 7.11842 6.49953 7.13269 6.51402L7.14276 6.49357C7.15833 6.48939 7.18035 6.48076 7.19526 6.45047H7.38296C7.41425 6.38692 7.47681 6.38692 7.53938 6.38692H7.6958C8.10249 6.38692 8.47789 6.29159 8.8533 6.16449C8.51126 5.89151 8.09289 5.77358 7.68761 5.65934C7.57395 5.6273 7.46131 5.59555 7.35168 5.56075C7.36115 5.56075 7.38209 5.56657 7.40496 5.57293C7.45761 5.58758 7.52044 5.60506 7.47681 5.56075C7.44553 5.52897 7.3986 5.52103 7.35168 5.51308C7.32628 5.50878 7.30089 5.50449 7.27798 5.49641C7.28121 5.49585 7.28351 5.49491 7.28514 5.49329C7.28911 5.48933 7.28911 5.48139 7.28911 5.46542L6.88242 5.33832C6.97627 5.33832 7.00756 5.27477 7.00756 5.17944H6.97627C6.75729 5.27477 6.60087 5.46542 6.5383 5.68785C6.60981 5.72417 6.68131 5.71898 6.75282 5.71379C6.80645 5.7099 6.86008 5.70601 6.91371 5.71963L6.726 5.78318C6.66344 5.78318 6.60087 5.81495 6.63215 5.8785H6.66344L6.56958 5.94206C6.61651 5.98972 6.66344 5.98376 6.71036 5.9778C6.726 5.97582 6.74165 5.97383 6.75729 5.97383H6.81985C6.75729 6.00561 6.69472 6.06916 6.66344 6.13271L6.47573 6.32336V6.38692C6.28803 6.51402 6.13161 6.6729 6.00648 6.83178L5.88134 6.9271C5.88134 6.95888 5.88134 6.95888 5.91263 6.95888L5.91265 6.95887C6.10035 6.86354 6.28804 6.76822 6.44445 6.6729L6.78857 6.54579L7.07012 6.45047H7.16398L7.14276 6.49357C7.14056 6.49416 7.13849 6.49467 7.13658 6.49513Z" fill="#000091"/>
<path d="M24.3701 0H14.8598L14.9224 0.0635514L15.1727 0.190654C15.2978 0.254206 15.3917 0.349533 15.4855 0.44486C15.5168 0.508411 15.5794 0.603738 15.5481 0.66729C15.5168 0.730841 15.4855 0.88972 15.4229 0.921495C15.2978 0.985047 15.1727 0.985047 15.0475 0.985047L14.8598 0.921495C15.1101 1.01682 15.3604 1.1757 15.5168 1.39813L15.6732 1.46168C15.6419 1.49346 15.6106 1.52523 15.6419 1.55701H15.6732C15.7671 1.52523 15.7358 1.36636 15.8609 1.42991C15.9548 1.46168 15.986 1.55701 15.9548 1.62056C15.9548 1.65234 15.9235 1.65234 15.9235 1.68411L15.7358 1.84299C15.7045 1.87477 15.7045 1.93832 15.7358 1.97009L15.8296 2.16075L15.9235 2.54206C16.0173 2.79626 16.0486 3.05047 16.0486 3.30467C16.0486 3.43178 15.986 3.55888 16.0486 3.68598C16.0799 3.81308 16.1425 3.94019 16.205 4.06729C16.2989 4.13084 16.3614 4.22617 16.3927 4.3215C16.5179 4.48037 16.6743 4.67103 16.6117 4.86168C16.5492 5.05234 16.3614 4.95701 16.2363 5.05234C16.1112 5.14766 16.2363 5.27477 16.2989 5.33832C16.3614 5.40187 16.1737 5.59252 16.0799 5.65608C15.986 5.71963 16.1737 5.68785 16.1737 5.71963C16.1737 5.7514 16.2989 5.84673 16.2363 5.94206C16.1737 6.03738 15.9548 6.10093 16.0799 6.25981C16.205 6.41869 16.0799 6.51402 16.0486 6.60935C15.986 6.73645 15.8922 6.83178 15.7358 6.86355C15.6419 6.9271 15.5168 6.9271 15.4229 6.89533H15.3291C15.0475 6.83178 14.766 6.8 14.4844 6.76822L14.2342 6.83178L14.0465 7.02243H13.9526L13.8275 7.21308C13.8275 7.24486 13.8275 7.24486 13.7962 7.24486L13.671 7.56262C13.5772 7.94393 13.6085 8.29346 13.7023 8.35701C13.7962 8.42056 14.2654 8.54766 14.6096 8.73832L15.0162 8.92897H24.3701V0Z" fill="#E1000F"/>
<path d="M15.4228 3.30485H15.5792C15.548 3.46373 15.3603 3.49551 15.2351 3.62261H15.2038C15.1413 3.65439 15.1726 3.74971 15.11 3.74971C15.0474 3.74971 15.0161 3.74971 14.9536 3.74971C15.0161 3.84504 15.11 3.87682 15.2038 3.87682L15.2664 3.94037H15.329V4.03569C15.2664 4.09925 15.2038 4.06747 15.1413 4.09925H15.5167C15.6105 4.03569 15.5167 3.87682 15.5792 3.78149C15.6418 3.68616 15.5792 3.74971 15.548 3.74971C15.5167 3.74971 15.6105 3.65439 15.6418 3.65439C15.6731 3.65439 15.7357 3.62261 15.7357 3.59083C15.7357 3.55906 15.6731 3.52728 15.7044 3.49551C15.7357 3.46373 15.8921 3.33663 15.8608 3.2413C15.8295 3.14597 15.7044 3.17775 15.6105 3.14597C15.5167 3.1142 15.4228 3.14597 15.329 3.17775L15.0787 3.2413L14.7659 3.40018C14.891 3.33663 15.0161 3.30485 15.1413 3.30485C15.2351 3.27308 15.329 3.27308 15.4228 3.30485Z" fill="#9C9B9B"/>
</svg>
