<?xml version="1.0" encoding="UTF-8"?>
<svg width="50px" height="54px" viewBox="0 0 50 54" version="1.1" xmlns="http://www.w3.org/2000/svg" xmlns:xlink="http://www.w3.org/1999/xlink">
    <title>money</title>
    <g id="Sprint-8" stroke="none" stroke-width="1" fill="none" fill-rule="evenodd">
        <g id="HP_1440_newversion" transform="translate(-1058.000000, -753.000000)" fill="#1B2B67">
            <g id="Group-11" transform="translate(1000.000000, 717.000000)">
                <g id="money" transform="translate(58.000000, 36.000000)">
                    <path d="M3.13710453,24.6718276 C2.70059941,24.4680521 2.182515,24.6587689 1.97988464,25.0978225 C0.668356967,27.9370533 -0.00749261651,31.0312978 0,34.1620484 C0,45.2124977 6.15650734,50.8161721 18.2994736,50.8161721 C20.7530889,50.8549615 23.2012305,50.571194 25.5817678,49.972071 C26.0469067,49.8476583 26.3237105,49.3675115 26.2000265,48.899633 C26.0763423,48.4317545 25.5990069,48.1533205 25.1338679,48.277733 C22.8986024,48.8330108 20.6016491,49.0969649 18.2994736,49.0631064 C7.15861794,49.0631064 1.7428637,44.1887074 1.7428637,34.1620484 C1.72718538,31.2849966 2.34841449,28.4405137 3.56147659,25.8349866 C3.76335896,25.3959016 3.57342638,24.8753164 3.13710453,24.6718276 Z" id="Shape" fill-rule="nonzero"></path>
                    <text id="€" font-family="Lato-Regular, Lato" font-size="22" font-weight="normal">
                        <tspan x="11.4754098" y="43.3360656">€</tspan>
                    </text>
                    <path d="M47.3653396,21.3114754 L28.0444965,21.3114754 C26.5894138,21.3114754 25.4098361,22.5382362 25.4098361,24.0515222 L25.4098361,50.5386417 C25.4098361,52.0519277 26.5894138,53.2786885 28.0444965,53.2786885 L47.3653396,53.2786885 C48.8204223,53.2786885 50,52.0519277 50,50.5386417 L50,24.0515222 C50,22.5382362 48.8204223,21.3114754 47.3653396,21.3114754 Z M48.2435597,50.5386417 C48.2435597,51.0430703 47.8503671,51.4519906 47.3653396,51.4519906 L28.0444965,51.4519906 C27.5594689,51.4519906 27.1662763,51.0430703 27.1662763,50.5386417 L27.1662763,24.0515222 C27.1662763,23.5470936 27.5594689,23.1381733 28.0444965,23.1381733 L47.3653396,23.1381733 C47.8503671,23.1381733 48.2435597,23.5470936 48.2435597,24.0515222 L48.2435597,50.5386417 Z" id="Shape" fill-rule="nonzero"></path>
                    <path d="M31.3296903,33.6065574 L44.0801457,33.6065574 C45.0861289,33.6065574 45.9016393,32.780853 45.9016393,31.7622951 L45.9016393,28.0737705 C45.9016393,27.0552126 45.0861289,26.2295082 44.0801457,26.2295082 L31.3296903,26.2295082 C30.3237072,26.2295082 29.5081967,27.0552126 29.5081967,28.0737705 L29.5081967,31.7622951 C29.5081967,32.780853 30.3237072,33.6065574 31.3296903,33.6065574 Z M31.3296903,28.0737705 L44.0801457,28.0737705 L44.0801457,31.7622951 L31.3296903,31.7622951 L31.3296903,28.0737705 Z" id="Shape" fill-rule="nonzero"></path>
                    <path d="M32.7868852,36.0655738 L30.3278689,36.0655738 C29.8751765,36.0655738 29.5081967,36.4325535 29.5081967,36.8852459 C29.5081967,37.3379383 29.8751765,37.704918 30.3278689,37.704918 L32.7868852,37.704918 C33.2395776,37.704918 33.6065574,37.3379383 33.6065574,36.8852459 C33.6065574,36.4325535 33.2395776,36.0655738 32.7868852,36.0655738 Z" id="Shape" fill-rule="nonzero"></path>
                    <path d="M32.7868852,40.1639344 L30.3278689,40.1639344 C29.8751765,40.1639344 29.5081967,40.5309142 29.5081967,40.9836066 C29.5081967,41.4362989 29.8751765,41.8032787 30.3278689,41.8032787 L32.7868852,41.8032787 C33.2395776,41.8032787 33.6065574,41.4362989 33.6065574,40.9836066 C33.6065574,40.5309142 33.2395776,40.1639344 32.7868852,40.1639344 Z" id="Shape" fill-rule="nonzero"></path>
                    <path d="M32.7868852,43.442623 L30.3278689,43.442623 C29.8751765,43.442623 29.5081967,43.8096027 29.5081967,44.2622951 C29.5081967,44.7149875 29.8751765,45.0819672 30.3278689,45.0819672 L32.7868852,45.0819672 C33.2395776,45.0819672 33.6065574,44.7149875 33.6065574,44.2622951 C33.6065574,43.8096027 33.2395776,43.442623 32.7868852,43.442623 Z" id="Shape" fill-rule="nonzero"></path>
                    <path d="M32.7868852,46.7213115 L30.3278689,46.7213115 C29.8751765,46.7213115 29.5081967,47.0882912 29.5081967,47.5409836 C29.5081967,47.993676 29.8751765,48.3606557 30.3278689,48.3606557 L32.7868852,48.3606557 C33.2395776,48.3606557 33.6065574,47.993676 33.6065574,47.5409836 C33.6065574,47.0882912 33.2395776,46.7213115 32.7868852,46.7213115 Z" id="Shape" fill-rule="nonzero"></path>
                    <path d="M39.3442623,36.0655738 L36.8852459,36.0655738 C36.4325535,36.0655738 36.0655738,36.4325535 36.0655738,36.8852459 C36.0655738,37.3379383 36.4325535,37.704918 36.8852459,37.704918 L39.3442623,37.704918 C39.7969547,37.704918 40.1639344,37.3379383 40.1639344,36.8852459 C40.1639344,36.4325535 39.7969547,36.0655738 39.3442623,36.0655738 Z" id="Shape" fill-rule="nonzero"></path>
                    <path d="M39.3442623,40.1639344 L36.8852459,40.1639344 C36.4325535,40.1639344 36.0655738,40.5309142 36.0655738,40.9836066 C36.0655738,41.4362989 36.4325535,41.8032787 36.8852459,41.8032787 L39.3442623,41.8032787 C39.7969547,41.8032787 40.1639344,41.4362989 40.1639344,40.9836066 C40.1639344,40.5309142 39.7969547,40.1639344 39.3442623,40.1639344 Z" id="Shape" fill-rule="nonzero"></path>
                    <path d="M39.3442623,43.442623 L36.8852459,43.442623 C36.4325535,43.442623 36.0655738,43.8096027 36.0655738,44.2622951 C36.0655738,44.7149875 36.4325535,45.0819672 36.8852459,45.0819672 L39.3442623,45.0819672 C39.7969547,45.0819672 40.1639344,44.7149875 40.1639344,44.2622951 C40.1639344,43.8096027 39.7969547,43.442623 39.3442623,43.442623 Z" id="Shape" fill-rule="nonzero"></path>
                    <path d="M39.3442623,46.7213115 L36.8852459,46.7213115 C36.4325535,46.7213115 36.0655738,47.0882912 36.0655738,47.5409836 C36.0655738,47.993676 36.4325535,48.3606557 36.8852459,48.3606557 L39.3442623,48.3606557 C39.7969547,48.3606557 40.1639344,47.993676 40.1639344,47.5409836 C40.1639344,47.0882912 39.7969547,46.7213115 39.3442623,46.7213115 Z" id="Shape" fill-rule="nonzero"></path>
                    <path d="M45.0819672,36.0655738 L42.6229508,36.0655738 C42.1702584,36.0655738 41.8032787,36.4325535 41.8032787,36.8852459 C41.8032787,37.3379383 42.1702584,37.704918 42.6229508,37.704918 L45.0819672,37.704918 C45.5346596,37.704918 45.9016393,37.3379383 45.9016393,36.8852459 C45.9016393,36.4325535 45.5346596,36.0655738 45.0819672,36.0655738 Z" id="Shape" fill-rule="nonzero"></path>
                    <path d="M45.0819672,40.1639344 L42.6229508,40.1639344 C42.1702584,40.1639344 41.8032787,40.5309142 41.8032787,40.9836066 C41.8032787,41.4362989 42.1702584,41.8032787 42.6229508,41.8032787 L45.0819672,41.8032787 C45.5346596,41.8032787 45.9016393,41.4362989 45.9016393,40.9836066 C45.9016393,40.5309142 45.5346596,40.1639344 45.0819672,40.1639344 Z" id="Shape" fill-rule="nonzero"></path>
                    <path d="M45.0819672,43.442623 L42.6229508,43.442623 C42.1702584,43.442623 41.8032787,43.8096027 41.8032787,44.2622951 C41.8032787,44.7149875 42.1702584,45.0819672 42.6229508,45.0819672 L45.0819672,45.0819672 C45.5346596,45.0819672 45.9016393,44.7149875 45.9016393,44.2622951 C45.9016393,43.8096027 45.5346596,43.442623 45.0819672,43.442623 Z" id="Shape" fill-rule="nonzero"></path>
                    <path d="M45.0819672,46.7213115 L42.6229508,46.7213115 C42.1702584,46.7213115 41.8032787,47.0882912 41.8032787,47.5409836 C41.8032787,47.993676 42.1702584,48.3606557 42.6229508,48.3606557 L45.0819672,48.3606557 C45.5346596,48.3606557 45.9016393,47.993676 45.9016393,47.5409836 C45.9016393,47.0882912 45.5346596,46.7213115 45.0819672,46.7213115 Z" id="Shape" fill-rule="nonzero"></path>
                    <path d="M2.61872273,1.26448119 C0.197538649,3.6809459 4.45139263,11.1347176 6.95809517,15.0269089 L6.45785813,15.0269089 C5.60365032,15.023518 4.78361244,15.3921431 4.18012438,16.0508007 C3.57869225,16.7110538 3.24064941,17.6031745 3.23942126,18.5333876 C3.24337533,19.7818092 3.85816135,20.9331606 4.85231791,21.5539684 C3.77895126,22.7908924 2.7678035,24.0901889 1.82330904,25.4461597 C1.51859587,25.8888054 1.60093549,26.5167669 2.00721974,26.8487512 C2.41350398,27.1807354 2.98988127,27.0910266 3.29459447,26.648381 C4.430425,25.0294046 5.65893975,23.4901715 6.97280803,22.0398662 L25.7684793,22.0398662 C26.9183161,22.0398662 27.9808091,21.3715352 28.5557275,20.2866269 C29.1306459,19.2017186 29.1306459,17.8650565 28.5557275,16.7801482 C27.9808091,15.6952399 26.9183161,15.0269089 25.7684793,15.0269089 L25.2682423,15.0269089 C27.7740253,11.1347176 32.0278793,3.68194775 29.6085343,1.26448119 C28.4958747,0.154430238 27.1993044,0.963925878 26.0562995,1.67223456 C25.0169039,2.44776709 23.8066693,2.90768531 22.5500425,3.00469645 C21.5524801,3.00240083 20.601505,2.54450289 19.9283957,1.74236414 C18.9221386,0.627747068 17.5472396,0 16.1122492,0 C14.6772588,0 13.3023598,0.627747068 12.2961026,1.74236414 C11.6219124,2.54578697 10.6690217,3.00380403 9.66985812,3.00469645 C8.41389385,2.90869119 7.2043135,2.44865968 6.16635971,1.67223456 C5.02427439,0.961922176 3.72862367,0.155432089 2.61872273,1.26448119 Z M26.7305627,17.7853763 C27.130523,18.2497245 27.2502499,18.949074 27.0337568,19.5563953 C26.8172636,20.1637168 26.3073349,20.5589878 25.7424232,20.557377 L6.22132245,20.557377 C5.45123629,20.557377 4.82695811,19.8307534 4.82695811,18.9344238 C4.82695811,18.0380942 5.45123629,17.3114754 6.22132245,17.3114754 L25.7424232,17.3114754 C26.1126055,17.3116025 26.4677579,17.4819297 26.7305627,17.7853763 Z M9.65399362,5.16062638 C11.0629354,5.16040571 12.4127484,4.53393387 13.4002905,3.42190455 C14.0594363,2.62064285 14.993256,2.16393443 15.9724288,2.16393443 C16.9516016,2.16393443 17.8854213,2.62064285 18.5445671,3.42190455 C19.5334385,4.53478974 20.8849514,5.16129587 22.2953765,5.16062638 C23.8449658,5.07053491 25.3440944,4.5206721 26.6355215,3.56871219 C27.04756,3.24688503 27.5137077,3.01970311 28.0064261,2.9005876 C28.9323959,3.83935758 26.4848032,9.50093947 22.7430189,15.147541 L20.4903672,15.147541 L20.4903672,10.1540837 C20.4903672,9.60252162 20.086302,9.15539222 19.5878625,9.15539222 C19.089423,9.15539222 18.6853579,9.60252162 18.6853579,10.1540837 L18.6853579,15.147541 L13.2703298,15.147541 L13.2703298,10.1540837 C13.2703298,9.60252162 12.8662647,9.15539222 12.3678252,9.15539222 C11.8693856,9.15539222 11.4653205,9.60252162 11.4653205,10.1540837 L11.4653205,15.147541 L9.21627886,15.147541 C5.4744945,9.50093947 3.02690183,3.83935758 3.96550669,2.88560723 C4.44801278,3.0282188 4.90557386,3.25910385 5.31926369,3.56871219 C6.60873673,4.52054605 8.10609992,5.07044737 9.65399362,5.16062638 Z" id="Shape" fill-rule="nonzero"></path>
                </g>
            </g>
        </g>
    </g>
</svg>