<svg width="42" height="40" viewBox="0 0 42 40" fill="none" xmlns="http://www.w3.org/2000/svg">
<g clip-path="url(#clip0)">
<g filter="url(#filter0_d)">
<rect width="42" height="40" rx="8" fill="#BDB2FF"/>
</g>
<path d="M17.2098 19.686C17.5058 19.686 17.7638 19.65 17.9838 19.578C18.2038 19.502 18.3858 19.396 18.5298 19.26C18.6778 19.12 18.7878 18.952 18.8598 18.756C18.9318 18.556 18.9678 18.334 18.9678 18.09C18.9678 17.858 18.9318 17.648 18.8598 17.46C18.7878 17.272 18.6798 17.112 18.5358 16.98C18.3918 16.848 18.2098 16.748 17.9898 16.68C17.7698 16.608 17.5098 16.572 17.2098 16.572H16.0038V19.686H17.2098ZM17.2098 15.324C17.7898 15.324 18.2918 15.392 18.7158 15.528C19.1398 15.664 19.4898 15.854 19.7658 16.098C20.0418 16.342 20.2458 16.634 20.3778 16.974C20.5138 17.314 20.5818 17.686 20.5818 18.09C20.5818 18.51 20.5118 18.896 20.3718 19.248C20.2318 19.596 20.0218 19.896 19.7418 20.148C19.4618 20.4 19.1098 20.596 18.6858 20.736C18.2658 20.876 17.7738 20.946 17.2098 20.946H16.0038V24H14.3898V15.324H17.2098ZM25.7941 20.724L24.7381 17.838C24.6861 17.71 24.6321 17.558 24.5761 17.382C24.5201 17.206 24.4641 17.016 24.4081 16.812C24.3561 17.016 24.3021 17.208 24.2461 17.388C24.1901 17.564 24.1361 17.718 24.0841 17.85L23.0341 20.724H25.7941ZM28.6441 24H27.3961C27.2561 24 27.1421 23.966 27.0541 23.898C26.9661 23.826 26.9001 23.738 26.8561 23.634L26.2081 21.864H22.6141L21.9661 23.634C21.9341 23.726 21.8721 23.81 21.7801 23.886C21.6881 23.962 21.5741 24 21.4381 24H20.1781L23.5921 15.324H25.2361L28.6441 24Z" fill="black"/>
</g>
<defs>
<filter id="filter0_d" x="-4" y="-2" width="50" height="48" filterUnits="userSpaceOnUse" color-interpolation-filters="sRGB">
<feFlood flood-opacity="0" result="BackgroundImageFix"/>
<feColorMatrix in="SourceAlpha" type="matrix" values="0 0 0 0 0 0 0 0 0 0 0 0 0 0 0 0 0 0 127 0" result="hardAlpha"/>
<feOffset dy="2"/>
<feGaussianBlur stdDeviation="2"/>
<feColorMatrix type="matrix" values="0 0 0 0 0.889974 0 0 0 0 0.889974 0 0 0 0 0.889974 0 0 0 0.5 0"/>
<feBlend mode="normal" in2="BackgroundImageFix" result="effect1_dropShadow"/>
<feBlend mode="normal" in="SourceGraphic" in2="effect1_dropShadow" result="shape"/>
</filter>
<clipPath id="clip0">
<rect width="42" height="40" fill="white"/>
</clipPath>
</defs>
</svg>
