<?xml version="1.0" encoding="UTF-8"?>
<svg width="30px" height="30px" viewBox="0 0 30 30" version="1.1" xmlns="http://www.w3.org/2000/svg" xmlns:xlink="http://www.w3.org/1999/xlink">
    <!-- Generator: Sketch 63.1 (92452) - https://sketch.com -->
    <title>Group 20</title>
    <desc>Created with Sketch.</desc>
    <g id="wireframes" stroke="none" stroke-width="1" fill="none" fill-rule="evenodd">
        <g id="Q_step5_3_PA" transform="translate(-1069.000000, -410.000000)" fill-rule="nonzero">
            <g id="Group-21" transform="translate(1054.000000, 406.000000)">
                <g id="Group-20" transform="translate(15.000000, 4.000000)">
                    <g id="Group-8" fill="#111B40">
                        <g id="Group-4">
                            <g id="Group" transform="translate(15.000000, 15.000000) rotate(90.000000) translate(-15.000000, -15.000000) ">
                                <circle id="Oval-3" cx="15" cy="15" r="15"></circle>
                            </g>
                        </g>
                    </g>
                    <path d="M23,11.8888889 L7,11.8888889 L7,18.8888889 L10.2,18.8888889 L10.2,22 L19.8,22 L19.8,18.8888889 L23,18.8888889 L23,11.8888889 Z M18.2,20.4444444 L11.8,20.4444444 L11.8,16.5555556 L18.2,16.5555556 L18.2,20.4444444 Z M20.6,15 C20.16,15 19.8,14.65 19.8,14.2222222 C19.8,13.7944444 20.16,13.4444444 20.6,13.4444444 C21.04,13.4444444 21.4,13.7944444 21.4,14.2222222 C21.4,14.65 21.04,15 20.6,15 Z M19.8,8 L10.2,8 L10.2,11.1111111 L19.8,11.1111111 L19.8,8 Z" id="Shape" fill="#FFFFFF"></path>
                </g>
            </g>
        </g>
    </g>
</svg>