<svg width="40" height="40" viewBox="0 0 40 40" fill="none" xmlns="http://www.w3.org/2000/svg">
<g clip-path="url(#clip0_3204_86067)">
<path d="M38.0487 21.5442C37.1893 21.5442 36.5208 22.1026 36.292 22.3219L33.1843 24.113H30.6954C30.5182 24.113 30.3481 24.1806 30.2228 24.3011C30.0974 24.4215 30.027 24.5849 30.027 24.7552V26.0396H28.5878L28.0124 22.7229C27.9829 22.5552 27.8854 22.4056 27.7412 22.3069C27.597 22.2082 27.4179 22.1684 27.2433 22.1964C27.0687 22.2244 26.9127 22.3178 26.8097 22.4561C26.7066 22.5944 26.6649 22.7664 26.6937 22.9342L27.2325 26.0396H25.2588L24.7714 22.7615C24.7256 22.4532 24.6026 22.1601 24.413 21.9075C24.2234 21.6549 23.9729 21.4502 23.6829 21.3109L21.6357 20.3275C21.5429 20.2829 21.4405 20.2597 21.3367 20.2598H18.6628C18.559 20.2597 18.4566 20.2829 18.3638 20.3275L16.3166 21.3109C16.0266 21.4502 15.7762 21.655 15.5867 21.9077C15.3972 22.1604 15.2743 22.4535 15.2285 22.7618L14.7407 26.0396H12.767L13.3058 22.9342C13.3205 22.851 13.3179 22.7657 13.2982 22.6834C13.2785 22.6011 13.2421 22.5234 13.1911 22.4546C13.1401 22.3858 13.0754 22.3274 13.0009 22.2827C12.9263 22.2379 12.8433 22.2077 12.7566 22.1938C12.6699 22.18 12.5812 22.1826 12.4956 22.2017C12.41 22.2208 12.3291 22.2559 12.2576 22.3051C12.1862 22.3542 12.1255 22.4164 12.079 22.4881C12.0326 22.5598 12.0014 22.6396 11.9871 22.7229L11.4117 26.0396H9.97253V24.7552C9.97253 24.5849 9.9021 24.4215 9.77674 24.3011C9.65137 24.1806 9.48134 24.113 9.30405 24.113H6.81521L3.70744 22.3219C3.47865 22.1026 2.81017 21.5442 1.95076 21.5442C1.41906 21.5447 0.909317 21.7479 0.533353 22.1091C0.157389 22.4703 -0.0540903 22.96 -0.0546875 23.4708V31.1772C-0.0547037 31.312 -0.0105777 31.4434 0.0714405 31.5527C0.153459 31.6621 0.269211 31.7439 0.402303 31.7865L0.613794 31.8543V36.3149H-0.0546875V37.5993H40.0542V36.3149H39.3857V30.5912L39.6491 30.4828C39.7693 30.4333 39.8717 30.351 39.9437 30.2461C40.0157 30.1413 40.0541 30.0184 40.0542 29.8928V23.4708C40.0536 22.96 39.8421 22.4703 39.4661 22.1091C39.0902 21.7479 38.5804 21.5447 38.0487 21.5442ZM32.0324 33.6556L33.5699 36.3149H32.0324V33.6556ZM32.0324 27.324H34.0378C34.1416 27.324 34.244 27.3008 34.3368 27.2563L36.0433 26.4366V27.6103L32.0324 30.0185V27.324ZM16.5512 22.944C16.5665 22.8411 16.6076 22.7433 16.6709 22.659C16.7342 22.5746 16.8178 22.5063 16.9145 22.4598L18.8205 21.5442H21.179L23.0853 22.4598C23.1819 22.5063 23.2654 22.5746 23.3286 22.6589C23.3919 22.7432 23.4329 22.8409 23.4483 22.9437L23.9084 26.0396H22.6737V23.4708C22.6737 23.3005 22.6032 23.1371 22.4779 23.0167C22.3525 22.8962 22.1825 22.8286 22.0052 22.8286H17.9943C17.817 22.8286 17.647 22.8962 17.5216 23.0167C17.3962 23.1371 17.3258 23.3005 17.3258 23.4708V26.0396H16.0911L16.5512 22.944ZM21.3367 26.0396H18.6628V24.113H21.3367V26.0396ZM30.6954 27.324V28.6084H9.30405V27.324H30.6954ZM24.0106 30.0029V29.8928H28.0215V36.3149H22.0939L22.6401 32.1177L23.4231 31.3654C23.61 31.1869 23.7581 30.9746 23.859 30.7407C23.9598 30.5068 24.0114 30.256 24.0106 30.0029ZM16.5764 31.3654L17.3594 32.1177L17.9056 36.3149H11.978V29.8928H15.9889V30.0029C15.9881 30.256 16.0397 30.5068 16.1405 30.7407C16.2414 30.9746 16.3895 31.1869 16.5764 31.3654ZM7.96709 32.5812L7.27053 30.3504C7.22264 30.1971 7.11695 30.0665 6.97414 29.9842L3.9562 28.2447V26.4366L5.66266 27.2563C5.7555 27.3008 5.85786 27.324 5.96164 27.324H7.96709V32.5812ZM1.95076 32.2823L4.07895 32.9637L5.07591 36.3149H1.95076V32.2823ZM6.46593 36.3149L5.26734 32.285C5.23749 32.1847 5.18263 32.0928 5.1075 32.0174C5.03237 31.942 4.93924 31.8853 4.83617 31.8523L1.28227 30.7144V23.4708C1.28252 23.3005 1.35302 23.1373 1.47834 23.0169C1.60365 22.8966 1.77354 22.8288 1.95076 22.8286C2.30071 22.8286 2.6855 23.1481 2.78962 23.2569C2.83423 23.3049 2.88619 23.3462 2.9437 23.3792L6.28611 25.3058C6.39004 25.3657 6.50894 25.3973 6.63012 25.3974H8.63557V26.0396H6.11932L3.5867 24.8229C3.48477 24.774 3.37152 24.7509 3.25768 24.7558C3.14384 24.7607 3.0332 24.7935 2.93626 24.8511C2.83933 24.9086 2.75932 24.989 2.70383 25.0846C2.64835 25.1803 2.61923 25.2879 2.61924 25.3974V28.6084C2.61924 28.7193 2.64913 28.8283 2.70599 28.9248C2.76285 29.0213 2.84474 29.102 2.9437 29.159L6.06417 30.9578L7.73696 36.3149H6.46593ZM9.30405 36.3149V29.8928H10.641V36.3149H9.30405ZM19.2529 36.3149L18.6575 31.7398C18.6392 31.5981 18.5721 31.4663 18.4669 31.3654L17.5217 30.4572C17.4594 30.3977 17.41 30.3269 17.3764 30.2489C17.3428 30.1709 17.3256 30.0873 17.3258 30.0029V29.8928H22.6737V30.0029C22.6739 30.0873 22.6567 30.1709 22.6231 30.2489C22.5895 30.3269 22.5401 30.3977 22.4778 30.4572L21.5326 31.3654C21.4274 31.4663 21.3603 31.5981 21.3419 31.7398L20.7465 36.3149H19.2529ZM29.3585 36.3149V29.8928H30.6954V36.3149H29.3585ZM35.0996 36.3149L32.2567 31.3986L37.0659 28.5109C37.1621 28.4531 37.2414 28.3728 37.2963 28.2776C37.3513 28.1823 37.3802 28.0752 37.3803 27.9662V25.3974C37.3803 25.2879 37.3511 25.1803 37.2957 25.0846C37.2402 24.989 37.1602 24.9086 37.0632 24.8511C36.9663 24.7935 36.8557 24.7607 36.7418 24.7558C36.628 24.7509 36.5147 24.774 36.4128 24.8229L33.8802 26.0396H31.3639V25.3974H33.3694C33.4906 25.3973 33.6095 25.3657 33.7134 25.3058L37.0558 23.3792C37.1133 23.3462 37.1653 23.3049 37.2099 23.2569C37.2941 23.1666 37.6838 22.8286 38.0487 22.8286C38.226 22.8288 38.3958 22.8966 38.5212 23.0169C38.6465 23.1373 38.717 23.3005 38.7172 23.4708V29.4695L34.4429 31.2292C34.297 31.2894 34.178 31.3974 34.1074 31.5341C34.0368 31.6708 34.0192 31.8272 34.0577 31.9752L35.1871 36.3149H35.0996ZM38.0487 36.3149H36.5653L35.493 32.1942L38.0487 31.1419V36.3149Z" fill="#2349D7"/>
<path d="M22.0049 9.87471V11.9114C22.0049 12.0276 22.0378 12.1417 22.1 12.2414C22.1621 12.3411 22.2513 12.4227 22.358 12.4775C22.4647 12.5324 22.5848 12.5584 22.7057 12.5528C22.8265 12.5472 22.9435 12.5102 23.0442 12.4457L25.3808 10.949C25.4596 11.3969 25.7007 11.8037 26.0616 12.0974C26.4225 12.391 26.8798 12.5526 27.3528 12.5536H29.8243L33.6668 15.0145C33.7674 15.079 33.8844 15.116 34.0053 15.1216C34.1261 15.1273 34.2463 15.1013 34.353 15.0464C34.4597 14.9916 34.5489 14.9099 34.611 14.8102C34.6732 14.7105 34.7061 14.5964 34.7061 14.4802V12.4435C35.0968 12.3103 35.4351 12.0642 35.6744 11.739C35.9138 11.4137 36.0426 11.0253 36.043 10.627V6.77375C36.0424 6.26295 35.831 5.77325 35.455 5.41206C35.079 5.05088 34.5693 4.84771 34.0376 4.84714H31.3637V4.20493C31.3631 3.69414 31.1516 3.20443 30.7756 2.84325C30.3997 2.48206 29.8899 2.27889 29.3582 2.27832H22.6734C22.1417 2.27889 21.632 2.48206 21.256 2.84325C20.88 3.20443 20.6686 3.69414 20.668 4.20493V8.05816C20.6684 8.45648 20.7972 8.84491 21.0365 9.17015C21.2759 9.49538 21.6142 9.74149 22.0049 9.87471ZM34.0376 6.13154C34.2148 6.13178 34.3847 6.19951 34.51 6.3199C34.6353 6.44029 34.7058 6.6035 34.7061 6.77375V10.627C34.7058 10.7972 34.6353 10.9604 34.51 11.0808C34.3847 11.2012 34.2148 11.2689 34.0376 11.2692C33.8603 11.2692 33.6903 11.3368 33.5649 11.4573C33.4395 11.5777 33.3691 11.7411 33.3691 11.9114V13.2802L30.3975 11.3771C30.2877 11.3068 30.1587 11.2692 30.0267 11.2692H27.3528C27.1756 11.2689 27.0057 11.2012 26.8804 11.0808C26.7551 10.9604 26.6845 10.7972 26.6843 10.627V10.1144L26.8867 9.98477H29.3582C29.8899 9.98419 30.3997 9.78103 30.7756 9.41984C31.1516 9.05866 31.3631 8.56895 31.3637 8.05816V6.13154H34.0376ZM26.6843 8.70036V6.77375C26.6845 6.6035 26.7551 6.44029 26.8804 6.3199C27.0057 6.19951 27.1756 6.13178 27.3528 6.13154H30.0267V8.05816C30.0265 8.22841 29.956 8.39162 29.8306 8.512C29.7053 8.63239 29.5354 8.70013 29.3582 8.70036H26.6843ZM22.0049 4.20493C22.0052 4.03468 22.0757 3.87147 22.201 3.75108C22.3263 3.6307 22.4962 3.56296 22.6734 3.56273H29.3582C29.5354 3.56296 29.7053 3.6307 29.8306 3.75108C29.956 3.87147 30.0265 4.03468 30.0267 4.20493V4.84714H27.3528C26.8211 4.84771 26.3113 5.05088 25.9354 5.41206C25.5594 5.77325 25.3479 6.26295 25.3473 6.77375V9.42701L23.3419 10.7114V9.34256C23.3419 9.17224 23.2715 9.00889 23.1461 8.88846C23.0207 8.76802 22.8507 8.70036 22.6734 8.70036C22.4962 8.70013 22.3263 8.63239 22.201 8.512C22.0757 8.39162 22.0052 8.22841 22.0049 8.05816V4.20493Z" fill="#2349D7"/>
<path d="M3.28669 11.9115V13.8381C3.2867 13.9544 3.31954 14.0684 3.38172 14.1682C3.4439 14.2679 3.53309 14.3495 3.63977 14.4044C3.74645 14.4592 3.86663 14.4852 3.98748 14.4796C4.10834 14.474 4.22534 14.4369 4.32601 14.3724L8.16844 11.9115H11.3085C11.8402 11.911 12.3499 11.7078 12.7259 11.3466C13.1018 10.9854 13.3133 10.4957 13.3139 9.98491V6.13169C13.3133 5.6209 13.1018 5.13119 12.7259 4.77C12.3499 4.40882 11.8402 4.20565 11.3085 4.20508H3.28669C2.755 4.20565 2.24525 4.40882 1.86929 4.77C1.49333 5.13119 1.28185 5.6209 1.28125 6.13169V9.98491C1.28185 10.4957 1.49333 10.9854 1.86929 11.3466C2.24525 11.7078 2.755 11.911 3.28669 11.9115ZM2.61821 6.13169C2.61846 5.96144 2.68896 5.79823 2.81427 5.67784C2.93959 5.55745 3.10948 5.48972 3.28669 5.48949H11.3085C11.4857 5.48972 11.6556 5.55745 11.7809 5.67784C11.9062 5.79823 11.9767 5.96144 11.9769 6.13169V9.98491C11.9767 10.1552 11.9062 10.3184 11.7809 10.4388C11.6556 10.5591 11.4857 10.6269 11.3085 10.6271H7.96606C7.83408 10.6272 7.70506 10.6647 7.59522 10.735L4.62366 12.6381V11.2693C4.62366 11.099 4.55323 10.9356 4.42786 10.8152C4.3025 10.6948 4.13247 10.6271 3.95517 10.6271H3.28669C3.10948 10.6269 2.93959 10.5591 2.81427 10.4388C2.68896 10.3184 2.61846 10.1552 2.61821 9.98491V6.13169Z" fill="#2349D7"/>
<path d="M5.29399 7.41602H3.95703V8.70042H5.29399V7.41602Z" fill="#2349D7"/>
<path d="M7.96782 7.41602H6.63086V8.70042H7.96782V7.41602Z" fill="#2349D7"/>
<path d="M10.6417 7.41602H9.30469V8.70042H10.6417V7.41602Z" fill="#2349D7"/>
<path d="M20.0001 19.6181C20.5289 19.6181 21.0459 19.4674 21.4857 19.1852C21.9254 18.9029 22.2681 18.5017 22.4705 18.0323C22.6729 17.5629 22.7258 17.0464 22.6226 16.5481C22.5195 16.0498 22.2648 15.5921 21.8908 15.2329C21.5169 14.8736 21.0404 14.6289 20.5218 14.5298C20.0031 14.4307 19.4654 14.4816 18.9768 14.676C18.4882 14.8704 18.0706 15.1997 17.7768 15.6221C17.483 16.0446 17.3262 16.5412 17.3262 17.0493C17.327 17.7303 17.6089 18.3833 18.1102 18.8649C18.6115 19.3465 19.2912 19.6173 20.0001 19.6181ZM20.0001 15.7649C20.2645 15.7649 20.523 15.8402 20.7429 15.9813C20.9627 16.1225 21.1341 16.3231 21.2353 16.5578C21.3365 16.7925 21.363 17.0507 21.3114 17.2999C21.2598 17.549 21.1325 17.7779 20.9455 17.9575C20.7585 18.1371 20.5203 18.2595 20.2609 18.309C20.0016 18.3586 19.7328 18.3331 19.4885 18.2359C19.2442 18.1387 19.0354 17.9741 18.8885 17.7629C18.7415 17.5516 18.6631 17.3033 18.6631 17.0493C18.6635 16.7087 18.8045 16.3822 19.0551 16.1414C19.3058 15.9006 19.6456 15.7652 20.0001 15.7649Z" fill="#2349D7"/>
<path d="M34.7051 18.3335C34.7051 18.8415 34.8619 19.3382 35.1557 19.7606C35.4495 20.1831 35.8671 20.5123 36.3557 20.7067C36.8443 20.9012 37.382 20.952 37.9007 20.8529C38.4194 20.7538 38.8958 20.5091 39.2698 20.1499C39.6437 19.7906 39.8984 19.3329 40.0016 18.8346C40.1047 18.3363 40.0518 17.8198 39.8494 17.3504C39.647 16.881 39.3043 16.4798 38.8646 16.1976C38.4248 15.9153 37.9079 15.7646 37.379 15.7646C36.6701 15.7654 35.9904 16.0363 35.4891 16.5179C34.9878 16.9995 34.7059 17.6524 34.7051 18.3335ZM37.379 17.0491C37.6434 17.0491 37.9019 17.1244 38.1218 17.2655C38.3417 17.4067 38.513 17.6072 38.6142 17.8419C38.7154 18.0766 38.7419 18.3349 38.6903 18.584C38.6387 18.8332 38.5114 19.0621 38.3244 19.2417C38.1374 19.4213 37.8992 19.5436 37.6398 19.5932C37.3805 19.6428 37.1117 19.6173 36.8674 19.5201C36.6231 19.4229 36.4143 19.2583 36.2674 19.047C36.1205 18.8358 36.042 18.5875 36.042 18.3335C36.0424 17.9929 36.1834 17.6664 36.434 17.4256C36.6847 17.1848 37.0245 17.0494 37.379 17.0491Z" fill="#2349D7"/>
<path d="M2.61924 20.9023C3.14809 20.9023 3.66506 20.7516 4.10479 20.4694C4.54451 20.1871 4.88724 19.7859 5.08962 19.3165C5.292 18.8471 5.34496 18.3306 5.24178 17.8323C5.13861 17.334 4.88394 16.8763 4.50999 16.517C4.13603 16.1578 3.65958 15.9131 3.14089 15.814C2.6222 15.7149 2.08457 15.7658 1.59597 15.9602C1.10737 16.1546 0.689765 16.4839 0.39595 16.9063C0.102135 17.3287 -0.0546875 17.8254 -0.0546875 18.3335C-0.0538913 19.0145 0.228081 19.6675 0.729366 20.149C1.23065 20.6306 1.91031 20.9015 2.61924 20.9023ZM2.61924 17.0491C2.88366 17.0491 3.14215 17.1244 3.36201 17.2655C3.58188 17.4067 3.75324 17.6072 3.85443 17.8419C3.95562 18.0766 3.9821 18.3349 3.93051 18.584C3.87892 18.8332 3.75159 19.0621 3.56461 19.2417C3.37763 19.4213 3.13941 19.5436 2.88007 19.5932C2.62072 19.6428 2.3519 19.6173 2.1076 19.5201C1.86331 19.4229 1.6545 19.2583 1.50759 19.047C1.36069 18.8358 1.28227 18.5875 1.28227 18.3335C1.28263 17.9929 1.4236 17.6664 1.67425 17.4256C1.92491 17.1848 2.26476 17.0494 2.61924 17.0491Z" fill="#2349D7"/>
<path d="M38.0487 21.5442C37.1893 21.5442 36.5208 22.1026 36.292 22.3219L33.1843 24.113H30.6954C30.5182 24.113 30.3481 24.1806 30.2228 24.3011C30.0974 24.4215 30.027 24.5849 30.027 24.7552V26.0396H28.5878L28.0124 22.7229C27.9829 22.5552 27.8854 22.4056 27.7412 22.3069C27.597 22.2082 27.4179 22.1684 27.2433 22.1964C27.0687 22.2244 26.9127 22.3178 26.8097 22.4561C26.7066 22.5944 26.6649 22.7664 26.6937 22.9342L27.2325 26.0396H25.2588L24.7714 22.7615C24.7256 22.4532 24.6026 22.1601 24.413 21.9075C24.2234 21.6549 23.9729 21.4502 23.6829 21.3109L21.6357 20.3275C21.5429 20.2829 21.4405 20.2597 21.3367 20.2598H18.6628C18.559 20.2597 18.4566 20.2829 18.3638 20.3275L16.3166 21.3109C16.0266 21.4502 15.7762 21.655 15.5867 21.9077C15.3972 22.1604 15.2743 22.4535 15.2285 22.7618L14.7407 26.0396H12.767L13.3058 22.9342C13.3205 22.851 13.3179 22.7657 13.2982 22.6834C13.2785 22.6011 13.2421 22.5234 13.1911 22.4546C13.1401 22.3858 13.0754 22.3274 13.0009 22.2827C12.9263 22.2379 12.8433 22.2077 12.7566 22.1938C12.6699 22.18 12.5812 22.1826 12.4956 22.2017C12.41 22.2208 12.3291 22.2559 12.2576 22.3051C12.1862 22.3542 12.1255 22.4164 12.079 22.4881C12.0326 22.5598 12.0014 22.6396 11.9871 22.7229L11.4117 26.0396H9.97253V24.7552C9.97253 24.5849 9.9021 24.4215 9.77674 24.3011C9.65137 24.1806 9.48134 24.113 9.30405 24.113H6.81521L3.70744 22.3219C3.47865 22.1026 2.81017 21.5442 1.95076 21.5442C1.41906 21.5447 0.909317 21.7479 0.533353 22.1091C0.157389 22.4703 -0.0540903 22.96 -0.0546875 23.4708V31.1772C-0.0547037 31.312 -0.0105777 31.4434 0.0714405 31.5527C0.153459 31.6621 0.269211 31.7439 0.402303 31.7865L0.613794 31.8543V36.3149H-0.0546875V37.5993H40.0542V36.3149H39.3857V30.5912L39.6491 30.4828C39.7693 30.4333 39.8717 30.351 39.9437 30.2461C40.0157 30.1413 40.0541 30.0184 40.0542 29.8928V23.4708C40.0536 22.96 39.8421 22.4703 39.4661 22.1091C39.0902 21.7479 38.5804 21.5447 38.0487 21.5442ZM32.0324 33.6556L33.5699 36.3149H32.0324V33.6556ZM32.0324 27.324H34.0378C34.1416 27.324 34.244 27.3008 34.3368 27.2563L36.0433 26.4366V27.6103L32.0324 30.0185V27.324ZM16.5512 22.944C16.5665 22.8411 16.6076 22.7433 16.6709 22.659C16.7342 22.5746 16.8178 22.5063 16.9145 22.4598L18.8205 21.5442H21.179L23.0853 22.4598C23.1819 22.5063 23.2654 22.5746 23.3286 22.6589C23.3919 22.7432 23.4329 22.8409 23.4483 22.9437L23.9084 26.0396H22.6737V23.4708C22.6737 23.3005 22.6032 23.1371 22.4779 23.0167C22.3525 22.8962 22.1825 22.8286 22.0052 22.8286H17.9943C17.817 22.8286 17.647 22.8962 17.5216 23.0167C17.3962 23.1371 17.3258 23.3005 17.3258 23.4708V26.0396H16.0911L16.5512 22.944ZM21.3367 26.0396H18.6628V24.113H21.3367V26.0396ZM30.6954 27.324V28.6084H9.30405V27.324H30.6954ZM24.0106 30.0029V29.8928H28.0215V36.3149H22.0939L22.6401 32.1177L23.4231 31.3654C23.61 31.1869 23.7581 30.9746 23.859 30.7407C23.9598 30.5068 24.0114 30.256 24.0106 30.0029ZM16.5764 31.3654L17.3594 32.1177L17.9056 36.3149H11.978V29.8928H15.9889V30.0029C15.9881 30.256 16.0397 30.5068 16.1405 30.7407C16.2414 30.9746 16.3895 31.1869 16.5764 31.3654ZM7.96709 32.5812L7.27053 30.3504C7.22264 30.1971 7.11695 30.0665 6.97414 29.9842L3.9562 28.2447V26.4366L5.66266 27.2563C5.7555 27.3008 5.85786 27.324 5.96164 27.324H7.96709V32.5812ZM1.95076 32.2823L4.07895 32.9637L5.07591 36.3149H1.95076V32.2823ZM6.46593 36.3149L5.26734 32.285C5.23749 32.1847 5.18263 32.0928 5.1075 32.0174C5.03237 31.942 4.93924 31.8853 4.83617 31.8523L1.28227 30.7144V23.4708C1.28252 23.3005 1.35302 23.1373 1.47834 23.0169C1.60365 22.8966 1.77354 22.8288 1.95076 22.8286C2.30071 22.8286 2.6855 23.1481 2.78962 23.2569C2.83423 23.3049 2.88619 23.3462 2.9437 23.3792L6.28611 25.3058C6.39004 25.3657 6.50894 25.3973 6.63012 25.3974H8.63557V26.0396H6.11932L3.5867 24.8229C3.48477 24.774 3.37152 24.7509 3.25768 24.7558C3.14384 24.7607 3.0332 24.7935 2.93626 24.8511C2.83933 24.9086 2.75932 24.989 2.70383 25.0846C2.64835 25.1803 2.61923 25.2879 2.61924 25.3974V28.6084C2.61924 28.7193 2.64913 28.8283 2.70599 28.9248C2.76285 29.0213 2.84474 29.102 2.9437 29.159L6.06417 30.9578L7.73696 36.3149H6.46593ZM9.30405 36.3149V29.8928H10.641V36.3149H9.30405ZM19.2529 36.3149L18.6575 31.7398C18.6392 31.5981 18.5721 31.4663 18.4669 31.3654L17.5217 30.4572C17.4594 30.3977 17.41 30.3269 17.3764 30.2489C17.3428 30.1709 17.3256 30.0873 17.3258 30.0029V29.8928H22.6737V30.0029C22.6739 30.0873 22.6567 30.1709 22.6231 30.2489C22.5895 30.3269 22.5401 30.3977 22.4778 30.4572L21.5326 31.3654C21.4274 31.4663 21.3603 31.5981 21.3419 31.7398L20.7465 36.3149H19.2529ZM29.3585 36.3149V29.8928H30.6954V36.3149H29.3585ZM35.0996 36.3149L32.2567 31.3986L37.0659 28.5109C37.1621 28.4531 37.2414 28.3728 37.2963 28.2776C37.3513 28.1823 37.3802 28.0752 37.3803 27.9662V25.3974C37.3803 25.2879 37.3511 25.1803 37.2957 25.0846C37.2402 24.989 37.1602 24.9086 37.0632 24.8511C36.9663 24.7935 36.8557 24.7607 36.7418 24.7558C36.628 24.7509 36.5147 24.774 36.4128 24.8229L33.8802 26.0396H31.3639V25.3974H33.3694C33.4906 25.3973 33.6095 25.3657 33.7134 25.3058L37.0558 23.3792C37.1133 23.3462 37.1653 23.3049 37.2099 23.2569C37.2941 23.1666 37.6838 22.8286 38.0487 22.8286C38.226 22.8288 38.3958 22.8966 38.5212 23.0169C38.6465 23.1373 38.717 23.3005 38.7172 23.4708V29.4695L34.4429 31.2292C34.297 31.2894 34.178 31.3974 34.1074 31.5341C34.0368 31.6708 34.0192 31.8272 34.0577 31.9752L35.1871 36.3149H35.0996ZM38.0487 36.3149H36.5653L35.493 32.1942L38.0487 31.1419V36.3149Z" fill="#2349D7"/>
<path d="M22.0049 9.87471V11.9114C22.0049 12.0276 22.0378 12.1417 22.1 12.2414C22.1621 12.3411 22.2513 12.4227 22.358 12.4775C22.4647 12.5324 22.5848 12.5584 22.7057 12.5528C22.8265 12.5472 22.9435 12.5102 23.0442 12.4457L25.3808 10.949C25.4596 11.3969 25.7007 11.8037 26.0616 12.0974C26.4225 12.391 26.8798 12.5526 27.3528 12.5536H29.8243L33.6668 15.0145C33.7674 15.079 33.8844 15.116 34.0053 15.1216C34.1261 15.1273 34.2463 15.1013 34.353 15.0464C34.4597 14.9916 34.5489 14.9099 34.611 14.8102C34.6732 14.7105 34.7061 14.5964 34.7061 14.4802V12.4435C35.0968 12.3103 35.4351 12.0642 35.6744 11.739C35.9138 11.4137 36.0426 11.0253 36.043 10.627V6.77375C36.0424 6.26295 35.831 5.77325 35.455 5.41206C35.079 5.05088 34.5693 4.84771 34.0376 4.84714H31.3637V4.20493C31.3631 3.69414 31.1516 3.20443 30.7756 2.84325C30.3997 2.48206 29.8899 2.27889 29.3582 2.27832H22.6734C22.1417 2.27889 21.632 2.48206 21.256 2.84325C20.88 3.20443 20.6686 3.69414 20.668 4.20493V8.05816C20.6684 8.45648 20.7972 8.84491 21.0365 9.17015C21.2759 9.49538 21.6142 9.74149 22.0049 9.87471ZM34.0376 6.13154C34.2148 6.13178 34.3847 6.19951 34.51 6.3199C34.6353 6.44029 34.7058 6.6035 34.7061 6.77375V10.627C34.7058 10.7972 34.6353 10.9604 34.51 11.0808C34.3847 11.2012 34.2148 11.2689 34.0376 11.2692C33.8603 11.2692 33.6903 11.3368 33.5649 11.4573C33.4395 11.5777 33.3691 11.7411 33.3691 11.9114V13.2802L30.3975 11.3771C30.2877 11.3068 30.1587 11.2692 30.0267 11.2692H27.3528C27.1756 11.2689 27.0057 11.2012 26.8804 11.0808C26.7551 10.9604 26.6845 10.7972 26.6843 10.627V10.1144L26.8867 9.98477H29.3582C29.8899 9.98419 30.3997 9.78103 30.7756 9.41984C31.1516 9.05866 31.3631 8.56895 31.3637 8.05816V6.13154H34.0376ZM26.6843 8.70036V6.77375C26.6845 6.6035 26.7551 6.44029 26.8804 6.3199C27.0057 6.19951 27.1756 6.13178 27.3528 6.13154H30.0267V8.05816C30.0265 8.22841 29.956 8.39162 29.8306 8.512C29.7053 8.63239 29.5354 8.70013 29.3582 8.70036H26.6843ZM22.0049 4.20493C22.0052 4.03468 22.0757 3.87147 22.201 3.75108C22.3263 3.6307 22.4962 3.56296 22.6734 3.56273H29.3582C29.5354 3.56296 29.7053 3.6307 29.8306 3.75108C29.956 3.87147 30.0265 4.03468 30.0267 4.20493V4.84714H27.3528C26.8211 4.84771 26.3113 5.05088 25.9354 5.41206C25.5594 5.77325 25.3479 6.26295 25.3473 6.77375V9.42701L23.3419 10.7114V9.34256C23.3419 9.17224 23.2715 9.00889 23.1461 8.88846C23.0207 8.76802 22.8507 8.70036 22.6734 8.70036C22.4962 8.70013 22.3263 8.63239 22.201 8.512C22.0757 8.39162 22.0052 8.22841 22.0049 8.05816V4.20493Z" fill="#2349D7"/>
<path d="M3.28669 11.9115V13.8381C3.2867 13.9544 3.31954 14.0684 3.38172 14.1682C3.4439 14.2679 3.53309 14.3495 3.63977 14.4044C3.74645 14.4592 3.86663 14.4852 3.98748 14.4796C4.10834 14.474 4.22534 14.4369 4.32601 14.3724L8.16844 11.9115H11.3085C11.8402 11.911 12.3499 11.7078 12.7259 11.3466C13.1018 10.9854 13.3133 10.4957 13.3139 9.98491V6.13169C13.3133 5.6209 13.1018 5.13119 12.7259 4.77C12.3499 4.40882 11.8402 4.20565 11.3085 4.20508H3.28669C2.755 4.20565 2.24525 4.40882 1.86929 4.77C1.49333 5.13119 1.28185 5.6209 1.28125 6.13169V9.98491C1.28185 10.4957 1.49333 10.9854 1.86929 11.3466C2.24525 11.7078 2.755 11.911 3.28669 11.9115ZM2.61821 6.13169C2.61846 5.96144 2.68896 5.79823 2.81427 5.67784C2.93959 5.55745 3.10948 5.48972 3.28669 5.48949H11.3085C11.4857 5.48972 11.6556 5.55745 11.7809 5.67784C11.9062 5.79823 11.9767 5.96144 11.9769 6.13169V9.98491C11.9767 10.1552 11.9062 10.3184 11.7809 10.4388C11.6556 10.5591 11.4857 10.6269 11.3085 10.6271H7.96606C7.83408 10.6272 7.70506 10.6647 7.59522 10.735L4.62366 12.6381V11.2693C4.62366 11.099 4.55323 10.9356 4.42786 10.8152C4.3025 10.6948 4.13247 10.6271 3.95517 10.6271H3.28669C3.10948 10.6269 2.93959 10.5591 2.81427 10.4388C2.68896 10.3184 2.61846 10.1552 2.61821 9.98491V6.13169Z" fill="#2349D7"/>
<path d="M5.29399 7.41602H3.95703V8.70042H5.29399V7.41602Z" fill="#2349D7"/>
<path d="M7.96782 7.41602H6.63086V8.70042H7.96782V7.41602Z" fill="#2349D7"/>
<path d="M10.6417 7.41602H9.30469V8.70042H10.6417V7.41602Z" fill="#2349D7"/>
<path d="M20.0001 19.6181C20.5289 19.6181 21.0459 19.4674 21.4857 19.1852C21.9254 18.9029 22.2681 18.5017 22.4705 18.0323C22.6729 17.5629 22.7258 17.0464 22.6226 16.5481C22.5195 16.0498 22.2648 15.5921 21.8908 15.2329C21.5169 14.8736 21.0404 14.6289 20.5218 14.5298C20.0031 14.4307 19.4654 14.4816 18.9768 14.676C18.4882 14.8704 18.0706 15.1997 17.7768 15.6221C17.483 16.0446 17.3262 16.5412 17.3262 17.0493C17.327 17.7303 17.6089 18.3833 18.1102 18.8649C18.6115 19.3465 19.2912 19.6173 20.0001 19.6181ZM20.0001 15.7649C20.2645 15.7649 20.523 15.8402 20.7429 15.9813C20.9627 16.1225 21.1341 16.3231 21.2353 16.5578C21.3365 16.7925 21.363 17.0507 21.3114 17.2999C21.2598 17.549 21.1325 17.7779 20.9455 17.9575C20.7585 18.1371 20.5203 18.2595 20.2609 18.309C20.0016 18.3586 19.7328 18.3331 19.4885 18.2359C19.2442 18.1387 19.0354 17.9741 18.8885 17.7629C18.7415 17.5516 18.6631 17.3033 18.6631 17.0493C18.6635 16.7087 18.8045 16.3822 19.0551 16.1414C19.3058 15.9006 19.6456 15.7652 20.0001 15.7649Z" fill="#2349D7"/>
<path d="M34.7051 18.3335C34.7051 18.8415 34.8619 19.3382 35.1557 19.7606C35.4495 20.1831 35.8671 20.5123 36.3557 20.7067C36.8443 20.9012 37.382 20.952 37.9007 20.8529C38.4194 20.7538 38.8958 20.5091 39.2698 20.1499C39.6437 19.7906 39.8984 19.3329 40.0016 18.8346C40.1047 18.3363 40.0518 17.8198 39.8494 17.3504C39.647 16.881 39.3043 16.4798 38.8646 16.1976C38.4248 15.9153 37.9079 15.7646 37.379 15.7646C36.6701 15.7654 35.9904 16.0363 35.4891 16.5179C34.9878 16.9995 34.7059 17.6524 34.7051 18.3335ZM37.379 17.0491C37.6434 17.0491 37.9019 17.1244 38.1218 17.2655C38.3417 17.4067 38.513 17.6072 38.6142 17.8419C38.7154 18.0766 38.7419 18.3349 38.6903 18.584C38.6387 18.8332 38.5114 19.0621 38.3244 19.2417C38.1374 19.4213 37.8992 19.5436 37.6398 19.5932C37.3805 19.6428 37.1117 19.6173 36.8674 19.5201C36.6231 19.4229 36.4143 19.2583 36.2674 19.047C36.1205 18.8358 36.042 18.5875 36.042 18.3335C36.0424 17.9929 36.1834 17.6664 36.434 17.4256C36.6847 17.1848 37.0245 17.0494 37.379 17.0491Z" fill="#2349D7"/>
<path d="M2.61924 20.9023C3.14809 20.9023 3.66506 20.7516 4.10479 20.4694C4.54451 20.1871 4.88724 19.7859 5.08962 19.3165C5.292 18.8471 5.34496 18.3306 5.24178 17.8323C5.13861 17.334 4.88394 16.8763 4.50999 16.517C4.13603 16.1578 3.65958 15.9131 3.14089 15.814C2.6222 15.7149 2.08457 15.7658 1.59597 15.9602C1.10737 16.1546 0.689765 16.4839 0.39595 16.9063C0.102135 17.3287 -0.0546875 17.8254 -0.0546875 18.3335C-0.0538913 19.0145 0.228081 19.6675 0.729366 20.149C1.23065 20.6306 1.91031 20.9015 2.61924 20.9023ZM2.61924 17.0491C2.88366 17.0491 3.14215 17.1244 3.36201 17.2655C3.58188 17.4067 3.75324 17.6072 3.85443 17.8419C3.95562 18.0766 3.9821 18.3349 3.93051 18.584C3.87892 18.8332 3.75159 19.0621 3.56461 19.2417C3.37763 19.4213 3.13941 19.5436 2.88007 19.5932C2.62072 19.6428 2.3519 19.6173 2.1076 19.5201C1.86331 19.4229 1.6545 19.2583 1.50759 19.047C1.36069 18.8358 1.28227 18.5875 1.28227 18.3335C1.28263 17.9929 1.4236 17.6664 1.67425 17.4256C1.92491 17.1848 2.26476 17.0494 2.61924 17.0491Z" fill="#2349D7"/>
</g>
<defs>
<clipPath id="clip0_3204_86067">
<rect width="40" height="40" fill="white"/>
</clipPath>
</defs>
</svg>
