<?xml version="1.0" encoding="UTF-8"?>
<svg width="50px" height="50px" viewBox="0 0 50 50" version="1.1" xmlns="http://www.w3.org/2000/svg" xmlns:xlink="http://www.w3.org/1999/xlink">
    <title>job</title>
    <g id="Sprint-8" stroke="none" stroke-width="1" fill="none" fill-rule="evenodd">
        <g id="HP_1440_newversion" transform="translate(-287.000000, -756.000000)" fill-rule="nonzero">
            <g id="Group-13" transform="translate(230.000000, 717.000000)">
                <g id="job" transform="translate(57.000000, 39.000000)">
                    <path d="M0.9765625,34.375 L49.0234375,34.375 L49.0234375,4.8828125 C49.0234375,2.72548828 47.2745117,0.9765625 45.1171875,0.9765625 L4.8828125,0.9765625 C2.72548828,0.9765625 0.9765625,2.72548828 0.9765625,4.8828125 L0.9765625,34.375 Z" id="Path" fill="#FFFFFF"></path>
                    <path d="M49.0234375,35.375 L0.9765625,35.375 L0.9765625,37.328125 C0.9765625,39.4854492 2.72548828,41.234375 4.8828125,41.234375 L45.1171875,41.234375 C47.2745117,41.234375 49.0234375,39.4854492 49.0234375,37.328125 L49.0234375,35.375 Z" id="Path" fill="#FFFFFF"></path>
                    <path d="M30.859375,42.6757812 L30.859375,40.234375 L19.140625,40.234375 L19.140625,42.6757812 C19.140625,44.5634766 17.6103516,45.1171875 15.7226562,45.1171875 C13.8349609,45.1171875 12.3046875,46.6474609 12.3046875,48.5351562 L12.3046875,49.0234375 L37.6953125,49.0234375 L37.6953125,48.5351562 C37.6953125,46.6474609 36.1650391,45.1171875 34.2773438,45.1171875 C32.3896484,45.1171875 30.859375,44.5634766 30.859375,42.6757812 Z" id="Path" fill="#FFFFFF"></path>
                    <g id="Group">
                        <circle id="Oval" fill="#FFFFFF" cx="26.7441406" cy="0.9765625" r="1"></circle>
                        <path d="M49.6162109,2.98242188 C49.3701172,2.40039062 49.0185547,1.87783203 48.5693359,1.4296875 C48.1210938,0.981445312 47.5996094,0.629980469 47.0175781,0.383789062 C46.4160156,0.128808594 45.7763672,-2.16840434e-16 45.1171875,-2.16840434e-16 L31.1386719,-2.16840434e-16 C30.5996094,-2.16840434e-16 30.1621094,0.438476562 30.1621094,0.9765625 C30.1621094,1.51464844 30.5996094,1.953125 31.1386719,1.953125 L45.1171875,1.953125 C46.7294922,1.95595703 48.0439453,3.27050781 48.046875,4.8828125 L48.046875,33.3984375 L1.953125,33.3984375 L1.953125,4.8828125 C1.95605469,3.27050781 3.27050781,1.95595703 4.8828125,1.953125 L22.3496094,1.953125 C22.8876953,1.953125 23.3261719,1.51464844 23.3261719,0.9765625 C23.3261719,0.438476562 22.8886719,0.0009765625 22.3505859,-2.16840434e-16 L22.3496094,-2.16840434e-16 L4.8828125,-2.16840434e-16 C4.22363281,-2.16840434e-16 3.58398438,0.128808594 2.98242188,0.383789062 C2.40039062,0.629980469 1.87890625,0.981445312 1.43066406,1.4296875 C0.981445312,1.87792969 0.629882812,2.40039062 0.383789062,2.98242188 C0.12890625,3.58398438 -2.16840434e-16,4.22363281 -2.16840434e-16,4.8828125 L-2.16840434e-16,36.328125 C-2.16840434e-16,39.0205078 2.19042969,41.2109375 4.8828125,41.2109375 L18.1640625,41.2109375 L18.1640625,42.6757812 C18.1640625,43.1512695 18.1640625,44.140625 15.7226562,44.140625 C13.2995117,44.140625 11.328125,46.1120117 11.328125,48.5351562 L11.328125,49.0234375 C11.328125,49.5626953 11.765332,50 12.3046875,50 L37.6953125,50 C38.234668,50 38.671875,49.5626953 38.671875,49.0234375 L38.671875,48.5351562 C38.671875,46.1120117 36.7004883,44.140625 34.2773438,44.140625 C31.8359375,44.140625 31.8359375,43.1512695 31.8359375,42.6757812 L31.8359375,41.2109375 L45.1171875,41.2109375 C47.8095703,41.2109375 50,39.0205078 50,36.328125 L50,4.8828125 C50,4.22363281 49.8710938,3.58398438 49.6162109,2.98242188 Z M34.2773438,45.09375 C35.4563477,45.09375 36.4428711,45.9339844 36.6697266,47.046875 L13.3302734,47.046875 C13.5571289,45.9339844 14.5436523,45.09375 15.7226562,45.09375 C15.7350586,45.09375 15.7464844,45.0931641 15.7587891,45.0931641 C15.7630859,45.0931641 15.7671875,45.09375 15.7714844,45.09375 L21.7773438,45.09375 C22.3166992,45.09375 22.7539062,44.6564453 22.7539062,44.1171875 C22.7539062,43.5779297 22.3166992,43.140625 21.7773438,43.140625 L19.821582,43.140625 C20.0519531,42.6306641 20.1171875,42.1044922 20.1171875,41.6757812 L20.1171875,40.2109375 L29.8828125,40.2109375 L29.8828125,41.6757812 C29.8828125,42.1044922 29.9480469,42.6306641 30.178418,43.140625 L28.2714844,43.140625 C27.7321289,43.140625 27.2949219,43.5779297 27.2949219,44.1171875 C27.2949219,44.6564453 27.7321289,45.09375 28.2714844,45.09375 L34.2773438,45.09375 Z M48.046875,36.328125 C48.046875,37.9435547 46.7326172,39.2578125 45.1171875,39.2578125 L4.8828125,39.2578125 C3.26738281,39.2578125 1.953125,37.9435547 1.953125,36.328125 L1.953125,35.3515625 L48.046875,35.3515625 L48.046875,36.328125 Z" id="Shape" fill="#1B2B67"></path>
                        <path d="M14.2700195,25.5859375 L6.45751953,25.5859375 C5.91816406,25.5859375 5.48095703,26.0232422 5.48095703,26.5625 C5.48095703,27.1017578 5.91816406,27.5390625 6.45751953,27.5390625 L14.2700195,27.5390625 C14.809375,27.5390625 15.246582,27.1017578 15.246582,26.5625 C15.246582,26.0232422 14.809375,25.5859375 14.2700195,25.5859375 Z" id="Path" fill="#1B2B67"></path>
                        <path d="M14.2700195,21.6796875 L6.45751953,21.6796875 C5.91816406,21.6796875 5.48095703,22.1169922 5.48095703,22.65625 C5.48095703,23.1955078 5.91816406,23.6328125 6.45751953,23.6328125 L14.2700195,23.6328125 C14.809375,23.6328125 15.246582,23.1955078 15.246582,22.65625 C15.246582,22.1169922 14.809375,21.6796875 14.2700195,21.6796875 Z" id="Path" fill="#1B2B67"></path>
                        <path d="M14.2700195,17.7734375 L9.38720703,17.7734375 C8.84785156,17.7734375 8.41064453,18.2107422 8.41064453,18.75 C8.41064453,19.2892578 8.84785156,19.7265625 9.38720703,19.7265625 L14.2700195,19.7265625 C14.809375,19.7265625 15.246582,19.2892578 15.246582,18.75 C15.246582,18.2107422 14.809375,17.7734375 14.2700195,17.7734375 Z" id="Path" fill="#1B2B67"></path>
                        <path d="M20.1044922,23.6328125 L24.0107422,23.6328125 C24.5498047,23.6328125 24.9873047,23.1943359 24.9873047,22.65625 C24.9873047,22.1181641 24.5498047,21.6796875 24.0107422,21.6796875 L20.1044922,21.6796875 C19.5664062,21.6796875 19.1279297,22.1181641 19.1279297,22.65625 C19.1279297,23.1943359 19.5664062,23.6328125 20.1044922,23.6328125 Z" id="Path" fill="#1B2B67"></path>
                        <path d="M29.3818359,22.65625 C29.3818359,22.1181641 28.9443359,21.6796875 28.4052734,21.6796875 C27.8671875,21.6796875 27.4296875,22.1181641 27.4296875,22.65625 C27.4296875,23.1943359 27.8671875,23.6328125 28.4052734,23.6328125 C28.9443359,23.6328125 29.3818359,23.1943359 29.3818359,22.65625 Z" id="Path" fill="#1B2B67"></path>
                        <path d="M28.894043,17.7734375 L20.1049805,17.7734375 C19.565625,17.7734375 19.128418,18.2107422 19.128418,18.75 C19.128418,19.2892578 19.565625,19.7265625 20.1049805,19.7265625 L28.894043,19.7265625 C29.4333984,19.7265625 29.8706055,19.2892578 29.8706055,18.75 C29.8706055,18.2107422 29.4333008,17.7734375 28.894043,17.7734375 Z" id="Path" fill="#1B2B67"></path>
                        <path d="M43.5424805,21.6796875 L34.753418,21.6796875 C34.2140625,21.6796875 33.7768555,22.1169922 33.7768555,22.65625 C33.7768555,23.1955078 34.2140625,23.6328125 34.753418,23.6328125 L43.5424805,23.6328125 C44.0818359,23.6328125 44.519043,23.1955078 44.519043,22.65625 C44.519043,22.1169922 44.0817383,21.6796875 43.5424805,21.6796875 Z" id="Path" fill="#1B2B67"></path>
                        <path d="M43.5424805,17.7734375 L35.7299805,17.7734375 C35.190625,17.7734375 34.753418,18.2107422 34.753418,18.75 C34.753418,19.2892578 35.190625,19.7265625 35.7299805,19.7265625 L43.5424805,19.7265625 C44.0818359,19.7265625 44.519043,19.2892578 44.519043,18.75 C44.519043,18.2107422 44.0817383,17.7734375 43.5424805,17.7734375 Z" id="Path" fill="#1B2B67"></path>
                        <path d="M16.015625,4.8828125 C16.015625,4.32197266 15.5428711,3.87158203 14.9741211,3.90830078 C14.4549805,3.94199219 14.0625,4.39609375 14.0625,4.91630859 L14.0625,12.6878906 C14.0625,13.055957 13.8709961,13.3918945 13.5525391,13.5648437 C13.2368164,13.7365234 12.8415039,13.6581055 12.5166016,13.4448242 C12.1313477,13.1918945 11.6207031,13.2811523 11.2989258,13.5741211 L11.299707,13.5741211 C10.8743164,14.0624023 10.9515625,14.7349609 11.4579102,15.0736328 C11.9666992,15.4138672 12.5845703,15.6229492 13.1529297,15.6229492 C13.5803711,15.6229492 14.0274414,15.5266602 14.4845703,15.2783203 C15.4327148,14.7633789 16.0155273,13.7724609 16.0155273,12.6876953 L16.0155273,4.8828125 L16.015625,4.8828125 Z" id="Path" fill="#1B2B67"></path>
                        <path d="M35.3930664,3.90625 L32.6045898,3.90625 C32.0652344,3.90625 31.640625,4.34355469 31.640625,4.8828125 L31.640625,14.6484375 C31.640625,15.1796875 32.075,15.625 32.6045898,15.625 L32.6089844,15.625 C32.634668,15.625 35.1826172,15.625 35.8799805,15.625 C37.8432617,15.625 39.4404297,13.9960938 39.4404297,12.0082031 C39.4404297,10.7956055 38.8456055,9.721875 37.9365234,9.06806641 C38.3391602,8.52822266 38.578418,7.85683594 38.578418,7.12988281 C38.5785156,5.35244141 37.1495117,3.90625 35.3930664,3.90625 L35.3930664,3.90625 Z M33.59375,5.859375 L35.3930664,5.859375 C36.0725586,5.859375 36.6253906,6.42705078 36.6253906,7.12753906 C36.6253906,7.82802734 36.0725586,8.3984375 35.3930664,8.3984375 C35.1916992,8.3984375 33.59375,8.3984375 33.59375,8.3984375 L33.59375,5.859375 Z M35.8863281,13.6602539 C35.4682617,13.6602539 34.375,13.6643555 33.59375,13.6676758 L33.59375,10.3561523 C33.8867188,10.3550781 35.8863281,10.3561523 35.8863281,10.3561523 C36.7726563,10.3561523 37.4936523,11.0972656 37.4936523,12.0082031 C37.4936523,12.9191406 36.7726563,13.6602539 35.8863281,13.6602539 Z" id="Shape" fill="#1B2B67"></path>
                        <path d="M17.9484375,9.765625 C17.9484375,12.9964844 20.5769531,15.625 23.8078125,15.625 C27.0386719,15.625 29.6671875,12.9964844 29.6671875,9.765625 C29.6671875,6.53476562 27.0386719,3.90625 23.8078125,3.90625 C20.5769531,3.90625 17.9484375,6.53476562 17.9484375,9.765625 L17.9484375,9.765625 Z M23.8078125,5.859375 C25.9617188,5.859375 27.7140625,7.61171875 27.7140625,9.765625 C27.7140625,11.9195312 25.9617188,13.671875 23.8078125,13.671875 C21.6539063,13.671875 19.9015625,11.9195312 19.9015625,9.765625 C19.9015625,7.61171875 21.6539063,5.859375 23.8078125,5.859375 L23.8078125,5.859375 Z" id="Shape" fill="#1B2B67"></path>
                    </g>
                </g>
            </g>
        </g>
    </g>
</svg>