<svg width="20" height="20" viewBox="0 0 20 20" fill="none" xmlns="http://www.w3.org/2000/svg">
<path d="M17.2871 0.902917C16.8271 0.902917 16.4538 1.27625 16.4538 1.73625V2.43083C14.6637 0.87 12.3808 0 9.94792 0C4.4625 0 0 4.47875 0 9.98333C0 10.4433 0.373333 10.8167 0.833333 10.8167C1.29333 10.8167 1.66667 10.4433 1.66667 9.98333C1.66667 5.3975 5.38167 1.66667 9.94792 1.66667C11.9508 1.66667 13.8325 2.37583 15.3158 3.64958H14.5521C14.0921 3.64958 13.7188 4.02292 13.7188 4.48292C13.7188 4.94292 14.0921 5.31625 14.5521 5.31625H17.2871C17.7471 5.31625 18.1204 4.94292 18.1204 4.48292V1.73625C18.1204 1.27625 17.7471 0.902917 17.2871 0.902917Z" fill="#2349D7"/>
<path d="M19.1665 9.18359C18.7065 9.18359 18.3331 9.55693 18.3331 10.0169C18.3331 14.6028 14.6181 18.3336 10.0519 18.3336C8.07229 18.3336 6.21062 17.6419 4.73562 16.3961H5.53603C5.99604 16.3961 6.36937 16.0228 6.36937 15.5628C6.36937 15.1028 5.99604 14.7294 5.53603 14.7294H2.80062C2.79312 14.7294 2.78645 14.7315 2.77937 14.7315C2.7477 14.7323 2.71645 14.7365 2.68479 14.7411C2.66145 14.7444 2.63812 14.7465 2.6152 14.7519C2.5877 14.7582 2.56062 14.7682 2.53354 14.7773C2.50854 14.7861 2.48312 14.7936 2.45895 14.8044C2.43604 14.8148 2.41437 14.8282 2.39229 14.8407C2.36604 14.8557 2.3402 14.8703 2.31562 14.8878C2.30937 14.8923 2.30229 14.8948 2.29604 14.8998C2.28187 14.9107 2.27104 14.924 2.2577 14.9357C2.23562 14.9548 2.21354 14.974 2.19354 14.9957C2.17479 15.0157 2.15854 15.0365 2.14229 15.0578C2.12604 15.079 2.1102 15.1003 2.09562 15.1228C2.08104 15.1461 2.06854 15.1703 2.05645 15.1944C2.04437 15.2182 2.03312 15.2423 2.02354 15.2673C2.01395 15.2932 2.00645 15.319 1.99937 15.3457C1.9927 15.3711 1.98562 15.3965 1.98145 15.4228C1.97645 15.4523 1.97437 15.4819 1.97229 15.5119C1.97104 15.529 1.96729 15.5457 1.96729 15.5632V18.3098C1.96729 18.7698 2.34062 19.1432 2.80062 19.1432C3.26062 19.1432 3.63395 18.7698 3.63395 18.3098V17.6473C5.4102 19.1594 7.65895 20.0003 10.0519 20.0003C15.5373 20.0003 19.9998 15.5215 19.9998 10.0169C19.9998 9.55693 19.6265 9.18359 19.1665 9.18359Z" fill="#2349D7"/>
</svg>
