<?xml version="1.0" encoding="UTF-8"?>
<svg width="15px" height="12px" viewBox="0 0 15 12" version="1.1" xmlns="http://www.w3.org/2000/svg" xmlns:xlink="http://www.w3.org/1999/xlink">
    <!-- Generator: Sketch 63.1 (92452) - https://sketch.com -->
    <title>Group</title>
    <desc>Created with Sketch.</desc>
    <g id="wireframes" stroke="none" stroke-width="1" fill="none" fill-rule="evenodd">
        <g id="Formulaire_step1" transform="translate(-32.000000, -132.000000)" fill="#23333C" fill-rule="nonzero" stroke="#23333C">
            <g id="Group-5" transform="translate(33.000000, 130.000000)">
                <g id="Group" transform="translate(6.500000, 7.500000) rotate(-90.000000) translate(-6.500000, -7.500000) translate(1.000000, 1.000000)">
                    <path d="M11.2803258,5.91843477 L0.475913225,5.91843477 L3.88711482,2.12972687 C4.05541476,1.9413314 4.03912412,1.65217265 3.85072867,1.4838727 C3.66233321,1.31557276 3.37317445,1.33186339 3.2048745,1.52025885 L-0.888567414,6.06852764 L-0.92267943,6.1117362 L-0.954517312,6.16176716 L-0.968162118,6.21179811 L-0.968162118,6.24591013 L-0.968162118,6.29594108 C-0.968162118,6.30731176 -0.968162118,6.31868243 -0.968162118,6.3300531 C-0.968162118,6.34142377 -1,6.35052031 -1,6.37326165 C-1,6.37326165 -1,6.39372886 -1,6.40509954 C-1,6.41647021 -1,6.42784088 -1,6.43921155 L-1,6.48924251 L-1,6.52335452 L-0.986355194,6.57338548 L-0.968162118,6.60294923 L-0.934050102,6.64843192 L3.17303662,11.2148938 C3.34133657,11.4032892 3.63049533,11.4195799 3.81889078,11.2512799 C4.00728624,11.08298 4.02357688,10.7938212 3.85527694,10.6054258 L0.475913225,6.82808853 L11.2803258,6.82808853 C11.5315197,6.82808853 11.7351526,6.6244556 11.7351526,6.37326165 C11.7351526,6.1220677 11.5315197,5.91843477 11.2803258,5.91843477 Z" id="Shape" transform="translate(5.367576, 6.367576) scale(-1, -1) rotate(-90.000000) translate(-5.367576, -6.367576) "></path>
                </g>
            </g>
        </g>
    </g>
</svg>