<?xml version="1.0" encoding="UTF-8" standalone="no"?>
<svg
   xmlns:dc="http://purl.org/dc/elements/1.1/"
   xmlns:cc="http://creativecommons.org/ns#"
   xmlns:rdf="http://www.w3.org/1999/02/22-rdf-syntax-ns#"
   xmlns:svg="http://www.w3.org/2000/svg"
   xmlns="http://www.w3.org/2000/svg"
   xmlns:sodipodi="http://sodipodi.sourceforge.net/DTD/sodipodi-0.dtd"
   xmlns:inkscape="http://www.inkscape.org/namespaces/inkscape"
   width="16px"
   height="17px"
   viewBox="0 0 16 17"
   version="1.1"
   id="svg12"
   sodipodi:docname="signout-white.svg"
   inkscape:version="1.0.1 (0767f8302a, 2020-10-17)">
  <metadata
     id="metadata18">
    <rdf:RDF>
      <cc:Work
         rdf:about="">
        <dc:format>image/svg+xml</dc:format>
        <dc:type
           rdf:resource="http://purl.org/dc/dcmitype/StillImage" />
        <dc:title>iconfinder_power_off_shut_down_log_out_5402411</dc:title>
      </cc:Work>
    </rdf:RDF>
  </metadata>
  <defs
     id="defs16" />
  <sodipodi:namedview
     pagecolor="#ffffff"
     bordercolor="#666666"
     borderopacity="1"
     objecttolerance="10"
     gridtolerance="10"
     guidetolerance="10"
     inkscape:pageopacity="0"
     inkscape:pageshadow="2"
     inkscape:window-width="1853"
     inkscape:window-height="1025"
     id="namedview14"
     showgrid="false"
     inkscape:zoom="51.647059"
     inkscape:cx="8"
     inkscape:cy="8.4322323"
     inkscape:window-x="1347"
     inkscape:window-y="27"
     inkscape:window-maximized="1"
     inkscape:current-layer="svg12" />
  <!-- Generator: Sketch 63.1 (92452) - https://sketch.com -->
  <title
     id="title2">iconfinder_power_off_shut_down_log_out_5402411</title>
  <desc
     id="desc4">Created with Sketch.</desc>
  <g
     id="Symbols"
     stroke="none"
     stroke-width="1"
     fill="none"
     fill-rule="evenodd">
    <g
       id="Header_mobile_connecte"
       transform="translate(-270.000000, -24.000000)"
       fill="#1B2B67"
       fill-rule="nonzero">
      <g
         id="iconfinder_power_off_shut_down_log_out_5402411"
         transform="translate(270.000000, 24.000000)">
        <path
           d="M8,10 C7.44771525,10 7,9.55228475 7,9 L7,1 C7,0.44771525 7.44771525,0 8,0 C8.55228475,0 9,0.44771525 9,1 L9,9 C9,9.55228475 8.55228475,10 8,10 Z"
           id="Path" />
        <path
           d="M8,17 C4.50790212,16.9961146 1.421827,14.7275889 0.376052186,11.3957549 C-0.66972263,8.06392093 0.566475808,4.43874758 3.43,2.44 C3.72217068,2.21351185 4.11545836,2.16668691 4.45263925,2.31824428 C4.78982014,2.46980166 5.01588279,2.79501459 5.04045461,3.1638734 C5.06502643,3.5327322 4.8840985,3.88505713 4.57,4.08 C2.41930401,5.57847926 1.49028899,8.2996407 2.27560069,10.8004843 C3.0609124,13.301328 5.37875348,15.0029158 8,15.0029158 C10.6212465,15.0029158 12.9390876,13.301328 13.7243993,10.8004843 C14.509711,8.2996407 13.580696,5.57847926 11.43,4.08 C11.0094663,3.75400593 10.9178547,3.15579186 11.2215568,2.71888707 C11.525259,2.28198228 12.1179046,2.1594104 12.57,2.44 C15.4335242,4.43874758 16.6697226,8.06392093 15.6239478,11.3957549 C14.578173,14.7275889 11.4920979,16.9961146 8,17 Z"
           id="path7" />
      </g>
    </g>
  </g>
  <path
     style="fill:#ffffff;stroke-width:0.0193622"
     d="M 7.7870159,16.986245 C 5.7781095,16.939282 3.8089096,16.08982 2.3653881,14.647494 1.4821001,13.764938 0.8450781,12.740199 0.43956963,11.549544 0.00100648,10.261835 -0.09563052,8.8655304 0.16019764,7.5129086 0.52722241,5.5723651 1.6175595,3.81713 3.1962463,2.6254485 3.6002393,2.320492 3.7659188,2.2458216 4.0376319,2.2462435 4.3172044,2.2466775 4.5401528,2.3391277 4.7374715,2.5364465 5.0508477,2.8498226 5.1181921,3.3078861 4.9086801,3.7009711 4.8310215,3.8466738 4.7093884,3.9713465 4.5051253,4.1146113 4.105112,4.3951699 3.6382599,4.8349309 3.3216045,5.2294527 1.4773489,7.5272159 1.5620727,10.812482 3.5223222,13.012525 c 0.8144429,0.914072 1.94625,1.57943 3.1434299,1.847936 C 7.1762445,14.974955 7.3710676,14.994529 8,14.994513 c 0.5078092,-1.3e-5 0.6161762,-0.0055 0.8616173,-0.04385 0.9272844,-0.14478 1.7078807,-0.443676 2.4589977,-0.941567 1.469628,-0.974169 2.411714,-2.498254 2.645357,-4.2795981 0.04549,-0.3468475 0.04599,-1.1071719 9.51e-4,-1.4466663 C 13.741567,6.5842466 12.891254,5.1363457 11.533599,4.1394036 11.347218,4.0025421 11.241191,3.8864144 11.165238,3.7359519 11.006927,3.4223398 11.022559,3.0522331 11.206202,2.7660495 11.28395,2.6448905 11.473246,2.4706101 11.59302,2.409916 c 0.271714,-0.1376878 0.607203,-0.1408917 0.880869,-0.00841 0.195176,0.094483 0.696409,0.4984963 1.080229,0.8707058 2.210883,2.1440057 2.993726,5.3770281 2.005106,8.2807802 -0.760412,2.233467 -2.443864,4.006261 -4.627256,4.872828 -0.994789,0.394822 -2.0657014,0.585657 -3.1449521,0.560427 z"
     id="path843" />
  <path
     style="fill:#ffffff;stroke-width:0.0193622"
     d="M 7.7702498,9.960171 C 7.4431178,9.8809896 7.1678729,9.6252354 7.0562729,9.2967526 L 7.0125285,9.1679954 7.0069132,5.1019362 C 7.0031996,2.4128509 7.0079962,0.98491816 7.021077,0.88540087 7.0868392,0.38508915 7.495794,0.01938842 7.9915793,0.01754598 8.1756451,0.01686196 8.2946542,0.04544459 8.4569228,0.1293083 c 0.2761585,0.14272429 0.4815941,0.43862935 0.5218567,0.7516712 0.013261,0.10310343 0.018045,1.5144915 0.014307,4.2209567 l -0.00562,4.0660592 -0.043744,0.1287572 C 8.7753167,9.7924509 8.2662773,10.080233 7.7702498,9.960171 Z"
     id="path845" />
</svg>
