<?xml version="1.0" encoding="UTF-8"?>
<svg width="16px" height="17px" viewBox="0 0 16 17" version="1.1" xmlns="http://www.w3.org/2000/svg" xmlns:xlink="http://www.w3.org/1999/xlink">
    <!-- Generator: Sketch 63.1 (92452) - https://sketch.com -->
    <title>iconfinder_power_off_shut_down_log_out_5402411</title>
    <desc>Created with Sketch.</desc>
    <g id="Symbols" stroke="none" stroke-width="1" fill="none" fill-rule="evenodd">
        <g id="Header_mobile_connecte" transform="translate(-270.000000, -24.000000)" fill="#414042" fill-rule="nonzero">
            <g id="iconfinder_power_off_shut_down_log_out_5402411" transform="translate(270.000000, 24.000000)">
                <path d="M8,10 C7.44771525,10 7,9.55228475 7,9 L7,1 C7,0.44771525 7.44771525,0 8,0 C8.55228475,0 9,0.44771525 9,1 L9,9 C9,9.55228475 8.55228475,10 8,10 Z" id="Path"></path>
                <path d="M8,17 C4.50790212,16.9961146 1.421827,14.7275889 0.376052186,11.3957549 C-0.66972263,8.06392093 0.566475808,4.43874758 3.43,2.44 C3.72217068,2.21351185 4.11545836,2.16668691 4.45263925,2.31824428 C4.78982014,2.46980166 5.01588279,2.79501459 5.04045461,3.1638734 C5.06502643,3.5327322 4.8840985,3.88505713 4.57,4.08 C2.41930401,5.57847926 1.49028899,8.2996407 2.27560069,10.8004843 C3.0609124,13.301328 5.37875348,15.0029158 8,15.0029158 C10.6212465,15.0029158 12.9390876,13.301328 13.7243993,10.8004843 C14.509711,8.2996407 13.580696,5.57847926 11.43,4.08 C11.0094663,3.75400593 10.9178547,3.15579186 11.2215568,2.71888707 C11.525259,2.28198228 12.1179046,2.1594104 12.57,2.44 C15.4335242,4.43874758 16.6697226,8.06392093 15.6239478,11.3957549 C14.578173,14.7275889 11.4920979,16.9961146 8,17 Z" id="Path"></path>
            </g>
        </g>
    </g>
</svg>