<?xml version="1.0" encoding="UTF-8"?>
<svg width="50px" height="57px" viewBox="0 0 50 57" version="1.1" xmlns="http://www.w3.org/2000/svg" xmlns:xlink="http://www.w3.org/1999/xlink">
    <title>simulation</title>
    <g id="Sprint-8" stroke="none" stroke-width="1" fill="none" fill-rule="evenodd">
        <g id="HP_1440_newversion" transform="translate(-677.000000, -748.000000)" fill="#1B2B67" fill-rule="nonzero">
            <g id="Group-12" transform="translate(615.000000, 717.000000)">
                <g id="simulation" transform="translate(62.000000, 31.000000)">
                    <path d="M49.8506944,16.4482956 C49.7165799,15.9460144 49.3949653,15.5259247 48.9453124,15.2658691 L47.3103299,14.3200149 C46.8606771,14.0599594 46.3368056,13.9908142 45.8350694,14.1256256 C45.3337673,14.2600022 44.9144966,14.5822449 44.6549479,15.0327759 L43.6792534,16.7257461 C43.265191,16.5309219 42.8003472,16.4878692 42.3528646,16.607895 C41.8515624,16.7427063 41.4322917,17.064949 41.1727431,17.51548 L41.1111111,17.6220245 L41.1111111,10.4091797 C41.1111111,8.1069488 39.2421876,6.234375 36.9444444,6.234375 L30.8667534,6.234375 C30.7309028,5.29199979 29.921875,4.56445312 28.9444444,4.56445312 L26.1111111,4.56445312 L26.1111111,2.50488281 C26.1111111,1.12371826 24.9895833,0 23.6111111,0 L17.5,0 C16.1215278,0 15,1.12371826 15,2.50488281 L15,4.56445312 L12.1666667,4.56445312 C11.1892361,4.56445312 10.3797743,5.29199979 10.2443577,6.234375 L4.16666667,6.234375 C1.86892356,6.234375 -1.0658141e-14,8.1069488 -1.0658141e-14,10.4091797 L-1.0658141e-14,52.8251953 C-1.0658141e-14,55.1274262 1.86892356,57 4.16666667,57 L30.171875,57 C30.6319444,57 31.0052083,56.6264419 31.0052083,56.1650391 C31.0052083,55.7036362 30.6319444,55.3300781 30.171875,55.3300781 L4.16666667,55.3300781 C2.78819444,55.3300781 1.66666667,54.2063599 1.66666667,52.8251953 L1.66666667,10.4091797 C1.66666667,9.02801514 2.78819444,7.90429687 4.16666667,7.90429687 L10.2222222,7.90429687 L10.2222222,11.9677734 C10.2222222,13.0419159 11.094618,13.9160156 12.1666667,13.9160156 L28.9444444,13.9160156 C30.0164931,13.9160156 30.8888889,13.0419159 30.8888889,11.9677734 L30.8888889,11.1884766 L36.1666667,11.1884766 L36.1666667,26.2029877 L27.687066,40.9187393 C27.3806423,41.4501572 27.2417534,42.0546341 27.2855902,42.6669388 L27.657118,47.8828354 C27.6896701,48.3390198 27.9440104,48.7499771 28.3372396,48.9822007 C28.5542534,49.110054 28.7977431,49.1748505 29.0425347,49.1748505 C29.2413194,49.1748505 29.4405382,49.1317978 29.6263021,49.0456924 L34.4171007,46.8195649 C34.9908854,46.5529861 35.4613716,46.1220245 35.7773438,45.5736465 L36.1666667,44.8982849 L36.1666667,52.0458984 L4.94444444,52.0458984 L4.94444444,11.1884766 L7.16666667,11.1884766 C7.62673611,11.1884766 8,10.8149185 8,10.3535156 C8,9.89211276 7.62673611,9.51855469 7.16666667,9.51855469 L4.66666667,9.51855469 C3.90060767,9.51855469 3.27777778,10.142601 3.27777778,10.9101563 L3.27777778,52.3242188 C3.27777778,53.091774 3.90060767,53.7158203 4.66666667,53.7158203 L36.4444444,53.7158203 C37.2100694,53.7158203 37.8333333,53.091774 37.8333333,52.3242188 L37.8333333,42.0054932 L39.4444444,39.2096787 L39.4444444,52.8251953 C39.4444444,54.2063599 38.3229167,55.3300781 36.9444444,55.3300781 L34.0603299,55.3300781 C33.6002604,55.3300781 33.2269966,55.7036362 33.2269966,56.1650391 C33.2269966,56.6260071 33.6002604,57 34.0603299,57 L36.9444444,57 C39.2417534,57 41.1111111,55.1269912 41.1111111,52.8251953 L41.1111111,36.3173218 L48.1414931,24.1164551 L49.2521701,22.1890869 C49.5117188,21.7385559 49.5807291,21.2136612 49.4461806,20.7113799 C49.3263889,20.2630234 49.0568577,19.8816376 48.6809896,19.6194077 L49.656684,17.9264374 C49.9162327,17.4759063 49.9852431,16.9510117 49.8506944,16.4482956 L49.8506944,16.4482956 Z M46.0980902,15.8677368 C46.1744791,15.7350998 46.344184,15.6894379 46.4769966,15.765976 L48.1119791,16.7118301 C48.1983507,16.7618408 48.2300347,16.8392486 48.2413194,16.8805618 C48.2521701,16.9223098 48.2634549,17.0045014 48.2135417,17.0914765 L47.2417534,18.7774887 L45.1267361,17.554184 L46.0980902,15.8677368 Z M42.6158854,18.350441 C42.6657987,18.2639008 42.7430556,18.2321548 42.7842882,18.221283 C42.8259549,18.2095413 42.9079861,18.1986694 42.9943577,18.2486801 L47.7070312,20.9749146 C47.7938368,21.0249253 47.8255209,21.1018982 47.8363716,21.1436462 C47.8476562,21.1849594 47.8585069,21.2675857 47.8085938,21.354126 L47.1145833,22.5582962 L41.922309,19.5546113 L42.6158854,18.350441 Z M16.6666667,2.50488281 C16.6666667,2.04434964 17.0403646,1.66992188 17.5,1.66992188 L23.6111111,1.66992188 C24.0707466,1.66992188 24.4444444,2.04434964 24.4444444,2.50488281 L24.4444444,4.56445312 L16.6666667,4.56445312 L16.6666667,2.50488281 Z M29.2222222,11.9677734 C29.2222222,12.1212845 29.0976562,12.2460938 28.9444444,12.2460938 L12.1666667,12.2460938 C12.0134549,12.2460938 11.8888889,12.1212845 11.8888889,11.9677734 L11.8888889,6.51269531 C11.8888889,6.35918429 12.0134549,6.234375 12.1666667,6.234375 L28.9444444,6.234375 C29.0976562,6.234375 29.2222222,6.35918429 29.2222222,6.51269531 L29.2222222,11.9677734 Z M36.4444444,9.51855469 L30.8888889,9.51855469 L30.8888889,7.90429687 L36.9444444,7.90429687 C38.3229167,7.90429687 39.4444444,9.02801514 39.4444444,10.4091797 L39.4444444,20.5148163 L37.8333333,23.3106308 L37.8333333,10.9101562 C37.8333333,10.142601 37.2105034,9.51855469 36.4444444,9.51855469 Z M41.0889757,21.0010071 L46.28125,24.0046921 L36.0651042,41.7345657 L30.8723958,38.7308808 L41.0889757,21.0010071 Z M34.3342013,44.7386856 C34.1905382,44.9878692 33.9765624,45.1835632 33.7161458,45.3044586 L33.7161458,45.3048935 L29.2907987,47.3609848 L28.9479167,42.5482178 C28.9279513,42.2698975 28.9913194,41.995491 29.1306423,41.7541352 L30.0390624,40.1768418 L35.2317709,43.1805268 L34.3342013,44.7386856 Z" id="Shape"></path>
                    <path d="M8.60763889,46.5838623 C8.766059,46.7251968 8.96397567,46.794342 9.16059022,46.794342 C9.390625,46.794342 9.61935767,46.6995391 9.78385422,46.5138474 L11.4361979,44.649971 L12.7152778,46.1785583 C12.9717882,46.4855805 13.3480902,46.6664887 13.7473958,46.6760559 C14.1471354,46.6830139 14.530816,46.5221099 14.8012153,46.2276993 L16.3394098,44.5542984 L18.0442709,46.4877548 C18.3493923,46.8334809 18.875868,46.8660965 19.2204861,46.5608139 C19.5655382,46.2555313 19.5980902,45.7280273 19.2934028,45.3823013 L17.3845487,43.2174912 C17.124566,42.9226455 16.750434,42.7513047 16.3580729,42.7473907 C16.3532987,42.7469558 16.3485243,42.7469558 16.34375,42.7469558 C15.9561632,42.7469558 15.5846354,42.9100342 15.3220487,43.1957473 L13.7894966,44.86306 L12.5065104,43.330124 C12.2469618,43.0200577 11.8663194,42.8387146 11.4618056,42.8326264 C11.0572917,42.8234939 10.672309,42.9974441 10.4040799,43.3001175 L8.53819444,45.4049148 C8.23220489,45.7497711 8.26345489,46.27771 8.60763889,46.5838623 L8.60763889,46.5838623 Z" id="Path"></path>
                    <path d="M33.1944444,18.4248047 C33.1944444,17.9634018 32.8211806,17.5898438 32.3611111,17.5898438 L8.69444444,17.5898438 C8.234375,17.5898438 7.86111111,17.9634018 7.86111111,18.4248047 C7.86111111,18.8862076 8.234375,19.2597656 8.69444444,19.2597656 L32.3611111,19.2597656 C32.8211806,19.2597656 33.1944444,18.8862076 33.1944444,18.4248047 Z" id="Path"></path>
                    <path d="M8.80555556,23.7128906 L18.6944444,23.7128906 C19.1545139,23.7128906 19.5277778,23.3393326 19.5277778,22.8779297 C19.5277778,22.4165268 19.1545139,22.0429688 18.6944444,22.0429688 L8.80555556,22.0429688 C8.34548611,22.0429688 7.97222222,22.4165268 7.97222222,22.8779297 C7.97222222,23.3393326 8.34548611,23.7128906 8.80555556,23.7128906 Z" id="Path"></path>
                    <path d="M27.3055556,22.8779297 C27.3055556,22.4165268 26.9322917,22.0429688 26.4722222,22.0429688 L22.5833333,22.0429688 C22.1232639,22.0429688 21.75,22.4165268 21.75,22.8779297 C21.75,23.3393326 22.1232639,23.7128906 22.5833333,23.7128906 L26.4722222,23.7128906 C26.9322917,23.7128906 27.3055556,23.3393326 27.3055556,22.8779297 Z" id="Path"></path>
                    <path d="M8.80555556,28.1660156 L16.8055556,28.1660156 C17.265625,28.1660156 17.6388889,27.7924576 17.6388889,27.3310547 C17.6388889,26.8696518 17.265625,26.4960938 16.8055556,26.4960938 L8.80555556,26.4960938 C8.34548611,26.4960938 7.97222222,26.8696518 7.97222222,27.3310547 C7.97222222,27.7924576 8.34548611,28.1660156 8.80555556,28.1660156 Z" id="Path"></path>
                    <path d="M24.1388889,26.4960938 L20.3611111,26.4960938 C19.9010417,26.4960938 19.5277778,26.8696518 19.5277778,27.3310547 C19.5277778,27.7924576 19.9010417,28.1660156 20.3611111,28.1660156 L24.1388889,28.1660156 C24.5989583,28.1660156 24.9722222,27.7924576 24.9722222,27.3310547 C24.9722222,26.8696518 24.5989583,26.4960938 24.1388889,26.4960938 Z" id="Path"></path>
                    <path d="M8.80555556,32.6191406 L14.5833333,32.6191406 C15.0434028,32.6191406 15.4166667,32.2455826 15.4166667,31.7841797 C15.4166667,31.3227768 15.0434028,30.9492188 14.5833333,30.9492188 L8.80555556,30.9492188 C8.34548611,30.9492188 7.97222222,31.3227768 7.97222222,31.7841797 C7.97222222,32.2455826 8.34548611,32.6191406 8.80555556,32.6191406 Z" id="Path"></path>
                    <path d="M24.9722222,31.7841797 C24.9722222,31.3227768 24.5989583,30.9492188 24.1388889,30.9492188 L18.1388889,30.9492188 C17.6788194,30.9492188 17.3055556,31.3227768 17.3055556,31.7841797 C17.3055556,32.2455826 17.6788194,32.6191406 18.1388889,32.6191406 L24.1388889,32.6191406 C24.5989583,32.6191406 24.9722222,32.2455826 24.9722222,31.7841797 Z" id="Path"></path>
                    <path d="M8.80555556,37.0722656 L14.5833333,37.0722656 C15.0434028,37.0722656 15.4166667,36.6987076 15.4166667,36.2373047 C15.4166667,35.7759018 15.0434028,35.4023438 14.5833333,35.4023438 L8.80555556,35.4023438 C8.34548611,35.4023438 7.97222222,35.7759018 7.97222222,36.2373047 C7.97222222,36.6987076 8.34548611,37.0722656 8.80555556,37.0722656 Z" id="Path"></path>
                </g>
            </g>
        </g>
    </g>
</svg>