<svg width="33" height="33" viewBox="0 0 33 33" fill="none" xmlns="http://www.w3.org/2000/svg">
<g clip-path="url(#clip0_4297_108739)">
<path d="M9.83333 15.167H12.5V17.8337H9.83333V15.167ZM28.5 8.50033V27.167C28.5 28.6337 27.3 29.8337 25.8333 29.8337H7.16667C5.68667 29.8337 4.5 28.6337 4.5 27.167L4.51333 8.50033C4.51333 7.03366 5.68667 5.83366 7.16667 5.83366H8.5V3.16699H11.1667V5.83366H21.8333V3.16699H24.5V5.83366H25.8333C27.3 5.83366 28.5 7.03366 28.5 8.50033ZM7.16667 11.167H25.8333V8.50033H7.16667V11.167ZM25.8333 27.167V13.8337H7.16667V27.167H25.8333ZM20.5 17.8337H23.1667V15.167H20.5V17.8337ZM15.1667 17.8337H17.8333V15.167H15.1667V17.8337Z" fill="white"/>
</g>
<defs>
<clipPath id="clip0_4297_108739">
<rect width="32" height="32" fill="white" transform="translate(0.5 0.5)"/>
</clipPath>
</defs>
</svg>
