<svg width="32" height="33" viewBox="0 0 32 33" fill="none" xmlns="http://www.w3.org/2000/svg">
<g clip-path="url(#clip0_4137_108284)">
<path d="M27.3333 4.5L27.12 4.54L20 7.3L12 4.5L4.48 7.03333C4.2 7.12667 4 7.36667 4 7.67333V27.8333C4 28.2067 4.29333 28.5 4.66667 28.5L4.88 28.46L12 25.7L20 28.5L27.52 25.9667C27.8 25.8733 28 25.6333 28 25.3267V5.16667C28 4.79333 27.7067 4.5 27.3333 4.5ZM13.3333 7.79333L18.6667 9.66V25.2067L13.3333 23.34V7.79333ZM6.66667 9.11333L10.6667 7.76667V23.3667L6.66667 24.9133V9.11333ZM25.3333 23.8867L21.3333 25.2333V9.64667L25.3333 8.1V23.8867Z" fill="white"/>
</g>
<defs>
<clipPath id="clip0_4137_108284">
<rect width="32" height="32" fill="white" transform="translate(0 0.5)"/>
</clipPath>
</defs>
</svg>
