<svg width="32" height="33" viewBox="0 0 32 33" fill="none" xmlns="http://www.w3.org/2000/svg">
<g clip-path="url(#clip0_4137_108289)">
<path d="M29.3337 8.0999L23.2003 2.8999L21.467 4.8999L27.6003 10.0999L29.3337 8.0999ZM10.5337 5.03324L8.80033 3.03324L2.66699 8.0999L4.40033 10.0999L10.5337 5.03324ZM16.667 11.1666H14.667V19.1666L20.9337 23.0332L22.0003 21.4332L16.667 18.2332V11.1666ZM16.0003 5.83324C9.33366 5.83324 4.00033 11.1666 4.00033 17.8332C4.00033 24.4999 9.33366 29.8332 16.0003 29.8332C22.667 29.8332 28.0003 24.4999 28.0003 17.8332C28.0003 11.1666 22.667 5.83324 16.0003 5.83324ZM16.0003 27.1666C10.8003 27.1666 6.66699 23.0332 6.66699 17.8332C6.66699 12.6332 10.8003 8.4999 16.0003 8.4999C21.2003 8.4999 25.3337 12.6332 25.3337 17.8332C25.3337 23.0332 21.2003 27.1666 16.0003 27.1666Z" fill="white"/>
</g>
<defs>
<clipPath id="clip0_4137_108289">
<rect width="32" height="32" fill="white" transform="translate(0 0.5)"/>
</clipPath>
</defs>
</svg>
