<svg width="30" height="30" viewBox="0 0 30 30" fill="none" xmlns="http://www.w3.org/2000/svg">
<g clip-path="url(#clip0_4617_28237)">
<path d="M21.25 8.75H16.25V11.25H21.25C23.3125 11.25 25 12.9375 25 15C25 17.0625 23.3125 18.75 21.25 18.75H16.25V21.25H21.25C24.7 21.25 27.5 18.45 27.5 15C27.5 11.55 24.7 8.75 21.25 8.75ZM13.75 18.75H8.75C6.6875 18.75 5 17.0625 5 15C5 12.9375 6.6875 11.25 8.75 11.25H13.75V8.75H8.75C5.3 8.75 2.5 11.55 2.5 15C2.5 18.45 5.3 21.25 8.75 21.25H13.75V18.75ZM10 13.75H20V16.25H10V13.75Z" fill="#FF5950"/>
</g>
<defs>
<clipPath id="clip0_4617_28237">
<rect width="30" height="30" fill="white"/>
</clipPath>
</defs>
</svg>
