<svg width="32" height="33" viewBox="0 0 32 33" fill="none" xmlns="http://www.w3.org/2000/svg">
<g clip-path="url(#clip0_4297_108745)">
<path d="M20.0013 25.1667C16.6546 25.1667 13.7613 23.2733 12.3213 20.5H20.0013L21.3346 17.8333H11.4413C11.3746 17.3933 11.3346 16.9533 11.3346 16.5C11.3346 16.0467 11.3746 15.6067 11.4413 15.1667H20.0013L21.3346 12.5H12.3213C13.7613 9.72667 16.668 7.83333 20.0013 7.83333C22.148 7.83333 24.1213 8.62 25.6413 9.92667L28.0013 7.56667C25.8813 5.66 23.068 4.5 20.0013 4.5C14.7746 4.5 10.348 7.84667 8.69464 12.5H4.0013L2.66797 15.1667H8.0813C8.02797 15.6067 8.0013 16.0467 8.0013 16.5C8.0013 16.9533 8.02797 17.3933 8.0813 17.8333H4.0013L2.66797 20.5H8.69464C10.348 25.1533 14.7746 28.5 20.0013 28.5C23.0813 28.5 25.8813 27.34 28.0013 25.4333L25.628 23.0733C24.1213 24.38 22.1613 25.1667 20.0013 25.1667Z" fill="white"/>
</g>
<defs>
<clipPath id="clip0_4297_108745">
<rect width="32" height="32" fill="white" transform="translate(0 0.5)"/>
</clipPath>
</defs>
</svg>
