<svg width="15" height="12" viewBox="0 0 15 12" fill="none" xmlns="http://www.w3.org/2000/svg">
<path fill-rule="evenodd" clip-rule="evenodd" d="M9.9024 11.5489C9.55002 11.9425 8.94534 11.9763 8.55127 11.6243C8.15694 11.272 8.12284 10.6667 8.47511 10.2724L8.47641 10.271L11.1362 7.31681H1.45478C0.927444 7.31681 0.499955 6.88932 0.499955 6.36199C0.499955 5.83465 0.927444 5.40716 1.45478 5.40716H11.141L8.50719 2.4632C8.15492 2.06887 8.18878 1.46336 8.58311 1.11109C8.97725 0.758986 9.58211 0.792882 9.93445 1.18668C9.93462 1.18687 9.93428 1.1865 9.93445 1.18668L14.0558 5.76901L14.1171 5.85068L14.1849 5.961L14.2351 6.14493V6.36147C14.2351 6.42419 14.2239 6.48391 14.2048 6.53748C14.2043 6.53892 14.2038 6.54036 14.2033 6.54178V6.59041L14.1521 6.77806L14.066 6.91339L14.0061 6.98921L9.90311 11.5481C9.90287 11.5484 9.90264 11.5486 9.9024 11.5489ZM14.0251 6.78341C14.0248 6.7837 14.0248 6.78369 14.0251 6.78341V6.78341Z" fill="white"/>
</svg>
