<svg width="33" height="33" viewBox="0 0 33 33" fill="none" xmlns="http://www.w3.org/2000/svg">
<g clip-path="url(#clip0_4297_108750)">
<path d="M15.168 9.83366H17.8346V12.5003H15.168V9.83366ZM15.168 15.167H17.8346V23.167H15.168V15.167ZM16.5013 3.16699C9.1413 3.16699 3.16797 9.14033 3.16797 16.5003C3.16797 23.8603 9.1413 29.8337 16.5013 29.8337C23.8613 29.8337 29.8346 23.8603 29.8346 16.5003C29.8346 9.14033 23.8613 3.16699 16.5013 3.16699ZM16.5013 27.167C10.6213 27.167 5.83464 22.3803 5.83464 16.5003C5.83464 10.6203 10.6213 5.83366 16.5013 5.83366C22.3813 5.83366 27.168 10.6203 27.168 16.5003C27.168 22.3803 22.3813 27.167 16.5013 27.167Z" fill="white"/>
</g>
<defs>
<clipPath id="clip0_4297_108750">
<rect width="32" height="32" fill="white" transform="translate(0.5 0.5)"/>
</clipPath>
</defs>
</svg>
