<svg width="42" height="31" viewBox="0 0 42 31" fill="none" xmlns="http://www.w3.org/2000/svg">
<g clip-path="url(#clip0)">
<path opacity="0.977818" d="M29.3633 0.195785C34.2266 0.866941 40.3282 3.41641 41.4361 7.1719C42.5447 10.9372 38.6619 15.8992 34.9656 19.8692C31.2705 23.8484 27.7654 26.8361 23.4712 28.849C19.1776 30.8533 14.1042 31.8971 10.6894 30.0067C7.28415 28.1296 5.54934 23.3234 3.52884 19.0905C1.50184 14.8485 -0.814981 11.1707 0.282336 8.59242C1.38201 6.02397 5.89583 4.55456 9.29108 3.63036C12.6863 2.70615 14.953 2.3168 17.9091 1.5289C20.8551 0.73064 24.49 -0.475371 29.3633 0.195785Z" fill="#2349D7"/>
<path d="M13.1631 13.017V8.649H20.2821V24H15.3891V13.017H13.1631ZM24.7008 24.168C23.8888 24.168 23.2378 23.951 22.7478 23.517C22.2578 23.083 22.0128 22.537 22.0128 21.879C22.0128 21.207 22.2578 20.654 22.7478 20.22C23.2378 19.772 23.8888 19.548 24.7008 19.548C25.4988 19.548 26.1428 19.772 26.6328 20.22C27.1228 20.654 27.3678 21.207 27.3678 21.879C27.3678 22.537 27.1228 23.083 26.6328 23.517C26.1428 23.951 25.4988 24.168 24.7008 24.168Z" fill="#FF810B"/>
</g>
<defs>
<clipPath id="clip0">
<rect width="41.6286" height="31" fill="white"/>
</clipPath>
</defs>
</svg>
