<svg width="32" height="32" viewBox="0 0 32 32" fill="none" xmlns="http://www.w3.org/2000/svg">
<g clip-path="url(#clip0_4297_108734)">
<path d="M16.0013 5.33366C18.5746 5.33366 22.668 7.20033 22.668 12.2003C22.668 15.0803 20.3746 18.427 16.0013 21.9603C11.628 18.427 9.33464 15.067 9.33464 12.2003C9.33464 7.20033 13.428 5.33366 16.0013 5.33366ZM16.0013 2.66699C11.6413 2.66699 6.66797 5.94699 6.66797 12.2003C6.66797 16.3603 9.77464 20.747 16.0013 25.3337C22.228 20.747 25.3346 16.3603 25.3346 12.2003C25.3346 5.94699 20.3613 2.66699 16.0013 2.66699Z" fill="white"/>
<path d="M16.0013 9.33301C14.5346 9.33301 13.3346 10.533 13.3346 11.9997C13.3346 13.4663 14.5346 14.6663 16.0013 14.6663C16.7085 14.6663 17.3868 14.3854 17.8869 13.8853C18.387 13.3852 18.668 12.7069 18.668 11.9997C18.668 11.2924 18.387 10.6142 17.8869 10.1141C17.3868 9.61396 16.7085 9.33301 16.0013 9.33301ZM6.66797 26.6663H25.3346V29.333H6.66797V26.6663Z" fill="white"/>
</g>
<defs>
<clipPath id="clip0_4297_108734">
<rect width="32" height="32" fill="white"/>
</clipPath>
</defs>
</svg>
