<svg width="33" height="33" viewBox="0 0 33 33" fill="none" xmlns="http://www.w3.org/2000/svg">
<path d="M7.2 22.669L6.20011 22.6539L6.19544 22.9643L6.36729 23.2227L7.2 22.669ZM25.8 22.669L26.6327 23.2227L26.8046 22.9643L26.7999 22.6539L25.8 22.669ZM2 16.5C2 8.49628 8.49628 2 16.5 2V0C7.39172 0 0 7.39172 0 16.5H2ZM16.5 31C8.49628 31 2 24.5037 2 16.5H0C0 25.6083 7.39172 33 16.5 33V31ZM31 16.5C31 24.5037 24.5037 31 16.5 31V33C25.6083 33 33 25.6083 33 16.5H31ZM16.5 2C24.5037 2 31 8.49628 31 16.5H33C33 7.39172 25.6083 0 16.5 0V2ZM22.15 10.3C22.15 7.17472 19.6253 4.65 16.5 4.65V6.65C18.5207 6.65 20.15 8.27929 20.15 10.3H22.15ZM16.5 15.95C19.6253 15.95 22.15 13.4253 22.15 10.3H20.15C20.15 12.3207 18.5207 13.95 16.5 13.95V15.95ZM10.85 10.3C10.85 13.4253 13.3747 15.95 16.5 15.95V13.95C14.4793 13.95 12.85 12.3207 12.85 10.3H10.85ZM16.5 4.65C13.3747 4.65 10.85 7.17472 10.85 10.3H12.85C12.85 8.27928 14.4793 6.65 16.5 6.65V4.65ZM16.5 26.66C12.9739 26.66 9.85478 24.8555 8.03271 22.1153L6.36729 23.2227C8.54422 26.4965 12.2761 28.66 16.5 28.66V26.66ZM24.9673 22.1153C23.1452 24.8555 20.0261 26.66 16.5 26.66V28.66C20.7239 28.66 24.4558 26.4965 26.6327 23.2227L24.9673 22.1153ZM16.5 18.895C17.9054 18.895 20.088 19.2893 21.9037 20.048C22.8095 20.4265 23.5635 20.8709 24.0779 21.3521C24.5883 21.8295 24.7939 22.273 24.8001 22.6841L26.7999 22.6539C26.7828 21.5227 26.1999 20.5984 25.4441 19.8915C24.6924 19.1884 23.7027 18.6321 22.6748 18.2026C20.6232 17.3454 18.1791 16.895 16.5 16.895V18.895ZM8.19989 22.6841C8.2061 22.2721 8.41163 21.8284 8.92061 21.3515C9.43381 20.8705 10.1862 20.4262 11.0908 20.0479C12.9041 19.2895 15.0865 18.895 16.5 18.895V16.895C14.8135 16.895 12.3692 17.3453 10.3191 18.2028C9.29197 18.6323 8.30354 19.1888 7.553 19.8921C6.79825 20.5994 6.21715 21.5236 6.20011 22.6539L8.19989 22.6841Z" fill="black"/>
</svg>
