<svg width="32" height="33" viewBox="0 0 32 33" fill="none" xmlns="http://www.w3.org/2000/svg">
<g clip-path="url(#clip0_4137_108279)">
<path d="M15.9997 11.1666C17.4724 11.1666 18.6663 9.97268 18.6663 8.49992C18.6663 7.02716 17.4724 5.83325 15.9997 5.83325C14.5269 5.83325 13.333 7.02716 13.333 8.49992C13.333 9.97268 14.5269 11.1666 15.9997 11.1666Z" fill="white"/>
<path d="M28 21.8333V19.1667C25.0133 19.1667 22.4533 17.8867 20.5333 15.5933L18.7467 13.46C18.24 12.8467 17.4933 12.5 16.7067 12.5H15.3067C14.52 12.5 13.7733 12.8467 13.2667 13.46L11.48 15.5933C9.54667 17.8867 6.98667 19.1667 4 19.1667V21.8333C7.69333 21.8333 10.92 20.2733 13.3333 17.5V20.5L8.16 22.5667C7.26667 22.9267 6.66667 23.8067 6.66667 24.78C6.66667 26.1 7.73333 27.1667 9.05333 27.1667H12V26.5C12 24.66 13.4933 23.1667 15.3333 23.1667H19.3333C19.7067 23.1667 20 23.46 20 23.8333C20 24.2067 19.7067 24.5 19.3333 24.5H15.3333C14.2267 24.5 13.3333 25.3933 13.3333 26.5V27.1667H22.9467C24.2667 27.1667 25.3333 26.1 25.3333 24.78C25.3333 23.8067 24.7333 22.9267 23.84 22.5667L18.6667 20.5V17.5C21.08 20.2733 24.3067 21.8333 28 21.8333Z" fill="white"/>
</g>
<defs>
<clipPath id="clip0_4137_108279">
<rect width="32" height="32" fill="white" transform="translate(0 0.5)"/>
</clipPath>
</defs>
</svg>
