<svg width="153" height="60" viewBox="0 0 153 60" fill="none" xmlns="http://www.w3.org/2000/svg">
<mask id="mask0_4020_5603" style="mask-type:alpha" maskUnits="userSpaceOnUse" x="0" y="0" width="61" height="60">
<path fill-rule="evenodd" clip-rule="evenodd" d="M0.0871582 0H60.4837V60H0.0871582V0Z" fill="white"/>
</mask>
<g mask="url(#mask0_4020_5603)">
<path fill-rule="evenodd" clip-rule="evenodd" d="M60.4837 29.9995C60.4837 46.5687 46.9639 60.0002 30.2851 60.0002C13.6084 60.0002 0.0871582 46.5687 0.0871582 29.9995C0.0871582 13.4311 13.6084 -0.000488281 30.2851 -0.000488281C46.9639 -0.000488281 60.4837 13.4311 60.4837 29.9995Z" fill="#414042"/>
</g>
<path fill-rule="evenodd" clip-rule="evenodd" d="M70.6807 7.30518H81.6465L80.6394 10.4787H74.6245V14.9689H80.6394V18.1135H74.6245V22.9754H81.6174V26.149H70.6807V7.30518Z" fill="#414042"/>
<path fill-rule="evenodd" clip-rule="evenodd" d="M85.0424 22.2598C86.1362 22.9752 87.546 23.4324 88.8705 23.4324C90.166 23.4324 91.0871 23.1177 91.0871 22.2598C91.0871 20.201 84.6689 21.0011 84.6689 16.4835C84.6689 13.9957 86.7413 12.2798 90.0218 12.2798C91.6042 12.2798 93.0445 12.5387 94.1958 12.9663V16.1984C92.9863 15.6827 91.6624 15.2833 90.1951 15.2833C89.0715 15.2833 88.4671 15.5973 88.4671 16.2831C88.4671 18.1422 94.8861 17.3986 94.8861 22.1737C94.8861 25.2337 92.1518 26.4338 89.1873 26.4338C86.9423 26.4338 85.0716 25.8052 83.8621 25.0615L85.0424 22.2598Z" fill="#414042"/>
<path fill-rule="evenodd" clip-rule="evenodd" d="M98.6856 22.6315V15.6261H96.1807V12.6233H98.6856V9.44973L102.6 8.33496V12.6233H106.715L105.824 15.6261H102.6V21.6593C102.6 22.9173 103.003 23.347 103.895 23.347C104.643 23.347 105.391 23.0887 105.91 22.7465L107.032 25.3768C106.024 26.0626 104.24 26.4344 102.887 26.4344C100.298 26.4344 98.6856 25.005 98.6856 22.6315Z" fill="#414042"/>
<mask id="mask1_4020_5603" style="mask-type:alpha" maskUnits="userSpaceOnUse" x="0" y="0" width="153" height="60">
<path fill-rule="evenodd" clip-rule="evenodd" d="M0.0869141 60H152.22V0H0.0869141V60Z" fill="white"/>
</mask>
<g mask="url(#mask1_4020_5603)">
<path fill-rule="evenodd" clip-rule="evenodd" d="M108.903 26.1491H112.789V12.6237H108.903V26.1491ZM108.5 8.44899C108.5 7.21922 109.507 6.21875 110.86 6.21875C112.183 6.21875 113.191 7.16207 113.191 8.44899C113.191 9.7077 112.183 10.7364 110.86 10.7364C109.507 10.7364 108.5 9.73521 108.5 8.44899Z" fill="#414042"/>
<path fill-rule="evenodd" clip-rule="evenodd" d="M115.868 12.6237H119.12L119.495 14.0813C120.818 13.0809 122.373 12.2808 124.014 12.2808C125.712 12.2808 126.978 12.9962 127.698 14.2831C129.338 12.9376 131.065 12.2808 132.534 12.2808C134.98 12.2808 137.196 13.5388 137.196 17.2274V26.1491H133.311V18.2561C133.311 16.7991 133.051 15.6265 131.382 15.6265C130.403 15.6265 129.338 16.0548 128.475 16.7413V26.1491H124.588V18.3139C124.588 16.8555 124.358 15.6265 122.689 15.6265C121.711 15.6265 120.617 16.0548 119.753 16.7413V26.1491H115.868V12.6237Z" fill="#414042"/>
<path fill-rule="evenodd" clip-rule="evenodd" d="M148.305 17.8849C148.276 16.5416 147.585 15.1975 145.888 15.1975C144.334 15.1975 143.498 16.4844 143.498 17.8849H148.305ZM139.642 19.4865C139.642 15.3979 141.858 12.2808 145.946 12.2808C149.917 12.2808 152.22 15.0536 152.22 19.6008V20.487H143.556C143.614 22.3737 145.081 23.4327 147.154 23.4327C148.564 23.4327 149.63 23.0891 150.637 22.5176L151.759 25.1479C150.234 26.063 148.535 26.4341 146.809 26.4341C141.628 26.4341 139.642 23.0319 139.642 19.4865Z" fill="#414042"/>
<path fill-rule="evenodd" clip-rule="evenodd" d="M70.6782 51.0415H144.578V34.2085H70.6782V51.0415Z" fill="#FF5950"/>
<path fill-rule="evenodd" clip-rule="evenodd" d="M78.8497 41.8551C79.3276 41.8551 79.6856 41.7754 79.9512 41.6307C80.4825 41.3788 80.7346 40.8645 80.7346 40.166C80.7346 39.5458 80.4945 39.0315 80.0045 38.7422C79.7246 38.5841 79.3532 38.4917 78.8354 38.4917H78.3177V41.8551H78.8497ZM76.9246 37.3579H78.8755C79.7129 37.3579 80.323 37.4757 80.8279 37.7396C81.6909 38.1876 82.1951 39.0181 82.1951 40.166C82.1951 41.1813 81.7569 42.1846 80.5879 42.6721C80.1248 42.8697 79.5396 42.9889 78.7569 42.9889H78.318V46.0482H76.9246V37.3579Z" fill="white"/>
<path fill-rule="evenodd" clip-rule="evenodd" d="M87.8949 42.9091C87.8949 41.6695 87.3111 40.772 86.2621 40.772C85.2138 40.772 84.6158 41.6695 84.6158 42.9091C84.6158 44.1622 85.2138 45.0596 86.2621 45.0596C87.3111 45.0596 87.8949 44.1622 87.8949 42.9091ZM85.6639 37.106H86.833L88.1604 39.0448H87.0453L86.2499 37.9103L85.4651 39.0448H84.35L85.6639 37.106ZM83.1953 42.9091C83.1953 41.0493 84.4176 39.6523 86.262 39.6523C88.0944 39.6523 89.3167 41.0493 89.3167 42.9091C89.3167 44.7697 88.0944 46.1808 86.262 46.1808C84.4297 46.1808 83.1953 44.7697 83.1953 42.9091Z" fill="white"/>
<path fill-rule="evenodd" clip-rule="evenodd" d="M90.6611 36.7109H92.0411V44.3471C92.0411 44.8092 92.2002 44.9405 92.5063 44.9405C92.5993 44.9405 92.7847 44.9017 92.904 44.8622L93.1831 45.929C92.8507 46.075 92.4395 46.1406 92.1071 46.1406C91.1384 46.1406 90.6611 45.639 90.6611 44.7295V36.7109Z" fill="white"/>
<path fill-rule="evenodd" clip-rule="evenodd" d="M97.7509 42.2897C97.7246 41.4981 97.3404 40.7192 96.4505 40.7192C95.6131 40.7192 95.1231 41.4459 95.1082 42.2897H97.7509ZM93.7151 42.9092C93.7151 41.0232 94.7641 39.6523 96.4636 39.6523C98.176 39.6523 99.1582 40.9181 99.1582 42.936V43.2662H95.1235C95.149 44.333 95.8529 45.0851 96.9949 45.0851C97.6192 45.0851 98.1227 44.9143 98.5751 44.6632L98.9864 45.5994C98.3763 45.9959 97.5922 46.1808 96.8486 46.1808C94.6583 46.1808 93.7151 44.6371 93.7151 42.9092Z" fill="white"/>
<path fill-rule="evenodd" clip-rule="evenodd" d="M106.705 42.2897C106.679 41.4981 106.294 40.7192 105.405 40.7192C104.567 40.7192 104.077 41.4459 104.062 42.2897H106.705ZM102.669 42.9092C102.669 41.0232 103.718 39.6523 105.417 39.6523C107.13 39.6523 108.112 40.9181 108.112 42.936V43.2662H104.077C104.103 44.333 104.806 45.0851 105.949 45.0851C106.573 45.0851 107.076 44.9143 107.529 44.6632L107.94 45.5994C107.33 45.9959 106.546 46.1808 105.802 46.1808C103.612 46.1808 102.669 44.6371 102.669 42.9092Z" fill="white"/>
<path fill-rule="evenodd" clip-rule="evenodd" d="M109.417 39.8099H110.572L110.718 40.5486C111.356 40.0343 112.072 39.6519 112.856 39.6519C113.599 39.6519 114.197 39.9948 114.503 40.6537C115.26 40.0075 116.055 39.6519 116.786 39.6519C117.861 39.6519 118.79 40.2713 118.79 41.8934V46.0484H117.41V42.2765C117.41 41.4849 117.251 40.852 116.414 40.852C115.856 40.852 115.285 41.1688 114.78 41.5773C114.794 41.6556 114.794 41.7629 114.794 41.8673V46.0484H113.414V42.2899C113.414 41.4983 113.253 40.852 112.431 40.852C111.86 40.852 111.29 41.1688 110.797 41.5773V46.0484H109.417V39.8099Z" fill="white"/>
<path fill-rule="evenodd" clip-rule="evenodd" d="M122.648 45.0329C123.895 45.0329 124.546 44.1891 124.546 42.8965C124.546 41.4586 123.749 40.7989 122.567 40.7989C122.261 40.7989 121.996 40.8391 121.731 40.9181V44.8353C122.023 44.9673 122.288 45.0329 122.648 45.0329ZM120.35 40.0475C121.027 39.8104 121.81 39.6523 122.62 39.6523C124.784 39.6523 125.966 40.8913 125.966 42.9092C125.966 44.8621 124.651 46.1808 122.739 46.1808C122.381 46.1808 122.037 46.1138 121.731 46.0094V49.1752H120.35V40.0475Z" fill="white"/>
<path fill-rule="evenodd" clip-rule="evenodd" d="M127.311 36.7109H128.691V44.3471C128.691 44.8092 128.85 44.9405 129.156 44.9405C129.249 44.9405 129.435 44.9017 129.554 44.8622L129.833 45.929C129.501 46.075 129.089 46.1406 128.757 46.1406C127.789 46.1406 127.311 45.639 127.311 44.7295V36.7109Z" fill="white"/>
<path fill-rule="evenodd" clip-rule="evenodd" d="M135.225 42.9092C135.225 41.6695 134.641 40.7721 133.592 40.7721C132.543 40.7721 131.945 41.6695 131.945 42.9092C131.945 44.1622 132.543 45.0597 133.592 45.0597C134.641 45.0597 135.225 44.1622 135.225 42.9092ZM130.525 42.9092C130.525 41.0493 131.746 39.6523 133.592 39.6523C135.424 39.6523 136.646 41.0493 136.646 42.9092C136.646 44.7697 135.424 46.1808 133.592 46.1808C131.76 46.1808 130.525 44.7697 130.525 42.9092Z" fill="white"/>
<path fill-rule="evenodd" clip-rule="evenodd" d="M138.005 46.0485H139.386V39.81H138.005V46.0485ZM137.832 37.8196C137.832 37.3434 138.189 36.9751 138.694 36.9751C139.199 36.9751 139.557 37.3307 139.557 37.8196C139.557 38.2945 139.187 38.6635 138.694 38.6635C138.189 38.6635 137.832 38.2945 137.832 37.8196Z" fill="white"/>
<path fill-rule="evenodd" clip-rule="evenodd" d="M50.708 53.6032H34.7508C32.5562 53.6032 30.7615 51.8202 30.7615 49.6401V33.7878C30.7615 31.6076 32.5562 29.8247 34.7508 29.8247H50.708C52.9019 29.8247 54.6974 31.6076 54.6974 33.7878V49.6401C54.6974 51.8202 52.9019 53.6032 50.708 53.6032Z" fill="white"/>
<path fill-rule="evenodd" clip-rule="evenodd" d="M34.7507 31.2358C33.3338 31.2358 32.1818 32.3802 32.1818 33.7877V49.64C32.1818 51.0469 33.3338 52.192 34.7507 52.192H50.7079C52.1241 52.192 53.2768 51.0469 53.2768 49.64V33.7877C53.2768 32.3802 52.1241 31.2358 50.7079 31.2358H34.7507ZM50.7081 55.0142H34.7508C31.7679 55.0142 29.3411 52.6034 29.3411 49.6401V33.7878C29.3411 30.8244 31.7679 28.4136 34.7508 28.4136H50.7081C53.691 28.4136 56.1178 30.8244 56.1178 33.7878V49.6401C56.1178 52.6034 53.691 55.0142 50.7081 55.0142Z" fill="#FF5950"/>
<path fill-rule="evenodd" clip-rule="evenodd" d="M23.9616 16.3139H19.7606V12.1406C19.7606 11.361 19.1243 10.7295 18.3402 10.7295C17.5554 10.7295 16.9197 11.361 16.9197 12.1406V16.3139H12.7188C11.9347 16.3139 11.2983 16.9461 11.2983 17.725C11.2983 18.504 11.9347 19.1361 12.7188 19.1361H16.9197V23.3095C16.9197 24.0891 17.5554 24.7206 18.3402 24.7206C19.1243 24.7206 19.7606 24.0891 19.7606 23.3095V19.1361H23.9616C24.7457 19.1361 25.382 18.504 25.382 17.725C25.382 16.9461 24.7457 16.3139 23.9616 16.3139Z" fill="#FF5950"/>
<path fill-rule="evenodd" clip-rule="evenodd" d="M48.1091 19.1362H36.8662C36.0822 19.1362 35.4458 18.504 35.4458 17.7251C35.4458 16.9461 36.0822 16.314 36.8662 16.314H48.1091C48.8931 16.314 49.5295 16.9461 49.5295 17.7251C49.5295 18.504 48.8931 19.1362 48.1091 19.1362Z" fill="#FF5950"/>
<path fill-rule="evenodd" clip-rule="evenodd" d="M20.3487 41.7139L23.3196 38.7626C23.8742 38.2122 23.8742 37.319 23.3196 36.7673C22.7649 36.2162 21.865 36.2162 21.3103 36.7673L18.3402 39.7186L15.3693 36.7673C14.8154 36.2162 13.9148 36.2162 13.3608 36.7673C12.8062 37.319 12.8062 38.2122 13.3608 38.7626L16.3317 41.7139L13.3608 44.6652C12.8062 45.2162 12.8062 46.1095 13.3608 46.6605C13.6378 46.9357 14.0015 47.074 14.3651 47.074C14.7287 47.074 15.0924 46.9357 15.3693 46.6605L18.3402 43.7092L21.3103 46.6605C21.588 46.9357 21.9517 47.074 22.3153 47.074C22.6782 47.074 23.0419 46.9357 23.3196 46.6605C23.8742 46.1095 23.8742 45.2162 23.3196 44.6652L20.3487 41.7139Z" fill="#FF5950"/>
<path fill-rule="evenodd" clip-rule="evenodd" d="M48.1091 39.5971H36.8662C36.0822 39.5971 35.4458 38.9649 35.4458 38.186C35.4458 37.4071 36.0822 36.7749 36.8662 36.7749H48.1091C48.8931 36.7749 49.5295 37.4071 49.5295 38.186C49.5295 38.9649 48.8931 39.5971 48.1091 39.5971Z" fill="#FF5950"/>
<path fill-rule="evenodd" clip-rule="evenodd" d="M48.1091 46.6528H36.8662C36.0822 46.6528 35.4458 46.0206 35.4458 45.2417C35.4458 44.4627 36.0822 43.8306 36.8662 43.8306H48.1091C48.8931 43.8306 49.5295 44.4627 49.5295 45.2417C49.5295 46.0206 48.8931 46.6528 48.1091 46.6528Z" fill="#FF5950"/>
</g>
</svg>
