<?xml version="1.0" encoding="UTF-8"?>
<svg width="65px" height="51px" viewBox="0 0 65 51" version="1.1" xmlns="http://www.w3.org/2000/svg" xmlns:xlink="http://www.w3.org/1999/xlink">
    <!-- Generator: Sketch 63.1 (92452) - https://sketch.com -->
    <title>logo-ue-1ffb96795f6a2c2e18ba7fd7c314ea5cb614793a5151ca552efb4343109ea82e</title>
    <desc>Created with Sketch.</desc>
    <defs>
        <polygon id="path-1" points="0 50.735872 64.8351008 50.735872 64.8351008 0.229752475 0 0.229752475"></polygon>
    </defs>
    <g id="Symbols" stroke="none" stroke-width="1" fill="none" fill-rule="evenodd">
        <g id="Footer" transform="translate(-1002.000000, -24.000000)">
            <g id="logo-ue-1ffb96795f6a2c2e18ba7fd7c314ea5cb614793a5151ca552efb4343109ea82e" transform="translate(1002.000000, 24.000000)">
                <polygon id="Path" fill="#044DA1" fill-rule="nonzero" points="0 43 64 43 64 0 0 0"></polygon>
                <path d="M31.109734,9.16627206 L32.5009894,8.18579798 L33.8762621,9.16627206 L33.3351338,7.56705941 L34.7362833,6.5969843 L33.035268,6.5969843 L32.5009894,5 L31.9568167,6.5969843 L30.2360134,6.5969843 L31.6485791,7.56705941 M23.9895202,11.0384576 L25.3526156,10.0542696 L26.7514818,11.0384576 L26.2126367,9.44147331 L27.6000867,8.47065541 L25.9082044,8.47065541 L25.3526156,6.84915926 L24.8267089,8.47065541 L23.0952504,8.47065541 L24.5055328,9.44147331 M20.1602951,11.9742161 L19.630583,13.5570875 L17.8839029,13.5570875 L19.2941853,14.5524173 L18.7781727,16.120433 L20.1602951,15.1548146 L21.5386122,16.120433 L21.0012892,14.5524173 L22.3834117,13.5570875 L20.6960959,13.5570875 M18.2375771,22.0946399 L19.6311157,23.0907124 L19.086182,21.4818436 L20.464499,20.5043406 L18.7779443,20.5043406 L18.2375771,18.8850728 L17.7002542,20.5043406 L16,20.5043406 L17.3737506,21.4818436 L16.8516492,23.0907124 M20.696172,27.4776654 L20.1603712,25.8836523 L19.6306591,27.4776654 L17.883979,27.4776654 L19.2942615,28.435856 L18.7782488,30.0447248 L20.1603712,29.0605368 L21.5379272,30.0447248 L21.0013653,28.435856 L22.3834878,27.4776654 M25.9078239,32.5675886 L25.352235,30.9772894 L24.8270894,32.5675886 L23.1291185,32.5675886 L24.5051523,33.5673751 L23.9891396,35.1457898 L25.352235,34.1504601 L26.7511013,35.1457898 L26.2122562,33.5673751 L27.636238,32.5675886 M33.0351158,34.4470535 L32.5008372,32.8055022 L31.9566645,34.4470535 L30.2358612,34.4470535 L31.6484269,35.398559 L31.1095818,37 L32.5008372,36.0150692 L33.8761099,37 L33.3357427,35.398559 L34.736131,34.4470535 M40.1197111,32.5675886 L39.6250086,30.9772894 L39.0838803,32.5675886 L37.3592716,32.5675886 L38.7406329,33.5673751 L38.2428862,35.1457898 L39.6250086,34.1504601 L40.9797322,35.1457898 L40.4766579,33.5673751 L41.8663911,32.5675886 M45.3759623,27.4776654 L44.8317896,25.8836523 L44.306644,27.4776654 L42.5744245,27.4776654 L43.9984063,28.435856 L43.457278,30.0447248 L44.8317896,29.0605368 L46.2253283,30.0447248 L45.6956162,28.435856 L47.0777386,27.4776654 M49,20.4784918 L47.2487534,20.4784918 L46.715997,18.8844786 L46.1938957,20.4784918 L44.489075,20.4784918 L45.8635867,21.4819921 L45.3422464,23.0425801 L46.715997,22.0725049 L48.1019248,23.0425801 L47.5760181,21.4819921 M43.457278,16.120433 L44.8317896,15.1206466 L46.2253283,16.120433 L45.6956162,14.5264199 L47.0777386,13.5570875 L45.3759623,13.5570875 L44.8317896,11.9259352 L44.306644,13.5570875 L42.5744245,13.5570875 L43.9984063,14.5264199 M39.6247042,6.84945638 L39.0835759,8.47095253 L37.386366,8.47095253 L38.7791436,9.44102764 L38.2425818,11.0387547 L39.6247042,10.0538239 L41.0106321,11.0387547 L40.4771145,9.44102764 L41.8896802,8.47095253 L40.1612661,8.47095253" id="Shape" fill="#FFF100" fill-rule="nonzero"></path>
                <g id="Group">
                    <path d="M0.616889922,45.4294327 L0.616889922,48.4179784 C0.616889922,49.2506417 0.882324031,50.0388462 1.84630853,50.0388462 C2.83585891,50.0388462 3.08775814,49.2506417 3.08775814,48.4179784 L3.08775814,45.4294327 L3.71562636,45.4294327 L3.71562636,48.6591117 C3.71562636,49.7525004 3.02384341,50.6228408 1.84630853,50.6228408 C0.697347287,50.6228408 0.000300775194,49.7525004 0.000300775194,48.6591117 L0.000300775194,45.4294327 M4.51681628,45.1880734 L8.30432791,49.1908859 L8.30432791,45.4292067 L8.9397155,45.4292067 L8.9397155,50.735646 L5.1507,46.7298193 L5.1507,50.4869773 L4.51681628,50.4869773" id="Shape" fill="#000000" fill-rule="nonzero"></path>
                    <g id="Clipped">
                        <mask id="mask-2" fill="white">
                            <use xlink:href="#path-1"></use>
                        </mask>
                        <g id="a"></g>
                        <path d="M9.80827907,50.4872034 L10.4331395,50.4872034 L10.4331395,45.4294327 L9.80827907,45.4294327 L9.80827907,50.4872034 Z M15.7037736,47.9542489 C15.7037736,46.866135 14.8653628,45.9302364 13.7126419,45.9302364 C12.5125488,45.9302364 11.6666186,46.866135 11.6666186,47.9542489 C11.6666186,49.1154564 12.5877426,50.0392983 13.7126419,50.0392983 C14.8029519,50.0392983 15.7037736,49.1154564 15.7037736,47.9542489 M16.3241225,47.9542489 C16.3241225,49.4620855 15.1428279,50.6225394 13.7126419,50.6225394 C12.2365876,50.6225394 11.0379984,49.4620855 11.0379984,47.9542489 C11.0379984,46.5187524 12.2365876,45.3281568 13.7126419,45.3281568 C15.1428279,45.3281568 16.3241225,46.5187524 16.3241225,47.9542489 M16.8940915,45.1880734 L20.6740837,49.1908859 L20.6740837,45.4292067 L21.3094713,45.4292067 L21.3094713,50.735646 L17.5294791,46.7298193 L17.5294791,50.4869773 L16.8940915,50.4869773 M24.1527744,45.4294327 L26.8552395,45.4294327 L26.8552395,46.0134274 L24.7731233,46.0134274 L24.7731233,47.4195359 L26.8041078,47.4195359 L26.8041078,48.0299045 L24.7731233,48.0299045 L24.7731233,49.9220472 L26.8552395,49.9220472 L26.8552395,50.4872034 L24.1527744,50.4872034 M28.1731612,45.4294327 L28.1731612,48.4179784 C28.1731612,49.2506417 28.431076,50.0388462 29.3950605,50.0388462 C30.3816031,50.0388462 30.6365101,49.2506417 30.6365101,48.4179784 L30.6365101,45.4294327 L31.268138,45.4294327 L31.268138,48.6591117 C31.268138,49.7525004 30.5725953,50.6228408 29.3950605,50.6228408 C28.248355,50.6228408 27.5490527,49.7525004 27.5490527,48.6591117 L27.5490527,45.4294327 M32.7702845,47.8453622 L32.9507496,47.8453622 C33.6162147,47.8453622 34.3155171,47.7021893 34.3155171,46.898914 C34.3155171,46.1303017 33.5410209,45.9916501 32.9056333,45.9916501 L32.7702845,45.9916501 L32.7702845,47.8453622 Z M35.2599512,50.4872787 L34.4922225,50.4872787 L33.018424,48.3803766 L32.7702845,48.3803766 L32.7702845,50.4872787 L32.0957961,50.4872787 L32.0957961,45.4295081 L32.8793155,45.4295081 C33.3229589,45.4295081 33.8229977,45.4295081 34.1989667,45.6744091 C34.6275713,45.9306132 34.861424,46.4098656 34.861424,46.8657582 C34.861424,47.6110108 34.4245481,48.2108298 33.6876488,48.3125579 L35.2599512,50.4872787 Z M40.0624287,47.9542489 C40.0624287,46.866135 39.2495837,45.9302364 38.0652814,45.9302364 C36.8689481,45.9302364 36.0267775,46.866135 36.0267775,47.9542489 C36.0267775,49.1154564 36.9674519,50.0392983 38.0652814,50.0392983 C39.1413047,50.0392983 40.0624287,49.1154564 40.0624287,47.9542489 M40.6910488,47.9542489 C40.6910488,49.4620855 39.4984752,50.6225394 38.0652814,50.6225394 C36.5952426,50.6225394 35.3989093,49.4620855 35.3989093,47.9542489 C35.3989093,46.5187524 36.5952426,45.3281568 38.0652814,45.3281568 C39.4984752,45.3281568 40.6910488,46.5187524 40.6910488,47.9542489 M41.9580643,47.8188375 L42.1234907,47.8188375 C42.7889558,47.8188375 43.5002891,47.7020386 43.5002891,46.8987633 C43.5002891,46.1075448 42.7212814,45.9914994 42.0934132,45.9914994 L41.9580643,45.9914994 L41.9580643,47.8188375 Z M41.9580643,50.487128 L41.3294442,50.487128 L41.3294442,45.4293574 L42.0219791,45.4293574 C43.6018008,45.4293574 44.0567233,45.9914994 44.0567233,46.8987633 C44.0567233,47.954475 43.2438783,48.3802259 42.3077155,48.3802259 L41.9580643,48.3802259 L41.9580643,50.487128 Z M46.6855736,43.9598761 L45.5606744,44.9357124 L45.2824574,44.7699332 L46.1095891,43.6388674 L46.6855736,43.9598761 L46.6855736,43.9598761 Z M44.6169922,45.429282 L47.3472791,45.429282 L47.3472791,46.0140303 L45.2561395,46.0140303 L45.2561395,47.4193852 L47.287124,47.4193852 L47.287124,48.0297538 L45.2561395,48.0297538 L45.2561395,49.9218965 L47.3472791,49.9218965 L47.3472791,50.4870526 L44.6169922,50.4870526 L44.6169922,45.429282 Z M48.1186171,45.4294327 L50.822586,45.4294327 L50.822586,46.0134274 L48.7464853,46.0134274 L48.7464853,47.4195359 L50.7774698,47.4195359 L50.7774698,48.0299045 L48.7464853,48.0299045 L48.7464853,49.9220472 L50.822586,49.9220472 L50.822586,50.4872034 L48.1186171,50.4872034 M51.5518907,45.1880734 L55.3469217,49.1908859 L55.3469217,45.4292067 L55.9710302,45.4292067 L55.9710302,50.735646 L52.1880302,46.7298193 L52.1880302,50.4869773 L51.5518907,50.4869773 M56.8139527,45.1880734 L60.5856736,49.1908859 L60.5856736,45.4292067 L61.2293326,45.4292067 L61.2293326,50.735646 L57.4493403,46.7298193 L57.4493403,50.4869773 L56.8139527,50.4869773 M62.143238,45.4294327 L64.8359279,45.4294327 L64.8359279,46.0134274 L62.7673465,46.0134274 L62.7673465,47.4195359 L64.7938194,47.4195359 L64.7938194,48.0299045 L62.7673465,48.0299045 L62.7673465,49.9220472 L64.8359279,49.9220472 L64.8359279,50.4872034 L62.143238,50.4872034" id="Shape" fill="#000000" fill-rule="nonzero" mask="url(#mask-2)"></path>
                    </g>
                </g>
            </g>
        </g>
    </g>
</svg>