<svg width="49" height="48" viewBox="0 0 49 48" fill="none" xmlns="http://www.w3.org/2000/svg">
<path d="M6.22522 15.9309C6.05094 15.7565 5.80906 15.6562 5.5625 15.6562C5.31594 15.6562 5.07416 15.7566 4.89969 15.9309C4.72522 16.1053 4.625 16.3472 4.625 16.5938C4.625 16.8403 4.72522 17.0822 4.89969 17.2565C5.07406 17.4309 5.31594 17.5312 5.5625 17.5312C5.80906 17.5312 6.05094 17.4309 6.22522 17.2565C6.39969 17.0822 6.5 16.8403 6.5 16.5938C6.5 16.3472 6.39969 16.1053 6.22522 15.9309Z" fill="#FF5950"/>
<path d="M6.22522 15.9309C6.05094 15.7565 5.80906 15.6562 5.5625 15.6562C5.31594 15.6562 5.07416 15.7566 4.89969 15.9309C4.72522 16.1053 4.625 16.3472 4.625 16.5938C4.625 16.8403 4.72522 17.0822 4.89969 17.2565C5.07406 17.4309 5.31594 17.5312 5.5625 17.5312C5.80906 17.5312 6.05094 17.4309 6.22522 17.2565C6.39969 17.0822 6.5 16.8403 6.5 16.5938C6.5 16.3472 6.39969 16.1053 6.22522 15.9309Z" fill="#FF5950"/>
<path d="M41.5625 0H22.5938C22.0761 0 21.6563 0.419813 21.6563 0.9375C21.6563 1.45519 22.0761 1.875 22.5938 1.875H41.5625C42.0794 1.875 42.5 2.29556 42.5 2.8125V45.1875C42.5 45.7044 42.0794 46.125 41.5625 46.125H7.4375C6.92056 46.125 6.5 45.7044 6.5 45.1875V20.0937C6.5 19.576 6.08019 19.1562 5.5625 19.1562C5.04481 19.1562 4.625 19.576 4.625 20.0937V45.1875C4.625 46.7383 5.88669 48 7.4375 48H41.5625C43.1133 48 44.375 46.7383 44.375 45.1875V2.8125C44.375 1.26169 43.1133 0 41.5625 0Z" fill="#FF5950"/>
<path d="M41.5625 0H22.5938C22.0761 0 21.6563 0.419813 21.6563 0.9375C21.6563 1.45519 22.0761 1.875 22.5938 1.875H41.5625C42.0794 1.875 42.5 2.29556 42.5 2.8125V45.1875C42.5 45.7044 42.0794 46.125 41.5625 46.125H7.4375C6.92056 46.125 6.5 45.7044 6.5 45.1875V20.0937C6.5 19.576 6.08019 19.1562 5.5625 19.1562C5.04481 19.1562 4.625 19.576 4.625 20.0937V45.1875C4.625 46.7383 5.88669 48 7.4375 48H41.5625C43.1133 48 44.375 46.7383 44.375 45.1875V2.8125C44.375 1.26169 43.1133 0 41.5625 0Z" fill="#FF5950"/>
<path d="M24.4992 3.75C23.8613 3.75 23.2203 3.79875 22.5938 3.89475C22.0821 3.97331 21.7308 4.45172 21.8093 4.9635C21.8877 5.47528 22.3664 5.82609 22.878 5.74809C23.4108 5.66634 23.9562 5.625 24.4992 5.625C30.3407 5.625 35.0931 10.3774 35.0931 16.2188C35.0931 18.8129 34.1554 21.1916 32.6017 23.0354C31.9143 21.8532 30.9753 20.8335 29.8356 20.0425C29.1704 19.5809 28.4557 19.2125 27.7076 18.9398C28.5615 18.1051 29.093 16.9419 29.093 15.6564V14.7424C29.093 12.2092 27.0322 10.1485 24.4992 10.1485C21.9662 10.1485 19.9055 12.2092 19.9055 14.7424V15.6564C19.9055 16.9419 20.4368 18.1051 21.2908 18.9398C20.5428 19.2125 19.8281 19.5809 19.1629 20.0425C18.0177 20.8373 17.075 21.8628 16.3867 23.0521C15.2029 21.6454 14.3754 19.9151 14.0517 17.9849C13.9661 17.4744 13.4823 17.13 12.9721 17.2154C12.4614 17.301 12.1169 17.7844 12.2025 18.295C12.6846 21.1694 14.1768 23.8004 16.4044 25.7033C18.6573 27.6278 21.5321 28.6878 24.4991 28.6878C31.3745 28.6878 36.968 23.0943 36.968 16.2189C36.968 9.34359 31.3746 3.75 24.4992 3.75ZM21.7805 14.7423C21.7805 13.2431 23.0002 12.0234 24.4992 12.0234C25.9983 12.0234 27.218 13.2431 27.218 14.7423V15.6563C27.218 17.1554 25.9983 18.3751 24.4992 18.3751C23.0002 18.3751 21.7805 17.1554 21.7805 15.6563V14.7423ZM24.4992 26.8127C21.961 26.8127 19.6145 25.9264 17.7779 24.4237C19.0368 21.8689 21.6103 20.2501 24.4992 20.2501C27.3821 20.2501 29.9508 21.8622 31.2125 24.4078C29.3837 25.9098 27.0449 26.8127 24.4992 26.8127Z" fill="#FF5950"/>
<path d="M24.4992 3.75C23.8613 3.75 23.2203 3.79875 22.5938 3.89475C22.0821 3.97331 21.7308 4.45172 21.8093 4.9635C21.8877 5.47528 22.3664 5.82609 22.878 5.74809C23.4108 5.66634 23.9562 5.625 24.4992 5.625C30.3407 5.625 35.0931 10.3774 35.0931 16.2188C35.0931 18.8129 34.1554 21.1916 32.6017 23.0354C31.9143 21.8532 30.9753 20.8335 29.8356 20.0425C29.1704 19.5809 28.4557 19.2125 27.7076 18.9398C28.5615 18.1051 29.093 16.9419 29.093 15.6564V14.7424C29.093 12.2092 27.0322 10.1485 24.4992 10.1485C21.9662 10.1485 19.9055 12.2092 19.9055 14.7424V15.6564C19.9055 16.9419 20.4368 18.1051 21.2908 18.9398C20.5428 19.2125 19.8281 19.5809 19.1629 20.0425C18.0177 20.8373 17.075 21.8628 16.3867 23.0521C15.2029 21.6454 14.3754 19.9151 14.0517 17.9849C13.9661 17.4744 13.4823 17.13 12.9721 17.2154C12.4614 17.301 12.1169 17.7844 12.2025 18.295C12.6846 21.1694 14.1768 23.8004 16.4044 25.7033C18.6573 27.6278 21.5321 28.6878 24.4991 28.6878C31.3745 28.6878 36.968 23.0943 36.968 16.2189C36.968 9.34359 31.3746 3.75 24.4992 3.75ZM21.7805 14.7423C21.7805 13.2431 23.0002 12.0234 24.4992 12.0234C25.9983 12.0234 27.218 13.2431 27.218 14.7423V15.6563C27.218 17.1554 25.9983 18.3751 24.4992 18.3751C23.0002 18.3751 21.7805 17.1554 21.7805 15.6563V14.7423ZM24.4992 26.8127C21.961 26.8127 19.6145 25.9264 17.7779 24.4237C19.0368 21.8689 21.6103 20.2501 24.4992 20.2501C27.3821 20.2501 29.9508 21.8622 31.2125 24.4078C29.3837 25.9098 27.0449 26.8127 24.4992 26.8127Z" fill="#FF5950"/>
<path d="M33.1582 37.3125H19.8457C19.328 37.3125 18.9082 37.7323 18.9082 38.25C18.9082 38.7677 19.328 39.1875 19.8457 39.1875H33.1582C33.676 39.1875 34.0957 38.7677 34.0957 38.25C34.0957 37.7323 33.6759 37.3125 33.1582 37.3125Z" fill="#FF5950"/>
<path d="M33.1582 37.3125H19.8457C19.328 37.3125 18.9082 37.7323 18.9082 38.25C18.9082 38.7677 19.328 39.1875 19.8457 39.1875H33.1582C33.676 39.1875 34.0957 38.7677 34.0957 38.25C34.0957 37.7323 33.6759 37.3125 33.1582 37.3125Z" fill="#FF5950"/>
<path d="M16.5046 32.3372C16.3302 32.1627 16.0884 32.0625 15.8418 32.0625C15.5952 32.0625 15.3534 32.1628 15.179 32.3372C15.0046 32.5116 14.9043 32.7534 14.9043 33C14.9043 33.2474 15.0047 33.4884 15.179 33.6627C15.3534 33.8372 15.5952 33.9375 15.8418 33.9375C16.0884 33.9375 16.3302 33.8372 16.5046 33.6627C16.6799 33.4884 16.7793 33.2466 16.7793 33C16.7793 32.7534 16.6799 32.5116 16.5046 32.3372Z" fill="#FF5950"/>
<path d="M16.5046 32.3372C16.3302 32.1627 16.0884 32.0625 15.8418 32.0625C15.5952 32.0625 15.3534 32.1628 15.179 32.3372C15.0046 32.5116 14.9043 32.7534 14.9043 33C14.9043 33.2474 15.0047 33.4884 15.179 33.6627C15.3534 33.8372 15.5952 33.9375 15.8418 33.9375C16.0884 33.9375 16.3302 33.8372 16.5046 33.6627C16.6799 33.4884 16.7793 33.2466 16.7793 33C16.7793 32.7534 16.6799 32.5116 16.5046 32.3372Z" fill="#FF5950"/>
<path d="M16.5046 37.5872C16.3302 37.4127 16.0893 37.3125 15.8418 37.3125C15.5952 37.3125 15.3534 37.4128 15.179 37.5872C15.0046 37.7616 14.9043 38.0034 14.9043 38.25C14.9043 38.4974 15.0047 38.7384 15.179 38.9127C15.3534 39.0872 15.5952 39.1875 15.8418 39.1875C16.0884 39.1875 16.3302 39.0872 16.5046 38.9127C16.6799 38.7384 16.7793 38.4975 16.7793 38.25C16.7793 38.0034 16.6799 37.7616 16.5046 37.5872Z" fill="#FF5950"/>
<path d="M16.5046 37.5872C16.3302 37.4127 16.0893 37.3125 15.8418 37.3125C15.5952 37.3125 15.3534 37.4128 15.179 37.5872C15.0046 37.7616 14.9043 38.0034 14.9043 38.25C14.9043 38.4974 15.0047 38.7384 15.179 38.9127C15.3534 39.0872 15.5952 39.1875 15.8418 39.1875C16.0884 39.1875 16.3302 39.0872 16.5046 38.9127C16.6799 38.7384 16.7793 38.4975 16.7793 38.25C16.7793 38.0034 16.6799 37.7616 16.5046 37.5872Z" fill="#FF5950"/>
<path d="M33.1582 32.0625H19.8457C19.328 32.0625 18.9082 32.4823 18.9082 33C18.9082 33.5177 19.328 33.9375 19.8457 33.9375H33.1582C33.676 33.9375 34.0957 33.5177 34.0957 33C34.0957 32.4823 33.6759 32.0625 33.1582 32.0625Z" fill="#FF5950"/>
<path d="M33.1582 32.0625H19.8457C19.328 32.0625 18.9082 32.4823 18.9082 33C18.9082 33.5177 19.328 33.9375 19.8457 33.9375H33.1582C33.676 33.9375 34.0957 33.5177 34.0957 33C34.0957 32.4823 33.6759 32.0625 33.1582 32.0625Z" fill="#FF5950"/>
<path d="M15.6517 5.40243C15.2854 5.03643 14.692 5.03643 14.3258 5.40243L11.2727 8.45549L10.2294 7.41215C9.8631 7.04615 9.26966 7.04615 8.90348 7.41215C8.53738 7.77834 8.53738 8.37196 8.90348 8.73805L10.6097 10.4443C10.7928 10.6273 11.0326 10.7189 11.2726 10.7189C11.5126 10.7189 11.7524 10.6273 11.9356 10.4444L15.6517 6.72834C16.0178 6.36215 16.0178 5.76852 15.6517 5.40243Z" fill="#FF5950"/>
<path d="M15.6517 5.40243C15.2854 5.03643 14.692 5.03643 14.3258 5.40243L11.2727 8.45549L10.2294 7.41215C9.8631 7.04615 9.26966 7.04615 8.90348 7.41215C8.53738 7.77834 8.53738 8.37196 8.90348 8.73805L10.6097 10.4443C10.7928 10.6273 11.0326 10.7189 11.2726 10.7189C11.5126 10.7189 11.7524 10.6273 11.9356 10.4444L15.6517 6.72834C16.0178 6.36215 16.0178 5.76852 15.6517 5.40243Z" fill="#FF5950"/>
<path d="M12.3125 0C8.07359 0 4.625 3.44859 4.625 7.6875C4.625 11.9264 8.07359 15.375 12.3125 15.375C16.5514 15.375 20 11.9264 20 7.6875C20 3.44859 16.5514 0 12.3125 0ZM12.3125 13.5C9.10747 13.5 6.5 10.8925 6.5 7.6875C6.5 4.48247 9.10747 1.875 12.3125 1.875C15.5175 1.875 18.125 4.48247 18.125 7.6875C18.125 10.8925 15.5175 13.5 12.3125 13.5Z" fill="#FF5950"/>
<path d="M12.3125 0C8.07359 0 4.625 3.44859 4.625 7.6875C4.625 11.9264 8.07359 15.375 12.3125 15.375C16.5514 15.375 20 11.9264 20 7.6875C20 3.44859 16.5514 0 12.3125 0ZM12.3125 13.5C9.10747 13.5 6.5 10.8925 6.5 7.6875C6.5 4.48247 9.10747 1.875 12.3125 1.875C15.5175 1.875 18.125 4.48247 18.125 7.6875C18.125 10.8925 15.5175 13.5 12.3125 13.5Z" fill="#FF5950"/>
</svg>
