<svg width="64" height="64" viewBox="0 0 64 64" fill="none" xmlns="http://www.w3.org/2000/svg">
<path d="M55.3799 10.1821C60.5776 15.0718 68.0685 29.5373 52.781 47.0588C37.4935 64.5803 14.868 55.4121 8.29437 48.6887C-3.78276 36.2606 3.86099 22.8139 14.4094 18.5354C22.6646 15.8868 23.8726 21.0365 32.1429 19.3503C44.3578 16.8599 44.3729 1.82881 55.3799 10.1821Z" fill="#FC766A" fill-opacity="0.25"/>
<mask id="mask0_4567_128258" style="mask-type:alpha" maskUnits="userSpaceOnUse" x="2" y="7" width="60" height="51">
<path d="M55.3799 10.1821C60.5776 15.0718 68.0685 29.5373 52.781 47.0588C37.4935 64.5803 14.868 55.4121 8.29437 48.6887C-3.78276 36.2606 3.86099 22.8139 14.4094 18.5354C22.6646 15.8868 23.8726 21.0365 32.1429 19.3503C44.3578 16.8599 44.3729 1.82881 55.3799 10.1821Z" fill="#FC766A"/>
</mask>
<g mask="url(#mask0_4567_128258)">
<path d="M38.4496 27.2184C41.0693 28.237 43.4857 29.7156 45.585 31.5846C45.9998 31.9522 46.4282 32.3739 46.5277 32.9169C46.5822 33.3271 46.5203 33.7444 46.3489 34.121C45.843 35.4196 44.8632 36.6507 45.0504 38.0268C45.1802 38.9763 45.8616 39.7706 46.6474 40.3204C47.4333 40.8702 48.3339 41.2344 49.1653 41.705C50.9816 42.7286 52.5281 44.3476 53.1285 46.3427C53.7288 48.3377 53.2448 50.7072 51.6731 52.0766C50.7253 52.9012 49.4587 53.333 48.6223 54.269C47.3052 55.7446 47.0347 56.0156 45.2689 56.901C44.2841 57.407 42.8809 57.6 42.0276 56.96C39.4931 54.7014 38.0204 53.3043 36.9076 50.9867C35.7948 48.6691 37.0482 46.5568 36.7194 43.4723C36.5102 41.5127 34.6956 40.0506 34.3347 38.1128C34.1526 37.1398 34.3583 36.1414 34.5641 35.1717C34.853 33.809 35.142 32.4458 35.4309 31.082C35.5203 30.6537 35.5996 30.1815 35.3972 29.797C20.3747 1.25424 40.801 25.3327 38.4496 27.2184Z" fill="#5A6986"/>
<path d="M23.835 51.6382C23.835 51.6382 27.2551 51.6989 27.5451 51.446C27.6834 51.3262 28.7358 49.5116 29.8303 47.5874C31.0631 45.4203 32.3481 43.1149 32.4341 42.9294C32.4611 42.8755 32.5303 42.6613 32.6315 42.3358C32.6416 42.2987 32.6517 42.2616 32.6635 42.2262C33.048 40.958 33.8035 38.3153 34.242 36.7806C34.4427 36.0774 34.5793 35.6001 34.5793 35.6001C34.5793 35.6001 34.355 35.5495 33.9654 35.4804L33.4747 35.3978L33.1374 35.3455C31.613 35.1103 30.0698 35.0194 28.5283 35.074C26.7778 35.1566 25.3038 35.3455 24.6748 35.4332L24.3527 35.4804L24.0053 46.562L23.835 51.6382Z" fill="url(#paint0_linear_4567_128258)"/>
<path d="M1.99512 76.8522L6.277 78.66C6.277 78.66 14.7834 67.683 15.7632 63.5411C16.7431 59.3992 17.5728 56.7953 17.5728 56.7953L18.8275 68.1771L35.5553 69.0203C35.5553 69.0203 35.1135 64.1027 38.9164 56.6772C38.9164 56.6772 41.5827 64.0976 41.1189 70.1216C40.6551 76.1455 37.7292 86.7938 37.7292 86.7938L43.5204 88.2239C43.5204 88.2239 49.9896 68.8095 48.6388 58.362C47.2879 47.9145 45.0702 39.6931 39.9974 37.1651C38.284 36.3118 35.1472 35.6827 33.9583 35.4618L33.4793 35.3792V35.3926C33.2483 35.8783 27.1619 48.6127 26.2445 50.2772V50.2873L26.231 50.3092C26.1652 50.4273 26.1315 50.4779 26.1349 50.4475C26.177 50.0276 24.3557 35.4753 24.3557 35.4753C24.3557 35.4753 24.0707 35.5545 23.5985 35.6996C21.5747 36.3134 16.1275 38.1162 15.6064 39.8988C14.9622 42.0912 10.2823 59.1681 9.65157 61.2256C9.02084 63.283 1.99512 76.8522 1.99512 76.8522Z" fill="#FDFDFF"/>
<mask id="mask1_4567_128258" style="mask-type:alpha" maskUnits="userSpaceOnUse" x="37" y="45" width="4" height="4">
<path fill-rule="evenodd" clip-rule="evenodd" d="M40.9606 45.1987V48.4201H37.9844V45.1987H40.9606Z" fill="white"/>
</mask>
<g mask="url(#mask1_4567_128258)">
<path fill-rule="evenodd" clip-rule="evenodd" d="M38.7206 46.5074C38.7521 46.2453 38.831 46.0395 38.9632 45.896C39.1004 45.7463 39.2813 45.67 39.4932 45.6705C39.714 45.67 39.8998 45.7446 40.0376 45.8927C40.1713 46.0362 40.2466 46.2451 40.2703 46.5134C40.2736 46.5582 40.2267 46.5974 40.1789 46.5974H38.8121C38.7623 46.5971 38.7129 46.5567 38.7206 46.5074ZM40.8571 47.6363C40.8951 47.4482 40.7808 47.4073 40.7191 47.3988C40.7073 47.3976 40.6952 47.3967 40.6823 47.3967C40.612 47.3967 40.5562 47.4196 40.5208 47.4523C40.4781 47.4917 40.354 47.609 40.2902 47.6652C40.2253 47.7225 40.1544 47.7761 40.0777 47.826C39.9992 47.877 39.9175 47.9149 39.833 47.9391C39.7482 47.9634 39.6555 47.9752 39.5553 47.9752C39.4037 47.9753 39.2628 47.9371 39.1364 47.8612C39.0088 47.7848 38.9069 47.6707 38.8318 47.523C38.7618 47.3861 38.7241 47.23 38.7171 47.057C38.7151 46.9993 38.7587 46.9648 38.8094 46.9648H40.3421C40.5487 46.9649 40.7054 46.9346 40.8115 46.8791C40.906 46.8299 40.9597 46.7209 40.9606 46.5232C40.9606 46.3106 40.9067 46.1021 40.7975 45.8953C40.6892 45.6907 40.5272 45.524 40.3079 45.3935C40.0903 45.2643 39.8288 45.1988 39.5199 45.1987C39.2823 45.1987 39.0676 45.2372 38.8744 45.3133C38.681 45.3895 38.52 45.4983 38.3889 45.6399C38.2575 45.7821 38.1572 45.9523 38.0883 46.1525C38.0192 46.3529 37.9844 46.5706 37.9844 46.8065C37.9847 47.3088 38.1248 47.6988 38.403 47.9871C38.6807 48.2745 39.0687 48.4198 39.579 48.4201C39.7966 48.4202 39.9881 48.392 40.154 48.3369C40.4575 48.2291 40.799 47.924 40.8571 47.6363Z" fill="#262C65"/>
</g>
<mask id="mask2_4567_128258" style="mask-type:alpha" maskUnits="userSpaceOnUse" x="35" y="44" width="6" height="6">
<path fill-rule="evenodd" clip-rule="evenodd" d="M35.8408 49.2461V44.3733H40.674V49.2461H35.8408V49.2461Z" fill="white"/>
</mask>
<g mask="url(#mask2_4567_128258)">
<path fill-rule="evenodd" clip-rule="evenodd" d="M40.674 46.8097C40.674 48.1554 39.5921 49.2461 38.2574 49.2461C36.9227 49.2461 35.8408 48.1554 35.8408 46.8097C35.8408 45.464 36.9227 44.3733 38.2574 44.3733C39.5921 44.3733 40.674 45.464 40.674 46.8097Z" fill="#262C65"/>
</g>
<path fill-rule="evenodd" clip-rule="evenodd" d="M36.1481 47.5941C36.0326 47.2801 35.9847 46.9356 36.0204 46.5805C36.1457 45.3369 37.251 44.4282 38.4843 44.5544C39.4924 44.6577 40.2507 45.4161 40.4354 46.2767C40.5968 47.0208 39.4661 47.0677 38.4756 46.862C37.6518 46.5695 36.5757 46.593 36.1481 47.5941Z" fill="#262C65"/>
<path fill-rule="evenodd" clip-rule="evenodd" d="M40.5057 46.8097C40.5057 48.0617 39.4991 49.0766 38.2572 49.0766C37.0154 49.0766 36.0088 48.0617 36.0088 46.8097C36.0088 45.5577 37.0154 44.5427 38.2572 44.5427C39.4991 44.5427 40.5057 45.5577 40.5057 46.8097Z" fill="#262C65"/>
<path fill-rule="evenodd" clip-rule="evenodd" d="M38.7206 46.5074C38.7521 46.2453 38.831 46.0395 38.9632 45.896C39.1004 45.7463 39.2813 45.67 39.4932 45.6705C39.714 45.67 39.8998 45.7446 40.0376 45.8927C40.1713 46.0362 40.2466 46.2451 40.2703 46.5134C40.2736 46.5582 40.2267 46.5974 40.1789 46.5974H38.8121C38.7623 46.5971 38.7129 46.5567 38.7206 46.5074ZM40.6001 47.4086C40.5679 47.4185 40.541 47.4337 40.5208 47.4523C40.4781 47.4917 40.354 47.609 40.2902 47.6652C40.2253 47.7225 40.1544 47.7761 40.0777 47.826C39.9992 47.877 39.9175 47.9149 39.833 47.9391C39.7482 47.9634 39.6555 47.9752 39.5553 47.9752C39.4037 47.9753 39.2628 47.9371 39.1364 47.8612C39.0088 47.7848 38.9069 47.6707 38.8318 47.523C38.7618 47.3861 38.7241 47.23 38.7171 47.057C38.7151 46.9993 38.7587 46.9648 38.8094 46.9648H40.3421C40.4712 46.9648 40.5808 46.953 40.6708 46.9307C40.6727 46.8906 40.6737 46.8503 40.6737 46.8097C40.6737 46.2504 40.4867 45.7352 40.1724 45.3239C39.9841 45.2409 39.7672 45.1988 39.5199 45.1987C39.2823 45.1987 39.0676 45.2372 38.8744 45.3133C38.681 45.3895 38.52 45.4983 38.3889 45.6399C38.2575 45.7821 38.1572 45.9523 38.0883 46.1525C38.0192 46.3529 37.9844 46.5706 37.9844 46.8065C37.9847 47.3088 38.1248 47.6988 38.403 47.9871C38.6807 48.2745 39.0687 48.4198 39.579 48.4201C39.7886 48.4202 39.9739 48.3937 40.1356 48.3425C40.3523 48.0728 40.5131 47.7556 40.6001 47.4086Z" fill="white"/>
<path d="M17.5628 56.8828C17.5797 56.8846 17.5968 56.881 17.6117 56.8727C17.6212 56.8676 17.6296 56.8606 17.6363 56.8522C17.6431 56.8439 17.6481 56.8342 17.6511 56.8238C17.6541 56.8134 17.655 56.8026 17.6537 56.7919C17.6524 56.7812 17.649 56.7708 17.6437 56.7614C17.1916 55.8527 16.8881 54.8774 16.7448 53.8725C16.5003 52.1979 18.0181 49.1016 18.0333 49.0712C18.0431 49.0516 18.0447 49.0288 18.0378 49.0079C18.0308 48.987 18.0159 48.9698 17.9962 48.9599C17.9765 48.9501 17.9537 48.9485 17.9328 48.9554C17.912 48.9624 17.8947 48.9774 17.8849 48.997C17.8208 49.1252 16.33 52.1709 16.5812 53.8962C16.728 54.9203 17.0377 55.9144 17.4987 56.8407C17.5049 56.8526 17.5141 56.8627 17.5253 56.87C17.5365 56.8774 17.5494 56.8818 17.5628 56.8828Z" fill="#6A86CE"/>
<path d="M23.4731 41.4521L21.6417 42.1941L24.0027 46.5637L26.1293 50.515L29.8394 47.5874L34.3625 44.0172C34.3625 44.0172 32.9476 42.7237 32.6406 42.3307C32.585 42.2616 32.5681 42.2228 32.5968 42.2228H32.6727C33.1449 42.2025 35.3929 42.0659 35.3929 42.0659L34.2512 36.7772L33.9712 35.4804V35.4669L33.4923 35.3843V35.3977L33.155 35.3455L26.2625 50.2823V50.2924L26.249 50.3211L24.6975 35.4399L24.3754 35.4871C24.3754 35.4871 24.0904 35.5664 23.6182 35.7114L21.4258 39.2816L23.4731 41.4521Z" fill="#BDD1F9"/>
</g>
<path d="M41.3874 22.4001C41.3874 25.4354 36.4807 29.2267 36.4807 29.2267C36.4807 29.2267 32.7071 29.2267 31.1474 29.2267C28.9564 29.2267 26.1099 26.3085 24.624 24.9242C22.9937 23.4053 21.7607 23.9508 21.7607 21.5467C21.7607 18.9178 22.4168 14.3248 24.3207 12.8001C25.7446 11.6599 28.1147 10.6667 30.0807 10.6667C34.9874 10.6667 37.5146 12.6716 39.0407 14.5067C41.3874 17.0667 41.3874 20.3784 41.3874 22.4001Z" fill="#5A6986"/>
<path d="M22.9203 22.4153C22.9203 22.4153 22.3402 21.4203 21.8157 21.7812C20.4817 22.7037 21.7904 24.1018 22.6268 24.434L22.9203 22.4153Z" fill="#E58C7A"/>
<path d="M31.6371 11.2326C32.8872 11.389 34.0811 11.8447 35.1174 12.5611C36.1537 13.2775 37.0017 14.2335 37.5896 15.3477C38.1774 16.462 38.4876 17.7017 38.4939 18.9615C38.5002 20.2213 38.2024 21.464 37.6257 22.5841C36.3929 25.2436 35.3777 27.3854 34.1803 28.9184C32.9526 30.4592 32.3548 32.4081 32.5073 34.3723L32.676 36.3573C27.9995 38.3726 26.1393 35.9862 26.1393 35.9862L26.3974 31.4328C21.5067 30.566 22.6872 21.5267 22.8373 18.8452C22.8373 18.744 22.8373 18.6429 22.8373 18.5417C22.9002 17.4709 23.1824 16.4245 23.6664 15.4674C24.1504 14.5102 24.8259 13.6627 25.651 12.9774C26.4761 12.2921 27.4332 11.7836 28.4629 11.4835C29.4926 11.1833 30.573 11.0979 31.6371 11.2326Z" fill="url(#paint1_linear_4567_128258)"/>
<path d="M36.5029 25.1862C35.2347 26.1154 34.1419 16.3762 29.4435 15.6713C24.745 14.9664 22.6471 21.7425 22.6471 21.7425C22.6471 21.7425 21.7938 17.7625 23.7315 14.7808C25.6692 11.7992 30.3322 9.30665 34.862 11.9915C39.3918 14.6763 41.6989 21.385 36.5029 25.1862Z" fill="#5A6986"/>
<path d="M35.1182 24.6449C35.2604 24.4 35.488 24.2162 35.7574 24.1288C36.3106 23.9416 37.2752 23.7578 37.8924 24.4493C38.798 25.4611 36.722 27.898 34.8855 26.5253C34.8855 26.5253 34.3711 25.9569 35.1182 24.6449Z" fill="#F9A58F"/>
<path d="M25.0771 27.1528C25.0771 27.1528 26.0216 26.7194 26.342 26.856C26.6624 26.9926 26.7923 27.4192 26.7923 27.4192C26.865 27.3133 26.9636 27.2276 27.0787 27.1703C27.1938 27.1131 27.3216 27.0861 27.45 27.0921C27.8564 27.1393 29.1078 28.0837 29.1078 28.0837C29.1078 28.0837 27.6034 29.6403 26.4094 29.2524C25.2154 28.8645 25.0805 27.1528 25.0805 27.1528H25.0771Z" fill="#EA6868"/>
<path d="M29.1078 28.0835C29.1078 28.0835 26.6337 27.6501 25.0771 27.1526C25.0771 27.1526 25.6455 28.5135 26.5949 28.6451C27.5444 28.7766 29.1078 28.0835 29.1078 28.0835Z" fill="white"/>
<defs>
<linearGradient id="paint0_linear_4567_128258" x1="29.2071" y1="35.0586" x2="29.2071" y2="51.6446" gradientUnits="userSpaceOnUse">
<stop stop-color="#F9A58F"/>
<stop offset="1" stop-color="#FF7162"/>
</linearGradient>
<linearGradient id="paint1_linear_4567_128258" x1="29.4398" y1="20.0534" x2="22.6132" y2="78.9334" gradientUnits="userSpaceOnUse">
<stop stop-color="#F8A58D"/>
<stop offset="1" stop-color="#FF7162"/>
</linearGradient>
</defs>
</svg>
