<svg width="64" height="64" viewBox="0 0 64 64" fill="none" xmlns="http://www.w3.org/2000/svg">
<path d="M63.8911 33.6414C60.8418 47.267 51.2101 35.6329 40.2991 41.6435C32.9117 45.7132 32.0319 53.261 24.04 56.5753C13.2558 60.1175 -1.18072 54.6695 0.0768716 37.1916C0.787791 27.7103 15.432 3.12775 38.3068 6.76383C61.1816 10.3999 64.7262 26.4749 63.8911 33.6414Z" fill="#FC766A" fill-opacity="0.25"/>
<rect x="12.8008" y="14.9331" width="42.6667" height="38.4" rx="4" fill="#637392" fill-opacity="0.2"/>
<rect x="10.667" y="12.7998" width="42.6667" height="38.4" rx="4" fill="white"/>
<path d="M40.5332 21.0664C40.5332 18.8573 42.3241 17.0664 44.5332 17.0664H45.0665C47.2757 17.0664 49.0665 18.8573 49.0665 21.0664V34.6931C49.0665 35.7976 48.1711 36.6931 47.0665 36.6931H42.5332C41.4286 36.6931 40.5332 35.7976 40.5332 34.6931V21.0664Z" fill="#FF584A" fill-opacity="0.4"/>
<path d="M14.9336 46.933L21.7603 41.5997H32.0003L40.5336 35.8397L44.8003 21.333" stroke="url(#paint0_linear_4567_128254)" stroke-width="4" stroke-linecap="round" stroke-linejoin="round"/>
<circle cx="44.8004" cy="21.3331" r="1.70667" fill="#FF584A"/>
<path fill-rule="evenodd" clip-rule="evenodd" d="M15.7869 34.9863C15.3156 34.9863 14.9336 35.3684 14.9336 35.8397C14.9336 36.3109 15.3156 36.693 15.7869 36.693H17.4936C17.9649 36.693 18.3469 36.3109 18.3469 35.8397C18.3469 35.3684 17.9649 34.9863 17.4936 34.9863H15.7869ZM20.0536 35.8397C20.0536 35.3684 20.4356 34.9863 20.9069 34.9863H22.6136C23.0849 34.9863 23.4669 35.3684 23.4669 35.8397C23.4669 36.3109 23.0849 36.693 22.6136 36.693H20.9069C20.4356 36.693 20.0536 36.3109 20.0536 35.8397ZM26.0269 34.9863C25.5556 34.9863 25.1736 35.3684 25.1736 35.8397C25.1736 36.3109 25.5556 36.693 26.0269 36.693H27.7336C28.2049 36.693 28.5869 36.3109 28.5869 35.8397C28.5869 35.3684 28.2049 34.9863 27.7336 34.9863H26.0269ZM30.2936 35.8397C30.2936 35.3684 30.6756 34.9863 31.1469 34.9863H32.8536C33.3249 34.9863 33.7069 35.3684 33.7069 35.8397C33.7069 36.3109 33.3249 36.693 32.8536 36.693H31.1469C30.6756 36.693 30.2936 36.3109 30.2936 35.8397ZM36.2669 34.9863C35.7956 34.9863 35.4136 35.3684 35.4136 35.8397C35.4136 36.3109 35.7956 36.693 36.2669 36.693H37.9736C38.4449 36.693 38.8269 36.3109 38.8269 35.8397C38.8269 35.3684 38.4449 34.9863 37.9736 34.9863H36.2669ZM40.5336 35.8397C40.5336 35.3684 40.9156 34.9863 41.3869 34.9863H43.0936C43.5649 34.9863 43.9469 35.3684 43.9469 35.8397C43.9469 36.3109 43.5649 36.693 43.0936 36.693H41.3869C40.9156 36.693 40.5336 36.3109 40.5336 35.8397ZM45.6536 35.8397C45.6536 35.3684 46.0356 34.9863 46.5069 34.9863H48.2136C48.6849 34.9863 49.0669 35.3684 49.0669 35.8397C49.0669 36.3109 48.6849 36.693 48.2136 36.693H46.5069C46.0356 36.693 45.6536 36.3109 45.6536 35.8397Z" fill="url(#paint1_linear_4567_128254)"/>
<ellipse cx="14.1991" cy="21.4224" rx="9.50574" ry="10.209" fill="#F7BE40"/>
<ellipse cx="14.1991" cy="21.4224" rx="9.50574" ry="10.209" fill="#556380" fill-opacity="0.2"/>
<ellipse cx="16.1903" cy="20.6291" rx="8.21475" ry="9.96262" fill="#F7BE40"/>
<g filter="url(#filter0_i_4567_128254)">
<path d="M18.3308 21.0266L16.3035 21.9719C16.6002 22.5556 16.9665 22.9275 17.4022 23.0878C17.838 23.2481 18.3685 23.1824 18.9939 22.8908C19.4175 22.6933 19.7716 22.452 20.0562 22.1671L20.957 23.53C20.5113 23.8803 20.0222 24.1796 19.4896 24.4279C18.4285 24.9227 17.4552 25.029 16.5697 24.7469C15.6842 24.4648 14.9883 23.823 14.4819 22.8213L13.4592 23.2982L13.0303 22.3784L14.053 21.9015L13.7031 21.1511L12.6803 21.628L12.2514 20.7081L13.2862 20.2255C12.8807 19.1769 12.8665 18.222 13.2435 17.361C13.6205 16.5 14.3376 15.8231 15.3946 15.3302C15.8182 15.1326 16.3235 14.9732 16.9103 14.8518L17.3782 16.424C16.9387 16.4717 16.5354 16.5812 16.1683 16.7524C15.0265 17.2848 14.673 18.1594 15.1078 19.3761L17.123 18.4364L17.552 19.3563L15.5247 20.3016L15.8746 21.0521L17.9019 20.1067L18.3308 21.0266Z" fill="#566581"/>
</g>
<defs>
<filter id="filter0_i_4567_128254" x="12.251" y="14.8516" width="8.70605" height="11.0488" filterUnits="userSpaceOnUse" color-interpolation-filters="sRGB">
<feFlood flood-opacity="0" result="BackgroundImageFix"/>
<feBlend mode="normal" in="SourceGraphic" in2="BackgroundImageFix" result="shape"/>
<feColorMatrix in="SourceAlpha" type="matrix" values="0 0 0 0 0 0 0 0 0 0 0 0 0 0 0 0 0 0 127 0" result="hardAlpha"/>
<feOffset dy="1"/>
<feGaussianBlur stdDeviation="1.5"/>
<feComposite in2="hardAlpha" operator="arithmetic" k2="-1" k3="1"/>
<feColorMatrix type="matrix" values="0 0 0 0 0 0 0 0 0 0 0 0 0 0 0 0 0 0 0.15 0"/>
<feBlend mode="normal" in2="shape" result="effect1_innerShadow_4567_128254"/>
</filter>
<linearGradient id="paint0_linear_4567_128254" x1="34.4897" y1="14.8951" x2="20.2389" y2="31.2995" gradientUnits="userSpaceOnUse">
<stop stop-color="#FF584A"/>
<stop offset="1" stop-color="#F8A58D"/>
</linearGradient>
<linearGradient id="paint1_linear_4567_128254" x1="14.9336" y1="34.9863" x2="14.9336" y2="36.693" gradientUnits="userSpaceOnUse">
<stop stop-color="#55637F"/>
<stop offset="1" stop-color="#6D7EA0"/>
</linearGradient>
</defs>
</svg>
