<svg width="304" height="241" viewBox="0 0 304 241" fill="none" xmlns="http://www.w3.org/2000/svg">
<path opacity="0.18" d="M303.682 188.323C303.4 190.957 302.836 193.493 302.083 196.03C297.943 209.687 287.499 221.49 275.361 228.806C261.248 237.293 249.393 241 237.161 241C230.951 240.903 224.741 240.122 218.719 238.561C217.967 238.366 217.12 238.171 216.273 237.976C214.203 237.391 212.133 236.806 210.063 236.123L207.523 235.342L206.206 234.855C204.418 234.269 202.724 233.586 200.842 232.904L198.114 231.831C189.175 228.416 180.613 223.636 171.863 219.637C163.771 216.027 155.585 213.101 146.835 212.808C124.818 211.833 105.059 227.051 83.3244 230.953C57.1675 235.635 29.3169 222.368 14.1685 199.932C13.4158 198.859 12.663 197.688 12.0044 196.517C11.8162 196.127 11.6281 195.835 11.3458 195.444C10.7813 194.469 10.3108 193.591 9.74626 192.615C9.55808 192.225 9.27582 191.737 9.08764 191.347C8.89946 190.957 8.61719 190.372 8.42901 189.884L8.33492 189.786C8.05265 189.299 7.86447 188.811 7.67629 188.323C5.60632 183.836 4.00679 179.153 2.78363 174.373C-1.63859 156.814 -0.791782 138.182 5.32405 121.111C5.88859 119.55 6.45312 118.087 7.11175 116.624C10.2167 109.308 14.4507 102.284 20.2843 97.0162C32.1396 86.3833 48.6053 83.847 62.8129 77.0185C69.6814 73.6042 76.0795 69.4095 82.0071 64.4345C102.707 47.4608 118.984 23.6585 142.413 10.3917C152.386 4.83136 163.395 1.41711 174.685 0.441606C193.692 -1.1192 212.698 3.36811 229.163 13.5133C239.796 20.1467 249.769 27.7556 258.425 48.1436C263.224 59.3619 267.552 74.5797 271.41 95.553C271.88 97.9917 272.445 100.43 273.103 102.772C278.184 120.331 289.475 137.012 296.908 154.278C300.672 163.058 303.494 171.935 303.965 181.202C304.059 183.641 303.965 185.982 303.682 188.323Z" fill="#289DBD"/>
<path opacity="0.39" d="M115.371 191.136C113.953 191.232 112.346 191.424 111.59 192.575C111.401 193.246 111.118 193.822 110.834 194.493C110.078 195.548 108.566 195.452 107.243 195.26C99.3995 194.397 91.3668 195.644 84.1846 198.905C89.5712 201.495 95.7139 201.974 101.668 202.358C145.328 205.523 189.177 208.689 232.932 206.195C235.484 206.003 238.224 205.811 240.303 204.276C241.343 203.509 242.193 202.358 242.004 201.111C241.721 199.289 239.547 198.617 237.846 198.33L185.208 188.067C179.632 187.012 173.962 185.957 168.292 186.052C163 186.244 158.747 188.354 153.644 189.41C141.548 191.903 127.75 190.656 115.371 191.136Z" fill="#1B2B67"/>
<path d="M211.796 197.739L160.848 197.443C159.15 197.443 157.452 196.754 156.225 195.474C154.999 194.195 154.339 192.521 154.339 190.749V100.372C154.339 96.6307 157.263 93.6772 160.848 93.6772H213.305C216.891 93.6772 219.815 96.7292 219.815 100.372L218.306 191.044C218.306 192.816 217.645 194.588 216.419 195.868C215.192 197.148 213.589 197.739 211.796 197.739Z" fill="#FF5950"/>
<path opacity="0.1" d="M213.969 123.925L205.93 126.161C193.161 129.618 179.824 129.618 167.055 126.161L159.015 123.925V101.862H213.969V123.925Z" fill="#020202"/>
<rect x="162.523" y="105.37" width="47.9385" height="12.8615" fill="white"/>
<rect opacity="0.5" x="162.523" y="135.77" width="9.35385" height="11.6923" fill="#FFF2F2"/>
<rect opacity="0.5" x="174.215" y="135.77" width="9.35385" height="11.6923" fill="#FFF2F2"/>
<rect opacity="0.5" x="187.077" y="135.77" width="9.35385" height="11.6923" fill="#FFF2F2"/>
<rect opacity="0.1" x="162.523" y="150.969" width="9.35385" height="11.6923" fill="#FFF2F2"/>
<rect opacity="0.1" x="174.215" y="150.969" width="9.35385" height="11.6923" fill="#FFF2F2"/>
<rect opacity="0.1" x="187.077" y="150.969" width="9.35385" height="11.6923" fill="#FFF2F2"/>
<rect opacity="0.1" x="199.938" y="150.969" width="9.35385" height="11.6923" fill="#FFF2F2"/>
<rect opacity="0.5" x="199.938" y="162.662" width="9.35385" height="26.8923" fill="#FFA6A1"/>
<rect opacity="0.1" x="162.523" y="165" width="9.35385" height="11.6923" fill="#FFF2F2"/>
<rect opacity="0.1" x="174.215" y="165" width="9.35385" height="11.6923" fill="#FFF2F2"/>
<rect opacity="0.1" x="187.077" y="165" width="9.35385" height="11.6923" fill="#FFF2F2"/>
<rect opacity="0.1" x="162.523" y="176.692" width="9.35385" height="11.6923" fill="#FFF2F2"/>
<rect opacity="0.1" x="174.215" y="176.692" width="9.35385" height="11.6923" fill="#FFF2F2"/>
<rect opacity="0.1" x="187.077" y="176.692" width="9.35385" height="11.6923" fill="#FFF2F2"/>
<path d="M109.15 74.0001C109.246 74.0001 109.15 73.8054 109.054 73.8054C108.574 73.7081 108.094 73.7081 107.613 73.6108C107.133 73.6108 106.653 73.3188 106.365 73.0268C106.173 72.7348 106.077 72.3456 105.981 71.9563L105.117 65.9221C104.348 60.9586 104.829 56.0924 104.541 51.1288C104.444 50.6422 104.541 50.0583 104.637 49.5717C104.733 49.1824 104.925 48.7931 105.117 48.4038C105.597 46.8466 105.693 45.2894 105.597 43.6349C105.597 43.2456 105.501 42.759 105.213 42.467C104.541 42.0777 103.868 42.8563 103.58 43.5376L102.812 45.3867C102.812 45.484 102.716 45.5814 102.62 45.6787C102.428 45.776 102.332 45.776 102.14 45.6787C100.795 45.2894 99.3549 44.9001 98.6827 43.6349C98.2025 42.759 98.0105 41.4937 97.0502 41.1044C96.1859 40.9098 95.2256 41.3964 94.9375 42.175C94.6494 43.0509 94.6494 43.9269 94.8415 44.8028C95.0336 46.5546 95.3216 48.4038 96.378 49.7663C96.8581 50.2529 97.3383 50.8369 97.8184 51.4208C98.2025 52.2967 98.3946 53.27 98.3946 54.2432L98.9708 73.2215C99.0668 75.0706 99.1628 77.1144 100.219 78.6716C101.564 80.6181 104.06 81.2021 106.269 81.6887C107.421 81.9807 108.574 82.078 109.726 81.8833C110.878 81.6887 111.839 80.8128 112.223 79.6449C112.319 78.5743 112.127 77.6011 111.455 76.7251C110.782 75.7519 109.534 74.9733 109.15 74.0001Z" fill="#F9D0B4"/>
<path d="M101.178 46.7155C100.193 46.9375 99.2069 46.9375 98.2213 46.8635C97.5313 46.8635 96.8414 46.7155 96.3485 46.4195C95.9543 45.9755 95.7572 45.4574 95.9543 44.8654C95.9543 44.7914 95.9543 44.7173 96.0529 44.6433C96.1514 44.5693 96.25 44.5693 96.3485 44.5693L100.981 44.8654C101.671 44.9394 103.149 44.7173 102.854 45.4574C102.558 46.1235 101.967 46.5675 101.178 46.7155Z" fill="#E2B596"/>
<path d="M170.708 88.7453L163.28 90.2161L159.194 91.0006L155.294 84.921C153.437 83.0578 153.437 82.6656 152.416 85.1171C149.538 91.8831 144.709 104.239 144.338 113.554L142.017 113.26L112.212 109.534L120.475 81.1947L109.519 82.5675L107.569 73.0558L125.397 66.8781C127.254 66.2897 129.203 65.9956 131.06 65.8975C136.724 65.5053 146.938 65.113 153.345 67.7606C161.887 71.0946 170.708 88.7453 170.708 88.7453Z" fill="#289DBD"/>
<path d="M170.446 86.6616C170.446 86.6616 173.694 91.8825 172.93 93.8526C172.166 95.8227 155.162 103.309 155.162 103.309C153.921 103.408 153.156 104.688 152.774 105.87C152.488 107.151 152.297 108.432 152.106 109.712C152.01 110.993 151.341 112.175 150.482 113.061C150.1 113.357 149.718 113.554 149.24 113.554C148.953 113.554 148.667 113.455 148.38 113.258C147.043 112.47 146.279 110.993 146.183 109.417C146.088 107.841 146.47 106.363 147.043 104.885H145.037C144.75 104.196 145.706 103.703 146.374 103.408C149.335 102.423 162.613 91.981 162.709 91.1929C162.804 90.4049 160.703 88.7303 160.703 88.7303C163.759 87.3512 167.103 86.6616 170.446 86.6616Z" fill="#F9D0B4"/>
<path d="M130.954 56.2014C130.954 56.9836 131.034 57.6681 131.195 58.4503C131.435 59.2326 131.756 60.0148 132.318 60.6015C132.8 61.1882 133.522 61.5793 133.683 62.4594C133.763 63.0461 133.683 63.6328 133.602 64.1217C133.442 64.8061 133.362 65.4906 133.281 66.1751C133.201 66.8595 133.362 67.544 133.683 68.1307C134.164 68.8152 134.967 69.2063 135.689 69.1085C136.813 69.2063 137.856 68.7174 138.579 67.7396C139.06 66.8595 139.381 65.9795 139.542 65.0017C139.863 63.9261 140.103 62.7527 140.424 61.7749C141.147 59.7215 141.789 57.5703 142.27 55.4191C142.832 53.1702 142.752 50.7256 142.11 48.4766C141.468 46.6188 139.301 45.7388 137.776 45.7388C136.09 45.7388 134.485 46.4232 133.201 47.7922C132.238 48.8678 131.756 50.7256 131.355 52.1923C131.114 53.3657 130.954 54.7347 130.954 56.2014Z" fill="#F9D0B4"/>
<path d="M133.401 46.995C133.02 46.6244 132.734 46.161 132.639 45.6977C132.162 44.4931 131.971 43.1957 132.257 41.8984C132.543 40.6011 133.401 39.5818 134.64 39.0258C135.212 38.8405 135.879 38.6551 136.547 38.7478C136.833 38.7478 137.214 38.8405 137.5 38.9331C138.834 39.3965 139.12 41.1571 140.264 41.8984C140.359 41.4351 140.836 41.0644 141.408 41.0644C141.884 41.0644 142.361 41.3424 142.647 41.8058C142.933 42.1764 143.123 42.6398 143.409 43.1031C143.886 43.8444 144.458 44.5857 145.22 45.0491C145.316 45.1417 145.411 45.2344 145.602 45.2344C145.792 45.2344 145.888 45.1417 146.078 45.0491C146.555 44.8637 147.031 45.3271 147.222 45.7904C147.317 46.2537 147.413 46.717 147.603 47.1804C147.889 47.7364 148.556 48.107 148.938 48.5704C149.796 49.6823 149.891 51.0723 149.224 52.277C148.556 53.389 147.699 54.4083 146.65 55.2423C146.459 54.9643 145.983 54.8716 145.697 55.057C145.411 55.2423 145.125 55.5203 144.934 55.7983C144.744 56.0763 144.363 56.2616 143.981 56.2616C143.886 55.1496 144.553 54.1303 144.648 53.0183C144.648 51.2577 143.695 49.6823 142.17 48.8484C140.645 48.0144 138.834 47.7364 137.119 48.0144C135.784 47.9217 134.259 47.829 133.401 46.995Z" fill="#473F47"/>
<path d="M145.738 55.2698C145.988 55.0555 146.322 55.0555 146.656 55.1627C147.073 55.3769 147.323 55.9126 147.323 56.4482C147.323 57.091 147.156 57.6266 146.823 58.1623C146.489 58.5908 146.155 59.0193 145.738 59.3407C145.488 59.5549 145.237 59.7692 144.987 59.7692C144.486 59.7692 144.069 59.4478 143.902 58.9122C143.735 58.3765 143.819 57.7338 144.069 57.1981C144.319 56.2339 144.987 55.484 145.738 55.2698Z" fill="#F9D0B4"/>
<ellipse cx="99.3847" cy="27.6158" rx="17.5385" ry="18.1231" fill="#FF5950"/>
<ellipse cx="98.9422" cy="27.4814" rx="15.3233" ry="14.7791" transform="rotate(-80.7816 98.9422 27.4814)" fill="white"/>
<path d="M103.438 42.2012C103.594 41.3111 103.984 40.5323 104.529 39.976C104.607 39.8648 104.685 39.8648 104.841 39.976C104.919 40.0873 104.997 40.1985 104.997 40.3098C105.153 41.0886 105.231 41.7562 105.231 42.535C105.231 43.0913 105.231 43.5363 105.231 44.0926C105.231 45.0939 104.841 46.0953 104.217 46.7628C103.906 46.9853 102.892 47.0966 102.892 45.984C102.97 45.3164 103.048 44.7601 103.126 44.0926C103.282 43.5363 103.36 42.8687 103.438 42.2012Z" fill="#F9D0B4"/>
<path d="M111.077 108.877C111.077 108.877 111.677 148.252 113.775 163.344C115.874 178.05 117.273 189.659 117.373 190.723L122.369 190.046L127.266 126.194L133.562 152.799L146.154 153.67L145.654 111.392L111.077 108.877Z" fill="#414042"/>
<path d="M108.34 176.693C108.34 176.693 147.44 160.845 146.121 153.117L134.25 152.139L105.231 173.66L108.34 176.693Z" fill="#414042"/>
<path d="M116.99 194.003C116.901 194.089 116.901 194.26 116.99 194.345C117.08 194.431 117.17 194.516 117.26 194.516C120.584 195.543 123.908 196.484 127.412 196.57C127.861 196.57 128.49 196.484 128.58 196.056C128.67 195.8 128.58 195.543 128.4 195.286C127.502 193.746 126.154 192.463 124.537 191.522C123.549 190.923 122.381 190.495 121.932 189.554C121.213 189.725 120.404 189.811 119.686 189.896C119.147 189.896 118.248 189.725 117.889 190.068C117.619 190.581 117.44 191.18 117.35 191.779C117.17 192.634 117.08 193.319 116.99 194.003Z" fill="#414042"/>
<path d="M109.908 176.13C109.705 175.861 109.705 175.593 109.806 175.235C108.995 176.488 108.691 177.919 108.792 179.35C108.894 180.781 108.894 182.212 108.691 183.553C108.691 184.09 108.387 184.537 107.88 184.805C107.17 185.074 106.46 184.537 106.054 184.09C103.621 181.585 102.505 178.276 103.012 174.967C103.012 174.788 103.114 174.699 103.215 174.52C103.418 174.341 103.722 174.162 104.026 174.162C105.649 173.804 106.359 172.821 107.575 172.016C108.589 172.999 109.198 174.878 109.908 176.13Z" fill="#414042"/>
<path d="M162.485 88.5216L158.241 89.3237L154.189 83.1072C152.259 81.2021 152.259 80.8011 151.198 83.3077C148.208 90.2261 143.191 102.86 142.805 112.385L140.393 112.084C139.911 111.382 139.718 110.58 139.718 109.778C139.525 107.171 140.393 104.263 138.753 102.258C138.368 101.757 137.885 101.356 137.982 100.754C138.078 100.353 138.271 100.052 138.561 99.8517C140.972 97.1445 142.998 94.1365 144.349 90.7275C145.121 88.8224 145.796 86.8171 146.761 85.0123C147.725 83.2075 148.786 81.6032 149.944 79.9989C150.716 78.896 151.681 77.6928 153.031 77.392C154.575 76.9909 156.118 78.0939 157.083 79.2971C157.951 80.7008 158.626 82.1045 159.109 83.7088C159.495 84.6112 159.977 85.4133 160.556 86.2155C161.038 86.7168 161.906 86.9173 162.292 87.3184C162.485 87.6192 162.582 88.1205 162.485 88.5216Z" fill="url(#paint0_linear_3919_109155)"/>
<rect opacity="0.5" x="199.938" y="135.77" width="9.35385" height="11.6923" fill="#FFF2F2"/>
<path d="M91.4923 24.8875H93.3435C93.5384 23.8157 93.9282 22.7439 94.3179 21.867C94.8051 20.9901 95.2923 20.2106 95.9743 19.626C96.6564 19.0413 97.3384 18.5542 98.2153 18.1644C98.9948 17.8721 99.9692 17.6772 100.944 17.6772C102.21 17.6772 103.282 17.8721 104.159 18.3593C105.036 18.8465 105.815 19.5285 106.4 20.308L105.231 21.5747C105.133 21.6721 105.036 21.7696 104.938 21.867C104.841 21.9644 104.744 21.9644 104.549 21.9644C104.451 21.9644 104.354 21.9644 104.159 21.867C104.061 21.7696 103.964 21.6721 103.769 21.5747C103.672 21.4772 103.477 21.3798 103.379 21.1849C103.185 21.0875 103.087 20.8926 102.795 20.7952C102.503 20.6978 102.308 20.6003 102.015 20.5029C101.723 20.4055 101.333 20.4055 100.944 20.4055C99.8717 20.4055 98.9948 20.7952 98.2153 21.4772C97.4358 22.1593 96.9487 23.3285 96.6564 24.6926H103.477V25.7644C103.477 25.9593 103.379 26.1542 103.185 26.349C102.99 26.5439 102.795 26.6413 102.503 26.6413H96.3641C96.3641 26.8362 96.3641 26.9337 96.3641 27.1285C96.3641 27.3234 96.3641 27.4208 96.3641 27.6157C96.3641 27.7131 96.3641 27.8106 96.3641 27.908C96.3641 28.0055 96.3641 28.1029 96.3641 28.2003H102.113V29.1747C102.113 29.3696 102.015 29.5644 101.82 29.7593C101.626 29.9542 101.431 30.0516 101.138 30.0516H96.4615C96.7538 31.6106 97.241 32.7798 97.923 33.5593C98.6051 34.3388 99.5794 34.7285 100.651 34.7285C101.333 34.7285 101.82 34.6311 102.21 34.4362C102.6 34.2413 102.892 34.0465 103.185 33.8516C103.477 33.6567 103.672 33.4619 103.769 33.267C103.964 33.0721 104.159 32.9747 104.354 32.9747C104.451 32.9747 104.549 32.9747 104.646 32.9747C104.744 32.9747 104.841 33.0721 104.841 33.1696L106.303 34.5337C105.62 35.508 104.841 36.2875 103.867 36.7747C102.892 37.2619 101.723 37.5542 100.456 37.5542C99.3846 37.5542 98.4102 37.3593 97.6307 36.9696C96.7538 36.5798 96.0717 36.0926 95.3897 35.4106C94.8051 34.7285 94.2205 33.949 93.8307 33.0721C93.441 32.0978 93.1487 31.1234 92.9538 29.9542H91.2V28.1029H93.0512C93.0512 28.0055 93.0512 27.908 93.0512 27.8106C93.0512 27.7131 93.0512 27.6157 93.0512 27.5183C93.0512 27.3234 93.0512 27.226 93.0512 27.0311C93.0512 26.8362 93.0512 26.7388 93.0512 26.5439H91.4923V24.8875Z" fill="#FF5950"/>
<defs>
<linearGradient id="paint0_linear_3919_109155" x1="99.6211" y1="26.0234" x2="96.9411" y2="172.191" gradientUnits="userSpaceOnUse">
<stop offset="0.01"/>
<stop offset="0.13" stop-opacity="0.69"/>
<stop offset="0.25" stop-opacity="0.32"/>
<stop offset="1" stop-opacity="0.01"/>
</linearGradient>
</defs>
</svg>
