<svg width="64" height="64" viewBox="0 0 64 64" fill="none" xmlns="http://www.w3.org/2000/svg">
<path d="M52.5988 53.1711C38.3773 62.5106 35.7749 49.9473 25.2311 49.1779C18.3156 47.9213 19.0939 49.519 11.7852 47.5268C2.43134 44.1772 -3.44718 30.1846 6.97258 18.4429C12.6448 12.089 39.5708 3.43671 53.3165 18.4685C67.0621 33.5003 57.0909 48.5304 52.5988 53.1711Z" fill="#FC766A" fill-opacity="0.25"/>
<g filter="url(#filter0_d_4567_128262)">
<ellipse cx="32.0003" cy="32" rx="19.4407" ry="19.4407" fill="white"/>
<ellipse cx="31.9998" cy="32.0001" rx="15.5526" ry="15.5526" fill="#F5F5F7"/>
<path d="M31.9998 30.8336C29.3156 30.8336 27.1396 28.6577 27.1396 25.9735C27.1396 23.2906 29.3156 21.1133 31.9998 21.1133C34.6854 21.1133 36.86 23.2906 36.86 25.9735C36.86 28.6577 34.6854 30.8336 31.9998 30.8336Z" fill="url(#paint0_linear_4567_128262)"/>
<mask id="mask0_4567_128262" style="mask-type:alpha" maskUnits="userSpaceOnUse" x="16" y="16" width="32" height="32">
<ellipse cx="31.9997" cy="31.9997" rx="15.4382" ry="15.4382" fill="white"/>
</mask>
<g mask="url(#mask0_4567_128262)">
<path d="M31.9997 56.014C25.3681 56.014 19.9922 50.638 19.9922 44.0065C19.9922 37.3784 25.3681 31.999 31.9997 31.999C38.6346 31.999 44.0071 37.3784 44.0071 44.0065C44.0071 50.638 38.6346 56.014 31.9997 56.014Z" fill="url(#paint1_linear_4567_128262)"/>
</g>
</g>
<defs>
<filter id="filter0_d_4567_128262" x="8.55957" y="10.5593" width="46.8818" height="46.8813" filterUnits="userSpaceOnUse" color-interpolation-filters="sRGB">
<feFlood flood-opacity="0" result="BackgroundImageFix"/>
<feColorMatrix in="SourceAlpha" type="matrix" values="0 0 0 0 0 0 0 0 0 0 0 0 0 0 0 0 0 0 127 0" result="hardAlpha"/>
<feOffset dy="2"/>
<feGaussianBlur stdDeviation="2"/>
<feColorMatrix type="matrix" values="0 0 0 0 0 0 0 0 0 0 0 0 0 0 0 0 0 0 0.3 0"/>
<feBlend mode="normal" in2="BackgroundImageFix" result="effect1_dropShadow_4567_128262"/>
<feBlend mode="normal" in="SourceGraphic" in2="effect1_dropShadow_4567_128262" result="shape"/>
</filter>
<linearGradient id="paint0_linear_4567_128262" x1="28.9108" y1="22.5782" x2="24.3173" y2="28.7563" gradientUnits="userSpaceOnUse">
<stop stop-color="#F8A58D"/>
<stop offset="1" stop-color="#D65F52"/>
</linearGradient>
<linearGradient id="paint1_linear_4567_128262" x1="24.368" y1="35.6182" x2="13.0193" y2="50.8816" gradientUnits="userSpaceOnUse">
<stop stop-color="#F8A58D"/>
<stop offset="1" stop-color="#D65F52"/>
</linearGradient>
</defs>
</svg>
