<svg width="64" height="64" viewBox="0 0 64 64" fill="none" xmlns="http://www.w3.org/2000/svg">
<path d="M38.489 48.0462C10.1572 49.8059 10.5475 51.0864 4.52947 45.6534C-1.48858 40.2205 3.10901 25.1387 5.57468 21.1832C8.04035 17.2278 15.1278 12.2688 19.032 14.6678C22.9361 17.0668 20.2102 21.1832 27.7335 21.1832C35.2567 21.1832 47.3195 -0.98119 57.1841 9.76282C67.0487 20.5068 66.8209 46.2866 38.489 48.0462Z" fill="#FC766A" fill-opacity="0.25"/>
<mask id="mask0_4567_128250" style="mask-type:alpha" maskUnits="userSpaceOnUse" x="1" y="6" width="63" height="44">
<path d="M38.489 48.0462C10.1572 49.8059 10.5475 51.0864 4.52947 45.6534C-1.48858 40.2205 3.10901 25.1387 5.57468 21.1832C8.04035 17.2278 15.1278 12.2688 19.032 14.6678C22.9361 17.0668 20.2102 21.1832 27.7335 21.1832C35.2567 21.1832 47.3195 -0.98119 57.1841 9.76282C67.0487 20.5068 66.8209 46.2866 38.489 48.0462Z" fill="white"/>
</mask>
<g mask="url(#mask0_4567_128250)">
<path opacity="0.131348" d="M24.6981 18.4413C24.8732 18.1199 25.21 17.9199 25.5761 17.9199H52.6C53.342 17.9199 53.8255 18.6996 53.4958 19.3643L53.4296 19.4977C53.2608 19.838 52.9137 20.0533 52.5338 20.0533H25.5034C24.7444 20.0533 24.2621 19.241 24.6254 18.5746L24.6981 18.4413Z" fill="#55637F"/>
<path opacity="0.131348" d="M22.992 23.1346C23.1672 22.8133 23.504 22.6133 23.8701 22.6133H50.8939C51.636 22.6133 52.1195 23.393 51.7898 24.0577L51.7236 24.191C51.5548 24.5313 51.2077 24.7466 50.8278 24.7466H23.7974C23.0384 24.7466 22.5561 23.9343 22.9194 23.268L22.992 23.1346Z" fill="#55637F"/>
<path opacity="0.153229" fill-rule="evenodd" clip-rule="evenodd" d="M17.7891 30.5488C18.1475 30.3723 18.7397 30.2935 18.7397 30.2935H50.2477C50.2477 30.2935 50.6756 30.3021 50.9655 30.4852C51.2553 30.6682 51.1868 31.0848 51.1868 31.0848L48.2777 38.3546C48.2777 38.3546 48.1378 38.6814 47.7765 39.0525C47.0917 39.2535 46.1496 39.2535 46.1496 39.2535H14.7133C14.7133 39.2535 14.321 39.2535 13.5835 39.2107C13.112 39.0905 13.2634 38.7171 13.2634 38.7171L17.1643 31.0246C17.1643 31.0246 17.3905 30.7047 17.7891 30.5488Z" fill="url(#paint0_linear_4567_128250)"/>
<path fill-rule="evenodd" clip-rule="evenodd" d="M16.083 28.4155C16.4415 28.239 17.0336 28.1602 17.0336 28.1602H48.5417C48.5417 28.1602 48.9696 28.1688 49.2594 28.3519C49.5493 28.5349 49.4807 28.9515 49.4807 28.9515L46.5716 36.2213C46.5716 36.2213 46.4317 36.5481 46.0704 36.9192C45.3857 37.1202 44.4436 37.1202 44.4436 37.1202H13.0072C13.0072 37.1202 12.615 37.1202 11.8775 37.0774C11.4059 36.9572 11.5573 36.5838 11.5573 36.5838L15.4582 28.8913C15.4582 28.8913 15.6845 28.5714 16.083 28.4155Z" fill="white"/>
</g>
<path fill-rule="evenodd" clip-rule="evenodd" d="M16.2121 46.1627L14.7275 44.3986L18.9001 41.1709L20.3849 42.935L16.2121 46.1627Z" fill="url(#paint1_linear_4567_128250)"/>
<path fill-rule="evenodd" clip-rule="evenodd" d="M29.0247 21.5361C26.1616 21.5361 23.2806 22.4761 20.8841 24.4098C15.3122 28.9053 14.4365 37.0961 18.9322 42.6679C21.4941 45.8433 25.2562 47.4934 29.0498 47.4934C31.9127 47.4934 34.7938 46.5534 37.1904 44.6198C42.7623 40.1241 43.638 31.9335 39.1423 26.3616C36.5804 23.1863 32.8183 21.5361 29.0247 21.5361ZM35.7739 29.0789C37.223 30.8749 37.8855 33.1321 37.6394 35.4345C37.3933 37.7368 36.2687 39.803 34.4728 41.2522C32.9201 42.5049 31.0441 43.1672 29.0475 43.1672C26.4089 43.1672 23.9498 41.9949 22.3005 39.9506C19.3035 36.2357 19.8872 30.7748 23.6019 27.7774C25.1545 26.5247 27.0305 25.8624 29.0271 25.8624C31.6658 25.8624 34.1248 27.0347 35.7739 29.0789Z" fill="url(#paint2_linear_4567_128250)"/>
<ellipse opacity="0.18478" cx="25.9429" cy="32.1084" rx="4.95017" ry="8.48604" transform="rotate(-140 25.9429 32.1084)" fill="#B5C4FF"/>
<path fill-rule="evenodd" clip-rule="evenodd" d="M28.5049 19.9922H29.2769V15.3599H28.5049V19.9922Z" fill="#F99D86"/>
<path fill-rule="evenodd" clip-rule="evenodd" d="M28.5049 54.7349H29.2769V50.1025H28.5049V54.7349Z" fill="#F99D86"/>
<path fill-rule="evenodd" clip-rule="evenodd" d="M19.8635 21.9226L16.5381 16.0602L17.0727 15.7461L20.3984 21.6085L19.8635 21.9226Z" fill="#F99D86"/>
<path fill-rule="evenodd" clip-rule="evenodd" d="M43.0224 52.0331L38.542 47.2077L39.08 47.0146L43.5604 51.84L43.0224 52.0331Z" fill="#F99D86"/>
<path fill-rule="evenodd" clip-rule="evenodd" d="M14.668 27.3269L11.9062 25.6174L12.2327 25.0107L14.9945 26.7207L14.668 27.3269Z" fill="#F99D86"/>
<path fill-rule="evenodd" clip-rule="evenodd" d="M46.7116 43.5401L42.7881 41.3731L43.1109 40.8379L47.0344 43.0052L46.7116 43.5401Z" fill="#F99D86"/>
<path fill-rule="evenodd" clip-rule="evenodd" d="M8.0459 34.6612H13.0643V33.8892H8.0459V34.6612Z" fill="#F99D86"/>
<path fill-rule="evenodd" clip-rule="evenodd" d="M43.9463 34.6612H46.2625V33.8892H43.9463V34.6612Z" fill="#F99D86"/>
<path fill-rule="evenodd" clip-rule="evenodd" d="M42.3422 26.941L42.0166 26.4005L49.4116 22.3086L49.7372 22.8494L42.3422 26.941Z" fill="#F99D86"/>
<path fill-rule="evenodd" clip-rule="evenodd" d="M37.1475 21.5364L36.6123 21.2136L38.7796 17.29L39.3145 17.6128L37.1475 21.5364Z" fill="#F99D86"/>
<path fill-rule="evenodd" clip-rule="evenodd" d="M3.43457 52.1088C3.43457 52.0646 3.53398 51.9596 3.53398 51.9596L14.2124 43.772L16.8635 46.8969L6.66697 55.6438C6.66697 55.6438 6.55069 55.7276 6.4628 55.7296C6.3749 55.7316 6.277 55.6527 6.277 55.6527L3.4631 52.2363C3.4631 52.2363 3.43457 52.153 3.43457 52.1088Z" fill="#576581"/>
<path fill-rule="evenodd" clip-rule="evenodd" d="M4.31152 51.364L13.3282 44.0796L16.2511 47.8458L7.29882 55.1069L4.31152 51.364Z" fill="#576581"/>
<path fill-rule="evenodd" clip-rule="evenodd" d="M21.5638 40.7838C18.1592 36.4925 18.8201 30.2073 23.0397 26.745C24.855 25.2555 27.0339 24.5312 29.1979 24.5312C32.0638 24.5312 34.9043 25.8011 36.844 28.2459C40.2486 32.5372 39.5877 38.8224 35.3682 42.2845C33.5528 43.7742 31.3742 44.4984 29.2099 44.4984C26.344 44.4984 23.5035 43.2285 21.5638 40.7838ZM29.0473 42.8345C29.2086 42.8345 29.3691 42.83 29.5287 42.8209C30.4301 42.7704 31.3017 42.5777 32.1226 42.2502C32.2551 42.1973 32.386 42.141 32.5158 42.0812C33.1335 41.7962 33.7194 41.4324 34.264 40.9931C34.2686 40.9892 34.2733 40.9854 34.2781 40.9817C34.6479 40.6818 34.9883 40.3547 35.2966 40.0039C35.5309 39.7373 35.7472 39.4569 35.944 39.1646C36.0781 38.9655 36.2032 38.7608 36.3191 38.551C36.4675 38.2829 36.6007 38.0065 36.7184 37.7227C37.022 36.9907 37.2221 36.2101 37.3087 35.3992C37.3793 34.7397 37.3723 34.0839 37.2907 33.4428C37.2343 32.9987 37.1421 32.5613 37.0154 32.1347C36.9355 31.8661 36.8421 31.6018 36.735 31.3423C36.6391 31.1098 36.5325 30.8814 36.415 30.6574C36.1634 30.1776 35.8627 29.719 35.515 29.2881C35.1063 28.7812 34.6458 28.3303 34.1438 27.9399C32.6988 26.8161 30.9108 26.1952 29.0277 26.1952C27.1079 26.1952 25.304 26.832 23.8112 28.0366C22.3057 29.2515 21.335 30.8867 20.9316 32.6402C20.4666 34.6613 20.7553 36.8393 21.8473 38.709C21.8612 38.7328 21.875 38.7562 21.8892 38.7799C21.9289 38.8464 21.9694 38.9121 22.0112 38.9778C22.1776 39.2394 22.3605 39.4946 22.5598 39.7416C23.8308 41.3171 25.6022 42.3539 27.5618 42.7034C28.047 42.79 28.5437 42.8345 29.0473 42.8345Z" fill="url(#paint3_linear_4567_128250)"/>
<path fill-rule="evenodd" clip-rule="evenodd" d="M4.31152 51.3644L8.0962 48.3105C8.0962 48.3105 9.52424 49.0781 10.5595 49.3022C11.5947 49.5262 13.8561 49.7803 13.8561 49.7803L7.29882 55.1073L4.31152 51.3644Z" fill="#7A87A1"/>
<defs>
<linearGradient id="paint0_linear_4567_128250" x1="13.2266" y1="30.2935" x2="13.2266" y2="39.2535" gradientUnits="userSpaceOnUse">
<stop stop-color="#55637F"/>
<stop offset="1" stop-color="#6D7EA0"/>
</linearGradient>
<linearGradient id="paint1_linear_4567_128250" x1="15.7584" y1="41.9232" x2="13.4988" y2="45.3674" gradientUnits="userSpaceOnUse">
<stop stop-color="#F8A58D"/>
<stop offset="1" stop-color="#FF7162"/>
</linearGradient>
<linearGradient id="paint2_linear_4567_128250" x1="26.4774" y1="14.1223" x2="2.0786" y2="28.1765" gradientUnits="userSpaceOnUse">
<stop stop-color="#FC766A"/>
<stop offset="1" stop-color="#55637F"/>
</linearGradient>
<linearGradient id="paint3_linear_4567_128250" x1="22.9643" y1="27.5404" x2="13.4839" y2="40.0785" gradientUnits="userSpaceOnUse">
<stop stop-color="#F8A58D"/>
<stop offset="1" stop-color="#FF7162"/>
</linearGradient>
</defs>
</svg>
