<svg width="40" height="40" viewBox="0 0 40 40" fill="none" xmlns="http://www.w3.org/2000/svg">
<circle cx="21.3945" cy="0.78125" r="0.78125" fill="#FF5950"/>
<path fill-rule="evenodd" clip-rule="evenodd" d="M39.693 2.38594C39.4961 1.92031 39.2148 1.50227 38.8555 1.14375C38.4969 0.785156 38.0797 0.503984 37.6141 0.307031C37.1328 0.103047 36.6211 0 36.0938 0H24.9109C24.4797 0 24.1297 0.350781 24.1297 0.78125C24.1297 1.21172 24.4797 1.5625 24.9109 1.5625H36.0938C37.3836 1.56477 38.4352 2.61641 38.4375 3.90625V26.7188H1.5625V3.90625C1.56484 2.61641 2.61641 1.56477 3.90625 1.5625H17.8797C18.3102 1.5625 18.6609 1.21172 18.6609 0.78125C18.6609 0.350781 18.3109 0.00078125 17.8805 0H17.8797H3.90625C3.37891 0 2.86719 0.103047 2.38594 0.307031C1.92031 0.503984 1.50313 0.785156 1.14453 1.14375C0.785156 1.50234 0.503906 1.92031 0.307031 2.38594C0.103125 2.86719 0 3.37891 0 3.90625V29.0625C0 31.2164 1.75234 32.9688 3.90625 32.9688H14.5312V34.1406C14.5312 34.521 14.5312 35.3125 12.5781 35.3125C10.6396 35.3125 9.0625 36.8896 9.0625 38.8281V39.2188C9.0625 39.6502 9.41227 40 9.84375 40H30.1562C30.5877 40 30.9375 39.6502 30.9375 39.2188V38.8281C30.9375 36.8896 29.3604 35.3125 27.4219 35.3125C25.4688 35.3125 25.4688 34.521 25.4688 34.1406V32.9688H36.0938C38.2477 32.9688 40 31.2164 40 29.0625V3.90625C40 3.37891 39.8969 2.86719 39.693 2.38594ZM27.4219 36.075C28.3651 36.075 29.1543 36.7472 29.3358 37.6375H10.6642C10.8457 36.7472 11.6349 36.075 12.5781 36.075L12.5926 36.0748L12.607 36.0745L12.6105 36.0747L12.6121 36.0748C12.6138 36.0749 12.6155 36.075 12.6172 36.075H17.4219C17.8534 36.075 18.2031 35.7252 18.2031 35.2938C18.2031 34.8623 17.8534 34.5125 17.4219 34.5125H15.8573C16.0416 34.1045 16.0938 33.6836 16.0938 33.3406V32.1688H23.9063V33.3406C23.9063 33.6836 23.9584 34.1045 24.1427 34.5125H22.6172C22.1857 34.5125 21.8359 34.8623 21.8359 35.2938C21.8359 35.7252 22.1857 36.075 22.6172 36.075H27.4219ZM36.0938 31.4062C37.3861 31.4062 38.4375 30.3548 38.4375 29.0625V28.2812H1.5625V29.0625C1.5625 30.3548 2.61391 31.4062 3.90625 31.4062H36.0938Z" fill="#FF5950"/>
<path d="M11.416 20.4688H5.16602C4.73453 20.4688 4.38477 20.8186 4.38477 21.25C4.38477 21.6814 4.73453 22.0312 5.16602 22.0312H11.416C11.8475 22.0312 12.1973 21.6814 12.1973 21.25C12.1973 20.8186 11.8475 20.4688 11.416 20.4688Z" fill="#FF5950"/>
<path d="M11.416 17.3438H5.16602C4.73453 17.3438 4.38477 17.6936 4.38477 18.125C4.38477 18.5564 4.73453 18.9062 5.16602 18.9062H11.416C11.8475 18.9062 12.1973 18.5564 12.1973 18.125C12.1973 17.6936 11.8475 17.3438 11.416 17.3438Z" fill="#FF5950"/>
<path d="M11.416 14.2188H7.50977C7.07828 14.2188 6.72852 14.5686 6.72852 15C6.72852 15.4314 7.07828 15.7812 7.50977 15.7812H11.416C11.8475 15.7812 12.1973 15.4314 12.1973 15C12.1973 14.5686 11.8475 14.2188 11.416 14.2188Z" fill="#FF5950"/>
<path d="M16.084 18.9062H19.209C19.6402 18.9062 19.9902 18.5555 19.9902 18.125C19.9902 17.6945 19.6402 17.3438 19.209 17.3438H16.084C15.6535 17.3438 15.3027 17.6945 15.3027 18.125C15.3027 18.5555 15.6535 18.9062 16.084 18.9062Z" fill="#FF5950"/>
<path d="M23.5051 18.125C23.5051 17.6945 23.1551 17.3438 22.7238 17.3438C22.2934 17.3438 21.9434 17.6945 21.9434 18.125C21.9434 18.5555 22.2934 18.9062 22.7238 18.9062C23.1551 18.9062 23.5051 18.5555 23.5051 18.125Z" fill="#FF5950"/>
<path d="M23.1152 14.2188H16.084C15.6525 14.2188 15.3027 14.5686 15.3027 15C15.3027 15.4314 15.6525 15.7812 16.084 15.7812H23.1152C23.5467 15.7812 23.8965 15.4314 23.8965 15C23.8965 14.5686 23.5466 14.2188 23.1152 14.2188Z" fill="#FF5950"/>
<path d="M34.834 17.3438H27.8027C27.3713 17.3438 27.0215 17.6936 27.0215 18.125C27.0215 18.5564 27.3713 18.9062 27.8027 18.9062H34.834C35.2655 18.9062 35.6152 18.5564 35.6152 18.125C35.6152 17.6936 35.2654 17.3438 34.834 17.3438Z" fill="#FF5950"/>
<path d="M34.834 14.2188H28.584C28.1525 14.2188 27.8027 14.5686 27.8027 15C27.8027 15.4314 28.1525 15.7812 28.584 15.7812H34.834C35.2655 15.7812 35.6152 15.4314 35.6152 15C35.6152 14.5686 35.2654 14.2188 34.834 14.2188Z" fill="#FF5950"/>
<path d="M12.8118 3.90629C12.8118 3.45761 12.4336 3.0973 11.9786 3.12668C11.5633 3.15363 11.2493 3.51691 11.2493 3.93308V10.1503C11.2493 10.4448 11.0961 10.7136 10.8413 10.8519C10.5887 10.9893 10.2725 10.9265 10.0126 10.7559C9.70436 10.5536 9.29584 10.625 9.03842 10.8593H9.03905C8.69873 11.25 8.76053 11.788 9.16561 12.0589C9.57264 12.3311 10.0669 12.4984 10.5216 12.4984C10.8636 12.4984 11.2212 12.4214 11.5869 12.2227C12.3455 11.8107 12.8117 11.018 12.8117 10.1502V3.90629H12.8118Z" fill="#FF5950"/>
<path fill-rule="evenodd" clip-rule="evenodd" d="M28.3145 3.125H26.0837C25.6522 3.125 25.3125 3.47484 25.3125 3.90625V11.7188C25.3125 12.1438 25.66 12.5 26.0837 12.5H26.0872H28.704C30.2746 12.5 31.5523 11.1969 31.5523 9.60656C31.5523 8.63648 31.0765 7.7775 30.3492 7.25445C30.6713 6.82258 30.8627 6.28547 30.8627 5.70391C30.8628 4.28195 29.7196 3.125 28.3145 3.125ZM26.875 4.6875H28.3145C28.858 4.6875 29.3003 5.14164 29.3003 5.70203C29.3003 6.26242 28.858 6.71875 28.3145 6.71875H26.875V4.6875ZM26.875 10.9341C27.5 10.9315 28.3746 10.9282 28.7091 10.9282C29.4181 10.9282 29.9949 10.3353 29.9949 9.60656C29.9949 8.87781 29.4181 8.28492 28.7091 8.28492C28.7091 8.28492 27.1094 8.28406 26.875 8.28492V10.9341Z" fill="#FF5950"/>
<path fill-rule="evenodd" clip-rule="evenodd" d="M19.0469 12.5C16.4622 12.5 14.3594 10.3972 14.3594 7.8125C14.3594 5.22781 16.4622 3.125 19.0469 3.125C21.6316 3.125 23.7344 5.22781 23.7344 7.8125C23.7344 10.3972 21.6316 12.5 19.0469 12.5ZM22.1719 7.8125C22.1719 6.08938 20.77 4.6875 19.0469 4.6875C17.3238 4.6875 15.9219 6.08938 15.9219 7.8125C15.9219 9.53562 17.3238 10.9375 19.0469 10.9375C20.77 10.9375 22.1719 9.53562 22.1719 7.8125Z" fill="#FF5950"/>
<circle cx="21.3945" cy="0.78125" r="0.78125" fill="#FF5950"/>
<path fill-rule="evenodd" clip-rule="evenodd" d="M39.693 2.38594C39.4961 1.92031 39.2148 1.50227 38.8555 1.14375C38.4969 0.785156 38.0797 0.503984 37.6141 0.307031C37.1328 0.103047 36.6211 0 36.0938 0H24.9109C24.4797 0 24.1297 0.350781 24.1297 0.78125C24.1297 1.21172 24.4797 1.5625 24.9109 1.5625H36.0938C37.3836 1.56477 38.4352 2.61641 38.4375 3.90625V26.7188H1.5625V3.90625C1.56484 2.61641 2.61641 1.56477 3.90625 1.5625H17.8797C18.3102 1.5625 18.6609 1.21172 18.6609 0.78125C18.6609 0.350781 18.3109 0.00078125 17.8805 0H17.8797H3.90625C3.37891 0 2.86719 0.103047 2.38594 0.307031C1.92031 0.503984 1.50313 0.785156 1.14453 1.14375C0.785156 1.50234 0.503906 1.92031 0.307031 2.38594C0.103125 2.86719 0 3.37891 0 3.90625V29.0625C0 31.2164 1.75234 32.9688 3.90625 32.9688H14.5312V34.1406C14.5312 34.521 14.5312 35.3125 12.5781 35.3125C10.6396 35.3125 9.0625 36.8896 9.0625 38.8281V39.2188C9.0625 39.6502 9.41227 40 9.84375 40H30.1562C30.5877 40 30.9375 39.6502 30.9375 39.2188V38.8281C30.9375 36.8896 29.3604 35.3125 27.4219 35.3125C25.4688 35.3125 25.4688 34.521 25.4688 34.1406V32.9688H36.0938C38.2477 32.9688 40 31.2164 40 29.0625V3.90625C40 3.37891 39.8969 2.86719 39.693 2.38594ZM27.4219 36.075C28.3651 36.075 29.1543 36.7472 29.3358 37.6375H10.6642C10.8457 36.7472 11.6349 36.075 12.5781 36.075L12.5926 36.0748L12.607 36.0745L12.6105 36.0747L12.6121 36.0748C12.6138 36.0749 12.6155 36.075 12.6172 36.075H17.4219C17.8534 36.075 18.2031 35.7252 18.2031 35.2938C18.2031 34.8623 17.8534 34.5125 17.4219 34.5125H15.8573C16.0416 34.1045 16.0938 33.6836 16.0938 33.3406V32.1688H23.9063V33.3406C23.9063 33.6836 23.9584 34.1045 24.1427 34.5125H22.6172C22.1857 34.5125 21.8359 34.8623 21.8359 35.2938C21.8359 35.7252 22.1857 36.075 22.6172 36.075H27.4219ZM36.0938 31.4062C37.3861 31.4062 38.4375 30.3548 38.4375 29.0625V28.2812H1.5625V29.0625C1.5625 30.3548 2.61391 31.4062 3.90625 31.4062H36.0938Z" fill="#FF5950"/>
<path d="M11.416 20.4688H5.16602C4.73453 20.4688 4.38477 20.8186 4.38477 21.25C4.38477 21.6814 4.73453 22.0312 5.16602 22.0312H11.416C11.8475 22.0312 12.1973 21.6814 12.1973 21.25C12.1973 20.8186 11.8475 20.4688 11.416 20.4688Z" fill="#FF5950"/>
<path d="M11.416 17.3438H5.16602C4.73453 17.3438 4.38477 17.6936 4.38477 18.125C4.38477 18.5564 4.73453 18.9062 5.16602 18.9062H11.416C11.8475 18.9062 12.1973 18.5564 12.1973 18.125C12.1973 17.6936 11.8475 17.3438 11.416 17.3438Z" fill="#FF5950"/>
<path d="M11.416 14.2188H7.50977C7.07828 14.2188 6.72852 14.5686 6.72852 15C6.72852 15.4314 7.07828 15.7812 7.50977 15.7812H11.416C11.8475 15.7812 12.1973 15.4314 12.1973 15C12.1973 14.5686 11.8475 14.2188 11.416 14.2188Z" fill="#FF5950"/>
<path d="M16.084 18.9062H19.209C19.6402 18.9062 19.9902 18.5555 19.9902 18.125C19.9902 17.6945 19.6402 17.3438 19.209 17.3438H16.084C15.6535 17.3438 15.3027 17.6945 15.3027 18.125C15.3027 18.5555 15.6535 18.9062 16.084 18.9062Z" fill="#FF5950"/>
<path d="M23.5051 18.125C23.5051 17.6945 23.1551 17.3438 22.7238 17.3438C22.2934 17.3438 21.9434 17.6945 21.9434 18.125C21.9434 18.5555 22.2934 18.9062 22.7238 18.9062C23.1551 18.9062 23.5051 18.5555 23.5051 18.125Z" fill="#FF5950"/>
<path d="M23.1152 14.2188H16.084C15.6525 14.2188 15.3027 14.5686 15.3027 15C15.3027 15.4314 15.6525 15.7812 16.084 15.7812H23.1152C23.5467 15.7812 23.8965 15.4314 23.8965 15C23.8965 14.5686 23.5466 14.2188 23.1152 14.2188Z" fill="#FF5950"/>
<path d="M34.834 17.3438H27.8027C27.3713 17.3438 27.0215 17.6936 27.0215 18.125C27.0215 18.5564 27.3713 18.9062 27.8027 18.9062H34.834C35.2655 18.9062 35.6152 18.5564 35.6152 18.125C35.6152 17.6936 35.2654 17.3438 34.834 17.3438Z" fill="#FF5950"/>
<path d="M34.834 14.2188H28.584C28.1525 14.2188 27.8027 14.5686 27.8027 15C27.8027 15.4314 28.1525 15.7812 28.584 15.7812H34.834C35.2655 15.7812 35.6152 15.4314 35.6152 15C35.6152 14.5686 35.2654 14.2188 34.834 14.2188Z" fill="#FF5950"/>
<path d="M12.8118 3.90629C12.8118 3.45761 12.4336 3.0973 11.9786 3.12668C11.5633 3.15363 11.2493 3.51691 11.2493 3.93308V10.1503C11.2493 10.4448 11.0961 10.7136 10.8413 10.8519C10.5887 10.9893 10.2725 10.9265 10.0126 10.7559C9.70436 10.5536 9.29584 10.625 9.03842 10.8593H9.03905C8.69873 11.25 8.76053 11.788 9.16561 12.0589C9.57264 12.3311 10.0669 12.4984 10.5216 12.4984C10.8636 12.4984 11.2212 12.4214 11.5869 12.2227C12.3455 11.8107 12.8117 11.018 12.8117 10.1502V3.90629H12.8118Z" fill="#FF5950"/>
<path fill-rule="evenodd" clip-rule="evenodd" d="M28.3145 3.125H26.0837C25.6522 3.125 25.3125 3.47484 25.3125 3.90625V11.7188C25.3125 12.1438 25.66 12.5 26.0837 12.5H26.0872H28.704C30.2746 12.5 31.5523 11.1969 31.5523 9.60656C31.5523 8.63648 31.0765 7.7775 30.3492 7.25445C30.6713 6.82258 30.8627 6.28547 30.8627 5.70391C30.8628 4.28195 29.7196 3.125 28.3145 3.125ZM26.875 4.6875H28.3145C28.858 4.6875 29.3003 5.14164 29.3003 5.70203C29.3003 6.26242 28.858 6.71875 28.3145 6.71875H26.875V4.6875ZM26.875 10.9341C27.5 10.9315 28.3746 10.9282 28.7091 10.9282C29.4181 10.9282 29.9949 10.3353 29.9949 9.60656C29.9949 8.87781 29.4181 8.28492 28.7091 8.28492C28.7091 8.28492 27.1094 8.28406 26.875 8.28492V10.9341Z" fill="#FF5950"/>
<path fill-rule="evenodd" clip-rule="evenodd" d="M19.0469 12.5C16.4622 12.5 14.3594 10.3972 14.3594 7.8125C14.3594 5.22781 16.4622 3.125 19.0469 3.125C21.6316 3.125 23.7344 5.22781 23.7344 7.8125C23.7344 10.3972 21.6316 12.5 19.0469 12.5ZM22.1719 7.8125C22.1719 6.08938 20.77 4.6875 19.0469 4.6875C17.3238 4.6875 15.9219 6.08938 15.9219 7.8125C15.9219 9.53562 17.3238 10.9375 19.0469 10.9375C20.77 10.9375 22.1719 9.53562 22.1719 7.8125Z" fill="#FF5950"/>
</svg>
